<svg id="Layer_1" data-name="Layer 1" xmlns="http://www.w3.org/2000/svg" viewBox="0 0 667.33 457.39"><defs><style>.cls-1{fill:#16110d;}.cls-2{fill:#f2f2f2;}.cls-3{fill:#fff;}.cls-4{fill:#39a1ff;}</style></defs><title>art-2</title><ellipse class="cls-1" cx="213.89" cy="424.19" rx="3.78" ry="2.18"/><path class="cls-1" d="M250.23,424.69c1.47.85,1.47,2.24,0,3.09a5.93,5.93,0,0,1-5.35,0c-1.48-.85-1.48-2.24,0-3.09A5.93,5.93,0,0,1,250.23,424.69Z" transform="translate(-19.67 -10.13)"/><path class="cls-1" d="M264.22,416.61c1.48.86,1.48,2.24,0,3.09a5.87,5.87,0,0,1-5.35,0c-1.48-.85-1.48-2.23,0-3.09A5.93,5.93,0,0,1,264.22,416.61Z" transform="translate(-19.67 -10.13)"/><path class="cls-1" d="M278.21,408.54c1.48.85,1.48,2.23,0,3.08a5.87,5.87,0,0,1-5.35,0c-1.48-.85-1.48-2.23,0-3.08A5.87,5.87,0,0,1,278.21,408.54Z" transform="translate(-19.67 -10.13)"/><path class="cls-1" d="M292.2,400.46c1.48.85,1.48,2.23,0,3.09a5.93,5.93,0,0,1-5.35,0c-1.48-.86-1.48-2.24,0-3.09A5.93,5.93,0,0,1,292.2,400.46Z" transform="translate(-19.67 -10.13)"/><path class="cls-1" d="M306.19,392.38c1.48.85,1.48,2.24,0,3.09a5.93,5.93,0,0,1-5.35,0c-1.48-.85-1.48-2.24,0-3.09A5.93,5.93,0,0,1,306.19,392.38Z" transform="translate(-19.67 -10.13)"/><path class="cls-1" d="M320.18,384.3c1.48.86,1.48,2.24,0,3.09a5.93,5.93,0,0,1-5.35,0c-1.48-.85-1.48-2.23,0-3.09A5.93,5.93,0,0,1,320.18,384.3Z" transform="translate(-19.67 -10.13)"/><path class="cls-1" d="M334.17,376.22c1.48.86,1.48,2.24,0,3.09a5.87,5.87,0,0,1-5.35,0c-1.48-.85-1.48-2.23,0-3.09A5.93,5.93,0,0,1,334.17,376.22Z" transform="translate(-19.67 -10.13)"/><path class="cls-1" d="M222.25,424.69c1.47.85,1.47,2.24,0,3.09a6,6,0,0,1-5.36,0c-1.47-.85-1.47-2.24,0-3.09A6,6,0,0,1,222.25,424.69Z" transform="translate(-19.67 -10.13)"/><path class="cls-1" d="M236.24,416.61c1.47.86,1.47,2.24,0,3.09a5.89,5.89,0,0,1-5.36,0c-1.47-.85-1.47-2.23,0-3.09A6,6,0,0,1,236.24,416.61Z" transform="translate(-19.67 -10.13)"/><path class="cls-1" d="M250.23,408.54c1.47.85,1.47,2.23,0,3.08a5.87,5.87,0,0,1-5.35,0c-1.48-.85-1.48-2.23,0-3.08A5.87,5.87,0,0,1,250.23,408.54Z" transform="translate(-19.67 -10.13)"/><path class="cls-1" d="M264.22,400.46c1.48.85,1.48,2.23,0,3.09a5.93,5.93,0,0,1-5.35,0c-1.48-.86-1.48-2.24,0-3.09A5.93,5.93,0,0,1,264.22,400.46Z" transform="translate(-19.67 -10.13)"/><path class="cls-1" d="M278.21,392.38c1.48.85,1.48,2.24,0,3.09a5.93,5.93,0,0,1-5.35,0c-1.48-.85-1.48-2.24,0-3.09A5.93,5.93,0,0,1,278.21,392.38Z" transform="translate(-19.67 -10.13)"/><path class="cls-1" d="M292.2,384.3c1.48.86,1.48,2.24,0,3.09a5.87,5.87,0,0,1-5.35,0c-1.48-.85-1.48-2.23,0-3.09A5.93,5.93,0,0,1,292.2,384.3Z" transform="translate(-19.67 -10.13)"/><path class="cls-1" d="M306.19,376.22c1.48.86,1.48,2.24,0,3.09a5.87,5.87,0,0,1-5.35,0c-1.48-.85-1.48-2.23,0-3.09A5.93,5.93,0,0,1,306.19,376.22Z" transform="translate(-19.67 -10.13)"/><path class="cls-1" d="M320.18,368.15c1.48.85,1.48,2.23,0,3.09a5.93,5.93,0,0,1-5.35,0c-1.48-.86-1.48-2.24,0-3.09A5.87,5.87,0,0,1,320.18,368.15Z" transform="translate(-19.67 -10.13)"/><path class="cls-1" d="M208.25,416.61c1.48.86,1.48,2.24,0,3.09a5.87,5.87,0,0,1-5.35,0c-1.47-.85-1.47-2.23,0-3.09A5.93,5.93,0,0,1,208.25,416.61Z" transform="translate(-19.67 -10.13)"/><ellipse class="cls-1" cx="199.9" cy="399.95" rx="3.78" ry="2.18"/><path class="cls-1" d="M236.24,400.46c1.47.85,1.47,2.23,0,3.09a6,6,0,0,1-5.36,0c-1.47-.86-1.47-2.24,0-3.09A6,6,0,0,1,236.24,400.46Z" transform="translate(-19.67 -10.13)"/><path class="cls-1" d="M250.23,392.38c1.47.85,1.47,2.24,0,3.09a5.93,5.93,0,0,1-5.35,0c-1.48-.85-1.48-2.24,0-3.09A5.93,5.93,0,0,1,250.23,392.38Z" transform="translate(-19.67 -10.13)"/><path class="cls-1" d="M264.22,384.3c1.48.86,1.48,2.24,0,3.09a5.87,5.87,0,0,1-5.35,0c-1.48-.85-1.48-2.23,0-3.09A5.93,5.93,0,0,1,264.22,384.3Z" transform="translate(-19.67 -10.13)"/><path class="cls-1" d="M278.21,376.22c1.48.86,1.48,2.24,0,3.09a5.87,5.87,0,0,1-5.35,0c-1.48-.85-1.48-2.23,0-3.09A5.93,5.93,0,0,1,278.21,376.22Z" transform="translate(-19.67 -10.13)"/><path class="cls-1" d="M292.2,368.15c1.48.85,1.48,2.23,0,3.09a5.93,5.93,0,0,1-5.35,0c-1.48-.86-1.48-2.24,0-3.09A5.87,5.87,0,0,1,292.2,368.15Z" transform="translate(-19.67 -10.13)"/><ellipse class="cls-1" cx="283.85" cy="351.49" rx="3.78" ry="2.18"/><path class="cls-1" d="M194.26,408.54c1.48.85,1.48,2.23,0,3.08a5.87,5.87,0,0,1-5.35,0c-1.48-.85-1.48-2.23,0-3.08A5.87,5.87,0,0,1,194.26,408.54Z" transform="translate(-19.67 -10.13)"/><path class="cls-1" d="M208.25,400.46c1.48.85,1.48,2.23,0,3.09a5.93,5.93,0,0,1-5.35,0c-1.47-.86-1.47-2.24,0-3.09A5.93,5.93,0,0,1,208.25,400.46Z" transform="translate(-19.67 -10.13)"/><path class="cls-1" d="M222.25,392.38c1.47.85,1.47,2.24,0,3.09a6,6,0,0,1-5.36,0c-1.47-.85-1.47-2.24,0-3.09A6,6,0,0,1,222.25,392.38Z" transform="translate(-19.67 -10.13)"/><path class="cls-1" d="M236.24,384.3c1.47.86,1.47,2.24,0,3.09a5.89,5.89,0,0,1-5.36,0c-1.47-.85-1.47-2.23,0-3.09A6,6,0,0,1,236.24,384.3Z" transform="translate(-19.67 -10.13)"/><path class="cls-1" d="M250.23,376.22c1.47.86,1.47,2.24,0,3.09a5.87,5.87,0,0,1-5.35,0c-1.48-.85-1.48-2.23,0-3.09A5.93,5.93,0,0,1,250.23,376.22Z" transform="translate(-19.67 -10.13)"/><path class="cls-1" d="M264.22,368.15c1.48.85,1.48,2.23,0,3.09a5.93,5.93,0,0,1-5.35,0c-1.48-.86-1.48-2.24,0-3.09A5.87,5.87,0,0,1,264.22,368.15Z" transform="translate(-19.67 -10.13)"/><path class="cls-1" d="M278.21,360.07c1.48.85,1.48,2.24,0,3.09a5.93,5.93,0,0,1-5.35,0c-1.48-.85-1.48-2.24,0-3.09A5.93,5.93,0,0,1,278.21,360.07Z" transform="translate(-19.67 -10.13)"/><path class="cls-1" d="M292.2,352c1.48.85,1.48,2.24,0,3.09a5.93,5.93,0,0,1-5.35,0c-1.48-.85-1.48-2.24,0-3.09A5.93,5.93,0,0,1,292.2,352Z" transform="translate(-19.67 -10.13)"/><path class="cls-1" d="M180.27,400.46c1.48.85,1.48,2.23,0,3.09a5.93,5.93,0,0,1-5.35,0c-1.48-.86-1.48-2.24,0-3.09A5.93,5.93,0,0,1,180.27,400.46Z" transform="translate(-19.67 -10.13)"/><path class="cls-1" d="M194.26,392.38c1.48.85,1.48,2.24,0,3.09a5.93,5.93,0,0,1-5.35,0c-1.48-.85-1.48-2.24,0-3.09A5.93,5.93,0,0,1,194.26,392.38Z" transform="translate(-19.67 -10.13)"/><ellipse class="cls-1" cx="185.91" cy="375.72" rx="3.78" ry="2.18"/><path class="cls-1" d="M222.25,376.22c1.47.86,1.47,2.24,0,3.09a5.89,5.89,0,0,1-5.36,0c-1.47-.85-1.47-2.23,0-3.09A6,6,0,0,1,222.25,376.22Z" transform="translate(-19.67 -10.13)"/><path class="cls-1" d="M236.24,368.15c1.47.85,1.47,2.23,0,3.09a6,6,0,0,1-5.36,0c-1.47-.86-1.47-2.24,0-3.09A5.89,5.89,0,0,1,236.24,368.15Z" transform="translate(-19.67 -10.13)"/><ellipse class="cls-1" cx="227.88" cy="351.49" rx="3.78" ry="2.18"/><path class="cls-1" d="M264.22,352c1.48.85,1.48,2.24,0,3.09a5.93,5.93,0,0,1-5.35,0c-1.48-.85-1.48-2.24,0-3.09A5.93,5.93,0,0,1,264.22,352Z" transform="translate(-19.67 -10.13)"/><path class="cls-1" d="M278.21,343.91c1.48.86,1.48,2.24,0,3.09a5.87,5.87,0,0,1-5.35,0c-1.48-.85-1.48-2.23,0-3.09A5.93,5.93,0,0,1,278.21,343.91Z" transform="translate(-19.67 -10.13)"/><path class="cls-1" d="M166.16,392.3c1.48.85,1.48,2.23,0,3.09a5.93,5.93,0,0,1-5.35,0c-1.48-.86-1.48-2.24,0-3.09A5.87,5.87,0,0,1,166.16,392.3Z" transform="translate(-19.67 -10.13)"/><ellipse class="cls-1" cx="157.81" cy="375.64" rx="3.78" ry="2.18"/><path class="cls-1" d="M194.14,376.14c1.48.85,1.48,2.24,0,3.09a5.93,5.93,0,0,1-5.35,0c-1.48-.85-1.48-2.24,0-3.09A5.93,5.93,0,0,1,194.14,376.14Z" transform="translate(-19.67 -10.13)"/><path class="cls-1" d="M208.13,368.06c1.48.86,1.48,2.24,0,3.09a5.93,5.93,0,0,1-5.35,0c-1.48-.85-1.48-2.23,0-3.09A5.93,5.93,0,0,1,208.13,368.06Z" transform="translate(-19.67 -10.13)"/><path class="cls-1" d="M222.12,360c1.48.86,1.48,2.24,0,3.09a5.87,5.87,0,0,1-5.35,0c-1.48-.85-1.48-2.23,0-3.09A5.93,5.93,0,0,1,222.12,360Z" transform="translate(-19.67 -10.13)"/><path class="cls-1" d="M236.12,351.91c1.47.85,1.47,2.23,0,3.09a6,6,0,0,1-5.36,0c-1.47-.86-1.47-2.24,0-3.09A5.89,5.89,0,0,1,236.12,351.91Z" transform="translate(-19.67 -10.13)"/><path class="cls-1" d="M250.11,343.83c1.47.85,1.47,2.24,0,3.09a5.93,5.93,0,0,1-5.35,0c-1.48-.85-1.48-2.24,0-3.09A5.87,5.87,0,0,1,250.11,343.83Z" transform="translate(-19.67 -10.13)"/><path class="cls-1" d="M264.1,335.75c1.47.85,1.47,2.24,0,3.09a5.93,5.93,0,0,1-5.35,0c-1.48-.85-1.48-2.24,0-3.09A5.93,5.93,0,0,1,264.1,335.75Z" transform="translate(-19.67 -10.13)"/><ellipse class="cls-1" cx="129.82" cy="375.64" rx="3.78" ry="2.18"/><ellipse class="cls-1" cx="143.82" cy="367.56" rx="3.78" ry="2.18"/><path class="cls-1" d="M180.15,368.06c1.48.86,1.48,2.24,0,3.09a5.93,5.93,0,0,1-5.35,0c-1.48-.85-1.48-2.23,0-3.09A5.93,5.93,0,0,1,180.15,368.06Z" transform="translate(-19.67 -10.13)"/><path class="cls-1" d="M194.14,360c1.48.86,1.48,2.24,0,3.09a5.87,5.87,0,0,1-5.35,0c-1.48-.85-1.48-2.23,0-3.09A5.93,5.93,0,0,1,194.14,360Z" transform="translate(-19.67 -10.13)"/><path class="cls-1" d="M208.13,351.91c1.48.85,1.48,2.23,0,3.09a5.93,5.93,0,0,1-5.35,0c-1.48-.86-1.48-2.24,0-3.09A5.87,5.87,0,0,1,208.13,351.91Z" transform="translate(-19.67 -10.13)"/><path class="cls-1" d="M222.12,343.83c1.48.85,1.48,2.24,0,3.09a5.93,5.93,0,0,1-5.35,0c-1.47-.85-1.47-2.24,0-3.09A5.93,5.93,0,0,1,222.12,343.83Z" transform="translate(-19.67 -10.13)"/><path class="cls-1" d="M236.12,335.75c1.47.85,1.47,2.24,0,3.09a6,6,0,0,1-5.36,0c-1.47-.85-1.47-2.24,0-3.09A6,6,0,0,1,236.12,335.75Z" transform="translate(-19.67 -10.13)"/><path class="cls-1" d="M250.11,327.67c1.47.86,1.47,2.24,0,3.09a5.87,5.87,0,0,1-5.35,0c-1.48-.85-1.48-2.23,0-3.09A5.93,5.93,0,0,1,250.11,327.67Z" transform="translate(-19.67 -10.13)"/><path class="cls-1" d="M138.18,376.14c1.48.85,1.48,2.24,0,3.09a5.93,5.93,0,0,1-5.35,0c-1.48-.85-1.48-2.24,0-3.09A5.93,5.93,0,0,1,138.18,376.14Z" transform="translate(-19.67 -10.13)"/><path class="cls-1" d="M152.17,368.06c1.48.86,1.48,2.24,0,3.09a5.93,5.93,0,0,1-5.35,0c-1.48-.85-1.48-2.23,0-3.09A5.93,5.93,0,0,1,152.17,368.06Z" transform="translate(-19.67 -10.13)"/><path class="cls-1" d="M166.16,360c1.48.85,1.48,2.23,0,3.08a5.87,5.87,0,0,1-5.35,0c-1.48-.85-1.48-2.23,0-3.08A5.87,5.87,0,0,1,166.16,360Z" transform="translate(-19.67 -10.13)"/><path class="cls-1" d="M180.15,351.91c1.48.85,1.48,2.23,0,3.09a5.93,5.93,0,0,1-5.35,0c-1.48-.86-1.48-2.24,0-3.09A5.87,5.87,0,0,1,180.15,351.91Z" transform="translate(-19.67 -10.13)"/><path class="cls-1" d="M194.14,343.83c1.48.85,1.48,2.24,0,3.09a5.93,5.93,0,0,1-5.35,0c-1.48-.85-1.48-2.24,0-3.09A5.93,5.93,0,0,1,194.14,343.83Z" transform="translate(-19.67 -10.13)"/><path class="cls-1" d="M208.13,335.75c1.48.85,1.48,2.24,0,3.09a5.93,5.93,0,0,1-5.35,0c-1.48-.85-1.48-2.24,0-3.09A5.93,5.93,0,0,1,208.13,335.75Z" transform="translate(-19.67 -10.13)"/><path class="cls-1" d="M222.12,327.67c1.48.86,1.48,2.24,0,3.09a5.87,5.87,0,0,1-5.35,0c-1.47-.85-1.47-2.23,0-3.09A5.93,5.93,0,0,1,222.12,327.67Z" transform="translate(-19.67 -10.13)"/><path class="cls-1" d="M236.12,319.6c1.47.85,1.47,2.23,0,3.09a6,6,0,0,1-5.36,0c-1.47-.86-1.47-2.24,0-3.09A5.89,5.89,0,0,1,236.12,319.6Z" transform="translate(-19.67 -10.13)"/><path class="cls-1" d="M124.19,368.06c1.47.86,1.47,2.24,0,3.09a6,6,0,0,1-5.36,0c-1.47-.85-1.47-2.23,0-3.09A6,6,0,0,1,124.19,368.06Z" transform="translate(-19.67 -10.13)"/><path class="cls-1" d="M138.18,360c1.48.85,1.48,2.23,0,3.08a5.87,5.87,0,0,1-5.35,0c-1.48-.85-1.48-2.23,0-3.08A5.87,5.87,0,0,1,138.18,360Z" transform="translate(-19.67 -10.13)"/><path class="cls-1" d="M152.17,351.91c1.48.85,1.48,2.23,0,3.09a5.93,5.93,0,0,1-5.35,0c-1.48-.86-1.48-2.24,0-3.09A5.87,5.87,0,0,1,152.17,351.91Z" transform="translate(-19.67 -10.13)"/><path class="cls-1" d="M166.16,343.83c1.48.85,1.48,2.24,0,3.09a5.93,5.93,0,0,1-5.35,0c-1.48-.85-1.48-2.24,0-3.09A5.93,5.93,0,0,1,166.16,343.83Z" transform="translate(-19.67 -10.13)"/><path class="cls-1" d="M180.15,335.75c1.48.85,1.48,2.24,0,3.09a5.93,5.93,0,0,1-5.35,0c-1.48-.85-1.48-2.24,0-3.09A5.93,5.93,0,0,1,180.15,335.75Z" transform="translate(-19.67 -10.13)"/><ellipse class="cls-1" cx="171.8" cy="319.09" rx="3.78" ry="2.18"/><ellipse class="cls-1" cx="185.79" cy="311.02" rx="3.78" ry="2.18"/><path class="cls-1" d="M110.2,360c1.47.85,1.47,2.23,0,3.08a5.89,5.89,0,0,1-5.36,0c-1.47-.85-1.47-2.23,0-3.08A5.89,5.89,0,0,1,110.2,360Z" transform="translate(-19.67 -10.13)"/><path class="cls-1" d="M124.19,351.91c1.47.85,1.47,2.23,0,3.09a5.93,5.93,0,0,1-5.35,0c-1.48-.86-1.48-2.24,0-3.09A5.87,5.87,0,0,1,124.19,351.91Z" transform="translate(-19.67 -10.13)"/><path class="cls-1" d="M138.18,343.83c1.48.85,1.48,2.24,0,3.09a5.93,5.93,0,0,1-5.35,0c-1.48-.85-1.48-2.24,0-3.09A5.93,5.93,0,0,1,138.18,343.83Z" transform="translate(-19.67 -10.13)"/><path class="cls-1" d="M152.17,335.75c1.48.85,1.48,2.24,0,3.09a5.93,5.93,0,0,1-5.35,0c-1.48-.85-1.48-2.24,0-3.09A5.93,5.93,0,0,1,152.17,335.75Z" transform="translate(-19.67 -10.13)"/><ellipse class="cls-1" cx="143.82" cy="319.09" rx="3.78" ry="2.18"/><ellipse class="cls-1" cx="157.81" cy="311.02" rx="3.78" ry="2.18"/><path class="cls-1" d="M96.2,351.91c1.48.85,1.48,2.23,0,3.09a5.93,5.93,0,0,1-5.35,0c-1.47-.86-1.47-2.24,0-3.09A5.87,5.87,0,0,1,96.2,351.91Z" transform="translate(-19.67 -10.13)"/><path class="cls-1" d="M110.2,343.83c1.47.85,1.47,2.24,0,3.09a6,6,0,0,1-5.36,0c-1.47-.85-1.47-2.24,0-3.09A6,6,0,0,1,110.2,343.83Z" transform="translate(-19.67 -10.13)"/><path class="cls-1" d="M124.19,335.75c1.47.85,1.47,2.24,0,3.09a5.93,5.93,0,0,1-5.35,0c-1.48-.85-1.48-2.24,0-3.09A5.93,5.93,0,0,1,124.19,335.75Z" transform="translate(-19.67 -10.13)"/><ellipse class="cls-1" cx="115.83" cy="319.09" rx="3.78" ry="2.18"/><path class="cls-1" d="M152.17,319.6c1.48.85,1.48,2.23,0,3.09a5.93,5.93,0,0,1-5.35,0c-1.48-.86-1.48-2.24,0-3.09A5.87,5.87,0,0,1,152.17,319.6Z" transform="translate(-19.67 -10.13)"/><path class="cls-1" d="M82.21,343.83c1.48.85,1.48,2.24,0,3.09a5.93,5.93,0,0,1-5.35,0c-1.48-.85-1.48-2.24,0-3.09A5.93,5.93,0,0,1,82.21,343.83Z" transform="translate(-19.67 -10.13)"/><path class="cls-1" d="M96.2,335.75c1.48.85,1.48,2.24,0,3.09a5.93,5.93,0,0,1-5.35,0c-1.47-.85-1.47-2.24,0-3.09A5.93,5.93,0,0,1,96.2,335.75Z" transform="translate(-19.67 -10.13)"/><ellipse class="cls-1" cx="87.85" cy="319.09" rx="3.78" ry="2.18"/><ellipse class="cls-1" cx="101.84" cy="311.02" rx="3.78" ry="2.18"/><path class="cls-1" d="M68.22,335.75c1.48.85,1.48,2.24,0,3.09a5.93,5.93,0,0,1-5.35,0c-1.48-.85-1.48-2.24,0-3.09A5.93,5.93,0,0,1,68.22,335.75Z" transform="translate(-19.67 -10.13)"/><ellipse class="cls-1" cx="59.87" cy="319.09" rx="3.78" ry="2.18"/><ellipse class="cls-1" cx="73.86" cy="311.02" rx="3.78" ry="2.19"/><path class="cls-1" d="M54.11,327.59c1.48.85,1.48,2.23,0,3.09a5.93,5.93,0,0,1-5.35,0c-1.48-.86-1.48-2.24,0-3.09A5.93,5.93,0,0,1,54.11,327.59Z" transform="translate(-19.67 -10.13)"/><ellipse class="cls-1" cx="45.76" cy="310.93" rx="3.78" ry="2.18"/><path class="cls-1" d="M82.09,311.43c1.48.86,1.48,2.24,0,3.09a5.87,5.87,0,0,1-5.35,0c-1.48-.85-1.48-2.23,0-3.09A5.93,5.93,0,0,1,82.09,311.43Z" transform="translate(-19.67 -10.13)"/><path class="cls-1" d="M40.12,319.51c1.48.85,1.48,2.24,0,3.09a5.93,5.93,0,0,1-5.35,0c-1.48-.85-1.48-2.24,0-3.09A5.93,5.93,0,0,1,40.12,319.51Z" transform="translate(-19.67 -10.13)"/><path class="cls-1" d="M54.11,311.43c1.48.86,1.48,2.24,0,3.09a5.87,5.87,0,0,1-5.35,0c-1.48-.85-1.48-2.23,0-3.09A5.93,5.93,0,0,1,54.11,311.43Z" transform="translate(-19.67 -10.13)"/><path class="cls-1" d="M26.13,311.43c1.48.86,1.48,2.24,0,3.09a5.87,5.87,0,0,1-5.35,0c-1.48-.85-1.48-2.23,0-3.09A5.93,5.93,0,0,1,26.13,311.43Z" transform="translate(-19.67 -10.13)"/><path class="cls-1" d="M292.75,463.79c1.48.85,1.48,2.23,0,3.09a5.93,5.93,0,0,1-5.35,0c-1.48-.86-1.48-2.24,0-3.09A5.87,5.87,0,0,1,292.75,463.79Z" transform="translate(-19.67 -10.13)"/><path class="cls-1" d="M306.74,455.71c1.48.85,1.48,2.24,0,3.09a5.93,5.93,0,0,1-5.35,0c-1.48-.85-1.48-2.24,0-3.09A5.93,5.93,0,0,1,306.74,455.71Z" transform="translate(-19.67 -10.13)"/><path class="cls-1" d="M320.73,447.63c1.48.86,1.48,2.24,0,3.09a5.93,5.93,0,0,1-5.35,0c-1.48-.85-1.48-2.23,0-3.09A5.93,5.93,0,0,1,320.73,447.63Z" transform="translate(-19.67 -10.13)"/><path class="cls-1" d="M334.72,439.55c1.48.86,1.48,2.24,0,3.09a5.87,5.87,0,0,1-5.35,0c-1.48-.85-1.48-2.23,0-3.09A5.93,5.93,0,0,1,334.72,439.55Z" transform="translate(-19.67 -10.13)"/><path class="cls-1" d="M348.71,431.48c1.48.85,1.48,2.23,0,3.09a5.93,5.93,0,0,1-5.35,0c-1.48-.86-1.48-2.24,0-3.09A5.87,5.87,0,0,1,348.71,431.48Z" transform="translate(-19.67 -10.13)"/><path class="cls-1" d="M362.7,423.4c1.48.85,1.48,2.23,0,3.09a5.93,5.93,0,0,1-5.35,0c-1.48-.86-1.48-2.24,0-3.09A5.93,5.93,0,0,1,362.7,423.4Z" transform="translate(-19.67 -10.13)"/><path class="cls-1" d="M376.69,415.32c1.48.85,1.48,2.24,0,3.09a5.93,5.93,0,0,1-5.35,0c-1.47-.85-1.47-2.24,0-3.09A5.93,5.93,0,0,1,376.69,415.32Z" transform="translate(-19.67 -10.13)"/><path class="cls-1" d="M390.69,407.24c1.47.86,1.47,2.24,0,3.09a5.87,5.87,0,0,1-5.35,0c-1.48-.85-1.48-2.23,0-3.09A5.93,5.93,0,0,1,390.69,407.24Z" transform="translate(-19.67 -10.13)"/><path class="cls-1" d="M278.76,455.71c1.47.85,1.47,2.24,0,3.09a5.93,5.93,0,0,1-5.35,0c-1.48-.85-1.48-2.24,0-3.09A5.93,5.93,0,0,1,278.76,455.71Z" transform="translate(-19.67 -10.13)"/><path class="cls-1" d="M292.75,447.63c1.48.86,1.48,2.24,0,3.09a5.93,5.93,0,0,1-5.35,0c-1.48-.85-1.48-2.23,0-3.09A5.93,5.93,0,0,1,292.75,447.63Z" transform="translate(-19.67 -10.13)"/><path class="cls-1" d="M306.74,439.55c1.48.86,1.48,2.24,0,3.09a5.87,5.87,0,0,1-5.35,0c-1.48-.85-1.48-2.23,0-3.09A5.93,5.93,0,0,1,306.74,439.55Z" transform="translate(-19.67 -10.13)"/><path class="cls-1" d="M320.73,431.48c1.48.85,1.48,2.23,0,3.09a5.93,5.93,0,0,1-5.35,0c-1.48-.86-1.48-2.24,0-3.09A5.87,5.87,0,0,1,320.73,431.48Z" transform="translate(-19.67 -10.13)"/><path class="cls-1" d="M334.72,423.4c1.48.85,1.48,2.23,0,3.09a5.93,5.93,0,0,1-5.35,0c-1.48-.86-1.48-2.24,0-3.09A5.93,5.93,0,0,1,334.72,423.4Z" transform="translate(-19.67 -10.13)"/><path class="cls-1" d="M348.71,415.32c1.48.85,1.48,2.24,0,3.09a5.93,5.93,0,0,1-5.35,0c-1.48-.85-1.48-2.24,0-3.09A5.93,5.93,0,0,1,348.71,415.32Z" transform="translate(-19.67 -10.13)"/><path class="cls-1" d="M362.7,407.24c1.48.86,1.48,2.24,0,3.09a5.87,5.87,0,0,1-5.35,0c-1.48-.85-1.48-2.23,0-3.09A5.93,5.93,0,0,1,362.7,407.24Z" transform="translate(-19.67 -10.13)"/><path class="cls-1" d="M376.7,399.17c1.47.85,1.47,2.23,0,3.08a5.89,5.89,0,0,1-5.36,0c-1.47-.85-1.47-2.23,0-3.08A5.89,5.89,0,0,1,376.7,399.17Z" transform="translate(-19.67 -10.13)"/><path class="cls-1" d="M264.77,447.63c1.47.86,1.47,2.24,0,3.09a6,6,0,0,1-5.36,0c-1.47-.85-1.47-2.23,0-3.09A6,6,0,0,1,264.77,447.63Z" transform="translate(-19.67 -10.13)"/><path class="cls-1" d="M278.76,439.55c1.47.86,1.47,2.24,0,3.09a5.87,5.87,0,0,1-5.35,0c-1.48-.85-1.48-2.23,0-3.09A5.93,5.93,0,0,1,278.76,439.55Z" transform="translate(-19.67 -10.13)"/><path class="cls-1" d="M292.75,431.48c1.48.85,1.48,2.23,0,3.09a5.93,5.93,0,0,1-5.35,0c-1.48-.86-1.48-2.24,0-3.09A5.87,5.87,0,0,1,292.75,431.48Z" transform="translate(-19.67 -10.13)"/><path class="cls-1" d="M306.74,423.4c1.48.85,1.48,2.23,0,3.09a5.93,5.93,0,0,1-5.35,0c-1.48-.86-1.48-2.24,0-3.09A5.93,5.93,0,0,1,306.74,423.4Z" transform="translate(-19.67 -10.13)"/><path class="cls-1" d="M320.73,415.32c1.48.85,1.48,2.24,0,3.09a5.93,5.93,0,0,1-5.35,0c-1.48-.85-1.48-2.24,0-3.09A5.93,5.93,0,0,1,320.73,415.32Z" transform="translate(-19.67 -10.13)"/><path class="cls-1" d="M334.72,407.24c1.48.86,1.48,2.24,0,3.09a5.87,5.87,0,0,1-5.35,0c-1.48-.85-1.48-2.23,0-3.09A5.93,5.93,0,0,1,334.72,407.24Z" transform="translate(-19.67 -10.13)"/><path class="cls-1" d="M348.71,399.17c1.48.85,1.48,2.23,0,3.08a5.87,5.87,0,0,1-5.35,0c-1.48-.85-1.48-2.23,0-3.08A5.87,5.87,0,0,1,348.71,399.17Z" transform="translate(-19.67 -10.13)"/><ellipse class="cls-1" cx="340.36" cy="382.51" rx="3.78" ry="2.18"/><path class="cls-1" d="M250.77,439.55c1.48.86,1.48,2.24,0,3.09a5.87,5.87,0,0,1-5.35,0c-1.47-.85-1.47-2.23,0-3.09A5.93,5.93,0,0,1,250.77,439.55Z" transform="translate(-19.67 -10.13)"/><path class="cls-1" d="M264.77,431.48c1.47.85,1.47,2.23,0,3.09a6,6,0,0,1-5.36,0c-1.47-.86-1.47-2.24,0-3.09A5.89,5.89,0,0,1,264.77,431.48Z" transform="translate(-19.67 -10.13)"/><path class="cls-1" d="M278.76,423.4c1.47.85,1.47,2.23,0,3.09a5.93,5.93,0,0,1-5.35,0c-1.48-.86-1.48-2.24,0-3.09A5.93,5.93,0,0,1,278.76,423.4Z" transform="translate(-19.67 -10.13)"/><path class="cls-1" d="M292.75,415.32c1.48.85,1.48,2.24,0,3.09a5.93,5.93,0,0,1-5.35,0c-1.48-.85-1.48-2.24,0-3.09A5.93,5.93,0,0,1,292.75,415.32Z" transform="translate(-19.67 -10.13)"/><path class="cls-1" d="M306.74,407.24c1.48.86,1.48,2.24,0,3.09a5.87,5.87,0,0,1-5.35,0c-1.48-.85-1.48-2.23,0-3.09A5.93,5.93,0,0,1,306.74,407.24Z" transform="translate(-19.67 -10.13)"/><path class="cls-1" d="M320.73,399.17c1.48.85,1.48,2.23,0,3.08a5.87,5.87,0,0,1-5.35,0c-1.48-.85-1.48-2.23,0-3.08A5.87,5.87,0,0,1,320.73,399.17Z" transform="translate(-19.67 -10.13)"/><path class="cls-1" d="M334.72,391.09c1.48.85,1.48,2.23,0,3.09a5.93,5.93,0,0,1-5.35,0c-1.48-.86-1.48-2.24,0-3.09A5.87,5.87,0,0,1,334.72,391.09Z" transform="translate(-19.67 -10.13)"/><path class="cls-1" d="M348.71,383c1.48.85,1.48,2.24,0,3.09a5.93,5.93,0,0,1-5.35,0c-1.48-.85-1.48-2.24,0-3.09A5.93,5.93,0,0,1,348.71,383Z" transform="translate(-19.67 -10.13)"/><path class="cls-1" d="M348.21,368.25c1.48.85,1.48,2.24,0,3.09a5.93,5.93,0,0,1-5.35,0c-1.48-.85-1.48-2.24,0-3.09A5.93,5.93,0,0,1,348.21,368.25Z" transform="translate(-19.67 -10.13)"/><ellipse class="cls-1" cx="339.86" cy="351.59" rx="3.78" ry="2.18"/><ellipse class="cls-1" cx="353.85" cy="343.52" rx="3.78" ry="2.19"/><path class="cls-1" d="M390.18,344c1.48.85,1.48,2.23,0,3.09a5.93,5.93,0,0,1-5.35,0c-1.48-.86-1.48-2.24,0-3.09A5.87,5.87,0,0,1,390.18,344Z" transform="translate(-19.67 -10.13)"/><path class="cls-1" d="M404.17,335.94c1.48.85,1.48,2.24,0,3.09a5.93,5.93,0,0,1-5.35,0c-1.48-.85-1.48-2.24,0-3.09A5.93,5.93,0,0,1,404.17,335.94Z" transform="translate(-19.67 -10.13)"/><ellipse class="cls-1" cx="395.82" cy="319.28" rx="3.78" ry="2.18"/><path class="cls-1" d="M432.15,319.78c1.48.86,1.48,2.24,0,3.09a5.87,5.87,0,0,1-5.35,0c-1.47-.85-1.47-2.23,0-3.09A5.93,5.93,0,0,1,432.15,319.78Z" transform="translate(-19.67 -10.13)"/><ellipse class="cls-1" cx="423.8" cy="303.13" rx="3.78" ry="2.18"/><path class="cls-1" d="M460.14,303.63c1.48.85,1.48,2.24,0,3.09a5.93,5.93,0,0,1-5.35,0c-1.48-.85-1.48-2.24,0-3.09A5.93,5.93,0,0,1,460.14,303.63Z" transform="translate(-19.67 -10.13)"/><path class="cls-1" d="M474.13,295.55c1.48.85,1.48,2.24,0,3.09a5.93,5.93,0,0,1-5.35,0c-1.48-.85-1.48-2.24,0-3.09A5.93,5.93,0,0,1,474.13,295.55Z" transform="translate(-19.67 -10.13)"/><ellipse class="cls-1" cx="465.78" cy="278.89" rx="3.79" ry="2.19"/><path class="cls-1" d="M502.11,279.4c1.48.85,1.48,2.23,0,3.09a5.93,5.93,0,0,1-5.35,0c-1.48-.86-1.48-2.24,0-3.09A5.87,5.87,0,0,1,502.11,279.4Z" transform="translate(-19.67 -10.13)"/><path class="cls-1" d="M516.1,271.32c1.48.85,1.48,2.23,0,3.09a5.93,5.93,0,0,1-5.35,0c-1.48-.86-1.48-2.24,0-3.09A5.87,5.87,0,0,1,516.1,271.32Z" transform="translate(-19.67 -10.13)"/><path class="cls-1" d="M530.09,263.24c1.48.85,1.48,2.24,0,3.09a5.93,5.93,0,0,1-5.35,0c-1.48-.85-1.48-2.24,0-3.09A5.93,5.93,0,0,1,530.09,263.24Z" transform="translate(-19.67 -10.13)"/><path class="cls-1" d="M328.85,360.18a5.93,5.93,0,0,1,5.35,0c1.48.85,1.48,2.23,0,3.09a5.9,5.9,0,0,1-5.35,0C327.38,362.42,327.37,361,328.85,360.18Z" transform="translate(-19.67 -10.13)"/><path class="cls-1" d="M348.21,352.1c1.48.85,1.48,2.23,0,3.09a5.93,5.93,0,0,1-5.35,0c-1.48-.86-1.48-2.24,0-3.09A5.87,5.87,0,0,1,348.21,352.1Z" transform="translate(-19.67 -10.13)"/><ellipse class="cls-1" cx="339.86" cy="335.44" rx="3.78" ry="2.18"/><path class="cls-1" d="M376.19,335.94c1.48.85,1.48,2.24,0,3.09a5.93,5.93,0,0,1-5.35,0c-1.48-.85-1.48-2.24,0-3.09A5.93,5.93,0,0,1,376.19,335.94Z" transform="translate(-19.67 -10.13)"/><path class="cls-1" d="M390.18,327.86c1.48.86,1.48,2.24,0,3.09a5.87,5.87,0,0,1-5.35,0c-1.48-.85-1.48-2.23,0-3.09A5.93,5.93,0,0,1,390.18,327.86Z" transform="translate(-19.67 -10.13)"/><path class="cls-1" d="M404.17,319.78c1.48.86,1.48,2.24,0,3.09a5.87,5.87,0,0,1-5.35,0c-1.48-.85-1.48-2.23,0-3.09A5.93,5.93,0,0,1,404.17,319.78Z" transform="translate(-19.67 -10.13)"/><path class="cls-1" d="M418.16,311.71c1.48.85,1.48,2.23,0,3.09a5.93,5.93,0,0,1-5.35,0c-1.48-.86-1.48-2.24,0-3.09A5.87,5.87,0,0,1,418.16,311.71Z" transform="translate(-19.67 -10.13)"/><ellipse class="cls-1" cx="409.81" cy="295.05" rx="3.78" ry="2.18"/><path class="cls-1" d="M446.15,295.55c1.47.85,1.47,2.24,0,3.09a5.93,5.93,0,0,1-5.35,0c-1.48-.85-1.48-2.24,0-3.09A5.93,5.93,0,0,1,446.15,295.55Z" transform="translate(-19.67 -10.13)"/><path class="cls-1" d="M460.14,287.47c1.48.86,1.48,2.24,0,3.09a5.87,5.87,0,0,1-5.35,0c-1.48-.85-1.48-2.23,0-3.09A5.93,5.93,0,0,1,460.14,287.47Z" transform="translate(-19.67 -10.13)"/><path class="cls-1" d="M474.13,279.4c1.48.85,1.48,2.23,0,3.09a5.93,5.93,0,0,1-5.35,0c-1.48-.86-1.48-2.24,0-3.09A5.87,5.87,0,0,1,474.13,279.4Z" transform="translate(-19.67 -10.13)"/><path class="cls-1" d="M488.12,271.32c1.48.85,1.48,2.23,0,3.09a5.93,5.93,0,0,1-5.35,0c-1.48-.86-1.48-2.24,0-3.09A5.87,5.87,0,0,1,488.12,271.32Z" transform="translate(-19.67 -10.13)"/><path class="cls-1" d="M314.86,352.11a5.9,5.9,0,0,1,5.35,0c1.48.85,1.48,2.24,0,3.09a5.93,5.93,0,0,1-5.35,0C313.39,354.34,313.38,353,314.86,352.11Z" transform="translate(-19.67 -10.13)"/><path class="cls-1" d="M334.22,344c1.47.85,1.47,2.23,0,3.09a5.93,5.93,0,0,1-5.35,0c-1.48-.86-1.48-2.24,0-3.09A5.87,5.87,0,0,1,334.22,344Z" transform="translate(-19.67 -10.13)"/><ellipse class="cls-1" cx="325.86" cy="327.36" rx="3.78" ry="2.18"/><path class="cls-1" d="M362.2,327.86c1.48.86,1.48,2.24,0,3.09a5.87,5.87,0,0,1-5.35,0c-1.48-.85-1.48-2.23,0-3.09A5.93,5.93,0,0,1,362.2,327.86Z" transform="translate(-19.67 -10.13)"/><path class="cls-1" d="M376.19,319.78c1.48.86,1.48,2.24,0,3.09a5.87,5.87,0,0,1-5.35,0c-1.48-.85-1.48-2.23,0-3.09A5.93,5.93,0,0,1,376.19,319.78Z" transform="translate(-19.67 -10.13)"/><ellipse class="cls-1" cx="367.84" cy="303.13" rx="3.78" ry="2.18"/><ellipse class="cls-1" cx="381.83" cy="295.05" rx="3.78" ry="2.19"/><path class="cls-1" d="M418.16,295.55c1.48.85,1.48,2.24,0,3.09a5.93,5.93,0,0,1-5.35,0c-1.48-.85-1.48-2.24,0-3.09A5.93,5.93,0,0,1,418.16,295.55Z" transform="translate(-19.67 -10.13)"/><path class="cls-1" d="M432.15,287.47c1.48.86,1.48,2.24,0,3.09a5.87,5.87,0,0,1-5.35,0c-1.47-.85-1.47-2.23,0-3.09A5.93,5.93,0,0,1,432.15,287.47Z" transform="translate(-19.67 -10.13)"/><ellipse class="cls-1" cx="423.8" cy="270.82" rx="3.78" ry="2.18"/><path class="cls-1" d="M300.87,344a5.9,5.9,0,0,1,5.35,0c1.48.85,1.48,2.24,0,3.09a5.9,5.9,0,0,1-5.35,0C299.4,346.27,299.39,344.88,300.87,344Z" transform="translate(-19.67 -10.13)"/><ellipse class="cls-1" cx="297.88" cy="327.36" rx="3.78" ry="2.18"/><path class="cls-1" d="M334.22,327.86c1.47.86,1.47,2.24,0,3.09a5.87,5.87,0,0,1-5.35,0c-1.48-.85-1.48-2.23,0-3.09A5.93,5.93,0,0,1,334.22,327.86Z" transform="translate(-19.67 -10.13)"/><path class="cls-1" d="M348.21,319.78c1.48.86,1.48,2.24,0,3.09a5.87,5.87,0,0,1-5.35,0c-1.48-.85-1.48-2.23,0-3.09A5.93,5.93,0,0,1,348.21,319.78Z" transform="translate(-19.67 -10.13)"/><path class="cls-1" d="M362.2,311.71c1.48.85,1.48,2.23,0,3.09a5.93,5.93,0,0,1-5.35,0c-1.48-.86-1.48-2.24,0-3.09A5.87,5.87,0,0,1,362.2,311.71Z" transform="translate(-19.67 -10.13)"/><path class="cls-1" d="M376.19,303.63c1.48.85,1.48,2.24,0,3.09a5.93,5.93,0,0,1-5.35,0c-1.48-.85-1.48-2.24,0-3.09A5.93,5.93,0,0,1,376.19,303.63Z" transform="translate(-19.67 -10.13)"/><path class="cls-1" d="M384.83,295.55a5.93,5.93,0,0,1,5.35,0c1.48.85,1.48,2.24,0,3.09a5.93,5.93,0,0,1-5.35,0c-1.48-.85-1.48-2.24,0-3.09Z" transform="translate(-19.67 -10.13)"/><path class="cls-1" d="M286.87,336a5.92,5.92,0,0,1,5.36,0c1.48.85,1.48,2.23,0,3.09a5.93,5.93,0,0,1-5.35,0C285.4,338.19,285.4,336.8,286.87,336Z" transform="translate(-19.67 -10.13)"/><path class="cls-1" d="M306.24,327.86c1.47.86,1.47,2.24,0,3.09a5.89,5.89,0,0,1-5.36,0c-1.47-.85-1.47-2.23,0-3.09A6,6,0,0,1,306.24,327.86Z" transform="translate(-19.67 -10.13)"/><path class="cls-1" d="M320.23,319.78c1.47.86,1.47,2.24,0,3.09a5.89,5.89,0,0,1-5.36,0c-1.47-.85-1.47-2.23,0-3.09A6,6,0,0,1,320.23,319.78Z" transform="translate(-19.67 -10.13)"/><path class="cls-1" d="M334.22,311.71c1.47.85,1.47,2.23,0,3.09a5.93,5.93,0,0,1-5.35,0c-1.48-.86-1.48-2.24,0-3.09A5.87,5.87,0,0,1,334.22,311.71Z" transform="translate(-19.67 -10.13)"/><path class="cls-1" d="M348.21,303.63c1.48.85,1.48,2.24,0,3.09a5.93,5.93,0,0,1-5.35,0c-1.48-.85-1.48-2.24,0-3.09A5.93,5.93,0,0,1,348.21,303.63Z" transform="translate(-19.67 -10.13)"/><path class="cls-1" d="M272.76,327.79a5.9,5.9,0,0,1,5.35,0c1.48.85,1.49,2.24,0,3.09a5.9,5.9,0,0,1-5.35,0C271.29,330,271.29,328.64,272.76,327.79Z" transform="translate(-19.67 -10.13)"/><path class="cls-1" d="M292.12,319.7c1.48.85,1.48,2.24,0,3.09a5.93,5.93,0,0,1-5.35,0c-1.48-.85-1.48-2.24,0-3.09A5.93,5.93,0,0,1,292.12,319.7Z" transform="translate(-19.67 -10.13)"/><path class="cls-1" d="M306.11,311.62c1.48.86,1.48,2.24,0,3.09a5.93,5.93,0,0,1-5.35,0c-1.48-.85-1.48-2.23,0-3.09A5.93,5.93,0,0,1,306.11,311.62Z" transform="translate(-19.67 -10.13)"/><path class="cls-1" d="M258.77,319.71a5.93,5.93,0,0,1,5.35,0c1.48.86,1.49,2.24,0,3.09a5.9,5.9,0,0,1-5.35,0C257.3,322,257.3,320.57,258.77,319.71Z" transform="translate(-19.67 -10.13)"/><path class="cls-1" d="M399.35,399.28a5.93,5.93,0,0,1,5.35,0c1.48.86,1.49,2.24,0,3.09a5.9,5.9,0,0,1-5.35,0C397.88,401.52,397.88,400.13,399.35,399.28Z" transform="translate(-19.67 -10.13)"/><ellipse class="cls-1" cx="396.37" cy="382.61" rx="3.78" ry="2.18"/><ellipse class="cls-1" cx="410.36" cy="374.53" rx="3.78" ry="2.18"/><path class="cls-1" d="M446.69,375c1.48.85,1.48,2.23,0,3.09a5.93,5.93,0,0,1-5.35,0c-1.48-.86-1.48-2.24,0-3.09A5.87,5.87,0,0,1,446.69,375Z" transform="translate(-19.67 -10.13)"/><path class="cls-1" d="M460.68,367c1.48.85,1.48,2.23,0,3.09a5.93,5.93,0,0,1-5.35,0c-1.47-.86-1.47-2.24,0-3.09A5.93,5.93,0,0,1,460.68,367Z" transform="translate(-19.67 -10.13)"/><path class="cls-1" d="M474.68,358.88c1.47.85,1.47,2.24,0,3.09a6,6,0,0,1-5.36,0c-1.47-.85-1.47-2.24,0-3.09A6,6,0,0,1,474.68,358.88Z" transform="translate(-19.67 -10.13)"/><path class="cls-1" d="M488.67,350.8c1.47.86,1.47,2.24,0,3.09a5.93,5.93,0,0,1-5.35,0c-1.48-.85-1.48-2.23,0-3.09A5.93,5.93,0,0,1,488.67,350.8Z" transform="translate(-19.67 -10.13)"/><path class="cls-1" d="M502.66,342.72c1.48.86,1.48,2.24,0,3.1a5.93,5.93,0,0,1-5.35,0c-1.48-.86-1.48-2.24,0-3.1A5.93,5.93,0,0,1,502.66,342.72Z" transform="translate(-19.67 -10.13)"/><ellipse class="cls-1" cx="494.31" cy="326.07" rx="3.78" ry="2.18"/><path class="cls-1" d="M530.64,326.57c1.48.85,1.48,2.24,0,3.09a5.93,5.93,0,0,1-5.35,0c-1.48-.85-1.48-2.24,0-3.09A5.93,5.93,0,0,1,530.64,326.57Z" transform="translate(-19.67 -10.13)"/><ellipse class="cls-1" cx="522.29" cy="309.91" rx="3.78" ry="2.19"/><path class="cls-1" d="M558.62,310.41c1.48.86,1.48,2.24,0,3.09a5.87,5.87,0,0,1-5.35,0c-1.48-.85-1.48-2.23,0-3.09A5.93,5.93,0,0,1,558.62,310.41Z" transform="translate(-19.67 -10.13)"/><path class="cls-1" d="M572.61,302.34c1.48.85,1.48,2.23,0,3.09a5.93,5.93,0,0,1-5.35,0c-1.47-.86-1.47-2.24,0-3.09A5.87,5.87,0,0,1,572.61,302.34Z" transform="translate(-19.67 -10.13)"/><path class="cls-1" d="M586.61,294.26c1.47.85,1.47,2.23,0,3.09a6,6,0,0,1-5.36,0c-1.47-.86-1.47-2.24,0-3.09A6,6,0,0,1,586.61,294.26Z" transform="translate(-19.67 -10.13)"/><ellipse class="cls-1" cx="578.25" cy="277.6" rx="3.78" ry="2.18"/><path class="cls-1" d="M614.59,278.1c1.47.86,1.47,2.24,0,3.09a5.87,5.87,0,0,1-5.35,0c-1.48-.85-1.48-2.23,0-3.09A5.93,5.93,0,0,1,614.59,278.1Z" transform="translate(-19.67 -10.13)"/><path class="cls-1" d="M628.58,270c1.48.86,1.48,2.24,0,3.09a5.87,5.87,0,0,1-5.35,0c-1.48-.85-1.48-2.23,0-3.09A5.93,5.93,0,0,1,628.58,270Z" transform="translate(-19.67 -10.13)"/><path class="cls-1" d="M385.36,391.2a5.9,5.9,0,0,1,5.35,0c1.48.85,1.49,2.23,0,3.09a5.93,5.93,0,0,1-5.35,0C383.89,393.44,383.89,392.06,385.36,391.2Z" transform="translate(-19.67 -10.13)"/><path class="cls-1" d="M404.72,383.11c1.48.86,1.48,2.24,0,3.09a5.87,5.87,0,0,1-5.35,0c-1.48-.85-1.48-2.23,0-3.09A5.93,5.93,0,0,1,404.72,383.11Z" transform="translate(-19.67 -10.13)"/><path class="cls-1" d="M418.71,375c1.48.85,1.48,2.23,0,3.09a5.93,5.93,0,0,1-5.35,0c-1.48-.86-1.48-2.24,0-3.09A5.87,5.87,0,0,1,418.71,375Z" transform="translate(-19.67 -10.13)"/><ellipse class="cls-1" cx="410.36" cy="358.38" rx="3.78" ry="2.18"/><path class="cls-1" d="M446.69,358.88c1.48.85,1.48,2.24,0,3.09a5.93,5.93,0,0,1-5.35,0c-1.48-.85-1.48-2.24,0-3.09A5.93,5.93,0,0,1,446.69,358.88Z" transform="translate(-19.67 -10.13)"/><path class="cls-1" d="M460.68,350.8c1.48.86,1.48,2.24,0,3.09a5.93,5.93,0,0,1-5.35,0c-1.47-.85-1.47-2.23,0-3.09A5.93,5.93,0,0,1,460.68,350.8Z" transform="translate(-19.67 -10.13)"/><path class="cls-1" d="M474.68,342.73c1.47.85,1.47,2.23,0,3.09a5.93,5.93,0,0,1-5.35,0c-1.48-.86-1.48-2.24,0-3.09A5.87,5.87,0,0,1,474.68,342.73Z" transform="translate(-19.67 -10.13)"/><path class="cls-1" d="M488.67,334.65c1.47.85,1.47,2.23,0,3.09a5.93,5.93,0,0,1-5.35,0c-1.48-.86-1.48-2.24,0-3.09A5.87,5.87,0,0,1,488.67,334.65Z" transform="translate(-19.67 -10.13)"/><path class="cls-1" d="M502.66,326.57c1.48.85,1.48,2.24,0,3.09a5.93,5.93,0,0,1-5.35,0c-1.48-.85-1.48-2.24,0-3.09A5.93,5.93,0,0,1,502.66,326.57Z" transform="translate(-19.67 -10.13)"/><ellipse class="cls-1" cx="494.31" cy="309.91" rx="3.79" ry="2.19"/><ellipse class="cls-1" cx="508.3" cy="301.83" rx="3.78" ry="2.18"/><path class="cls-1" d="M544.63,302.34c1.48.85,1.48,2.23,0,3.09a5.93,5.93,0,0,1-5.35,0c-1.48-.86-1.48-2.24,0-3.09A5.87,5.87,0,0,1,544.63,302.34Z" transform="translate(-19.67 -10.13)"/><path class="cls-1" d="M558.62,294.26c1.48.85,1.48,2.23,0,3.09a5.93,5.93,0,0,1-5.35,0c-1.48-.86-1.48-2.24,0-3.09A5.93,5.93,0,0,1,558.62,294.26Z" transform="translate(-19.67 -10.13)"/><ellipse class="cls-1" cx="550.27" cy="277.6" rx="3.78" ry="2.18"/><path class="cls-1" d="M586.61,278.1c1.47.86,1.47,2.24,0,3.09a5.89,5.89,0,0,1-5.36,0c-1.47-.85-1.47-2.23,0-3.09A6,6,0,0,1,586.61,278.1Z" transform="translate(-19.67 -10.13)"/><path class="cls-1" d="M600.6,270c1.47.86,1.47,2.24,0,3.09a5.89,5.89,0,0,1-5.36,0c-1.47-.85-1.47-2.23,0-3.09A6,6,0,0,1,600.6,270Z" transform="translate(-19.67 -10.13)"/><path class="cls-1" d="M614.59,262c1.47.85,1.47,2.23,0,3.09a5.93,5.93,0,0,1-5.35,0c-1.48-.86-1.48-2.24,0-3.09A5.87,5.87,0,0,1,614.59,262Z" transform="translate(-19.67 -10.13)"/><path class="cls-1" d="M371.37,383.12a5.93,5.93,0,0,1,5.35,0c1.48.85,1.48,2.23,0,3.09a5.9,5.9,0,0,1-5.35,0C369.9,385.36,369.89,384,371.37,383.12Z" transform="translate(-19.67 -10.13)"/><path class="cls-1" d="M390.73,375c1.48.85,1.48,2.23,0,3.09a5.93,5.93,0,0,1-5.35,0c-1.48-.86-1.48-2.24,0-3.09A5.87,5.87,0,0,1,390.73,375Z" transform="translate(-19.67 -10.13)"/><ellipse class="cls-1" cx="382.38" cy="358.38" rx="3.78" ry="2.18"/><path class="cls-1" d="M418.71,358.88c1.48.85,1.48,2.24,0,3.09a5.93,5.93,0,0,1-5.35,0c-1.48-.85-1.48-2.24,0-3.09A5.93,5.93,0,0,1,418.71,358.88Z" transform="translate(-19.67 -10.13)"/><path class="cls-1" d="M432.7,350.8c1.48.86,1.48,2.24,0,3.09a5.93,5.93,0,0,1-5.35,0c-1.48-.85-1.48-2.23,0-3.09A5.93,5.93,0,0,1,432.7,350.8Z" transform="translate(-19.67 -10.13)"/><ellipse class="cls-1" cx="424.35" cy="334.15" rx="3.78" ry="2.18"/><path class="cls-1" d="M460.68,334.65c1.48.85,1.48,2.23,0,3.09a5.93,5.93,0,0,1-5.35,0c-1.47-.86-1.47-2.24,0-3.09A5.87,5.87,0,0,1,460.68,334.65Z" transform="translate(-19.67 -10.13)"/><path class="cls-1" d="M474.68,326.57c1.47.85,1.47,2.24,0,3.09a5.93,5.93,0,0,1-5.35,0c-1.48-.85-1.48-2.24,0-3.09A5.93,5.93,0,0,1,474.68,326.57Z" transform="translate(-19.67 -10.13)"/><path class="cls-1" d="M488.67,318.49c1.47.85,1.47,2.24,0,3.09a5.93,5.93,0,0,1-5.35,0c-1.48-.85-1.48-2.24,0-3.09A5.93,5.93,0,0,1,488.67,318.49Z" transform="translate(-19.67 -10.13)"/><ellipse class="cls-1" cx="480.31" cy="301.83" rx="3.78" ry="2.18"/><path class="cls-1" d="M516.65,302.34c1.48.85,1.48,2.23,0,3.09a5.93,5.93,0,0,1-5.35,0c-1.48-.86-1.48-2.24,0-3.09A5.87,5.87,0,0,1,516.65,302.34Z" transform="translate(-19.67 -10.13)"/><path class="cls-1" d="M530.64,294.26c1.48.85,1.48,2.23,0,3.09a5.93,5.93,0,0,1-5.35,0c-1.48-.86-1.48-2.24,0-3.09A5.93,5.93,0,0,1,530.64,294.26Z" transform="translate(-19.67 -10.13)"/><ellipse class="cls-1" cx="522.29" cy="277.6" rx="3.78" ry="2.18"/><path class="cls-1" d="M558.62,278.1c1.48.86,1.48,2.24,0,3.09a5.87,5.87,0,0,1-5.35,0c-1.48-.85-1.48-2.23,0-3.09A5.93,5.93,0,0,1,558.62,278.1Z" transform="translate(-19.67 -10.13)"/><path class="cls-1" d="M572.61,270c1.48.86,1.48,2.24,0,3.09a5.87,5.87,0,0,1-5.35,0c-1.47-.85-1.47-2.23,0-3.09A5.93,5.93,0,0,1,572.61,270Z" transform="translate(-19.67 -10.13)"/><path class="cls-1" d="M586.61,262c1.47.85,1.47,2.23,0,3.09a6,6,0,0,1-5.36,0c-1.47-.86-1.47-2.24,0-3.09A5.89,5.89,0,0,1,586.61,262Z" transform="translate(-19.67 -10.13)"/><path class="cls-1" d="M600.6,253.87c1.47.85,1.47,2.24,0,3.09a6,6,0,0,1-5.36,0c-1.47-.85-1.47-2.24,0-3.09A6,6,0,0,1,600.6,253.87Z" transform="translate(-19.67 -10.13)"/><path class="cls-1" d="M357.38,375.05a5.9,5.9,0,0,1,5.35,0c1.48.85,1.48,2.24,0,3.09a5.9,5.9,0,0,1-5.35,0C355.91,377.28,355.9,375.9,357.38,375.05Z" transform="translate(-19.67 -10.13)"/><path class="cls-1" d="M376.74,367c1.48.85,1.48,2.24,0,3.09a5.93,5.93,0,0,1-5.35,0c-1.48-.85-1.48-2.24,0-3.09A5.93,5.93,0,0,1,376.74,367Z" transform="translate(-19.67 -10.13)"/><path class="cls-1" d="M390.73,358.88c1.48.85,1.48,2.24,0,3.09a5.93,5.93,0,0,1-5.35,0c-1.48-.85-1.48-2.24,0-3.09A5.93,5.93,0,0,1,390.73,358.88Z" transform="translate(-19.67 -10.13)"/><path class="cls-1" d="M404.72,350.8c1.48.86,1.48,2.24,0,3.09a5.93,5.93,0,0,1-5.35,0c-1.48-.85-1.48-2.23,0-3.09A5.93,5.93,0,0,1,404.72,350.8Z" transform="translate(-19.67 -10.13)"/><path class="cls-1" d="M418.71,342.73c1.48.85,1.48,2.23,0,3.09a5.93,5.93,0,0,1-5.35,0c-1.48-.86-1.48-2.24,0-3.09A5.87,5.87,0,0,1,418.71,342.73Z" transform="translate(-19.67 -10.13)"/><path class="cls-1" d="M432.7,334.65c1.48.85,1.48,2.23,0,3.09a5.93,5.93,0,0,1-5.35,0c-1.48-.86-1.48-2.24,0-3.09A5.87,5.87,0,0,1,432.7,334.65Z" transform="translate(-19.67 -10.13)"/><path class="cls-1" d="M446.69,326.57c1.48.85,1.48,2.24,0,3.09a5.93,5.93,0,0,1-5.35,0c-1.48-.85-1.48-2.24,0-3.09A5.93,5.93,0,0,1,446.69,326.57Z" transform="translate(-19.67 -10.13)"/><ellipse class="cls-1" cx="438.34" cy="309.91" rx="3.78" ry="2.18"/><path class="cls-1" d="M474.68,310.41c1.47.86,1.47,2.24,0,3.09a5.87,5.87,0,0,1-5.35,0c-1.48-.85-1.48-2.23,0-3.09A5.93,5.93,0,0,1,474.68,310.41Z" transform="translate(-19.67 -10.13)"/><path class="cls-1" d="M488.67,302.34c1.47.85,1.47,2.23,0,3.09a5.93,5.93,0,0,1-5.35,0c-1.48-.86-1.48-2.24,0-3.09A5.87,5.87,0,0,1,488.67,302.34Z" transform="translate(-19.67 -10.13)"/><path class="cls-1" d="M502.66,294.26c1.48.85,1.48,2.23,0,3.09a5.93,5.93,0,0,1-5.35,0c-1.48-.86-1.48-2.24,0-3.09A5.93,5.93,0,0,1,502.66,294.26Z" transform="translate(-19.67 -10.13)"/><path class="cls-1" d="M516.65,286.18c1.48.85,1.48,2.24,0,3.09a5.93,5.93,0,0,1-5.35,0c-1.48-.85-1.48-2.24,0-3.09A5.93,5.93,0,0,1,516.65,286.18Z" transform="translate(-19.67 -10.13)"/><path class="cls-1" d="M530.64,278.1c1.48.86,1.48,2.24,0,3.09a5.87,5.87,0,0,1-5.35,0c-1.48-.85-1.48-2.23,0-3.09A5.93,5.93,0,0,1,530.64,278.1Z" transform="translate(-19.67 -10.13)"/><path class="cls-1" d="M544.63,270c1.48.86,1.48,2.24,0,3.09a5.87,5.87,0,0,1-5.35,0c-1.48-.85-1.48-2.23,0-3.09A5.93,5.93,0,0,1,544.63,270Z" transform="translate(-19.67 -10.13)"/><ellipse class="cls-1" cx="536.28" cy="253.37" rx="3.78" ry="2.18"/><path class="cls-1" d="M572.61,253.87c1.48.85,1.48,2.24,0,3.09a5.93,5.93,0,0,1-5.35,0c-1.47-.85-1.47-2.24,0-3.09A5.93,5.93,0,0,1,572.61,253.87Z" transform="translate(-19.67 -10.13)"/><path class="cls-1" d="M637.31,262a5.9,5.9,0,0,1,5.35,0c1.49.85,1.49,2.24,0,3.09a5.93,5.93,0,0,1-5.35,0C635.84,264.26,635.84,262.88,637.31,262Z" transform="translate(-19.67 -10.13)"/><path class="cls-1" d="M656.67,253.94c1.48.85,1.48,2.23,0,3.09a5.93,5.93,0,0,1-5.35,0c-1.48-.86-1.48-2.24,0-3.09A5.87,5.87,0,0,1,656.67,253.94Z" transform="translate(-19.67 -10.13)"/><path class="cls-1" d="M670.67,245.86c1.47.85,1.47,2.24,0,3.09a6,6,0,0,1-5.36,0c-1.47-.85-1.47-2.24,0-3.09A6,6,0,0,1,670.67,245.86Z" transform="translate(-19.67 -10.13)"/><path class="cls-1" d="M684.66,237.78c1.47.86,1.47,2.24,0,3.09a5.89,5.89,0,0,1-5.36,0c-1.47-.85-1.47-2.23,0-3.09A6,6,0,0,1,684.66,237.78Z" transform="translate(-19.67 -10.13)"/><path class="cls-1" d="M623.32,254a5.9,5.9,0,0,1,5.35,0c1.48.85,1.49,2.24,0,3.09a5.9,5.9,0,0,1-5.35,0C621.85,256.19,621.85,254.8,623.32,254Z" transform="translate(-19.67 -10.13)"/><ellipse class="cls-1" cx="620.34" cy="237.28" rx="3.78" ry="2.18"/><path class="cls-1" d="M656.67,237.78c1.48.86,1.48,2.24,0,3.09a5.87,5.87,0,0,1-5.35,0c-1.48-.85-1.48-2.23,0-3.09A5.93,5.93,0,0,1,656.67,237.78Z" transform="translate(-19.67 -10.13)"/><path class="cls-1" d="M670.67,229.7c1.47.86,1.47,2.24,0,3.09a5.89,5.89,0,0,1-5.36,0C663.84,231.94,669.19,228.85,670.67,229.7Z" transform="translate(-19.67 -10.13)"/><path class="cls-1" d="M609.33,245.87a5.93,5.93,0,0,1,5.35,0c1.48.86,1.49,2.24,0,3.09a5.9,5.9,0,0,1-5.35,0c-1.48-.85-1.48-2.23,0-3.09S607.86,246.73,609.33,245.87Z" transform="translate(-19.67 -10.13)"/><path class="cls-2" d="M280.42,402.87,28.45,257.4c-5.25-3-4.59-8.33,1.47-11.83L409.05,26.68c6.06-3.5,15.23-3.88,20.48-.85l252,145.47c5.25,3,4.59,8.33-1.48,11.83L300.9,402C294.84,405.52,285.67,405.9,280.42,402.87Z" transform="translate(-19.67 -10.13)"/><path class="cls-1" d="M289.33,395.18a20,20,0,0,1-9.89-2.32l-252-145.47c-2.91-1.68-4.52-4.11-4.52-6.83,0-3.12,2.19-6.18,6-8.37L408.07,13.29c6.7-3.87,16.56-4.24,22.44-.85l252,145.48c2.92,1.68,4.52,4.11,4.52,6.82,0,3.13-2.19,6.18-6,8.38L301.88,392A25.66,25.66,0,0,1,289.33,395.18Zm-7.94-5.69c4.63,2.67,13.11,2.27,18.54-.85L679.06,169.75c2.53-1.46,4-3.34,4-5s-1.4-2.77-2.57-3.45l-252-145.47c-4.62-2.67-13.12-2.28-18.54.85L30.89,235.56c-2.53,1.46-4,3.33-4,5s1.4,2.77,2.57,3.45Z" transform="translate(-19.67 -10.13)"/><path class="cls-3" d="M618.88,191.15l6.19-3.58a0,0,0,0,0,0,0c-15.9-9.2-15.94-24.08-.14-33.32a0,0,0,0,0,0,0l-9.74-5.62a.09.09,0,0,0-.07,0c-5.54,3.18-14.5,3.17-20,0-4.41-2.55-5.25-6.34-2.64-9.4,0,0,0,0-.06,0-5.3,1.5-11.87,1-16.28-1.53s-5.25-6.34-2.64-9.4c0,0,0,0-.06,0-5.3,1.5-11.87,1-16.28-1.53s-5.24-6.33-2.64-9.39c0,0,0,0-.06,0-5.3,1.51-11.87,1-16.27-1.52s-5.25-6.34-2.65-9.4c0,0,0-.05-.06,0-5.3,1.51-11.86,1-16.27-1.52s-5.25-6.34-2.65-9.4c0,0,0,0-.06,0-5.3,1.5-11.86,1-16.27-1.53s-5.25-6.34-2.65-9.4c0,0,0,0-.06,0-5.3,1.5-11.86,1-16.27-1.53s-5.25-6.33-2.65-9.39c0,0,0,0-.06,0-5.3,1.51-11.86,1-16.27-1.53-5.53-3.19-5.55-8.36,0-11.57a0,0,0,0,0,0,0l-9-5.21c-16.4,9.47-43,9.47-59.4,0L385,60.07a0,0,0,0,0,0,0c5.51,3.2,5.5,8.38,0,11.57-4.48,2.59-11.2,3-16.55,1.45,0,0-.08,0-.06,0,2.78,3.09,2,7-2.5,9.56-4.71,2.72-11.89,3.11-17.35,1.21,0,0-.08,0-.06,0,3.3,3.15,2.62,7.3-2.09,10-4.49,2.59-11.2,3-16.55,1.44,0,0-.08,0-.06,0,2.78,3.08,2,7-2.5,9.55-4.71,2.72-11.89,3.11-17.35,1.21-.05,0-.09,0-.06,0,3.29,3.15,2.61,7.29-2.1,10-4.48,2.59-11.2,3-16.55,1.45,0,0-.08,0-.06,0,2.78,3.09,2,7-2.5,9.56-4.71,2.72-11.89,3.11-17.35,1.21,0,0-.09,0-.06,0,3.3,3.15,2.62,7.3-2.09,10-4.49,2.59-11.21,3.05-16.55,1.44,0,0-.09,0-.06,0,2.77,3.08,2,7-2.5,9.55-4.71,2.72-11.9,3.11-17.35,1.21,0,0-.09,0-.06,0,3.29,3.15,2.61,7.29-2.1,10-4.49,2.59-11.2,3-16.55,1.45,0,0-.08,0-.06,0,2.78,3.09,2,7-2.5,9.56-4.71,2.72-11.89,3.11-17.35,1.21,0,0-.09,0-.06,0,3.29,3.15,2.61,7.3-2.09,10-4.49,2.59-11.21,3-16.55,1.44-.05,0-.09,0-.06,0,2.77,3.08,2,7-2.51,9.55-4.71,2.72-11.89,3.11-17.35,1.21,0,0-.08,0-.06,0,3.3,3.15,2.62,7.29-2.09,10-4.49,2.59-11.2,3.05-16.55,1.45,0,0-.08,0-.06,0,2.78,3.09,2,7-2.5,9.56-4.71,2.72-11.89,3.11-17.35,1.21,0,0-.09,0-.06,0,3.29,3.15,2.61,7.3-2.1,10-5.53,3.19-14.49,3.2-20,0a.09.09,0,0,0-.07,0l-9.27,5.35c16.14,9.32,16.14,24.42,0,33.74l9.52,5.49h.07c5.55-3.18,14.51-3.17,20,0,4.41,2.55,5.25,6.34,2.64,9.4,0,0,0,.05.06,0,5.3-1.5,11.87-1,16.28,1.53s5.25,6.34,2.64,9.4c0,0,0,0,.06,0,5.3-1.5,11.87-1,16.28,1.53s5.25,6.33,2.64,9.39c0,0,0,.05.06,0,5.3-1.51,11.87-1,16.28,1.53s5.25,6.33,2.64,9.39c0,0,0,.05.06,0,5.3-1.51,11.87-1,16.28,1.52s5.25,6.34,2.64,9.4c0,0,0,0,.06,0,5.3-1.5,11.87-1,16.28,1.53s5.25,6.34,2.64,9.4c0,0,0,0,.06,0,5.3-1.5,11.87-1,16.27,1.53s5.25,6.33,2.65,9.4c0,0,0,0,.06,0,5.3-1.51,11.86-1,16.27,1.53,5.54,3.19,5.55,8.36,0,11.57a0,0,0,0,0,0,0l9.15,5.28c16.34-9.43,42.83-9.43,59.16,0l12.35-7.13a0,0,0,0,0,0,0c-5.51-3.2-5.49-8.37,0-11.57,4.71-2.72,11.89-3.11,17.35-1.21,0,0,.08,0,.05,0-3.29-3.15-2.61-7.3,2.1-10,4.49-2.59,11.2-3.05,16.55-1.44,0,0,.08,0,.06,0-2.78-3.08-2-7,2.5-9.55,4.71-2.72,11.89-3.11,17.35-1.21.05,0,.09,0,.06,0-3.29-3.15-2.61-7.29,2.1-10,4.48-2.59,11.2-3.05,16.54-1.45.05,0,.09,0,.07,0-2.78-3.09-2-7,2.5-9.56,4.71-2.72,11.89-3.11,17.35-1.21,0,0,.08,0,.06,0-3.3-3.15-2.62-7.3,2.09-10,4.49-2.59,11.2-3.05,16.55-1.44.05,0,.09,0,.06,0-2.77-3.08-2-7,2.5-9.55,4.71-2.72,11.9-3.11,17.35-1.21.05,0,.09,0,.06,0-3.29-3.15-2.61-7.29,2.1-10,4.48-2.59,11.2-3,16.55-1.45,0,0,.08,0,.06,0-2.78-3.09-2-7,2.5-9.56,4.71-2.72,11.89-3.11,17.35-1.21.05,0,.09,0,.06,0-3.29-3.15-2.62-7.3,2.09-10,4.49-2.59,11.21-3,16.55-1.44,0,0,.09,0,.06,0-2.77-3.08-2-7,2.51-9.55,4.7-2.72,11.89-3.11,17.35-1.21,0,0,.08,0,.05,0-3.29-3.15-2.61-7.29,2.1-10,4.49-2.59,11.2-3.05,16.55-1.45,0,0,.08,0,.06,0-2.78-3.09-2-7,2.5-9.56,4.71-2.72,11.89-3.11,17.35-1.21,0,0,.09,0,.06,0-3.29-3.15-2.61-7.3,2.1-10,4.48-2.59,11.2-3,16.55-1.44,0,0,.08,0,.06,0-2.78-3.08-2-7,2.5-9.55,5.53-3.2,14.49-3.2,20,0Z" transform="translate(-19.67 -10.13)"/><path class="cls-4" d="M256.91,360.43,245.83,354l-.06-2.25,1-.6c2-1.18,3.17-2.68,3.17-4.11s-1.16-2.94-3.18-4.11c-3.84-2.21-9.78-2.76-14.77-1.33l-1.41.4-1.6-2.47.94-1.11a3.49,3.49,0,0,0,1-2.87c-.22-1.28-1.32-2.55-3.1-3.57-3.84-2.22-9.78-2.76-14.77-1.34l-1.35.38-1.7-2.4,1-1.16a3.49,3.49,0,0,0,1-2.87c-.22-1.28-1.32-2.54-3.1-3.57-3.84-2.21-9.79-2.76-14.77-1.34l-1.32.38L191,317.77l.91-1.17a3.54,3.54,0,0,0,1-2.93c-.22-1.28-1.32-2.55-3.1-3.58-3.84-2.22-9.78-2.76-14.77-1.34l-1.35.38-1.69-2.4,1-1.16a3.43,3.43,0,0,0,1-2.86c-.22-1.28-1.32-2.55-3.1-3.58-3.84-2.21-9.78-2.76-14.76-1.33l-1.33.37L153,295.85l.91-1.17a3.52,3.52,0,0,0,1-2.93c-.22-1.28-1.32-2.55-3.1-3.57-3.85-2.22-9.78-2.75-14.76-1.34l-1.42.4-1.59-2.48.93-1.1a3.42,3.42,0,0,0,1-2.87c-.22-1.27-1.32-2.54-3.09-3.57-3.85-2.22-9.78-2.76-14.77-1.34l-1.38.39-1.62-2.38.87-1.12a3.52,3.52,0,0,0,1-2.94c-.22-1.27-1.32-2.54-3.1-3.57-4.89-2.82-13.18-2.83-18.09,0l-1,.58-13.47-7.76,2.93-1.69c7.17-4.14,11.12-9.53,11.12-15.18s-4-11-11.12-15.18l-2.93-1.69,13.19-7.61,1.06.59c4.87,2.79,13.16,2.78,18.06,0,1.86-1.08,3-2.4,3.14-3.74a3.9,3.9,0,0,0-1.42-3.18l-1.12-1.07,1.59-2.71,1.56.49c5,1.76,11.66,1.31,15.75-1.05,1.8-1,2.9-2.32,3.11-3.61a3.68,3.68,0,0,0-1.08-2.95l-1-1.14,1.7-2.52,1.47.48c4.89,1.47,11.06.94,14.93-1.29,1.87-1.08,3-2.41,3.15-3.75a3.91,3.91,0,0,0-1.42-3.17l-1.17-1.11,1.75-2.75,1.57.61c4.92,1.72,11.54,1.26,15.63-1.09,1.79-1,2.9-2.32,3.1-3.61a3.69,3.69,0,0,0-1.07-3l-1-1,1.44-2.54,1.51.37c5,1.5,11.21,1,15.08-1.25,1.87-1.07,3-2.4,3.14-3.74a3.9,3.9,0,0,0-1.42-3.18l-1.13-1.08,1.61-2.68,1.53.46c5.06,1.77,11.69,1.32,15.78-1,1.79-1,2.89-2.32,3.1-3.61a3.67,3.67,0,0,0-1.08-3l-1-1.13,1.67-2.52,1.47.46c4.92,1.48,11.09,1,15-1.28,1.86-1.08,3-2.41,3.14-3.75a3.94,3.94,0,0,0-1.42-3.18l-1.12-1.07,1.59-2.71,1.55.49c5.06,1.77,11.67,1.33,15.76-1,1.8-1,2.9-2.32,3.1-3.62a3.65,3.65,0,0,0-1.07-2.95l-1-1.15,1.73-2.52,1.47.5c4.87,1.45,11.05.93,14.91-1.3,1.87-1.08,3-2.41,3.15-3.75a3.93,3.93,0,0,0-1.43-3.17l-1.14-1.09,1.64-2.68,1.53.48c5,1.75,11.66,1.32,15.76-1.05,1.79-1,2.89-2.32,3.1-3.61a3.64,3.64,0,0,0-1.08-2.95l-1-1.09,1.51-2.48,1.45.34c5.06,1.51,11.23,1,15.1-1.24,1.86-1.08,3-2.41,3.14-3.75a3.91,3.91,0,0,0-1.42-3.17l-1.1-1.06,1.54-2.73,1.58.49c5.06,1.76,11.67,1.31,15.76-1,1.8-1,2.9-2.32,3.11-3.61a3.69,3.69,0,0,0-1.08-3l-1-1.13,1.67-2.51,1.48.45c4.9,1.48,11.08,1,15-1.28,1.86-1.08,3-2.4,3.14-3.75a3.92,3.92,0,0,0-1.42-3.17l-1.15-1.09,1.71-2.78,1.59.63c4.92,1.7,11.54,1.26,15.63-1.1,1.79-1,2.9-2.32,3.1-3.61a3.64,3.64,0,0,0-1.08-3l-.93-1,1.41-2.53,1.51.35c5.06,1.51,11.23,1,15.1-1.24,2-1.17,3.18-2.67,3.18-4.11S386,55.17,384,54l-1-.56,0-2.25,1-.59L393.75,45l1,.56c15.84,9.15,41.61,9.15,57.46,0l1-.56,10.94,6.31.1,2.25-1,.62c-2,1.18-3.17,2.67-3.17,4.1s1.16,2.94,3.19,4.11C467,64.55,473,65.1,478,63.68l1.39-.4L481,65.72l-.92,1.12a3.48,3.48,0,0,0-1,2.88c.22,1.28,1.32,2.55,3.1,3.58C486,75.51,492,76.06,497,74.63l1.39-.39L500,76.67,499,77.79a3.51,3.51,0,0,0-1,2.89c.22,1.28,1.32,2.55,3.1,3.57,3.84,2.22,9.77,2.77,14.77,1.34l1.41-.4,1.59,2.48-.93,1.1a3.49,3.49,0,0,0-1,2.87c.22,1.28,1.32,2.55,3.1,3.57,3.84,2.22,9.78,2.77,14.77,1.34l1.41-.4,1.59,2.47L537,99.73a3.49,3.49,0,0,0-1,2.87c.22,1.27,1.32,2.54,3.1,3.57,3.84,2.21,9.78,2.76,14.77,1.34l1.33-.38,1.65,2.28-.8,1.14a3.64,3.64,0,0,0-1.07,3c.22,1.28,1.32,2.55,3.1,3.58,3.84,2.21,9.79,2.76,14.77,1.33l1.34-.37,1.71,2.39-1,1.16a3.45,3.45,0,0,0-1,2.87c.22,1.28,1.32,2.55,3.1,3.58,3.84,2.21,9.78,2.76,14.76,1.33l1.37-.38,1.68,2.41-1,1.15a3.46,3.46,0,0,0-1,2.87c.22,1.28,1.32,2.55,3.1,3.57,4.89,2.82,13.18,2.84,18.09,0l1-.57,11.73,6.76,0,2.25-1,.59c-7,4.11-10.89,9.42-10.88,15s3.92,10.89,11,15l1,.56,0,2.25-8.11,4.8-1.12-.64c-4.89-2.8-13.17-2.78-18.07,0-1.8,1-2.9,2.32-3.1,3.61a3.61,3.61,0,0,0,1.08,3l1,1.09-1.51,2.47-1.45-.33c-5.07-1.52-11.23-1-15.1,1.24-1.86,1.08-3,2.41-3.14,3.75a3.91,3.91,0,0,0,1.42,3.17l1.1,1.06-1.55,2.73-1.58-.49c-5-1.76-11.66-1.32-15.75,1-1.8,1-2.91,2.32-3.11,3.61a3.66,3.66,0,0,0,1.08,3l1,1.13-1.67,2.51L557,217.1c-4.91-1.47-11.09-.95-15,1.29-1.86,1.08-3,2.41-3.14,3.74a3.93,3.93,0,0,0,1.42,3.18l1.15,1.09-1.71,2.78-1.59-.63c-4.92-1.71-11.53-1.26-15.63,1.1-1.8,1-2.9,2.32-3.1,3.61a3.65,3.65,0,0,0,1.07,3l.94,1L520,239.79l-1.51-.35c-5.06-1.52-11.23-1-15.1,1.25-1.87,1.07-3,2.4-3.15,3.73a3.94,3.94,0,0,0,1.43,3.18l1.12,1.08-1.58,2.67-1.53-.44c-5.1-1.77-11.71-1.32-15.79,1-1.81,1-2.91,2.32-3.11,3.61a3.63,3.63,0,0,0,1.08,2.95l1,1.13-1.67,2.52-1.48-.46c-4.91-1.47-11.09-.94-15,1.29-1.86,1.07-3,2.4-3.14,3.74a3.93,3.93,0,0,0,1.42,3.18l1.18,1.13-1.79,2.71-1.55-.6c-4.91-1.71-11.53-1.26-15.62,1.1-1.8,1-2.9,2.32-3.11,3.6a3.68,3.68,0,0,0,1.08,3l.95,1.06-1.46,2.54-1.51-.38c-5-1.5-11.2-1-15.06,1.25-1.87,1.08-3,2.41-3.15,3.75a3.92,3.92,0,0,0,1.43,3.17l1.14,1.09L424,296l-1.53-.48c-5-1.76-11.67-1.31-15.76,1-1.8,1-2.9,2.32-3.1,3.61a3.59,3.59,0,0,0,1.08,2.95l1,1.13L404,306.74l-1.47-.46c-4.91-1.47-11.09-.95-15,1.29-1.86,1.07-3,2.4-3.14,3.74a3.93,3.93,0,0,0,1.42,3.18l1.1,1.05-1.54,2.74-1.58-.5c-5.05-1.76-11.67-1.32-15.76,1-1.8,1-2.91,2.33-3.11,3.62a3.67,3.67,0,0,0,1.08,2.95l1,1.13L365.37,329l-1.48-.46c-4.91-1.47-11.08-.94-14.95,1.28-1.87,1.08-3,2.41-3.15,3.75a3.91,3.91,0,0,0,1.42,3.17l1.1,1.06-1.54,2.73-1.58-.5c-5.05-1.75-11.67-1.31-15.76,1.05-2,1.17-3.18,2.67-3.18,4.11s1.14,2.92,3.15,4.09l1,.56,0,2.25-1,.59-13.35,7.71-1-.57c-15.78-9.1-41.44-9.1-57.21,0Zm29.58-11.24c10.64,0,21.28,2.25,29.57,6.74l8.86-5.12a7.71,7.71,0,0,1-2.57-5.59c0-2.91,1.83-5.57,5.13-7.47,3.91-2.26,9.42-3.11,14.54-2.41a6.78,6.78,0,0,1-.1-2.2c.32-2.58,2.11-4.95,5.07-6.65A23.6,23.6,0,0,1,361.11,324a6.83,6.83,0,0,1,0-2.21c.39-2.48,2.17-4.74,5-6.38,3.9-2.25,9.43-3.1,14.54-2.41a6.5,6.5,0,0,1-.1-2.2c.31-2.58,2.11-4.95,5.06-6.65a23.49,23.49,0,0,1,14.12-2.44,6.89,6.89,0,0,1,0-2.22c.39-2.47,2.16-4.74,5-6.37,3.91-2.25,9.43-3.1,14.54-2.41a6.76,6.76,0,0,1-.1-2.2c.31-2.59,2.11-4.95,5.07-6.65a23.52,23.52,0,0,1,14.12-2.44,6.89,6.89,0,0,1,0-2.22c.4-2.48,2.17-4.74,5-6.38,3.9-2.25,9.41-3.09,14.54-2.41a6.71,6.71,0,0,1-.1-2.19c.31-2.59,2.11-4.95,5.06-6.66,3.78-2.19,9.1-3.05,14.13-2.44a6.62,6.62,0,0,1,0-2.22c.39-2.47,2.17-4.74,5-6.37,3.89-2.26,9.4-3.1,14.53-2.41a6.76,6.76,0,0,1-.1-2.2c.32-2.59,2.11-5,5.07-6.65a23.51,23.51,0,0,1,14.13-2.44,6.62,6.62,0,0,1,0-2.22c.39-2.48,2.17-4.74,5-6.38,3.91-2.25,9.44-3.1,14.54-2.4a6.79,6.79,0,0,1-.1-2.2c.31-2.59,2.11-4.95,5.06-6.66a23.6,23.6,0,0,1,14.13-2.44,6.62,6.62,0,0,1,0-2.22c.39-2.47,2.17-4.74,5-6.37,3.9-2.26,9.43-3.11,14.54-2.41a6.51,6.51,0,0,1-.1-2.2c.31-2.59,2.11-5,5.06-6.65a23.42,23.42,0,0,1,14.13-2.44,6.89,6.89,0,0,1,0-2.22c.4-2.48,2.17-4.74,5-6.38,5.84-3.37,14.83-3.56,21-.54l2.53-1.46c-6.57-4.59-10.16-10.41-10.18-16.61s3.54-12,10.06-16.59l-6.1-3.53c-6.21,3-15.18,2.83-21-.53-3.59-2.07-4.69-4.56-5-6.28a6.68,6.68,0,0,1,0-2.23c-5,.58-10.26-.3-14-2.45s-4.69-4.56-5-6.29a6.56,6.56,0,0,1,0-2.21,23.4,23.4,0,0,1-14-2.45c-3.59-2.08-4.7-4.57-5-6.29a6.5,6.5,0,0,1,0-2.2,23.43,23.43,0,0,1-14-2.47c-3.58-2.08-4.69-4.56-5-6.29a6.5,6.5,0,0,1,0-2.2,23.25,23.25,0,0,1-14-2.47c-3.58-2.07-4.69-4.56-5-6.29a6.77,6.77,0,0,1,0-2.2,23.22,23.22,0,0,1-14-2.47c-3.58-2.07-4.69-4.56-5-6.29a6.56,6.56,0,0,1,0-2.21,23.57,23.57,0,0,1-14-2.46c-3.58-2.07-4.69-4.56-5-6.29a6.77,6.77,0,0,1,0-2.2,23.19,23.19,0,0,1-14-2.47c-3.31-1.9-5.13-4.56-5.14-7.47a7.72,7.72,0,0,1,2.58-5.6l-5.55-3.2c-16.65,9-42.73,9-59.38,0l-5.3,3.06A7.69,7.69,0,0,1,391,58.1c0,2.91-1.82,5.56-5.13,7.47A23.54,23.54,0,0,1,371.78,68a6.62,6.62,0,0,1,0,2.22c-.39,2.48-2.17,4.74-5,6.38-3.91,2.25-9.44,3.09-14.54,2.41a6.7,6.7,0,0,1,.1,2.19c-.31,2.59-2.11,5-5.07,6.66a23.55,23.55,0,0,1-14.12,2.44,6.89,6.89,0,0,1,0,2.22c-.39,2.47-2.17,4.74-5,6.37-3.9,2.26-9.42,3.09-14.54,2.41a6.5,6.5,0,0,1,.1,2.2c-.31,2.59-2.11,4.95-5.06,6.65a23.5,23.5,0,0,1-14.13,2.44,6.62,6.62,0,0,1,0,2.22c-.39,2.48-2.17,4.74-5,6.37-3.91,2.26-9.43,3.1-14.54,2.41a6.76,6.76,0,0,1,.1,2.2c-.31,2.58-2.11,5-5.07,6.66-3.78,2.18-9.09,3-14.12,2.44a6.83,6.83,0,0,1,0,2.21c-.4,2.48-2.17,4.74-5,6.38-3.9,2.26-9.42,3.11-14.54,2.41a6.5,6.5,0,0,1,.1,2.2c-.31,2.58-2.11,5-5.06,6.65a23.54,23.54,0,0,1-14.13,2.44,6.62,6.62,0,0,1,0,2.22c-.39,2.48-2.17,4.74-5,6.37-3.9,2.25-9.42,3.1-14.53,2.41a6.83,6.83,0,0,1,.09,2.21c-.31,2.58-2.11,4.95-5.06,6.65a23.67,23.67,0,0,1-14.13,2.44,6.62,6.62,0,0,1,0,2.22c-.39,2.47-2.17,4.74-5,6.37-3.9,2.25-9.42,3.09-14.54,2.41a6.76,6.76,0,0,1,.1,2.2c-.31,2.58-2.11,4.94-5.07,6.65-3.78,2.19-9.11,3-14.12,2.45a6.83,6.83,0,0,1,0,2.21c-.39,2.48-2.17,4.74-5,6.38-3.9,2.25-9.42,3.09-14.54,2.4a6.51,6.51,0,0,1,.1,2.2c-.31,2.59-2.11,5-5.06,6.66-5.84,3.37-14.83,3.55-21,.54L89,225.4c6.66,4.64,10.29,10.52,10.29,16.79S95.66,254.34,89,259l5.84,3.37c6.2-3,15.18-2.83,21,.54,3.59,2.07,4.7,4.56,5,6.28a7.12,7.12,0,0,1,0,2.21c5-.56,10.24.31,14,2.47s4.7,4.55,5,6.28a6.83,6.83,0,0,1,0,2.21c5-.57,10.24.3,14,2.46s4.7,4.56,5,6.29a6.83,6.83,0,0,1,0,2.21,23.17,23.17,0,0,1,14,2.46c3.59,2.07,4.7,4.56,5,6.29a6.56,6.56,0,0,1,0,2.21,23.32,23.32,0,0,1,14,2.45c3.59,2.08,4.7,4.57,5,6.29a6.62,6.62,0,0,1,0,2.22,23.25,23.25,0,0,1,14,2.45c3.59,2.08,4.69,4.57,5,6.29a6.56,6.56,0,0,1,0,2.21,23.34,23.34,0,0,1,14,2.46c3.58,2.07,4.69,4.56,5,6.28a6.56,6.56,0,0,1,0,2.21,23.26,23.26,0,0,1,14,2.47c3.3,1.91,5.13,4.56,5.13,7.47a7.78,7.78,0,0,1-2.57,5.6l5.67,3.27C265.22,351.44,275.86,349.19,286.49,349.19Z" transform="translate(-19.67 -10.13)"/><path class="cls-2" d="M453.66,150.93l-30.09,17.38-47.85-27.62c-3.36-1.94-.91-5.25,3.84-5.19l13.09.17a85.33,85.33,0,0,1,24.13,3.7Z" transform="translate(-19.67 -10.13)"/><path class="cls-1" d="M423.56,162.76l-48.81-28.18c-2-1.16-2.91-3-2.4-4.81.67-2.42,3.5-4,7.08-4h.16l13.09.17a87.38,87.38,0,0,1,24.69,3.79l41.11,12.89Zm-47.44-32a3.85,3.85,0,0,0,.58.42l46.86,27.06,25.28-14.59L416.2,133.43a83.53,83.53,0,0,0-23.57-3.61l-13.1-.17C377.46,129.71,376.26,130.43,376.12,130.78Z" transform="translate(-19.67 -10.13)"/><path class="cls-2" d="M453.66,150.93l-30.09,17.38,47.84,27.62c3.36,1.94,9.1.53,9-2.21l-.29-7.56c-.19-4.87-2.39-9.65-6.42-13.93Z" transform="translate(-19.67 -10.13)"/><path class="cls-1" d="M475.06,191a9.15,9.15,0,0,1-4.62-1.17l-50.77-29.31L454,140.68l21.09,22.41c4.34,4.62,6.74,9.87,6.94,15.19l.3,7.56a4.4,4.4,0,0,1-2.37,3.9A9.76,9.76,0,0,1,475.06,191Zm-47.6-30.48,44.93,25.94a6.41,6.41,0,0,0,5,.25c.81-.3,1.08-.65,1.1-.73l-.29-7.54c-.17-4.37-2.2-8.75-5.89-12.66l-19-20.18Z" transform="translate(-19.67 -10.13)"/><path class="cls-3" d="M483.76,160.51c-16.62,9.6-43.57,9.6-60.19,0s-16.63-25.15,0-34.75,43.57-9.6,60.19,0S500.39,150.92,483.76,160.51Z" transform="translate(-19.67 -10.13)"/><path class="cls-1" d="M453.67,169.62c-11.26,0-22.51-2.47-31.08-7.42s-13.44-11.78-13.44-19.06,4.77-14.07,13.44-19.07c17.13-9.89,45-9.9,62.15,0,8.66,5,13.44,11.78,13.44,19.07s-4.78,14.06-13.44,19.06h0C476.17,167.15,464.92,169.62,453.67,169.62Zm0-49.13c-10.55,0-21.1,2.32-29.13,7-7.41,4.28-11.49,9.85-11.49,15.69s4.08,11.41,11.49,15.69c16.06,9.27,42.19,9.26,58.25,0,7.41-4.28,11.49-9.86,11.49-15.69s-4.08-11.41-11.49-15.69C474.76,122.81,464.21,120.49,453.67,120.49Z" transform="translate(-19.67 -10.13)"/><path class="cls-4" d="M476.44,156.29c-12.58,7.26-33,7.26-45.55,0s-12.58-19,0-26.31,33-7.26,45.55,0S489,149,476.44,156.29Z" transform="translate(-19.67 -10.13)"/><path class="cls-2" d="M476.44,139.44c-12.58-7.26-33-7.26-45.55,0-4.56,2.64-7.45,5.87-8.7,9.25,1.25,3.4,4.14,6.62,8.7,9.26,12.58,7.26,33,7.26,45.55,0,4.56-2.64,7.45-5.86,8.7-9.25C483.89,145.31,481,142.08,476.44,139.44Z" transform="translate(-19.67 -10.13)"/><path class="cls-1" d="M453.66,163.65c-8.6,0-17.2-1.9-23.75-5.68-6.71-3.87-10.41-9.14-10.41-14.83s3.7-11,10.41-14.84c13.1-7.56,34.41-7.56,47.51,0,6.71,3.87,10.41,9.14,10.41,14.84s-3.7,11-10.41,14.83h0C470.87,161.75,462.27,163.65,453.66,163.65Zm0-37.18c-7.9,0-15.8,1.73-21.81,5.2-5.45,3.15-8.46,7.22-8.46,11.47s3,8.31,8.46,11.46c12,6.94,31.59,6.93,43.61,0,5.45-3.15,8.46-7.22,8.46-11.46s-3-8.32-8.46-11.47C469.46,128.2,461.56,126.47,453.67,126.47Z" transform="translate(-19.67 -10.13)"/><path class="cls-1" d="M287.45,381.52a25.79,25.79,0,0,1-12.64-3.07c-3.74-2.16-5.81-5.16-5.81-8.43s2.07-6.26,5.81-8.42c7.09-4.1,18.2-4.1,25.29,0,3.75,2.16,5.81,5.15,5.81,8.42s-2.06,6.27-5.81,8.43A25.8,25.8,0,0,1,287.45,381.52Zm0-19.06A22,22,0,0,0,276.76,365c-2.49,1.44-3.86,3.23-3.86,5s1.37,3.61,3.86,5.05c5.79,3.34,15.59,3.35,21.39,0h0c2.49-1.44,3.86-3.23,3.86-5.05s-1.37-3.61-3.86-5A22,22,0,0,0,287.45,362.46Z" transform="translate(-19.67 -10.13)"/><path class="cls-1" d="M65.08,253.13a25.68,25.68,0,0,1-12.64-3.07c-3.75-2.16-5.81-5.15-5.81-8.43s2.06-6.26,5.81-8.42c7.09-4.1,18.2-4.1,25.29,0,3.74,2.16,5.81,5.15,5.81,8.42s-2.07,6.27-5.81,8.43A25.75,25.75,0,0,1,65.08,253.13Zm0-19a22,22,0,0,0-10.69,2.5c-2.49,1.44-3.86,3.24-3.86,5s1.37,3.62,3.86,5.05c5.8,3.36,15.59,3.36,21.39,0h0c2.49-1.43,3.86-3.23,3.86-5.05s-1.37-3.61-3.86-5A22,22,0,0,0,65.08,234.08Z" transform="translate(-19.67 -10.13)"/><path class="cls-1" d="M646.34,174.32a25.69,25.69,0,0,1-12.64-3.08c-3.75-2.15-5.81-5.15-5.81-8.42s2.06-6.26,5.81-8.42c7.08-4.1,18.2-4.1,25.28,0,3.75,2.16,5.82,5.15,5.82,8.42s-2.07,6.27-5.82,8.42A25.69,25.69,0,0,1,646.34,174.32Zm0-19.06a22,22,0,0,0-10.69,2.51c-2.49,1.44-3.87,3.23-3.87,5s1.38,3.61,3.87,5.05c5.79,3.34,15.59,3.34,21.39,0h0c2.49-1.44,3.86-3.23,3.86-5.05s-1.37-3.61-3.86-5A22,22,0,0,0,646.34,155.26Z" transform="translate(-19.67 -10.13)"/><path class="cls-1" d="M424,45.93a25.75,25.75,0,0,1-12.65-3.07c-3.74-2.16-5.81-5.16-5.81-8.43s2.07-6.26,5.81-8.42c7.09-4.1,18.21-4.09,25.29,0,3.75,2.16,5.81,5.15,5.81,8.42s-2.06,6.27-5.81,8.43h0A25.68,25.68,0,0,1,424,45.93Zm0-19.06a22,22,0,0,0-10.7,2.51c-2.49,1.44-3.86,3.23-3.86,5.05s1.37,3.61,3.86,5c5.8,3.35,15.59,3.35,21.4,0h0c2.48-1.44,3.85-3.23,3.85-5s-1.37-3.61-3.85-5.05A22,22,0,0,0,424,26.87Z" transform="translate(-19.67 -10.13)"/><path class="cls-2" d="M465.18,233.35,309.9,143.7c-2.92-1.69-2.55-4.63.82-6.58h0c3.37-1.94,8.47-2.15,11.38-.47L477.38,226.3c2.92,1.68,2.56,4.63-.81,6.57h0C473.2,234.82,468.1,235,465.18,233.35Z" transform="translate(-19.67 -10.13)"/><path class="cls-1" d="M470.13,228.63a11.94,11.94,0,0,1-5.92-1.4L308.93,137.58A5.25,5.25,0,0,1,306,133c0-2,1.37-4,3.76-5.4,4-2.3,9.83-2.51,13.34-.48l155.28,89.65a5.26,5.26,0,0,1,2.94,4.55c0,2-1.37,4-3.76,5.4A15.11,15.11,0,0,1,470.13,228.63Zm-152.94-99a11.45,11.45,0,0,0-5.5,1.34c-1.34.77-1.81,1.58-1.81,2s.69,1,1,1.17l155.27,89.65c2.35,1.35,6.67,1.14,9.44-.47,1.34-.77,1.82-1.58,1.82-2s-.7-1-1-1.17L321.13,130.54A8,8,0,0,0,317.19,129.67Z" transform="translate(-19.67 -10.13)"/><path class="cls-2" d="M442.35,246.53,287.07,156.88c-2.92-1.69-2.56-4.63.81-6.57h0c3.37-1.95,8.47-2.16,11.39-.48l155.28,89.65c2.92,1.69,2.55,4.63-.82,6.58h0C450.36,248,445.26,248.22,442.35,246.53Z" transform="translate(-19.67 -10.13)"/><path class="cls-1" d="M447.3,241.81a12,12,0,0,1-5.93-1.39L286.09,150.77a5.26,5.26,0,0,1-2.94-4.54c0-2.06,1.37-4,3.76-5.41,4-2.3,9.83-2.5,13.33-.47L455.52,230a5.25,5.25,0,0,1,3,4.54c0,2.06-1.37,4-3.76,5.41A15.1,15.1,0,0,1,447.3,241.81Zm-4-4.76c2.3,1.32,6.71,1.1,9.44-.48,1.33-.77,1.81-1.58,1.81-2s-.69-1-1-1.17L298.3,143.72c-2.34-1.34-6.66-1.13-9.44.48-1.34.77-1.82,1.57-1.82,2s.7,1,1,1.17Z" transform="translate(-19.67 -10.13)"/><path class="cls-2" d="M419.51,259.71,264.23,170.06c-2.92-1.68-2.55-4.63.82-6.57h0c3.37-2,8.47-2.16,11.39-.47l155.27,89.65c2.92,1.68,2.56,4.63-.81,6.57h0C427.53,261.19,422.43,261.4,419.51,259.71Z" transform="translate(-19.67 -10.13)"/><path class="cls-1" d="M424.47,255a12,12,0,0,1-5.93-1.4L263.26,164a5.27,5.27,0,0,1-2.95-4.54c0-2.06,1.37-4,3.76-5.41,4-2.29,9.83-2.5,13.34-.47l155.28,89.65a5.26,5.26,0,0,1,2.94,4.55c0,2.05-1.37,4-3.76,5.4A15.09,15.09,0,0,1,424.47,255Zm-153-99a11.3,11.3,0,0,0-5.48,1.36c-1.33.77-1.81,1.58-1.81,2s.7,1,1,1.17l155.27,89.65c2.34,1.34,6.66,1.13,9.44-.47,1.34-.78,1.82-1.58,1.82-2s-.7-1-1-1.17L275.46,156.9A8.16,8.16,0,0,0,271.5,156Z" transform="translate(-19.67 -10.13)"/><path class="cls-2" d="M396.34,273.09,241.06,183.44c-2.92-1.68-2.56-4.62.81-6.57h0c3.37-2,8.47-2.16,11.39-.47l155.28,89.65c2.92,1.68,2.55,4.63-.82,6.57h0C404.35,274.57,399.25,274.78,396.34,273.09Z" transform="translate(-19.67 -10.13)"/><path class="cls-1" d="M401.29,268.37a12,12,0,0,1-5.93-1.39L240.08,177.33a5.24,5.24,0,0,1-2.94-4.54c0-2,1.37-4,3.76-5.4,4-2.3,9.82-2.51,13.34-.48l155.28,89.65a5.28,5.28,0,0,1,2.94,4.54c0,2.06-1.37,4-3.76,5.41A15.1,15.1,0,0,1,401.29,268.37Zm-153-99a11.27,11.27,0,0,0-5.48,1.36c-1.34.77-1.81,1.58-1.81,2s.69,1,1,1.16l155.28,89.66c2.33,1.34,6.65,1.13,9.44-.47,1.33-.78,1.81-1.58,1.81-2s-.69-1-1-1.16L252.29,170.29A8.1,8.1,0,0,0,248.33,169.4Z" transform="translate(-19.67 -10.13)"/><path class="cls-2" d="M249.8,251.12,187,214.85c-3-1.74-2.63-4.77.85-6.78L215,192.39c3.48-2,8.73-2.22,11.74-.49l62.82,36.27c3,1.74,2.63,4.77-.85,6.78l-27.16,15.68C258.06,252.64,252.81,252.85,249.8,251.12Z" transform="translate(-19.67 -10.13)"/><path class="cls-1" d="M254.91,246.43a12.46,12.46,0,0,1-6.09-1.42h0L186,208.74a5.36,5.36,0,0,1-3-4.63c0-2.1,1.41-4.11,3.85-5.52L214,182.9c4.07-2.35,10.08-2.57,13.69-.48l62.81,36.26a5.35,5.35,0,0,1,3,4.63c0,2.1-1.4,4.11-3.84,5.52l-27.17,15.69A15.54,15.54,0,0,1,254.91,246.43Zm-4.14-4.8c2.43,1.4,6.92,1.17,9.79-.49l27.17-15.68c1.4-.81,1.9-1.66,1.9-2.15s-.74-1.07-1.06-1.25l-62.81-36.27c-2.43-1.39-6.91-1.17-9.79.49L188.8,202c-1.4.81-1.9,1.66-1.9,2.15s.74,1.07,1.06,1.25l62.81,36.27Z" transform="translate(-19.67 -10.13)"/><path class="cls-2" d="M341.12,303.84l-15.78-9.11c-3.46-2-3-5.48,1-7.79l25.28-14.6c4-2.3,10-2.55,13.5-.56l15.78,9.11c3.46,2,3,5.49-1,7.8l-25.28,14.59C350.62,305.59,344.58,305.84,341.12,303.84Z" transform="translate(-19.67 -10.13)"/><path class="cls-1" d="M347,299.34a13.85,13.85,0,0,1-6.85-1.61l-15.78-9.11a5.89,5.89,0,0,1-3.31-5.07c0-2.3,1.56-4.53,4.28-6.09l25.28-14.6c4.6-2.66,11.39-2.9,15.44-.57l15.78,9.12a5.88,5.88,0,0,1,3.32,5.07c0,2.3-1.57,4.53-4.28,6.1l-25.29,14.59A17.54,17.54,0,0,1,347,299.34Zm12.25-34.76a13.92,13.92,0,0,0-6.68,1.65l-25.28,14.6c-1.72,1-2.33,2.05-2.33,2.72s.85,1.4,1.36,1.69l15.78,9.12c2.86,1.66,8.14,1.39,11.54-.56l25.29-14.6c1.71-1,2.33-2.06,2.33-2.72s-.86-1.4-1.37-1.69l-15.77-9.12A10,10,0,0,0,359.25,264.58Z" transform="translate(-19.67 -10.13)"/><path class="cls-1" d="M244,275.85c-10.8,0-21.61-2.38-29.84-7.13s-12.93-11.33-12.93-18.36,4.59-13.54,12.93-18.35c16.45-9.5,43.23-9.5,59.69,0,8.34,4.81,12.93,11.33,12.93,18.35s-4.59,13.55-12.93,18.36h0C265.63,273.47,254.82,275.85,244,275.85Zm0-47.12c-10.1,0-20.2,2.22-27.89,6.65-7.08,4.1-11,9.41-11,15s3.91,10.89,11,15c15.39,8.88,40.41,8.88,55.79,0,7.08-4.1,11-9.41,11-15s-3.9-10.88-11-15C264.22,231,254.12,228.73,244,228.73Z" transform="translate(-19.67 -10.13)"/><path class="cls-1" d="M243.86,268.85c-7.74,0-15.49-1.7-21.38-5.1-6.08-3.51-9.43-8.3-9.43-13.48s3.35-10,9.43-13.46c11.79-6.81,31-6.81,42.76,0,6.08,3.5,9.43,8.29,9.43,13.47s-3.35,10-9.43,13.47C259.35,267.15,251.6,268.85,243.86,268.85Zm0-33.31c-7,0-14.08,1.55-19.44,4.64-4.82,2.79-7.48,6.37-7.48,10.09s2.66,7.32,7.48,10.11c10.72,6.18,28.16,6.18,38.87,0h0c4.83-2.79,7.49-6.38,7.49-10.1s-2.66-7.31-7.49-10.1C257.94,237.09,250.9,235.54,243.86,235.54Z" transform="translate(-19.67 -10.13)"/><path class="cls-1" d="M343.28,312.05l-3.2-2.23a1.4,1.4,0,0,0,.22-1.48c-.48-1.1-2.35-2.39-5.44-2.83l-.89-.12a23.33,23.33,0,0,1-9.8-3.51l-15.74-10.7A3.16,3.16,0,0,1,307,288a4,4,0,0,1,3.29-2.9l15-3.39L293,279.29l-10.19,4.21c-3.35,1.38-8.43.72-10.22-2.22a3.72,3.72,0,0,1,0-4c1.2-2,4.14-3.11,7.29-2.88l12.49.92L313,266.8c-14-.1-15.27-.53-15.81-.72l1.28-3.68-.64,1.84.6-1.85c.28.07,2.34.44,15.9.52,2.44,0,4.3,1.24,4.61,3,.21,1.19-.34,2.86-2.54,3.66L301,276l26.12,1.93c2.88.05,4.41,1.75,4.57,3.31.14,1.34-.65,3.13-3.33,3.73l-16.63,3.77,14.62,10a19.78,19.78,0,0,0,8.15,2.87l.89.12c4.16.58,7.32,2.5,8.47,5.13A5.26,5.26,0,0,1,343.28,312.05ZM279,278.29c-1.87,0-3,.75-3.15,1.07.49.67,3.22,1.43,5.42.54l3-1.25-4.74-.34A4.87,4.87,0,0,0,279,278.29Z" transform="translate(-19.67 -10.13)"/></svg>