<svg id="Layer_1" data-name="Layer 1" xmlns="http://www.w3.org/2000/svg" viewBox="0 0 31.92 51.95"><defs><style>.cls-1{fill:#16110d;}.cls-2{fill:#39a1ff;}.cls-3{fill:#fff;}</style></defs><title>art-2</title><path class="cls-1" d="M36.21,18.94c.15.07.28,0,.27-.13a.49.49,0,0,0-.28-.38c-.16-.07-.28,0-.28.13A.48.48,0,0,0,36.21,18.94Z" transform="translate(-11.27 -8.63)"/><path class="cls-1" d="M36.24,20.29c.15.06.28,0,.27-.14a.49.49,0,0,0-.28-.38c-.16-.07-.28,0-.28.13A.48.48,0,0,0,36.24,20.29Z" transform="translate(-11.27 -8.63)"/><path class="cls-1" d="M36.27,21.63c.15.07.28,0,.28-.13a.49.49,0,0,0-.29-.38c-.16-.07-.28,0-.28.13A.48.48,0,0,0,36.27,21.63Z" transform="translate(-11.27 -8.63)"/><path class="cls-1" d="M36.3,23c.16.07.28,0,.28-.13a.52.52,0,0,0-.29-.38c-.16-.07-.28,0-.28.13A.48.48,0,0,0,36.3,23Z" transform="translate(-11.27 -8.63)"/><path class="cls-1" d="M36.33,24.32c.16.07.28,0,.28-.14a.52.52,0,0,0-.29-.38c-.16-.07-.28,0-.28.14A.5.5,0,0,0,36.33,24.32Z" transform="translate(-11.27 -8.63)"/><path class="cls-1" d="M36.36,25.66c.16.07.28,0,.28-.13a.5.5,0,0,0-.29-.38c-.16-.07-.28,0-.28.13A.52.52,0,0,0,36.36,25.66Z" transform="translate(-11.27 -8.63)"/><path class="cls-1" d="M36.39,27c.16.07.28,0,.28-.13a.48.48,0,0,0-.29-.38c-.16-.07-.28,0-.28.13A.51.51,0,0,0,36.39,27Z" transform="translate(-11.27 -8.63)"/><path class="cls-1" d="M36.42,28.35c.16.07.28,0,.28-.13a.48.48,0,0,0-.29-.39c-.16-.06-.28,0-.28.14A.52.52,0,0,0,36.42,28.35Z" transform="translate(-11.27 -8.63)"/><path class="cls-1" d="M34.73,18.29c.16.07.28,0,.28-.13a.52.52,0,0,0-.29-.38c-.16-.07-.28,0-.28.13A.48.48,0,0,0,34.73,18.29Z" transform="translate(-11.27 -8.63)"/><path class="cls-1" d="M34.76,19.64c.16.06.28,0,.28-.14a.5.5,0,0,0-.29-.38c-.16-.07-.28,0-.28.13A.5.5,0,0,0,34.76,19.64Z" transform="translate(-11.27 -8.63)"/><path class="cls-1" d="M34.79,21c.16.07.28,0,.28-.13a.48.48,0,0,0-.29-.39c-.16-.06-.28,0-.28.14A.52.52,0,0,0,34.79,21Z" transform="translate(-11.27 -8.63)"/><path class="cls-1" d="M34.82,22.32c.16.07.28,0,.28-.13a.48.48,0,0,0-.29-.38c-.16-.07-.28,0-.28.13A.52.52,0,0,0,34.82,22.32Z" transform="translate(-11.27 -8.63)"/><path class="cls-1" d="M34.85,23.67c.16.06.28,0,.28-.14a.48.48,0,0,0-.29-.38c-.15-.07-.28,0-.27.13A.49.49,0,0,0,34.85,23.67Z" transform="translate(-11.27 -8.63)"/><path class="cls-1" d="M34.88,25c.16.07.28,0,.28-.13a.47.47,0,0,0-.29-.38c-.15-.07-.28,0-.27.13A.49.49,0,0,0,34.88,25Z" transform="translate(-11.27 -8.63)"/><path class="cls-1" d="M34.91,26.35c.16.07.28,0,.28-.13a.48.48,0,0,0-.29-.38c-.15-.07-.28,0-.27.13A.49.49,0,0,0,34.91,26.35Z" transform="translate(-11.27 -8.63)"/><path class="cls-1" d="M35,27.7c.15.07.28,0,.27-.14a.48.48,0,0,0-.29-.38c-.15-.07-.28,0-.27.14A.48.48,0,0,0,35,27.7Z" transform="translate(-11.27 -8.63)"/><path class="cls-1" d="M33.25,17.64c.16.07.28,0,.28-.13a.48.48,0,0,0-.29-.38c-.15-.07-.28,0-.28.13A.52.52,0,0,0,33.25,17.64Z" transform="translate(-11.27 -8.63)"/><path class="cls-1" d="M33.28,19c.16.07.28,0,.28-.13a.48.48,0,0,0-.29-.38c-.15-.07-.28,0-.27.13A.46.46,0,0,0,33.28,19Z" transform="translate(-11.27 -8.63)"/><path class="cls-1" d="M33.31,20.33c.16.07.28,0,.28-.13a.48.48,0,0,0-.29-.39c-.15-.06-.28,0-.27.14A.49.49,0,0,0,33.31,20.33Z" transform="translate(-11.27 -8.63)"/><path class="cls-1" d="M33.35,21.67c.15.07.28,0,.27-.13a.48.48,0,0,0-.29-.38c-.15-.07-.28,0-.27.13A.48.48,0,0,0,33.35,21.67Z" transform="translate(-11.27 -8.63)"/><path class="cls-1" d="M33.38,23c.15.06.28,0,.27-.14a.48.48,0,0,0-.29-.38c-.15-.07-.28,0-.27.13A.48.48,0,0,0,33.38,23Z" transform="translate(-11.27 -8.63)"/><path class="cls-1" d="M33.41,24.36c.15.07.28,0,.27-.13a.46.46,0,0,0-.28-.38c-.16-.07-.28,0-.28.13A.48.48,0,0,0,33.41,24.36Z" transform="translate(-11.27 -8.63)"/><path class="cls-1" d="M33.44,25.7c.15.07.28,0,.27-.13a.49.49,0,0,0-.28-.38c-.16-.07-.28,0-.28.13A.48.48,0,0,0,33.44,25.7Z" transform="translate(-11.27 -8.63)"/><path class="cls-1" d="M33.47,27.05c.15.07.28,0,.28-.14a.52.52,0,0,0-.29-.38c-.16-.07-.28,0-.28.14A.48.48,0,0,0,33.47,27.05Z" transform="translate(-11.27 -8.63)"/><path class="cls-1" d="M31.78,17c.15.07.28,0,.27-.13a.48.48,0,0,0-.29-.38c-.15-.07-.28,0-.27.13A.48.48,0,0,0,31.78,17Z" transform="translate(-11.27 -8.63)"/><path class="cls-1" d="M31.81,18.33c.15.07.28,0,.27-.13a.49.49,0,0,0-.28-.38c-.16-.07-.28,0-.28.13A.47.47,0,0,0,31.81,18.33Z" transform="translate(-11.27 -8.63)"/><path class="cls-1" d="M31.84,19.68c.15.07.28,0,.27-.13a.49.49,0,0,0-.28-.39c-.16-.06-.28,0-.28.14A.48.48,0,0,0,31.84,19.68Z" transform="translate(-11.27 -8.63)"/><path class="cls-1" d="M31.87,21c.15.07.28,0,.28-.13a.52.52,0,0,0-.29-.38c-.16-.07-.28,0-.28.13A.48.48,0,0,0,31.87,21Z" transform="translate(-11.27 -8.63)"/><path class="cls-1" d="M31.9,22.36c.16.07.28,0,.28-.13a.52.52,0,0,0-.29-.38c-.16-.07-.28,0-.28.13A.45.45,0,0,0,31.9,22.36Z" transform="translate(-11.27 -8.63)"/><path class="cls-1" d="M31.93,23.71c.16.07.28,0,.28-.13a.52.52,0,0,0-.29-.39c-.16-.06-.28,0-.28.14A.5.5,0,0,0,31.93,23.71Z" transform="translate(-11.27 -8.63)"/><path class="cls-1" d="M32,25.05c.16.07.28,0,.28-.13a.5.5,0,0,0-.29-.38c-.16-.07-.28,0-.28.13A.52.52,0,0,0,32,25.05Z" transform="translate(-11.27 -8.63)"/><path class="cls-1" d="M32,26.4c.16.06.28,0,.28-.14a.48.48,0,0,0-.29-.38c-.16-.07-.28,0-.28.13A.52.52,0,0,0,32,26.4Z" transform="translate(-11.27 -8.63)"/><path class="cls-1" d="M30.3,16.34c.16.07.28,0,.28-.13a.51.51,0,0,0-.29-.38c-.16-.07-.28,0-.28.13A.48.48,0,0,0,30.3,16.34Z" transform="translate(-11.27 -8.63)"/><path class="cls-1" d="M30.33,17.68c.16.07.28,0,.28-.13a.52.52,0,0,0-.29-.38c-.16-.07-.28,0-.28.13A.48.48,0,0,0,30.33,17.68Z" transform="translate(-11.27 -8.63)"/><path class="cls-1" d="M30.36,19c.16.07.28,0,.28-.14a.52.52,0,0,0-.29-.38c-.16-.07-.28,0-.28.14A.5.5,0,0,0,30.36,19Z" transform="translate(-11.27 -8.63)"/><path class="cls-1" d="M30.39,20.37c.16.07.28,0,.28-.13a.5.5,0,0,0-.29-.38c-.16-.07-.28,0-.28.13A.52.52,0,0,0,30.39,20.37Z" transform="translate(-11.27 -8.63)"/><path class="cls-1" d="M30.42,21.71c.16.07.28,0,.28-.13a.48.48,0,0,0-.29-.38c-.16-.07-.28,0-.28.13A.51.51,0,0,0,30.42,21.71Z" transform="translate(-11.27 -8.63)"/><path class="cls-1" d="M30.45,23.06c.16.07.28,0,.28-.13a.48.48,0,0,0-.29-.39c-.15-.06-.28,0-.28.14A.52.52,0,0,0,30.45,23.06Z" transform="translate(-11.27 -8.63)"/><path class="cls-1" d="M30.48,24.4c.16.07.28,0,.28-.13a.48.48,0,0,0-.29-.38c-.15-.07-.28,0-.27.13A.49.49,0,0,0,30.48,24.4Z" transform="translate(-11.27 -8.63)"/><path class="cls-1" d="M30.51,25.75c.16.06.28,0,.28-.14a.48.48,0,0,0-.29-.38c-.15-.07-.28,0-.27.13A.49.49,0,0,0,30.51,25.75Z" transform="translate(-11.27 -8.63)"/><path class="cls-1" d="M28.81,15.68c.15.07.28,0,.27-.13a.49.49,0,0,0-.28-.38c-.16-.07-.28,0-.28.13A.47.47,0,0,0,28.81,15.68Z" transform="translate(-11.27 -8.63)"/><path class="cls-1" d="M28.84,17c.15.07.28,0,.28-.13a.52.52,0,0,0-.29-.39c-.16-.06-.28,0-.28.14A.48.48,0,0,0,28.84,17Z" transform="translate(-11.27 -8.63)"/><path class="cls-1" d="M28.87,18.37c.16.07.28,0,.28-.13a.52.52,0,0,0-.29-.38c-.16-.07-.28,0-.28.13A.48.48,0,0,0,28.87,18.37Z" transform="translate(-11.27 -8.63)"/><path class="cls-1" d="M28.9,19.72c.16.06.28,0,.28-.14a.52.52,0,0,0-.29-.38c-.16-.07-.28,0-.28.13A.5.5,0,0,0,28.9,19.72Z" transform="translate(-11.27 -8.63)"/><path class="cls-1" d="M28.93,21.06c.16.07.28,0,.28-.13a.5.5,0,0,0-.29-.39c-.16-.06-.28,0-.28.14A.52.52,0,0,0,28.93,21.06Z" transform="translate(-11.27 -8.63)"/><path class="cls-1" d="M29,22.4c.16.07.28,0,.28-.13a.48.48,0,0,0-.29-.38c-.16-.07-.28,0-.28.13A.52.52,0,0,0,29,22.4Z" transform="translate(-11.27 -8.63)"/><path class="cls-1" d="M29,23.75c.16.06.28,0,.28-.14a.48.48,0,0,0-.29-.38c-.15-.07-.28,0-.28.13A.52.52,0,0,0,29,23.75Z" transform="translate(-11.27 -8.63)"/><path class="cls-1" d="M29,25.09c.16.07.28,0,.28-.13a.47.47,0,0,0-.29-.38c-.15-.07-.28,0-.27.13A.49.49,0,0,0,29,25.09Z" transform="translate(-11.27 -8.63)"/><path class="cls-1" d="M27.33,15c.16.07.28,0,.28-.13a.5.5,0,0,0-.29-.38c-.16-.07-.28,0-.28.13A.5.5,0,0,0,27.33,15Z" transform="translate(-11.27 -8.63)"/><path class="cls-1" d="M27.36,16.38c.16.07.28,0,.28-.14a.48.48,0,0,0-.29-.38c-.16-.07-.28,0-.28.14A.52.52,0,0,0,27.36,16.38Z" transform="translate(-11.27 -8.63)"/><path class="cls-1" d="M27.39,17.72c.16.07.28,0,.28-.13a.48.48,0,0,0-.29-.38c-.16-.07-.28,0-.28.13A.52.52,0,0,0,27.39,17.72Z" transform="translate(-11.27 -8.63)"/><path class="cls-1" d="M27.42,19.06c.16.07.28,0,.28-.13a.48.48,0,0,0-.29-.38c-.15-.07-.28,0-.27.13A.46.46,0,0,0,27.42,19.06Z" transform="translate(-11.27 -8.63)"/><path class="cls-1" d="M27.45,20.41c.16.07.28,0,.28-.13a.48.48,0,0,0-.29-.39c-.15-.06-.28,0-.27.14A.49.49,0,0,0,27.45,20.41Z" transform="translate(-11.27 -8.63)"/><path class="cls-1" d="M27.49,21.75c.15.07.27,0,.27-.13a.48.48,0,0,0-.29-.38c-.15-.07-.28,0-.27.13A.48.48,0,0,0,27.49,21.75Z" transform="translate(-11.27 -8.63)"/><path class="cls-1" d="M27.52,23.1c.15.06.28,0,.27-.14a.48.48,0,0,0-.29-.38c-.15-.07-.28,0-.27.13A.48.48,0,0,0,27.52,23.1Z" transform="translate(-11.27 -8.63)"/><path class="cls-1" d="M27.55,24.44c.15.07.28,0,.27-.13a.45.45,0,0,0-.29-.38c-.15-.07-.27,0-.27.13A.48.48,0,0,0,27.55,24.44Z" transform="translate(-11.27 -8.63)"/><path class="cls-1" d="M25.85,14.38c.16.07.28,0,.28-.13a.48.48,0,0,0-.29-.38c-.15-.07-.28,0-.27.13A.49.49,0,0,0,25.85,14.38Z" transform="translate(-11.27 -8.63)"/><path class="cls-1" d="M25.88,15.73c.16.07.28,0,.28-.14a.48.48,0,0,0-.29-.38c-.15-.07-.28,0-.27.14A.49.49,0,0,0,25.88,15.73Z" transform="translate(-11.27 -8.63)"/><path class="cls-1" d="M25.92,17.07c.15.07.28,0,.27-.13a.48.48,0,0,0-.29-.38c-.15-.07-.28,0-.27.13A.48.48,0,0,0,25.92,17.07Z" transform="translate(-11.27 -8.63)"/><path class="cls-1" d="M26,18.41c.15.07.28,0,.27-.13a.48.48,0,0,0-.29-.38c-.15-.07-.28,0-.27.13A.47.47,0,0,0,26,18.41Z" transform="translate(-11.27 -8.63)"/><path class="cls-1" d="M26,19.76c.15.07.28,0,.27-.13a.49.49,0,0,0-.28-.39c-.16-.06-.28,0-.28.14A.48.48,0,0,0,26,19.76Z" transform="translate(-11.27 -8.63)"/><path class="cls-1" d="M26,21.1c.15.07.28,0,.27-.13a.49.49,0,0,0-.28-.38c-.16-.07-.28,0-.28.13A.48.48,0,0,0,26,21.1Z" transform="translate(-11.27 -8.63)"/><path class="cls-1" d="M26,22.44c.15.07.28,0,.28-.13a.52.52,0,0,0-.29-.38c-.16-.07-.28,0-.28.13A.45.45,0,0,0,26,22.44Z" transform="translate(-11.27 -8.63)"/><path class="cls-1" d="M26.07,23.79c.16.07.28,0,.28-.13a.52.52,0,0,0-.29-.39c-.16-.06-.28,0-.28.14A.48.48,0,0,0,26.07,23.79Z" transform="translate(-11.27 -8.63)"/><path class="cls-1" d="M24.38,13.73c.15.07.28,0,.27-.13a.49.49,0,0,0-.28-.38c-.16-.07-.28,0-.28.13A.48.48,0,0,0,24.38,13.73Z" transform="translate(-11.27 -8.63)"/><path class="cls-1" d="M24.41,15.08c.15.06.28,0,.27-.14a.49.49,0,0,0-.28-.38c-.16-.07-.28,0-.28.13A.48.48,0,0,0,24.41,15.08Z" transform="translate(-11.27 -8.63)"/><path class="cls-1" d="M24.44,16.42c.15.07.28,0,.28-.13a.51.51,0,0,0-.29-.38c-.16-.07-.28,0-.28.13A.48.48,0,0,0,24.44,16.42Z" transform="translate(-11.27 -8.63)"/><path class="cls-1" d="M24.47,17.76c.16.07.28,0,.28-.13a.52.52,0,0,0-.29-.38c-.16-.07-.28,0-.28.13A.48.48,0,0,0,24.47,17.76Z" transform="translate(-11.27 -8.63)"/><path class="cls-1" d="M24.5,19.11c.16.07.28,0,.28-.14a.52.52,0,0,0-.29-.38c-.16-.07-.28,0-.28.14A.5.5,0,0,0,24.5,19.11Z" transform="translate(-11.27 -8.63)"/><path class="cls-1" d="M24.53,20.45c.16.07.28,0,.28-.13a.5.5,0,0,0-.29-.38c-.16-.07-.28,0-.28.13A.52.52,0,0,0,24.53,20.45Z" transform="translate(-11.27 -8.63)"/><path class="cls-1" d="M24.56,21.79c.16.07.28,0,.28-.13a.48.48,0,0,0-.29-.38c-.16-.07-.28,0-.28.13A.51.51,0,0,0,24.56,21.79Z" transform="translate(-11.27 -8.63)"/><path class="cls-1" d="M22.9,13.08c.16.07.28,0,.28-.13a.52.52,0,0,0-.29-.38c-.16-.07-.28,0-.28.13A.48.48,0,0,0,22.9,13.08Z" transform="translate(-11.27 -8.63)"/><path class="cls-1" d="M22.93,14.43c.16.06.28,0,.28-.14a.5.5,0,0,0-.29-.38c-.16-.07-.28,0-.28.13A.5.5,0,0,0,22.93,14.43Z" transform="translate(-11.27 -8.63)"/><path class="cls-1" d="M23,15.77c.16.07.28,0,.28-.13a.47.47,0,0,0-.29-.38c-.16-.07-.28,0-.28.13A.52.52,0,0,0,23,15.77Z" transform="translate(-11.27 -8.63)"/><path class="cls-1" d="M23,17.11c.16.07.28,0,.28-.13A.48.48,0,0,0,23,16.6c-.16-.07-.28,0-.28.13A.52.52,0,0,0,23,17.11Z" transform="translate(-11.27 -8.63)"/><path class="cls-1" d="M23,18.46c.16.07.28,0,.28-.14a.48.48,0,0,0-.29-.38c-.15-.07-.28,0-.28.14A.52.52,0,0,0,23,18.46Z" transform="translate(-11.27 -8.63)"/><path class="cls-1" d="M23.05,19.8c.16.07.28,0,.28-.13a.47.47,0,0,0-.29-.38c-.15-.07-.28,0-.27.13A.49.49,0,0,0,23.05,19.8Z" transform="translate(-11.27 -8.63)"/><path class="cls-1" d="M21.42,12.43c.16.07.28,0,.28-.13a.48.48,0,0,0-.29-.38c-.15-.07-.28,0-.28.13A.52.52,0,0,0,21.42,12.43Z" transform="translate(-11.27 -8.63)"/><path class="cls-1" d="M21.45,13.78c.16.06.28,0,.28-.14a.48.48,0,0,0-.29-.38c-.15-.07-.28,0-.27.13A.49.49,0,0,0,21.45,13.78Z" transform="translate(-11.27 -8.63)"/><path class="cls-1" d="M21.48,15.12c.16.07.28,0,.28-.13a.48.48,0,0,0-.29-.39c-.15-.06-.28,0-.27.14A.49.49,0,0,0,21.48,15.12Z" transform="translate(-11.27 -8.63)"/><path class="cls-1" d="M21.52,16.46c.15.07.28,0,.27-.13A.48.48,0,0,0,21.5,16c-.15-.07-.28,0-.27.13A.48.48,0,0,0,21.52,16.46Z" transform="translate(-11.27 -8.63)"/><path class="cls-1" d="M21.55,17.81c.15.06.28,0,.27-.14a.48.48,0,0,0-.29-.38c-.15-.07-.28,0-.27.13A.48.48,0,0,0,21.55,17.81Z" transform="translate(-11.27 -8.63)"/><path class="cls-1" d="M20,11.78c.15.07.28,0,.27-.13a.48.48,0,0,0-.29-.38c-.15-.07-.28,0-.27.13A.48.48,0,0,0,20,11.78Z" transform="translate(-11.27 -8.63)"/><path class="cls-1" d="M20,13.12c.15.07.28,0,.27-.13a.49.49,0,0,0-.28-.38c-.16-.07-.28,0-.28.13A.47.47,0,0,0,20,13.12Z" transform="translate(-11.27 -8.63)"/><path class="cls-1" d="M20,14.47c.15.07.28,0,.27-.13A.49.49,0,0,0,20,14c-.16-.06-.28,0-.28.14A.48.48,0,0,0,20,14.47Z" transform="translate(-11.27 -8.63)"/><path class="cls-1" d="M20,15.81c.15.07.28,0,.28-.13A.52.52,0,0,0,20,15.3c-.16-.07-.28,0-.28.13A.48.48,0,0,0,20,15.81Z" transform="translate(-11.27 -8.63)"/><path class="cls-1" d="M18.47,11.13c.16.07.28,0,.28-.13a.51.51,0,0,0-.29-.38c-.16-.07-.28,0-.28.13A.48.48,0,0,0,18.47,11.13Z" transform="translate(-11.27 -8.63)"/><path class="cls-1" d="M18.5,12.47c.16.07.28,0,.28-.13a.52.52,0,0,0-.29-.38c-.16-.07-.28,0-.28.13A.47.47,0,0,0,18.5,12.47Z" transform="translate(-11.27 -8.63)"/><path class="cls-1" d="M18.53,13.82c.16.07.28,0,.28-.14a.52.52,0,0,0-.29-.38c-.16-.07-.28,0-.28.14A.5.5,0,0,0,18.53,13.82Z" transform="translate(-11.27 -8.63)"/><path class="cls-1" d="M17,10.47c.15.07.28,0,.27-.13A.49.49,0,0,0,17,10c-.16-.07-.28,0-.28.13A.45.45,0,0,0,17,10.47Z" transform="translate(-11.27 -8.63)"/><path class="cls-1" d="M17,11.82c.15.07.28,0,.28-.13A.52.52,0,0,0,17,11.3c-.16-.06-.28,0-.28.14A.48.48,0,0,0,17,11.82Z" transform="translate(-11.27 -8.63)"/><path class="cls-1" d="M17,13.16c.16.07.28,0,.28-.13a.52.52,0,0,0-.29-.38c-.16-.07-.28,0-.28.13A.48.48,0,0,0,17,13.16Z" transform="translate(-11.27 -8.63)"/><path class="cls-1" d="M15.5,9.82c.16.07.28,0,.28-.13a.5.5,0,0,0-.29-.38c-.16-.07-.28,0-.28.13A.48.48,0,0,0,15.5,9.82Z" transform="translate(-11.27 -8.63)"/><path class="cls-1" d="M15.53,11.17c.16.07.28,0,.28-.13a.48.48,0,0,0-.29-.39c-.16-.06-.28,0-.28.14A.52.52,0,0,0,15.53,11.17Z" transform="translate(-11.27 -8.63)"/><path class="cls-1" d="M14,9.17c.16.07.28,0,.28-.13A.48.48,0,0,0,14,8.66c-.15-.07-.28,0-.27.13A.49.49,0,0,0,14,9.17Z" transform="translate(-11.27 -8.63)"/><path class="cls-1" d="M42,21.64c.15.07.28,0,.28-.13a.52.52,0,0,0-.29-.39c-.16-.06-.28,0-.28.14A.48.48,0,0,0,42,21.64Z" transform="translate(-11.27 -8.63)"/><path class="cls-1" d="M42.06,23c.16.07.28,0,.28-.13a.52.52,0,0,0-.29-.38c-.16-.07-.28,0-.28.13A.48.48,0,0,0,42.06,23Z" transform="translate(-11.27 -8.63)"/><path class="cls-1" d="M42.09,24.33c.16.06.28,0,.28-.14a.52.52,0,0,0-.29-.38c-.16-.07-.28,0-.28.13A.5.5,0,0,0,42.09,24.33Z" transform="translate(-11.27 -8.63)"/><path class="cls-1" d="M42.12,25.67c.16.07.28,0,.28-.13a.48.48,0,0,0-.29-.38c-.16-.07-.28,0-.28.13A.52.52,0,0,0,42.12,25.67Z" transform="translate(-11.27 -8.63)"/><path class="cls-1" d="M42.15,27c.16.07.28,0,.28-.13a.48.48,0,0,0-.29-.38c-.16-.07-.28,0-.28.13A.52.52,0,0,0,42.15,27Z" transform="translate(-11.27 -8.63)"/><path class="cls-1" d="M42.18,28.36c.16.07.28,0,.28-.14a.48.48,0,0,0-.29-.38c-.15-.07-.28,0-.28.14A.52.52,0,0,0,42.18,28.36Z" transform="translate(-11.27 -8.63)"/><path class="cls-1" d="M42.21,29.7c.16.07.28,0,.28-.13a.48.48,0,0,0-.29-.38c-.15-.07-.28,0-.27.13A.49.49,0,0,0,42.21,29.7Z" transform="translate(-11.27 -8.63)"/><path class="cls-1" d="M42.24,31c.16.07.28,0,.28-.13a.48.48,0,0,0-.29-.38c-.15-.07-.28,0-.27.13A.47.47,0,0,0,42.24,31Z" transform="translate(-11.27 -8.63)"/><path class="cls-1" d="M40.55,21c.16.07.28,0,.28-.13a.48.48,0,0,0-.29-.39c-.16-.06-.28,0-.28.14A.52.52,0,0,0,40.55,21Z" transform="translate(-11.27 -8.63)"/><path class="cls-1" d="M40.58,22.33c.16.07.28,0,.28-.13a.48.48,0,0,0-.29-.38c-.16-.07-.28,0-.28.13A.52.52,0,0,0,40.58,22.33Z" transform="translate(-11.27 -8.63)"/><path class="cls-1" d="M40.61,23.68c.16.06.28,0,.28-.14a.48.48,0,0,0-.29-.38c-.15-.07-.28,0-.27.13A.49.49,0,0,0,40.61,23.68Z" transform="translate(-11.27 -8.63)"/><path class="cls-1" d="M40.64,25c.16.07.28,0,.28-.13a.45.45,0,0,0-.29-.38c-.15-.07-.28,0-.27.13A.49.49,0,0,0,40.64,25Z" transform="translate(-11.27 -8.63)"/><path class="cls-1" d="M40.68,26.36c.15.07.27,0,.27-.13a.48.48,0,0,0-.29-.38c-.15-.07-.28,0-.27.13A.48.48,0,0,0,40.68,26.36Z" transform="translate(-11.27 -8.63)"/><path class="cls-1" d="M40.71,27.71c.15.07.28,0,.27-.14a.48.48,0,0,0-.29-.38c-.15-.07-.28,0-.27.14A.48.48,0,0,0,40.71,27.71Z" transform="translate(-11.27 -8.63)"/><path class="cls-1" d="M40.74,29.05c.15.07.28,0,.27-.13a.49.49,0,0,0-.28-.38c-.16-.07-.28,0-.28.13A.48.48,0,0,0,40.74,29.05Z" transform="translate(-11.27 -8.63)"/><path class="cls-1" d="M40.77,30.39c.15.07.28,0,.27-.13a.49.49,0,0,0-.28-.38c-.16-.07-.28,0-.28.13A.47.47,0,0,0,40.77,30.39Z" transform="translate(-11.27 -8.63)"/><path class="cls-1" d="M39.07,20.34c.16.07.28,0,.28-.13a.48.48,0,0,0-.29-.39c-.15-.06-.28,0-.27.14A.49.49,0,0,0,39.07,20.34Z" transform="translate(-11.27 -8.63)"/><path class="cls-1" d="M39.11,21.68c.15.07.28,0,.27-.13a.48.48,0,0,0-.29-.38c-.15-.07-.28,0-.27.13A.48.48,0,0,0,39.11,21.68Z" transform="translate(-11.27 -8.63)"/><path class="cls-1" d="M39.14,23c.15.06.28,0,.27-.14a.48.48,0,0,0-.29-.38c-.15-.07-.28,0-.27.13A.48.48,0,0,0,39.14,23Z" transform="translate(-11.27 -8.63)"/><path class="cls-1" d="M39.17,24.37c.15.07.28,0,.27-.13a.49.49,0,0,0-.28-.39c-.16-.06-.28,0-.28.14A.48.48,0,0,0,39.17,24.37Z" transform="translate(-11.27 -8.63)"/><path class="cls-1" d="M39.2,25.71c.15.07.28,0,.27-.13a.49.49,0,0,0-.28-.38c-.16-.07-.28,0-.28.13A.48.48,0,0,0,39.2,25.71Z" transform="translate(-11.27 -8.63)"/><path class="cls-1" d="M39.23,27.06c.15.06.28,0,.28-.14a.52.52,0,0,0-.29-.38c-.16-.07-.28,0-.28.13A.48.48,0,0,0,39.23,27.06Z" transform="translate(-11.27 -8.63)"/><path class="cls-1" d="M39.26,28.4c.16.07.28,0,.28-.13a.51.51,0,0,0-.29-.38c-.16-.07-.28,0-.28.13A.48.48,0,0,0,39.26,28.4Z" transform="translate(-11.27 -8.63)"/><path class="cls-1" d="M39.29,29.74c.16.07.28,0,.28-.13a.52.52,0,0,0-.29-.38c-.16-.07-.28,0-.28.13A.5.5,0,0,0,39.29,29.74Z" transform="translate(-11.27 -8.63)"/><path class="cls-1" d="M37.6,19.69c.15.07.28,0,.27-.14a.49.49,0,0,0-.28-.38c-.16-.07-.28,0-.28.14A.48.48,0,0,0,37.6,19.69Z" transform="translate(-11.27 -8.63)"/><path class="cls-1" d="M37.63,21c.15.07.28,0,.28-.13a.52.52,0,0,0-.29-.38c-.16-.07-.28,0-.28.13A.48.48,0,0,0,37.63,21Z" transform="translate(-11.27 -8.63)"/><path class="cls-1" d="M37.66,22.37c.16.07.28,0,.28-.13a.52.52,0,0,0-.29-.38c-.16-.07-.28,0-.28.13A.47.47,0,0,0,37.66,22.37Z" transform="translate(-11.27 -8.63)"/><path class="cls-1" d="M37.69,23.72c.16.07.28,0,.28-.13a.52.52,0,0,0-.29-.39c-.16-.06-.28,0-.28.14A.5.5,0,0,0,37.69,23.72Z" transform="translate(-11.27 -8.63)"/><path class="cls-1" d="M37.72,25.06c.16.07.28,0,.28-.13a.5.5,0,0,0-.29-.38c-.16-.07-.28,0-.28.13A.52.52,0,0,0,37.72,25.06Z" transform="translate(-11.27 -8.63)"/><path class="cls-1" d="M37.75,26.41c.16.06.28,0,.28-.14a.48.48,0,0,0-.29-.38c-.16-.07-.28,0-.28.13A.52.52,0,0,0,37.75,26.41Z" transform="translate(-11.27 -8.63)"/><path class="cls-1" d="M37.78,27.75c.16.07.28,0,.28-.13a.45.45,0,0,0-.29-.38c-.16-.07-.28,0-.28.13A.52.52,0,0,0,37.78,27.75Z" transform="translate(-11.27 -8.63)"/><path class="cls-1" d="M37.81,29.09c.16.07.28,0,.28-.13a.48.48,0,0,0-.29-.38c-.15-.07-.28,0-.27.13A.49.49,0,0,0,37.81,29.09Z" transform="translate(-11.27 -8.63)"/><path class="cls-1" d="M36.47,29.69c.15.07.28,0,.27-.13a.47.47,0,0,0-.29-.38c-.15-.07-.28,0-.27.13A.48.48,0,0,0,36.47,29.69Z" transform="translate(-11.27 -8.63)"/><path class="cls-1" d="M36.5,31c.15.07.28,0,.27-.13a.48.48,0,0,0-.29-.38c-.15-.07-.28,0-.27.13A.48.48,0,0,0,36.5,31Z" transform="translate(-11.27 -8.63)"/><path class="cls-1" d="M36.53,32.38c.15.07.28,0,.27-.14a.49.49,0,0,0-.28-.38c-.16-.07-.28,0-.28.14A.48.48,0,0,0,36.53,32.38Z" transform="translate(-11.27 -8.63)"/><path class="cls-1" d="M36.56,33.72c.15.07.28,0,.27-.13a.49.49,0,0,0-.28-.38c-.16-.07-.28,0-.28.13A.48.48,0,0,0,36.56,33.72Z" transform="translate(-11.27 -8.63)"/><path class="cls-1" d="M36.59,35.06c.15.07.28,0,.28-.13a.52.52,0,0,0-.29-.38c-.16-.07-.28,0-.28.13A.47.47,0,0,0,36.59,35.06Z" transform="translate(-11.27 -8.63)"/><path class="cls-1" d="M36.62,36.41c.16.07.28,0,.28-.13a.52.52,0,0,0-.29-.39c-.16-.06-.28,0-.28.14A.48.48,0,0,0,36.62,36.41Z" transform="translate(-11.27 -8.63)"/><path class="cls-1" d="M36.65,37.75c.16.07.28,0,.28-.13a.52.52,0,0,0-.29-.38c-.16-.07-.28,0-.28.13A.5.5,0,0,0,36.65,37.75Z" transform="translate(-11.27 -8.63)"/><path class="cls-1" d="M36.68,39.1c.16.06.28,0,.28-.14a.5.5,0,0,0-.29-.38c-.16-.07-.28,0-.28.13A.5.5,0,0,0,36.68,39.1Z" transform="translate(-11.27 -8.63)"/><path class="cls-1" d="M36.71,40.44c.16.07.28,0,.28-.13a.45.45,0,0,0-.29-.38c-.16-.07-.28,0-.28.13A.52.52,0,0,0,36.71,40.44Z" transform="translate(-11.27 -8.63)"/><path class="cls-1" d="M36.74,41.78c.16.07.28,0,.28-.13a.48.48,0,0,0-.29-.38c-.16-.07-.28,0-.28.13A.52.52,0,0,0,36.74,41.78Z" transform="translate(-11.27 -8.63)"/><path class="cls-1" d="M36.77,43.13c.16.07.28,0,.28-.14a.48.48,0,0,0-.29-.38c-.15-.07-.28,0-.27.14A.49.49,0,0,0,36.77,43.13Z" transform="translate(-11.27 -8.63)"/><path class="cls-1" d="M36.8,44.47c.16.07.28,0,.28-.13a.47.47,0,0,0-.29-.38c-.15-.07-.28,0-.27.13A.49.49,0,0,0,36.8,44.47Z" transform="translate(-11.27 -8.63)"/><path class="cls-1" d="M36.84,45.81c.15.07.27,0,.27-.13a.48.48,0,0,0-.29-.38c-.15-.07-.28,0-.27.13A.47.47,0,0,0,36.84,45.81Z" transform="translate(-11.27 -8.63)"/><path class="cls-1" d="M36.87,47.16c.15.07.28,0,.27-.14a.48.48,0,0,0-.29-.38c-.15-.07-.28,0-.27.14A.48.48,0,0,0,36.87,47.16Z" transform="translate(-11.27 -8.63)"/><path class="cls-1" d="M34.7,28.66A.48.48,0,0,0,35,29c.15.07.28,0,.27-.13a.49.49,0,0,0-.28-.39C34.82,28.46,34.7,28.51,34.7,28.66Z" transform="translate(-11.27 -8.63)"/><path class="cls-1" d="M35,30.38c.16.07.28,0,.28-.13a.52.52,0,0,0-.29-.38c-.16-.07-.28,0-.28.13A.48.48,0,0,0,35,30.38Z" transform="translate(-11.27 -8.63)"/><path class="cls-1" d="M35.05,31.73c.16.07.28,0,.28-.14a.52.52,0,0,0-.29-.38c-.16-.07-.28,0-.28.14A.48.48,0,0,0,35.05,31.73Z" transform="translate(-11.27 -8.63)"/><path class="cls-1" d="M35.08,33.07c.16.07.28,0,.28-.13a.5.5,0,0,0-.29-.38c-.16-.07-.28,0-.28.13A.5.5,0,0,0,35.08,33.07Z" transform="translate(-11.27 -8.63)"/><path class="cls-1" d="M35.11,34.41c.16.07.28,0,.28-.13a.5.5,0,0,0-.29-.38c-.16-.07-.28,0-.28.13A.51.51,0,0,0,35.11,34.41Z" transform="translate(-11.27 -8.63)"/><path class="cls-1" d="M35.14,35.76c.16.07.28,0,.28-.13a.48.48,0,0,0-.29-.39c-.16-.07-.28,0-.28.14A.52.52,0,0,0,35.14,35.76Z" transform="translate(-11.27 -8.63)"/><path class="cls-1" d="M35.17,37.1c.16.07.28,0,.28-.13a.48.48,0,0,0-.29-.38c-.15-.07-.28,0-.28.13A.52.52,0,0,0,35.17,37.1Z" transform="translate(-11.27 -8.63)"/><path class="cls-1" d="M35.2,38.44c.16.07.28,0,.28-.13a.48.48,0,0,0-.29-.38c-.15-.07-.28,0-.27.13A.46.46,0,0,0,35.2,38.44Z" transform="translate(-11.27 -8.63)"/><path class="cls-1" d="M35.23,39.79c.16.07.28,0,.28-.13a.48.48,0,0,0-.29-.39c-.15-.06-.28,0-.27.14A.49.49,0,0,0,35.23,39.79Z" transform="translate(-11.27 -8.63)"/><path class="cls-1" d="M35.27,41.13c.15.07.28,0,.27-.13a.48.48,0,0,0-.29-.38c-.15-.07-.28,0-.27.13A.48.48,0,0,0,35.27,41.13Z" transform="translate(-11.27 -8.63)"/><path class="cls-1" d="M35.3,42.48c.15.06.28,0,.27-.14a.48.48,0,0,0-.29-.38c-.15-.07-.28,0-.27.13A.48.48,0,0,0,35.3,42.48Z" transform="translate(-11.27 -8.63)"/><path class="cls-1" d="M35.33,43.82c.15.07.28,0,.27-.13a.46.46,0,0,0-.28-.38c-.16-.07-.28,0-.28.13A.48.48,0,0,0,35.33,43.82Z" transform="translate(-11.27 -8.63)"/><path class="cls-1" d="M33.22,28a.5.5,0,0,0,.29.38c.16.07.28,0,.28-.13a.5.5,0,0,0-.29-.39C33.34,27.8,33.22,27.86,33.22,28Z" transform="translate(-11.27 -8.63)"/><path class="cls-1" d="M33.54,29.73c.16.07.28,0,.28-.13a.48.48,0,0,0-.29-.38c-.16-.07-.28,0-.28.13A.52.52,0,0,0,33.54,29.73Z" transform="translate(-11.27 -8.63)"/><path class="cls-1" d="M33.57,31.08c.16.06.28,0,.28-.14a.48.48,0,0,0-.29-.38c-.15-.07-.28,0-.28.13A.52.52,0,0,0,33.57,31.08Z" transform="translate(-11.27 -8.63)"/><path class="cls-1" d="M33.6,32.42c.16.07.28,0,.28-.13a.47.47,0,0,0-.29-.38c-.15-.07-.28,0-.27.13A.49.49,0,0,0,33.6,32.42Z" transform="translate(-11.27 -8.63)"/><path class="cls-1" d="M33.63,33.76c.16.07.28,0,.28-.13a.48.48,0,0,0-.29-.38c-.15-.07-.28,0-.27.13A.49.49,0,0,0,33.63,33.76Z" transform="translate(-11.27 -8.63)"/><path class="cls-1" d="M33.67,35.11c.15.07.28,0,.27-.14a.48.48,0,0,0-.29-.38c-.15-.07-.28,0-.27.14A.48.48,0,0,0,33.67,35.11Z" transform="translate(-11.27 -8.63)"/><path class="cls-1" d="M33.7,36.45c.15.07.28,0,.27-.13a.48.48,0,0,0-.29-.38c-.15-.07-.28,0-.27.13A.48.48,0,0,0,33.7,36.45Z" transform="translate(-11.27 -8.63)"/><path class="cls-1" d="M33.73,37.79c.15.07.28,0,.27-.13a.49.49,0,0,0-.28-.38c-.16-.07-.28,0-.28.13A.47.47,0,0,0,33.73,37.79Z" transform="translate(-11.27 -8.63)"/><path class="cls-1" d="M33.76,39.14c.15.07.28,0,.27-.13a.49.49,0,0,0-.28-.39c-.16-.06-.28,0-.28.14A.48.48,0,0,0,33.76,39.14Z" transform="translate(-11.27 -8.63)"/><path class="cls-1" d="M33.79,40.48c.15.07.28,0,.28-.13a.52.52,0,0,0-.29-.38c-.16-.07-.28,0-.28.13A.48.48,0,0,0,33.79,40.48Z" transform="translate(-11.27 -8.63)"/><path class="cls-1" d="M31.75,27.36a.49.49,0,0,0,.28.38c.16.07.28,0,.28-.14a.48.48,0,0,0-.29-.38C31.87,27.15,31.74,27.21,31.75,27.36Z" transform="translate(-11.27 -8.63)"/><path class="cls-1" d="M32.07,29.08c.15.07.27,0,.27-.13a.48.48,0,0,0-.29-.38c-.15-.07-.28,0-.27.13A.48.48,0,0,0,32.07,29.08Z" transform="translate(-11.27 -8.63)"/><path class="cls-1" d="M32.1,30.43c.15.06.28,0,.27-.14a.48.48,0,0,0-.29-.38c-.15-.07-.28,0-.27.13A.48.48,0,0,0,32.1,30.43Z" transform="translate(-11.27 -8.63)"/><path class="cls-1" d="M32.13,31.77c.15.07.28,0,.27-.13a.45.45,0,0,0-.29-.38c-.15-.07-.27,0-.27.13A.48.48,0,0,0,32.13,31.77Z" transform="translate(-11.27 -8.63)"/><path class="cls-1" d="M32.16,33.11c.15.07.28,0,.27-.13a.49.49,0,0,0-.28-.38c-.16-.07-.28,0-.28.13A.48.48,0,0,0,32.16,33.11Z" transform="translate(-11.27 -8.63)"/><path class="cls-1" d="M32.19,34.46c.15.07.28,0,.28-.14a.52.52,0,0,0-.29-.38c-.16-.07-.28,0-.28.14A.48.48,0,0,0,32.19,34.46Z" transform="translate(-11.27 -8.63)"/><path class="cls-1" d="M31.93,35.42a.48.48,0,0,0,.29.38c.16.07.28,0,.28-.13a.51.51,0,0,0-.29-.38c-.16-.07-.28,0-.28.13Z" transform="translate(-11.27 -8.63)"/><path class="cls-1" d="M30.27,26.7a.48.48,0,0,0,.29.39c.15.07.28,0,.27-.14a.49.49,0,0,0-.28-.38C30.39,26.5,30.27,26.56,30.27,26.7Z" transform="translate(-11.27 -8.63)"/><path class="cls-1" d="M30.59,28.43c.15.07.28,0,.27-.13a.49.49,0,0,0-.28-.38c-.16-.07-.28,0-.28.13A.48.48,0,0,0,30.59,28.43Z" transform="translate(-11.27 -8.63)"/><path class="cls-1" d="M30.62,29.77c.15.07.28,0,.28-.13a.52.52,0,0,0-.29-.38c-.16-.07-.28,0-.28.13A.45.45,0,0,0,30.62,29.77Z" transform="translate(-11.27 -8.63)"/><path class="cls-1" d="M30.65,31.12c.16.07.28,0,.28-.13a.52.52,0,0,0-.29-.39c-.16-.06-.28,0-.28.14A.48.48,0,0,0,30.65,31.12Z" transform="translate(-11.27 -8.63)"/><path class="cls-1" d="M30.68,32.46c.16.07.28,0,.28-.13a.52.52,0,0,0-.29-.38c-.16-.07-.28,0-.28.13A.5.5,0,0,0,30.68,32.46Z" transform="translate(-11.27 -8.63)"/><path class="cls-1" d="M28.78,26.05a.48.48,0,0,0,.29.38c.15.07.28,0,.27-.13a.48.48,0,0,0-.29-.38C28.9,25.85,28.77,25.91,28.78,26.05Z" transform="translate(-11.27 -8.63)"/><path class="cls-1" d="M29.1,27.78c.15.06.28,0,.27-.14a.49.49,0,0,0-.28-.38c-.16-.07-.28,0-.28.13A.48.48,0,0,0,29.1,27.78Z" transform="translate(-11.27 -8.63)"/><path class="cls-1" d="M29.13,29.12c.15.07.28,0,.27-.13a.46.46,0,0,0-.28-.38c-.16-.07-.28,0-.28.13A.48.48,0,0,0,29.13,29.12Z" transform="translate(-11.27 -8.63)"/><path class="cls-1" d="M27.3,25.4a.48.48,0,0,0,.29.38c.15.07.28,0,.28-.13a.52.52,0,0,0-.29-.38C27.42,25.2,27.3,25.26,27.3,25.4Z" transform="translate(-11.27 -8.63)"/><path class="cls-1" d="M42,32a.48.48,0,0,0,.29.39c.15.06.28,0,.27-.14a.49.49,0,0,0-.28-.38C42.12,31.8,42,31.86,42,32Z" transform="translate(-11.27 -8.63)"/><path class="cls-1" d="M42.32,33.73c.15.07.28,0,.27-.13a.49.49,0,0,0-.28-.38c-.16-.07-.28,0-.28.13A.48.48,0,0,0,42.32,33.73Z" transform="translate(-11.27 -8.63)"/><path class="cls-1" d="M42.35,35.07c.15.07.28,0,.28-.13a.52.52,0,0,0-.29-.38c-.16-.07-.28,0-.28.13A.47.47,0,0,0,42.35,35.07Z" transform="translate(-11.27 -8.63)"/><path class="cls-1" d="M42.38,36.42c.16.07.28,0,.28-.13a.52.52,0,0,0-.29-.39c-.16-.06-.28,0-.28.14A.48.48,0,0,0,42.38,36.42Z" transform="translate(-11.27 -8.63)"/><path class="cls-1" d="M42.41,37.76c.16.07.28,0,.28-.13a.52.52,0,0,0-.29-.38c-.16-.07-.28,0-.28.13A.5.5,0,0,0,42.41,37.76Z" transform="translate(-11.27 -8.63)"/><path class="cls-1" d="M42.44,39.1c.16.07.28,0,.28-.13a.5.5,0,0,0-.29-.38c-.16-.07-.28,0-.28.13A.49.49,0,0,0,42.44,39.1Z" transform="translate(-11.27 -8.63)"/><path class="cls-1" d="M42.47,40.45c.16.07.28,0,.28-.13a.48.48,0,0,0-.29-.39c-.16-.06-.28,0-.28.14A.52.52,0,0,0,42.47,40.45Z" transform="translate(-11.27 -8.63)"/><path class="cls-1" d="M42.5,41.79c.16.07.28,0,.28-.13a.48.48,0,0,0-.29-.38c-.16-.07-.28,0-.28.13A.52.52,0,0,0,42.5,41.79Z" transform="translate(-11.27 -8.63)"/><path class="cls-1" d="M42.53,43.14c.16.06.28,0,.28-.14a.48.48,0,0,0-.29-.38c-.15-.07-.28,0-.27.13A.49.49,0,0,0,42.53,43.14Z" transform="translate(-11.27 -8.63)"/><path class="cls-1" d="M42.56,44.48c.16.07.28,0,.28-.13a.47.47,0,0,0-.29-.38c-.15-.07-.28,0-.27.13A.49.49,0,0,0,42.56,44.48Z" transform="translate(-11.27 -8.63)"/><path class="cls-1" d="M42.6,45.82c.15.07.28,0,.27-.13a.48.48,0,0,0-.29-.38c-.15-.07-.28,0-.27.13A.48.48,0,0,0,42.6,45.82Z" transform="translate(-11.27 -8.63)"/><path class="cls-1" d="M42.63,47.17c.15.07.28,0,.27-.14a.48.48,0,0,0-.29-.38c-.15-.07-.28,0-.27.14A.48.48,0,0,0,42.63,47.17Z" transform="translate(-11.27 -8.63)"/><path class="cls-1" d="M42.66,48.51c.15.07.28,0,.27-.13a.49.49,0,0,0-.28-.38c-.16-.07-.28,0-.28.13A.48.48,0,0,0,42.66,48.51Z" transform="translate(-11.27 -8.63)"/><path class="cls-1" d="M42.69,49.85c.15.07.28,0,.27-.13a.49.49,0,0,0-.28-.38c-.16-.07-.28,0-.28.13A.47.47,0,0,0,42.69,49.85Z" transform="translate(-11.27 -8.63)"/><path class="cls-1" d="M42.72,51.2c.15.07.28,0,.28-.13a.52.52,0,0,0-.29-.39c-.16-.06-.28,0-.28.14A.48.48,0,0,0,42.72,51.2Z" transform="translate(-11.27 -8.63)"/><path class="cls-1" d="M42.75,52.54c.16.07.28,0,.28-.13a.52.52,0,0,0-.29-.38c-.16-.07-.28,0-.28.13A.48.48,0,0,0,42.75,52.54Z" transform="translate(-11.27 -8.63)"/><path class="cls-1" d="M42.78,53.89c.16.06.28,0,.28-.14a.52.52,0,0,0-.29-.38c-.16-.07-.28,0-.28.13A.5.5,0,0,0,42.78,53.89Z" transform="translate(-11.27 -8.63)"/><path class="cls-1" d="M40.52,31.35a.47.47,0,0,0,.29.38c.16.07.28,0,.28-.13a.52.52,0,0,0-.29-.38C40.64,31.15,40.52,31.21,40.52,31.35Z" transform="translate(-11.27 -8.63)"/><path class="cls-1" d="M40.84,33.08c.16.07.28,0,.28-.13a.48.48,0,0,0-.29-.38c-.16-.07-.28,0-.28.13A.5.5,0,0,0,40.84,33.08Z" transform="translate(-11.27 -8.63)"/><path class="cls-1" d="M40.87,34.42c.16.07.28,0,.28-.13a.5.5,0,0,0-.29-.38c-.16-.07-.28,0-.28.13A.52.52,0,0,0,40.87,34.42Z" transform="translate(-11.27 -8.63)"/><path class="cls-1" d="M40.9,35.77c.16.07.28,0,.28-.14a.48.48,0,0,0-.29-.38c-.16-.07-.28,0-.28.14A.52.52,0,0,0,40.9,35.77Z" transform="translate(-11.27 -8.63)"/><path class="cls-1" d="M40.93,37.11c.16.07.28,0,.28-.13a.48.48,0,0,0-.29-.38c-.15-.07-.28,0-.28.13A.52.52,0,0,0,40.93,37.11Z" transform="translate(-11.27 -8.63)"/><path class="cls-1" d="M41,38.45c.16.07.28,0,.28-.13a.48.48,0,0,0-.29-.38c-.15-.07-.28,0-.27.13A.47.47,0,0,0,41,38.45Z" transform="translate(-11.27 -8.63)"/><path class="cls-1" d="M41,39.8c.16.07.28,0,.28-.13a.48.48,0,0,0-.29-.39c-.15-.06-.28,0-.27.14A.49.49,0,0,0,41,39.8Z" transform="translate(-11.27 -8.63)"/><path class="cls-1" d="M41,41.14c.15.07.28,0,.27-.13a.48.48,0,0,0-.29-.38c-.15-.07-.28,0-.27.13A.48.48,0,0,0,41,41.14Z" transform="translate(-11.27 -8.63)"/><path class="cls-1" d="M41.06,42.49c.15.06.28,0,.27-.14A.48.48,0,0,0,41,42c-.15-.07-.27,0-.27.13A.48.48,0,0,0,41.06,42.49Z" transform="translate(-11.27 -8.63)"/><path class="cls-1" d="M41.09,43.83c.15.07.28,0,.27-.13a.46.46,0,0,0-.28-.38c-.16-.07-.28,0-.28.13A.48.48,0,0,0,41.09,43.83Z" transform="translate(-11.27 -8.63)"/><path class="cls-1" d="M41.12,45.17c.15.07.28,0,.27-.13a.49.49,0,0,0-.28-.38c-.16-.07-.28,0-.28.13A.48.48,0,0,0,41.12,45.17Z" transform="translate(-11.27 -8.63)"/><path class="cls-1" d="M41.15,46.52c.16.07.28,0,.28-.14a.52.52,0,0,0-.29-.38c-.16-.07-.28,0-.28.13A.48.48,0,0,0,41.15,46.52Z" transform="translate(-11.27 -8.63)"/><path class="cls-1" d="M41.18,47.86c.16.07.28,0,.28-.13a.51.51,0,0,0-.29-.38c-.16-.07-.28,0-.28.13A.48.48,0,0,0,41.18,47.86Z" transform="translate(-11.27 -8.63)"/><path class="cls-1" d="M41.21,49.2c.16.07.28,0,.28-.13a.52.52,0,0,0-.29-.38c-.16-.07-.28,0-.28.13A.5.5,0,0,0,41.21,49.2Z" transform="translate(-11.27 -8.63)"/><path class="cls-1" d="M41.24,50.55c.16.07.28,0,.28-.14a.5.5,0,0,0-.29-.38c-.16-.07-.28,0-.28.14A.52.52,0,0,0,41.24,50.55Z" transform="translate(-11.27 -8.63)"/><path class="cls-1" d="M41.27,51.89c.16.07.28,0,.28-.13a.48.48,0,0,0-.29-.38c-.16-.07-.28,0-.28.13A.52.52,0,0,0,41.27,51.89Z" transform="translate(-11.27 -8.63)"/><path class="cls-1" d="M41.3,53.23c.16.07.28,0,.28-.13a.48.48,0,0,0-.29-.38c-.15-.07-.28,0-.28.13A.49.49,0,0,0,41.3,53.23Z" transform="translate(-11.27 -8.63)"/><path class="cls-1" d="M39,30.7a.51.51,0,0,0,.29.38c.16.07.28,0,.28-.13a.48.48,0,0,0-.29-.38C39.17,30.5,39,30.56,39,30.7Z" transform="translate(-11.27 -8.63)"/><path class="cls-1" d="M39.36,32.43c.16.07.28,0,.28-.13a.45.45,0,0,0-.29-.38c-.15-.07-.28,0-.27.13A.49.49,0,0,0,39.36,32.43Z" transform="translate(-11.27 -8.63)"/><path class="cls-1" d="M39.39,33.77c.16.07.28,0,.28-.13a.48.48,0,0,0-.29-.38c-.15-.07-.28,0-.27.13A.49.49,0,0,0,39.39,33.77Z" transform="translate(-11.27 -8.63)"/><path class="cls-1" d="M39.43,35.12c.15.07.28,0,.27-.14a.48.48,0,0,0-.29-.38c-.15-.07-.28,0-.27.14A.48.48,0,0,0,39.43,35.12Z" transform="translate(-11.27 -8.63)"/><path class="cls-1" d="M39.46,36.46c.15.07.28,0,.27-.13a.47.47,0,0,0-.29-.38c-.15-.07-.28,0-.27.13A.48.48,0,0,0,39.46,36.46Z" transform="translate(-11.27 -8.63)"/><path class="cls-1" d="M39.49,37.8c.15.07.28,0,.27-.13a.49.49,0,0,0-.28-.38c-.16-.07-.28,0-.28.13A.47.47,0,0,0,39.49,37.8Z" transform="translate(-11.27 -8.63)"/><path class="cls-1" d="M39.52,39.15c.15.07.28,0,.27-.14a.49.49,0,0,0-.28-.38c-.16-.07-.28,0-.28.14A.48.48,0,0,0,39.52,39.15Z" transform="translate(-11.27 -8.63)"/><path class="cls-1" d="M39.55,40.49c.15.07.28,0,.28-.13a.52.52,0,0,0-.29-.38c-.16-.07-.28,0-.28.13A.48.48,0,0,0,39.55,40.49Z" transform="translate(-11.27 -8.63)"/><path class="cls-1" d="M39.58,41.83c.16.07.28,0,.28-.13a.52.52,0,0,0-.29-.38c-.16-.07-.28,0-.28.13A.45.45,0,0,0,39.58,41.83Z" transform="translate(-11.27 -8.63)"/><path class="cls-1" d="M39.61,43.18c.16.07.28,0,.28-.13a.52.52,0,0,0-.29-.39c-.16-.06-.28,0-.28.14A.5.5,0,0,0,39.61,43.18Z" transform="translate(-11.27 -8.63)"/><path class="cls-1" d="M39.64,44.52c.16.07.28,0,.28-.13a.5.5,0,0,0-.29-.38c-.16-.07-.28,0-.28.13A.52.52,0,0,0,39.64,44.52Z" transform="translate(-11.27 -8.63)"/><path class="cls-1" d="M39.67,45.87c.16.06.28,0,.28-.14a.48.48,0,0,0-.29-.38c-.16-.07-.28,0-.28.13A.52.52,0,0,0,39.67,45.87Z" transform="translate(-11.27 -8.63)"/><path class="cls-1" d="M39.7,47.21c.16.07.28,0,.28-.13a.45.45,0,0,0-.29-.38c-.15-.07-.28,0-.28.13A.52.52,0,0,0,39.7,47.21Z" transform="translate(-11.27 -8.63)"/><path class="cls-1" d="M39.73,48.55c.16.07.28,0,.28-.13a.48.48,0,0,0-.29-.38c-.15-.07-.28,0-.27.13A.49.49,0,0,0,39.73,48.55Z" transform="translate(-11.27 -8.63)"/><path class="cls-1" d="M39.76,49.9c.16.07.28,0,.28-.14a.48.48,0,0,0-.29-.38c-.15-.07-.28,0-.27.14A.49.49,0,0,0,39.76,49.9Z" transform="translate(-11.27 -8.63)"/><path class="cls-1" d="M39.8,51.24c.15.07.28,0,.27-.13a.48.48,0,0,0-.29-.38c-.15-.07-.28,0-.27.13A.48.48,0,0,0,39.8,51.24Z" transform="translate(-11.27 -8.63)"/><path class="cls-1" d="M39.83,52.58c.15.07.28,0,.27-.13a.48.48,0,0,0-.29-.38c-.15-.07-.28,0-.27.13A.47.47,0,0,0,39.83,52.58Z" transform="translate(-11.27 -8.63)"/><path class="cls-1" d="M37.57,30.05a.48.48,0,0,0,.29.38c.15.07.28,0,.27-.13a.48.48,0,0,0-.29-.38C37.69,29.85,37.56,29.91,37.57,30.05Z" transform="translate(-11.27 -8.63)"/><path class="cls-1" d="M37.89,31.78c.15.07.28,0,.27-.13a.49.49,0,0,0-.28-.39c-.16-.06-.28,0-.28.14A.48.48,0,0,0,37.89,31.78Z" transform="translate(-11.27 -8.63)"/><path class="cls-1" d="M37.92,33.12c.15.07.28,0,.27-.13a.49.49,0,0,0-.28-.38c-.16-.07-.28,0-.28.13A.48.48,0,0,0,37.92,33.12Z" transform="translate(-11.27 -8.63)"/><path class="cls-1" d="M38,34.47c.15.06.28,0,.28-.14a.52.52,0,0,0-.29-.38c-.16-.07-.28,0-.28.13A.48.48,0,0,0,38,34.47Z" transform="translate(-11.27 -8.63)"/><path class="cls-1" d="M38,35.81c.16.07.28,0,.28-.13A.51.51,0,0,0,38,35.3c-.16-.07-.28,0-.28.13A.48.48,0,0,0,38,35.81Z" transform="translate(-11.27 -8.63)"/><path class="cls-1" d="M38,37.15c.16.07.28,0,.28-.13a.52.52,0,0,0-.29-.38c-.16-.07-.28,0-.28.13A.5.5,0,0,0,38,37.15Z" transform="translate(-11.27 -8.63)"/><path class="cls-1" d="M38,38.5c.16.07.28,0,.28-.14A.5.5,0,0,0,38,38c-.16-.07-.28,0-.28.14A.52.52,0,0,0,38,38.5Z" transform="translate(-11.27 -8.63)"/><path class="cls-1" d="M38.07,39.84c.16.07.28,0,.28-.13a.48.48,0,0,0-.29-.38c-.16-.07-.28,0-.28.13A.52.52,0,0,0,38.07,39.84Z" transform="translate(-11.27 -8.63)"/><path class="cls-1" d="M38.1,41.18c.16.07.28,0,.28-.13a.48.48,0,0,0-.29-.38c-.16-.07-.28,0-.28.13A.51.51,0,0,0,38.1,41.18Z" transform="translate(-11.27 -8.63)"/><path class="cls-1" d="M38.13,42.53c.16.07.28,0,.28-.13a.48.48,0,0,0-.29-.39c-.15-.06-.28,0-.27.14A.49.49,0,0,0,38.13,42.53Z" transform="translate(-11.27 -8.63)"/><path class="cls-1" d="M38.16,43.87c.16.07.28,0,.28-.13a.48.48,0,0,0-.29-.38c-.15-.07-.28,0-.27.13A.49.49,0,0,0,38.16,43.87Z" transform="translate(-11.27 -8.63)"/><path class="cls-1" d="M38.2,45.22c.15.06.28,0,.27-.14a.48.48,0,0,0-.29-.38c-.15-.07-.28,0-.27.13A.48.48,0,0,0,38.2,45.22Z" transform="translate(-11.27 -8.63)"/><path class="cls-1" d="M38.23,46.56c.15.07.28,0,.27-.13a.48.48,0,0,0-.29-.39c-.15-.06-.28,0-.27.14A.48.48,0,0,0,38.23,46.56Z" transform="translate(-11.27 -8.63)"/><path class="cls-1" d="M38.26,47.9c.15.07.28,0,.27-.13a.48.48,0,0,0-.29-.38c-.15-.07-.27,0-.27.13A.48.48,0,0,0,38.26,47.9Z" transform="translate(-11.27 -8.63)"/><path class="cls-1" d="M38.29,49.25c.15.06.28,0,.27-.14a.49.49,0,0,0-.28-.38c-.16-.07-.28,0-.28.13A.48.48,0,0,0,38.29,49.25Z" transform="translate(-11.27 -8.63)"/><path class="cls-1" d="M38.32,50.59c.15.07.28,0,.27-.13a.47.47,0,0,0-.28-.38c-.16-.07-.28,0-.28.13A.48.48,0,0,0,38.32,50.59Z" transform="translate(-11.27 -8.63)"/><path class="cls-1" d="M42.53,54.85a.52.52,0,0,0,.29.38c.16.07.28,0,.28-.13a.48.48,0,0,0-.29-.38C42.66,54.65,42.53,54.71,42.53,54.85Z" transform="translate(-11.27 -8.63)"/><path class="cls-1" d="M42.85,56.58c.16.07.28,0,.28-.13a.48.48,0,0,0-.29-.39c-.15-.07-.28,0-.27.14A.49.49,0,0,0,42.85,56.58Z" transform="translate(-11.27 -8.63)"/><path class="cls-1" d="M42.88,57.92c.16.07.28,0,.28-.13a.48.48,0,0,0-.29-.38c-.15-.07-.28,0-.27.13A.49.49,0,0,0,42.88,57.92Z" transform="translate(-11.27 -8.63)"/><path class="cls-1" d="M42.92,59.26c.15.07.28,0,.27-.13a.48.48,0,0,0-.29-.38c-.15-.07-.28,0-.27.13A.45.45,0,0,0,42.92,59.26Z" transform="translate(-11.27 -8.63)"/><path class="cls-1" d="M41.06,54.2a.48.48,0,0,0,.29.38c.15.07.28,0,.27-.13a.48.48,0,0,0-.29-.38C41.18,54,41.05,54.06,41.06,54.2Z" transform="translate(-11.27 -8.63)"/><path class="cls-1" d="M41.38,55.93c.15.07.28,0,.27-.14a.49.49,0,0,0-.28-.38c-.16-.07-.28,0-.28.14A.48.48,0,0,0,41.38,55.93Z" transform="translate(-11.27 -8.63)"/><path class="cls-1" d="M41.41,57.27c.15.07.28,0,.27-.13a.49.49,0,0,0-.28-.38c-.16-.07-.28,0-.28.13A.48.48,0,0,0,41.41,57.27Z" transform="translate(-11.27 -8.63)"/><path class="cls-1" d="M41.44,58.61c.15.07.28,0,.28-.13a.52.52,0,0,0-.29-.38C41.27,58,41.28,58.55,41.44,58.61Z" transform="translate(-11.27 -8.63)"/><path class="cls-1" d="M39.58,53.55a.48.48,0,0,0,.29.38c.15.07.28,0,.28-.13a.52.52,0,0,0-.29-.38c-.16-.07-.28,0-.28.13Z" transform="translate(-11.27 -8.63)"/><path class="cls-2" d="M40.1,21.31,13.5,9.6c-.55-.25-1,0-1,.61l.84,36.41a1.81,1.81,0,0,0,1,1.49L41,59.83c.55.24,1,0,1-.61l-.84-36.41A1.84,1.84,0,0,0,40.1,21.31Z" transform="translate(-11.27 -8.63)"/><path class="cls-2" d="M39.9,22.28a2,2,0,0,0-.75-.61L12.55,10a1,1,0,0,0-.85,0,.81.81,0,0,0-.43.78l.84,36.41a2,2,0,0,0,1.13,1.64l26.6,11.71a1,1,0,0,0,.86,0,.78.78,0,0,0,.42-.78l-.83-36.41A1.88,1.88,0,0,0,39.9,22.28ZM39,22a1.69,1.69,0,0,1,.92,1.36l.84,36.41a.56.56,0,0,1-.23.51.58.58,0,0,1-.45,0L13.44,48.47a1.66,1.66,0,0,1-.92-1.35l-.84-36.41a.54.54,0,0,1,.23-.51.54.54,0,0,1,.45,0Z" transform="translate(-11.27 -8.63)"/><path class="cls-3" d="M39.39,54.52v.59h0c-1.68-.74-3-.1-3,1.42h0l-1-.45h0a1.81,1.81,0,0,0-1.08-1.43c-.46-.21-.85-.1-1,.21h0a2,2,0,0,0-1-1.09c-.47-.21-.85-.11-1,.21h0a2,2,0,0,0-1-1.1c-.46-.2-.85-.1-1,.22h0a1.94,1.94,0,0,0-1-1.1c-.47-.2-.85-.1-1,.22h0a2,2,0,0,0-1-1.09c-.47-.21-.85-.1-1,.21h0a1.94,1.94,0,0,0-1-1.09c-.46-.21-.85-.11-1,.21h0a2,2,0,0,0-1-1.1c-.47-.2-.85-.1-1,.22h0a2,2,0,0,0-1-1.09c-.59-.26-1.05,0-1,.49h0l-.95-.42a5.43,5.43,0,0,0-3.2-4.24l0-.84h0c.59.25,1.05,0,1-.5a1.75,1.75,0,0,0-.76-1.24h0a.56.56,0,0,0,.72-.59,1.81,1.81,0,0,0-.83-1.29h0c.46.1.79-.13.78-.58A1.75,1.75,0,0,0,15.24,38h0a.56.56,0,0,0,.72-.59,1.74,1.74,0,0,0-.83-1.28h0c.46.1.8-.13.79-.58a1.75,1.75,0,0,0-.76-1.24h0a.56.56,0,0,0,.72-.58,1.77,1.77,0,0,0-.83-1.29h0c.46.1.79-.13.78-.58a1.75,1.75,0,0,0-.76-1.24h0a.56.56,0,0,0,.72-.59A1.76,1.76,0,0,0,15,28.72h0c.46.1.8-.12.79-.58A1.75,1.75,0,0,0,15,26.89h0a.57.57,0,0,0,.72-.59A1.81,1.81,0,0,0,14.88,25h0c.46.1.79-.12.78-.57a1.77,1.77,0,0,0-.76-1.25h0a.56.56,0,0,0,.72-.59,1.78,1.78,0,0,0-.83-1.29h0c.46.1.8-.13.79-.58a1.75,1.75,0,0,0-.76-1.24h0a.56.56,0,0,0,.72-.59,1.81,1.81,0,0,0-.83-1.29h0c.46.1.79-.13.78-.58a1.82,1.82,0,0,0-1.08-1.43h0l0-.89c1.7.75,3.06.11,3-1.44l1,.44h0a1.83,1.83,0,0,0,1.08,1.43c.47.21.85.1,1-.21h0a2,2,0,0,0,1,1.09c.47.21.85.11,1-.21h0a2,2,0,0,0,1,1.1c.46.2.85.1,1-.22h0a2,2,0,0,0,1,1.1c.47.2.85.1,1-.22h0a1.94,1.94,0,0,0,1,1.09c.46.21.85.1,1-.21h0a1.92,1.92,0,0,0,1,1.09c.46.21.85.11,1-.21h0a2,2,0,0,0,1,1.1c.47.2.85.1,1-.22h0a2,2,0,0,0,1,1.1c.58.26,1,0,1-.49h0l1,.43a5.43,5.43,0,0,0,3.19,4.22l0,1.18h0c-.58-.25-1,0-1,.5a1.78,1.78,0,0,0,.83,1.29h0c-.46-.1-.8.12-.79.57a1.75,1.75,0,0,0,.77,1.25h0a.56.56,0,0,0-.72.59,1.79,1.79,0,0,0,.82,1.29h0c-.46-.09-.79.13-.78.58a1.75,1.75,0,0,0,.76,1.24h0a.57.57,0,0,0-.72.59,1.78,1.78,0,0,0,.83,1.29h0c-.46-.1-.8.13-.79.58a1.76,1.76,0,0,0,.77,1.24h0a.56.56,0,0,0-.72.59,1.79,1.79,0,0,0,.82,1.29h0c-.46-.1-.79.13-.78.58a1.75,1.75,0,0,0,.76,1.24h0a.56.56,0,0,0-.72.59,1.74,1.74,0,0,0,.83,1.28h0c-.46-.1-.8.13-.79.58a1.76,1.76,0,0,0,.77,1.24h0a.55.55,0,0,0-.72.58A1.76,1.76,0,0,0,39,47h0c-.46-.1-.79.13-.78.58a1.75,1.75,0,0,0,.76,1.24h0a.57.57,0,0,0-.72.59,1.76,1.76,0,0,0,.83,1.29h0c-.46-.1-.8.12-.79.58A1.76,1.76,0,0,0,39,52.49h0a.56.56,0,0,0-.72.59,1.83,1.83,0,0,0,1.07,1.43Z" transform="translate(-11.27 -8.63)"/><path class="cls-1" d="M35,21.46l-1.17-.52-.21.09v.1a.4.4,0,0,1-.19.4.66.66,0,0,1-.54-.05,1.78,1.78,0,0,1-.92-1l0-.12h-.31l-.05.12a.34.34,0,0,1-.2.19.75.75,0,0,1-.49-.07,1.79,1.79,0,0,1-.91-1l0-.11-.31,0-.05.12a.29.29,0,0,1-.2.19.74.74,0,0,1-.49-.06,1.77,1.77,0,0,1-.92-1l0-.11-.3,0-.06.11a.3.3,0,0,1-.21.2.67.67,0,0,1-.48-.07,1.72,1.72,0,0,1-.92-1l0-.11-.31,0,0,.12a.31.31,0,0,1-.2.19.75.75,0,0,1-.49-.07A1.8,1.8,0,0,1,24,17l0-.11-.3,0-.06.12a.33.33,0,0,1-.2.2.75.75,0,0,1-.49-.07,1.81,1.81,0,0,1-.92-1L22,16h-.3l0,.11a.29.29,0,0,1-.21.19.71.71,0,0,1-.48-.06,1.77,1.77,0,0,1-.92-1l0-.11-.3,0,0,.11a.34.34,0,0,1-.21.2.69.69,0,0,1-.49-.07,1.68,1.68,0,0,1-1-1.28v-.1l-1.42-.63v.28A1.47,1.47,0,0,1,15.75,15a2.41,2.41,0,0,1-2-.14l-.31-.14,0,1.27.11,0a1.68,1.68,0,0,1,1,1.29.4.4,0,0,1-.16.38.54.54,0,0,1-.37,0l-.15,0-.16.23.13.09a1.62,1.62,0,0,1,.75,1.17.42.42,0,0,1-.15.38.53.53,0,0,1-.32,0l-.16,0-.14.23.13.08a1.64,1.64,0,0,1,.69,1.12.44.44,0,0,1-.17.39.46.46,0,0,1-.36,0l-.16,0-.15.24.14.09a1.64,1.64,0,0,1,.74,1.16.41.41,0,0,1-.16.37.42.42,0,0,1-.32.05l-.14,0-.15.21.11.09a1.62,1.62,0,0,1,.7,1.13.41.41,0,0,1-.16.39.53.53,0,0,1-.37,0l-.15,0-.16.23.13.09a1.58,1.58,0,0,1,.75,1.17.4.4,0,0,1-.15.37.42.42,0,0,1-.32,0l-.16,0-.13.23.12.08a1.64,1.64,0,0,1,.69,1.12.44.44,0,0,1-.17.39.51.51,0,0,1-.36,0l-.16,0-.15.23.12.09a1.63,1.63,0,0,1,.76,1.16.38.38,0,0,1-.48.43l-.16,0-.13.23.12.08a1.6,1.6,0,0,1,.69,1.12.39.39,0,0,1-.16.38.54.54,0,0,1-.37,0l-.15,0-.16.24.13.09A1.58,1.58,0,0,1,15,34.05a.41.41,0,0,1-.15.38.46.46,0,0,1-.32,0l-.15,0-.14.21.1.09A1.62,1.62,0,0,1,15,35.89a.42.42,0,0,1-.17.38.51.51,0,0,1-.36,0l-.15,0-.17.22.13.09a1.66,1.66,0,0,1,.76,1.17.43.43,0,0,1-.16.38.53.53,0,0,1-.32,0l-.15,0-.14.23.12.09a1.58,1.58,0,0,1,.69,1.12.4.4,0,0,1-.16.38.52.52,0,0,1-.36,0l-.16,0-.16.24.14.09a1.6,1.6,0,0,1,.74,1.16.42.42,0,0,1-.15.38.53.53,0,0,1-.32,0l-.15,0-.15.21.11.1a1.6,1.6,0,0,1,.71,1.13.41.41,0,0,1-.2.4.71.71,0,0,1-.54-.05l-.1,0-.2.1v.09l0,.94.1,0a5.24,5.24,0,0,1,3.1,4.09V49l1.16.51.2-.09v-.1a.4.4,0,0,1,.2-.4.63.63,0,0,1,.54.05,1.8,1.8,0,0,1,.91,1l0,.12h.31l.05-.11a.32.32,0,0,1,.21-.2.72.72,0,0,1,.48.07,1.78,1.78,0,0,1,.92,1l0,.12h.3l.05-.11a.34.34,0,0,1,.21-.2.82.82,0,0,1,.49.07,1.79,1.79,0,0,1,.91,1l0,.12h.31l.05-.11a.31.31,0,0,1,.2-.19.74.74,0,0,1,.49.06,1.81,1.81,0,0,1,.92,1l0,.12h.3l.05-.11a.31.31,0,0,1,.21-.19.67.67,0,0,1,.48.07,1.78,1.78,0,0,1,.92,1l0,.11.29,0,.06-.1a.36.36,0,0,1,.21-.21.75.75,0,0,1,.49.07,1.8,1.8,0,0,1,.91,1l0,.12.31,0,.05-.12a.33.33,0,0,1,.2-.2.82.82,0,0,1,.49.07,1.77,1.77,0,0,1,.92,1l0,.11.3,0,0-.12a.31.31,0,0,1,.21-.19.71.71,0,0,1,.48.06,1.69,1.69,0,0,1,1,1.29v.1l1.24.55.2-.1v-.09a1.43,1.43,0,0,1,.76-1.42,2.34,2.34,0,0,1,1.93.14l.1,0,.21-.09v-.78l-.12-.06a1.69,1.69,0,0,1-1-1.29A.41.41,0,0,1,38,53a.42.42,0,0,1,.32,0l.15,0,.14-.21-.11-.09a1.62,1.62,0,0,1-.7-1.13.42.42,0,0,1,.17-.39.5.5,0,0,1,.36,0l.15,0,.16-.23-.13-.09a1.61,1.61,0,0,1-.75-1.17.4.4,0,0,1,.15-.37.43.43,0,0,1,.33,0l.15,0,.14-.22L38.38,49a1.62,1.62,0,0,1-.7-1.12.44.44,0,0,1,.17-.39.57.57,0,0,1,.36,0l.16,0,.16-.24-.14-.08A1.64,1.64,0,0,1,37.64,46a.42.42,0,0,1,.16-.38.46.46,0,0,1,.32,0l.14,0,.15-.21-.11-.09a1.62,1.62,0,0,1-.7-1.13.4.4,0,0,1,.17-.38.51.51,0,0,1,.36,0l.15,0,.16-.23-.12-.09a1.63,1.63,0,0,1-.76-1.17.41.41,0,0,1,.15-.38.48.48,0,0,1,.33,0l.15,0,.14-.23-.12-.09a1.6,1.6,0,0,1-.7-1.12.42.42,0,0,1,.17-.38A.51.51,0,0,1,38,40l.17,0,.14-.25-.13-.08a1.64,1.64,0,0,1-.75-1.16.43.43,0,0,1,.16-.38.53.53,0,0,1,.32-.05l.15,0,.14-.22-.11-.09a1.62,1.62,0,0,1-.7-1.13.4.4,0,0,1,.17-.38.51.51,0,0,1,.36,0l.16,0,.15-.23L38.14,36a1.65,1.65,0,0,1-.75-1.17.42.42,0,0,1,.15-.38.53.53,0,0,1,.32-.05l.16,0,.14-.23L38,34.16a1.62,1.62,0,0,1-.7-1.12.44.44,0,0,1,.17-.39.46.46,0,0,1,.36,0l.16,0,.16-.23-.13-.09a1.63,1.63,0,0,1-.76-1.17.41.41,0,0,1,.16-.37.42.42,0,0,1,.32-.05l.16,0,.13-.23L38,30.45a1.6,1.6,0,0,1-.69-1.12.44.44,0,0,1,.17-.39.46.46,0,0,1,.36,0l.15,0,.16-.23L38,28.62a1.61,1.61,0,0,1-.75-1.17.39.39,0,0,1,.19-.4.71.71,0,0,1,.54.05l.1,0,.2-.09V27l0-1.29-.1,0A5.25,5.25,0,0,1,35,21.55Zm.59,2.59a6,6,0,0,0,2.19,1.82l0,.85a1,1,0,0,0-.64.05.7.7,0,0,0-.39.69,1.8,1.8,0,0,0,.57,1.14.61.61,0,0,0-.2.09.7.7,0,0,0-.33.64,1.73,1.73,0,0,0,.55,1.11.93.93,0,0,0-.2.1.73.73,0,0,0-.31.63,1.8,1.8,0,0,0,.57,1.14l-.2.08a.72.72,0,0,0-.32.65,1.74,1.74,0,0,0,.54,1.11.75.75,0,0,0-.2.1.69.69,0,0,0-.3.63A1.8,1.8,0,0,0,37.55,36a.6.6,0,0,0-.2.08.73.73,0,0,0-.33.65,1.75,1.75,0,0,0,.55,1.11.61.61,0,0,0-.2.09.74.74,0,0,0-.31.64,1.76,1.76,0,0,0,.57,1.13.72.72,0,0,0-.2.09.7.7,0,0,0-.32.65,1.79,1.79,0,0,0,.54,1.11.72.72,0,0,0-.2.09.71.71,0,0,0-.3.63,1.76,1.76,0,0,0,.57,1.14.61.61,0,0,0-.2.09.71.71,0,0,0-.33.65,1.75,1.75,0,0,0,.55,1.11.61.61,0,0,0-.2.09.74.74,0,0,0-.31.63,1.81,1.81,0,0,0,.57,1.14.72.72,0,0,0-.2.09.7.7,0,0,0-.32.64A1.76,1.76,0,0,0,37.82,49a.72.72,0,0,0-.2.09.7.7,0,0,0-.3.63,1.76,1.76,0,0,0,.57,1.14.61.61,0,0,0-.2.09.7.7,0,0,0-.33.64,1.78,1.78,0,0,0,.55,1.12.61.61,0,0,0-.2.09.73.73,0,0,0-.31.63,2,2,0,0,0,1.09,1.52v.24a2.68,2.68,0,0,0-2,0,1.67,1.67,0,0,0-.94,1.43l-.65-.28a2,2,0,0,0-1.18-1.48,1.17,1.17,0,0,0-.83-.09l-.2.1a2.19,2.19,0,0,0-1-.89,1.17,1.17,0,0,0-.83-.09.63.63,0,0,0-.2.1,2.11,2.11,0,0,0-1-.89,1.17,1.17,0,0,0-.83-.09.56.56,0,0,0-.19.09,2.22,2.22,0,0,0-1-.89,1.16,1.16,0,0,0-.83-.08.72.72,0,0,0-.2.09,2.15,2.15,0,0,0-1-.89,1.17,1.17,0,0,0-.83-.09l-.2.1a2.16,2.16,0,0,0-1-.89,1.17,1.17,0,0,0-.83-.09.75.75,0,0,0-.2.1,2.14,2.14,0,0,0-1-.89,1.17,1.17,0,0,0-.83-.09.72.72,0,0,0-.2.09,2.2,2.2,0,0,0-1-.89,1.14,1.14,0,0,0-1,0,.65.65,0,0,0-.36.42l-.59-.26a5.66,5.66,0,0,0-3.2-4.23V44a1,1,0,0,0,.64,0,.7.7,0,0,0,.39-.69,1.69,1.69,0,0,0-.54-1.11.75.75,0,0,0,.2-.1.69.69,0,0,0,.3-.63A1.8,1.8,0,0,0,15,40.32a.66.66,0,0,0,.21-.08.71.71,0,0,0,.32-.65A1.79,1.79,0,0,0,15,38.48a.72.72,0,0,0,.2-.09.73.73,0,0,0,.3-.63,1.76,1.76,0,0,0-.57-1.14.72.72,0,0,0,.2-.09.68.68,0,0,0,.32-.65,1.69,1.69,0,0,0-.54-1.11.72.72,0,0,0,.2-.09.71.71,0,0,0,.3-.63,1.76,1.76,0,0,0-.57-1.14.78.78,0,0,0,.21-.09.7.7,0,0,0,.32-.65,1.81,1.81,0,0,0-.54-1.11A.72.72,0,0,0,15,31a.73.73,0,0,0,.3-.63,1.76,1.76,0,0,0-.57-1.14.72.72,0,0,0,.2-.09.68.68,0,0,0,.32-.64,1.71,1.71,0,0,0-.54-1.12.72.72,0,0,0,.2-.09.7.7,0,0,0,.3-.63,1.8,1.8,0,0,0-.57-1.14.78.78,0,0,0,.21-.09.7.7,0,0,0,.32-.64,1.76,1.76,0,0,0-.54-1.11l.2-.1a.72.72,0,0,0,.3-.63,1.8,1.8,0,0,0-.57-1.14l.2-.08a.7.7,0,0,0,.32-.65,1.69,1.69,0,0,0-.54-1.11l.2-.1a.69.69,0,0,0,.3-.63,1.8,1.8,0,0,0-.57-1.14,1.31,1.31,0,0,0,.21-.08.72.72,0,0,0,.32-.65,2,2,0,0,0-1.09-1.52v-.54a2.67,2.67,0,0,0,2.06,0,1.69,1.69,0,0,0,.95-1.46l.61.27a2.05,2.05,0,0,0,1.18,1.48,1.18,1.18,0,0,0,.84.08.56.56,0,0,0,.19-.09,2.16,2.16,0,0,0,1,.89,1.17,1.17,0,0,0,.83.09,1.24,1.24,0,0,0,.2-.1,2.14,2.14,0,0,0,1,.89,1.17,1.17,0,0,0,.83.09.93.93,0,0,0,.2-.09,2.25,2.25,0,0,0,1,.89,1.24,1.24,0,0,0,.84.08.72.72,0,0,0,.2-.09,2.15,2.15,0,0,0,1,.89,1.16,1.16,0,0,0,.83.08.72.72,0,0,0,.2-.09,2.2,2.2,0,0,0,1,.89,1.17,1.17,0,0,0,.83.09.93.93,0,0,0,.2-.1,2.11,2.11,0,0,0,1,.89,1.17,1.17,0,0,0,.83.09.56.56,0,0,0,.19-.09,2.22,2.22,0,0,0,1,.89,1.11,1.11,0,0,0,.94,0,.67.67,0,0,0,.37-.42l.6.26A4.52,4.52,0,0,0,35.63,24.05Z" transform="translate(-11.27 -8.63)"/><path class="cls-3" d="M39.47,23.43a2.12,2.12,0,0,0-1.26-1.66c-.68-.3-1.22,0-1.2.58A2.14,2.14,0,0,0,38.27,24C39,24.31,39.49,24.05,39.47,23.43Z" transform="translate(-11.27 -8.63)"/><path class="cls-1" d="M38.57,22.73a2.33,2.33,0,0,0-1-.77,1.28,1.28,0,0,0-1.06-.05.76.76,0,0,0-.44.77,2.25,2.25,0,0,0,1.36,1.8,1.27,1.27,0,0,0,1.07.06.79.79,0,0,0,.44-.78A1.82,1.82,0,0,0,38.57,22.73Zm-1.71.82a1.64,1.64,0,0,1-.35-.87.48.48,0,0,1,.25-.49.83.83,0,0,1,.66,0,2,2,0,0,1,1.15,1.53h0a.48.48,0,0,1-.24.49.79.79,0,0,1-.66-.06A2.2,2.2,0,0,1,36.86,23.55Z" transform="translate(-11.27 -8.63)"/><path class="cls-3" d="M16,13.09a2.14,2.14,0,0,0-1.26-1.66c-.68-.3-1.22,0-1.21.57a2.16,2.16,0,0,0,1.26,1.67C15.47,14,16,13.71,16,13.09Z" transform="translate(-11.27 -8.63)"/><path class="cls-1" d="M15.1,12.39a2.47,2.47,0,0,0-1-.77,1.3,1.3,0,0,0-1.07,0,.78.78,0,0,0-.44.77A2.29,2.29,0,0,0,14,14.14a1.27,1.27,0,0,0,1.07.06.79.79,0,0,0,.44-.78A1.87,1.87,0,0,0,15.1,12.39Zm-1.71.82a1.56,1.56,0,0,1-.35-.87.5.5,0,0,1,.24-.5.88.88,0,0,1,.66.06,2,2,0,0,1,1.16,1.53h0a.51.51,0,0,1-.25.49.79.79,0,0,1-.66-.06A2.17,2.17,0,0,1,13.39,13.21Z" transform="translate(-11.27 -8.63)"/><path class="cls-3" d="M40.26,57.9A2.12,2.12,0,0,0,39,56.23c-.68-.3-1.22,0-1.2.58a2.12,2.12,0,0,0,1.26,1.66C39.74,58.77,40.28,58.52,40.26,57.9Z" transform="translate(-11.27 -8.63)"/><path class="cls-1" d="M39.36,57.19a2.43,2.43,0,0,0-1-.76,1.27,1.27,0,0,0-1.07-.06.79.79,0,0,0-.44.78A2.26,2.26,0,0,0,38.26,59a1.27,1.27,0,0,0,1.07,0,.78.78,0,0,0,.44-.77A1.87,1.87,0,0,0,39.36,57.19Zm-1.7.82a1.63,1.63,0,0,1-.36-.87.51.51,0,0,1,.25-.49.79.79,0,0,1,.66.06,2,2,0,0,1,1.15,1.52h0a.5.5,0,0,1-.24.5.88.88,0,0,1-.66-.06A2.12,2.12,0,0,1,37.66,58Z" transform="translate(-11.27 -8.63)"/><path class="cls-3" d="M16.79,47.56a2.16,2.16,0,0,0-1.26-1.67c-.68-.3-1.22,0-1.21.58a2.14,2.14,0,0,0,1.26,1.66C16.26,48.43,16.8,48.18,16.79,47.56Z" transform="translate(-11.27 -8.63)"/><path class="cls-1" d="M15.89,46.85a2.54,2.54,0,0,0-1-.76A1.27,1.27,0,0,0,13.86,46a.79.79,0,0,0-.44.78,2.3,2.3,0,0,0,1.36,1.8,1.3,1.3,0,0,0,1.07,0,.78.78,0,0,0,.44-.77h0A1.86,1.86,0,0,0,15.89,46.85Zm-1.71.82a1.61,1.61,0,0,1-.35-.87.48.48,0,0,1,.24-.49.79.79,0,0,1,.66.06,2,2,0,0,1,1.16,1.52h0a.52.52,0,0,1-.25.5.88.88,0,0,1-.66-.06A2.2,2.2,0,0,1,14.18,47.67Z" transform="translate(-11.27 -8.63)"/><path class="cls-2" d="M25.36,43c0-2,0-3,0-5l1.3.52c0,.69,0,1,0,1.73,2-1.31,3-1.93,5-3.16-2-3-3-4.4-4.95-7.33,0,.83,0,1.25,0,2.08-2.54.48-3.81.75-6.32,1.31l.67,1c1.76.69,2.64,1,4.4,1.75V34.73l1.87.77v1.15l-.66-.27c0,.49,0,.74,0,1.23-2.49-1-3.72-1.49-6.19-2.47l-2.08-3c2.8-.67,4.19-1,7-1.6,0-1.84,0-2.76,0-4.6,3.21,4.77,4.76,7.1,8,11.94C30.24,39.86,28.57,40.83,25.36,43Z" transform="translate(-11.27 -8.63)"/><path class="cls-2" d="M26.79,32.76l-2.37.36,1.95.54Z" transform="translate(-11.27 -8.63)"/><path class="cls-2" d="M23.67,30.15c0-1,0-1.57,0-2.62L24.83,29c0,.35,0,.52,0,.87Z" transform="translate(-11.27 -8.63)"/><path class="cls-2" d="M27.68,43.55c0-.51,0-.76,0-1.27l-1.3.85v.28l.94.37Z" transform="translate(-11.27 -8.63)"/><path class="cls-2" d="M33.53,40.2V38.82l-1.33.79v1.33Z" transform="translate(-11.27 -8.63)"/><path class="cls-2" d="M29.64,42.39c0-.51,0-.76,0-1.26L28.33,42v1.21Z" transform="translate(-11.27 -8.63)"/><path class="cls-2" d="M31.59,41.27V40l-1.33.8c0,.51,0,.76,0,1.27Z" transform="translate(-11.27 -8.63)"/></svg>