<svg id="Layer_1" data-name="Layer 1" xmlns="http://www.w3.org/2000/svg" viewBox="0 0 283.83 749"><defs><style>.cls-1{fill:#16110d;}.cls-2{fill:#39a1ff;}.cls-3{fill:#fff;}</style></defs><title>art</title><g id="T"><path class="cls-1" d="M176,754.61a1,1,0,0,1,0,2,3.77,3.77,0,0,1-3.43,0,1,1,0,0,1,0-2A3.77,3.77,0,0,1,176,754.61Z" transform="translate(-11.92 -8)"/><path class="cls-1" d="M185,749.42a1,1,0,0,1,0,2,3.77,3.77,0,0,1-3.43,0,1,1,0,0,1,0-2A3.77,3.77,0,0,1,185,749.42Z" transform="translate(-11.92 -8)"/><ellipse class="cls-1" cx="180.32" cy="737.23" rx="2.43" ry="1.4"/><ellipse class="cls-1" cx="189.3" cy="732.04" rx="2.43" ry="1.4"/><path class="cls-1" d="M211.91,733.87a1,1,0,0,1,0,2,3.77,3.77,0,0,1-3.43,0,1,1,0,0,1,0-2A3.77,3.77,0,0,1,211.91,733.87Z" transform="translate(-11.92 -8)"/><ellipse class="cls-1" cx="207.26" cy="721.67" rx="2.43" ry="1.4"/><path class="cls-1" d="M229.88,723.5a1,1,0,0,1,0,2,3.79,3.79,0,0,1-3.44,0,1,1,0,0,1,0-2A3.79,3.79,0,0,1,229.88,723.5Z" transform="translate(-11.92 -8)"/><path class="cls-1" d="M158,754.61a1,1,0,0,1,0,2,3.77,3.77,0,0,1-3.43,0,1,1,0,0,1,0-2A3.77,3.77,0,0,1,158,754.61Z" transform="translate(-11.92 -8)"/><path class="cls-1" d="M167,749.42a1,1,0,0,1,0,2,3.77,3.77,0,0,1-3.43,0,1,1,0,0,1,0-2A3.77,3.77,0,0,1,167,749.42Z" transform="translate(-11.92 -8)"/><ellipse class="cls-1" cx="162.35" cy="737.23" rx="2.43" ry="1.4"/><path class="cls-1" d="M185,739.05a1.05,1.05,0,0,1,0,2,3.83,3.83,0,0,1-3.43,0,1.05,1.05,0,0,1,0-2A3.77,3.77,0,0,1,185,739.05Z" transform="translate(-11.92 -8)"/><path class="cls-1" d="M194,733.87a1,1,0,0,1,0,2,3.77,3.77,0,0,1-3.43,0,1,1,0,0,1,0-2A3.77,3.77,0,0,1,194,733.87Z" transform="translate(-11.92 -8)"/><path class="cls-1" d="M202.93,728.68a1,1,0,0,1,0,2,3.77,3.77,0,0,1-3.43,0,1,1,0,0,1,0-2A3.77,3.77,0,0,1,202.93,728.68Z" transform="translate(-11.92 -8)"/><path class="cls-1" d="M211.92,723.5a1,1,0,0,1,0,2,3.79,3.79,0,0,1-3.44,0,1,1,0,0,1,0-2A3.79,3.79,0,0,1,211.92,723.5Z" transform="translate(-11.92 -8)"/><path class="cls-1" d="M220.9,718.31a1.05,1.05,0,0,1,0,2,3.85,3.85,0,0,1-3.44,0,1.05,1.05,0,0,1,0-2A3.79,3.79,0,0,1,220.9,718.31Z" transform="translate(-11.92 -8)"/><path class="cls-1" d="M229.88,713.13a1,1,0,0,1,0,2,3.79,3.79,0,0,1-3.44,0,1,1,0,0,1,0-2A3.79,3.79,0,0,1,229.88,713.13Z" transform="translate(-11.92 -8)"/><path class="cls-1" d="M149.05,749.42a1,1,0,0,1,0,2,3.77,3.77,0,0,1-3.43,0,1,1,0,0,1,0-2A3.77,3.77,0,0,1,149.05,749.42Z" transform="translate(-11.92 -8)"/><path class="cls-1" d="M158,744.24a1,1,0,0,1,0,2,3.77,3.77,0,0,1-3.43,0,1,1,0,0,1,0-2A3.77,3.77,0,0,1,158,744.24Z" transform="translate(-11.92 -8)"/><ellipse class="cls-1" cx="153.37" cy="732.04" rx="2.43" ry="1.4"/><ellipse class="cls-1" cx="162.35" cy="726.86" rx="2.43" ry="1.4"/><ellipse class="cls-1" cx="171.34" cy="721.67" rx="2.43" ry="1.4"/><path class="cls-1" d="M194,723.5a1,1,0,0,1,0,2,3.77,3.77,0,0,1-3.43,0,1,1,0,0,1,0-2A3.77,3.77,0,0,1,194,723.5Z" transform="translate(-11.92 -8)"/><path class="cls-1" d="M202.93,718.31a1.05,1.05,0,0,1,0,2,3.83,3.83,0,0,1-3.43,0,1.05,1.05,0,0,1,0-2A3.77,3.77,0,0,1,202.93,718.31Z" transform="translate(-11.92 -8)"/><path class="cls-1" d="M211.92,713.13a1,1,0,0,1,0,2,3.79,3.79,0,0,1-3.44,0,1,1,0,0,1,0-2A3.79,3.79,0,0,1,211.92,713.13Z" transform="translate(-11.92 -8)"/><path class="cls-1" d="M220.9,707.94a1.05,1.05,0,0,1,0,2,3.85,3.85,0,0,1-3.44,0,1.05,1.05,0,0,1,0-2A3.79,3.79,0,0,1,220.9,707.94Z" transform="translate(-11.92 -8)"/><path class="cls-1" d="M140.07,744.24a1,1,0,0,1,0,2,3.77,3.77,0,0,1-3.43,0,1,1,0,0,1,0-2A3.77,3.77,0,0,1,140.07,744.24Z" transform="translate(-11.92 -8)"/><path class="cls-1" d="M149.05,739.05a1.05,1.05,0,0,1,0,2,3.83,3.83,0,0,1-3.43,0,1.05,1.05,0,0,1,0-2A3.77,3.77,0,0,1,149.05,739.05Z" transform="translate(-11.92 -8)"/><path class="cls-1" d="M158,733.87a1,1,0,0,1,0,2,3.77,3.77,0,0,1-3.43,0,1,1,0,0,1,0-2A3.77,3.77,0,0,1,158,733.87Z" transform="translate(-11.92 -8)"/><path class="cls-1" d="M167,728.68a1.05,1.05,0,0,1,0,2,3.83,3.83,0,0,1-3.43,0,1.05,1.05,0,0,1,0-2A3.77,3.77,0,0,1,167,728.68Z" transform="translate(-11.92 -8)"/><path class="cls-1" d="M176,723.5a1,1,0,0,1,0,2,3.77,3.77,0,0,1-3.43,0,1,1,0,0,1,0-2A3.77,3.77,0,0,1,176,723.5Z" transform="translate(-11.92 -8)"/><ellipse class="cls-1" cx="171.34" cy="711.3" rx="2.43" ry="1.4"/><path class="cls-1" d="M194,713.13a1,1,0,0,1,0,2,3.77,3.77,0,0,1-3.43,0,1,1,0,0,1,0-2A3.77,3.77,0,0,1,194,713.13Z" transform="translate(-11.92 -8)"/><path class="cls-1" d="M202.93,707.94a1.05,1.05,0,0,1,0,2,3.83,3.83,0,0,1-3.43,0,1.05,1.05,0,0,1,0-2A3.77,3.77,0,0,1,202.93,707.94Z" transform="translate(-11.92 -8)"/><path class="cls-1" d="M211.92,702.76a1,1,0,0,1,0,2,3.79,3.79,0,0,1-3.44,0,1,1,0,0,1,0-2A3.79,3.79,0,0,1,211.92,702.76Z" transform="translate(-11.92 -8)"/><ellipse class="cls-1" cx="117.45" cy="732.04" rx="2.43" ry="1.4"/><path class="cls-1" d="M140.07,733.87a1,1,0,0,1,0,2,3.77,3.77,0,0,1-3.43,0,1,1,0,0,1,0-2A3.77,3.77,0,0,1,140.07,733.87Z" transform="translate(-11.92 -8)"/><path class="cls-1" d="M149.05,728.68a1.05,1.05,0,0,1,0,2,3.83,3.83,0,0,1-3.43,0,1.05,1.05,0,0,1,0-2A3.77,3.77,0,0,1,149.05,728.68Z" transform="translate(-11.92 -8)"/><path class="cls-1" d="M158,723.5a1,1,0,0,1,0,2,3.77,3.77,0,0,1-3.43,0,1,1,0,0,1,0-2A3.77,3.77,0,0,1,158,723.5Z" transform="translate(-11.92 -8)"/><path class="cls-1" d="M163.58,718.31a3.77,3.77,0,0,1,3.43,0,1.05,1.05,0,0,1,0,2,3.83,3.83,0,0,1-3.43,0,1.05,1.05,0,0,1,0-2Z" transform="translate(-11.92 -8)"/><path class="cls-1" d="M176,713.13a1,1,0,0,1,0,2,3.77,3.77,0,0,1-3.43,0,1,1,0,0,1,0-2A3.77,3.77,0,0,1,176,713.13Z" transform="translate(-11.92 -8)"/><path class="cls-1" d="M185,707.94a1.05,1.05,0,0,1,0,2,3.83,3.83,0,0,1-3.43,0C180.59,709.38,184,707.39,185,707.94Z" transform="translate(-11.92 -8)"/><path class="cls-1" d="M190.52,702.76a3.77,3.77,0,0,1,3.43,0,1,1,0,0,1,0,2,3.77,3.77,0,0,1-3.43,0,1,1,0,0,1,0-2Z" transform="translate(-11.92 -8)"/><path class="cls-1" d="M202.93,697.57a1.05,1.05,0,0,1,0,2,3.83,3.83,0,0,1-3.43,0,1.05,1.05,0,0,1,0-2A3.83,3.83,0,0,1,202.93,697.57Z" transform="translate(-11.92 -8)"/><path class="cls-1" d="M122.11,733.87a1,1,0,0,1,0,2,3.77,3.77,0,0,1-3.43,0,1,1,0,0,1,0-2A3.77,3.77,0,0,1,122.11,733.87Z" transform="translate(-11.92 -8)"/><ellipse class="cls-1" cx="117.45" cy="721.67" rx="2.43" ry="1.4"/><path class="cls-1" d="M140.07,723.5a1,1,0,0,1,0,2,3.77,3.77,0,0,1-3.43,0,1,1,0,0,1,0-2A3.77,3.77,0,0,1,140.07,723.5Z" transform="translate(-11.92 -8)"/><path class="cls-1" d="M149.05,720.3a3.83,3.83,0,0,1-3.43,0,1.05,1.05,0,0,1,0-2C146.57,717.76,150,719.75,149.05,720.3Z" transform="translate(-11.92 -8)"/><ellipse class="cls-1" cx="99.49" cy="721.67" rx="2.43" ry="1.4"/><path class="cls-1" d="M122.11,723.5a1,1,0,0,1,0,2,3.77,3.77,0,0,1-3.43,0,1,1,0,0,1,0-2A3.77,3.77,0,0,1,122.11,723.5Z" transform="translate(-11.92 -8)"/><path class="cls-1" d="M131.09,718.31a1.05,1.05,0,0,1,0,2,3.83,3.83,0,0,1-3.43,0,1.05,1.05,0,0,1,0-2A3.77,3.77,0,0,1,131.09,718.31Z" transform="translate(-11.92 -8)"/><ellipse class="cls-1" cx="126.43" cy="706.12" rx="2.43" ry="1.4"/><ellipse class="cls-1" cx="99.41" cy="711.25" rx="2.43" ry="1.4"/><path class="cls-1" d="M122,713.07a1.05,1.05,0,0,1,0,2,3.83,3.83,0,0,1-3.43,0,1.05,1.05,0,0,1,0-2A3.83,3.83,0,0,1,122,713.07Z" transform="translate(-11.92 -8)"/><path class="cls-1" d="M113.05,707.89a1,1,0,0,1,0,2,3.77,3.77,0,0,1-3.43,0,1,1,0,0,1,0-2A3.77,3.77,0,0,1,113.05,707.89Z" transform="translate(-11.92 -8)"/><path class="cls-2" d="M156.5,724.9l-44.3-25.58V551.82l-40-23.11V486.88l124.27,71.74v41.83L156.5,577.4Z" transform="translate(-11.92 -8)"/><polygon class="cls-2" points="60.24 478.88 108.19 451.19 232.46 522.93 184.5 550.62 60.24 478.88"/><polygon class="cls-3" points="60.24 492.47 108.19 464.78 232.46 536.52 184.5 564.21 60.24 492.47"/><path class="cls-1" d="M244.38,528.75,120.11,457,72.16,484.7l-1.89,1.09v44l40,23.11v147.5L154.61,726l1.89,1.09,1.89-1.09,48-27.69V596.91l39.93-23.06v-44ZM120.11,461.38,240.6,530.93l-44.17,25.51L76,486.88Zm34.5,112.75V721.62l-40.52-23.39V550.73l-40-23.11V490.16l120.49,69.56v37.46Z" transform="translate(-11.92 -8)"/><polygon class="cls-2" points="184.86 594.12 184.86 589.72 192.43 585.72 192.43 590.13 184.86 594.12"/></g><g id="R"><path class="cls-1" d="M186.45,453.29a1,1,0,0,1,0,2,3.77,3.77,0,0,1-3.43,0,1,1,0,0,1,0-2A3.77,3.77,0,0,1,186.45,453.29Z" transform="translate(-11.92 -8)"/><ellipse class="cls-1" cx="181.79" cy="441.09" rx="2.43" ry="1.4"/><path class="cls-1" d="M168.49,453.29a1,1,0,0,1,0,2,3.77,3.77,0,0,1-3.43,0,1,1,0,0,1,0-2A3.77,3.77,0,0,1,168.49,453.29Z" transform="translate(-11.92 -8)"/><ellipse class="cls-1" cx="163.83" cy="441.09" rx="2.43" ry="1.4"/><path class="cls-1" d="M186.45,442.92a1,1,0,0,1,0,2,3.77,3.77,0,0,1-3.43,0,1,1,0,0,1,0-2A3.77,3.77,0,0,1,186.45,442.92Z" transform="translate(-11.92 -8)"/><path class="cls-1" d="M195.43,437.73a1,1,0,0,1,0,2,3.77,3.77,0,0,1-3.43,0,1,1,0,0,1,0-2A3.77,3.77,0,0,1,195.43,437.73Z" transform="translate(-11.92 -8)"/><ellipse class="cls-1" cx="145.87" cy="441.09" rx="2.43" ry="1.4"/><path class="cls-1" d="M168.49,442.92a1,1,0,0,1,0,2,3.77,3.77,0,0,1-3.43,0,1,1,0,0,1,0-2A3.77,3.77,0,0,1,168.49,442.92Z" transform="translate(-11.92 -8)"/><ellipse class="cls-1" cx="163.83" cy="430.72" rx="2.43" ry="1.4"/><path class="cls-1" d="M186.45,432.55a1,1,0,0,1,0,2,3.77,3.77,0,0,1-3.43,0,1,1,0,0,1,0-2A3.77,3.77,0,0,1,186.45,432.55Z" transform="translate(-11.92 -8)"/><path class="cls-1" d="M195.43,427.36a1,1,0,0,1,0,2,3.77,3.77,0,0,1-3.43,0,1,1,0,0,1,0-2A3.77,3.77,0,0,1,195.43,427.36Z" transform="translate(-11.92 -8)"/><ellipse class="cls-1" cx="190.77" cy="415.17" rx="2.43" ry="1.4"/><ellipse class="cls-1" cx="226.7" cy="394.43" rx="2.43" ry="1.4"/><ellipse class="cls-1" cx="235.68" cy="389.24" rx="2.43" ry="1.4"/><ellipse class="cls-1" cx="136.89" cy="435.91" rx="2.43" ry="1.4"/><path class="cls-1" d="M159.51,437.73a1,1,0,0,1,0,2,3.77,3.77,0,0,1-3.43,0,1,1,0,0,1,0-2A3.77,3.77,0,0,1,159.51,437.73Z" transform="translate(-11.92 -8)"/><path class="cls-1" d="M168.49,432.55a1,1,0,0,1,0,2,3.77,3.77,0,0,1-3.43,0,1,1,0,0,1,0-2A3.77,3.77,0,0,1,168.49,432.55Z" transform="translate(-11.92 -8)"/><path class="cls-1" d="M177.47,427.36a1,1,0,0,1,0,2,3.77,3.77,0,0,1-3.43,0,1,1,0,0,1,0-2A3.77,3.77,0,0,1,177.47,427.36Z" transform="translate(-11.92 -8)"/><ellipse class="cls-1" cx="172.81" cy="415.17" rx="2.43" ry="1.4"/><path class="cls-1" d="M195.43,417a1,1,0,0,1,0,2,3.77,3.77,0,0,1-3.43,0,1,1,0,0,1,0-2A3.77,3.77,0,0,1,195.43,417Z" transform="translate(-11.92 -8)"/><path class="cls-1" d="M204.41,411.81a1,1,0,0,1,0,2,3.77,3.77,0,0,1-3.43,0,1,1,0,0,1,0-2A3.77,3.77,0,0,1,204.41,411.81Z" transform="translate(-11.92 -8)"/><path class="cls-1" d="M222.37,401.44a1,1,0,0,1,0,2,3.77,3.77,0,0,1-3.43,0,1,1,0,0,1,0-2A3.77,3.77,0,0,1,222.37,401.44Z" transform="translate(-11.92 -8)"/><path class="cls-1" d="M231.35,396.25a1,1,0,0,1,0,2,3.77,3.77,0,0,1-3.43,0,1,1,0,0,1,0-2A3.77,3.77,0,0,1,231.35,396.25Z" transform="translate(-11.92 -8)"/><ellipse class="cls-1" cx="226.7" cy="384.06" rx="2.43" ry="1.4"/><ellipse class="cls-1" cx="127.91" cy="430.72" rx="2.43" ry="1.4"/><path class="cls-1" d="M150.53,432.55a1,1,0,0,1,0,2,3.79,3.79,0,0,1-3.44,0,1,1,0,0,1,0-2A3.79,3.79,0,0,1,150.53,432.55Z" transform="translate(-11.92 -8)"/><path class="cls-1" d="M159.51,427.36a1,1,0,0,1,0,2,3.77,3.77,0,0,1-3.43,0,1,1,0,0,1,0-2A3.77,3.77,0,0,1,159.51,427.36Z" transform="translate(-11.92 -8)"/><path class="cls-1" d="M168.49,422.18a1,1,0,0,1,0,2,3.77,3.77,0,0,1-3.43,0,1,1,0,0,1,0-2A3.77,3.77,0,0,1,168.49,422.18Z" transform="translate(-11.92 -8)"/><path class="cls-1" d="M177.47,417a1,1,0,0,1,0,2,3.77,3.77,0,0,1-3.43,0,1,1,0,0,1,0-2A3.77,3.77,0,0,1,177.47,417Z" transform="translate(-11.92 -8)"/><ellipse class="cls-1" cx="172.81" cy="404.8" rx="2.43" ry="1.4"/><ellipse class="cls-1" cx="181.79" cy="399.61" rx="2.43" ry="1.4"/><ellipse class="cls-1" cx="190.77" cy="394.43" rx="2.43" ry="1.4"/><path class="cls-1" d="M213.39,396.25a1,1,0,0,1,0,2,3.77,3.77,0,0,1-3.43,0,1,1,0,0,1,0-2A3.77,3.77,0,0,1,213.39,396.25Z" transform="translate(-11.92 -8)"/><ellipse class="cls-1" cx="208.74" cy="384.06" rx="2.43" ry="1.4"/><ellipse class="cls-1" cx="217.72" cy="378.87" rx="2.43" ry="1.4"/><path class="cls-1" d="M132.49,432.49a1.05,1.05,0,0,1,0,2,3.83,3.83,0,0,1-3.43,0,1.05,1.05,0,0,1,0-2A3.77,3.77,0,0,1,132.49,432.49Z" transform="translate(-11.92 -8)"/><path class="cls-1" d="M141.47,427.31a1,1,0,0,1,0,2,3.77,3.77,0,0,1-3.43,0,1,1,0,0,1,0-2A3.77,3.77,0,0,1,141.47,427.31Z" transform="translate(-11.92 -8)"/><path class="cls-1" d="M150.45,422.12a1,1,0,0,1,0,2,3.77,3.77,0,0,1-3.43,0,1,1,0,0,1,0-2A3.77,3.77,0,0,1,150.45,422.12Z" transform="translate(-11.92 -8)"/><path class="cls-1" d="M159.43,416.94a1,1,0,0,1,0,2,3.77,3.77,0,0,1-3.43,0,1,1,0,0,1,0-2A3.77,3.77,0,0,1,159.43,416.94Z" transform="translate(-11.92 -8)"/><ellipse class="cls-1" cx="154.77" cy="404.74" rx="2.43" ry="1.4"/><path class="cls-1" d="M177.39,406.57a1,1,0,0,1,0,2,3.77,3.77,0,0,1-3.43,0,1,1,0,0,1,0-2A3.77,3.77,0,0,1,177.39,406.57Z" transform="translate(-11.92 -8)"/><ellipse class="cls-1" cx="172.74" cy="394.37" rx="2.43" ry="1.4"/><ellipse class="cls-1" cx="181.72" cy="389.19" rx="2.43" ry="1.4"/><path class="cls-1" d="M204.33,391a1.05,1.05,0,0,1,0,2,3.83,3.83,0,0,1-3.43,0,1.05,1.05,0,0,1,0-2A3.83,3.83,0,0,1,204.33,391Z" transform="translate(-11.92 -8)"/><ellipse class="cls-1" cx="199.68" cy="378.82" rx="2.43" ry="1.4"/><path class="cls-1" d="M222.3,380.64a1.05,1.05,0,0,1,0,2,3.85,3.85,0,0,1-3.44,0,1.05,1.05,0,0,1,0-2A3.85,3.85,0,0,1,222.3,380.64Z" transform="translate(-11.92 -8)"/><path class="cls-1" d="M123.51,427.31a1,1,0,0,1,0,2,3.77,3.77,0,0,1-3.43,0,1,1,0,0,1,0-2A3.77,3.77,0,0,1,123.51,427.31Z" transform="translate(-11.92 -8)"/><path class="cls-1" d="M132.49,422.12a1,1,0,0,1,0,2,3.77,3.77,0,0,1-3.43,0,1,1,0,0,1,0-2A3.77,3.77,0,0,1,132.49,422.12Z" transform="translate(-11.92 -8)"/><path class="cls-1" d="M141.47,416.94a1,1,0,0,1,0,2,3.77,3.77,0,0,1-3.43,0,1,1,0,0,1,0-2A3.77,3.77,0,0,1,141.47,416.94Z" transform="translate(-11.92 -8)"/><ellipse class="cls-1" cx="136.81" cy="404.74" rx="2.43" ry="1.4"/><path class="cls-1" d="M159.43,406.57a1,1,0,0,1,0,2,3.77,3.77,0,0,1-3.43,0,1,1,0,0,1,0-2A3.77,3.77,0,0,1,159.43,406.57Z" transform="translate(-11.92 -8)"/><ellipse class="cls-1" cx="154.77" cy="394.37" rx="2.43" ry="1.4"/><path class="cls-1" d="M177.39,396.2a1,1,0,0,1,0,2,3.77,3.77,0,0,1-3.43,0,1,1,0,0,1,0-2A3.77,3.77,0,0,1,177.39,396.2Z" transform="translate(-11.92 -8)"/><path class="cls-1" d="M186.37,391a1.05,1.05,0,0,1,0,2,3.83,3.83,0,0,1-3.43,0,1.05,1.05,0,0,1,0-2A3.83,3.83,0,0,1,186.37,391Z" transform="translate(-11.92 -8)"/><path class="cls-1" d="M195.35,385.83a1,1,0,0,1,0,2,3.77,3.77,0,0,1-3.43,0,1,1,0,0,1,0-2A3.77,3.77,0,0,1,195.35,385.83Z" transform="translate(-11.92 -8)"/><path class="cls-1" d="M204.34,380.64a1.05,1.05,0,0,1,0,2,3.85,3.85,0,0,1-3.44,0,1.05,1.05,0,0,1,0-2A3.85,3.85,0,0,1,204.34,380.64Z" transform="translate(-11.92 -8)"/><path class="cls-1" d="M213.32,375.46a1,1,0,0,1,0,2,3.79,3.79,0,0,1-3.44,0,1,1,0,0,1,0-2A3.79,3.79,0,0,1,213.32,375.46Z" transform="translate(-11.92 -8)"/><path class="cls-1" d="M114.53,422.12a1,1,0,0,1,0,2,3.77,3.77,0,0,1-3.43,0,1,1,0,0,1,0-2A3.77,3.77,0,0,1,114.53,422.12Z" transform="translate(-11.92 -8)"/><path class="cls-1" d="M123.51,416.94a1,1,0,0,1,0,2,3.77,3.77,0,0,1-3.43,0,1,1,0,0,1,0-2A3.77,3.77,0,0,1,123.51,416.94Z" transform="translate(-11.92 -8)"/><path class="cls-1" d="M132.49,411.75a1.05,1.05,0,0,1,0,2,3.83,3.83,0,0,1-3.43,0,1.05,1.05,0,0,1,0-2A3.77,3.77,0,0,1,132.49,411.75Z" transform="translate(-11.92 -8)"/><ellipse class="cls-1" cx="127.83" cy="399.56" rx="2.43" ry="1.4"/><ellipse class="cls-1" cx="154.77" cy="384" rx="2.43" ry="1.4"/><ellipse class="cls-1" cx="163.76" cy="378.82" rx="2.43" ry="1.4"/><path class="cls-1" d="M186.37,380.64a1.05,1.05,0,0,1,0,2,3.83,3.83,0,0,1-3.43,0,1.05,1.05,0,0,1,0-2A3.83,3.83,0,0,1,186.37,380.64Z" transform="translate(-11.92 -8)"/><path class="cls-1" d="M195.35,375.46a1,1,0,0,1,0,2,3.77,3.77,0,0,1-3.43,0,1,1,0,0,1,0-2A3.77,3.77,0,0,1,195.35,375.46Z" transform="translate(-11.92 -8)"/><ellipse class="cls-1" cx="190.7" cy="363.26" rx="2.43" ry="1.4"/><ellipse class="cls-1" cx="100.89" cy="404.74" rx="2.43" ry="1.4"/><path class="cls-1" d="M123.51,406.57a1,1,0,0,1,0,2,3.77,3.77,0,0,1-3.43,0,1,1,0,0,1,0-2A3.77,3.77,0,0,1,123.51,406.57Z" transform="translate(-11.92 -8)"/><ellipse class="cls-1" cx="118.85" cy="394.37" rx="2.43" ry="1.4"/><path class="cls-1" d="M168.41,380.64a1.05,1.05,0,0,1,0,2,3.83,3.83,0,0,1-3.43,0,1.05,1.05,0,0,1,0-2A3.83,3.83,0,0,1,168.41,380.64Z" transform="translate(-11.92 -8)"/><path class="cls-1" d="M177.39,375.46a1,1,0,0,1,0,2,3.77,3.77,0,0,1-3.43,0,1,1,0,0,1,0-2A3.77,3.77,0,0,1,177.39,375.46Z" transform="translate(-11.92 -8)"/><ellipse class="cls-1" cx="172.74" cy="363.26" rx="2.43" ry="1.4"/><path class="cls-1" d="M195.35,365.09a1,1,0,0,1,0,2,3.77,3.77,0,0,1-3.43,0,1,1,0,0,1,0-2A3.77,3.77,0,0,1,195.35,365.09Z" transform="translate(-11.92 -8)"/><path class="cls-1" d="M114.53,401.38a1.05,1.05,0,0,1,0,2,3.83,3.83,0,0,1-3.43,0,1.05,1.05,0,0,1,0-2A3.83,3.83,0,0,1,114.53,401.38Z" transform="translate(-11.92 -8)"/><ellipse class="cls-1" cx="109.87" cy="389.19" rx="2.43" ry="1.4"/><ellipse class="cls-1" cx="118.85" cy="384" rx="2.43" ry="1.4"/><path class="cls-1" d="M165,370.27a3.83,3.83,0,0,1,3.43,0,1.05,1.05,0,0,1,0,2,3.83,3.83,0,0,1-3.43,0A1.05,1.05,0,0,1,165,370.27Z" transform="translate(-11.92 -8)"/><path class="cls-1" d="M177.39,365.09a1,1,0,0,1,0,2,3.77,3.77,0,0,1-3.43,0,1,1,0,0,1,0-2A3.77,3.77,0,0,1,177.39,365.09Z" transform="translate(-11.92 -8)"/><path class="cls-1" d="M186.37,359.9a1.05,1.05,0,0,1,0,2,3.83,3.83,0,0,1-3.43,0,1.05,1.05,0,0,1,0-2A3.83,3.83,0,0,1,186.37,359.9Z" transform="translate(-11.92 -8)"/><ellipse class="cls-1" cx="73.95" cy="399.56" rx="2.43" ry="1.4"/><ellipse class="cls-1" cx="82.93" cy="394.37" rx="2.43" ry="1.4"/><ellipse class="cls-1" cx="91.91" cy="389.19" rx="2.43" ry="1.4"/><path class="cls-1" d="M114.53,391a1.05,1.05,0,0,1,0,2,3.83,3.83,0,0,1-3.43,0,1.05,1.05,0,0,1,0-2A3.83,3.83,0,0,1,114.53,391Z" transform="translate(-11.92 -8)"/><ellipse class="cls-1" cx="109.87" cy="378.82" rx="2.43" ry="1.4"/><path class="cls-1" d="M132.49,382.63a3.83,3.83,0,0,1-3.43,0,1.05,1.05,0,0,1,0-2C130,380.1,133.44,382.08,132.49,382.63Z" transform="translate(-11.92 -8)"/><ellipse class="cls-1" cx="163.76" cy="347.71" rx="2.43" ry="1.4"/><path class="cls-1" d="M78.61,401.38a1.05,1.05,0,0,1,0,2,3.85,3.85,0,0,1-3.44,0,1.05,1.05,0,0,1,0-2A3.85,3.85,0,0,1,78.61,401.38Z" transform="translate(-11.92 -8)"/><path class="cls-1" d="M87.59,396.2a1,1,0,0,1,0,2,3.79,3.79,0,0,1-3.44,0,1,1,0,0,1,0-2A3.79,3.79,0,0,1,87.59,396.2Z" transform="translate(-11.92 -8)"/><path class="cls-1" d="M96.57,391a1.05,1.05,0,0,1,0,2,3.85,3.85,0,0,1-3.44,0,1.05,1.05,0,0,1,0-2A3.85,3.85,0,0,1,96.57,391Z" transform="translate(-11.92 -8)"/><ellipse class="cls-1" cx="91.91" cy="378.82" rx="2.43" ry="1.4"/><ellipse class="cls-1" cx="100.89" cy="373.63" rx="2.43" ry="1.4"/><path class="cls-1" d="M123.51,375.46a1,1,0,0,1,0,2,3.77,3.77,0,0,1-3.43,0,1,1,0,0,1,0-2A3.77,3.77,0,0,1,123.51,375.46Z" transform="translate(-11.92 -8)"/><path class="cls-1" d="M69.63,396.2a1,1,0,0,1,0,2,3.79,3.79,0,0,1-3.44,0,1,1,0,0,1,0-2A3.79,3.79,0,0,1,69.63,396.2Z" transform="translate(-11.92 -8)"/><ellipse class="cls-1" cx="64.97" cy="384" rx="2.43" ry="1.4"/><ellipse class="cls-1" cx="73.95" cy="378.82" rx="2.43" ry="1.4"/><path class="cls-1" d="M96.57,380.64a1.05,1.05,0,0,1,0,2,3.85,3.85,0,0,1-3.44,0,1.05,1.05,0,0,1,0-2A3.85,3.85,0,0,1,96.57,380.64Z" transform="translate(-11.92 -8)"/><path class="cls-1" d="M105.55,375.46a1,1,0,0,1,0,2,3.77,3.77,0,0,1-3.43,0,1,1,0,0,1,0-2A3.77,3.77,0,0,1,105.55,375.46Z" transform="translate(-11.92 -8)"/><path class="cls-1" d="M114.53,370.27a1.05,1.05,0,0,1,0,2,3.83,3.83,0,0,1-3.43,0,1.05,1.05,0,0,1,0-2A3.83,3.83,0,0,1,114.53,370.27Z" transform="translate(-11.92 -8)"/><path class="cls-1" d="M123.51,365.09a1,1,0,0,1,0,2,3.77,3.77,0,0,1-3.43,0,1,1,0,0,1,0-2A3.77,3.77,0,0,1,123.51,365.09Z" transform="translate(-11.92 -8)"/><path class="cls-1" d="M60.57,391a1,1,0,0,1,0,2,3.79,3.79,0,0,1-3.44,0,1,1,0,0,1,0-2A3.79,3.79,0,0,1,60.57,391Z" transform="translate(-11.92 -8)"/><ellipse class="cls-1" cx="55.91" cy="378.77" rx="2.43" ry="1.4"/><ellipse class="cls-1" cx="64.89" cy="373.58" rx="2.43" ry="1.4"/><path class="cls-1" d="M93.06,370.22a3.77,3.77,0,0,1,3.43,0,1,1,0,0,1,0,2,3.77,3.77,0,0,1-3.43,0A1,1,0,0,1,93.06,370.22Z" transform="translate(-11.92 -8)"/><path class="cls-1" d="M102,367a1.05,1.05,0,0,1,0-2,3.83,3.83,0,0,1,3.43,0,1.05,1.05,0,0,1,0,2,3.83,3.83,0,0,1-3.43,0Z" transform="translate(-11.92 -8)"/><path class="cls-1" d="M114.45,359.85a1,1,0,0,1,0,2,3.77,3.77,0,0,1-3.43,0C110.07,361.28,113.5,359.3,114.45,359.85Z" transform="translate(-11.92 -8)"/><path class="cls-1" d="M123.43,354.66a1.05,1.05,0,0,1,0,2,3.77,3.77,0,0,1-3.43,0,1.05,1.05,0,0,1,0-2A3.83,3.83,0,0,1,123.43,354.66Z" transform="translate(-11.92 -8)"/><ellipse class="cls-1" cx="37.95" cy="378.77" rx="2.43" ry="1.4"/><ellipse class="cls-1" cx="46.93" cy="373.58" rx="2.43" ry="1.4"/><path class="cls-1" d="M69.55,375.4a1.05,1.05,0,0,1,0,2,3.83,3.83,0,0,1-3.43,0,1.05,1.05,0,0,1,0-2A3.83,3.83,0,0,1,69.55,375.4Z" transform="translate(-11.92 -8)"/><path class="cls-1" d="M87.51,365a1.05,1.05,0,0,1,0,2,3.83,3.83,0,0,1-3.43,0,1.05,1.05,0,0,1,0-2A3.83,3.83,0,0,1,87.51,365Z" transform="translate(-11.92 -8)"/><path class="cls-1" d="M96.49,359.85a1,1,0,0,1,0,2,3.77,3.77,0,0,1-3.43,0,1,1,0,0,1,0-2A3.77,3.77,0,0,1,96.49,359.85Z" transform="translate(-11.92 -8)"/><path class="cls-1" d="M114.45,349.48a1,1,0,0,1,0,2,3.77,3.77,0,0,1-3.43,0C110.07,350.91,113.5,348.93,114.45,349.48Z" transform="translate(-11.92 -8)"/><ellipse class="cls-1" cx="37.95" cy="368.4" rx="2.43" ry="1.4"/><ellipse class="cls-1" cx="46.93" cy="363.21" rx="2.43" ry="1.4"/><path class="cls-1" d="M78.53,359.85a1,1,0,0,1,0,2,3.77,3.77,0,0,1-3.43,0,1,1,0,0,1,0-2A3.77,3.77,0,0,1,78.53,359.85Z" transform="translate(-11.92 -8)"/><path class="cls-1" d="M51.59,365a1.05,1.05,0,0,1,0,2,3.83,3.83,0,0,1-3.43,0,1.05,1.05,0,0,1,0-2A3.83,3.83,0,0,1,51.59,365Z" transform="translate(-11.92 -8)"/><path class="cls-1" d="M254.88,391.14a3.77,3.77,0,0,1,3.43,0,1,1,0,0,1,0,2,3.79,3.79,0,0,1-3.44,0A1,1,0,0,1,254.88,391.14Z" transform="translate(-11.92 -8)"/><path class="cls-1" d="M267.3,386a1,1,0,0,1,0,2,3.77,3.77,0,0,1-3.43,0,1,1,0,0,1,0-2A3.77,3.77,0,0,1,267.3,386Z" transform="translate(-11.92 -8)"/><path class="cls-1" d="M276.28,380.76a1.05,1.05,0,0,1,0,2,3.77,3.77,0,0,1-3.43,0,1.05,1.05,0,0,1,0-2A3.83,3.83,0,0,1,276.28,380.76Z" transform="translate(-11.92 -8)"/><path class="cls-1" d="M245.9,386a3.8,3.8,0,0,1,3.43,0,1.05,1.05,0,0,1,0,2,3.82,3.82,0,0,1-3.44,0A1,1,0,0,1,245.9,386Z" transform="translate(-11.92 -8)"/><path class="cls-1" d="M258.32,380.76a1.05,1.05,0,0,1,0,2,3.77,3.77,0,0,1-3.43,0,1.05,1.05,0,0,1,0-2A3.83,3.83,0,0,1,258.32,380.76Z" transform="translate(-11.92 -8)"/><path class="cls-1" d="M267.3,375.58a1,1,0,0,1,0,2,3.77,3.77,0,0,1-3.43,0,1,1,0,0,1,0-2A3.77,3.77,0,0,1,267.3,375.58Z" transform="translate(-11.92 -8)"/><ellipse class="cls-1" cx="262.65" cy="363.39" rx="2.43" ry="1.4"/><ellipse class="cls-1" cx="271.63" cy="358.2" rx="2.43" ry="1.4"/><path class="cls-1" d="M236.92,380.77a3.77,3.77,0,0,1,3.43,0,1,1,0,0,1,0,2,3.79,3.79,0,0,1-3.44,0A1,1,0,0,1,236.92,380.77Z" transform="translate(-11.92 -8)"/><ellipse class="cls-1" cx="235.7" cy="368.57" rx="2.43" ry="1.4"/><path class="cls-1" d="M258.32,370.39a1.05,1.05,0,0,1,0,2,3.77,3.77,0,0,1-3.43,0,1.05,1.05,0,0,1,0-2A3.83,3.83,0,0,1,258.32,370.39Z" transform="translate(-11.92 -8)"/><path class="cls-1" d="M267.3,365.21a1,1,0,0,1,0,2,3.77,3.77,0,0,1-3.43,0,1,1,0,0,1,0-2A3.77,3.77,0,0,1,267.3,365.21Z" transform="translate(-11.92 -8)"/><ellipse class="cls-1" cx="262.65" cy="353.02" rx="2.43" ry="1.4"/><path class="cls-1" d="M285.26,354.84a1,1,0,0,1,0,2,3.77,3.77,0,0,1-3.43,0,1,1,0,0,1,0-2A3.77,3.77,0,0,1,285.26,354.84Z" transform="translate(-11.92 -8)"/><path class="cls-1" d="M227.86,375.53a3.77,3.77,0,0,1,3.43,0,1,1,0,0,1,0,2,3.79,3.79,0,0,1-3.44,0A1,1,0,0,1,227.86,375.53Z" transform="translate(-11.92 -8)"/><path class="cls-1" d="M240.28,370.34a1,1,0,0,1,0,2,3.77,3.77,0,0,1-3.43,0,1,1,0,0,1,0-2A3.77,3.77,0,0,1,240.28,370.34Z" transform="translate(-11.92 -8)"/><ellipse class="cls-1" cx="235.63" cy="358.15" rx="2.43" ry="1.4"/><path class="cls-1" d="M258.25,360a1,1,0,0,1,0,2,3.79,3.79,0,0,1-3.44,0,1,1,0,0,1,0-2A3.79,3.79,0,0,1,258.25,360Z" transform="translate(-11.92 -8)"/><ellipse class="cls-1" cx="253.59" cy="347.78" rx="2.43" ry="1.4"/><ellipse class="cls-1" cx="262.57" cy="342.59" rx="2.43" ry="1.4"/><path class="cls-1" d="M218.88,370.35a3.8,3.8,0,0,1,3.43,0,1.05,1.05,0,0,1,0,2,3.82,3.82,0,0,1-3.44,0A1,1,0,0,1,218.88,370.35Z" transform="translate(-11.92 -8)"/><path class="cls-1" d="M231.3,365.16a1,1,0,0,1,0,2,3.77,3.77,0,0,1-3.43,0,1,1,0,0,1,0-2A3.77,3.77,0,0,1,231.3,365.16Z" transform="translate(-11.92 -8)"/><path class="cls-1" d="M240.28,360a1,1,0,0,1,0,2,3.77,3.77,0,0,1-3.43,0,1,1,0,0,1,0-2A3.77,3.77,0,0,1,240.28,360Z" transform="translate(-11.92 -8)"/><ellipse class="cls-1" cx="235.63" cy="347.78" rx="2.43" ry="1.4"/><path class="cls-1" d="M254.81,349.6a3.79,3.79,0,0,1,3.44,0,1,1,0,0,1,0,2,3.79,3.79,0,0,1-3.44,0,1,1,0,0,1,0-2Z" transform="translate(-11.92 -8)"/><path class="cls-1" d="M263.79,344.42a3.79,3.79,0,0,1,3.44,0,1,1,0,0,1,0,2,3.79,3.79,0,0,1-3.44,0,1,1,0,0,1,0-2C264.74,343.87,262.84,345,263.79,344.42Z" transform="translate(-11.92 -8)"/><path class="cls-1" d="M209.9,365.16a3.77,3.77,0,0,1,3.43,0c.95.55,1,1.43,0,2a3.79,3.79,0,0,1-3.44,0A1,1,0,0,1,209.9,365.16Z" transform="translate(-11.92 -8)"/><path class="cls-1" d="M222.32,360a1,1,0,0,1,0,2,3.77,3.77,0,0,1-3.43,0,1,1,0,0,1,0-2A3.77,3.77,0,0,1,222.32,360Z" transform="translate(-11.92 -8)"/><path class="cls-1" d="M231.3,354.79a1,1,0,0,1,0,2,3.77,3.77,0,0,1-3.43,0,1,1,0,0,1,0-2A3.77,3.77,0,0,1,231.3,354.79Z" transform="translate(-11.92 -8)"/><path class="cls-1" d="M200.92,360a3.8,3.8,0,0,1,3.43,0,1.05,1.05,0,0,1,0,2,3.79,3.79,0,0,1-3.44,0A1,1,0,0,1,200.92,360Z" transform="translate(-11.92 -8)"/><ellipse class="cls-1" cx="199.7" cy="347.78" rx="2.43" ry="1.4"/><path class="cls-1" d="M191.94,354.79a3.77,3.77,0,0,1,3.43,0,1,1,0,0,1,0,2,3.82,3.82,0,0,1-3.44,0A1.05,1.05,0,0,1,191.94,354.79Z" transform="translate(-11.92 -8)"/><polygon class="cls-2" points="36.42 300.25 36.42 349.1 74.72 371.21 74.72 322.36 36.42 300.25"/><polygon class="cls-2" points="114.47 345.31 114.47 394.16 157.91 419.25 157.91 370.39 114.47 345.31"/><path class="cls-2" d="M270,336.63h0v-48.5l-40.88,5.66-38.86,23.9v48.85l1.07.88q36.8,5.71,61.09-8.26C264.48,352.21,270.3,344.7,270,336.63Z" transform="translate(-11.92 -8)"/><path class="cls-1" d="M211.62,371a134.68,134.68,0,0,1-20.55-1.67l-.51-.09-2.15-1.77v-50.8l40.48-24.71,43-6,0,52.09c-.4,8.24-6.61,15.89-18.5,22.75C241.69,367.55,227.69,371,211.62,371Zm-19.43-5.33c23.78,3.62,43.74.89,59.32-8.11C262.8,351,268.39,344,268.12,336.7l0-1.46.07,0V290.29L229.8,295.6l-37.61,23.3Z" transform="translate(-11.92 -8)"/><path class="cls-2" d="M138.23,300.58,86.64,330.36l-38.3-22.11L190.11,226.4l46.44,26.82q57.79,33.36,15.91,57.55Q227.83,325,190.3,318.88L169.84,378.4,126.4,353.31l21.53-47.13ZM167,284l7.17,4.14q20.09,11.6,37.82,1.35,14.64-8.46-5-19.82l-7.57-4.37Z" transform="translate(-11.92 -8)"/><path class="cls-3" d="M138.22,314.21,86.64,344,48.33,321.88,190.1,240l46.45,26.81q57.79,33.38,15.91,57.55-24.63,14.22-62.16,8.12L169.83,392,126.39,367l21.53-47.14ZM167,297.59l7.18,4.14q20.07,11.59,37.81,1.34,14.66-8.44-5-19.81l-7.57-4.37Z" transform="translate(-11.92 -8)"/><path class="cls-1" d="M237.49,251.58,190.1,224.21,48.33,306.06l-1.89,1.1v51L84.75,380.3l1.89,1.09,1.89-1.09,36-20.77v43.73L168,428.35l2.92,1.68.85-2.47,20.35-59.21.08-47.28c24.38,3.61,45,.72,61.24-8.66C265.71,305.3,272,297.36,272,288.82,272,277.14,260.68,265,237.49,251.58ZM50.23,356V311.52l34.52,19.93v44.49Zm117.71,68-39.66-22.9V356.59l39.66,22.89Zm83.57-114.84c-15.61,9-35.59,11.71-59.34,8.09l-3.14-.46h0l-20.24,58.85-40-23.07,21.53-47.14-12.13-7L86.64,328.18,52.12,308.25l138-79.67,45.5,26.27c21.61,12.48,32.57,23.91,32.57,34C268.17,295.92,262.57,302.75,251.51,309.13Z" transform="translate(-11.92 -8)"/><path class="cls-1" d="M207.92,268l-8.51-4.91L163.24,284l10,5.78c7.38,4.26,14.6,6.4,21.6,6.4a35.75,35.75,0,0,0,18.1-5.06c4.77-2.75,7.19-5.9,7.19-9.37C220.15,277.22,216.15,272.74,207.92,268Z" transform="translate(-11.92 -8)"/><polygon class="cls-1" points="206.34 312.51 206.34 361.07 227.5 356.95 246.63 347.32 258.14 331.89 258.12 286.24 245.26 300.25 232.24 307.72 206.34 312.51"/></g><g id="A"><path class="cls-1" d="M88.07,215.25a1,1,0,0,1,0,2,3.79,3.79,0,0,1-3.44,0,1,1,0,0,1,0-2A3.79,3.79,0,0,1,88.07,215.25Z" transform="translate(-11.92 -8)"/><ellipse class="cls-1" cx="83.41" cy="203.05" rx="2.43" ry="1.4"/><path class="cls-1" d="M106,204.88a1,1,0,0,1,0,2,3.79,3.79,0,0,1-3.44,0,1,1,0,0,1,0-2A3.79,3.79,0,0,1,106,204.88Z" transform="translate(-11.92 -8)"/><path class="cls-1" d="M115,199.69a1.05,1.05,0,0,1,0,2,3.85,3.85,0,0,1-3.44,0,1.05,1.05,0,0,1,0-2A3.85,3.85,0,0,1,115,199.69Z" transform="translate(-11.92 -8)"/><path class="cls-1" d="M124,194.51a1,1,0,0,1,0,2,3.79,3.79,0,0,1-3.44,0,1,1,0,0,1,0-2,3.79,3.79,0,0,1,3.44,0Z" transform="translate(-11.92 -8)"/><ellipse class="cls-1" cx="164.23" cy="156.39" rx="2.43" ry="1.4"/><ellipse class="cls-1" cx="173.21" cy="151.21" rx="2.43" ry="1.4"/><path class="cls-1" d="M195.83,153a1,1,0,0,1,0,2,3.77,3.77,0,0,1-3.43,0,1,1,0,0,1,0-2A3.77,3.77,0,0,1,195.83,153Z" transform="translate(-11.92 -8)"/><path class="cls-1" d="M204.81,147.84a1.05,1.05,0,0,1,0,2,3.77,3.77,0,0,1-3.43,0,1.05,1.05,0,0,1,0-2A3.83,3.83,0,0,1,204.81,147.84Z" transform="translate(-11.92 -8)"/><path class="cls-1" d="M79.09,210.06a1.05,1.05,0,0,1,0,2,3.85,3.85,0,0,1-3.44,0,1.05,1.05,0,0,1,0-2A3.85,3.85,0,0,1,79.09,210.06Z" transform="translate(-11.92 -8)"/><ellipse class="cls-1" cx="74.43" cy="197.87" rx="2.43" ry="1.4"/><ellipse class="cls-1" cx="83.41" cy="192.69" rx="2.43" ry="1.4"/><ellipse class="cls-1" cx="92.39" cy="187.5" rx="2.43" ry="1.4"/><ellipse class="cls-1" cx="101.37" cy="182.31" rx="2.43" ry="1.4"/><path class="cls-1" d="M177.87,153a1,1,0,0,1,0,2,3.77,3.77,0,0,1-3.43,0,1,1,0,0,1,0-2A3.77,3.77,0,0,1,177.87,153Z" transform="translate(-11.92 -8)"/><path class="cls-1" d="M186.85,147.84a1.05,1.05,0,0,1,0,2,3.77,3.77,0,0,1-3.43,0,1.05,1.05,0,0,1,0-2A3.83,3.83,0,0,1,186.85,147.84Z" transform="translate(-11.92 -8)"/><path class="cls-1" d="M195.83,142.66a1,1,0,0,1,0,2,3.77,3.77,0,0,1-3.43,0,1,1,0,0,1,0-2A3.77,3.77,0,0,1,195.83,142.66Z" transform="translate(-11.92 -8)"/><ellipse class="cls-1" cx="65.45" cy="192.69" rx="2.43" ry="1.4"/><path class="cls-1" d="M88.07,194.51a1,1,0,0,1,0,2,3.79,3.79,0,0,1-3.44,0,1,1,0,0,1,0-2A3.79,3.79,0,0,1,88.07,194.51Z" transform="translate(-11.92 -8)"/><path class="cls-1" d="M97.05,189.32a1.05,1.05,0,0,1,0,2,3.85,3.85,0,0,1-3.44,0,1.05,1.05,0,0,1,0-2A3.85,3.85,0,0,1,97.05,189.32Z" transform="translate(-11.92 -8)"/><path class="cls-1" d="M106,184.14a1,1,0,0,1,0,2,3.79,3.79,0,0,1-3.44,0,1,1,0,0,1,0-2A3.79,3.79,0,0,1,106,184.14Z" transform="translate(-11.92 -8)"/><path class="cls-1" d="M177.87,142.66a1,1,0,0,1,0,2,3.77,3.77,0,0,1-3.43,0C173.49,144.09,176.92,142.11,177.87,142.66Z" transform="translate(-11.92 -8)"/><path class="cls-1" d="M186.85,137.47a1.05,1.05,0,0,1,0,2,3.77,3.77,0,0,1-3.43,0C182.47,138.91,185.9,136.93,186.85,137.47Z" transform="translate(-11.92 -8)"/><path class="cls-1" d="M70.1,194.51a1,1,0,0,1,0,2,3.77,3.77,0,0,1-3.43,0,1,1,0,0,1,0-2A3.77,3.77,0,0,1,70.1,194.51Z" transform="translate(-11.92 -8)"/><path class="cls-1" d="M79.09,189.32a1.05,1.05,0,0,1,0,2,3.85,3.85,0,0,1-3.44,0,1.05,1.05,0,0,1,0-2A3.85,3.85,0,0,1,79.09,189.32Z" transform="translate(-11.92 -8)"/><path class="cls-1" d="M88.07,184.14a1,1,0,0,1,0,2,3.79,3.79,0,0,1-3.44,0,1,1,0,0,1,0-2A3.79,3.79,0,0,1,88.07,184.14Z" transform="translate(-11.92 -8)"/><ellipse class="cls-1" cx="83.41" cy="171.95" rx="2.43" ry="1.4"/><path class="cls-1" d="M106,173.77a1,1,0,0,1,0,2,3.79,3.79,0,0,1-3.44,0,1,1,0,0,1,0-2,3.79,3.79,0,0,1,3.44,0Z" transform="translate(-11.92 -8)"/><ellipse class="cls-1" cx="47.49" cy="182.31" rx="2.43" ry="1.4"/><path class="cls-1" d="M70.1,184.14a1,1,0,0,1,0,2,3.77,3.77,0,0,1-3.43,0,1,1,0,0,1,0-2A3.77,3.77,0,0,1,70.1,184.14Z" transform="translate(-11.92 -8)"/><path class="cls-1" d="M79.09,179a1.05,1.05,0,0,1,0,2,3.85,3.85,0,0,1-3.44,0,1.05,1.05,0,0,1,0-2A3.85,3.85,0,0,1,79.09,179Z" transform="translate(-11.92 -8)"/><ellipse class="cls-1" cx="74.43" cy="166.76" rx="2.43" ry="1.4"/><ellipse class="cls-1" cx="83.41" cy="161.58" rx="2.43" ry="1.4"/><path class="cls-1" d="M61.05,178.9a1,1,0,0,1,0,2,3.79,3.79,0,0,1-3.44,0,1,1,0,0,1,0-2A3.79,3.79,0,0,1,61.05,178.9Z" transform="translate(-11.92 -8)"/><ellipse class="cls-1" cx="56.39" cy="166.71" rx="2.43" ry="1.4"/><ellipse class="cls-1" cx="65.37" cy="161.52" rx="2.43" ry="1.4"/><path class="cls-1" d="M88,163.34a1.05,1.05,0,0,1,0,2,3.79,3.79,0,0,1-3.44,0,1.05,1.05,0,0,1,0-2A3.85,3.85,0,0,1,88,163.34Z" transform="translate(-11.92 -8)"/><ellipse class="cls-1" cx="38.43" cy="166.71" rx="2.43" ry="1.4"/><path class="cls-1" d="M61.05,168.53a1,1,0,0,1,0,2,3.79,3.79,0,0,1-3.44,0,1,1,0,0,1,0-2A3.79,3.79,0,0,1,61.05,168.53Z" transform="translate(-11.92 -8)"/><path class="cls-1" d="M70,163.34a1.05,1.05,0,0,1,0,2,3.79,3.79,0,0,1-3.44,0,1.05,1.05,0,0,1,0-2A3.85,3.85,0,0,1,70,163.34Z" transform="translate(-11.92 -8)"/><ellipse class="cls-1" cx="65.37" cy="151.15" rx="2.43" ry="1.4"/><path class="cls-1" d="M88,155a3.79,3.79,0,0,1-3.44,0,1,1,0,0,1,0-2A3.79,3.79,0,0,1,88,153,1,1,0,0,1,88,155Z" transform="translate(-11.92 -8)"/><path class="cls-1" d="M43.09,168.53a1,1,0,0,1,0,2,3.79,3.79,0,0,1-3.44,0,1,1,0,0,1,0-2A3.79,3.79,0,0,1,43.09,168.53Z" transform="translate(-11.92 -8)"/><path class="cls-1" d="M52.07,163.34a1.05,1.05,0,0,1,0,2,3.79,3.79,0,0,1-3.44,0,1.05,1.05,0,0,1,0-2A3.85,3.85,0,0,1,52.07,163.34Z" transform="translate(-11.92 -8)"/><ellipse class="cls-1" cx="47.41" cy="151.15" rx="2.43" ry="1.4"/><path class="cls-1" d="M70,153a1,1,0,0,1,0,2,3.79,3.79,0,0,1-3.44,0,1,1,0,0,1,0-2A3.79,3.79,0,0,1,70,153Z" transform="translate(-11.92 -8)"/><path class="cls-1" d="M79,147.79a1,1,0,0,1,0,2,3.79,3.79,0,0,1-3.44,0,1,1,0,0,1,0-2A3.79,3.79,0,0,1,79,147.79Z" transform="translate(-11.92 -8)"/><ellipse class="cls-1" cx="29.45" cy="151.15" rx="2.43" ry="1.4"/><ellipse class="cls-1" cx="38.43" cy="145.97" rx="2.43" ry="1.4"/><ellipse class="cls-1" cx="47.41" cy="140.78" rx="2.43" ry="1.4"/><path class="cls-1" d="M70,142.61a1,1,0,0,1,0,2,3.79,3.79,0,0,1-3.44,0,1,1,0,0,1,0-2A3.79,3.79,0,0,1,70,142.61Z" transform="translate(-11.92 -8)"/><path class="cls-1" d="M79,139.4a3.79,3.79,0,0,1-3.44,0,1,1,0,0,1,0-2C76.52,136.87,80,138.86,79,139.4Z" transform="translate(-11.92 -8)"/><ellipse class="cls-1" cx="29.45" cy="140.78" rx="2.43" ry="1.4"/><path class="cls-1" d="M52.07,142.61a1,1,0,0,1,0,2,3.79,3.79,0,0,1-3.44,0,1,1,0,0,1,0-2A3.79,3.79,0,0,1,52.07,142.61Z" transform="translate(-11.92 -8)"/><path class="cls-1" d="M61.05,137.42a1,1,0,0,1,0,2,3.79,3.79,0,0,1-3.44,0,1,1,0,0,1,0-2A3.79,3.79,0,0,1,61.05,137.42Z" transform="translate(-11.92 -8)"/><path class="cls-1" d="M70,132.24a1,1,0,0,1,0,2,3.79,3.79,0,0,1-3.44,0,1,1,0,0,1,0-2A3.79,3.79,0,0,1,70,132.24Z" transform="translate(-11.92 -8)"/><path class="cls-1" d="M34.11,142.61a1,1,0,0,1,0,2,3.79,3.79,0,0,1-3.44,0,1,1,0,0,1,0-2A3.79,3.79,0,0,1,34.11,142.61Z" transform="translate(-11.92 -8)"/><path class="cls-1" d="M43.09,137.42a1,1,0,0,1,0,2,3.79,3.79,0,0,1-3.44,0,1,1,0,0,1,0-2A3.79,3.79,0,0,1,43.09,137.42Z" transform="translate(-11.92 -8)"/><path class="cls-1" d="M52.07,132.24a1,1,0,0,1,0,2,3.79,3.79,0,0,1-3.44,0,1,1,0,0,1,0-2A3.79,3.79,0,0,1,52.07,132.24Z" transform="translate(-11.92 -8)"/><path class="cls-1" d="M61.05,127.05a1,1,0,0,1,0,2,3.79,3.79,0,0,1-3.44,0,1,1,0,0,1,0-2A3.79,3.79,0,0,1,61.05,127.05Z" transform="translate(-11.92 -8)"/><path class="cls-1" d="M25.13,137.42a1,1,0,0,1,0,2,3.79,3.79,0,0,1-3.44,0,1,1,0,0,1,0-2A3.79,3.79,0,0,1,25.13,137.42Z" transform="translate(-11.92 -8)"/><ellipse class="cls-1" cx="20.47" cy="125.23" rx="2.43" ry="1.4"/><ellipse class="cls-1" cx="29.45" cy="120.04" rx="2.43" ry="1.4"/><path class="cls-1" d="M52.07,121.87a1,1,0,0,1,0,2,3.79,3.79,0,0,1-3.44,0,1,1,0,0,1,0-2A3.79,3.79,0,0,1,52.07,121.87Z" transform="translate(-11.92 -8)"/><path class="cls-1" d="M61.05,118.66a3.79,3.79,0,0,1-3.44,0,1,1,0,0,1,0-2C58.56,116.13,62,118.12,61.05,118.66Z" transform="translate(-11.92 -8)"/><path class="cls-1" d="M25.13,127.05a1,1,0,0,1,0,2,3.79,3.79,0,0,1-3.44,0,1,1,0,0,1,0-2A3.79,3.79,0,0,1,25.13,127.05Z" transform="translate(-11.92 -8)"/><ellipse class="cls-1" cx="20.47" cy="114.86" rx="2.43" ry="1.4"/><path class="cls-1" d="M43.09,116.68a1,1,0,0,1,0,2,3.79,3.79,0,0,1-3.44,0,1,1,0,0,1,0-2A3.79,3.79,0,0,1,43.09,116.68Z" transform="translate(-11.92 -8)"/><path class="cls-1" d="M52.07,111.5a1,1,0,0,1,0,2,3.79,3.79,0,0,1-3.44,0,1,1,0,0,1,0-2,3.79,3.79,0,0,1,3.44,0Z" transform="translate(-11.92 -8)"/><path class="cls-1" d="M25.05,116.63a1,1,0,0,1,0,2,3.79,3.79,0,0,1-3.44,0,1,1,0,0,1,0-2A3.79,3.79,0,0,1,25.05,116.63Z" transform="translate(-11.92 -8)"/><path class="cls-1" d="M34,111.44a1,1,0,0,1,0,2,3.79,3.79,0,0,1-3.44,0,1,1,0,0,1,0-2A3.79,3.79,0,0,1,34,111.44Z" transform="translate(-11.92 -8)"/><ellipse class="cls-1" cx="29.37" cy="99.25" rx="2.43" ry="1.4"/><path class="cls-1" d="M16.07,111.44a1,1,0,0,1,0,2,3.79,3.79,0,0,1-3.44,0,1,1,0,0,1,0-2A3.79,3.79,0,0,1,16.07,111.44Z" transform="translate(-11.92 -8)"/><path class="cls-1" d="M25.05,106.26a1,1,0,0,1,0,2,3.79,3.79,0,0,1-3.44,0,1,1,0,0,1,0-2A3.79,3.79,0,0,1,25.05,106.26Z" transform="translate(-11.92 -8)"/><path class="cls-1" d="M34,101.07a1.05,1.05,0,0,1,0,2,3.85,3.85,0,0,1-3.44,0,1.05,1.05,0,0,1,0-2A3.79,3.79,0,0,1,34,101.07Z" transform="translate(-11.92 -8)"/><path class="cls-1" d="M16.07,101.07a1.05,1.05,0,0,1,0,2,3.85,3.85,0,0,1-3.44,0,1.05,1.05,0,0,1,0-2A3.79,3.79,0,0,1,16.07,101.07Z" transform="translate(-11.92 -8)"/><path class="cls-1" d="M25.05,95.89a1,1,0,0,1,0,2,3.79,3.79,0,0,1-3.44,0,1,1,0,0,1,0-2A3.79,3.79,0,0,1,25.05,95.89Z" transform="translate(-11.92 -8)"/><path class="cls-1" d="M34,92.69a3.85,3.85,0,0,1-3.44,0,1.05,1.05,0,0,1,0-2C31.54,90.16,35,92.14,34,92.69Z" transform="translate(-11.92 -8)"/><ellipse class="cls-1" cx="110.7" cy="228.15" rx="2.43" ry="1.4"/><path class="cls-1" d="M133.32,230a1.05,1.05,0,0,1,0,2,3.83,3.83,0,0,1-3.43,0,1.05,1.05,0,0,1,0-2A3.83,3.83,0,0,1,133.32,230Z" transform="translate(-11.92 -8)"/><ellipse class="cls-1" cx="128.66" cy="217.78" rx="2.43" ry="1.4"/><path class="cls-1" d="M151.28,219.6a1.05,1.05,0,0,1,0,2,3.83,3.83,0,0,1-3.43,0,1.05,1.05,0,0,1,0-2A3.83,3.83,0,0,1,151.28,219.6Z" transform="translate(-11.92 -8)"/><path class="cls-1" d="M160.26,214.42a1,1,0,0,1,0,2,3.77,3.77,0,0,1-3.43,0,1,1,0,0,1,0-2A3.77,3.77,0,0,1,160.26,214.42Z" transform="translate(-11.92 -8)"/><path class="cls-1" d="M169.24,209.23a1.05,1.05,0,0,1,0,2,3.83,3.83,0,0,1-3.43,0,1.05,1.05,0,0,1,0-2A3.83,3.83,0,0,1,169.24,209.23Z" transform="translate(-11.92 -8)"/><ellipse class="cls-1" cx="164.58" cy="197.04" rx="2.43" ry="1.4"/><ellipse class="cls-1" cx="173.56" cy="191.86" rx="2.43" ry="1.4"/><ellipse class="cls-1" cx="182.54" cy="186.67" rx="2.43" ry="1.4"/><path class="cls-1" d="M232.1,172.94a1,1,0,0,1,0,2,3.77,3.77,0,0,1-3.43,0,1,1,0,0,1,0-2A3.77,3.77,0,0,1,232.1,172.94Z" transform="translate(-11.92 -8)"/><path class="cls-1" d="M241.09,167.75a1.05,1.05,0,0,1,0,2,3.85,3.85,0,0,1-3.44,0,1.05,1.05,0,0,1,0-2A3.85,3.85,0,0,1,241.09,167.75Z" transform="translate(-11.92 -8)"/><path class="cls-1" d="M106.38,235.16a1,1,0,0,1,0,2,3.79,3.79,0,0,1-3.44,0,1,1,0,0,1,0-2A3.79,3.79,0,0,1,106.38,235.16Z" transform="translate(-11.92 -8)"/><path class="cls-1" d="M115.36,230a1.05,1.05,0,0,1,0,2,3.85,3.85,0,0,1-3.44,0,1.05,1.05,0,0,1,0-2A3.85,3.85,0,0,1,115.36,230Z" transform="translate(-11.92 -8)"/><path class="cls-1" d="M124.34,224.79a1,1,0,0,1,0,2,3.79,3.79,0,0,1-3.44,0,1,1,0,0,1,0-2A3.79,3.79,0,0,1,124.34,224.79Z" transform="translate(-11.92 -8)"/><path class="cls-1" d="M133.32,219.6a1.05,1.05,0,0,1,0,2,3.83,3.83,0,0,1-3.43,0,1.05,1.05,0,0,1,0-2A3.83,3.83,0,0,1,133.32,219.6Z" transform="translate(-11.92 -8)"/><ellipse class="cls-1" cx="128.66" cy="207.41" rx="2.43" ry="1.4"/><path class="cls-1" d="M151.28,209.23a1.05,1.05,0,0,1,0,2,3.83,3.83,0,0,1-3.43,0,1.05,1.05,0,0,1,0-2A3.83,3.83,0,0,1,151.28,209.23Z" transform="translate(-11.92 -8)"/><ellipse class="cls-1" cx="146.62" cy="197.04" rx="2.43" ry="1.4"/><ellipse class="cls-1" cx="155.6" cy="191.86" rx="2.43" ry="1.4"/><path class="cls-1" d="M178.22,193.68a1,1,0,0,1,0,2,3.77,3.77,0,0,1-3.43,0,1,1,0,0,1,0-2A3.77,3.77,0,0,1,178.22,193.68Z" transform="translate(-11.92 -8)"/><ellipse class="cls-1" cx="173.56" cy="181.49" rx="2.43" ry="1.4"/><path class="cls-1" d="M196.18,183.31a1,1,0,0,1,0,2,3.77,3.77,0,0,1-3.43,0,1,1,0,0,1,0-2A3.77,3.77,0,0,1,196.18,183.31Z" transform="translate(-11.92 -8)"/><path class="cls-1" d="M214.14,172.94a1,1,0,0,1,0,2,3.77,3.77,0,0,1-3.43,0,1,1,0,0,1,0-2A3.77,3.77,0,0,1,214.14,172.94Z" transform="translate(-11.92 -8)"/><ellipse class="cls-1" cx="209.49" cy="160.75" rx="2.43" ry="1.4"/><path class="cls-1" d="M232.1,162.57a1,1,0,0,1,0,2,3.77,3.77,0,0,1-3.43,0,1,1,0,0,1,0-2A3.77,3.77,0,0,1,232.1,162.57Z" transform="translate(-11.92 -8)"/><ellipse class="cls-1" cx="83.76" cy="222.96" rx="2.43" ry="1.4"/><path class="cls-1" d="M106.38,224.79a1,1,0,0,1,0,2,3.79,3.79,0,0,1-3.44,0,1,1,0,0,1,0-2A3.79,3.79,0,0,1,106.38,224.79Z" transform="translate(-11.92 -8)"/><path class="cls-1" d="M115.36,219.6a1.05,1.05,0,0,1,0,2,3.85,3.85,0,0,1-3.44,0,1.05,1.05,0,0,1,0-2A3.85,3.85,0,0,1,115.36,219.6Z" transform="translate(-11.92 -8)"/><path class="cls-1" d="M124.34,214.42a1,1,0,0,1,0,2,3.79,3.79,0,0,1-3.44,0,1,1,0,0,1,0-2A3.79,3.79,0,0,1,124.34,214.42Z" transform="translate(-11.92 -8)"/><path class="cls-1" d="M133.32,209.23a1.05,1.05,0,0,1,0,2,3.83,3.83,0,0,1-3.43,0,1.05,1.05,0,0,1,0-2A3.83,3.83,0,0,1,133.32,209.23Z" transform="translate(-11.92 -8)"/><path class="cls-1" d="M142.3,204.05a1,1,0,0,1,0,2,3.77,3.77,0,0,1-3.43,0,1,1,0,0,1,0-2A3.77,3.77,0,0,1,142.3,204.05Z" transform="translate(-11.92 -8)"/><ellipse class="cls-1" cx="137.64" cy="191.86" rx="2.43" ry="1.4"/><path class="cls-1" d="M160.26,193.68a1,1,0,0,1,0,2,3.77,3.77,0,0,1-3.43,0,1,1,0,0,1,0-2A3.77,3.77,0,0,1,160.26,193.68Z" transform="translate(-11.92 -8)"/><path class="cls-1" d="M169.24,188.49a1.05,1.05,0,0,1,0,2,3.83,3.83,0,0,1-3.43,0,1.05,1.05,0,0,1,0-2A3.83,3.83,0,0,1,169.24,188.49Z" transform="translate(-11.92 -8)"/><path class="cls-1" d="M178.22,183.31a1,1,0,0,1,0,2,3.77,3.77,0,0,1-3.43,0,1,1,0,0,1,0-2A3.77,3.77,0,0,1,178.22,183.31Z" transform="translate(-11.92 -8)"/><path class="cls-1" d="M187.2,178.12a1.05,1.05,0,0,1,0,2,3.83,3.83,0,0,1-3.43,0,1.05,1.05,0,0,1,0-2A3.83,3.83,0,0,1,187.2,178.12Z" transform="translate(-11.92 -8)"/><path class="cls-1" d="M196.18,172.94a1,1,0,0,1,0,2,3.77,3.77,0,0,1-3.43,0,1,1,0,0,1,0-2A3.77,3.77,0,0,1,196.18,172.94Z" transform="translate(-11.92 -8)"/><path class="cls-1" d="M205.16,167.75a1.05,1.05,0,0,1,0,2,3.83,3.83,0,0,1-3.43,0,1.05,1.05,0,0,1,0-2A3.83,3.83,0,0,1,205.16,167.75Z" transform="translate(-11.92 -8)"/><path class="cls-1" d="M214.14,162.57a1,1,0,0,1,0,2,3.77,3.77,0,0,1-3.43,0,1,1,0,0,1,0-2A3.77,3.77,0,0,1,214.14,162.57Z" transform="translate(-11.92 -8)"/><path class="cls-1" d="M223.12,157.38a1.05,1.05,0,0,1,0,2,3.83,3.83,0,0,1-3.43,0,1.05,1.05,0,0,1,0-2A3.83,3.83,0,0,1,223.12,157.38Z" transform="translate(-11.92 -8)"/><path class="cls-1" d="M97.4,219.6a1.05,1.05,0,0,1,0,2,3.85,3.85,0,0,1-3.44,0,1.05,1.05,0,0,1,0-2A3.85,3.85,0,0,1,97.4,219.6Z" transform="translate(-11.92 -8)"/><path class="cls-1" d="M106.38,214.42a1,1,0,0,1,0,2,3.79,3.79,0,0,1-3.44,0,1,1,0,0,1,0-2A3.79,3.79,0,0,1,106.38,214.42Z" transform="translate(-11.92 -8)"/><ellipse class="cls-1" cx="101.72" cy="202.22" rx="2.43" ry="1.4"/><ellipse class="cls-1" cx="110.7" cy="197.04" rx="2.43" ry="1.4"/><path class="cls-1" d="M133.32,198.86a1.05,1.05,0,0,1,0,2,3.83,3.83,0,0,1-3.43,0,1.05,1.05,0,0,1,0-2A3.83,3.83,0,0,1,133.32,198.86Z" transform="translate(-11.92 -8)"/><path class="cls-1" d="M138.87,193.68a3.77,3.77,0,0,1,3.43,0,1,1,0,0,1,0,2,3.77,3.77,0,0,1-3.43,0,1,1,0,0,1,0-2Z" transform="translate(-11.92 -8)"/><ellipse class="cls-1" cx="137.64" cy="181.49" rx="2.43" ry="1.4"/><ellipse class="cls-1" cx="164.58" cy="165.93" rx="2.43" ry="1.4"/><path class="cls-1" d="M187.2,167.75a1.05,1.05,0,0,1,0,2,3.83,3.83,0,0,1-3.43,0,1.05,1.05,0,0,1,0-2A3.83,3.83,0,0,1,187.2,167.75Z" transform="translate(-11.92 -8)"/><path class="cls-1" d="M196.18,162.57a1,1,0,0,1,0,2,3.77,3.77,0,0,1-3.43,0,1,1,0,0,1,0-2A3.77,3.77,0,0,1,196.18,162.57Z" transform="translate(-11.92 -8)"/><ellipse class="cls-1" cx="191.53" cy="150.38" rx="2.43" ry="1.4"/><path class="cls-1" d="M214.14,152.2a1,1,0,0,1,0,2,3.77,3.77,0,0,1-3.43,0,1,1,0,0,1,0-2A3.77,3.77,0,0,1,214.14,152.2Z" transform="translate(-11.92 -8)"/><path class="cls-1" d="M213.86,142.7a1.05,1.05,0,0,1,0,2,3.83,3.83,0,0,1-3.43,0,1.05,1.05,0,0,1,0-2A3.83,3.83,0,0,1,213.86,142.7Z" transform="translate(-11.92 -8)"/><path class="cls-1" d="M222.85,137.52a1,1,0,0,1,0,2,3.79,3.79,0,0,1-3.44,0,1,1,0,0,1,0-2A3.79,3.79,0,0,1,222.85,137.52Z" transform="translate(-11.92 -8)"/><path class="cls-1" d="M201.44,137.53a3.77,3.77,0,0,1,3.43,0c.95.55,1,1.44,0,2a3.82,3.82,0,0,1-3.44,0A1,1,0,0,1,201.44,137.53Z" transform="translate(-11.92 -8)"/><path class="cls-1" d="M213.86,134.32a3.83,3.83,0,0,1-3.43,0,1.05,1.05,0,0,1,0-2C211.38,131.79,214.81,133.77,213.86,134.32Z" transform="translate(-11.92 -8)"/><path class="cls-1" d="M192.46,132.34a3.77,3.77,0,0,1,3.43,0,1,1,0,0,1,0,2,3.79,3.79,0,0,1-3.44,0,1,1,0,0,1,0-2Z" transform="translate(-11.92 -8)"/><path class="cls-1" d="M246.69,162.62a3.79,3.79,0,0,1,3.44,0,1,1,0,0,1,0,2,3.77,3.77,0,0,1-3.43,0A1,1,0,0,1,246.69,162.62Z" transform="translate(-11.92 -8)"/><ellipse class="cls-1" cx="245.48" cy="150.42" rx="2.43" ry="1.4"/><ellipse class="cls-1" cx="254.46" cy="145.24" rx="2.43" ry="1.4"/><ellipse class="cls-1" cx="263.44" cy="140.05" rx="2.43" ry="1.4"/><ellipse class="cls-1" cx="272.42" cy="134.87" rx="2.43" ry="1.4"/><path class="cls-1" d="M295,136.69a1,1,0,0,1,0,2,3.77,3.77,0,0,1-3.43,0,1,1,0,0,1,0-2A3.77,3.77,0,0,1,295,136.69Z" transform="translate(-11.92 -8)"/><path class="cls-1" d="M237.71,157.43a3.82,3.82,0,0,1,3.44,0,1,1,0,0,1,0,2,3.8,3.8,0,0,1-3.43,0A1.05,1.05,0,0,1,237.71,157.43Z" transform="translate(-11.92 -8)"/><path class="cls-1" d="M250.14,152.24a1.05,1.05,0,0,1,0,2,3.85,3.85,0,0,1-3.44,0,1.05,1.05,0,0,1,0-2A3.85,3.85,0,0,1,250.14,152.24Z" transform="translate(-11.92 -8)"/><path class="cls-1" d="M259.12,147.06a1,1,0,0,1,0,2,3.79,3.79,0,0,1-3.44,0,1,1,0,0,1,0-2A3.79,3.79,0,0,1,259.12,147.06Z" transform="translate(-11.92 -8)"/><ellipse class="cls-1" cx="254.46" cy="134.87" rx="2.43" ry="1.4"/><ellipse class="cls-1" cx="263.44" cy="129.68" rx="2.43" ry="1.4"/><path class="cls-1" d="M286.06,131.5a1.05,1.05,0,0,1,0,2,3.83,3.83,0,0,1-3.43,0,1.05,1.05,0,0,1,0-2A3.83,3.83,0,0,1,286.06,131.5Z" transform="translate(-11.92 -8)"/><ellipse class="cls-1" cx="281.4" cy="119.31" rx="2.43" ry="1.4"/><path class="cls-1" d="M228.73,152.25a3.79,3.79,0,0,1,3.44,0,1,1,0,0,1,0,2,3.77,3.77,0,0,1-3.43,0A1,1,0,0,1,228.73,152.25Z" transform="translate(-11.92 -8)"/><path class="cls-1" d="M241.16,147.06a1,1,0,0,1,0,2,3.79,3.79,0,0,1-3.44,0,1,1,0,0,1,0-2A3.79,3.79,0,0,1,241.16,147.06Z" transform="translate(-11.92 -8)"/><ellipse class="cls-1" cx="236.5" cy="134.87" rx="2.43" ry="1.4"/><path class="cls-1" d="M259.12,136.69a1,1,0,0,1,0,2,3.79,3.79,0,0,1-3.44,0,1,1,0,0,1,0-2A3.79,3.79,0,0,1,259.12,136.69Z" transform="translate(-11.92 -8)"/><path class="cls-1" d="M268.1,131.5a1.05,1.05,0,0,1,0,2,3.85,3.85,0,0,1-3.44,0,1.05,1.05,0,0,1,0-2A3.85,3.85,0,0,1,268.1,131.5Z" transform="translate(-11.92 -8)"/><path class="cls-1" d="M277.08,126.32a1,1,0,0,1,0,2,3.79,3.79,0,0,1-3.44,0,1,1,0,0,1,0-2A3.79,3.79,0,0,1,277.08,126.32Z" transform="translate(-11.92 -8)"/><path class="cls-1" d="M286.06,121.13a1.05,1.05,0,0,1,0,2,3.77,3.77,0,0,1-3.43,0,1.05,1.05,0,0,1,0-2A3.83,3.83,0,0,1,286.06,121.13Z" transform="translate(-11.92 -8)"/><path class="cls-1" d="M219.75,147.07a3.79,3.79,0,0,1,3.44,0,1,1,0,0,1,0,2,3.8,3.8,0,0,1-3.43,0C218.81,148.5,218.8,147.61,219.75,147.07Z" transform="translate(-11.92 -8)"/><path class="cls-1" d="M232.18,141.87a1.05,1.05,0,0,1,0,2,3.85,3.85,0,0,1-3.44,0,1.05,1.05,0,0,1,0-2,3.85,3.85,0,0,1,3.44,0C233.13,142.42,231.23,141.33,232.18,141.87Z" transform="translate(-11.92 -8)"/><path class="cls-2" d="M233.6,94.2,198,82.2l-48.87,28.21,20.58,20.68-44.65,25.77L23.13,41.34,77.34,10l200.71,58.5ZM156.24,67.83,125.07,57.32q-10.48-3.45-26.79-9.12t-23-8.34q4.32,3.55,13.63,12.08T124.25,86.3Z" transform="translate(-11.92 -8)"/><polygon class="cls-2" points="11.21 33.34 11.21 82.19 113.15 197.71 113.15 148.86 11.21 33.34"/><polygon class="cls-2" points="221.68 86.2 221.68 135.05 186.09 123.05 186.09 74.2 221.68 86.2"/><path class="cls-3" d="M233.6,107.71,198,95.71l-48.87,28.21,20.58,20.67-44.65,25.78L23.13,54.85l54.21-31.3,200.71,58.5ZM156.24,81.33,125.07,70.82q-10.48-3.43-26.79-9.12t-23-8.34q4.32,3.57,13.63,12.09t35.34,34.36Z" transform="translate(-11.92 -8)"/><path class="cls-1" d="M122.92,87.64l1,1,36.87-21.29L125.66,55.52q-10.47-3.44-26.76-9.11C88.09,42.66,80.38,39.86,76,38.1L64.73,33.6l9.35,7.71c2.86,2.36,7.42,6.41,13.56,12S105.35,70.21,122.92,87.64Z" transform="translate(-11.92 -8)"/><path class="cls-1" d="M277.8,66.5,77.1,8,23.52,38.93l-2.28,1.32V90.9L123.18,206.43l1.5,1.69L127,206.8,171.61,181V148.48l26.6-15.36,33.5,11.29,2.1.7,1.69-1,44.44-25.66V67.12ZM123.18,200.71,25,89.48V46.34l89.6,101.54,8.56,9.7Zm108.53-60.29L199.9,129.69V84.83l31.81,10.73ZM199.9,80.84l-2.09-.7h0l-1.68,1L146.07,110l20.57,20.68-41.17,23.77-7.1-8L26.07,41.82,77.59,12.08l195.68,57-39.87,23Z" transform="translate(-11.92 -8)"/><polygon class="cls-2" points="161.9 135.7 158.12 137.84 158.12 123.02 161.9 120.88 161.9 135.7"/></g></svg>