<svg id="Layer_1" data-name="Layer 1" xmlns="http://www.w3.org/2000/svg" viewBox="0 0 684.18 346.34"><defs><style>.cls-1{fill:#39a1ff;}</style></defs><title>axie</title><path class="cls-1" d="M93.19,56.13C89,61.37,84.88,65.46,82.1,70.32c-5.92,10.38-3.84,19.82,7.1,24.43,13.79,5.82,28.38,9.91,42.88,13.83,15.77,4.26,31.81,7.56,47.77,11.08,4.91,1.07,7,3.19,6.76,8.63-1.71,48.92-3.15,97.85-4.64,146.77-.18,6.17-.32,12.34-.28,18.52,0,3.41-1.29,5.07-4.81,5.21-15.73.63-31.46,1.29-47.18,2.13-4.07.22-5.06-2.26-5.81-5.31-1.84-7.42-3.3-15-5.66-22.21-.91-2.77-3.4-5.93-6-7.08-7-3.1-14.44-5-21.55-7.79-4.56-1.78-7-.36-9.25,3.69-5.88,10.85-12.16,21.48-18,32.32-2.09,3.85-4.77,5.24-9.18,5.18-14.47-.18-28.95.09-43.43.14a29.93,29.93,0,0,1-6.36-.31c-6.07-1.33-8-5.51-5.6-11.15Q28.66,220,58.39,151.55c5.17-12,3.67-18.06-6.72-26.11s-21-15.34-31.74-22.56c-4.28-2.86-4.91-5.35-2.5-9.82,3.31-6.17,5.8-12.77,8.8-19.11,3.32-7,4-7.07,10-2.2.94.76,2,1.37,3.18,2.16,1.29-6.46,2.05-12.52,3.76-18.31C46.84,43,54.3,33.66,67.61,30.32c2-.5,5.26-.47,6.24.72C80.68,39.38,87.07,48.08,93.19,56.13Zm36.09,137.48h.64c-.46-7.41-.61-14.86-1.58-22.21-.28-2.17-2.5-4.78-4.54-5.84-2.92-1.53-6.58-2.74-9.73-2.39s-7.57,2.12-8.6,4.5c-4.63,10.67-8.34,21.74-12.16,32.75-1.38,4-.17,7.07,4.31,8.35,6.51,1.87,12.93,4.13,19.51,5.7,6.26,1.5,11.52-2.41,12.08-8.76C129.57,201.7,129.28,197.65,129.28,193.61Z" transform="translate(2.18 -14.77)"/><path class="cls-1" d="M633.57,236.24c10.84,0,21.69,0,32.54,0,10,0,15.72,7.58,12.25,16.83-4.11,10.94-8.39,21.82-13,32.58-1.9,4.49-1,7.15,3.29,9.22a52.77,52.77,0,0,1,9.32,5.51c1.8,1.38,4.21,3.89,4,5.55-.33,2.24-2.54,4.84-4.65,6-3.27,1.87-7.13,2.68-10.75,3.94-13.44,4.67-26.85,9.46-40.35,14-8.46,2.82-9.66,1.89-9.44-7.08s.64-17.85,1.3-26.76c.36-4.86-1-7.08-6.27-6.67-16.53,1.26-33.09,2.26-49.63,3.36-9.12.6-18.26,1-27.36,1.84-5.32.5-7.66-1.78-8.86-6.71-7.55-31.15-15.44-62.23-22.89-93.41-5.91-24.77-11.15-49.71-17.15-74.46-1.26-5.17.28-7.63,4.51-9.49,16.14-7.1,32.21-14.39,48.46-21.22q30.27-12.74,60.81-24.78c8.54-3.36,9.87-2.29,10.88,6.88,1.37,12.45,2.68,24.92,3.62,37.41a7.22,7.22,0,0,1-3,5.55c-13.2,7.83-23.13,18.73-30.44,32-2.63,4.77-5.4,5-9.75,2.77-4.53-2.32-9.28-4.22-14-6.13-3.93-1.59-6.31-.28-7.7,3.9-3,9.1.61,21.54,8.88,26.55,2,1.2,6.26.77,8.25-.64,3.75-2.66,6.67-6.51,9.8-10,2.3-2.56,4.55-3.3,7.77-1.4,12,7.05,25.14,10.12,38.83,11.34,3.71.34,5.81,1.46,4.95,6-1.25,6.67-1.36,13.56-2.8,20.17a10.82,10.82,0,0,1-5.33,6.69c-10.69,4.71-21.68,8.73-32.51,13.12-2.75,1.11-7,1.48-5.38,6.16,1.44,4.11,1.51,9.4,8.42,9.24,14.46-.33,28.92-.1,43.39-.1Z" transform="translate(2.18 -14.77)"/><path class="cls-1" d="M398.58,235.65c3.12,12.22,6.14,23.43,8.68,34.74.32,1.39-1.54,3.88-3,5-11,8.06-22.22,15.77-33.17,23.86-4.9,3.62-9.06,3.38-13.84-.22-18.18-13.7-36.66-27-54.7-40.89-5.32-4.09-8.75-4.53-13.91.47-16,15.54-32.63,30.5-49.51,46.15-2.77-2.3-5.26-4.17-7.53-6.28C220,287.72,208.63,276.85,197,266.22c-3.61-3.3-3.85-5.7-.36-9.43,12.08-12.89,23.74-26.18,35.76-39.13,2.81-3,3-5.2.74-8.78-10.11-16-19.87-32.23-29.73-48.4-.75-1.23-1.33-2.58-2.23-4.35,2-1.46,3.82-2.9,5.76-4.1,11.76-7.27,23.66-14.34,35.29-21.81,4.19-2.69,6.94-2.41,10.35,1.3,10.54,11.43,21.32,22.62,32.17,33.74,6.55,6.72,6.72,6.64,14.22.5,15.16-12.4,30.36-24.75,45.34-37.35,3.79-3.18,6.37-3.72,10.11.16,10.05,10.41,20.39,20.54,30.81,30.58,4.26,4.1,3.22,6.79-1,10.15-13.93,11.21-27.49,22.88-41.52,34-4.65,3.67-5.17,7-2.59,11.93a57.69,57.69,0,0,0,24.33,24.57c8.25,4.49,16.74,4.1,25.15.19C392.12,238.8,394.57,237.58,398.58,235.65Z" transform="translate(2.18 -14.77)"/><path class="cls-1" d="M481.68,277c.21,15.23.17,15.46-11.34,13.6-14.87-2.4-29.68-5.19-44.49-7.9-3.76-.69-6.49-2.32-7.25-6.78-2.43-14.22-5-28.43-8-42.53a21.86,21.86,0,0,1,2.31-15.8c7.46-14.24,10.9-29.29,8.46-45.54-.92-6.16-3.55-8.69-9.8-9-11.8-.52-11.79-.8-13.63-12.44-2.66-16.84-2.64-16.67,14.36-18.94,16.4-2.19,32.74-4.79,49.12-7.18,2.1-.31,4.24-.32,6.34-.62,3.56-.5,4.91,1,5.12,4.55.61,10,1.74,19.9,2.27,29.87,1.47,27.38,2.66,54.77,4.12,82.15C480,253.85,481,267.2,481.68,277Z" transform="translate(2.18 -14.77)"/><path class="cls-1" d="M484.36,64a29.25,29.25,0,0,1-2.76,4.56Q459.87,92.7,438,116.71c-3,3.33-6.88,3.79-10.28,1-17.27-14.4-34.4-29-51.54-43.53-3-2.53-3-5.62-.4-8.37q23.49-24.66,47.11-49.2c2.52-2.62,5-2.11,7.89-.21,19,12.38,35.75,27.39,51.07,44A32.25,32.25,0,0,1,484.36,64ZM445.1,74.32c-4.32-2.76-6.66-4.59-9.29-5.77-1.15-.52-2.89.27-4.37.46.37,1.43.27,3.57,1.18,4.17a147.36,147.36,0,0,0,13.17,7.64c3.72,1.93,6,.05,6-3.67-.18-8-.64-16.1-1.56-24.09-.45-4-3.22-5.52-6.88-2.87a90.63,90.63,0,0,0-7.3,6.15C429.83,61.87,423.76,67.51,417.5,73c-.9.78-2.57.69-3.88,1-.2-1.13-.91-3-.52-3.26,2.9-2,6-3.66,9.08-5.39,1.21-.68,3.1-1,3.55-1.94s-.42-3-1.34-3.6a107.69,107.69,0,0,0-12.57-7.46c-4.08-2-6.82-.23-6.68,4.33.24,7.62.62,15.26,1.55,22.82.58,4.71,3.8,6.27,7.66,3,7-5.91,13.58-12.22,20.4-18.3C437.21,62,439.83,60,444,56.52,444.4,63.07,444.69,67.69,445.1,74.32Z" transform="translate(2.18 -14.77)"/><path class="cls-1" d="M342.41,345.41c0,2.86,0,5.72,0,8.58,0,3.64.72,7.12-5.17,7.12-5.5,0-5.62-2.83-5.53-6.83.17-7.23-.14-14.48.23-21.69.13-2.31,1.25-5.9,2.84-6.53,3.35-1.31,7-.72,9.2,3.32s4.93,7.95,7.52,11.84c.75,1.12,1.82,2,4.51,2.75,0-4.53-.4-9.1.19-13.55.24-1.74,2.43-4.08,4.18-4.59,3.38-1,4.91,1.19,4.89,4.69-.06,8.08.21,16.17,0,24.25-.05,2-1.47,5.78-2,5.73-3.09-.3-7-.57-8.95-2.53-3.84-3.8-6.58-8.71-9.77-13.16Z" transform="translate(2.18 -14.77)"/><path class="cls-1" d="M251.93,360.42c-13.37,3.58-13.14-11.06-21.59-15.5-.18,3.6-.6,6.83-.45,10,.2,4.18-.93,6.18-5.66,6.12-4.55-.05-5.24-2.16-5.14-5.92.21-7.86,0-15.74.33-23.59.08-1.94,1.6-5.46,2.38-5.44,2.88.08,6.55.51,8.41,2.35,3.09,3.06,5,7.32,7.44,11,1.1,1.67,2.33,3.25,3.51,4.87l2.13-.4c0-4.53-.4-9.12.2-13.57.24-1.74,2.75-3.17,4.22-4.74,1.41,1.41,4,2.79,4,4.25C252.1,339.88,251.93,349.85,251.93,360.42Z" transform="translate(2.18 -14.77)"/><path class="cls-1" d="M456.7,360.36c8.51-11.11,3.8-19.45-4.16-27.35-1.78-1.76-3.09-4-4.27-7.76,3.67.47,7.87,0,10.87,1.68,3.26,1.82,5.4,5.64,8.78,9.44,3.13-8.2,7.32-13.7,17.19-9.63-1.62,3.64-3.24,7.41-4.95,11.13-2.13,4.64-4.35,9.23-6.51,13.85C468.92,361.84,468.93,361.84,456.7,360.36Z" transform="translate(2.18 -14.77)"/><path class="cls-1" d="M415,360.15c.38-6,.67-11.65,1.13-17.31.33-4-.59-6.74-5.41-6.17-3.95.47-5.16-1.51-5.14-5.22s.68-6.38,5-6.34c8,.09,16.12-.05,24.11.62,1.38.12,3.31,3.76,3.41,5.85.07,1.63-2.44,4.92-3.57,4.82-7-.62-8.4,3-7.77,8.8a61.1,61.1,0,0,1,0,6.35C426.77,361.9,426.62,362,415,360.15Z" transform="translate(2.18 -14.77)"/><path class="cls-1" d="M265.86,343.22l1.89-16.86c7.2-.21,14.4-.59,21.59-.46,1.08,0,3.17,2.63,2.94,3.62-.39,1.69-2,3.85-3.54,4.35-2.32.74-5.14-.18-7.58.36-1.64.36-3,2-4.48,3.08a29.85,29.85,0,0,0,3.53,3.66,31.88,31.88,0,0,0,4.5,2.44c-1.45.85-2.81,2.06-4.38,2.48-5.25,1.39-2.54,5.53-3.05,8.46s1.05,6.57-4.3,6.68c-4.68.1-7.34-.82-6.78-6.27.38-3.79.07-7.65.07-11.49Z" transform="translate(2.18 -14.77)"/><path class="cls-1" d="M379.11,343.37c0-4,.23-8.06-.06-12.06-.34-4.64,1.83-5.74,6-5.74s6.16,1.18,6,5.78q-.45,12.38,0,24.76c.16,4.82-2.57,4.87-6.06,4.88s-6.32-.14-6-4.93c.3-4.21.06-8.46.06-12.69Z" transform="translate(2.18 -14.77)"/><path class="cls-1" d="M317.1,325.9c0,10.9.21,21.23-.26,31.53-.06,1.26-3.8,3.2-5.86,3.23-1.66,0-4.75-2.29-4.81-3.67-.38-9.09-.73-18.27.13-27.3C307,322.28,312.94,326.81,317.1,325.9Z" transform="translate(2.18 -14.77)"/><path class="cls-1" d="M204.59,343.49c0,3.82-.16,7.65,0,11.46.22,4.14-.9,6.17-5.64,6.13-4.56,0-5.94-1.76-5.8-6,.26-8.06.35-16.13.22-24.19-.08-4.45,2.21-5.26,6-5.24s5.56,1.21,5.4,5.15c-.17,4.24,0,8.49,0,12.73Z" transform="translate(2.18 -14.77)"/><path class="cls-1" d="M377.22,221.37c-9.15-9.19-10.75-30-3.22-38.19C382,188.24,384.14,211.55,377.22,221.37Z" transform="translate(2.18 -14.77)"/></svg>