<svg id="Layer_1" data-name="Layer 1" xmlns="http://www.w3.org/2000/svg" viewBox="0 0 682.17 395.68"><defs><style>.cls-1{fill:#16110d;}.cls-2{fill:#39a1ff;}.cls-3{fill:#fec;}.cls-4{fill:#191410;}</style></defs><title>coins</title><path class="cls-1" d="M311.37,355.21c2.05,1.19,2.05,3.11,0,4.3a8.26,8.26,0,0,1-7.44,0c-2.05-1.19-2.05-3.11,0-4.3A8.26,8.26,0,0,1,311.37,355.21Z" transform="translate(-9.83 -10.48)"/><path class="cls-1" d="M330.82,344c2.05,1.19,2.05,3.11,0,4.3a8.26,8.26,0,0,1-7.44,0c-2.06-1.19-2.06-3.11,0-4.29A8.23,8.23,0,0,1,330.82,344Z" transform="translate(-9.83 -10.48)"/><ellipse class="cls-1" cx="336.71" cy="324.43" rx="5.26" ry="3.04"/><path class="cls-1" d="M369.71,321.53c2.05,1.19,2.05,3.11,0,4.3a8.26,8.26,0,0,1-7.44,0c-2-1.19-2-3.11,0-4.3A8.2,8.2,0,0,1,369.71,321.53Z" transform="translate(-9.83 -10.48)"/><path class="cls-1" d="M389.15,310.3c2.06,1.19,2.06,3.11,0,4.3a8.24,8.24,0,0,1-7.43,0c-2.06-1.19-2.06-3.11,0-4.3A8.24,8.24,0,0,1,389.15,310.3Z" transform="translate(-9.83 -10.48)"/><path class="cls-1" d="M408.6,299.08c2,1.18,2,3.1,0,4.29a8.2,8.2,0,0,1-7.44,0c-2.05-1.19-2.05-3.11,0-4.29A8.2,8.2,0,0,1,408.6,299.08Z" transform="translate(-9.83 -10.48)"/><path class="cls-1" d="M428.05,287.85c2.05,1.19,2.05,3.11,0,4.29a8.2,8.2,0,0,1-7.44,0c-2.06-1.18-2.06-3.1,0-4.29A8.2,8.2,0,0,1,428.05,287.85Z" transform="translate(-9.83 -10.48)"/><ellipse class="cls-1" cx="433.94" cy="268.29" rx="5.26" ry="3.04"/><path class="cls-1" d="M253,366.44c2.06,1.18,2.06,3.11,0,4.29a8.18,8.18,0,0,1-7.43,0c-2.06-1.18-2.06-3.11,0-4.29A8.18,8.18,0,0,1,253,366.44Z" transform="translate(-9.83 -10.48)"/><path class="cls-1" d="M272.48,355.21c2,1.19,2,3.11,0,4.3a8.26,8.26,0,0,1-7.44,0c-2.05-1.19-2.05-3.11,0-4.3A8.26,8.26,0,0,1,272.48,355.21Z" transform="translate(-9.83 -10.48)"/><path class="cls-1" d="M291.92,344c2.06,1.18,2.06,3.1,0,4.29a8.24,8.24,0,0,1-7.43,0c-2.06-1.19-2.06-3.11,0-4.29A8.18,8.18,0,0,1,291.92,344Z" transform="translate(-9.83 -10.48)"/><ellipse class="cls-1" cx="297.82" cy="324.43" rx="5.26" ry="3.04"/><path class="cls-1" d="M330.82,321.53c2.05,1.19,2.05,3.11,0,4.3a8.26,8.26,0,0,1-7.44,0c-2.06-1.19-2.06-3.11,0-4.3A8.2,8.2,0,0,1,330.82,321.53Z" transform="translate(-9.83 -10.48)"/><path class="cls-1" d="M350.26,310.3c2.06,1.19,2.06,3.11,0,4.3a8.26,8.26,0,0,1-7.44,0c-2.05-1.19-2.05-3.11,0-4.3A8.26,8.26,0,0,1,350.26,310.3Z" transform="translate(-9.83 -10.48)"/><path class="cls-1" d="M369.71,299.08c2.05,1.18,2.05,3.1,0,4.29a8.2,8.2,0,0,1-7.44,0c-2-1.19-2-3.11,0-4.29A8.2,8.2,0,0,1,369.71,299.08Z" transform="translate(-9.83 -10.48)"/><path class="cls-1" d="M389.15,287.85c2.06,1.19,2.06,3.11,0,4.29a8.18,8.18,0,0,1-7.43,0c-2.06-1.18-2.06-3.1,0-4.29A8.18,8.18,0,0,1,389.15,287.85Z" transform="translate(-9.83 -10.48)"/><path class="cls-1" d="M408.6,276.62c2,1.19,2,3.11,0,4.3a8.26,8.26,0,0,1-7.44,0c-2.05-1.19-2.05-3.11,0-4.3A8.26,8.26,0,0,1,408.6,276.62Z" transform="translate(-9.83 -10.48)"/><path class="cls-1" d="M428.05,265.4c2.05,1.18,2.05,3.1,0,4.29a8.26,8.26,0,0,1-7.44,0c-2.06-1.19-2.06-3.11,0-4.29A8.2,8.2,0,0,1,428.05,265.4Z" transform="translate(-9.83 -10.48)"/><path class="cls-1" d="M447.49,254.17c2.06,1.18,2.06,3.11,0,4.29a8.2,8.2,0,0,1-7.44,0c-2.05-1.18-2.05-3.11,0-4.29A8.2,8.2,0,0,1,447.49,254.17Z" transform="translate(-9.83 -10.48)"/><path class="cls-1" d="M466.94,242.94c2.05,1.19,2.05,3.11,0,4.3a8.26,8.26,0,0,1-7.44,0c-2.06-1.19-2.06-3.11,0-4.3A8.26,8.26,0,0,1,466.94,242.94Z" transform="translate(-9.83 -10.48)"/><path class="cls-1" d="M214.14,366.44c2.06,1.18,2.06,3.11,0,4.29a8.2,8.2,0,0,1-7.44,0c-2-1.18-2-3.11,0-4.29A8.2,8.2,0,0,1,214.14,366.44Z" transform="translate(-9.83 -10.48)"/><path class="cls-1" d="M233.59,355.21c2,1.19,2,3.11,0,4.3a8.26,8.26,0,0,1-7.44,0c-2.05-1.19-2.05-3.11,0-4.3A8.26,8.26,0,0,1,233.59,355.21Z" transform="translate(-9.83 -10.48)"/><path class="cls-1" d="M253,344c2.06,1.18,2.06,3.1,0,4.29a8.24,8.24,0,0,1-7.43,0c-2.06-1.19-2.06-3.11,0-4.29A8.18,8.18,0,0,1,253,344Z" transform="translate(-9.83 -10.48)"/><ellipse class="cls-1" cx="258.93" cy="324.43" rx="5.26" ry="3.04"/><path class="cls-1" d="M291.92,321.53c2.06,1.19,2.06,3.11,0,4.3a8.24,8.24,0,0,1-7.43,0c-2.06-1.19-2.06-3.11,0-4.3A8.18,8.18,0,0,1,291.92,321.53Z" transform="translate(-9.83 -10.48)"/><path class="cls-1" d="M311.37,310.3c2.05,1.19,2.05,3.11,0,4.3a8.26,8.26,0,0,1-7.44,0c-2.05-1.19-2.05-3.11,0-4.3A8.26,8.26,0,0,1,311.37,310.3Z" transform="translate(-9.83 -10.48)"/><path class="cls-1" d="M330.82,299.08c2.05,1.18,2.05,3.1,0,4.29a8.2,8.2,0,0,1-7.44,0c-2.06-1.19-2.06-3.11,0-4.29A8.2,8.2,0,0,1,330.82,299.08Z" transform="translate(-9.83 -10.48)"/><path class="cls-1" d="M350.26,287.85c2.06,1.19,2.06,3.11,0,4.29a8.2,8.2,0,0,1-7.44,0c-2.05-1.18-2.05-3.1,0-4.29A8.2,8.2,0,0,1,350.26,287.85Z" transform="translate(-9.83 -10.48)"/><path class="cls-1" d="M369.71,276.62c2.05,1.19,2.05,3.11,0,4.3a8.26,8.26,0,0,1-7.44,0c-2-1.19-2-3.11,0-4.3A8.26,8.26,0,0,1,369.71,276.62Z" transform="translate(-9.83 -10.48)"/><path class="cls-1" d="M389.15,265.4c2.06,1.18,2.06,3.1,0,4.29a8.24,8.24,0,0,1-7.43,0c-2.06-1.19-2.06-3.11,0-4.29A8.18,8.18,0,0,1,389.15,265.4Z" transform="translate(-9.83 -10.48)"/><path class="cls-1" d="M408.6,254.17c2,1.18,2,3.11,0,4.29a8.2,8.2,0,0,1-7.44,0c-2.05-1.18-2.05-3.11,0-4.29A8.2,8.2,0,0,1,408.6,254.17Z" transform="translate(-9.83 -10.48)"/><path class="cls-1" d="M428.05,242.94c2.05,1.19,2.05,3.11,0,4.3a8.26,8.26,0,0,1-7.44,0c-2.06-1.19-2.06-3.11,0-4.3A8.26,8.26,0,0,1,428.05,242.94Z" transform="translate(-9.83 -10.48)"/><ellipse class="cls-1" cx="433.94" cy="223.38" rx="5.26" ry="3.04"/><path class="cls-1" d="M466.94,220.49c2.05,1.18,2.05,3.11,0,4.29a8.2,8.2,0,0,1-7.44,0c-2.05-1.18-2.05-3.11,0-4.29A8.2,8.2,0,0,1,466.94,220.49Z" transform="translate(-9.83 -10.48)"/><path class="cls-1" d="M194.7,355.21c2.05,1.19,2.05,3.11,0,4.3a8.26,8.26,0,0,1-7.44,0c-2.06-1.19-2.06-3.11,0-4.3A8.26,8.26,0,0,1,194.7,355.21Z" transform="translate(-9.83 -10.48)"/><path class="cls-1" d="M214.14,344c2.06,1.18,2.06,3.1,0,4.29a8.26,8.26,0,0,1-7.44,0c-2-1.19-2-3.11,0-4.29A8.2,8.2,0,0,1,214.14,344Z" transform="translate(-9.83 -10.48)"/><path class="cls-1" d="M233.59,332.76c2,1.18,2,3.11,0,4.29a8.2,8.2,0,0,1-7.44,0c-2.05-1.18-2.05-3.11,0-4.29A8.2,8.2,0,0,1,233.59,332.76Z" transform="translate(-9.83 -10.48)"/><path class="cls-1" d="M253,321.53c2.06,1.19,2.06,3.11,0,4.3a8.24,8.24,0,0,1-7.43,0c-2.06-1.19-2.06-3.11,0-4.3A8.18,8.18,0,0,1,253,321.53Z" transform="translate(-9.83 -10.48)"/><path class="cls-1" d="M272.48,310.3c2,1.19,2,3.11,0,4.3a8.26,8.26,0,0,1-7.44,0c-2.05-1.19-2.05-3.11,0-4.3A8.26,8.26,0,0,1,272.48,310.3Z" transform="translate(-9.83 -10.48)"/><path class="cls-1" d="M291.92,299.08c2.06,1.18,2.06,3.1,0,4.29a8.18,8.18,0,0,1-7.43,0c-2.06-1.19-2.06-3.11,0-4.29A8.18,8.18,0,0,1,291.92,299.08Z" transform="translate(-9.83 -10.48)"/><path class="cls-1" d="M311.37,287.85c2.05,1.19,2.05,3.11,0,4.29a8.2,8.2,0,0,1-7.44,0c-2.05-1.18-2.05-3.1,0-4.29A8.2,8.2,0,0,1,311.37,287.85Z" transform="translate(-9.83 -10.48)"/><path class="cls-1" d="M330.82,276.62c2.05,1.19,2.05,3.11,0,4.3a8.26,8.26,0,0,1-7.44,0c-2.06-1.19-2.06-3.11,0-4.3A8.26,8.26,0,0,1,330.82,276.62Z" transform="translate(-9.83 -10.48)"/><path class="cls-1" d="M350.26,265.4c2.06,1.18,2.06,3.1,0,4.29a8.26,8.26,0,0,1-7.44,0c-2.05-1.19-2.05-3.11,0-4.29A8.2,8.2,0,0,1,350.26,265.4Z" transform="translate(-9.83 -10.48)"/><path class="cls-1" d="M369.71,254.17c2.05,1.18,2.05,3.11,0,4.29a8.2,8.2,0,0,1-7.44,0c-2-1.18-2-3.11,0-4.29A8.2,8.2,0,0,1,369.71,254.17Z" transform="translate(-9.83 -10.48)"/><path class="cls-1" d="M389.15,242.94c2.06,1.19,2.06,3.11,0,4.3a8.24,8.24,0,0,1-7.43,0c-2.06-1.19-2.06-3.11,0-4.3A8.24,8.24,0,0,1,389.15,242.94Z" transform="translate(-9.83 -10.48)"/><path class="cls-1" d="M408.6,231.71c2,1.19,2,3.11,0,4.3a8.26,8.26,0,0,1-7.44,0c-2.05-1.19-2.05-3.11,0-4.3A8.26,8.26,0,0,1,408.6,231.71Z" transform="translate(-9.83 -10.48)"/><path class="cls-1" d="M428.05,220.49c2.05,1.18,2.05,3.11,0,4.29a8.2,8.2,0,0,1-7.44,0c-2.06-1.18-2.06-3.11,0-4.29A8.2,8.2,0,0,1,428.05,220.49Z" transform="translate(-9.83 -10.48)"/><path class="cls-1" d="M447.49,209.26c2.06,1.19,2.06,3.11,0,4.29a8.18,8.18,0,0,1-7.43,0c-2.06-1.18-2.06-3.1,0-4.29A8.18,8.18,0,0,1,447.49,209.26Z" transform="translate(-9.83 -10.48)"/><path class="cls-1" d="M466.94,198c2.05,1.19,2.05,3.11,0,4.3a8.26,8.26,0,0,1-7.44,0c-2.05-1.19-2.05-3.11,0-4.3A8.26,8.26,0,0,1,466.94,198Z" transform="translate(-9.83 -10.48)"/><path class="cls-1" d="M155.8,355.21c2.06,1.19,2.06,3.11,0,4.3a8.24,8.24,0,0,1-7.43,0c-2.06-1.19-2.06-3.11,0-4.3A8.24,8.24,0,0,1,155.8,355.21Z" transform="translate(-9.83 -10.48)"/><path class="cls-1" d="M175.25,344c2.05,1.18,2.05,3.1,0,4.29a8.26,8.26,0,0,1-7.44,0c-2.05-1.19-2.05-3.11,0-4.29A8.2,8.2,0,0,1,175.25,344Z" transform="translate(-9.83 -10.48)"/><ellipse class="cls-1" cx="181.15" cy="324.43" rx="5.26" ry="3.04"/><path class="cls-1" d="M214.14,321.53c2.06,1.19,2.06,3.11,0,4.3a8.26,8.26,0,0,1-7.44,0c-2-1.19-2-3.11,0-4.3A8.26,8.26,0,0,1,214.14,321.53Z" transform="translate(-9.83 -10.48)"/><path class="cls-1" d="M233.59,310.3c2,1.19,2,3.11,0,4.3a8.26,8.26,0,0,1-7.44,0c-2.05-1.19-2.05-3.11,0-4.3A8.26,8.26,0,0,1,233.59,310.3Z" transform="translate(-9.83 -10.48)"/><path class="cls-1" d="M253,299.08c2.06,1.18,2.06,3.1,0,4.29a8.18,8.18,0,0,1-7.43,0c-2.06-1.19-2.06-3.11,0-4.29A8.18,8.18,0,0,1,253,299.08Z" transform="translate(-9.83 -10.48)"/><path class="cls-1" d="M408.6,209.26c2,1.19,2,3.11,0,4.29a8.2,8.2,0,0,1-7.44,0c-2.05-1.18-2.05-3.1,0-4.29A8.2,8.2,0,0,1,408.6,209.26Z" transform="translate(-9.83 -10.48)"/><path class="cls-1" d="M428.05,198c2.05,1.19,2.05,3.11,0,4.3a8.26,8.26,0,0,1-7.44,0c-2.06-1.19-2.06-3.11,0-4.3A8.26,8.26,0,0,1,428.05,198Z" transform="translate(-9.83 -10.48)"/><path class="cls-1" d="M447.49,186.81c2.06,1.18,2.06,3.1,0,4.29a8.18,8.18,0,0,1-7.43,0c-2.06-1.19-2.06-3.11,0-4.29A8.18,8.18,0,0,1,447.49,186.81Z" transform="translate(-9.83 -10.48)"/><path class="cls-1" d="M136.36,344c2,1.18,2,3.1,0,4.29a8.26,8.26,0,0,1-7.44,0c-2-1.19-2-3.11,0-4.29A8.2,8.2,0,0,1,136.36,344Z" transform="translate(-9.83 -10.48)"/><path class="cls-1" d="M155.8,332.76c2.06,1.18,2.06,3.11,0,4.29a8.18,8.18,0,0,1-7.43,0c-2.06-1.18-2.06-3.11,0-4.29A8.18,8.18,0,0,1,155.8,332.76Z" transform="translate(-9.83 -10.48)"/><path class="cls-1" d="M175.25,321.53c2.05,1.19,2.05,3.11,0,4.3a8.26,8.26,0,0,1-7.44,0c-2.05-1.19-2.05-3.11,0-4.3A8.26,8.26,0,0,1,175.25,321.53Z" transform="translate(-9.83 -10.48)"/><ellipse class="cls-1" cx="181.15" cy="301.97" rx="5.26" ry="3.04"/><path class="cls-1" d="M214.14,299.08c2.06,1.18,2.06,3.1,0,4.29a8.2,8.2,0,0,1-7.44,0c-2-1.19-2-3.11,0-4.29A8.2,8.2,0,0,1,214.14,299.08Z" transform="translate(-9.83 -10.48)"/><path class="cls-1" d="M408.6,186.81c2,1.18,2,3.1,0,4.29a8.2,8.2,0,0,1-7.44,0c-2.05-1.19-2.05-3.11,0-4.29A8.2,8.2,0,0,1,408.6,186.81Z" transform="translate(-9.83 -10.48)"/><path class="cls-1" d="M428.05,175.58c2.05,1.19,2.05,3.11,0,4.29a8.2,8.2,0,0,1-7.44,0c-2.05-1.18-2.05-3.1,0-4.29A8.2,8.2,0,0,1,428.05,175.58Z" transform="translate(-9.83 -10.48)"/><path class="cls-1" d="M116.91,332.76c2.06,1.18,2.06,3.11,0,4.29a8.18,8.18,0,0,1-7.43,0c-2.06-1.18-2.06-3.11,0-4.29A8.18,8.18,0,0,1,116.91,332.76Z" transform="translate(-9.83 -10.48)"/><path class="cls-1" d="M136.36,321.53c2,1.19,2,3.11,0,4.3a8.26,8.26,0,0,1-7.44,0c-2-1.19-2-3.11,0-4.3A8.26,8.26,0,0,1,136.36,321.53Z" transform="translate(-9.83 -10.48)"/><path class="cls-1" d="M155.8,310.3c2.06,1.19,2.06,3.11,0,4.3a8.24,8.24,0,0,1-7.43,0c-2.06-1.19-2.06-3.11,0-4.3A8.24,8.24,0,0,1,155.8,310.3Z" transform="translate(-9.83 -10.48)"/><path class="cls-1" d="M175.25,299.08c2.05,1.18,2.05,3.1,0,4.29a8.2,8.2,0,0,1-7.44,0c-2.05-1.19-2.05-3.11,0-4.29A8.2,8.2,0,0,1,175.25,299.08Z" transform="translate(-9.83 -10.48)"/><path class="cls-1" d="M408.6,164.35c2,1.19,2,3.11,0,4.3a8.26,8.26,0,0,1-7.44,0c-2.05-1.19-2.05-3.11,0-4.3A8.26,8.26,0,0,1,408.6,164.35Z" transform="translate(-9.83 -10.48)"/><path class="cls-1" d="M97.47,321.53c2,1.19,2,3.11,0,4.3a8.26,8.26,0,0,1-7.44,0c-2-1.19-2-3.11,0-4.3A8.26,8.26,0,0,1,97.47,321.53Z" transform="translate(-9.83 -10.48)"/><path class="cls-1" d="M116.91,310.3c2.06,1.19,2.06,3.11,0,4.3a8.24,8.24,0,0,1-7.43,0c-2.06-1.19-2.06-3.11,0-4.3A8.24,8.24,0,0,1,116.91,310.3Z" transform="translate(-9.83 -10.48)"/><path class="cls-1" d="M136.36,299.08c2,1.18,2,3.1,0,4.29a8.2,8.2,0,0,1-7.44,0c-2-1.19-2-3.11,0-4.29A8.2,8.2,0,0,1,136.36,299.08Z" transform="translate(-9.83 -10.48)"/><path class="cls-1" d="M155.8,287.85c2.06,1.19,2.06,3.11,0,4.29a8.18,8.18,0,0,1-7.43,0c-2.06-1.18-2.06-3.1,0-4.29A8.18,8.18,0,0,1,155.8,287.85Z" transform="translate(-9.83 -10.48)"/><path class="cls-1" d="M77.85,310.19c2.06,1.18,2.06,3.1,0,4.29a8.18,8.18,0,0,1-7.43,0c-2.06-1.19-2.06-3.11,0-4.29A8.18,8.18,0,0,1,77.85,310.19Z" transform="translate(-9.83 -10.48)"/><path class="cls-1" d="M97.3,299c2,1.18,2,3.11,0,4.29a8.2,8.2,0,0,1-7.44,0c-2-1.18-2-3.11,0-4.29A8.2,8.2,0,0,1,97.3,299Z" transform="translate(-9.83 -10.48)"/><path class="cls-1" d="M116.74,287.73c2.06,1.19,2.06,3.11,0,4.3a8.24,8.24,0,0,1-7.43,0c-2.06-1.19-2.06-3.11,0-4.3A8.24,8.24,0,0,1,116.74,287.73Z" transform="translate(-9.83 -10.48)"/><path class="cls-1" d="M58.41,299c2.05,1.19,2.05,3.11,0,4.29a8.2,8.2,0,0,1-7.44,0c-2-1.18-2-3.1,0-4.29A8.2,8.2,0,0,1,58.41,299Z" transform="translate(-9.83 -10.48)"/><path class="cls-1" d="M77.85,287.73c2.06,1.19,2.06,3.11,0,4.3a8.24,8.24,0,0,1-7.43,0c-2.06-1.19-2.06-3.11,0-4.3A8.24,8.24,0,0,1,77.85,287.73Z" transform="translate(-9.83 -10.48)"/><path class="cls-1" d="M97.3,276.51c2,1.18,2,3.1,0,4.29a8.26,8.26,0,0,1-7.44,0c-2-1.19-2-3.11,0-4.29A8.2,8.2,0,0,1,97.3,276.51Z" transform="translate(-9.83 -10.48)"/><path class="cls-1" d="M39,287.73c2,1.19,2,3.11,0,4.3a8.26,8.26,0,0,1-7.44,0c-2.05-1.19-2.05-3.11,0-4.3A8.26,8.26,0,0,1,39,287.73Z" transform="translate(-9.83 -10.48)"/><path class="cls-1" d="M58.41,276.51c2.05,1.18,2.05,3.1,0,4.29a8.26,8.26,0,0,1-7.44,0c-2-1.19-2-3.11,0-4.29A8.2,8.2,0,0,1,58.41,276.51Z" transform="translate(-9.83 -10.48)"/><path class="cls-1" d="M77.85,265.28c2.06,1.18,2.06,3.11,0,4.29a8.18,8.18,0,0,1-7.43,0c-2.06-1.18-2.06-3.11,0-4.29A8.18,8.18,0,0,1,77.85,265.28Z" transform="translate(-9.83 -10.48)"/><path class="cls-1" d="M97.3,254.05c2,1.19,2,3.11,0,4.3a8.26,8.26,0,0,1-7.44,0c-2-1.19-2-3.11,0-4.3A8.26,8.26,0,0,1,97.3,254.05Z" transform="translate(-9.83 -10.48)"/><path class="cls-1" d="M459.53,175.74a8.23,8.23,0,0,1,7.44,0c2.06,1.18,2.07,3.11,0,4.3a8.23,8.23,0,0,1-7.44,0C457.49,178.85,457.48,176.93,459.53,175.74Z" transform="translate(-9.83 -10.48)"/><path class="cls-1" d="M440.09,164.51a8.23,8.23,0,0,1,7.44,0c2.06,1.19,2.06,3.11,0,4.3a8.23,8.23,0,0,1-7.44,0C438.05,167.62,438,165.7,440.09,164.51Z" transform="translate(-9.83 -10.48)"/><path class="cls-1" d="M420.64,153.28a8.23,8.23,0,0,1,7.44,0c2.06,1.18,2.07,3.1,0,4.29a8.21,8.21,0,0,1-7.43,0C418.6,156.39,418.59,154.47,420.64,153.28Z" transform="translate(-9.83 -10.48)"/><ellipse class="cls-1" cx="24.87" cy="255.89" rx="5.26" ry="3.04"/><path class="cls-1" d="M57.87,253c2.05,1.18,2.05,3.1,0,4.29a8.2,8.2,0,0,1-7.44,0c-2-1.19-2-3.11,0-4.29A8.2,8.2,0,0,1,57.87,253Z" transform="translate(-9.83 -10.48)"/><path class="cls-1" d="M77.32,241.77c2.05,1.19,2.05,3.11,0,4.29a8.18,8.18,0,0,1-7.43,0c-2.06-1.18-2.06-3.1,0-4.29A8.2,8.2,0,0,1,77.32,241.77Z" transform="translate(-9.83 -10.48)"/><path class="cls-1" d="M19,253c2.05,1.18,2.05,3.1,0,4.29a8.2,8.2,0,0,1-7.44,0c-2-1.19-2-3.11,0-4.29A8.2,8.2,0,0,1,19,253Z" transform="translate(-9.83 -10.48)"/><path class="cls-1" d="M38.42,241.77c2.06,1.19,2.06,3.11,0,4.29a8.18,8.18,0,0,1-7.43,0c-2.06-1.18-2.06-3.1,0-4.29A8.18,8.18,0,0,1,38.42,241.77Z" transform="translate(-9.83 -10.48)"/><ellipse class="cls-1" cx="44.32" cy="222.21" rx="5.26" ry="3.04"/><ellipse class="cls-1" cx="5.43" cy="222.21" rx="5.26" ry="3.04"/><ellipse class="cls-1" cx="24.87" cy="210.98" rx="5.26" ry="3.04"/><ellipse class="cls-1" cx="5.43" cy="199.76" rx="5.26" ry="3.04"/><path class="cls-1" d="M38.42,196.86c2.06,1.19,2.06,3.11,0,4.3a8.24,8.24,0,0,1-7.43,0c-2.06-1.19-2.06-3.11,0-4.3A8.18,8.18,0,0,1,38.42,196.86Z" transform="translate(-9.83 -10.48)"/><path class="cls-1" d="M18.81,185.52c2.05,1.18,2.05,3.1,0,4.29a8.2,8.2,0,0,1-7.44,0c-2-1.19-2-3.11,0-4.29A8.2,8.2,0,0,1,18.81,185.52Z" transform="translate(-9.83 -10.48)"/><path class="cls-2" d="M414.75,137.11C387.1,89.44,313.55,55.28,226.91,55.28S66.72,89.44,39.06,137.11H27.18v41.61c0,68.18,89.42,123.44,199.73,123.44S426.63,246.9,426.63,178.72V137.11Z" transform="translate(-9.83 -10.48)"/><path class="cls-1" d="M226.91,305.36C115,305.36,24,248.55,24,178.72v-44.8H37.25c29.64-49,105.51-81.83,189.66-81.83s160,32.82,189.66,81.83h13.25v44.8C429.82,248.55,338.79,305.36,226.91,305.36Zm-196.54-165v38.41C30.37,245,118.54,299,226.91,299S423.45,245,423.45,178.72V140.31H412.92l-.92-1.59c-27.86-48-102.24-80.25-185.09-80.25S69.67,90.72,41.83,138.72l-.93,1.59Z" transform="translate(-9.83 -10.48)"/><ellipse class="cls-2" cx="217.08" cy="126.63" rx="199.73" ry="123.44"/><path class="cls-3" d="M426.63,146.91c0,68.17-89.42,123.44-199.72,123.44S27.18,215.08,27.18,146.91,116.6,23.47,226.91,23.47,426.63,78.74,426.63,146.91Z" transform="translate(-9.83 -10.48)"/><path class="cls-1" d="M226.91,263.75C115,263.75,24,206.94,24,137.11S115,10.48,226.91,10.48,429.82,67.29,429.82,137.11,338.79,263.75,226.91,263.75Zm0-246.89c-108.37,0-196.54,54-196.54,120.25s88.17,120.25,196.54,120.25,196.54-53.94,196.54-120.25S335.28,16.86,226.91,16.86Z" transform="translate(-9.83 -10.48)"/><ellipse class="cls-2" cx="217.08" cy="121.09" rx="159.5" ry="92.87"/><path class="cls-1" d="M226.91,227.62c-89.71,0-162.7-43.09-162.7-96.06s73-96.05,162.7-96.05S389.6,78.6,389.6,131.56,316.62,227.62,226.91,227.62Zm0-185.73c-86.19,0-156.31,40.23-156.31,89.67s70.12,89.68,156.31,89.68S383.23,181,383.23,131.56,313.1,41.89,226.91,41.89Z" transform="translate(-9.83 -10.48)"/><path class="cls-2" d="M226.91,38.7c-88.09,0-159.5,41.58-159.5,92.87a55,55,0,0,0,1.88,13.52c11.27-44.86,77.44-79.35,157.62-79.35s146.35,34.49,157.62,79.35a55.52,55.52,0,0,0,1.88-13.52C386.41,80.28,315,38.7,226.91,38.7Z" transform="translate(-9.83 -10.48)"/><path class="cls-1" d="M382.62,151.72l-1.18-5.85C370.42,102,304,68.94,226.91,68.94S83.4,102,72.38,145.87L70.6,153l-4.41-7.08a57.65,57.65,0,0,1-2-14.3c0-53,73-96.06,162.7-96.06S389.6,78.6,389.6,131.57a58.08,58.08,0,0,1-2,14.29ZM226.91,41.89c-86.19,0-156.31,40.23-156.31,89.68v.55c19.5-41,82.24-69.57,156.31-69.57s136.81,28.6,156.31,69.57c0-.19,0-.37,0-.55C383.23,82.12,313.1,41.89,226.91,41.89Z" transform="translate(-9.83 -10.48)"/><polygon class="cls-4" points="190.59 30.34 190.59 56.55 146.07 64.99 102.31 83.75 70.72 111.44 59.45 134.61 57.58 111.44 71.02 83.75 95.03 61.3 134.57 41.61 183.03 30.34 190.59 30.34"/><path class="cls-2" d="M312,178.34c6-6.05,9.22-12.15,9.65-18.31l.32.13v-17.8l-12.15-5a64.27,64.27,0,0,0-8.46-5.58A79.44,79.44,0,0,0,265,121.69q-19.56-.7-50.68,10.08l-40.5-22.61a48.12,48.12,0,0,1,28.76,2l22.29-17.25V77.47l-28.53,9.81.12.23c-2.85-.18-5.71-.28-8.59-.2a92,92,0,0,0-36.94,9.06l-5.24-2.92,2-1.55V84.23L125.94,83v25.83l7-5.48,3.23,1.8a47.91,47.91,0,0,0-8.12,7.43c-3.72-1.27-6.63-2.24-6.63-2.24l.06,18.94q1,12.72,18,22.2a84.75,84.75,0,0,0,37.83,10.39q21.06,1,46.77-7.62l43.4,24.23a67.92,67.92,0,0,1-18.66,1.09,71.82,71.82,0,0,1-13-2.22l1-3.58-32,2.47v16.42q23.44,9.57,45.61,9.28a100.75,100.75,0,0,0,41.91-9.58l18.85,10.53L326,194.12V177.7ZM177.15,139.41a33.41,33.41,0,0,1-13.46-3.75q-6-3.36-7.42-8.26t2.51-9.63l35.84,20A54,54,0,0,1,177.15,139.41Zm106.57,31.11L243.33,148q11.83-4,20.87-3.55a35.75,35.75,0,0,1,16,4.29q7.77,4.33,8.74,10.4T283.72,170.52Z" transform="translate(-9.83 -10.48)"/><path class="cls-1" d="M311.3,206.59l-19-10.63a104.37,104.37,0,0,1-41.73,9.19c-15,.22-30.89-3-46.86-9.51l-2-.81V173.3l39.52-3L239.83,175a62.44,62.44,0,0,0,9.26,1.36,81.82,81.82,0,0,0,8.37.13l-33.65-18.79c-16.94,5.55-32.61,8-46.59,7.34A88.45,88.45,0,0,1,138,154.29c-12.25-6.84-18.86-15.16-19.65-24.74l-.07-19.66,4.49-2.46V79.65l28.13,1.56.19,11.58a95.43,95.43,0,0,1,36.71-8.67c2.52-.06,5.06,0,7.56.13L228.06,73V95.46l-24.93,19.29-1.66-.62a48.27,48.27,0,0,0-17.74-3.1l30.91,17.26c20.41-7,37.42-10.27,50.47-9.79A82.87,82.87,0,0,1,302.89,129a67.27,67.27,0,0,1,8.53,5.59l13.72,5.65v19.92l-1,4.4a30.7,30.7,0,0,1-4.95,10.27l10-.46v21.57ZM292.52,188.8l18.68,10.42,11.6-6.91V181l-18.89.87,5.81-5.82c5.41-5.42,8.35-10.9,8.73-16.29l.32-4.42V144.5l-10.95-4.63a60.88,60.88,0,0,0-8-5.31,76.66,76.66,0,0,0-34.9-9.68c-12.52-.44-29.23,2.88-49.51,9.9l-1.35.48L165.16,108l7.91-1.92A51.19,51.19,0,0,1,202,107.54l19.67-15.21V81.94l-20.93,7.2.8,1.68-5.3-.12a81.94,81.94,0,0,0-8.29-.2,89.37,89.37,0,0,0-35.67,8.76l-1.49.7-10.87-6.07,4.56-3.55V87.25l-14,2-1.32,13.11,3.54-2.76,9.43,5.26-4,2.94a45.53,45.53,0,0,0-7.59,7l-1.41,1.61-4.41-1.5,0,14.48c.58,7.06,6.1,13.69,16.39,19.43a82,82,0,0,0,36.43,10c13.52.63,28.89-1.86,45.6-7.47l1.33-.45,52,29-8.26,1.79a71.32,71.32,0,0,1-19.55,1.15,73.87,73.87,0,0,1-13.62-2.31l-3.18-.81.66-2.32-24.46,1.89v11.3c14.48,5.66,28.94,8.64,42.37,8.25a98,98,0,0,0,40.6-9.28Zm-8.4-14.4-48.66-27.17,6.85-2.29c8.24-2.75,15.61-4,22-3.7a38.77,38.77,0,0,1,17.4,4.69c6,3.37,9.52,7.63,10.33,12.67.83,5.19-1.28,10-6.26,14.33ZM251.6,148.93l31.61,17.65c2.1-2.3,2.93-4.59,2.56-7-.49-3-2.89-5.74-7.15-8.11a32.55,32.55,0,0,0-14.57-3.89A47,47,0,0,0,251.6,148.93Zm-70.75-6.17c-1.35,0-2.68,0-4-.17h0a36.4,36.4,0,0,1-14.73-4.15c-4.75-2.65-7.75-6.07-8.94-10.15-.85-3-1-7.57,3.12-12.56l1.7-2L203.26,139l-7.89,1.92A60.75,60.75,0,0,1,180.85,142.76Zm-3.43-6.52a43.91,43.91,0,0,0,7.76-.07L159.79,122a5.9,5.9,0,0,0-.45,4.53c.69,2.41,2.68,4.55,5.91,6.35a30.54,30.54,0,0,0,12.17,3.37Z" transform="translate(-9.83 -10.48)"/><path class="cls-2" d="M267.54,162.08l-43.4-24.23q-25.71,8.64-46.77,7.62a84.88,84.88,0,0,1-37.83-10.38q-17-9.5-18-22.21T136.2,88.74L125.94,83l14.74-8.79L150.93,80a91.66,91.66,0,0,1,36.94-9.06,93.66,93.66,0,0,1,37,6.57L202.58,94.72a48.12,48.12,0,0,0-28.76-2l40.5,22.61q31.13-10.78,50.68-10.08a79.44,79.44,0,0,1,36.34,10.09q18.75,10.47,20.47,24.27t-15.19,27.26L326,177.7l-14.73,8.79L292.4,176a100.75,100.75,0,0,1-41.91,9.58q-22.17.3-45.61-9.28l23.62-17.44a72.19,72.19,0,0,0,20.38,4.35A67.92,67.92,0,0,0,267.54,162.08ZM158.78,101.35q-3.93,4.74-2.51,9.63t7.42,8.26A33.41,33.41,0,0,0,177.15,123a54,54,0,0,0,17.47-1.62ZM283.72,154.1q6.18-5.35,5.2-11.41t-8.74-10.4a35.75,35.75,0,0,0-16-4.29q-9-.41-20.87,3.55Z" transform="translate(-9.83 -10.48)"/><path class="cls-3" d="M266.59,169.79l-43.4-24.24q-25.71,8.64-46.76,7.63a85,85,0,0,1-37.84-10.39c-11.32-6.32-14.75-13.29-15.44-21.77s1.62-17,12.1-24.57l-4.79-7.25,9.27-7.27L150,87.66a91.86,91.86,0,0,1,36.94-9.06c12.55-.35,22.29,3.44,34.42,8.18l-19.71,15.64a48.12,48.12,0,0,0-28.76-2l40.5,22.61Q244.5,112.27,264.05,113a79.31,79.31,0,0,1,36.34,10.08q18.75,10.47,20.47,24.28t-15.19,27.25l17.13,11.9-12.5,7.7-18.85-10.52a100.74,100.74,0,0,1-41.91,9.57c-14.78.2-25.84-2.26-41.47-8.64l19.48-18.08a72.19,72.19,0,0,0,20.38,4.35A67.56,67.56,0,0,0,266.59,169.79ZM157.83,109.06q-3.93,4.72-2.51,9.63t7.43,8.25a33.15,33.15,0,0,0,13.45,3.76,54.07,54.07,0,0,0,17.47-1.63Zm124.94,52.75q6.18-5.37,5.2-11.42T279.23,140a35.62,35.62,0,0,0-16-4.28q-9-.41-20.87,3.54Z" transform="translate(-9.83 -10.48)"/><path class="cls-1" d="M311.3,190.17l-19-10.63a104.37,104.37,0,0,1-41.73,9.19c-15,.14-30.89-3-46.86-9.51l-2-.83,0-5.09,9-5.26L228,155.23l1.61.6A69,69,0,0,0,249.09,160c2.93.19,5.71.22,8.37.13l-33.65-18.79c-16.93,5.55-32.58,8-46.59,7.34A88.45,88.45,0,0,1,138,137.87c-12.25-6.84-18.86-15.16-19.65-24.74-.68-8.46,3.39-16.5,12.13-23.93l-10.9-6.09,21.06-12.56,10.45,5.82a95.43,95.43,0,0,1,36.71-8.67c12.88-.33,27.81.44,40.28,5.3h0v6L203.13,98.33l-1.66-.62a46.8,46.8,0,0,0-17.74-3.1l30.91,17.26c20.42-7,37.38-10.27,50.47-9.79a82.87,82.87,0,0,1,37.78,10.49C316.27,120,323.7,129,325,139.24c1.15,9.26-3.14,18.37-12.78,27.1l17,8v5.16Zm-18.78-17.79L311.2,182.8l9.69-5.75-20-9.7,3.73-3c10.29-8.18,15-16.38,14-24.36s-7.34-15.46-18.84-21.89a76.74,76.74,0,0,0-34.91-9.68c-12.52-.41-29.23,2.88-49.51,9.91l-1.35.47L165.16,91.56l7.91-1.92A51.1,51.1,0,0,1,202,91.12l17.73-13.65c-10-3.22-21.49-3.67-31.78-3.39a89.37,89.37,0,0,0-35.67,8.76l-1.49.7-10.07-5.62-8.4,5,9.78,5.46-4,2.94c-9.46,6.87-14,14-13.38,21.29s6.12,13.94,16.41,19.68a82.23,82.23,0,0,0,36.43,10c13.6.66,28.91-1.86,45.6-7.47l1.33-.45,52,29-8.25,1.79a70.55,70.55,0,0,1-19.55,1.15A76,76,0,0,1,229,162.4l-17.57,13c13.32,4.81,26.56,7.21,39,7a98,98,0,0,0,40.6-9.28Zm-8.4-14.4-48.66-27.17,6.85-2.29c8.24-2.75,15.61-4,22-3.7a39,39,0,0,1,17.39,4.68c6,3.38,9.53,7.64,10.34,12.68s-1.28,10-6.26,14.33ZM251.6,132.51l31.61,17.65c2.1-2.3,2.93-4.59,2.56-7-.49-3-2.89-5.74-7.15-8.12a32.8,32.8,0,0,0-14.57-3.88A48.34,48.34,0,0,0,251.6,132.51Zm-70.75-6.17c-1.35,0-2.68,0-4-.17A36.56,36.56,0,0,1,162.14,122c-4.75-2.66-7.75-6.08-8.94-10.16-.85-3-1-7.56,3.12-12.56l1.7-2,45.24,25.27-7.89,1.93A61.23,61.23,0,0,1,180.85,126.34Zm-21.06-20.76a5.91,5.91,0,0,0-.46,4.51c.7,2.42,2.69,4.56,5.92,6.36a30.54,30.54,0,0,0,12.17,3.37,43,43,0,0,0,7.76-.07Z" transform="translate(-9.83 -10.48)"/><polygon class="cls-1" points="239.52 249.3 239.52 291.69 286.9 283.93 332.49 270.49 379.77 240.47 408.85 204.15 416.8 179.69 416.1 146.6 393.84 188.74 349.29 219.14 282.41 243.31 239.52 249.3"/><polygon class="cls-1" points="209.95 250.45 209.95 292.06 190.59 290.57 190.59 246.88 209.95 250.45"/><path class="cls-1" d="M562.19,389.75c2,1.19,2,3.11,0,4.3a8.26,8.26,0,0,1-7.44,0c-2-1.19-2-3.11,0-4.3A8.26,8.26,0,0,1,562.19,389.75Z" transform="translate(-9.83 -10.48)"/><path class="cls-1" d="M581.63,378.52c2.06,1.19,2.06,3.11,0,4.3a8.24,8.24,0,0,1-7.43,0c-2.06-1.19-2.06-3.11,0-4.29A8.21,8.21,0,0,1,581.63,378.52Z" transform="translate(-9.83 -10.48)"/><ellipse class="cls-1" cx="587.53" cy="358.97" rx="5.26" ry="3.04"/><path class="cls-1" d="M620.53,356.07c2.05,1.19,2.05,3.11,0,4.29a8.2,8.2,0,0,1-7.44,0c-2.06-1.18-2.06-3.1,0-4.29A8.2,8.2,0,0,1,620.53,356.07Z" transform="translate(-9.83 -10.48)"/><path class="cls-1" d="M640,344.84c2.06,1.19,2.06,3.11,0,4.3a8.24,8.24,0,0,1-7.43,0c-2.06-1.19-2.06-3.11,0-4.3A8.24,8.24,0,0,1,640,344.84Z" transform="translate(-9.83 -10.48)"/><path class="cls-1" d="M659.42,333.62c2.05,1.18,2.05,3.1,0,4.29a8.2,8.2,0,0,1-7.44,0c-2.05-1.19-2.05-3.11,0-4.29A8.2,8.2,0,0,1,659.42,333.62Z" transform="translate(-9.83 -10.48)"/><path class="cls-1" d="M678.86,322.39c2.06,1.19,2.06,3.11,0,4.29a8.18,8.18,0,0,1-7.43,0c-2.06-1.18-2.06-3.1,0-4.29A8.18,8.18,0,0,1,678.86,322.39Z" transform="translate(-9.83 -10.48)"/><path class="cls-1" d="M503.85,401c2,1.18,2,3.11,0,4.29a8.2,8.2,0,0,1-7.44,0c-2.05-1.18-2.05-3.11,0-4.29A8.2,8.2,0,0,1,503.85,401Z" transform="translate(-9.83 -10.48)"/><path class="cls-1" d="M523.3,389.75c2.05,1.19,2.05,3.11,0,4.3a8.26,8.26,0,0,1-7.44,0c-2.05-1.19-2.05-3.11,0-4.3A8.26,8.26,0,0,1,523.3,389.75Z" transform="translate(-9.83 -10.48)"/><path class="cls-1" d="M542.74,378.53c2.06,1.18,2.06,3.1,0,4.29a8.24,8.24,0,0,1-7.43,0c-2.06-1.19-2.06-3.11,0-4.29A8.18,8.18,0,0,1,542.74,378.53Z" transform="translate(-9.83 -10.48)"/><ellipse class="cls-1" cx="548.64" cy="358.97" rx="5.26" ry="3.04"/><path class="cls-1" d="M581.63,356.07c2.06,1.19,2.06,3.11,0,4.29a8.18,8.18,0,0,1-7.43,0c-2.06-1.18-2.06-3.1,0-4.29A8.18,8.18,0,0,1,581.63,356.07Z" transform="translate(-9.83 -10.48)"/><path class="cls-1" d="M601.08,344.84c2,1.19,2,3.11,0,4.3a8.26,8.26,0,0,1-7.44,0c-2-1.19-2-3.11,0-4.3A8.26,8.26,0,0,1,601.08,344.84Z" transform="translate(-9.83 -10.48)"/><path class="cls-1" d="M620.53,333.62c2.05,1.18,2.05,3.1,0,4.29a8.2,8.2,0,0,1-7.44,0c-2.06-1.19-2.06-3.11,0-4.29A8.2,8.2,0,0,1,620.53,333.62Z" transform="translate(-9.83 -10.48)"/><path class="cls-1" d="M640,322.39c2.06,1.19,2.06,3.11,0,4.29a8.18,8.18,0,0,1-7.43,0c-2.06-1.18-2.06-3.1,0-4.29A8.18,8.18,0,0,1,640,322.39Z" transform="translate(-9.83 -10.48)"/><path class="cls-1" d="M659.42,311.16c2.05,1.19,2.05,3.11,0,4.3a8.26,8.26,0,0,1-7.44,0c-2.05-1.19-2.05-3.11,0-4.3A8.26,8.26,0,0,1,659.42,311.16Z" transform="translate(-9.83 -10.48)"/><path class="cls-1" d="M465,401c2.05,1.18,2.05,3.11,0,4.29a8.2,8.2,0,0,1-7.44,0c-2-1.18-2-3.11,0-4.29A8.2,8.2,0,0,1,465,401Z" transform="translate(-9.83 -10.48)"/><path class="cls-1" d="M484.41,389.75c2,1.19,2,3.11,0,4.3a8.26,8.26,0,0,1-7.44,0c-2.06-1.19-2.06-3.11,0-4.3A8.26,8.26,0,0,1,484.41,389.75Z" transform="translate(-9.83 -10.48)"/><path class="cls-1" d="M503.85,378.53c2.06,1.18,2.06,3.1,0,4.29a8.26,8.26,0,0,1-7.44,0c-2.05-1.19-2.05-3.11,0-4.29A8.2,8.2,0,0,1,503.85,378.53Z" transform="translate(-9.83 -10.48)"/><ellipse class="cls-1" cx="509.75" cy="358.97" rx="5.26" ry="3.04"/><path class="cls-1" d="M542.74,356.07c2.06,1.19,2.06,3.11,0,4.29a8.18,8.18,0,0,1-7.43,0c-2.06-1.18-2.06-3.1,0-4.29A8.18,8.18,0,0,1,542.74,356.07Z" transform="translate(-9.83 -10.48)"/><path class="cls-1" d="M562.19,344.84c2,1.19,2,3.11,0,4.3a8.26,8.26,0,0,1-7.44,0c-2-1.19-2-3.11,0-4.3A8.26,8.26,0,0,1,562.19,344.84Z" transform="translate(-9.83 -10.48)"/><path class="cls-1" d="M581.63,333.62c2.06,1.18,2.06,3.1,0,4.29a8.18,8.18,0,0,1-7.43,0c-2.06-1.19-2.06-3.11,0-4.29A8.18,8.18,0,0,1,581.63,333.62Z" transform="translate(-9.83 -10.48)"/><path class="cls-1" d="M601.08,322.39c2,1.19,2,3.11,0,4.29a8.2,8.2,0,0,1-7.44,0c-2-1.18-2-3.1,0-4.29A8.2,8.2,0,0,1,601.08,322.39Z" transform="translate(-9.83 -10.48)"/><path class="cls-1" d="M620.53,311.16c2.05,1.19,2.05,3.11,0,4.3a8.26,8.26,0,0,1-7.44,0c-2.06-1.19-2.06-3.11,0-4.3A8.26,8.26,0,0,1,620.53,311.16Z" transform="translate(-9.83 -10.48)"/><path class="cls-1" d="M640,299.94c2.06,1.18,2.06,3.1,0,4.29a8.24,8.24,0,0,1-7.43,0c-2.06-1.19-2.06-3.11,0-4.29A8.18,8.18,0,0,1,640,299.94Z" transform="translate(-9.83 -10.48)"/><path class="cls-1" d="M659.42,288.71c2.05,1.18,2.05,3.11,0,4.29a8.2,8.2,0,0,1-7.44,0c-2.05-1.18-2.05-3.11,0-4.29A8.2,8.2,0,0,1,659.42,288.71Z" transform="translate(-9.83 -10.48)"/><path class="cls-1" d="M445.51,389.75c2.06,1.19,2.06,3.11,0,4.3a8.24,8.24,0,0,1-7.43,0c-2.06-1.19-2.06-3.11,0-4.3A8.24,8.24,0,0,1,445.51,389.75Z" transform="translate(-9.83 -10.48)"/><path class="cls-1" d="M465,378.53c2.05,1.18,2.05,3.1,0,4.29a8.26,8.26,0,0,1-7.44,0c-2-1.19-2-3.11,0-4.29A8.2,8.2,0,0,1,465,378.53Z" transform="translate(-9.83 -10.48)"/><path class="cls-1" d="M484.41,367.3c2,1.18,2,3.11,0,4.29a8.2,8.2,0,0,1-7.44,0c-2.06-1.18-2.06-3.11,0-4.29A8.2,8.2,0,0,1,484.41,367.3Z" transform="translate(-9.83 -10.48)"/><path class="cls-1" d="M503.85,356.07c2.06,1.19,2.06,3.11,0,4.29a8.2,8.2,0,0,1-7.44,0c-2.05-1.18-2.05-3.1,0-4.29A8.2,8.2,0,0,1,503.85,356.07Z" transform="translate(-9.83 -10.48)"/><path class="cls-1" d="M523.3,344.84c2.05,1.19,2.05,3.11,0,4.3a8.26,8.26,0,0,1-7.44,0c-2.05-1.19-2.05-3.11,0-4.3A8.26,8.26,0,0,1,523.3,344.84Z" transform="translate(-9.83 -10.48)"/><path class="cls-1" d="M542.74,333.62c2.06,1.18,2.06,3.1,0,4.29a8.18,8.18,0,0,1-7.43,0c-2.06-1.19-2.06-3.11,0-4.29A8.18,8.18,0,0,1,542.74,333.62Z" transform="translate(-9.83 -10.48)"/><path class="cls-1" d="M562.19,322.39c2,1.19,2,3.11,0,4.29a8.2,8.2,0,0,1-7.44,0c-2-1.18-2-3.1,0-4.29A8.2,8.2,0,0,1,562.19,322.39Z" transform="translate(-9.83 -10.48)"/><path class="cls-1" d="M581.63,311.16c2.06,1.19,2.06,3.11,0,4.3a8.24,8.24,0,0,1-7.43,0c-2.06-1.19-2.06-3.11,0-4.3A8.24,8.24,0,0,1,581.63,311.16Z" transform="translate(-9.83 -10.48)"/><path class="cls-1" d="M601.08,299.94c2,1.18,2,3.1,0,4.29a8.26,8.26,0,0,1-7.44,0c-2-1.19-2-3.11,0-4.29A8.2,8.2,0,0,1,601.08,299.94Z" transform="translate(-9.83 -10.48)"/><path class="cls-1" d="M620.53,288.71c2.05,1.18,2.05,3.11,0,4.29a8.2,8.2,0,0,1-7.44,0c-2.06-1.18-2.06-3.11,0-4.29A8.2,8.2,0,0,1,620.53,288.71Z" transform="translate(-9.83 -10.48)"/><path class="cls-1" d="M640,277.48c2.06,1.19,2.06,3.11,0,4.3a8.24,8.24,0,0,1-7.43,0c-2.06-1.19-2.06-3.11,0-4.3A8.24,8.24,0,0,1,640,277.48Z" transform="translate(-9.83 -10.48)"/><path class="cls-1" d="M659.42,266.25c2.05,1.19,2.05,3.11,0,4.3a8.26,8.26,0,0,1-7.44,0c-2.05-1.19-2.05-3.11,0-4.3A8.26,8.26,0,0,1,659.42,266.25Z" transform="translate(-9.83 -10.48)"/><path class="cls-1" d="M678.86,255c2.06,1.18,2.06,3.11,0,4.29a8.18,8.18,0,0,1-7.43,0c-2.06-1.18-2.06-3.11,0-4.29A8.18,8.18,0,0,1,678.86,255Z" transform="translate(-9.83 -10.48)"/><path class="cls-1" d="M406.62,389.75c2.06,1.19,2.06,3.11,0,4.3a8.26,8.26,0,0,1-7.44,0c-2.05-1.19-2.05-3.11,0-4.3A8.26,8.26,0,0,1,406.62,389.75Z" transform="translate(-9.83 -10.48)"/><path class="cls-1" d="M426.07,378.53c2.05,1.18,2.05,3.1,0,4.29a8.26,8.26,0,0,1-7.44,0c-2.05-1.19-2.05-3.11,0-4.29A8.2,8.2,0,0,1,426.07,378.53Z" transform="translate(-9.83 -10.48)"/><ellipse class="cls-1" cx="431.96" cy="358.97" rx="5.26" ry="3.04"/><path class="cls-1" d="M465,356.07c2.05,1.19,2.05,3.11,0,4.29a8.2,8.2,0,0,1-7.44,0c-2-1.18-2-3.1,0-4.29A8.26,8.26,0,0,1,465,356.07Z" transform="translate(-9.83 -10.48)"/><path class="cls-1" d="M484.41,344.84c2,1.19,2,3.11,0,4.3a8.26,8.26,0,0,1-7.44,0c-2.06-1.19-2.06-3.11,0-4.3A8.26,8.26,0,0,1,484.41,344.84Z" transform="translate(-9.83 -10.48)"/><path class="cls-1" d="M503.85,333.62c2.06,1.18,2.06,3.1,0,4.29a8.2,8.2,0,0,1-7.44,0c-2.05-1.19-2.05-3.11,0-4.29A8.2,8.2,0,0,1,503.85,333.62Z" transform="translate(-9.83 -10.48)"/><path class="cls-1" d="M659.42,243.8c2.05,1.19,2.05,3.11,0,4.29a8.2,8.2,0,0,1-7.44,0c-2.05-1.18-2.05-3.1,0-4.29A8.2,8.2,0,0,1,659.42,243.8Z" transform="translate(-9.83 -10.48)"/><path class="cls-1" d="M678.86,232.57c2.06,1.19,2.06,3.11,0,4.3a8.24,8.24,0,0,1-7.43,0c-2.06-1.19-2.06-3.11,0-4.3A8.24,8.24,0,0,1,678.86,232.57Z" transform="translate(-9.83 -10.48)"/><path class="cls-1" d="M387.18,378.53c2.05,1.18,2.05,3.1,0,4.29a8.26,8.26,0,0,1-7.44,0c-2.05-1.19-2.05-3.11,0-4.29A8.2,8.2,0,0,1,387.18,378.53Z" transform="translate(-9.83 -10.48)"/><path class="cls-1" d="M406.62,367.3c2.06,1.18,2.06,3.11,0,4.29a8.2,8.2,0,0,1-7.44,0c-2.05-1.18-2.05-3.11,0-4.29A8.2,8.2,0,0,1,406.62,367.3Z" transform="translate(-9.83 -10.48)"/><path class="cls-1" d="M426.07,356.07c2.05,1.19,2.05,3.11,0,4.29a8.2,8.2,0,0,1-7.44,0c-2.05-1.18-2.05-3.1,0-4.29A8.26,8.26,0,0,1,426.07,356.07Z" transform="translate(-9.83 -10.48)"/><ellipse class="cls-1" cx="431.96" cy="336.51" rx="5.26" ry="3.04"/><path class="cls-1" d="M465,333.62c2.05,1.18,2.05,3.1,0,4.29a8.2,8.2,0,0,1-7.44,0c-2-1.19-2-3.11,0-4.29A8.2,8.2,0,0,1,465,333.62Z" transform="translate(-9.83 -10.48)"/><path class="cls-1" d="M659.42,221.35c2.05,1.18,2.05,3.1,0,4.29a8.2,8.2,0,0,1-7.44,0c-2.05-1.19-2.05-3.11,0-4.29A8.2,8.2,0,0,1,659.42,221.35Z" transform="translate(-9.83 -10.48)"/><path class="cls-1" d="M678.87,210.12c2,1.19,2,3.11,0,4.29a8.2,8.2,0,0,1-7.44,0c-2.06-1.18-2.06-3.1,0-4.29A8.2,8.2,0,0,1,678.87,210.12Z" transform="translate(-9.83 -10.48)"/><path class="cls-1" d="M367.73,367.3c2,1.18,2,3.11,0,4.29a8.2,8.2,0,0,1-7.44,0c-2.05-1.18-2.05-3.11,0-4.29A8.2,8.2,0,0,1,367.73,367.3Z" transform="translate(-9.83 -10.48)"/><path class="cls-1" d="M387.18,356.07c2.05,1.19,2.05,3.11,0,4.29a8.2,8.2,0,0,1-7.44,0c-2.05-1.18-2.05-3.1,0-4.29A8.26,8.26,0,0,1,387.18,356.07Z" transform="translate(-9.83 -10.48)"/><path class="cls-1" d="M406.62,344.84c2.06,1.19,2.06,3.11,0,4.3a8.24,8.24,0,0,1-7.43,0c-2.06-1.19-2.06-3.11,0-4.3A8.24,8.24,0,0,1,406.62,344.84Z" transform="translate(-9.83 -10.48)"/><path class="cls-1" d="M426.07,333.62c2.05,1.18,2.05,3.1,0,4.29a8.2,8.2,0,0,1-7.44,0c-2.05-1.19-2.05-3.11,0-4.29A8.2,8.2,0,0,1,426.07,333.62Z" transform="translate(-9.83 -10.48)"/><path class="cls-1" d="M659.42,198.89c2.05,1.19,2.05,3.11,0,4.3a8.26,8.26,0,0,1-7.44,0c-2.05-1.19-2.05-3.11,0-4.3A8.26,8.26,0,0,1,659.42,198.89Z" transform="translate(-9.83 -10.48)"/><ellipse class="cls-1" cx="354.18" cy="336.51" rx="5.26" ry="3.04"/><ellipse class="cls-1" cx="373.63" cy="325.28" rx="5.26" ry="3.04"/><path class="cls-1" d="M406.62,322.39c2.06,1.19,2.06,3.11,0,4.29a8.18,8.18,0,0,1-7.43,0c-2.06-1.18-2.06-3.1,0-4.29A8.18,8.18,0,0,1,406.62,322.39Z" transform="translate(-9.83 -10.48)"/><path class="cls-1" d="M671.46,187.82a8.23,8.23,0,0,1,7.44,0c2.06,1.18,2.06,3.1,0,4.29a8.21,8.21,0,0,1-7.43,0C669.42,190.93,669.41,189,671.46,187.82Z" transform="translate(-9.83 -10.48)"/><path class="cls-2" d="M668.73,266.84C667.26,211.75,619,146.56,542.94,105.11s-157-46.64-204.11-18L328.4,81.41,308.49,118c-32.61,59.87,19.47,151.18,116.33,204s201.82,47,234.44-12.84l19.91-36.54Z" transform="translate(-9.83 -10.48)"/><path class="cls-1" d="M423.29,324.71c-98.25-53.53-151-147-117.6-208.29l21.43-39.34,11.64,6.35c49.48-28.87,131.81-21.38,205.7,18.88s124.81,105.37,127.4,162.6l11.63,6.34-21.43,39.34C628.65,371.9,521.54,378.24,423.29,324.71Zm-93.62-239L311.3,119.48C279.57,177.7,331.18,267.25,426.35,319.1s198.39,46.66,230.11-11.56l18.38-33.74-9.24-5-.05-1.84c-1.5-55.47-51.39-119.38-124.14-159S387.9,61,340.49,89.83l-1.57,1Z" transform="translate(-9.83 -10.48)"/><ellipse class="cls-2" cx="503.78" cy="176.97" rx="123.44" ry="199.73" transform="translate(97.52 524.21) rotate(-61.42)"/><path class="cls-3" d="M674.48,281.13C641.86,341,536.9,346.74,440,294S291.1,149.88,323.71,90,461.29,24.4,558.15,77.18,707.1,221.26,674.48,281.13Z" transform="translate(-9.83 -10.48)"/><path class="cls-1" d="M443.2,288.17c-98.26-53.53-151-147-117.61-208.28S466.12,12.24,564.37,65.77s151,147,117.6,208.28S541.45,341.7,443.2,288.17ZM561.32,71.37C466.15,19.53,362.92,24.72,331.2,82.94s19.89,147.78,115.05,199.62S644.65,329.23,676.37,271,656.48,123.22,561.32,71.37Z" transform="translate(-9.83 -10.48)"/><ellipse class="cls-2" cx="506.44" cy="172.1" rx="92.87" ry="159.5" transform="translate(103.19 524) rotate(-61.42)"/><path class="cls-1" d="M460.48,256.45C381.7,213.53,338.23,140.77,363.57,94.26S473.62,44.83,552.4,87.75s122.24,115.67,96.9,162.18S539.26,299.37,460.48,256.45Zm88.86-163.1c-75.69-41.23-156.5-39.46-180.16,4s18.67,112.3,94.36,153.53,156.51,39.46,180.17-4S625,134.59,549.34,93.35Z" transform="translate(-9.83 -10.48)"/><path class="cls-2" d="M550.87,90.55c-77.36-42.15-160-39.8-184.5,5.24a55.37,55.37,0,0,0-4.82,12.77c31.37-34,106-32.62,176.38,5.74S650,214.6,638.38,259.39a55.72,55.72,0,0,0,8.12-11C671,203.37,628.22,132.69,550.87,90.55Z" transform="translate(-9.83 -10.48)"/><path class="cls-1" d="M633.53,264.3l1.76-5.71C646.6,214.81,604.08,154,536.4,117.1s-141.84-39.61-172.5-6.37L359,116.1l-.48-8.33a57.78,57.78,0,0,1,5.1-13.51c25.34-46.51,110.05-49.43,188.83-6.51s122.24,115.67,96.9,162.19a58.15,58.15,0,0,1-8.57,11.61Zm-84.19-171c-75.69-41.23-156.51-39.45-180.16,4-.09.16-.18.32-.26.48,36.72-26.64,105.49-21.74,170.54,13.69s106.45,90.57,104,135.87c.09-.16.19-.31.27-.47C667.36,203.47,625,134.59,549.34,93.35Z" transform="translate(-9.83 -10.48)"/><polygon class="cls-4" points="516.76 69.26 504.22 92.28 461.09 78.39 413.69 73.93 372.7 83.13 351.72 98.08 361.16 76.84 386.21 58.95 418.03 50.73 462.18 52.35 510.12 65.64 516.76 69.26"/><path class="cls-2" d="M558.76,253.87c8.2-2.42,13.91-6.26,17.24-11.46l.22.27,8.51-15.63-8.28-10.2a64.87,64.87,0,0,0-4.75-9,79.5,79.5,0,0,0-27.09-26.24q-16.85-10-49.32-15.4L470.54,127a48.12,48.12,0,0,1,24.31,15.5L522.67,138l7.86-14.42-29.74-5,0,.26c-2.41-1.52-4.88-3-7.44-4.28a92.17,92.17,0,0,0-36.77-9.72l-3.21-5.07,2.49-.41,3.67-6.73L441,81.16l-12.35,22.68,8.79-1.45,2,3.13a48.49,48.49,0,0,0-10.68,2.64C426.07,105.26,424,103,424,103l-9,16.66q-5.18,11.67,5.21,28.13A84.89,84.89,0,0,0,448.43,175q18,11,44.71,15.68l26.52,42a67.61,67.61,0,0,1-16.9-8,71.68,71.68,0,0,1-10.4-8.19l2.62-2.65-29.27-13.13-7.86,14.41q16,19.64,35.62,30a100.87,100.87,0,0,0,41.38,11.65l11.52,18.26,17.14-.67L571.37,260ZM459,155.18a33.37,33.37,0,0,1-10-9.73q-3.68-5.82-2.57-10.8t6.81-7.26l21.9,34.72A53.82,53.82,0,0,1,459,155.18Zm78.7,78.31L513,194.35q12.29,2.21,20,6.88a35.56,35.56,0,0,1,12,11.41q4.75,7.52,2.7,13.31T537.69,233.49Z" transform="translate(-9.83 -10.48)"/><path class="cls-1" d="M544.65,278.36,533,259.91A104.41,104.41,0,0,1,492,248c-13.3-7-25.7-17.41-36.6-30.78L454,215.58l10.3-18.9,36.15,16.23L497,216.45a62.19,62.19,0,0,0,7.47,5.63,83.32,83.32,0,0,0,7.29,4.12l-20.56-32.6c-17.53-3.23-32.46-8.57-44.42-15.84a88.37,88.37,0,0,1-29.29-28.25c-7.49-11.87-9.31-22.34-5.42-31.12l9.34-17.31h5.12l13.3-24.4L463.76,91.5l-5.37,10.26a95.29,95.29,0,0,1,36.39,10c2.24,1.15,4.45,2.4,6.57,3.72l34.12,5.78-10.74,19.72-31.12,5-1.17-1.34a48.42,48.42,0,0,0-14.09-11.2l18.88,29.94c21.26,3.65,37.77,8.89,49,15.55a82.85,82.85,0,0,1,28.16,27.29,67.62,67.62,0,0,1,4.82,9l9.34,11.52L579,244.19l-3,3.38a30.84,30.84,0,0,1-9.25,6.65l9,4.38-10.32,18.94Zm-8-24.61,11.4,18.08,13.5-.52,5.39-9.89-17-8.27,7.88-2.33c7.35-2.18,12.55-5.58,15.46-10.14L575.7,237l5.21-9.56-7.39-9.3a62.5,62.5,0,0,0-4.52-8.51,76.83,76.83,0,0,0-26-25.2c-10.78-6.38-27.05-11.45-48.22-15l-1.41-.23L463.5,121.84l7.87,2.09a51.2,51.2,0,0,1,24.7,15.16l24.55-4,5-9.12-21.82-3.69-.11,1.85-4.59-2.64a81.46,81.46,0,0,0-7.19-4.13A89.19,89.19,0,0,0,456.37,108l-1.64-.1L448.08,97.4l5.71-.94,1.48-2.71-13.26-5-7.43,10.88L439,98.9l5.77,9.14-5,.64a45.46,45.46,0,0,0-10,2.47l-2,.75-3.16-3.43-6.88,12.73c-2.86,6.49-1.19,14.94,5.1,24.9a82,82,0,0,0,27.21,26.21c11.57,7,26.26,12.19,43.61,15.26l1.39.24,31.78,50.39-8.1-2.38a71.2,71.2,0,0,1-17.72-8.35,74.12,74.12,0,0,1-10.86-8.54l-2.4-2.24,1.69-1.72-22.38-10-5.41,9.92c10,11.9,21.28,21.43,33.26,27.52A98.06,98.06,0,0,0,535,253.65Zm-.49-16.67-29.74-47.14,7.12,1.27c8.54,1.53,15.62,3.95,21.11,7.29a38.78,38.78,0,0,1,13,12.44c3.7,5.85,4.71,11.26,3,16.07-1.75,5-5.91,8.18-12.35,9.59Zm-16.38-37.92,19.31,30.62c3-1,4.78-2.63,5.58-4.9,1-2.87.22-6.42-2.39-10.54A32.72,32.72,0,0,0,531.38,204,47,47,0,0,0,519.81,199.16ZM460.64,159.9c-1.19-.65-2.33-1.34-3.42-2.06h0a36.71,36.71,0,0,1-11-10.69c-2.9-4.61-3.9-9-3-13.19.67-3,2.73-7.13,8.75-9.54l2.46-1,27.65,43.84-7.85-2.09A61.31,61.31,0,0,1,460.64,159.9Zm.11-7.38a44.2,44.2,0,0,0,6.84,3.66l-15.51-24.6a5.88,5.88,0,0,0-2.56,3.76c-.55,2.45.18,5.28,2.15,8.4a30.24,30.24,0,0,0,9.08,8.78Z" transform="translate(-9.83 -10.48)"/><path class="cls-2" d="M527.52,218.33l-26.52-42q-26.72-4.71-44.71-15.68A84.93,84.93,0,0,1,428,133.39q-10.38-16.45-5.2-28.13T447.27,91.1L441,81.16l17.15-.67,6.26,9.94a91.93,91.93,0,0,1,36.78,9.72,93.65,93.65,0,0,1,29.34,23.47l-27.82,4.48a48.17,48.17,0,0,0-24.31-15.5l24.74,39.24q32.49,5.41,49.32,15.39a79.42,79.42,0,0,1,27.09,26.24q11.46,18.17,6.36,31.11t-26.38,16.67L571.37,260l-17.15.67-11.51-18.26a100.71,100.71,0,0,1-41.39-11.65q-19.6-10.34-35.61-30l29.08-4a72.42,72.42,0,0,0,15.82,13.57A67.48,67.48,0,0,0,527.52,218.33ZM461.07,113q-5.71,2.28-6.81,7.26t2.57,10.8a33.23,33.23,0,0,0,10,9.74A54.3,54.3,0,0,0,483,147.69Zm84.48,106.1q8-1.75,10-7.54t-2.7-13.31a35.75,35.75,0,0,0-12-11.41q-7.74-4.68-20-6.87Z" transform="translate(-9.83 -10.48)"/><path class="cls-3" d="M523,224.64l-26.52-42q-26.72-4.71-44.71-15.68a85,85,0,0,1-28.26-27.22c-6.91-11-6.59-18.73-3.14-26.51s9.54-14.11,22.38-15.79L442,88.75l11.62-2,6.26,9.94a92.09,92.09,0,0,1,36.78,9.71c11.18,5.7,17.92,13.7,26.3,23.65l-24.78,4.31a48.17,48.17,0,0,0-24.31-15.5l24.74,39.24q32.49,5.41,49.33,15.39A79.39,79.39,0,0,1,575,199.78q11.46,18.16,6.36,31.11T555,247.56l9.35,18.64-14.65.79-11.52-18.26a100.76,100.76,0,0,1-41.39-11.65c-13.07-6.89-21.6-14.34-32.28-27.43l25.75-6.55a72.42,72.42,0,0,0,15.82,13.57A67.83,67.83,0,0,0,523,224.64ZM456.55,119.28q-5.71,2.28-6.81,7.26t2.57,10.8a33.27,33.27,0,0,0,10,9.74A54.12,54.12,0,0,0,478.44,154ZM541,225.38q8-1.75,10-7.54t-2.7-13.31a35.75,35.75,0,0,0-12-11.41q-7.74-4.68-20-6.88Z" transform="translate(-9.83 -10.48)"/><path class="cls-1" d="M552.51,263.94l-11.63-18.45a104.46,104.46,0,0,1-41.05-11.89c-13.26-7.07-25.69-17.41-36.6-30.78l-1.37-1.69,2.46-4.45,10.39-.34,21.35-2.94,1.13,1.29a68.93,68.93,0,0,0,15.13,13q3.72,2.34,7.29,4.12l-20.56-32.6c-17.52-3.23-32.44-8.55-44.43-15.84a88.56,88.56,0,0,1-29.29-28.25c-7.48-11.87-9.31-22.34-5.42-31.12,3.45-7.77,10.88-12.87,22.1-15.22l-6.66-10.56,24.51-1,6.38,10.12a95.38,95.38,0,0,1,36.4,10c11.47,5.87,24.21,13.68,32.83,23.92h0l-2.89,5.31-31.12,5-1.17-1.34A46.55,46.55,0,0,0,486.2,119l18.88,29.94c21.27,3.65,37.75,8.87,49,15.56a82.91,82.91,0,0,1,28.16,27.28c8.17,13,10.4,24.4,6.63,34-3.43,8.68-11.55,14.62-24.19,17.68l11.08,15.16-2.47,4.53Zm-8-24.61,11.41,18.08,11.27-.4L554.3,238.92l4.68-.82c12.95-2.26,21-7.2,23.95-14.69s1-17.09-6.07-28.23a76.76,76.76,0,0,0-26-25.21c-10.8-6.35-27.05-11.45-48.22-15l-1.41-.24-29.85-47.32,7.86,2.09a51.11,51.11,0,0,1,24.7,15.15l22.1-3.5c-7.2-7.59-17.11-13.51-26.28-18.18a89.19,89.19,0,0,0-35.52-9.38l-1.63-.1-6.16-9.75-9.77.38,6,9.48-4.95.64c-11.6,1.51-19,5.64-21.94,12.3s-1.29,15.16,5,25.12A82.17,82.17,0,0,0,458,157.89c11.63,7.09,26.27,12.2,43.61,15.26l1.39.24,31.77,50.39-8.1-2.38a70.63,70.63,0,0,1-17.71-8.35,75.12,75.12,0,0,1-15.36-12.87l-21.64,3c9.4,10.59,19.87,19,30.9,24.78a98,98,0,0,0,40.09,11.28ZM544,222.67l-29.73-47.15,7.11,1.27c8.55,1.53,15.63,3.94,21.12,7.29a39.13,39.13,0,0,1,13,12.43c3.7,5.87,4.71,11.27,3,16.08-1.76,5-5.91,8.19-12.35,9.6Zm-16.37-37.93L547,215.36c2.94-1,4.77-2.63,5.58-4.9,1-2.87.21-6.42-2.39-10.54a32.66,32.66,0,0,0-10.94-10.38A47.7,47.7,0,0,0,527.67,184.74Zm-59.18-39.26c-1.19-.65-2.32-1.34-3.41-2.06a36.6,36.6,0,0,1-10.95-10.69c-2.9-4.6-3.9-9-3-13.19.67-3,2.72-7.13,8.74-9.53l2.47-1L490,152.86l-7.85-2.08A61.8,61.8,0,0,1,468.49,145.48Zm-8.56-28.32a6,6,0,0,0-2.56,3.75c-.54,2.46.18,5.29,2.16,8.42a30.48,30.48,0,0,0,9.08,8.78,43.34,43.34,0,0,0,6.84,3.65Z" transform="translate(-9.83 -10.48)"/><polygon class="cls-1" points="454.97 284.94 434.69 322.16 480.01 338.01 526.47 348.03 582.35 344.29 625.27 326.31 643.95 308.64 659.17 279.24 619.46 305.6 565.8 310.98 495.51 300.2 454.97 284.94"/><polygon class="cls-1" points="428.46 271.81 408.55 308.35 392.26 297.78 413.16 259.41 428.46 271.81"/></svg>