<svg id="Layer_1" data-name="Layer 1" xmlns="http://www.w3.org/2000/svg" viewBox="0 0 676.45 122.83"><defs><style>.cls-1{fill:#fff;}</style></defs><title>cointelegraph</title><g id="Page-1"><g id="CT-logo-BlackYellow-tag"><g id="Atoms_Icons_logos_CT-GY-icon" data-name="Atoms/Icons/logos/CT-GY-icon"><g id="Group"><path id="Shape" class="cls-1" d="M89.7,135.57,67.84,145.1v-1a74.46,74.46,0,0,1-13.28,1.92c-20.64-.17-36.9-11-37.16-23.78v-4.72c6.73,9.79,20.54,16.44,37.16,16.17a53.49,53.49,0,0,0,16.17-1.92l1.92-4.72A62.62,62.62,0,0,1,54.56,130c-20.64,0-36.9-10.76-37.16-23.78v-3.85c6.73,9.09,20.54,15.65,37.16,15.21a46.1,46.1,0,0,0,21-3.85l1-4.72a44.86,44.86,0,0,1-21.86,4.72C34,114,17.75,103.22,17.49,89.94V86.09C24.22,95.36,38,102,54.64,102.26a59.61,59.61,0,0,0,25.71-6.64l1-5.68C74.66,94.83,65,98.07,54.64,98.5,34,98.07,17.75,87.22,17.49,73.76,17.66,60.91,34,50.16,54.64,50c12.24.18,23.69,4.46,30.43,11.45l.7,1.14h4.8l-.7-1.14c-6.73-9.18-20.28-15.21-35.23-15.21-22.9-.09-41.09,12.42-41.09,27.45v49.49c.79,14.68,18.54,26.66,40.92,26.66C69.24,149.91,82.62,144.05,89.7,135.57Z" transform="translate(-13.55 -46.22)"/><path id="Shape-2" data-name="Shape" class="cls-1" d="M80.78,169.05l7.7-32.69L66.36,146,79.82,89.32H53.94l6.73-27.89h82.62l-6.73,27.89H109.63l-5.77,15.39,29.81-12.5Zm13.47-39.34L90.4,149l31.73-48-26,11.54,11.54-26.93h26l4.81-20.19h-75L58.66,85.56h26l-12.5,53.77Z" transform="translate(-13.55 -46.22)"/></g></g><path id="Shape-3" data-name="Shape" class="cls-1" d="M193.39,110.26v.12c.13,4.47-1.27,7.92-4.08,10.47s-6.64,3.84-11.62,3.84a16.12,16.12,0,0,1-12.13-4.86c-3.07-3.19-4.6-7.4-4.6-12.51V99c0-5.11,1.53-9.32,4.47-12.51a15.74,15.74,0,0,1,11.87-4.86c5.11,0,9.07,1.28,12,3.71s4.34,6,4.21,10.47V96h-8.17c0-2.68-.64-4.72-1.92-6s-3.32-1.91-6-1.91a6.68,6.68,0,0,0-5.87,3.06,13.35,13.35,0,0,0-2.17,7.79v8.43a13.79,13.79,0,0,0,2.17,7.92,7.34,7.34,0,0,0,6.25,3.06c2.56,0,4.35-.64,5.62-1.91s1.92-3.32,1.92-6h8Zm46.23-3.32a17.87,17.87,0,0,1-4.85,12.77q-4.8,5-12.65,5a16.93,16.93,0,0,1-12.64-5,17.87,17.87,0,0,1-4.85-12.77V99.4a18.08,18.08,0,0,1,4.85-12.77A16.74,16.74,0,0,1,222,81.53c5.23,0,9.45,1.66,12.64,5.1s4.85,7.66,4.85,12.77v7.54Zm-8.43-7.67a12.56,12.56,0,0,0-2.43-8A8.24,8.24,0,0,0,222,88a7.67,7.67,0,0,0-6.64,3.19,13,13,0,0,0-2.43,8v7.54a12.94,12.94,0,0,0,2.43,8.17,8,8,0,0,0,6.64,3.19,7.9,7.9,0,0,0,6.76-3.19,12.7,12.7,0,0,0,2.43-8.17Zm30.14,24.78H252.9V82.16h8.43Zm48.39,0H301.3L284.44,95.83h-.13v28.22h-8.43V82.16h8.43l16.86,28.22h.13V82.16h8.42ZM352,88.68H340v35.37h-8.43V88.68H319.81V82.16H352Zm34.73,17H371.14v12h18.52v6.39H362.84V82.16h26.82v6.52H371.27V99.15h15.58v6.51Zm23.37,12h18.77v6.39h-27.2V82.16h8.43v35.5Zm54.53-12H449v12h18.51v6.39H440.74V82.16h26.81v6.52H449.17V99.15h15.58v6.51Zm47.12,12.77a15.91,15.91,0,0,1-5.88,4.47,22.26,22.26,0,0,1-10,1.91c-5.1,0-9.19-1.53-12.38-4.72a16.72,16.72,0,0,1-4.86-12.39V98.89c0-5.11,1.54-9.19,4.73-12.38a16,16,0,0,1,12-4.86c5.11,0,9.07,1.28,11.75,3.71a11.91,11.91,0,0,1,4,9.7v.13h-7.92A7.18,7.18,0,0,0,501.27,90,7.73,7.73,0,0,0,495.65,88,7.94,7.94,0,0,0,489.39,91a12.45,12.45,0,0,0-2.3,7.67v8.81a11.86,11.86,0,0,0,2.43,7.79,7.88,7.88,0,0,0,6.51,2.93,15.19,15.19,0,0,0,4.73-.63,6.81,6.81,0,0,0,2.68-1.54v-8.17h-8.05V102h16.48v16.47Zm21.71-11.11v16.73H525V82.16h14.56c4.72,0,8.55,1.15,11.23,3.32a11.13,11.13,0,0,1,4.09,9.07,9.41,9.41,0,0,1-1.66,5.62,13,13,0,0,1-5,3.83,9.37,9.37,0,0,1,5.36,3.7,12.14,12.14,0,0,1,1.66,6.39v3.06a13,13,0,0,0,.51,3.7,4.79,4.79,0,0,0,1.66,2.81v.64h-8.68a5,5,0,0,1-1.53-3.06,22.86,22.86,0,0,1-.39-4.09v-2.93a6,6,0,0,0-6.51-6.65h-6.89Zm0-6.39h6a7.76,7.76,0,0,0,5.23-1.53,5.57,5.57,0,0,0,1.79-4.47,6.25,6.25,0,0,0-1.79-4.59c-1.15-1.15-2.81-1.66-5.1-1.66h-6.13v12.25Zm57.08,14.18H577l-2.81,9.07h-8.81l14.17-41.89h8.56l14,41.89h-8.82ZM579,108.47h9.45l-4.59-14.81h-.13Zm41.76.38v15.2h-8.43V82.16h16.09c4.85,0,8.56,1.28,11.37,3.71a12.17,12.17,0,0,1,4.08,9.7,12.64,12.64,0,0,1-4.08,9.71c-2.81,2.42-6.52,3.7-11.37,3.7h-7.66Zm0-6.38h7.66a7.22,7.22,0,0,0,5.36-1.92,7.09,7.09,0,0,0,1.79-4.85,7.21,7.21,0,0,0-1.79-5c-1.15-1.28-2.93-1.92-5.36-1.92h-7.66ZM690,124.05h-8.43V106.68H664.46v17.37H656V82.16h8.43v18h17.11v-18H690Z" transform="translate(-13.55 -46.22)"/></g></g></svg>