<svg id="Layer_1" data-name="Layer 1" xmlns="http://www.w3.org/2000/svg" viewBox="0 0 505.19 86.82"><defs><style>.cls-1{fill:#39a1ff;}</style></defs><title>decentraland</title><path class="cls-1" d="M520.85,78h-7.77V72.47a12.77,12.77,0,0,1-7.58,5.46c-6.92,1.73-13.49-1.26-16.2-7.85-3.08-7.51-3-15,1.87-21.89,4-5.69,12.75-6.91,18.25-2.8A30.92,30.92,0,0,1,512.89,49V30.17h8ZM513,60.71a14.17,14.17,0,0,0-1.78-7.13,8,8,0,0,0-14,.12,14.39,14.39,0,0,0-.06,14,7.4,7.4,0,0,0,7,4.19,7.75,7.75,0,0,0,7.18-4.16A14.26,14.26,0,0,0,513,60.71Z" transform="translate(-15.66 -12.38)"/><path class="cls-1" d="M130,32.28c3.29,0,6.5-.05,9.7,0,4,.08,8-.12,11.94.46,9.48,1.41,15.37,7.52,16.76,17a30.39,30.39,0,0,1-1.49,16A18,18,0,0,1,151.4,77.58c-5,.55-10,.31-15,.4-2.09,0-4.17,0-6.35,0Zm8.15,39c4-.19,7.83-.08,11.6-.62,5.31-.75,8.51-4.18,9.9-9.26a23.89,23.89,0,0,0,.25-11.67c-1.09-4.89-3.83-8.46-8.82-9.9-4.23-1.23-8.57-.5-12.93-.7Z" transform="translate(-15.66 -12.38)"/><path class="cls-1" d="M393.75,77.9h-7.53V72.43c-.35.3-.52.38-.59.52-3.59,6-12.74,6.84-17.91,3.39a9.47,9.47,0,0,1-4.32-9.27,8.17,8.17,0,0,1,5.71-7.42,42.09,42.09,0,0,1,8.21-1.75c2.79-.37,5.62-.38,8.41-.55.79-4.2-.53-6.93-3.71-7.88-4.33-1.27-8,.29-9.69,4.21h-7.17a7.5,7.5,0,0,1,1.78-5.24,16,16,0,0,1,4.56-3.74,18.38,18.38,0,0,1,15.82-.16,10.07,10.07,0,0,1,6.42,9.87c0,7.43,0,14.86,0,22.29Zm-8-15.4c-2.89.2-5.7.37-8.51.6a12.32,12.32,0,0,0-2.55.54c-2.26.74-3.44,2.23-3.42,4.19A4.51,4.51,0,0,0,374.89,72C381.42,73.91,386.7,69.39,385.76,62.5Z" transform="translate(-15.66 -12.38)"/><path class="cls-1" d="M436.77,57.34c.08-2.85.42-5.68-2.47-7.22a8.32,8.32,0,0,0-8.62.22A3.64,3.64,0,0,0,424,52.09c-.48,1.67-1.57,1.76-3,1.69-1.64-.09-3.29,0-5,0a10,10,0,0,1,4.26-7.86c5.19-3.87,14.54-4,19.87-.29a10,10,0,0,1,4.44,7.52c.06.62,0,1.26,0,1.89V77.85h-7.56V72.42c-.9,1-1.5,1.91-2.25,2.63-4.22,4-11.86,4.4-16.63,1-5.08-3.61-6.06-13.14,1.62-16.33a34.29,34.29,0,0,1,8.48-1.84C431.05,57.52,433.88,57.51,436.77,57.34Zm-.08,5.14c-3.2.25-6.34.44-9.47.75a8.66,8.66,0,0,0-2.63.83,4.1,4.1,0,0,0-.08,7.43,9.17,9.17,0,0,0,9.41-.84C436.82,68.71,437.09,65.78,436.69,62.48Z" transform="translate(-15.66 -12.38)"/><path class="cls-1" d="M277.53,62.55H253.18c-.93,3.81,1.77,8.17,5.69,9.4a8.77,8.77,0,0,0,10.5-3.67,1.15,1.15,0,0,1,.77-.5c2.23,0,4.46,0,6.81,0a10.52,10.52,0,0,1-3.47,6.53c-4,3.63-8.8,4.61-14,4.09-9-.91-13.83-7.16-14.41-15.72-.35-5.17.43-10.15,3.91-14.25,4.53-5.34,10.49-6.38,17-4.87,6.21,1.45,9.64,5.75,10.85,11.82A66.88,66.88,0,0,1,277.53,62.55Zm-8.07-5.3A7.83,7.83,0,0,0,262,49.08c-5-.22-8.63,3.06-8.94,8.17Z" transform="translate(-15.66 -12.38)"/><path class="cls-1" d="M205.72,62.57H181.44c-1.08,4.75,2.89,9.59,8,9.8,3.45.14,6.47-.75,8.23-4.11a1.17,1.17,0,0,1,.89-.48c2.19,0,4.37,0,6.66,0a10.82,10.82,0,0,1-2.61,5.66c-5.7,6.79-20.61,7.35-26.41-1.6-4.62-7.12-3.72-19.06,2.18-24.6,5-4.67,10.93-5.28,17.15-3.29,5.94,1.91,8.85,6.52,9.76,12.47C205.59,58.34,205.57,60.34,205.72,62.57Zm-8.06-5.3a7.71,7.71,0,0,0-8-8.2,8.06,8.06,0,0,0-8.24,8.2Z" transform="translate(-15.66 -12.38)"/><path class="cls-1" d="M313.41,77.92h-7.79V76.17c0-6.51,0-13-.07-19.52-.07-4.14-2.22-6.54-5.84-6.94-4.31-.47-7.61,1.56-8.63,5.45a15.18,15.18,0,0,0-.44,3.74c0,5.78,0,11.56,0,17.34v1.65h-7.78V43.49h7.47v6c.35-.43.47-.56.56-.7A12.89,12.89,0,0,1,308,44.56a10.4,10.4,0,0,1,5.35,9.15c.23,7.86.15,15.73.19,23.6A2.88,2.88,0,0,1,313.41,77.92Z" transform="translate(-15.66 -12.38)"/><path class="cls-1" d="M459.25,77.94h-7.8V43.49h7.43v5.56l.28.13c.22-.31.45-.61.65-.93,2.7-4.31,7.77-6.15,13.6-4.92A10.69,10.69,0,0,1,482,53a51,51,0,0,1,.25,5.67c0,6.35,0,12.7,0,19.18h-7.91V76.15c0-6.55.07-13.11-.14-19.66-.14-4.43-2.52-6.67-6.56-6.81-4.39-.16-7.48,2.29-8.13,6.48a19.26,19.26,0,0,0-.22,3c0,5.68,0,11.36,0,17Z" transform="translate(-15.66 -12.38)"/><path class="cls-1" d="M234.07,66.07h7.42a12.82,12.82,0,0,1-4.27,8.7c-6.42,5.71-18.42,4.79-23.86-1.86-2.81-3.43-3.79-7.5-3.83-11.81-.06-5.37,1.22-10.3,5.33-14.13,6.38-5.95,18.52-5.24,23.81,1.39a12.16,12.16,0,0,1,2.71,7.24c-2.28,0-4.55,0-6.83,0-.24,0-.57-.43-.69-.72-1.45-3.78-3.69-5.43-7.51-5.48a7.77,7.77,0,0,0-7.71,5.36,16.18,16.18,0,0,0,.07,12.21,8.22,8.22,0,0,0,11.12,4.53A7.21,7.21,0,0,0,234.07,66.07Z" transform="translate(-15.66 -12.38)"/><path class="cls-1" d="M322.5,35.73h7.78v7.65c1.86,0,3.59.06,5.31,0,1.09,0,1.48.29,1.41,1.39-.08,1.49,0,3,0,4.67h-6.63v1.89c0,5.2,0,10.39,0,15.59,0,4.11,1.24,5.26,5.4,5,.33,0,.67,0,1.1,0v5.93c-3.43.51-6.81.63-10.06-.66s-4.25-4.12-4.29-7.3c-.09-6.21,0-12.43-.05-18.64V49.49H317.8V43.38h4.7Z" transform="translate(-15.66 -12.38)"/><path class="cls-1" d="M400.85,30.22h7.67V77.86h-7.67Z" transform="translate(-15.66 -12.38)"/><path class="cls-1" d="M342.73,43.47h7.46V49c1.07-2.08,2.26-4,4.4-5a9.2,9.2,0,0,1,6.62-.67v7l-1.63-.24c-5.25-.77-8.89,2.18-9,7.51-.12,4.7,0,9.42,0,14.13,0,2,0,4,0,6.15h-7.78Z" transform="translate(-15.66 -12.38)"/><path class="cls-1" d="M102.46,55.79A43.4,43.4,0,1,1,59.12,12.38,43.44,43.44,0,0,1,102.46,55.79ZM93,79.81A41.6,41.6,0,0,0,34,22.53C16.6,35.83,14.4,57.37,20.57,71.34L43.24,40.59,63.71,68.38l9.88-11.84Zm-65.83,2.4a2.49,2.49,0,0,1-.11.29c9.72,10.91,21.83,16.1,36.48,14.65C74.68,96,83.81,90.89,91.25,82.21ZM42.28,44.87,22.08,72.28h20.2ZM44.2,72.36h1.3c4.2,0,8.41-.09,12.61,0a3.93,3.93,0,0,0,3.79-1.77c.45-.66.53-1,0-1.69Q53.45,57.48,45,46c-.21-.28-.44-.53-.81-1ZM21.55,74.2c1.33,2.11,2.47,4,3.69,5.82a1.5,1.5,0,0,0,1.06.37q13.32,0,26.66,0a1.41,1.41,0,0,0,1-.32c1.63-1.88,3.21-3.81,4.92-5.87Zm51.1-13.77L56.06,80.34H72.65ZM91.12,80.34,74.55,60.45V80.34Z" transform="translate(-15.66 -12.38)"/><path class="cls-1" d="M62.1,40.82a11.5,11.5,0,0,1,23,.17,11.5,11.5,0,1,1-23-.17Zm1.77.11a9.73,9.73,0,1,0,9.67-9.75A9.74,9.74,0,0,0,63.87,40.93Z" transform="translate(-15.66 -12.38)"/><path class="cls-1" d="M40.46,29.21a6.2,6.2,0,1,1,6.2,6.2A6.22,6.22,0,0,1,40.46,29.21Zm6.16,4.43a4.43,4.43,0,1,0-4.39-4.47A4.43,4.43,0,0,0,46.62,33.64Z" transform="translate(-15.66 -12.38)"/></svg>