<svg id="Layer_1" data-name="Layer 1" xmlns="http://www.w3.org/2000/svg" viewBox="0 0 743.65 744"><defs><style>.cls-1{fill:#39a1ff;}</style></defs><title>derace</title><path class="cls-1" d="M640,279.45c0,45.79-.23,91.59.06,137.38.27,42.77-17.59,75.25-53.72,97.94-33.91,21.3-67.34,43.37-101.68,64-57,34.21-115.26,34.85-172.77,1.57-37.51-21.71-74.14-45-110.63-68.37-34-21.8-50.52-54.19-50.73-94.11-.52-93.95-.14-187.9-.24-281.85,0-24.68,9.69-43.59,31.28-56.26q214.17-125.65,428.19.16c20.82,12.22,30.74,30.44,30.42,55.11C639.51,183.13,640,231.29,640,279.45ZM340.05,127c8-5.32,16.59-9.24,22.69-15.58,7.73-8,15.9-13.62,25.89-7.54,11,6.69,21.54,6.9,33.54,4.85,22.74-3.87,36.7,13.71,54,23.33,5.81,3.23,12.78,4.34,19.22,6.42l2.43-4c5.4,14.91,10.5,29.93,16.28,44.68,6.42,16.39,14.45,32.23,19.54,49,1.28,4.21-4.87,12.69-9.77,16.07-3.63,2.5-10.76-.07-16.33-.38,14.42-9.62,14.66-16,.7-27.36-1.81,3.21-2.78,7.64-5.46,9.27-20.33,12.32-20.52,34.46-27,53.59-3.22,9.54-6.14,19.4-11,28.12-5.18,9.3-12.77,17.12-25.33,11.92-11.1-4.59-16.37-18.81-14.16-31.5,3.34-19.24-3.68-36.88-9.38-57.39-13.26,15.47-7.71,28.59-2.5,40.94,6.77,16.05,6.94,31.54,2,48.16-1.53,5.1,1,14.7,5.06,17.57,11,7.8,23.53,13.45,35.77,19.3,17.48,8.35,20.54,17.31,14,35.12-5.31,14.4-8.72,29.56-12.24,44.55-2.22,9.44-4.55,17.32-14.71,22.24-12.86,6.24-24.9,14.43-36.57,22.78-7.59,5.43-13.83,12.94-22,1.17-.43-.61-2.94,0-4.38.35-19.74,5.49-39.39,11.31-59.25,16.35-3.46.87-9.33-.3-11.23-2.75-2.09-2.7-2.62-9.09-.8-11.9,8.68-13.42,15.53-28.72,33.57-33.31,9.95-2.54,19.5-6.93,28.9-11.22,3.5-1.6,9.07-6.7,8.55-7.81-3.6-7.75-6.94-18-13.5-21.4-7.92-4.16-16.07-16.41-28.49-5.19-28.06,25.36-62.15,38.38-98.68,46-7.8,1.63-15.34,4.51-25.46,7.56,6.58,5.43,10.21,9.19,14.53,11.86,37.25,23.1,74,47.07,112.14,68.66,38.73,21.93,78.68,20.68,116.91-2.27C491.05,517.07,523.6,495.3,557,475c23.62-14.35,34.4-34.56,34.29-62.07-.37-89.73-.49-179.47.24-269.19.11-13.5-4.7-20.65-15.67-26.73Q393,15.69,211.56,119.09c-8.44,4.81-11.67,10.4-11.56,20.18.49,46.75.2,93.51.27,140.27,0,3.91.61,7.82,1.1,13.77C225.78,277.82,242,258,254,234.68a26.12,26.12,0,0,0,1.74-17.39c-.57-2-9.37-1.85-14.43-2.68,12-9,25.65-15.63,39.47-21.92s16.11-12.71,10.43-26.81c-2.71-6.71-3.67-14.13-6.1-24,10.92,8.88,19.26,20.63,31,9.44,8-7.62,1.87-14.76-6.18-19.8l1.3-3.45,38.27,6.46Z" transform="translate(-18.72 -17)"/><path class="cls-1" d="M18.72,637.64c32.74,0,64-2.41,94.67.68s50,29,49.63,59.12c-.34,30-20.6,56.09-50.67,58.72-30.76,2.7-61.93.6-93.63.6Zm34.51,88.91c17.1,0,32.65.53,48.15-.15,15.73-.68,25.79-11.5,27-27.38,1.11-15.32-8-29.76-22.73-31.19-17.12-1.68-34.52-.39-52.37-.39Z" transform="translate(-18.72 -17)"/><path class="cls-1" d="M323.54,756.82H291V636.57c30.92,0,61.45-1.11,91.85.44,17.14.87,30.06,11.88,34.85,28.74,5.33,18.76.68,35.52-16.85,48.08l23.47,43.6c-11.87,0-21.71.73-31.35-.37-3.61-.41-8.82-4.5-9.75-7.88-7.81-28.47-28.42-32.11-53.1-28.63-1.81.25-3.6.56-6.55,1Zm.12-64.74c16.91,0,33.3.9,49.45-.6,4.3-.4,10.34-7.85,11-12.69.49-3.55-6.25-11.36-10.21-11.68-16.58-1.33-33.33-.56-50.25-.56Z" transform="translate(-18.72 -17)"/><path class="cls-1" d="M533.92,759.49c-9.59-2.38-17.63-4.84-25.86-6.16-2.76-.44-6,1.91-9,3.14-21.29,8.83-46,2.93-58.69-14-13.87-18.58-13.8-45,.18-63.18,13.32-17.3,36.58-22.46,58.71-13.81,3.65,1.43,8.53-.3,12.85-.56l21.82-1.29Zm-29.67-48.37c.14-12.32-8.95-21.82-20.73-21.68a21.28,21.28,0,0,0-20.82,20.49c-.43,12.4,8.2,21.78,20.31,22.09C495.37,732.33,504.11,723.72,504.25,711.12Z" transform="translate(-18.72 -17)"/><path class="cls-1" d="M761.77,718.08H694.68c1.66,14.87,12.71,20,26.23,14.94,11.68-4.38,24.23-6.42,38-9.89-5,26.92-30.09,41.42-57.58,36.81S657,730.3,661.78,701c4.3-26.51,29.48-43.82,57.68-39.66C747.34,665.47,766,689.54,761.77,718.08ZM728.31,700.2q1.17-2.54,2.36-5.08c-6.93-2.89-13.85-8-20.78-8-5.68,0-11.38,6-17.07,9.37l2.07,3.71Z" transform="translate(-18.72 -17)"/><path class="cls-1" d="M272.67,722.64c-9.43,30.13-36.18,43.65-62.9,36.47a49.14,49.14,0,0,1-35.59-57.68c5.68-27.58,29.06-43.95,57.33-40.12,28.47,3.85,44.76,25.14,41.84,56.21H207.58c.7,14.89,12.18,20.58,25.52,15.64C244.84,728.8,257.37,726.6,272.67,722.64ZM241.41,700l1.86-4.42c-6.84-3-13.62-8.29-20.52-8.45-5.75-.14-11.64,5.69-17.46,8.88l2,4Z" transform="translate(-18.72 -17)"/><path class="cls-1" d="M650,702.31c-12.94-.31-25.89,4.74-37.16-8.4-6.84-8-17.76-5.59-24.94,2.72-7.87,9.12-7.35,19.56-.12,28.46,6.8,8.37,18.5,11,24.8,2.82,10.82-14.09,24-8.52,36.66-10,2,20.76-17,40.13-40.42,42.25-32.23,2.92-56-15.74-58.06-45.65-2.06-29.41,18-51.76,47.91-53.41C626.6,659.59,648.55,676.93,650,702.31Z" transform="translate(-18.72 -17)"/></svg>