<svg id="Layer_1" data-name="Layer 1" xmlns="http://www.w3.org/2000/svg" xmlns:xlink="http://www.w3.org/1999/xlink" viewBox="0 0 2141.68 1227.49"><defs><style>.cls-1,.cls-12,.cls-15,.cls-9{fill:none;}.cls-2{fill:#231f20;}.cls-3{clip-path:url(#clip-path);}.cls-4{fill:#150035;}.cls-5{fill:#fff;}.cls-6{fill:#39a1ff;}.cls-10,.cls-12,.cls-15,.cls-7,.cls-9{stroke-miterlimit:10;}.cls-13,.cls-7{opacity:0.38;}.cls-13,.cls-14,.cls-7{fill:url(#_10_dpi_50_);}.cls-7{stroke:url(#_6_dpi_10_);}.cls-10,.cls-8{fill:#f9f9f9;}.cls-12,.cls-9{stroke:#150035;}.cls-9{stroke-width:0.5px;}.cls-10,.cls-15{stroke:#39a1ff;}.cls-11{fill:#e9eef4;}.cls-12{stroke-width:0.25px;}.cls-14{opacity:0.44;}</style><clipPath id="clip-path" transform="translate(771.83 318.58)"><rect id="SVGID" class="cls-1" x="9.51" y="20.94" width="418.6" height="458.06"/></clipPath><pattern id="_10_dpi_50_" data-name="10 dpi 50%" width="4.93" height="3.28" patternTransform="translate(11.39 2.61)" patternUnits="userSpaceOnUse" viewBox="0 0 4.92 3.28"><rect class="cls-1" width="4.93" height="3.28"/><path class="cls-2" d="M1.43,3.28a.21.21,0,0,0,.21-.21.2.2,0,0,0-.21-.2.2.2,0,0,0-.2.2A.2.2,0,0,0,1.43,3.28Z"/><path class="cls-2" d="M.61,3.28a.21.21,0,0,0,.21-.21.2.2,0,0,0-.21-.2.2.2,0,0,0-.2.2A.2.2,0,0,0,.61,3.28Z"/><path class="cls-2" d="M1.43,2.46a.21.21,0,0,0,.21-.21.2.2,0,0,0-.21-.2.2.2,0,0,0-.2.2A.2.2,0,0,0,1.43,2.46Z"/><path class="cls-2" d="M.61,2.46a.21.21,0,0,0,.21-.21.2.2,0,0,0-.21-.2.2.2,0,0,0-.2.2A.2.2,0,0,0,.61,2.46Z"/><path class="cls-2" d="M.21,2.87a.2.2,0,0,0,.2-.21.2.2,0,0,0-.2-.2.2.2,0,0,0-.21.2A.21.21,0,0,0,.21,2.87Z"/><path class="cls-2" d="M1,2.87a.21.21,0,0,0,.21-.21A.2.2,0,0,0,1,2.46a.2.2,0,0,0-.2.2A.2.2,0,0,0,1,2.87Z"/><path class="cls-2" d="M.21,2.05a.2.2,0,0,0,.2-.21.2.2,0,0,0-.2-.2.2.2,0,0,0-.21.2A.21.21,0,0,0,.21,2.05Z"/><path class="cls-2" d="M1,2.05a.21.21,0,0,0,.21-.21A.2.2,0,0,0,1,1.64a.2.2,0,0,0-.2.2A.2.2,0,0,0,1,2.05Z"/><path class="cls-2" d="M3.09,3.28a.2.2,0,0,0,.2-.21.2.2,0,0,0-.2-.2.2.2,0,0,0-.21.2A.21.21,0,0,0,3.09,3.28Z"/><path class="cls-2" d="M2.27,3.28a.2.2,0,0,0,.2-.21.2.2,0,0,0-.2-.2.2.2,0,0,0-.21.2A.21.21,0,0,0,2.27,3.28Z"/><path class="cls-2" d="M3.09,2.46a.2.2,0,0,0,.2-.21.2.2,0,0,0-.2-.2.2.2,0,0,0-.21.2A.21.21,0,0,0,3.09,2.46Z"/><path class="cls-2" d="M2.27,2.46a.2.2,0,0,0,.2-.21.2.2,0,0,0-.2-.2.2.2,0,0,0-.21.2A.21.21,0,0,0,2.27,2.46Z"/><path class="cls-2" d="M1.86,2.87a.2.2,0,0,0,.2-.21.2.2,0,0,0-.2-.2.2.2,0,0,0-.21.2A.21.21,0,0,0,1.86,2.87Z"/><path class="cls-2" d="M2.68,2.87a.2.2,0,0,0,.2-.21.2.2,0,0,0-.2-.2.2.2,0,0,0-.21.2A.21.21,0,0,0,2.68,2.87Z"/><path class="cls-2" d="M1.86,2.05a.2.2,0,0,0,.2-.21.2.2,0,0,0-.2-.2.2.2,0,0,0-.21.2A.21.21,0,0,0,1.86,2.05Z"/><path class="cls-2" d="M2.68,2.05a.2.2,0,0,0,.2-.21.2.2,0,0,0-.2-.2.2.2,0,0,0-.21.2A.21.21,0,0,0,2.68,2.05Z"/><path class="cls-2" d="M4.72,3.28a.21.21,0,1,0,0-.41.2.2,0,0,0-.2.2A.2.2,0,0,0,4.72,3.28Z"/><path class="cls-2" d="M3.9,3.28a.21.21,0,1,0,0-.41.2.2,0,0,0-.2.2A.2.2,0,0,0,3.9,3.28Z"/><path class="cls-2" d="M4.72,2.46a.21.21,0,1,0,0-.41.2.2,0,0,0-.2.2A.2.2,0,0,0,4.72,2.46Z"/><path class="cls-2" d="M3.9,2.46a.21.21,0,1,0,0-.41.2.2,0,0,0-.2.2A.2.2,0,0,0,3.9,2.46Z"/><path class="cls-2" d="M3.49,2.87a.21.21,0,1,0,0-.41.2.2,0,0,0-.2.2A.2.2,0,0,0,3.49,2.87Z"/><path class="cls-2" d="M4.31,2.87a.21.21,0,1,0,0-.41.2.2,0,0,0-.2.2A.2.2,0,0,0,4.31,2.87Z"/><path class="cls-2" d="M3.49,2.05a.21.21,0,1,0,0-.41.2.2,0,0,0-.2.2A.2.2,0,0,0,3.49,2.05Z"/><path class="cls-2" d="M4.31,2.05a.21.21,0,1,0,0-.41.2.2,0,0,0-.2.2A.2.2,0,0,0,4.31,2.05Z"/><path class="cls-2" d="M1.43,1.64a.21.21,0,0,0,.21-.21.2.2,0,0,0-.21-.2.2.2,0,0,0-.2.2A.2.2,0,0,0,1.43,1.64Z"/><path class="cls-2" d="M.61,1.64a.21.21,0,0,0,.21-.21.2.2,0,0,0-.21-.2.2.2,0,0,0-.2.2A.2.2,0,0,0,.61,1.64Z"/><path class="cls-2" d="M1.43.82A.21.21,0,0,0,1.64.61a.2.2,0,0,0-.21-.2.2.2,0,0,0-.2.2A.2.2,0,0,0,1.43.82Z"/><path class="cls-2" d="M.61.82A.21.21,0,0,0,.82.61.2.2,0,0,0,.61.41a.2.2,0,0,0-.2.2A.2.2,0,0,0,.61.82Z"/><path class="cls-2" d="M.21,1.23A.2.2,0,0,0,.41,1a.2.2,0,0,0-.2-.2A.2.2,0,0,0,0,1,.21.21,0,0,0,.21,1.23Z"/><path class="cls-2" d="M1,1.23A.21.21,0,0,0,1.23,1,.2.2,0,0,0,1,.82a.2.2,0,0,0-.2.2A.2.2,0,0,0,1,1.23Z"/><path class="cls-2" d="M.21.41A.2.2,0,0,0,.41.2.2.2,0,0,0,.21,0,.2.2,0,0,0,0,.2.21.21,0,0,0,.21.41Z"/><path class="cls-2" d="M1,.41A.21.21,0,0,0,1.23.2.2.2,0,0,0,1,0a.2.2,0,0,0-.2.2A.2.2,0,0,0,1,.41Z"/><path class="cls-2" d="M3.09,1.64a.2.2,0,0,0,.2-.21.2.2,0,0,0-.2-.2.2.2,0,0,0-.21.2A.21.21,0,0,0,3.09,1.64Z"/><path class="cls-2" d="M2.27,1.64a.2.2,0,0,0,.2-.21.2.2,0,0,0-.2-.2.2.2,0,0,0-.21.2A.21.21,0,0,0,2.27,1.64Z"/><path class="cls-2" d="M3.09.82a.2.2,0,0,0,.2-.21.2.2,0,0,0-.2-.2.2.2,0,0,0-.21.2A.21.21,0,0,0,3.09.82Z"/><path class="cls-2" d="M2.27.82a.2.2,0,0,0,.2-.21.2.2,0,0,0-.2-.2.2.2,0,0,0-.21.2A.21.21,0,0,0,2.27.82Z"/><path class="cls-2" d="M1.86,1.23A.2.2,0,0,0,2.06,1a.2.2,0,0,0-.2-.2.2.2,0,0,0-.21.2A.21.21,0,0,0,1.86,1.23Z"/><path class="cls-2" d="M2.68,1.23A.2.2,0,0,0,2.88,1a.2.2,0,0,0-.2-.2.2.2,0,0,0-.21.2A.21.21,0,0,0,2.68,1.23Z"/><path class="cls-2" d="M1.86.41A.2.2,0,0,0,2.06.2a.2.2,0,0,0-.2-.2.2.2,0,0,0-.21.2A.21.21,0,0,0,1.86.41Z"/><path class="cls-2" d="M2.68.41A.2.2,0,0,0,2.88.2a.2.2,0,0,0-.2-.2.2.2,0,0,0-.21.2A.21.21,0,0,0,2.68.41Z"/><path class="cls-2" d="M4.72,1.64a.21.21,0,1,0,0-.41.2.2,0,0,0-.2.2A.2.2,0,0,0,4.72,1.64Z"/><path class="cls-2" d="M3.9,1.64a.21.21,0,1,0,0-.41.2.2,0,0,0-.2.2A.2.2,0,0,0,3.9,1.64Z"/><path class="cls-2" d="M4.72.82A.21.21,0,0,0,4.93.61a.21.21,0,0,0-.21-.2.2.2,0,0,0-.2.2A.2.2,0,0,0,4.72.82Z"/><path class="cls-2" d="M3.9.82A.21.21,0,0,0,4.11.61.21.21,0,0,0,3.9.41a.2.2,0,0,0-.2.2A.2.2,0,0,0,3.9.82Z"/><path class="cls-2" d="M3.49,1.23A.21.21,0,0,0,3.7,1a.21.21,0,0,0-.21-.2.2.2,0,0,0-.2.2A.2.2,0,0,0,3.49,1.23Z"/><path class="cls-2" d="M4.31,1.23A.21.21,0,0,0,4.52,1a.21.21,0,0,0-.21-.2.2.2,0,0,0-.2.2A.2.2,0,0,0,4.31,1.23Z"/><path class="cls-2" d="M3.49.41A.21.21,0,0,0,3.7.2.21.21,0,0,0,3.49,0a.2.2,0,0,0-.2.2A.2.2,0,0,0,3.49.41Z"/><path class="cls-2" d="M4.31.41A.21.21,0,0,0,4.52.2.21.21,0,0,0,4.31,0a.2.2,0,0,0-.2.2A.2.2,0,0,0,4.31.41Z"/></pattern><pattern id="_6_dpi_10_" data-name="6 dpi 10%" width="48" height="48" patternTransform="translate(86.36)" patternUnits="userSpaceOnUse" viewBox="0 0 48 48"><rect class="cls-1" width="48" height="48"/><circle class="cls-2" cx="24" cy="48" r="1.2"/><circle class="cls-2" cx="48" cy="48" r="1.2"/><circle class="cls-2" cx="24" cy="24" r="1.2"/><circle class="cls-2" cx="48" cy="24" r="1.2"/><circle class="cls-2" cx="36" cy="36" r="1.2"/><circle class="cls-2" cx="12" cy="36" r="1.2"/><circle class="cls-2" cx="36" cy="12" r="1.2"/><circle class="cls-2" cx="12" cy="12" r="1.2"/><circle class="cls-2" cy="48" r="1.2"/><circle class="cls-2" cy="24" r="1.2" transform="translate(-23.69 20.16) rotate(-80.78)"/><circle class="cls-2" cx="24" r="1.2"/><circle class="cls-2" cx="48" r="1.2"/><circle class="cls-2" r="1.2" transform="translate(0 0) rotate(-80.78)"/></pattern></defs><title>face-3</title><g class="cls-3"><rect class="cls-4" x="-769.93" y="103.19" width="1461.42" height="2.72" transform="translate(714.37 312.97) rotate(-29.96)"/><rect class="cls-4" x="-762.52" y="107.14" width="1461.42" height="2.72" transform="translate(713.38 317.2) rotate(-29.97)"/><rect class="cls-4" x="-755.8" y="111.35" width="1461.42" height="2.72" transform="translate(712.17 321.12) rotate(-29.97)"/><rect class="cls-4" x="-748.25" y="115.21" width="1461.42" height="2.72" transform="translate(711.26 325.4) rotate(-29.96)"/><rect class="cls-4" x="-742.02" y="119.55" width="1461.42" height="2.72" transform="translate(709.91 329.1) rotate(-29.97)"/><rect class="cls-4" x="-734.61" y="123.5" width="1461.42" height="2.72" transform="translate(708.93 333.32) rotate(-29.97)"/><rect class="cls-4" x="-727.89" y="127.71" width="1461.42" height="2.72" transform="translate(707.73 337.24) rotate(-29.97)"/><rect class="cls-4" x="-720.34" y="131.57" width="1461.42" height="2.72" transform="translate(706.81 341.53) rotate(-29.97)"/><rect class="cls-4" x="-713.62" y="135.78" width="1461.42" height="2.72" transform="translate(705.6 345.45) rotate(-29.97)"/><rect class="cls-4" x="-706.09" y="139.72" width="1461.42" height="2.72" transform="translate(704.64 349.74) rotate(-29.97)"/><rect class="cls-4" x="-699.37" y="143.93" width="1461.42" height="2.72" transform="translate(703.44 353.66) rotate(-29.97)"/><rect class="cls-4" x="-691.81" y="147.79" width="1461.42" height="2.72" transform="translate(702.55 357.92) rotate(-29.95)"/><rect class="cls-4" x="-685.58" y="152.13" width="1461.42" height="2.72" transform="translate(701.19 361.64) rotate(-29.97)"/><rect class="cls-4" x="-678.18" y="156.08" width="1461.42" height="2.72" transform="translate(700.24 365.83) rotate(-29.95)"/><rect class="cls-4" x="-671.46" y="160.29" width="1461.42" height="2.72" transform="translate(699 369.79) rotate(-29.97)"/><rect class="cls-4" x="-663.91" y="164.16" width="1461.42" height="2.72" transform="translate(698.08 374.08) rotate(-29.97)"/><rect class="cls-4" x="-657.19" y="168.37" width="1461.42" height="2.72" transform="translate(696.87 378) rotate(-29.97)"/><rect class="cls-4" x="-868.93" y="46.4" width="1461.42" height="2.72" transform="translate(729.49 255.92) rotate(-29.97)"/><rect class="cls-4" x="-861.38" y="50.27" width="1461.42" height="2.72" transform="translate(728.57 260.21) rotate(-29.97)"/><rect class="cls-4" x="-855.15" y="54.6" width="1461.42" height="2.72" transform="translate(727.25 263.91) rotate(-29.96)"/><rect class="cls-4" x="-847.74" y="58.55" width="1461.42" height="2.72" transform="translate(726.25 268.13) rotate(-29.97)"/><rect class="cls-4" x="-841.02" y="62.76" width="1461.42" height="2.72" transform="translate(725.03 272.03) rotate(-29.98)"/><rect class="cls-4" x="-833.47" y="66.63" width="1461.42" height="2.72" transform="translate(724.13 276.34) rotate(-29.97)"/><rect class="cls-4" x="-826.75" y="70.83" width="1461.42" height="2.72" transform="translate(722.94 280.26) rotate(-29.96)"/><rect class="cls-4" x="-819.22" y="74.77" width="1461.42" height="2.72" transform="translate(721.96 284.54) rotate(-29.97)"/><rect class="cls-4" x="-812.5" y="78.98" width="1461.42" height="2.72" transform="translate(720.76 288.46) rotate(-29.97)"/><rect class="cls-4" x="-804.95" y="82.85" width="1461.42" height="2.72" transform="matrix(0.87, -0.5, 0.5, 0.87, 719.86, 292.76)"/><rect class="cls-4" x="-798.72" y="87.19" width="1461.42" height="2.72" transform="translate(718.5 296.44) rotate(-29.97)"/><rect class="cls-4" x="-791.31" y="91.13" width="1461.42" height="2.72" transform="matrix(0.87, -0.5, 0.5, 0.87, 717.53, 300.67)"/><rect class="cls-4" x="-784.59" y="95.34" width="1461.42" height="2.72" transform="translate(716.33 304.59) rotate(-29.96)"/><rect class="cls-4" x="-777.04" y="99.21" width="1461.42" height="2.72" transform="translate(715.39 308.88) rotate(-29.97)"/><rect class="cls-4" x="-770.32" y="103.42" width="1461.42" height="2.72" transform="translate(714.19 312.8) rotate(-29.97)"/><rect class="cls-4" x="-558.37" y="225.3" width="1461.42" height="2.72" transform="translate(681.67 434.92) rotate(-29.96)"/><rect class="cls-4" x="-550.96" y="229.25" width="1461.42" height="2.72" transform="translate(680.66 439.2) rotate(-29.97)"/><rect class="cls-4" x="-544.24" y="233.46" width="1461.42" height="2.72" transform="translate(679.45 443.15) rotate(-29.97)"/><rect class="cls-4" x="-536.69" y="237.32" width="1461.42" height="2.72" transform="translate(678.56 447.36) rotate(-29.96)"/><rect class="cls-4" x="-530.46" y="241.66" width="1461.42" height="2.72" transform="translate(677.21 451.1) rotate(-29.97)"/><rect class="cls-4" x="-523.05" y="245.61" width="1461.42" height="2.72" transform="translate(676.24 455.27) rotate(-29.96)"/><rect class="cls-4" x="-516.33" y="249.82" width="1461.42" height="2.72" transform="translate(675.02 459.25) rotate(-29.97)"/><rect class="cls-4" x="-508.78" y="253.68" width="1461.42" height="2.72" transform="translate(674.11 463.51) rotate(-29.96)"/><rect class="cls-4" x="-502.06" y="257.89" width="1461.42" height="2.72" transform="matrix(0.87, -0.5, 0.5, 0.87, 672.91, 467.43)"/><rect class="cls-4" x="-494.53" y="261.83" width="1461.42" height="2.72" transform="translate(671.93 471.75) rotate(-29.97)"/><rect class="cls-4" x="-487.81" y="266.04" width="1461.42" height="2.72" transform="translate(670.73 475.67) rotate(-29.97)"/><rect class="cls-4" x="-480.26" y="269.9" width="1461.42" height="2.72" transform="translate(669.81 479.96) rotate(-29.97)"/><rect class="cls-4" x="-474.03" y="274.24" width="1461.42" height="2.72" transform="translate(668.45 483.72) rotate(-29.98)"/><rect class="cls-4" x="-466.62" y="278.19" width="1461.42" height="2.72" transform="translate(667.51 487.81) rotate(-29.96)"/><rect class="cls-4" x="-459.9" y="282.4" width="1461.42" height="2.72" transform="translate(666.31 491.73) rotate(-29.96)"/><rect class="cls-4" x="-452.35" y="286.26" width="1461.42" height="2.72" transform="translate(665.37 496.09) rotate(-29.97)"/><rect class="cls-4" x="-445.63" y="290.47" width="1461.42" height="2.72" transform="translate(664.19 499.93) rotate(-29.96)"/><rect class="cls-4" x="-649.82" y="172.37" width="1461.42" height="2.72" transform="translate(695.86 382.21) rotate(-29.97)"/><rect class="cls-4" x="-643.6" y="176.71" width="1461.42" height="2.72" transform="translate(694.52 385.91) rotate(-29.97)"/><rect class="cls-4" x="-636.19" y="180.66" width="1461.42" height="2.72" transform="translate(693.52 390.17) rotate(-29.98)"/><rect class="cls-4" x="-629.47" y="184.87" width="1461.42" height="2.72" transform="translate(692.34 394.05) rotate(-29.97)"/><rect class="cls-4" x="-621.91" y="188.73" width="1461.42" height="2.72" transform="translate(691.41 398.34) rotate(-29.97)"/><rect class="cls-4" x="-615.19" y="192.94" width="1461.42" height="2.72" transform="translate(690.21 402.26) rotate(-29.97)"/><rect class="cls-4" x="-607.66" y="196.88" width="1461.42" height="2.72" transform="translate(689.25 406.55) rotate(-29.97)"/><rect class="cls-4" x="-600.94" y="201.09" width="1461.42" height="2.72" transform="translate(688.03 410.51) rotate(-29.98)"/><rect class="cls-4" x="-593.39" y="204.96" width="1461.42" height="2.72" transform="matrix(0.87, -0.5, 0.5, 0.87, 687.15, 414.72)"/><rect class="cls-4" x="-587.16" y="209.29" width="1461.42" height="2.72" transform="translate(685.8 418.43) rotate(-29.96)"/><rect class="cls-4" x="-579.75" y="213.24" width="1461.42" height="2.72" transform="translate(684.81 422.68) rotate(-29.97)"/><rect class="cls-4" x="-573.03" y="217.45" width="1461.42" height="2.72" transform="translate(683.63 426.55) rotate(-29.96)"/><rect class="cls-4" x="-565.48" y="221.32" width="1461.42" height="2.72" transform="translate(682.66 430.94) rotate(-29.98)"/><rect class="cls-4" x="-558.76" y="225.53" width="1461.42" height="2.72" transform="translate(681.48 434.81) rotate(-29.97)"/><rect class="cls-4" x="-435.6" y="292.15" width="1461.42" height="2.72" transform="matrix(0.87, -0.5, 0.5, 0.87, 664.68, 505.2)"/><rect class="cls-4" x="-328.79" y="352.26" width="1461.42" height="2.72" transform="matrix(0.87, -0.5, 0.5, 0.87, 648.93, 566.57)"/><rect class="cls-4" x="-321.38" y="356.2" width="1461.42" height="2.72" transform="translate(647.94 570.86) rotate(-29.97)"/><rect class="cls-4" x="-314.66" y="360.41" width="1461.42" height="2.72" transform="translate(646.74 574.78) rotate(-29.97)"/><rect class="cls-4" x="-307.11" y="364.28" width="1461.42" height="2.72" transform="translate(645.83 579.01) rotate(-29.96)"/><rect class="cls-4" x="-300.88" y="368.62" width="1461.42" height="2.72" transform="translate(644.48 582.76) rotate(-29.97)"/><rect class="cls-4" x="-293.47" y="372.57" width="1461.42" height="2.72" transform="translate(643.5 586.99) rotate(-29.97)"/><rect class="cls-4" x="-286.75" y="376.78" width="1461.42" height="2.72" transform="translate(642.29 590.91) rotate(-29.97)"/><rect class="cls-4" x="-279.2" y="380.64" width="1461.42" height="2.72" transform="translate(641.37 595.2) rotate(-29.97)"/><rect class="cls-4" x="-272.48" y="384.85" width="1461.42" height="2.72" transform="translate(640.17 599.12) rotate(-29.97)"/><rect class="cls-4" x="-264.95" y="388.79" width="1461.42" height="2.72" transform="translate(639.21 603.41) rotate(-29.97)"/><rect class="cls-4" x="-258.23" y="393" width="1461.42" height="2.72" transform="translate(638.01 607.33) rotate(-29.97)"/><rect class="cls-4" x="-250.68" y="396.86" width="1461.42" height="2.72" transform="translate(637.12 611.43) rotate(-29.95)"/><rect class="cls-4" x="-244.45" y="401.2" width="1461.42" height="2.72" transform="translate(635.75 615.31) rotate(-29.97)"/><rect class="cls-4" x="-237.04" y="405.15" width="1461.42" height="2.72" transform="translate(634.79 619.42) rotate(-29.96)"/><rect class="cls-4" x="-230.32" y="409.36" width="1461.42" height="2.72" transform="translate(633.57 623.46) rotate(-29.97)"/><rect class="cls-4" x="-222.77" y="413.22" width="1461.42" height="2.72" transform="translate(632.64 627.75) rotate(-29.97)"/><rect class="cls-4" x="-216.05" y="417.43" width="1461.42" height="2.72" transform="translate(631.44 631.67) rotate(-29.97)"/><rect class="cls-4" x="-427.8" y="295.47" width="1461.42" height="2.72" transform="translate(664.05 509.58) rotate(-29.97)"/><rect class="cls-4" x="-420.24" y="299.33" width="1461.42" height="2.72" transform="translate(663.13 513.87) rotate(-29.97)"/><rect class="cls-4" x="-414.01" y="303.67" width="1461.42" height="2.72" transform="translate(661.82 517.48) rotate(-29.96)"/><rect class="cls-4" x="-406.61" y="307.62" width="1461.42" height="2.72" transform="translate(660.82 521.79) rotate(-29.97)"/><rect class="cls-4" x="-399.89" y="311.83" width="1461.42" height="2.72" transform="translate(659.6 525.75) rotate(-29.97)"/><rect class="cls-4" x="-392.34" y="315.69" width="1461.42" height="2.72" transform="translate(658.69 530) rotate(-29.97)"/><rect class="cls-4" x="-385.62" y="319.9" width="1461.42" height="2.72" transform="translate(657.52 533.78) rotate(-29.95)"/><rect class="cls-4" x="-378.09" y="323.84" width="1461.42" height="2.72" transform="translate(656.53 538.21) rotate(-29.97)"/><rect class="cls-4" x="-371.36" y="328.05" width="1461.42" height="2.72" transform="translate(655.32 542.13) rotate(-29.97)"/><rect class="cls-4" x="-363.81" y="331.91" width="1461.42" height="2.72" transform="translate(654.42 546.32) rotate(-29.96)"/><rect class="cls-4" x="-357.58" y="336.25" width="1461.42" height="2.72" transform="translate(653.07 550.11) rotate(-29.97)"/><rect class="cls-4" x="-350.17" y="340.2" width="1461.42" height="2.72" transform="matrix(0.87, -0.5, 0.5, 0.87, 652.1, 554.28)"/><rect class="cls-4" x="-343.45" y="344.41" width="1461.42" height="2.72" transform="translate(650.89 558.2) rotate(-29.96)"/><rect class="cls-4" x="-335.9" y="348.27" width="1461.42" height="2.72" transform="translate(649.96 562.55) rotate(-29.97)"/><rect class="cls-4" x="-329.18" y="352.48" width="1461.42" height="2.72" transform="translate(648.76 566.47) rotate(-29.97)"/><rect class="cls-4" x="-117.23" y="474.37" width="1461.42" height="2.72" transform="translate(616.23 688.49) rotate(-29.96)"/><rect class="cls-4" x="-109.82" y="478.31" width="1461.42" height="2.72" transform="translate(615.23 692.87) rotate(-29.97)"/><rect class="cls-4" x="-103.11" y="482.52" width="1461.42" height="2.72" transform="translate(614 696.94) rotate(-29.98)"/><rect class="cls-4" x="-95.55" y="486.39" width="1461.42" height="2.72" transform="translate(613.12 700.92) rotate(-29.96)"/><rect class="cls-4" x="-89.32" y="490.72" width="1461.42" height="2.72" transform="translate(611.78 704.68) rotate(-29.96)"/><rect class="cls-4" x="-81.91" y="494.67" width="1461.42" height="2.72" transform="translate(610.82 708.75) rotate(-29.95)"/><rect class="cls-4" x="-75.2" y="498.88" width="1461.42" height="2.72" transform="translate(609.58 712.92) rotate(-29.97)"/><rect class="cls-4" x="-67.65" y="502.75" width="1461.42" height="2.72" transform="translate(608.67 717.12) rotate(-29.96)"/><rect class="cls-4" x="-60.92" y="506.96" width="1461.42" height="2.72" transform="matrix(0.87, -0.5, 0.5, 0.87, 607.47, 721.03)"/><rect class="cls-4" x="-53.39" y="510.89" width="1461.42" height="2.72" transform="translate(606.5 725.41) rotate(-29.97)"/><rect class="cls-4" x="-46.67" y="515.1" width="1461.42" height="2.72" transform="translate(605.29 729.33) rotate(-29.97)"/><rect class="cls-4" x="-39.12" y="518.97" width="1461.42" height="2.72" transform="matrix(0.87, -0.5, 0.5, 0.87, 604.39, 733.46)"/><rect class="cls-4" x="-32.89" y="523.31" width="1461.42" height="2.72" transform="translate(603.02 737.48) rotate(-29.98)"/><rect class="cls-4" x="-25.48" y="527.25" width="1461.42" height="2.72" transform="translate(602.09 741.28) rotate(-29.95)"/><rect class="cls-4" x="-18.76" y="531.46" width="1461.42" height="2.72" transform="translate(600.89 745.2) rotate(-29.95)"/><rect class="cls-4" x="-11.21" y="535.33" width="1461.42" height="2.72" transform="translate(599.93 749.75) rotate(-29.97)"/><rect class="cls-4" x="-4.49" y="539.54" width="1461.42" height="2.72" transform="translate(598.76 753.4) rotate(-29.95)"/><rect class="cls-4" x="-208.69" y="421.44" width="1461.42" height="2.72" transform="translate(630.43 635.81) rotate(-29.96)"/><rect class="cls-4" x="-202.46" y="425.78" width="1461.42" height="2.72" transform="translate(629.09 639.57) rotate(-29.97)"/><rect class="cls-4" x="-195.05" y="429.73" width="1461.42" height="2.72" transform="translate(628.08 643.93) rotate(-29.98)"/><rect class="cls-4" x="-188.33" y="433.94" width="1461.42" height="2.72" transform="translate(626.9 647.72) rotate(-29.97)"/><rect class="cls-4" x="-180.78" y="437.8" width="1461.42" height="2.72" transform="translate(625.98 652.01) rotate(-29.97)"/><rect class="cls-4" x="-174.06" y="442.01" width="1461.42" height="2.72" transform="translate(624.78 655.93) rotate(-29.97)"/><rect class="cls-4" x="-166.53" y="445.95" width="1461.42" height="2.72" transform="translate(623.82 660.22) rotate(-29.97)"/><rect class="cls-4" x="-159.81" y="450.16" width="1461.42" height="2.72" transform="translate(622.6 664.2) rotate(-29.97)"/><rect class="cls-4" x="-152.26" y="454.02" width="1461.42" height="2.72" transform="translate(621.72 668.2) rotate(-29.95)"/><rect class="cls-4" x="-146.02" y="458.36" width="1461.42" height="2.72" transform="translate(620.36 672.12) rotate(-29.97)"/><rect class="cls-4" x="-138.62" y="462.31" width="1461.42" height="2.72" transform="translate(619.38 676.35) rotate(-29.97)"/><rect class="cls-4" x="-131.9" y="466.52" width="1461.42" height="2.72" transform="translate(618.19 680.12) rotate(-29.96)"/><rect class="cls-4" x="-124.35" y="470.38" width="1461.42" height="2.72" transform="translate(617.23 684.7) rotate(-29.98)"/><rect class="cls-4" x="-117.63" y="474.59" width="1461.42" height="2.72" transform="translate(616.05 688.47) rotate(-29.97)"/><rect class="cls-4" x="5.53" y="541.21" width="1461.42" height="2.72" transform="translate(599.24 758.8) rotate(-29.96)"/></g><rect class="cls-5" x="802.75" y="325.76" width="418.6" height="458.06"/><path class="cls-6" d="M170.4,331.45S171.77,378.87,178,398s11.4,29.23,12.91,40.24,2.9,21.82,2.9,21.82h77.06L288,417.64l13.75-46.21,4.32-31.22Z" transform="translate(771.83 318.58)"/><path class="cls-7" d="M169.17,344.47s-3.94,24.11,3.28,48.22S192,460.09,192,460.09h79.6s13.71-31.94,19.51-47.07,17.14-72.72,17.14-72.72Z" transform="translate(771.83 318.58)"/><path class="cls-8" d="M30.93,368.11s27.7-.47,39.52-3.78,58.63-21.75,65.25-24.12S170.4,336,170.4,336s.42,30.26,5.55,52.48S191.6,436.19,192,443.76s1.84,16.33,1.84,16.33l-163.8,4Z" transform="translate(771.83 318.58)"/><path class="cls-5" d="M448.08,321.54s-34-8.83-46.68-10.64c-19.85-2.83-34.45-8-59.09,0-7,2.27-34.05,12.29-34.05,12.29s-5.06,43.38-10.44,65.6-18,45.37-18.42,52.94-8.49,18.36-8.49,18.36H447Z" transform="translate(771.83 318.58)"/><path class="cls-9" d="M30.93,368.11s27.7-.47,39.52-3.78,58.63-21.75,65.25-24.12S170.4,336,170.4,336" transform="translate(771.83 318.58)"/><path class="cls-10" d="M23.17,368.11" transform="translate(771.83 318.58)"/><path class="cls-10" d="M170.4,336" transform="translate(771.83 318.58)"/><path class="cls-5" d="M448.08,321.54s-34-8.83-46.68-10.64c-19.85-2.83-34.45-8-59.09,0-7,2.27-34.05,12.29-34.05,12.29s-5.06,43.38-10.44,65.6-18,45.37-18.42,52.94-8.49,18.36-8.49,18.36H447Z" transform="translate(771.83 318.58)"/><path class="cls-9" d="M448.08,321.54s-34-8.83-46.68-10.64c-19.85-2.83-34.45-8-59.09,0-7,2.27-34.05,12.29-34.05,12.29" transform="translate(771.83 318.58)"/><path class="cls-6" d="M124.85,194.12s-6.62-8.51-10.88-6.62-7.56,5.68-6.14,12.3,17.49,61,19.85,63.35,8,7.57,11.35,15.6,7.78,46.67,22.43,66.52,35.31,27.38,40,38.08c2.94,6.78,21.74,15,34.05,15s37.6-1.79,42.08-15.12c2.55-7.59,32.26-30.74,39.35-47.29s16.92-56.73,17.87-59.57,9.92-10.4,13.71-18.91,15.13-41.61,17.49-53.43.47-18-5.67-16.82-19.39,14.46-19.39,14.46-.47-35.93-4.25-47.28-9-35.93-20.33-42.55-12.3-18-33.1-16.32-40.48,9.23-46,7.81-62.73-15.6-68.88-13.71-18,11.34-24.11,23.64-15.6,49.17-16.07,58.15S124.85,194.12,124.85,194.12Z" transform="translate(771.83 318.58)"/><path class="cls-4" d="M237.22,52.29c30.08,4.3,54.5,15.6,64.9,25.53s22.69,26,32.15,48.22,12.29,61,12.29,61v9.39a36.36,36.36,0,0,0-5.39,10.15c-1.91,6.22-3.64,28.63-3.64,28.63s4.86-51.59-7.41-96.42c-7.3-26.69-31-36.61-39-38s-38.85,6.85-53.86,5.91-51.1-13.72-67.33-12.06S148,106.18,142.79,118s-11.56,39.37-12.5,50.24,3.64,68.61,3.64,68.61-2.2-20-5.89-33.27-6.68-13.15-6.68-13.15a180.92,180.92,0,0,1,2-33.18c2.84-18.92,1.42-40.66,24.12-66.19S211.8,48.65,237.22,52.29Z" transform="translate(771.83 318.58)"/><path class="cls-5" d="M262.29,245.6c.45,1.62-3.36,1,7.62,3.72s18.81,3.52,26.2,0,11.42-7.24,12.54-9,2.91-8,2.91-8-6.94-5.08-12.31-5.86-11.65-1.37-17.92,0-9.18,1.76-11.42,4.89-5.83,6.84-6.27,9.19S261.81,243.89,262.29,245.6Z" transform="translate(771.83 318.58)"/><circle class="cls-4" cx="1057.35" cy="556" r="12.65"/><path class="cls-11" d="M287.72,233.38a3.61,3.61,0,1,1-3.61-3.62A3.61,3.61,0,0,1,287.72,233.38Z" transform="translate(771.83 318.58)"/><circle class="cls-11" cx="1051.37" cy="552.4" r="2.55"/><circle class="cls-11" cx="1064.21" cy="552.4" r="0.97"/><path d="M262,242.87s5.28-11.67,8.73-14.11,5.53-4.25,15.35-4.53,14.42.28,18.73,2.16,9.35,7.45,9.35,7.45-3.74,2.6-4.74,2-5.32-4.74-7.48-5.89-6.56-2.12-10.44-2.41-13.58-1.43-17.47.68S262.29,238.84,262,242.87Z" transform="translate(771.83 318.58)"/><path class="cls-5" d="M205.34,244.88c-.45,1.63,3.36,1-7.61,3.73s-18.82,3.53-26.21,0-11.42-7.26-12.54-9-2.91-8-2.91-8,6.94-5.1,12.32-5.89,11.64-1.37,17.91,0,9.19,1.77,11.43,4.91,5.82,6.86,6.27,9.21S205.82,243.16,205.34,244.88Z" transform="translate(771.83 318.58)"/><circle class="cls-4" cx="953.37" cy="555.04" r="12.65"/><circle class="cls-11" cx="952.67" cy="550.3" r="3.61"/><circle class="cls-11" cx="949.06" cy="550.3" r="2.55"/><path class="cls-11" d="M189.1,232.42a1,1,0,1,0,1-1A1,1,0,0,0,189.1,232.42Z" transform="translate(771.83 318.58)"/><path d="M205.07,241.91s-5.28-11.67-8.74-14.11-5.53-4.24-15.35-4.53-14.42.29-18.73,2.16-9.35,7.45-9.35,7.45,3.74,2.6,4.75,2,5.32-4.74,7.48-5.89,6.56-2.12,10.43-2.4,13.59-1.44,17.47.68S204.78,237.88,205.07,241.91Z" transform="translate(771.83 318.58)"/><path class="cls-4" d="M258.39,220.84c1.28,1.57,1.89,3.31,11.58,0s24.6-10.64,31.8-11.59,27.06,3.31,27.06,3.31,2.36-.23-1.65-4.73-10.17-8.27-16.55-8-20.53,3.78-27.52,6.14-19.42,7.8-21.24,9.46S257.44,219.67,258.39,220.84Z" transform="translate(771.83 318.58)"/><path class="cls-4" d="M214.89,217.05c-1.17,1.58-1.72,3.31-10.52,0s-31.63-12.53-38.17-13.47-24.57,3.31-24.57,3.31-2.15-.24,1.5-4.73,9.23-8.27,15-8,18.64,3.79,25,6.15,26.92,9.69,28.58,11.34S215.75,215.89,214.89,217.05Z" transform="translate(771.83 318.58)"/><path class="cls-12" d="M258.18,310.9a73.24,73.24,0,0,0-8.3,5.32c-2.37,2-5.44,5.32-14.66,5.32s-10.64-4.49-15.13-7.56-7.33-3.08-7.33-3.08" transform="translate(771.83 318.58)"/><path class="cls-13" d="M196.77,337.69s13,6,16,8.59,6.78,5.41,9.77,6.36,26.16,1.62,28.53.81,13.08-6.54,15.28-7.94,11.21-6.33,11.21-6.33a92.26,92.26,0,0,0-11.65-.75c-7.58-.12-16.89-.81-20.52-.41s-5.83,2-9.14,2.17-5.51-2.44-9.93-2.44-7.4,1.49-16.23.68S196.77,337.69,196.77,337.69Z" transform="translate(771.83 318.58)"/><line class="cls-12" x1="1004.45" y1="663.99" x2="1013.9" y2="663.99"/><path class="cls-14" d="M254.13,288.44c5.32,5.83,11.11,8.4,10.17,15.25-.61,4.39-5.56,7.21-5.56,7.21s4.65-11.11-.56-15.6c-11.38-9.81-11.26-17.73-11.26-17.73S246.8,280.41,254.13,288.44Z" transform="translate(771.83 318.58)"/><path class="cls-14" d="M215.48,289c-5.92,5.21-9.14,9.53-8.75,13.94s6,7.92,6,7.92-4.5-10.79.41-15.6c10.24-10,10.23-17.73,10.23-17.73A31.82,31.82,0,0,1,215.48,289Z" transform="translate(771.83 318.58)"/><rect class="cls-15" x="802.75" y="325.76" width="418.6" height="458.06"/><path class="cls-12" d="M246.92,367.31c-1.46-.05-5-.34-7.6-.29-2.37.05-7.47-.2-9.15.28" transform="translate(771.83 318.58)"/><path class="cls-13" d="M210,246.82c2.29-4.35,3.35-20.49-4.93-26.59s-32.24-14-37.39-13.7-18.3,5.4-18.88,12.41,4.1,13.94,4.1,13.94l4.77-1.61,16-4.6h21.1l6.73,8.12,1.4,12L189.1,251s4.15.2,8.81,0S207.14,252.26,210,246.82Z" transform="translate(771.83 318.58)"/><path class="cls-13" d="M255.82,247.27c-2.34-4.36-3.43-20.5,5-26.6s32.93-14,38.19-13.7,18.69,5.4,19.28,12.41-4.19,14-4.19,14l-4.87-1.62L293,227.12H271.42l-6.86,8.12-1.44,12,14.05,4.2s-4.24.2-9,0S258.74,252.7,255.82,247.27Z" transform="translate(771.83 318.58)"/></svg>