<svg id="Layer_1" data-name="Layer 1" xmlns="http://www.w3.org/2000/svg" xmlns:xlink="http://www.w3.org/1999/xlink" viewBox="0 0 2154.54 1224.89"><defs><style>.cls-1,.cls-12,.cls-6,.cls-9{fill:none;}.cls-2{fill:#231f20;}.cls-3{clip-path:url(#clip-path);}.cls-4{fill:#150035;}.cls-5{fill:#fff;}.cls-6,.cls-9{stroke:#150035;}.cls-11,.cls-12,.cls-6,.cls-9{stroke-miterlimit:10;}.cls-6{stroke-width:0.5px;}.cls-7{fill:#39a1ff;}.cls-8{opacity:0.35;}.cls-11,.cls-8{fill:url(#_10_dpi_50_);}.cls-9{stroke-width:0.25px;}.cls-10{opacity:0.38;}.cls-11{stroke:url(#_6_dpi_10_);}.cls-12{stroke:#39a1ff;}</style><clipPath id="clip-path" transform="translate(780.56 317.89)"><rect id="SVGID" class="cls-1" x="5.47" y="20.91" width="421.12" height="457.09"/></clipPath><pattern id="_10_dpi_50_" data-name="10 dpi 50%" width="4.93" height="3.28" patternTransform="translate(11.39 2.61)" patternUnits="userSpaceOnUse" viewBox="0 0 4.92 3.28"><rect class="cls-1" width="4.93" height="3.28"/><path class="cls-2" d="M1.43,3.28a.21.21,0,0,0,.21-.21.2.2,0,0,0-.21-.2.2.2,0,0,0-.2.2A.2.2,0,0,0,1.43,3.28Z"/><path class="cls-2" d="M.61,3.28a.21.21,0,0,0,.21-.21.2.2,0,0,0-.21-.2.2.2,0,0,0-.2.2A.2.2,0,0,0,.61,3.28Z"/><path class="cls-2" d="M1.43,2.46a.21.21,0,0,0,.21-.21.2.2,0,0,0-.21-.2.2.2,0,0,0-.2.2A.2.2,0,0,0,1.43,2.46Z"/><path class="cls-2" d="M.61,2.46a.21.21,0,0,0,.21-.21.2.2,0,0,0-.21-.2.2.2,0,0,0-.2.2A.2.2,0,0,0,.61,2.46Z"/><path class="cls-2" d="M.21,2.87a.2.2,0,0,0,.2-.21.2.2,0,0,0-.2-.2.2.2,0,0,0-.21.2A.21.21,0,0,0,.21,2.87Z"/><path class="cls-2" d="M1,2.87a.21.21,0,0,0,.21-.21A.2.2,0,0,0,1,2.46a.2.2,0,0,0-.2.2A.2.2,0,0,0,1,2.87Z"/><path class="cls-2" d="M.21,2.05a.2.2,0,0,0,.2-.21.2.2,0,0,0-.2-.2.2.2,0,0,0-.21.2A.21.21,0,0,0,.21,2.05Z"/><path class="cls-2" d="M1,2.05a.21.21,0,0,0,.21-.21A.2.2,0,0,0,1,1.64a.2.2,0,0,0-.2.2A.2.2,0,0,0,1,2.05Z"/><path class="cls-2" d="M3.09,3.28a.2.2,0,0,0,.2-.21.2.2,0,0,0-.2-.2.2.2,0,0,0-.21.2A.21.21,0,0,0,3.09,3.28Z"/><path class="cls-2" d="M2.27,3.28a.2.2,0,0,0,.2-.21.2.2,0,0,0-.2-.2.2.2,0,0,0-.21.2A.21.21,0,0,0,2.27,3.28Z"/><path class="cls-2" d="M3.09,2.46a.2.2,0,0,0,.2-.21.2.2,0,0,0-.2-.2.2.2,0,0,0-.21.2A.21.21,0,0,0,3.09,2.46Z"/><path class="cls-2" d="M2.27,2.46a.2.2,0,0,0,.2-.21.2.2,0,0,0-.2-.2.2.2,0,0,0-.21.2A.21.21,0,0,0,2.27,2.46Z"/><path class="cls-2" d="M1.86,2.87a.2.2,0,0,0,.2-.21.2.2,0,0,0-.2-.2.2.2,0,0,0-.21.2A.21.21,0,0,0,1.86,2.87Z"/><path class="cls-2" d="M2.68,2.87a.2.2,0,0,0,.2-.21.2.2,0,0,0-.2-.2.2.2,0,0,0-.21.2A.21.21,0,0,0,2.68,2.87Z"/><path class="cls-2" d="M1.86,2.05a.2.2,0,0,0,.2-.21.2.2,0,0,0-.2-.2.2.2,0,0,0-.21.2A.21.21,0,0,0,1.86,2.05Z"/><path class="cls-2" d="M2.68,2.05a.2.2,0,0,0,.2-.21.2.2,0,0,0-.2-.2.2.2,0,0,0-.21.2A.21.21,0,0,0,2.68,2.05Z"/><path class="cls-2" d="M4.72,3.28a.21.21,0,1,0,0-.41.2.2,0,0,0-.2.2A.2.2,0,0,0,4.72,3.28Z"/><path class="cls-2" d="M3.9,3.28a.21.21,0,1,0,0-.41.2.2,0,0,0-.2.2A.2.2,0,0,0,3.9,3.28Z"/><path class="cls-2" d="M4.72,2.46a.21.21,0,1,0,0-.41.2.2,0,0,0-.2.2A.2.2,0,0,0,4.72,2.46Z"/><path class="cls-2" d="M3.9,2.46a.21.21,0,1,0,0-.41.2.2,0,0,0-.2.2A.2.2,0,0,0,3.9,2.46Z"/><path class="cls-2" d="M3.49,2.87a.21.21,0,1,0,0-.41.2.2,0,0,0-.2.2A.2.2,0,0,0,3.49,2.87Z"/><path class="cls-2" d="M4.31,2.87a.21.21,0,1,0,0-.41.2.2,0,0,0-.2.2A.2.2,0,0,0,4.31,2.87Z"/><path class="cls-2" d="M3.49,2.05a.21.21,0,1,0,0-.41.2.2,0,0,0-.2.2A.2.2,0,0,0,3.49,2.05Z"/><path class="cls-2" d="M4.31,2.05a.21.21,0,1,0,0-.41.2.2,0,0,0-.2.2A.2.2,0,0,0,4.31,2.05Z"/><path class="cls-2" d="M1.43,1.64a.21.21,0,0,0,.21-.21.2.2,0,0,0-.21-.2.2.2,0,0,0-.2.2A.2.2,0,0,0,1.43,1.64Z"/><path class="cls-2" d="M.61,1.64a.21.21,0,0,0,.21-.21.2.2,0,0,0-.21-.2.2.2,0,0,0-.2.2A.2.2,0,0,0,.61,1.64Z"/><path class="cls-2" d="M1.43.82A.21.21,0,0,0,1.64.61a.2.2,0,0,0-.21-.2.2.2,0,0,0-.2.2A.2.2,0,0,0,1.43.82Z"/><path class="cls-2" d="M.61.82A.21.21,0,0,0,.82.61.2.2,0,0,0,.61.41a.2.2,0,0,0-.2.2A.2.2,0,0,0,.61.82Z"/><path class="cls-2" d="M.21,1.23A.2.2,0,0,0,.41,1a.2.2,0,0,0-.2-.2A.2.2,0,0,0,0,1,.21.21,0,0,0,.21,1.23Z"/><path class="cls-2" d="M1,1.23A.21.21,0,0,0,1.23,1,.2.2,0,0,0,1,.82a.2.2,0,0,0-.2.2A.2.2,0,0,0,1,1.23Z"/><path class="cls-2" d="M.21.41A.2.2,0,0,0,.41.2.2.2,0,0,0,.21,0,.2.2,0,0,0,0,.2.21.21,0,0,0,.21.41Z"/><path class="cls-2" d="M1,.41A.21.21,0,0,0,1.23.2.2.2,0,0,0,1,0a.2.2,0,0,0-.2.2A.2.2,0,0,0,1,.41Z"/><path class="cls-2" d="M3.09,1.64a.2.2,0,0,0,.2-.21.2.2,0,0,0-.2-.2.2.2,0,0,0-.21.2A.21.21,0,0,0,3.09,1.64Z"/><path class="cls-2" d="M2.27,1.64a.2.2,0,0,0,.2-.21.2.2,0,0,0-.2-.2.2.2,0,0,0-.21.2A.21.21,0,0,0,2.27,1.64Z"/><path class="cls-2" d="M3.09.82a.2.2,0,0,0,.2-.21.2.2,0,0,0-.2-.2.2.2,0,0,0-.21.2A.21.21,0,0,0,3.09.82Z"/><path class="cls-2" d="M2.27.82a.2.2,0,0,0,.2-.21.2.2,0,0,0-.2-.2.2.2,0,0,0-.21.2A.21.21,0,0,0,2.27.82Z"/><path class="cls-2" d="M1.86,1.23A.2.2,0,0,0,2.06,1a.2.2,0,0,0-.2-.2.2.2,0,0,0-.21.2A.21.21,0,0,0,1.86,1.23Z"/><path class="cls-2" d="M2.68,1.23A.2.2,0,0,0,2.88,1a.2.2,0,0,0-.2-.2.2.2,0,0,0-.21.2A.21.21,0,0,0,2.68,1.23Z"/><path class="cls-2" d="M1.86.41A.2.2,0,0,0,2.06.2a.2.2,0,0,0-.2-.2.2.2,0,0,0-.21.2A.21.21,0,0,0,1.86.41Z"/><path class="cls-2" d="M2.68.41A.2.2,0,0,0,2.88.2a.2.2,0,0,0-.2-.2.2.2,0,0,0-.21.2A.21.21,0,0,0,2.68.41Z"/><path class="cls-2" d="M4.72,1.64a.21.21,0,1,0,0-.41.2.2,0,0,0-.2.2A.2.2,0,0,0,4.72,1.64Z"/><path class="cls-2" d="M3.9,1.64a.21.21,0,1,0,0-.41.2.2,0,0,0-.2.2A.2.2,0,0,0,3.9,1.64Z"/><path class="cls-2" d="M4.72.82A.21.21,0,0,0,4.93.61a.21.21,0,0,0-.21-.2.2.2,0,0,0-.2.2A.2.2,0,0,0,4.72.82Z"/><path class="cls-2" d="M3.9.82A.21.21,0,0,0,4.11.61.21.21,0,0,0,3.9.41a.2.2,0,0,0-.2.2A.2.2,0,0,0,3.9.82Z"/><path class="cls-2" d="M3.49,1.23A.21.21,0,0,0,3.7,1a.21.21,0,0,0-.21-.2.2.2,0,0,0-.2.2A.2.2,0,0,0,3.49,1.23Z"/><path class="cls-2" d="M4.31,1.23A.21.21,0,0,0,4.52,1a.21.21,0,0,0-.21-.2.2.2,0,0,0-.2.2A.2.2,0,0,0,4.31,1.23Z"/><path class="cls-2" d="M3.49.41A.21.21,0,0,0,3.7.2.21.21,0,0,0,3.49,0a.2.2,0,0,0-.2.2A.2.2,0,0,0,3.49.41Z"/><path class="cls-2" d="M4.31.41A.21.21,0,0,0,4.52.2.21.21,0,0,0,4.31,0a.2.2,0,0,0-.2.2A.2.2,0,0,0,4.31.41Z"/></pattern><pattern id="_6_dpi_10_" data-name="6 dpi 10%" width="48" height="48" patternTransform="translate(86.36)" patternUnits="userSpaceOnUse" viewBox="0 0 48 48"><rect class="cls-1" width="48" height="48"/><circle class="cls-2" cx="24" cy="48" r="1.2"/><circle class="cls-2" cx="48" cy="48" r="1.2"/><circle class="cls-2" cx="24" cy="24" r="1.2"/><circle class="cls-2" cx="48" cy="24" r="1.2"/><circle class="cls-2" cx="36" cy="36" r="1.2"/><circle class="cls-2" cx="12" cy="36" r="1.2"/><circle class="cls-2" cx="36" cy="12" r="1.2"/><circle class="cls-2" cx="12" cy="12" r="1.2"/><circle class="cls-2" cy="48" r="1.2"/><circle class="cls-2" cy="24" r="1.2" transform="translate(-23.69 20.16) rotate(-80.78)"/><circle class="cls-2" cx="24" r="1.2"/><circle class="cls-2" cx="48" r="1.2"/><circle class="cls-2" r="1.2" transform="translate(0 0) rotate(-80.78)"/></pattern></defs><title>face-2</title><g class="cls-3"><polygon class="cls-4" points="100.97 787.8 99.6 785.44 1373.05 56.67 1374.42 59.02 100.97 787.8"/><polygon class="cls-4" points="108.42 791.73 107.05 789.38 1380.5 60.61 1381.87 62.96 108.42 791.73"/><polygon class="cls-4" points="115.18 795.93 113.81 793.58 1387.27 64.81 1388.63 67.16 115.18 795.93"/><polygon class="cls-4" points="122.78 799.79 121.41 797.44 1394.86 68.67 1396.23 71.02 122.78 799.79"/><polygon class="cls-4" points="129.04 804.12 127.67 801.77 1401.13 73 1402.5 75.35 129.04 804.12"/><polygon class="cls-4" points="136.5 808.06 135.13 805.71 1408.58 76.94 1409.95 79.29 136.5 808.06"/><polygon class="cls-4" points="143.25 812.26 141.89 809.91 1415.34 81.14 1416.71 83.49 143.25 812.26"/><polygon class="cls-4" points="150.85 816.12 149.49 813.77 1422.94 84.99 1424.31 87.34 150.85 816.12"/><polygon class="cls-4" points="157.62 820.32 156.25 817.97 1429.7 89.19 1431.07 91.55 157.62 820.32"/><polygon class="cls-4" points="165.19 824.25 163.82 821.89 1437.28 93.12 1438.64 95.47 165.19 824.25"/><polygon class="cls-4" points="171.95 828.45 170.58 826.1 1444.04 97.32 1445.4 99.67 171.95 828.45"/><polygon class="cls-4" points="179.55 832.3 178.18 829.95 1451.63 101.18 1453 103.53 179.55 832.3"/><polygon class="cls-4" points="185.82 836.63 184.45 834.28 1457.9 105.51 1459.27 107.86 185.82 836.63"/><polygon class="cls-4" points="193.27 840.57 191.9 838.22 1465.35 109.45 1466.72 111.8 193.27 840.57"/><polygon class="cls-4" points="200.03 844.77 198.66 842.42 1472.11 113.65 1473.48 116 200.03 844.77"/><polygon class="cls-4" points="207.63 848.63 206.26 846.28 1479.71 117.51 1481.08 119.86 207.63 848.63"/><polygon class="cls-4" points="214.38 852.83 213.02 850.48 1486.47 121.71 1487.84 124.06 214.38 852.83"/><polygon class="cls-4" points="1.37 731.12 0 728.77 1273.45 0 1274.82 2.35 1.37 731.12"/><polygon class="cls-4" points="8.96 734.98 7.6 732.63 1281.05 3.86 1282.41 6.21 8.96 734.98"/><polygon class="cls-4" points="15.23 739.31 13.86 736.96 1287.32 8.19 1288.68 10.54 15.23 739.31"/><polygon class="cls-4" points="22.68 743.25 21.31 740.9 1294.77 12.12 1296.14 14.48 22.68 743.25"/><polygon class="cls-4" points="29.45 747.45 28.08 745.1 1301.53 16.32 1302.89 18.68 29.45 747.45"/><polygon class="cls-4" points="37.04 751.31 35.67 748.96 1309.12 20.18 1310.49 22.53 37.04 751.31"/><polygon class="cls-4" points="43.8 755.51 42.43 753.16 1315.89 24.38 1317.26 26.73 43.8 755.51"/><polygon class="cls-4" points="51.38 759.44 50.01 757.08 1323.46 28.31 1324.83 30.66 51.38 759.44"/><polygon class="cls-4" points="58.14 763.64 56.77 761.28 1330.22 32.51 1331.59 34.86 58.14 763.64"/><polygon class="cls-4" points="65.73 767.49 64.37 765.14 1337.82 36.37 1339.19 38.72 65.73 767.49"/><polygon class="cls-4" points="72 771.83 70.63 769.47 1344.09 40.7 1345.45 43.05 72 771.83"/><polygon class="cls-4" points="79.45 775.76 78.09 773.41 1351.54 44.64 1352.91 46.99 79.45 775.76"/><polygon class="cls-4" points="86.22 779.97 84.85 777.61 1358.3 48.84 1359.67 51.19 86.22 779.97"/><polygon class="cls-4" points="93.81 783.82 92.44 781.47 1365.9 52.7 1367.27 55.05 93.81 783.82"/><polygon class="cls-4" points="100.57 788.02 99.21 785.67 1372.66 56.9 1374.03 59.25 100.57 788.02"/><polygon class="cls-4" points="313.79 909.65 312.43 907.29 1585.88 178.52 1587.25 180.87 313.79 909.65"/><polygon class="cls-4" points="321.25 913.59 319.88 911.23 1593.33 182.46 1594.7 184.81 321.25 913.59"/><polygon class="cls-4" points="328.01 917.78 326.64 915.43 1600.09 186.66 1601.46 189.01 328.01 917.78"/><polygon class="cls-4" points="335.6 921.64 334.24 919.29 1607.69 190.52 1609.06 192.87 335.6 921.64"/><polygon class="cls-4" points="341.87 925.97 340.5 923.62 1613.96 194.84 1615.33 197.2 341.87 925.97"/><polygon class="cls-4" points="349.32 929.91 347.96 927.56 1621.41 198.78 1622.78 201.14 349.32 929.91"/><polygon class="cls-4" points="356.08 934.11 354.72 931.76 1628.17 202.99 1629.54 205.34 356.08 934.11"/><polygon class="cls-4" points="363.68 937.97 362.31 935.62 1635.77 206.84 1637.13 209.2 363.68 937.97"/><polygon class="cls-4" points="370.44 942.17 369.07 939.82 1642.53 211.04 1643.89 213.4 370.44 942.17"/><polygon class="cls-4" points="378.02 946.1 376.65 943.74 1650.1 214.97 1651.47 217.32 378.02 946.1"/><polygon class="cls-4" points="384.78 950.3 383.41 947.95 1656.86 219.17 1658.23 221.52 384.78 950.3"/><polygon class="cls-4" points="392.38 954.16 391.01 951.8 1664.46 223.03 1665.83 225.38 392.38 954.16"/><polygon class="cls-4" points="398.64 958.48 397.27 956.13 1670.73 227.36 1672.1 229.71 398.64 958.48"/><polygon class="cls-4" points="406.09 962.42 404.73 960.07 1678.18 231.29 1679.55 233.65 406.09 962.42"/><polygon class="cls-4" points="412.85 966.62 411.49 964.27 1684.94 235.5 1686.31 237.85 412.85 966.62"/><polygon class="cls-4" points="420.45 970.48 419.09 968.13 1692.54 239.35 1693.9 241.71 420.45 970.48"/><polygon class="cls-4" points="427.21 974.68 425.85 972.33 1699.3 243.55 1700.66 245.91 427.21 974.68"/><polygon class="cls-4" points="221.79 856.83 220.42 854.48 1493.88 125.7 1495.24 128.06 221.79 856.83"/><polygon class="cls-4" points="228.06 861.16 226.69 858.81 1500.14 130.03 1501.51 132.39 228.06 861.16"/><polygon class="cls-4" points="235.51 865.1 234.14 862.75 1507.59 133.97 1508.96 136.33 235.51 865.1"/><polygon class="cls-4" points="242.27 869.3 240.9 866.95 1514.36 138.17 1515.72 140.53 242.27 869.3"/><polygon class="cls-4" points="249.87 873.16 248.5 870.81 1521.95 142.03 1523.32 144.38 249.87 873.16"/><polygon class="cls-4" points="256.63 877.36 255.26 875.01 1528.71 146.23 1530.08 148.58 256.63 877.36"/><polygon class="cls-4" points="264.2 881.29 262.84 878.93 1536.29 150.16 1537.66 152.51 264.2 881.29"/><polygon class="cls-4" points="270.97 885.49 269.6 883.13 1543.05 154.36 1544.42 156.71 270.97 885.49"/><polygon class="cls-4" points="278.56 889.35 277.19 886.99 1550.65 158.22 1552.01 160.57 278.56 889.35"/><polygon class="cls-4" points="284.83 893.67 283.46 891.32 1556.91 162.54 1558.28 164.9 284.83 893.67"/><polygon class="cls-4" points="292.28 897.61 290.91 895.26 1564.37 166.49 1565.73 168.84 292.28 897.61"/><polygon class="cls-4" points="299.04 901.81 297.68 899.46 1571.13 170.69 1572.49 173.04 299.04 901.81"/><polygon class="cls-4" points="306.64 905.67 305.27 903.32 1578.72 174.54 1580.09 176.9 306.64 905.67"/><polygon class="cls-4" points="313.4 909.87 312.03 907.52 1585.48 178.75 1586.85 181.1 313.4 909.87"/><polygon class="cls-4" points="437.3 976.35 435.93 974 1709.39 245.22 1710.75 247.58 437.3 976.35"/><polygon class="cls-4" points="544.75 1036.34 543.38 1033.98 1816.84 305.21 1818.2 307.56 544.75 1036.34"/><polygon class="cls-4" points="552.2 1040.27 550.84 1037.92 1824.29 309.15 1825.65 311.5 552.2 1040.27"/><polygon class="cls-4" points="558.96 1044.47 557.6 1042.12 1831.05 313.35 1832.42 315.7 558.96 1044.47"/><polygon class="cls-4" points="566.56 1048.33 565.2 1045.98 1838.65 317.2 1840.01 319.56 566.56 1048.33"/><polygon class="cls-4" points="572.83 1052.66 571.46 1050.31 1844.91 321.53 1846.28 323.89 572.83 1052.66"/><polygon class="cls-4" points="580.28 1056.6 578.91 1054.25 1852.36 325.47 1853.73 327.83 580.28 1056.6"/><polygon class="cls-4" points="587.04 1060.8 585.67 1058.45 1859.13 329.67 1860.49 332.03 587.04 1060.8"/><polygon class="cls-4" points="594.64 1064.66 593.27 1062.31 1866.72 333.53 1868.09 335.88 594.64 1064.66"/><polygon class="cls-4" points="601.4 1068.86 600.03 1066.51 1873.48 337.73 1874.85 340.08 601.4 1068.86"/><polygon class="cls-4" points="608.97 1072.79 607.61 1070.43 1881.06 341.66 1882.43 344.01 608.97 1072.79"/><polygon class="cls-4" points="615.74 1076.99 614.37 1074.63 1887.82 345.86 1889.19 348.21 615.74 1076.99"/><polygon class="cls-4" points="623.33 1080.84 621.97 1078.49 1895.42 349.72 1896.78 352.07 623.33 1080.84"/><polygon class="cls-4" points="629.6 1085.17 628.23 1082.82 1901.68 354.04 1903.05 356.4 629.6 1085.17"/><polygon class="cls-4" points="637.05 1089.11 635.68 1086.76 1909.14 357.99 1910.51 360.34 637.05 1089.11"/><polygon class="cls-4" points="643.81 1093.31 642.45 1090.96 1915.9 362.19 1917.27 364.54 643.81 1093.31"/><polygon class="cls-4" points="651.41 1097.17 650.04 1094.82 1923.49 366.04 1924.86 368.4 651.41 1097.17"/><polygon class="cls-4" points="658.17 1101.37 656.8 1099.02 1930.26 370.24 1931.62 372.6 658.17 1101.37"/><polygon class="cls-4" points="445.15 979.66 443.79 977.31 1717.24 248.54 1718.6 250.89 445.15 979.66"/><polygon class="cls-4" points="452.75 983.52 451.38 981.17 1724.83 252.4 1726.2 254.75 452.75 983.52"/><polygon class="cls-4" points="459.02 987.85 457.65 985.5 1731.1 256.72 1732.47 259.08 459.02 987.85"/><polygon class="cls-4" points="466.47 991.79 465.1 989.44 1738.55 260.66 1739.92 263.01 466.47 991.79"/><polygon class="cls-4" points="473.23 995.99 471.86 993.64 1745.31 264.86 1746.68 267.21 473.23 995.99"/><polygon class="cls-4" points="480.82 999.85 479.46 997.5 1752.91 268.72 1754.28 271.07 480.82 999.85"/><polygon class="cls-4" points="487.58 1004.05 486.22 1001.69 1759.67 272.92 1761.04 275.27 487.58 1004.05"/><polygon class="cls-4" points="495.16 1007.98 493.79 1005.62 1767.25 276.85 1768.61 279.2 495.16 1007.98"/><polygon class="cls-4" points="501.92 1012.17 500.55 1009.82 1774.01 281.05 1775.37 283.4 501.92 1012.17"/><polygon class="cls-4" points="509.52 1016.03 508.15 1013.68 1781.61 284.9 1782.97 287.26 509.52 1016.03"/><polygon class="cls-4" points="515.79 1020.36 514.42 1018.01 1787.87 289.24 1789.24 291.59 515.79 1020.36"/><polygon class="cls-4" points="523.24 1024.3 521.87 1021.95 1795.32 293.18 1796.69 295.53 523.24 1024.3"/><polygon class="cls-4" points="530 1028.5 528.63 1026.15 1802.08 297.38 1803.45 299.73 530 1028.5"/><polygon class="cls-4" points="537.6 1032.36 536.23 1030.01 1809.68 301.23 1811.05 303.59 537.6 1032.36"/><polygon class="cls-4" points="544.36 1036.56 542.99 1034.21 1816.44 305.43 1817.81 307.79 544.36 1036.56"/><polygon class="cls-4" points="757.58 1158.18 756.21 1155.83 2029.66 427.06 2031.03 429.41 757.58 1158.18"/><polygon class="cls-4" points="765.03 1162.12 763.66 1159.77 2037.12 431 2038.48 433.35 765.03 1162.12"/><polygon class="cls-4" points="771.79 1166.32 770.42 1163.97 2043.87 435.2 2045.24 437.55 771.79 1166.32"/><polygon class="cls-4" points="779.39 1170.18 778.02 1167.83 2051.47 439.05 2052.84 441.41 779.39 1170.18"/><polygon class="cls-4" points="785.65 1174.51 784.29 1172.16 2057.74 443.38 2059.11 445.73 785.65 1174.51"/><polygon class="cls-4" points="793.11 1178.45 791.74 1176.09 2065.19 447.32 2066.56 449.68 793.11 1178.45"/><polygon class="cls-4" points="799.87 1182.65 798.5 1180.29 2071.95 451.52 2073.32 453.88 799.87 1182.65"/><polygon class="cls-4" points="807.46 1186.51 806.1 1184.16 2079.55 455.38 2080.92 457.73 807.46 1186.51"/><polygon class="cls-4" points="814.23 1190.71 812.86 1188.36 2086.31 459.58 2087.68 461.93 814.23 1190.71"/><polygon class="cls-4" points="821.8 1194.63 820.43 1192.28 2093.89 463.51 2095.25 465.86 821.8 1194.63"/><polygon class="cls-4" points="828.56 1198.84 827.19 1196.48 2100.65 467.71 2102.02 470.06 828.56 1198.84"/><polygon class="cls-4" points="836.16 1202.69 834.79 1200.34 2108.24 471.57 2109.61 473.92 836.16 1202.69"/><polygon class="cls-4" points="842.43 1207.02 841.06 1204.67 2114.51 475.89 2115.88 478.25 842.43 1207.02"/><polygon class="cls-4" points="849.88 1210.96 848.51 1208.61 2121.96 479.83 2123.33 482.19 849.88 1210.96"/><polygon class="cls-4" points="856.64 1215.16 855.27 1212.81 2128.72 484.03 2130.09 486.39 856.64 1215.16"/><polygon class="cls-4" points="864.24 1219.02 862.87 1216.66 2136.32 487.89 2137.69 490.24 864.24 1219.02"/><polygon class="cls-4" points="871 1223.22 869.63 1220.87 2143.08 492.09 2144.45 494.44 871 1223.22"/><polygon class="cls-4" points="665.58 1105.37 664.21 1103.02 1937.66 374.24 1939.03 376.6 665.58 1105.37"/><polygon class="cls-4" points="671.84 1109.7 670.47 1107.35 1943.93 378.57 1945.3 380.93 671.84 1109.7"/><polygon class="cls-4" points="679.29 1113.64 677.93 1111.29 1951.38 382.51 1952.74 384.87 679.29 1113.64"/><polygon class="cls-4" points="686.05 1117.84 684.69 1115.49 1958.14 386.71 1959.51 389.06 686.05 1117.84"/><polygon class="cls-4" points="693.65 1121.7 692.29 1119.35 1965.74 390.57 1967.11 392.92 693.65 1121.7"/><polygon class="cls-4" points="700.41 1125.9 699.04 1123.55 1972.5 394.77 1973.87 397.12 700.41 1125.9"/><polygon class="cls-4" points="707.99 1129.83 706.62 1127.47 1980.07 398.7 1981.44 401.05 707.99 1129.83"/><polygon class="cls-4" points="714.75 1134.03 713.38 1131.67 1986.83 402.9 1988.2 405.25 714.75 1134.03"/><polygon class="cls-4" points="722.35 1137.88 720.98 1135.53 1994.43 406.76 1995.8 409.11 722.35 1137.88"/><polygon class="cls-4" points="728.61 1142.21 727.25 1139.86 2000.7 411.08 2002.07 413.44 728.61 1142.21"/><polygon class="cls-4" points="736.07 1146.15 734.7 1143.8 2008.15 415.03 2009.52 417.38 736.07 1146.15"/><polygon class="cls-4" points="742.83 1150.35 741.46 1148 2014.91 419.23 2016.28 421.58 742.83 1150.35"/><polygon class="cls-4" points="750.42 1154.21 749.06 1151.86 2022.51 423.08 2023.87 425.44 750.42 1154.21"/><polygon class="cls-4" points="757.18 1158.41 755.82 1156.06 2029.27 427.28 2030.64 429.64 757.18 1158.41"/><polygon class="cls-4" points="881.08 1224.89 879.72 1222.54 2153.17 493.76 2154.54 496.12 881.08 1224.89"/></g><rect class="cls-5" x="810.13" y="325.07" width="417.71" height="457.09"/><path class="cls-5" d="M29.57,394.11v70.16H447.29l-1.63-70.16s-3.85-2.57-12.84-3.42-53.08-5.57-68.49-9.85S328,369.67,328,369.67,176.86,363.3,168.3,363.3s-13.7-.43-24.4,2.14S64.72,389,50.17,389.83,29.57,394.11,29.57,394.11Z" transform="translate(780.56 317.89)"/><path class="cls-6" d="M445.66,394.11s-3.85-2.57-12.84-3.42-53.08-5.57-68.49-9.85S328,369.67,328,369.67,176.86,363.3,168.3,363.3s-13.7-.43-24.4,2.14S64.72,389,50.17,389.83s-21.3,4.28-21.3,4.28" transform="translate(780.56 317.89)"/><path class="cls-7" d="M172.36,366.47l-2-56.58s13.58,49.3,40.87,69.16,71.63,21.5,71.63,21.5l42.68-45.33S322,386,323.47,397.91s10.66,17.53,4.56,29.45S316.46,443.62,293.55,452s-71.89,12.38-96-6.81-39.38-53.38-35.07-60.77S171,373.09,172.36,366.47Z" transform="translate(780.56 317.89)"/><path class="cls-7" d="M124.05,210.44c-14.16,4.59-6.45,39.73,0,51.14s14.89,27.8,26.31,31.77l11.41,4s6.46,3.49,6.95,16.88S172.2,337,185.6,357.37s39.21,51.62,59.06,56.09,49.55,3.47,61-8.44,24.15-27.3,35.42-58.57,15.92-58.07,17.32-62.53,12.81-22.66,15.79-38.38,6.95-22.34,0-26.15-10.74-4.74-10.74-4.74-.81-64-5-77.35-87-22.63-113.75-23.13-67-2-79.91,28.79-4.47,81.4-4.47,81.4S139.44,205.46,124.05,210.44Z" transform="translate(780.56 317.89)"/><path class="cls-8" d="M291.79,320.49s5.68-2.94,3.37-10.6-6-.81-6.3-21.36-1.74-21.11-2-29.39.3-29.1,2.58-32,10.94-6.84,29.44-10.84,32.52,0,32.36,3,2.45,7.39,0,12.76-.7,7.84.28,13.46-2.13,18.23-5.3,19.31c-8,2.72-32.24-5.14-37.09-5.42s-11.41,3.59-11.7,16.49a155.2,155.2,0,0,0,2.28,28.68c.57,2.77,3.14,7.62,1.71,11S291.79,320.49,291.79,320.49Z" transform="translate(780.56 317.89)"/><path class="cls-4" d="M358.41,242.73s10-55.22,13.17-76.75c9.16-62.44-30.81-86.6-72.45-109.24-37.07,13.54-93.72,7.58-117.55,28.44S144.49,108,140.76,135.49s.66,78.69.66,78.69,7.45,18.39,10.43,28.55,6.7,32.5,6.7,32.5-2.24-52.11,7.44-70.73c8.69-16.7,4.29-51.16,11.17-61.79,8.19-12.66,75.35-.19,79.34.23,14.14,1.49,24.94,1.33,42.06-1.65s34.24-5.13,43.62-.27c17,8.83,11,22.6,12.88,34.52s4.43,47.58,3.35,52.79S358.41,242.73,358.41,242.73Z" transform="translate(780.56 317.89)"/><path class="cls-4" d="M291.81,231.8s1-9.43,6.7-10.92,33-10.92,39-10.42,14.61,6.43,14,10.66-5.28.24-10.39,0-26.94,5.72-31.91,6.71S291.13,235.08,291.81,231.8Z" transform="translate(780.56 317.89)"/><path class="cls-4" d="M256.5,232.75c4.74.42,7-8-1.42-11.16s-50.62-11.17-54.59-11.15-27.8,9.88-25.32,11.15,10.92-.28,14.4,0,30.27,3.26,42.68,5.25S250.47,232.2,256.5,232.75Z" transform="translate(780.56 317.89)"/><path class="cls-5" d="M296.78,251.66s5,5.21,19.6,5.45,19.85-2,21.84-5.45,1.74-8.93,1.74-8.93-8.48-8-18.31-8.73-20.24,5.39-23.14,8-3.35,6.91-3.35,6.91Z" transform="translate(780.56 317.89)"/><path class="cls-5" d="M194.28,245.54c1.47,3,3.73,8.63,15.89,11.59s28.29-1,31-3a9.64,9.64,0,0,0,3.47-4.22s-1.43-8.14-9.4-10.41-13.76-6.28-26.38-5.26-14.6,6-14.6,6A6.07,6.07,0,0,0,194.28,245.54Z" transform="translate(780.56 317.89)"/><path class="cls-4" d="M293.55,251.66c1.24.24,1.24-5,5-6.95s7.2-6.7,13.15-7.94,14.65.24,18.12,1.48,11,8.19,11.31,8.19a11,11,0,0,0,3.08-3.71c.5-1.25-9.18-7-12.4-7.95s-13.4-4-18.62-2-13.89,6-16.13,9.11S293.55,251.66,293.55,251.66Z" transform="translate(780.56 317.89)"/><path class="cls-4" d="M244.66,249.92s-2.23-8.69-8.44-11.91-11.66-4.22-21.34-4-12.66.49-18.86,3.22-2,6-1,4.61a13,13,0,0,1,10.67-5.6c6.7-.25,8.44-2.23,18.61.25s11.61,2.75,14.89,5.44S244.66,249.92,244.66,249.92Z" transform="translate(780.56 317.89)"/><path class="cls-4" d="M328,246.21A11.18,11.18,0,1,1,316.85,235,11.19,11.19,0,0,1,328,246.21Z" transform="translate(780.56 317.89)"/><path class="cls-5" d="M316.52,243.33a2.88,2.88,0,1,1-2.88-2.88A2.88,2.88,0,0,1,316.52,243.33Z" transform="translate(780.56 317.89)"/><circle class="cls-5" cx="1100.78" cy="560.21" r="1.68"/><path class="cls-5" d="M323.47,243.53a1,1,0,1,1-1-1A1,1,0,0,1,323.47,243.53Z" transform="translate(780.56 317.89)"/><circle class="cls-4" cx="998.12" cy="563.9" r="12.04"/><circle class="cls-5" cx="994.69" cy="559.8" r="2.88"/><circle class="cls-5" cx="1001.26" cy="558.79" r="1.68"/><path class="cls-5" d="M224,242.11a1,1,0,1,1-1-1A1,1,0,0,1,224,242.11Z" transform="translate(780.56 317.89)"/><path class="cls-9" d="M229.6,349.93s1.66-1.33,4.64,0,13.56,6.62,36.4,6.62,37.37-1.66,43-5" transform="translate(780.56 317.89)"/><path class="cls-9" d="M252.11,304.6c-1.33,2.48-6,8.93-1.33,13.73s5.79,1.82,8.6,3.14,7.28,8.11,14.56,9.1,13.24-3.47,16.05-6.12,4.8-4.3,6.79-2.48,6.46-.32,6.94-1.66a14.68,14.68,0,0,0-2-14.06" transform="translate(780.56 317.89)"/><path class="cls-9" d="M259.05,373.5a84.43,84.43,0,0,0,17.38,1.24c7.94-.49,10.42-.57,10.42-.57" transform="translate(780.56 317.89)"/><path class="cls-9" d="M269.23,342.73c1.49,1.49,3,4,5.21,3s3.72-3,5.46-3,4.47,1.6,4.47,1.6" transform="translate(780.56 317.89)"/><g class="cls-10"><path class="cls-11" d="M161.47,276.61c-.21-.91-.36-1.38-.36-1.38A6.2,6.2,0,0,0,161.47,276.61Z" transform="translate(780.56 317.89)"/><path class="cls-11" d="M341.09,315.85c-5.65,9.59-18.16,22.19-19.59,22.83-3.39,1.5-29.45-9.22-32.78-12.19-2.64,2.05-5.76,4.81-12.45,4.81s-9.95-3.32-9.95-3.32-10.91,2.43-13.22,2.73-27.13,5-30.72,6.31-8.25,10.92-8.25,10.92-7-1-18.28-8.93S179,315.52,173.69,304.6c-4.6-9.49-10.69-23.45-12.22-28a98.85,98.85,0,0,1,2,13.43c1,10.82,10.26,45.33,17.2,62.9s19.2,28.42,33.5,43,23.42,18.86,42.37,21.84,27.37-1,38.66-4.63,17.5-15.89,22.4-23.83,14-23.16,22.41-36.36,6.44-24.19,11.54-38.74,6.9-39,6.9-39S346.74,306.25,341.09,315.85Zm-51.45,52.8c-4.13,1.42-26.95,1.49-33.38-.65s-29.89-18.66-29.89-18.66,16.26-4,22.4-5,19.4-2.58,19.4-2.58,3.6,4.44,4.78,4.13,5.09-3.13,6.95-3.15,1.42-.46,5.56,1.1,29.65,7.91,29.65,7.91S293.78,367.22,289.64,368.65Z" transform="translate(780.56 317.89)"/></g><path class="cls-8" d="M139.05,218.34s-4-3.43-10.56,0-7.42,11.69-6,16.69,6.28,24.6,9.42,29.92a90.5,90.5,0,0,0,8.84,11.66s-9.7-24.21-12-36,.28-18.6,6-17.46S141.87,219.62,139.05,218.34Z" transform="translate(780.56 317.89)"/><rect class="cls-12" x="810.13" y="325.07" width="417.71" height="457.09"/></svg>