<svg id="Layer_1" data-name="Layer 1" xmlns="http://www.w3.org/2000/svg" xmlns:xlink="http://www.w3.org/1999/xlink" viewBox="0 0 2168.79 1243.03"><defs><style>.cls-1,.cls-10,.cls-11,.cls-6,.cls-9{fill:none;}.cls-2{fill:#231f20;}.cls-3{clip-path:url(#clip-path);}.cls-4{fill:#150035;}.cls-5{fill:#fff;}.cls-10,.cls-6,.cls-9{stroke:#150035;}.cls-10,.cls-11,.cls-6,.cls-9{stroke-miterlimit:10;}.cls-6{stroke-width:0.5px;}.cls-7{fill:#39a1ff;}.cls-8{opacity:0.38;fill:url(#_10_dpi_50_);}.cls-10,.cls-9{stroke-width:0.25px;}.cls-10{opacity:0.46;}.cls-11{stroke:#39a1ff;}</style><clipPath id="clip-path" transform="translate(786.69 325.7)"><rect id="SVGID" class="cls-1" x="4.53" y="18.11" width="423.9" height="463.86"/></clipPath><pattern id="_10_dpi_50_" data-name="10 dpi 50%" width="4.93" height="3.28" patternTransform="translate(11.39 2.61)" patternUnits="userSpaceOnUse" viewBox="0 0 4.92 3.28"><rect class="cls-1" width="4.93" height="3.28"/><path class="cls-2" d="M1.43,3.28a.21.21,0,0,0,.21-.21.2.2,0,0,0-.21-.2.2.2,0,0,0-.2.2A.2.2,0,0,0,1.43,3.28Z"/><path class="cls-2" d="M.61,3.28a.21.21,0,0,0,.21-.21.2.2,0,0,0-.21-.2.2.2,0,0,0-.2.2A.2.2,0,0,0,.61,3.28Z"/><path class="cls-2" d="M1.43,2.46a.21.21,0,0,0,.21-.21.2.2,0,0,0-.21-.2.2.2,0,0,0-.2.2A.2.2,0,0,0,1.43,2.46Z"/><path class="cls-2" d="M.61,2.46a.21.21,0,0,0,.21-.21.2.2,0,0,0-.21-.2.2.2,0,0,0-.2.2A.2.2,0,0,0,.61,2.46Z"/><path class="cls-2" d="M.21,2.87a.2.2,0,0,0,.2-.21.2.2,0,0,0-.2-.2.2.2,0,0,0-.21.2A.21.21,0,0,0,.21,2.87Z"/><path class="cls-2" d="M1,2.87a.21.21,0,0,0,.21-.21A.2.2,0,0,0,1,2.46a.2.2,0,0,0-.2.2A.2.2,0,0,0,1,2.87Z"/><path class="cls-2" d="M.21,2.05a.2.2,0,0,0,.2-.21.2.2,0,0,0-.2-.2.2.2,0,0,0-.21.2A.21.21,0,0,0,.21,2.05Z"/><path class="cls-2" d="M1,2.05a.21.21,0,0,0,.21-.21A.2.2,0,0,0,1,1.64a.2.2,0,0,0-.2.2A.2.2,0,0,0,1,2.05Z"/><path class="cls-2" d="M3.09,3.28a.2.2,0,0,0,.2-.21.2.2,0,0,0-.2-.2.2.2,0,0,0-.21.2A.21.21,0,0,0,3.09,3.28Z"/><path class="cls-2" d="M2.27,3.28a.2.2,0,0,0,.2-.21.2.2,0,0,0-.2-.2.2.2,0,0,0-.21.2A.21.21,0,0,0,2.27,3.28Z"/><path class="cls-2" d="M3.09,2.46a.2.2,0,0,0,.2-.21.2.2,0,0,0-.2-.2.2.2,0,0,0-.21.2A.21.21,0,0,0,3.09,2.46Z"/><path class="cls-2" d="M2.27,2.46a.2.2,0,0,0,.2-.21.2.2,0,0,0-.2-.2.2.2,0,0,0-.21.2A.21.21,0,0,0,2.27,2.46Z"/><path class="cls-2" d="M1.86,2.87a.2.2,0,0,0,.2-.21.2.2,0,0,0-.2-.2.2.2,0,0,0-.21.2A.21.21,0,0,0,1.86,2.87Z"/><path class="cls-2" d="M2.68,2.87a.2.2,0,0,0,.2-.21.2.2,0,0,0-.2-.2.2.2,0,0,0-.21.2A.21.21,0,0,0,2.68,2.87Z"/><path class="cls-2" d="M1.86,2.05a.2.2,0,0,0,.2-.21.2.2,0,0,0-.2-.2.2.2,0,0,0-.21.2A.21.21,0,0,0,1.86,2.05Z"/><path class="cls-2" d="M2.68,2.05a.2.2,0,0,0,.2-.21.2.2,0,0,0-.2-.2.2.2,0,0,0-.21.2A.21.21,0,0,0,2.68,2.05Z"/><path class="cls-2" d="M4.72,3.28a.21.21,0,1,0,0-.41.2.2,0,0,0-.2.2A.2.2,0,0,0,4.72,3.28Z"/><path class="cls-2" d="M3.9,3.28a.21.21,0,1,0,0-.41.2.2,0,0,0-.2.2A.2.2,0,0,0,3.9,3.28Z"/><path class="cls-2" d="M4.72,2.46a.21.21,0,1,0,0-.41.2.2,0,0,0-.2.2A.2.2,0,0,0,4.72,2.46Z"/><path class="cls-2" d="M3.9,2.46a.21.21,0,1,0,0-.41.2.2,0,0,0-.2.2A.2.2,0,0,0,3.9,2.46Z"/><path class="cls-2" d="M3.49,2.87a.21.21,0,1,0,0-.41.2.2,0,0,0-.2.2A.2.2,0,0,0,3.49,2.87Z"/><path class="cls-2" d="M4.31,2.87a.21.21,0,1,0,0-.41.2.2,0,0,0-.2.2A.2.2,0,0,0,4.31,2.87Z"/><path class="cls-2" d="M3.49,2.05a.21.21,0,1,0,0-.41.2.2,0,0,0-.2.2A.2.2,0,0,0,3.49,2.05Z"/><path class="cls-2" d="M4.31,2.05a.21.21,0,1,0,0-.41.2.2,0,0,0-.2.2A.2.2,0,0,0,4.31,2.05Z"/><path class="cls-2" d="M1.43,1.64a.21.21,0,0,0,.21-.21.2.2,0,0,0-.21-.2.2.2,0,0,0-.2.2A.2.2,0,0,0,1.43,1.64Z"/><path class="cls-2" d="M.61,1.64a.21.21,0,0,0,.21-.21.2.2,0,0,0-.21-.2.2.2,0,0,0-.2.2A.2.2,0,0,0,.61,1.64Z"/><path class="cls-2" d="M1.43.82A.21.21,0,0,0,1.64.61a.2.2,0,0,0-.21-.2.2.2,0,0,0-.2.2A.2.2,0,0,0,1.43.82Z"/><path class="cls-2" d="M.61.82A.21.21,0,0,0,.82.61.2.2,0,0,0,.61.41a.2.2,0,0,0-.2.2A.2.2,0,0,0,.61.82Z"/><path class="cls-2" d="M.21,1.23A.2.2,0,0,0,.41,1a.2.2,0,0,0-.2-.2A.2.2,0,0,0,0,1,.21.21,0,0,0,.21,1.23Z"/><path class="cls-2" d="M1,1.23A.21.21,0,0,0,1.23,1,.2.2,0,0,0,1,.82a.2.2,0,0,0-.2.2A.2.2,0,0,0,1,1.23Z"/><path class="cls-2" d="M.21.41A.2.2,0,0,0,.41.2.2.2,0,0,0,.21,0,.2.2,0,0,0,0,.2.21.21,0,0,0,.21.41Z"/><path class="cls-2" d="M1,.41A.21.21,0,0,0,1.23.2.2.2,0,0,0,1,0a.2.2,0,0,0-.2.2A.2.2,0,0,0,1,.41Z"/><path class="cls-2" d="M3.09,1.64a.2.2,0,0,0,.2-.21.2.2,0,0,0-.2-.2.2.2,0,0,0-.21.2A.21.21,0,0,0,3.09,1.64Z"/><path class="cls-2" d="M2.27,1.64a.2.2,0,0,0,.2-.21.2.2,0,0,0-.2-.2.2.2,0,0,0-.21.2A.21.21,0,0,0,2.27,1.64Z"/><path class="cls-2" d="M3.09.82a.2.2,0,0,0,.2-.21.2.2,0,0,0-.2-.2.2.2,0,0,0-.21.2A.21.21,0,0,0,3.09.82Z"/><path class="cls-2" d="M2.27.82a.2.2,0,0,0,.2-.21.2.2,0,0,0-.2-.2.2.2,0,0,0-.21.2A.21.21,0,0,0,2.27.82Z"/><path class="cls-2" d="M1.86,1.23A.2.2,0,0,0,2.06,1a.2.2,0,0,0-.2-.2.2.2,0,0,0-.21.2A.21.21,0,0,0,1.86,1.23Z"/><path class="cls-2" d="M2.68,1.23A.2.2,0,0,0,2.88,1a.2.2,0,0,0-.2-.2.2.2,0,0,0-.21.2A.21.21,0,0,0,2.68,1.23Z"/><path class="cls-2" d="M1.86.41A.2.2,0,0,0,2.06.2a.2.2,0,0,0-.2-.2.2.2,0,0,0-.21.2A.21.21,0,0,0,1.86.41Z"/><path class="cls-2" d="M2.68.41A.2.2,0,0,0,2.88.2a.2.2,0,0,0-.2-.2.2.2,0,0,0-.21.2A.21.21,0,0,0,2.68.41Z"/><path class="cls-2" d="M4.72,1.64a.21.21,0,1,0,0-.41.2.2,0,0,0-.2.2A.2.2,0,0,0,4.72,1.64Z"/><path class="cls-2" d="M3.9,1.64a.21.21,0,1,0,0-.41.2.2,0,0,0-.2.2A.2.2,0,0,0,3.9,1.64Z"/><path class="cls-2" d="M4.72.82A.21.21,0,0,0,4.93.61a.21.21,0,0,0-.21-.2.2.2,0,0,0-.2.2A.2.2,0,0,0,4.72.82Z"/><path class="cls-2" d="M3.9.82A.21.21,0,0,0,4.11.61.21.21,0,0,0,3.9.41a.2.2,0,0,0-.2.2A.2.2,0,0,0,3.9.82Z"/><path class="cls-2" d="M3.49,1.23A.21.21,0,0,0,3.7,1a.21.21,0,0,0-.21-.2.2.2,0,0,0-.2.2A.2.2,0,0,0,3.49,1.23Z"/><path class="cls-2" d="M4.31,1.23A.21.21,0,0,0,4.52,1a.21.21,0,0,0-.21-.2.2.2,0,0,0-.2.2A.2.2,0,0,0,4.31,1.23Z"/><path class="cls-2" d="M3.49.41A.21.21,0,0,0,3.7.2.21.21,0,0,0,3.49,0a.2.2,0,0,0-.2.2A.2.2,0,0,0,3.49.41Z"/><path class="cls-2" d="M4.31.41A.21.21,0,0,0,4.52.2.21.21,0,0,0,4.31,0a.2.2,0,0,0-.2.2A.2.2,0,0,0,4.31.41Z"/></pattern></defs><title>face-4</title><g class="cls-3"><rect class="cls-4" x="-784.76" y="101.41" width="1479.92" height="2.76" transform="translate(729.39 317.06) rotate(-29.95)"/><rect class="cls-4" x="-777.26" y="105.4" width="1479.92" height="2.76" transform="translate(728.34 321.35) rotate(-29.98)"/><rect class="cls-4" x="-770.46" y="109.66" width="1479.92" height="2.76" transform="translate(727.12 325.32) rotate(-29.98)"/><rect class="cls-4" x="-762.81" y="113.58" width="1479.92" height="2.76" transform="matrix(0.87, -0.5, 0.5, 0.87, 726.24, 329.65)"/><rect class="cls-4" x="-756.5" y="117.97" width="1479.92" height="2.76" transform="translate(724.86 333.4) rotate(-29.97)"/><rect class="cls-4" x="-749" y="121.97" width="1479.92" height="2.76" transform="translate(723.88 337.67) rotate(-29.96)"/><rect class="cls-4" x="-742.2" y="126.23" width="1479.92" height="2.76" transform="translate(722.64 341.65) rotate(-29.97)"/><rect class="cls-4" x="-734.55" y="130.15" width="1479.92" height="2.76" transform="translate(721.71 345.99) rotate(-29.97)"/><rect class="cls-4" x="-727.74" y="134.41" width="1479.92" height="2.76" transform="translate(720.49 349.96) rotate(-29.97)"/><rect class="cls-4" x="-720.12" y="138.4" width="1479.92" height="2.76" transform="translate(719.52 354.3) rotate(-29.97)"/><rect class="cls-4" x="-713.31" y="142.66" width="1479.92" height="2.76" transform="translate(718.32 358.25) rotate(-29.96)"/><rect class="cls-4" x="-705.66" y="146.57" width="1479.92" height="2.76" transform="translate(717.4 362.58) rotate(-29.95)"/><rect class="cls-4" x="-699.35" y="150.97" width="1479.92" height="2.76" transform="translate(716.02 366.35) rotate(-29.97)"/><rect class="cls-4" x="-691.85" y="154.96" width="1479.92" height="2.76" transform="translate(715.06 370.6) rotate(-29.95)"/><rect class="cls-4" x="-685.05" y="159.23" width="1479.92" height="2.76" transform="translate(713.8 374.61) rotate(-29.97)"/><rect class="cls-4" x="-677.4" y="163.14" width="1479.92" height="2.76" transform="translate(712.89 378.92) rotate(-29.96)"/><rect class="cls-4" x="-670.6" y="167.41" width="1479.92" height="2.76" transform="translate(711.65 382.92) rotate(-29.97)"/><rect class="cls-4" x="-885.02" y="43.9" width="1479.92" height="2.75" transform="translate(744.68 259.29) rotate(-29.97)"/><rect class="cls-4" x="-877.38" y="47.81" width="1479.92" height="2.75" transform="translate(743.74 263.63) rotate(-29.97)"/><rect class="cls-4" x="-871.07" y="52.2" width="1479.92" height="2.76" transform="translate(742.41 267.39) rotate(-29.96)"/><rect class="cls-4" x="-863.57" y="56.2" width="1479.92" height="2.76" transform="translate(741.4 271.65) rotate(-29.97)"/><rect class="cls-4" x="-856.76" y="60.46" width="1479.92" height="2.76" transform="translate(740.18 275.62) rotate(-29.97)"/><rect class="cls-4" x="-849.11" y="64.38" width="1479.92" height="2.76" transform="translate(739.25 279.97) rotate(-29.97)"/><rect class="cls-4" x="-842.31" y="68.64" width="1479.92" height="2.76" transform="translate(738.05 283.95) rotate(-29.96)"/><rect class="cls-4" x="-834.68" y="72.63" width="1479.92" height="2.76" transform="translate(737.05 288.28) rotate(-29.97)"/><rect class="cls-4" x="-827.88" y="76.89" width="1479.92" height="2.76" transform="translate(735.81 292.24) rotate(-29.98)"/><rect class="cls-4" x="-820.23" y="80.8" width="1479.92" height="2.76" transform="translate(734.92 296.6) rotate(-29.96)"/><rect class="cls-4" x="-813.92" y="85.2" width="1479.92" height="2.76" transform="translate(733.55 300.33) rotate(-29.97)"/><rect class="cls-4" x="-806.42" y="89.2" width="1479.92" height="2.76" transform="translate(732.59 304.62) rotate(-29.95)"/><rect class="cls-4" x="-799.61" y="93.46" width="1479.92" height="2.76" transform="translate(731.35 308.58) rotate(-29.96)"/><rect class="cls-4" x="-791.97" y="97.37" width="1479.92" height="2.76" transform="translate(730.38 312.93) rotate(-29.98)"/><rect class="cls-4" x="-785.16" y="101.64" width="1479.92" height="2.76" transform="translate(729.19 316.9) rotate(-29.97)"/><rect class="cls-4" x="-570.53" y="225.06" width="1479.92" height="2.76" transform="translate(696.25 440.56) rotate(-29.96)"/><rect class="cls-4" x="-563.03" y="229.06" width="1479.92" height="2.76" transform="translate(695.23 444.9) rotate(-29.97)"/><rect class="cls-4" x="-556.22" y="233.32" width="1479.92" height="2.76" transform="translate(694.01 448.89) rotate(-29.97)"/><rect class="cls-4" x="-548.58" y="237.23" width="1479.92" height="2.76" transform="translate(693.1 453.15) rotate(-29.96)"/><rect class="cls-4" x="-542.27" y="241.63" width="1479.92" height="2.76" transform="translate(691.71 457) rotate(-29.98)"/><rect class="cls-4" x="-534.76" y="245.62" width="1479.92" height="2.76" transform="translate(690.76 461.17) rotate(-29.96)"/><rect class="cls-4" x="-527.96" y="249.89" width="1479.92" height="2.76" transform="translate(689.52 465.2) rotate(-29.97)"/><rect class="cls-4" x="-520.31" y="253.8" width="1479.92" height="2.76" transform="translate(688.58 469.57) rotate(-29.97)"/><rect class="cls-4" x="-513.51" y="258.07" width="1479.92" height="2.76" transform="translate(687.38 473.48) rotate(-29.96)"/><rect class="cls-4" x="-505.88" y="262.05" width="1479.92" height="2.76" transform="translate(686.39 477.85) rotate(-29.97)"/><rect class="cls-4" x="-499.08" y="266.31" width="1479.92" height="2.76" transform="translate(685.17 481.82) rotate(-29.97)"/><rect class="cls-4" x="-491.43" y="270.23" width="1479.92" height="2.76" transform="translate(684.24 486.17) rotate(-29.97)"/><rect class="cls-4" x="-485.12" y="274.62" width="1479.92" height="2.76" transform="translate(682.89 489.91) rotate(-29.97)"/><rect class="cls-4" x="-477.62" y="278.62" width="1479.92" height="2.76" transform="translate(681.9 494.19) rotate(-29.97)"/><rect class="cls-4" x="-470.81" y="282.88" width="1479.92" height="2.76" transform="translate(680.68 498.16) rotate(-29.97)"/><rect class="cls-4" x="-463.16" y="286.79" width="1479.92" height="2.76" transform="translate(679.74 502.5) rotate(-29.97)"/><rect class="cls-4" x="-456.36" y="291.06" width="1479.92" height="2.76" transform="translate(678.55 506.39) rotate(-29.96)"/><rect class="cls-4" x="-663.14" y="171.46" width="1479.92" height="2.76" transform="translate(710.62 387.19) rotate(-29.97)"/><rect class="cls-4" x="-656.83" y="175.86" width="1479.92" height="2.76" transform="translate(709.27 390.92) rotate(-29.97)"/><rect class="cls-4" x="-649.33" y="179.86" width="1479.92" height="2.76" transform="translate(708.25 395.24) rotate(-29.98)"/><rect class="cls-4" x="-642.53" y="184.12" width="1479.92" height="2.76" transform="translate(707.05 399.17) rotate(-29.97)"/><rect class="cls-4" x="-634.88" y="188.03" width="1479.92" height="2.76" transform="translate(706.12 403.52) rotate(-29.97)"/><rect class="cls-4" x="-628.07" y="192.29" width="1479.92" height="2.76" transform="translate(704.9 407.49) rotate(-29.97)"/><rect class="cls-4" x="-620.45" y="196.28" width="1479.92" height="2.76" transform="translate(703.93 411.83) rotate(-29.97)"/><rect class="cls-4" x="-613.64" y="200.54" width="1479.92" height="2.76" transform="translate(702.69 415.84) rotate(-29.98)"/><rect class="cls-4" x="-605.99" y="204.46" width="1479.92" height="2.76" transform="translate(701.8 420.1) rotate(-29.96)"/><rect class="cls-4" x="-599.68" y="208.85" width="1479.92" height="2.76" transform="translate(700.42 423.9) rotate(-29.97)"/><rect class="cls-4" x="-592.18" y="212.85" width="1479.92" height="2.76" transform="translate(699.43 428.16) rotate(-29.97)"/><rect class="cls-4" x="-585.38" y="217.11" width="1479.92" height="2.76" transform="translate(698.24 432.09) rotate(-29.96)"/><rect class="cls-4" x="-577.73" y="221.03" width="1479.92" height="2.76" transform="translate(697.26 436.53) rotate(-29.98)"/><rect class="cls-4" x="-570.93" y="225.29" width="1479.92" height="2.76" transform="translate(696.06 440.45) rotate(-29.97)"/><rect class="cls-4" x="-446.21" y="292.75" width="1479.92" height="2.76" transform="translate(679.05 511.72) rotate(-29.96)"/><rect class="cls-4" x="-338.05" y="353.62" width="1479.92" height="2.76" transform="translate(663.12 573.78) rotate(-29.95)"/><rect class="cls-4" x="-330.54" y="357.62" width="1479.92" height="2.76" transform="translate(662.1 578.22) rotate(-29.97)"/><rect class="cls-4" x="-323.74" y="361.88" width="1479.92" height="2.76" transform="translate(660.88 582.19) rotate(-29.97)"/><rect class="cls-4" x="-316.09" y="365.8" width="1479.92" height="2.76" transform="translate(659.98 586.37) rotate(-29.95)"/><rect class="cls-4" x="-309.78" y="370.19" width="1479.92" height="2.76" transform="translate(658.59 590.27) rotate(-29.97)"/><rect class="cls-4" x="-302.28" y="374.19" width="1479.92" height="2.76" transform="translate(657.62 594.44) rotate(-29.96)"/><rect class="cls-4" x="-295.48" y="378.45" width="1479.92" height="2.76" transform="translate(656.38 598.52) rotate(-29.97)"/><rect class="cls-4" x="-287.83" y="382.37" width="1479.92" height="2.76" transform="translate(655.45 602.87) rotate(-29.97)"/><rect class="cls-4" x="-281.02" y="386.63" width="1479.92" height="2.76" transform="translate(654.23 606.84) rotate(-29.97)"/><rect class="cls-4" x="-273.4" y="390.62" width="1479.92" height="2.76" transform="translate(653.26 611.18) rotate(-29.97)"/><rect class="cls-4" x="-266.59" y="394.88" width="1479.92" height="2.76" transform="translate(652.06 615.03) rotate(-29.96)"/><rect class="cls-4" x="-258.94" y="398.79" width="1479.92" height="2.76" transform="translate(651.14 619.3) rotate(-29.95)"/><rect class="cls-4" x="-252.63" y="403.18" width="1479.92" height="2.76" transform="translate(649.75 623.23) rotate(-29.97)"/><rect class="cls-4" x="-245.13" y="407.18" width="1479.92" height="2.76" transform="translate(648.78 627.39) rotate(-29.96)"/><rect class="cls-4" x="-238.33" y="411.45" width="1479.92" height="2.76" transform="translate(647.54 631.48) rotate(-29.97)"/><rect class="cls-4" x="-230.68" y="415.36" width="1479.92" height="2.76" transform="translate(646.61 635.83) rotate(-29.97)"/><rect class="cls-4" x="-223.88" y="419.62" width="1479.92" height="2.76" transform="translate(645.39 639.8) rotate(-29.97)"/><rect class="cls-4" x="-438.3" y="296.11" width="1479.92" height="2.75" transform="translate(678.41 516.17) rotate(-29.97)"/><rect class="cls-4" x="-430.66" y="300.03" width="1479.92" height="2.75" transform="translate(677.48 520.51) rotate(-29.97)"/><rect class="cls-4" x="-424.35" y="304.42" width="1479.92" height="2.76" transform="translate(676.15 524.17) rotate(-29.96)"/><rect class="cls-4" x="-416.85" y="308.42" width="1479.92" height="2.76" transform="translate(675.14 528.53) rotate(-29.97)"/><rect class="cls-4" x="-410.04" y="312.68" width="1479.92" height="2.76" transform="translate(673.93 532.45) rotate(-29.96)"/><rect class="cls-4" x="-402.39" y="316.6" width="1479.92" height="2.76" transform="translate(672.98 536.84) rotate(-29.97)"/><rect class="cls-4" x="-395.59" y="320.86" width="1479.92" height="2.76" transform="translate(671.8 540.67) rotate(-29.95)"/><rect class="cls-4" x="-387.96" y="324.85" width="1479.92" height="2.76" transform="translate(670.79 545.15) rotate(-29.97)"/><rect class="cls-4" x="-381.16" y="329.11" width="1479.92" height="2.76" transform="translate(669.55 549.22) rotate(-29.98)"/><rect class="cls-4" x="-373.51" y="333.02" width="1479.92" height="2.76" transform="translate(668.66 553.37) rotate(-29.96)"/><rect class="cls-4" x="-367.2" y="337.42" width="1479.92" height="2.76" transform="translate(667.29 557.21) rotate(-29.97)"/><rect class="cls-4" x="-359.7" y="341.41" width="1479.92" height="2.76" transform="translate(666.33 561.34) rotate(-29.95)"/><rect class="cls-4" x="-352.89" y="345.68" width="1479.92" height="2.76" transform="translate(665.09 565.4) rotate(-29.96)"/><rect class="cls-4" x="-345.25" y="349.59" width="1479.92" height="2.76" transform="translate(664.14 569.8) rotate(-29.97)"/><rect class="cls-4" x="-338.44" y="353.85" width="1479.92" height="2.76" transform="translate(662.92 573.77) rotate(-29.97)"/><rect class="cls-4" x="-123.81" y="477.28" width="1479.92" height="2.76" transform="translate(629.99 697.34) rotate(-29.96)"/><rect class="cls-4" x="-116.31" y="481.28" width="1479.92" height="2.76" transform="translate(628.97 701.77) rotate(-29.97)"/><rect class="cls-4" x="-109.5" y="485.54" width="1479.92" height="2.76" transform="translate(627.73 705.89) rotate(-29.98)"/><rect class="cls-4" x="-101.86" y="489.45" width="1479.92" height="2.76" transform="translate(626.84 709.93) rotate(-29.96)"/><rect class="cls-4" x="-95.55" y="493.84" width="1479.92" height="2.76" transform="translate(625.46 713.89) rotate(-29.97)"/><rect class="cls-4" x="-88.04" y="497.84" width="1479.92" height="2.76" transform="translate(624.51 717.86) rotate(-29.95)"/><rect class="cls-4" x="-81.24" y="502.11" width="1479.92" height="2.76" transform="translate(623.26 722.07) rotate(-29.97)"/><rect class="cls-4" x="-73.59" y="506.02" width="1479.92" height="2.76" transform="translate(622.31 726.49) rotate(-29.97)"/><rect class="cls-4" x="-66.79" y="510.28" width="1479.92" height="2.76" transform="translate(621.11 730.3) rotate(-29.96)"/><rect class="cls-4" x="-59.16" y="514.27" width="1479.92" height="2.76" transform="translate(620.13 734.73) rotate(-29.97)"/><rect class="cls-4" x="-52.36" y="518.53" width="1479.92" height="2.76" transform="translate(618.91 738.7) rotate(-29.97)"/><rect class="cls-4" x="-44.71" y="522.45" width="1479.92" height="2.76" transform="translate(617.98 743.04) rotate(-29.97)"/><rect class="cls-4" x="-38.4" y="526.84" width="1479.92" height="2.76" transform="translate(616.63 746.78) rotate(-29.97)"/><rect class="cls-4" x="-30.9" y="530.84" width="1479.92" height="2.76" transform="translate(615.65 750.97) rotate(-29.96)"/><rect class="cls-4" x="-24.09" y="535.1" width="1479.92" height="2.76" transform="translate(614.43 754.93) rotate(-29.96)"/><rect class="cls-4" x="-16.44" y="539.01" width="1479.92" height="2.76" transform="translate(613.48 759.38) rotate(-29.97)"/><rect class="cls-4" x="-9.64" y="543.28" width="1479.92" height="2.76" transform="translate(612.3 763.07) rotate(-29.95)"/><rect class="cls-4" x="-216.42" y="423.68" width="1479.92" height="2.76" transform="translate(644.37 643.99) rotate(-29.96)"/><rect class="cls-4" x="-210.11" y="428.08" width="1479.92" height="2.76" transform="translate(643 647.8) rotate(-29.97)"/><rect class="cls-4" x="-202.61" y="432.07" width="1479.92" height="2.76" transform="translate(641.99 652.21) rotate(-29.98)"/><rect class="cls-4" x="-195.81" y="436.34" width="1479.92" height="2.76" transform="translate(640.79 656.05) rotate(-29.97)"/><rect class="cls-4" x="-188.16" y="440.25" width="1479.92" height="2.76" transform="translate(639.86 660.4) rotate(-29.97)"/><rect class="cls-4" x="-181.35" y="444.51" width="1479.92" height="2.76" transform="translate(638.64 664.36) rotate(-29.97)"/><rect class="cls-4" x="-173.73" y="448.5" width="1479.92" height="2.76" transform="translate(637.67 668.71) rotate(-29.97)"/><rect class="cls-4" x="-166.92" y="452.76" width="1479.92" height="2.76" transform="translate(636.44 672.74) rotate(-29.97)"/><rect class="cls-4" x="-159.27" y="456.68" width="1479.92" height="2.76" transform="translate(635.55 676.8) rotate(-29.95)"/><rect class="cls-4" x="-152.96" y="461.07" width="1479.92" height="2.76" transform="translate(634.14 680.9) rotate(-29.98)"/><rect class="cls-4" x="-145.46" y="465.07" width="1479.92" height="2.76" transform="translate(633.17 685.04) rotate(-29.97)"/><rect class="cls-4" x="-138.66" y="469.33" width="1479.92" height="2.76" transform="translate(631.97 688.86) rotate(-29.96)"/><rect class="cls-4" x="-131.01" y="473.25" width="1479.92" height="2.76" transform="translate(631 693.5) rotate(-29.98)"/><rect class="cls-4" x="-124.21" y="477.51" width="1479.92" height="2.76" transform="translate(629.8 697.32) rotate(-29.97)"/><rect class="cls-4" x="0.51" y="544.97" width="1479.92" height="2.76" transform="translate(612.78 768.54) rotate(-29.96)"/></g><rect class="cls-5" x="810.79" y="329.88" width="423.9" height="463.86"/><path class="cls-6" d="M19.55,345.3s31.86-6.11,39.39-6.53,21.42,6.53,24.9,6.53,23.17-8.74,27.8-9,28.66,4.5,28.66,4.5L293.89,369s14.73-6.56,26.28-5,27.76,12.26,37,21.09,18.53,21.83,18.53,21.83,10.42.91,16.22,2.64,36.48,27.8,41.69,30.12,18.36,11,18.36,11" transform="translate(786.69 325.7)"/><path class="cls-7" d="M137.12,344.14c1.74-6.95,2.89-3.91,3.18-18.17s0-38,0-38l85.38,88.58L288,370.78,279,468H153.7l-20.63-82.93Z" transform="translate(786.69 325.7)"/><path class="cls-7" d="M236.05,406.83c25.53.62,43.69-.87,52.81-18.67s27.8-44.74,35.18-77.32a315.7,315.7,0,0,0,7.82-70.9c0-12.5,3.47-32.91,1.74-43.77S328,154,317.52,144.91s-30.83-20.41-63.85-23.45-47.34-6.52-67.76,6.51S152,158.38,147.26,179.23a371,371,0,0,0-7.82,52.12c-1.31,14.34-3,28.23-3,28.23s-1.74-26.06-6.52-27.79-12.6-.44-12.6,11.29.87,25.19,1.74,30.4-1.3,18.68,7.39,22.59,13.46,1.3,13.46,1.3a446.7,446.7,0,0,0,20.81,43.87C172.84,363.4,200.19,406,236.05,406.83Z" transform="translate(786.69 325.7)"/><path class="cls-4" d="M334.08,265.67s0-30.41,4.52-37.79,8.9-13,16.71-16.07,21.29-15.64,20.42-33.45-.16-26.23-5.65-35c-4.78-7.6-15.15-8.9-15.15-8.9s1.08.94,5.31-1.59c1.85-1.12,6.8,5.5,12.45,4.2s6.22-10,4.05-11.3,2.83-13-1.45-14.33-1.42,1-2.31-6.81c-.81-7-.05-4-6-13.55a40.33,40.33,0,0,0-15.09-13.9s8.68,7.82,8.68,15.64,1.91,8.07-1.56,11.55-4.95,5.82-3.65.17,1.8-22.8-2.78-30.89C342.55,56,333.81,67,332.51,67s7.89-2.1,9.19,1.81S341,81.55,338.4,85s-11.38,4.29-15.52.38S316.25,75,320.16,68.52s5.67-10.61,11.29-10.42,4.34,2.41,4.34,2.41-1.71-10.67-9.32-10.67-15.87.87-15.87.87-7-7.38-11.73-2.6-5.64,7.81-5.64,7.81a24.77,24.77,0,0,0-7-6.51c-3.91-2.17-2.17,5.21-2.17,5.21s-1.74-4.78-7.82-3A13.52,13.52,0,0,0,268,57.66s0-7.44-1.76-4-3.19,1.16-3.19,1.16-5.82-22-21.75-22-22,1.74-22,1.74S215,28.94,212,28.94s-10.43.43-14.77,7.82-3.91,16.07-3.91,16.07-10-2.61-15.64,0S165.06,65,165.06,65L161.59,53.7s6.52-7.39,3.47-7.39-17.37.87-19.11,4.35a2.36,2.36,0,0,0-.27,1.22c.16,2.69,5.49,4.21,5.49,5.73,0,1.73-1.43,9.55-5.5,10s-11.45-1.31-9.27-6.52,5.29-10.42-.39-6.95-6.56,8.26-6.56,8.26-6.08.43-6.95,3.9,10.86,10,10.86,10-9.65,5.65-10.91,10.86S119,108,119,108s-9.55.44-10.86-4.78-4.34-6.08-4.34-6.08l3,21.5s-14.77,3.7-18.68,12-.87,23,2.61,32.14-.44,24.33,3.47,34.75,15.64,14.34,17.81,20.42-1.2,22.31-1.2,22.31,15.55-12.91,19-8.41c5.79,7.51,7.24,29.24,7.24,29.24s2.32-39.67,5.36-51,8.69-43.44,14.33-49.95S179,127.54,202,123.63s31.22-5.21,34.07.43,24.14,4.78,32,5.65,37.79,7.82,44.3,14.77S331,168.8,331.86,191.82s-1.22,76.89-1.22,76.89Z" transform="translate(786.69 325.7)"/><path class="cls-8" d="M221.31,232.3s6.32-11.83,2-20.83-2.62-13.56-10-15.08-26.76-6.95-33.36-6.95-17.68,5.64-20.07,10.85-2.17,18.21,0,21.59a28.75,28.75,0,0,0,5,5.78S169,214,178.1,213.35s22.9-1.62,28.82,2.65S221.31,232.3,221.31,232.3Z" transform="translate(786.69 325.7)"/><path class="cls-8" d="M264,232.3a17.67,17.67,0,0,1,0-13.87c3.19-7.49,5.89-17.49,11.92-20.46s26.31-3.92,30.8-4.6,14.71,2.21,16.65,5.33,6.66,20.2,5.21,24.9-9.85,17.16-10.86,18S305.78,246,300.94,246s-19.52-2.93-25.07-6.68A130.82,130.82,0,0,0,264,232.3Z" transform="translate(786.69 325.7)"/><path class="cls-5" d="M271.63,235s.43-7.53,3.33-10.13,8.69-6.81,14.62-6.37,17.09,2.17,22.3,5.5,6.22,6.95,5.64,9.41-5.38,7.86-7.52,8.54c-5.51,1.74-13.32,2.17-23.6,0-3.58-.74-9.85-5.29-11.88-5.85A11,11,0,0,1,271.63,235Z" transform="translate(786.69 325.7)"/><path class="cls-5" d="M218.17,232.3a27.1,27.1,0,0,1-7.28,3.81c-3.69,1.11-17.92,5.14-27.26,3.83S166,229.18,166,227.22s3.5-8,6.75-10.09,18.14-4.24,21.61-3.7,13.25,2.28,14.45,3.37,9.15,9.38,9.34,11.73a9.9,9.9,0,0,0,.63,3.25Z" transform="translate(786.69 325.7)"/><path class="cls-4" d="M206.55,336.32a32.65,32.65,0,0,0,11.82,2c7.09,0,15-2.32,18.29-2s8.23,2.32,10.33,2a54.3,54.3,0,0,1,9.45,0c2.63.26,9.45,2.86,12.47,2.86h9.59" transform="translate(786.69 325.7)"/><path class="cls-4" d="M226.31,298.53c1.45-.72,5.94-3.76,8.54-3s9.41,5.79,14.05,5.94,11.87-1.71,13-3,4.34-4.43,6.51-3,5.65,2.43,4.93,3.44-9.13-.77-10.29-.59-1.44,1.91-5.79,3.21a30.44,30.44,0,0,1-11.43.71c-1.31-.29-5.8-3-7.24-3.44s-8.4-.4-9.56,0A4.93,4.93,0,0,1,226.31,298.53Z" transform="translate(786.69 325.7)"/><path class="cls-4" d="M204.36,227.08a12.22,12.22,0,1,1-12.22-12.22A12.22,12.22,0,0,1,204.36,227.08Z" transform="translate(786.69 325.7)"/><path class="cls-5" d="M191.58,222.92a2.92,2.92,0,1,1-2.92-2.92A2.92,2.92,0,0,1,191.58,222.92Z" transform="translate(786.69 325.7)"/><circle class="cls-5" cx="982.02" cy="547.6" r="1.7"/><circle class="cls-5" cx="984.32" cy="548.82" r="1"/><path class="cls-4" d="M306.67,231.14a12.22,12.22,0,1,1-12.22-12.22A12.22,12.22,0,0,1,306.67,231.14Z" transform="translate(786.69 325.7)"/><path class="cls-5" d="M293.89,227a2.93,2.93,0,1,1-2.92-2.92A2.93,2.93,0,0,1,293.89,227Z" transform="translate(786.69 325.7)"/><circle class="cls-5" cx="1084.33" cy="551.66" r="1.7"/><path class="cls-5" d="M300.94,227.17a1,1,0,1,1-1-1A1,1,0,0,1,300.94,227.17Z" transform="translate(786.69 325.7)"/><path class="cls-4" d="M219.58,231.89s-2.61-10.63-6.52-13.46-6.84-6.73-23-7-16.51,3.15-18.89,5-5.43,8.26-5.11,8.8,4.67-6.19,8.58-7.6a38.25,38.25,0,0,1,18.18-2.39c8.64.87,13.64.76,17.55,4.78s6.08,6.95,7.06,8.79S219.14,233.31,219.58,231.89Z" transform="translate(786.69 325.7)"/><path class="cls-4" d="M271.63,234s.32-7.82,2.24-11,7.17-6.73,11.4-7,17.16.55,22.05,2.39,12.05,7.17,12.38,9.34.87,3.69,0,5.1-2,3.24-2,3.24,1.05-6.17-.91-8.23-5.64-6-11-7.28-15.53-3.26-21.61-1.41-8.58,4.67-9.23,5.65S271.63,234,271.63,234Z" transform="translate(786.69 325.7)"/><path class="cls-8" d="M191,331.4s7.77-14.19,11.82-16.22,18.83-6.37,23.46-8.68,9.22-2.05,12.45-4.1,5.21,2.07,9.56,2.36,10.13-2.64,12.74-1.45,12.16,6.66,17.08,9.85,15.35,10.42,16.51,14.19-.2,13.89-.2,13.89-8.2-9.7-9.94-11.72-16.79-6.95-22.58-10.43-11.37,3.19-13.18,2.92c-3.91-.58-5.72-4.51-7.42-4.51s-21.39,6.15-27.76,8.47S193.2,336,192.25,336,189.61,333.53,191,331.4Z" transform="translate(786.69 325.7)"/><path class="cls-8" d="M229.78,358.33s4.06-6.66,16.22-5.5,15.93,8.11,15.93,8.11-8.45,2.31-12,2.31-9.39,1.74-10.84,0S231.81,357.46,229.78,358.33Z" transform="translate(786.69 325.7)"/><path class="cls-8" d="M140.31,292.6s24.55,44,31.27,48.64,20.85,41.27,36.49,42.14,30.07-3.48,33.26-3.48,14.81,3.77,20.6,5.21,12.74-1.73,17.37-6.08,9-15,16.6-23.89c2.8-3.27,22.49-27.79,25.68-38.51s4.05-14.23,4.05-14.23-10.71,42-19,53.32-15.75,31.79-19.8,35.84-6.41,13.1-28.71,14.55-39.56,2.6-53.8-9-29.22-30.06-35-39.81-20.13-21.58-24.76-40.69S140.31,292.6,140.31,292.6Z" transform="translate(786.69 325.7)"/><path class="cls-9" d="M266.42,266.1s1.33,7.45,3.9,12c6.38,11.29,5.8,14.69,5.22,16.9s-3.91,3.69-3.91,3.69" transform="translate(786.69 325.7)"/><path class="cls-10" d="M225.12,277.25s-5.5,7.39-5.54,12.63c-.05,5.61,1.15,6.19,3.36,7.64a6.36,6.36,0,0,0,4,1.19" transform="translate(786.69 325.7)"/><path class="cls-8" d="M205.32,334.51s11.26-.43,19.73-2.82,14.25-6.3,16.39-5.65,3.91,4.71,6.87,4.2,6.5-2.89,7.88-2.89,10.73,3.69,16.61,7.16,7.84,6.73,7.84,6.73-8.08,2.18-14,3.48-4.53,5-19.52,4.34-22.15-6.19-28.39-8.68a94.31,94.31,0,0,0-14.39-4.08Z" transform="translate(786.69 325.7)"/><rect class="cls-11" x="810.79" y="329.88" width="423.9" height="463.86"/></svg>