<svg id="Layer_1" data-name="Layer 1" xmlns="http://www.w3.org/2000/svg" xmlns:xlink="http://www.w3.org/1999/xlink" viewBox="0 0 2137.14 1224.89"><defs><style>.cls-1,.cls-11,.cls-12,.cls-13,.cls-6,.cls-7{fill:none;}.cls-2{fill:#231f20;}.cls-3{clip-path:url(#clip-path);}.cls-4{fill:#150035;}.cls-5{fill:#fff;}.cls-6{stroke:#39a1ff;}.cls-11,.cls-12,.cls-13,.cls-6,.cls-7{stroke-miterlimit:10;}.cls-11,.cls-12,.cls-13,.cls-7{stroke:#150035;}.cls-7{stroke-width:0.5px;}.cls-8{fill:#39a1ff;}.cls-9{opacity:0.39;}.cls-10,.cls-9{fill:url(#_10_dpi_50_);}.cls-11,.cls-12,.cls-13{stroke-width:0.25px;}.cls-12{opacity:0.33;}.cls-13{opacity:0.26;}</style><clipPath id="clip-path" transform="translate(770.93 316.89)"><rect id="SVGID" class="cls-1" x="8.74" y="21.91" width="417.71" height="457.09"/></clipPath><pattern id="_10_dpi_50_" data-name="10 dpi 50%" width="4.93" height="3.28" patternTransform="translate(11.39 2.61)" patternUnits="userSpaceOnUse" viewBox="0 0 4.92 3.28"><rect class="cls-1" width="4.93" height="3.28"/><path class="cls-2" d="M1.43,3.28a.21.21,0,0,0,.21-.21.2.2,0,0,0-.21-.2.2.2,0,0,0-.2.2A.2.2,0,0,0,1.43,3.28Z"/><path class="cls-2" d="M.61,3.28a.21.21,0,0,0,.21-.21.2.2,0,0,0-.21-.2.2.2,0,0,0-.2.2A.2.2,0,0,0,.61,3.28Z"/><path class="cls-2" d="M1.43,2.46a.21.21,0,0,0,.21-.21.2.2,0,0,0-.21-.2.2.2,0,0,0-.2.2A.2.2,0,0,0,1.43,2.46Z"/><path class="cls-2" d="M.61,2.46a.21.21,0,0,0,.21-.21.2.2,0,0,0-.21-.2.2.2,0,0,0-.2.2A.2.2,0,0,0,.61,2.46Z"/><path class="cls-2" d="M.21,2.87a.2.2,0,0,0,.2-.21.2.2,0,0,0-.2-.2.2.2,0,0,0-.21.2A.21.21,0,0,0,.21,2.87Z"/><path class="cls-2" d="M1,2.87a.21.21,0,0,0,.21-.21A.2.2,0,0,0,1,2.46a.2.2,0,0,0-.2.2A.2.2,0,0,0,1,2.87Z"/><path class="cls-2" d="M.21,2.05a.2.2,0,0,0,.2-.21.2.2,0,0,0-.2-.2.2.2,0,0,0-.21.2A.21.21,0,0,0,.21,2.05Z"/><path class="cls-2" d="M1,2.05a.21.21,0,0,0,.21-.21A.2.2,0,0,0,1,1.64a.2.2,0,0,0-.2.2A.2.2,0,0,0,1,2.05Z"/><path class="cls-2" d="M3.09,3.28a.2.2,0,0,0,.2-.21.2.2,0,0,0-.2-.2.2.2,0,0,0-.21.2A.21.21,0,0,0,3.09,3.28Z"/><path class="cls-2" d="M2.27,3.28a.2.2,0,0,0,.2-.21.2.2,0,0,0-.2-.2.2.2,0,0,0-.21.2A.21.21,0,0,0,2.27,3.28Z"/><path class="cls-2" d="M3.09,2.46a.2.2,0,0,0,.2-.21.2.2,0,0,0-.2-.2.2.2,0,0,0-.21.2A.21.21,0,0,0,3.09,2.46Z"/><path class="cls-2" d="M2.27,2.46a.2.2,0,0,0,.2-.21.2.2,0,0,0-.2-.2.2.2,0,0,0-.21.2A.21.21,0,0,0,2.27,2.46Z"/><path class="cls-2" d="M1.86,2.87a.2.2,0,0,0,.2-.21.2.2,0,0,0-.2-.2.2.2,0,0,0-.21.2A.21.21,0,0,0,1.86,2.87Z"/><path class="cls-2" d="M2.68,2.87a.2.2,0,0,0,.2-.21.2.2,0,0,0-.2-.2.2.2,0,0,0-.21.2A.21.21,0,0,0,2.68,2.87Z"/><path class="cls-2" d="M1.86,2.05a.2.2,0,0,0,.2-.21.2.2,0,0,0-.2-.2.2.2,0,0,0-.21.2A.21.21,0,0,0,1.86,2.05Z"/><path class="cls-2" d="M2.68,2.05a.2.2,0,0,0,.2-.21.2.2,0,0,0-.2-.2.2.2,0,0,0-.21.2A.21.21,0,0,0,2.68,2.05Z"/><path class="cls-2" d="M4.72,3.28a.21.21,0,1,0,0-.41.2.2,0,0,0-.2.2A.2.2,0,0,0,4.72,3.28Z"/><path class="cls-2" d="M3.9,3.28a.21.21,0,1,0,0-.41.2.2,0,0,0-.2.2A.2.2,0,0,0,3.9,3.28Z"/><path class="cls-2" d="M4.72,2.46a.21.21,0,1,0,0-.41.2.2,0,0,0-.2.2A.2.2,0,0,0,4.72,2.46Z"/><path class="cls-2" d="M3.9,2.46a.21.21,0,1,0,0-.41.2.2,0,0,0-.2.2A.2.2,0,0,0,3.9,2.46Z"/><path class="cls-2" d="M3.49,2.87a.21.21,0,1,0,0-.41.2.2,0,0,0-.2.2A.2.2,0,0,0,3.49,2.87Z"/><path class="cls-2" d="M4.31,2.87a.21.21,0,1,0,0-.41.2.2,0,0,0-.2.2A.2.2,0,0,0,4.31,2.87Z"/><path class="cls-2" d="M3.49,2.05a.21.21,0,1,0,0-.41.2.2,0,0,0-.2.2A.2.2,0,0,0,3.49,2.05Z"/><path class="cls-2" d="M4.31,2.05a.21.21,0,1,0,0-.41.2.2,0,0,0-.2.2A.2.2,0,0,0,4.31,2.05Z"/><path class="cls-2" d="M1.43,1.64a.21.21,0,0,0,.21-.21.2.2,0,0,0-.21-.2.2.2,0,0,0-.2.2A.2.2,0,0,0,1.43,1.64Z"/><path class="cls-2" d="M.61,1.64a.21.21,0,0,0,.21-.21.2.2,0,0,0-.21-.2.2.2,0,0,0-.2.2A.2.2,0,0,0,.61,1.64Z"/><path class="cls-2" d="M1.43.82A.21.21,0,0,0,1.64.61a.2.2,0,0,0-.21-.2.2.2,0,0,0-.2.2A.2.2,0,0,0,1.43.82Z"/><path class="cls-2" d="M.61.82A.21.21,0,0,0,.82.61.2.2,0,0,0,.61.41a.2.2,0,0,0-.2.2A.2.2,0,0,0,.61.82Z"/><path class="cls-2" d="M.21,1.23A.2.2,0,0,0,.41,1a.2.2,0,0,0-.2-.2A.2.2,0,0,0,0,1,.21.21,0,0,0,.21,1.23Z"/><path class="cls-2" d="M1,1.23A.21.21,0,0,0,1.23,1,.2.2,0,0,0,1,.82a.2.2,0,0,0-.2.2A.2.2,0,0,0,1,1.23Z"/><path class="cls-2" d="M.21.41A.2.2,0,0,0,.41.2.2.2,0,0,0,.21,0,.2.2,0,0,0,0,.2.21.21,0,0,0,.21.41Z"/><path class="cls-2" d="M1,.41A.21.21,0,0,0,1.23.2.2.2,0,0,0,1,0a.2.2,0,0,0-.2.2A.2.2,0,0,0,1,.41Z"/><path class="cls-2" d="M3.09,1.64a.2.2,0,0,0,.2-.21.2.2,0,0,0-.2-.2.2.2,0,0,0-.21.2A.21.21,0,0,0,3.09,1.64Z"/><path class="cls-2" d="M2.27,1.64a.2.2,0,0,0,.2-.21.2.2,0,0,0-.2-.2.2.2,0,0,0-.21.2A.21.21,0,0,0,2.27,1.64Z"/><path class="cls-2" d="M3.09.82a.2.2,0,0,0,.2-.21.2.2,0,0,0-.2-.2.2.2,0,0,0-.21.2A.21.21,0,0,0,3.09.82Z"/><path class="cls-2" d="M2.27.82a.2.2,0,0,0,.2-.21.2.2,0,0,0-.2-.2.2.2,0,0,0-.21.2A.21.21,0,0,0,2.27.82Z"/><path class="cls-2" d="M1.86,1.23A.2.2,0,0,0,2.06,1a.2.2,0,0,0-.2-.2.2.2,0,0,0-.21.2A.21.21,0,0,0,1.86,1.23Z"/><path class="cls-2" d="M2.68,1.23A.2.2,0,0,0,2.88,1a.2.2,0,0,0-.2-.2.2.2,0,0,0-.21.2A.21.21,0,0,0,2.68,1.23Z"/><path class="cls-2" d="M1.86.41A.2.2,0,0,0,2.06.2a.2.2,0,0,0-.2-.2.2.2,0,0,0-.21.2A.21.21,0,0,0,1.86.41Z"/><path class="cls-2" d="M2.68.41A.2.2,0,0,0,2.88.2a.2.2,0,0,0-.2-.2.2.2,0,0,0-.21.2A.21.21,0,0,0,2.68.41Z"/><path class="cls-2" d="M4.72,1.64a.21.21,0,1,0,0-.41.2.2,0,0,0-.2.2A.2.2,0,0,0,4.72,1.64Z"/><path class="cls-2" d="M3.9,1.64a.21.21,0,1,0,0-.41.2.2,0,0,0-.2.2A.2.2,0,0,0,3.9,1.64Z"/><path class="cls-2" d="M4.72.82A.21.21,0,0,0,4.93.61a.21.21,0,0,0-.21-.2.2.2,0,0,0-.2.2A.2.2,0,0,0,4.72.82Z"/><path class="cls-2" d="M3.9.82A.21.21,0,0,0,4.11.61.21.21,0,0,0,3.9.41a.2.2,0,0,0-.2.2A.2.2,0,0,0,3.9.82Z"/><path class="cls-2" d="M3.49,1.23A.21.21,0,0,0,3.7,1a.21.21,0,0,0-.21-.2.2.2,0,0,0-.2.2A.2.2,0,0,0,3.49,1.23Z"/><path class="cls-2" d="M4.31,1.23A.21.21,0,0,0,4.52,1a.21.21,0,0,0-.21-.2.2.2,0,0,0-.2.2A.2.2,0,0,0,4.31,1.23Z"/><path class="cls-2" d="M3.49.41A.21.21,0,0,0,3.7.2.21.21,0,0,0,3.49,0a.2.2,0,0,0-.2.2A.2.2,0,0,0,3.49.41Z"/><path class="cls-2" d="M4.31.41A.21.21,0,0,0,4.52.2.21.21,0,0,0,4.31,0a.2.2,0,0,0-.2.2A.2.2,0,0,0,4.31.41Z"/></pattern></defs><title>face-1</title><g class="cls-3"><rect class="cls-4" x="-769.04" y="103.99" width="1458.33" height="2.72" transform="translate(712.99 311.05) rotate(-29.96)"/><rect class="cls-4" x="-761.64" y="107.93" width="1458.32" height="2.72" transform="translate(712 315.27) rotate(-29.97)"/><rect class="cls-4" x="-754.94" y="112.13" width="1458.33" height="2.72" transform="translate(710.8 319.18) rotate(-29.97)"/><rect class="cls-4" x="-747.4" y="115.98" width="1458.32" height="2.72" transform="translate(709.89 323.46) rotate(-29.96)"/><rect class="cls-4" x="-741.19" y="120.31" width="1458.33" height="2.72" transform="translate(708.57 327.14) rotate(-29.96)"/><rect class="cls-4" x="-733.79" y="124.25" width="1458.32" height="2.72" transform="translate(707.57 331.37) rotate(-29.97)"/><rect class="cls-4" x="-727.09" y="128.45" width="1458.33" height="2.72" transform="translate(706.36 335.28) rotate(-29.97)"/><rect class="cls-4" x="-719.55" y="132.31" width="1458.32" height="2.72" transform="translate(705.45 339.56) rotate(-29.97)"/><rect class="cls-4" x="-712.85" y="136.51" width="1458.32" height="2.72" transform="translate(704.24 343.47) rotate(-29.97)"/><rect class="cls-4" x="-705.33" y="140.44" width="1458.33" height="2.72" transform="translate(703.29 347.75) rotate(-29.97)"/><rect class="cls-4" x="-698.62" y="144.64" width="1458.32" height="2.72" transform="translate(702.09 351.66) rotate(-29.97)"/><rect class="cls-4" x="-691.09" y="148.5" width="1458.32" height="2.72" transform="translate(701.2 355.91) rotate(-29.95)"/><rect class="cls-4" x="-684.87" y="152.82" width="1458.32" height="2.72" transform="translate(699.84 359.63) rotate(-29.97)"/><rect class="cls-4" x="-677.48" y="156.76" width="1458.33" height="2.72" transform="translate(698.89 363.81) rotate(-29.95)"/><rect class="cls-4" x="-670.77" y="160.96" width="1458.32" height="2.72" transform="translate(697.65 367.76) rotate(-29.97)"/><rect class="cls-4" x="-663.24" y="164.82" width="1458.32" height="2.72" transform="translate(696.73 372.04) rotate(-29.97)"/><rect class="cls-4" x="-656.53" y="169.02" width="1458.33" height="2.72" transform="translate(695.53 375.95) rotate(-29.97)"/><rect class="cls-4" x="-867.83" y="47.32" width="1458.32" height="2.71" transform="translate(728.08 254.12) rotate(-29.97)"/><rect class="cls-4" x="-860.3" y="51.18" width="1458.32" height="2.71" transform="translate(727.16 258.4) rotate(-29.97)"/><rect class="cls-4" x="-854.08" y="55.5" width="1458.32" height="2.72" transform="translate(725.85 262.1) rotate(-29.96)"/><rect class="cls-4" x="-846.69" y="59.44" width="1458.33" height="2.72" transform="translate(724.85 266.31) rotate(-29.97)"/><rect class="cls-4" x="-839.98" y="63.64" width="1458.32" height="2.72" transform="translate(723.62 270.21) rotate(-29.98)"/><rect class="cls-4" x="-832.45" y="67.5" width="1458.32" height="2.72" transform="translate(722.73 274.5) rotate(-29.97)"/><rect class="cls-4" x="-825.74" y="71.7" width="1458.33" height="2.72" transform="translate(721.55 278.42) rotate(-29.96)"/><rect class="cls-4" x="-818.23" y="75.63" width="1458.33" height="2.72" transform="translate(720.59 282.7) rotate(-29.96)"/><rect class="cls-4" x="-811.52" y="79.83" width="1458.32" height="2.72" transform="translate(719.37 286.6) rotate(-29.97)"/><rect class="cls-4" x="-803.99" y="83.69" width="1458.33" height="2.72" transform="translate(718.45 290.88) rotate(-29.97)"/><rect class="cls-4" x="-797.77" y="88.02" width="1458.32" height="2.72" transform="translate(717.11 294.57) rotate(-29.97)"/><rect class="cls-4" x="-790.37" y="91.95" width="1458.32" height="2.72" transform="translate(716.15 298.79) rotate(-29.96)"/><rect class="cls-4" x="-783.67" y="96.16" width="1458.32" height="2.72" transform="translate(714.95 302.7) rotate(-29.96)"/><rect class="cls-4" x="-776.13" y="100.01" width="1458.33" height="2.72" transform="translate(714.01 306.98) rotate(-29.97)"/><rect class="cls-4" x="-769.43" y="104.21" width="1458.32" height="2.72" transform="translate(712.81 310.89) rotate(-29.97)"/><rect class="cls-4" x="-557.93" y="225.84" width="1458.33" height="2.72" transform="matrix(0.87, -0.5, 0.5, 0.87, 680.34, 432.8)"/><rect class="cls-4" x="-550.53" y="229.78" width="1458.32" height="2.72" transform="translate(679.38 436.97) rotate(-29.96)"/><rect class="cls-4" x="-543.83" y="233.98" width="1458.32" height="2.72" transform="translate(678.17 440.9) rotate(-29.96)"/><rect class="cls-4" x="-536.29" y="237.83" width="1458.33" height="2.72" transform="translate(677.26 445.16) rotate(-29.96)"/><rect class="cls-4" x="-530.08" y="242.16" width="1458.33" height="2.72" transform="translate(675.91 448.9) rotate(-29.97)"/><rect class="cls-4" x="-522.68" y="246.1" width="1458.32" height="2.72" transform="translate(674.93 453.12) rotate(-29.97)"/><rect class="cls-4" x="-515.98" y="250.3" width="1458.32" height="2.72" transform="translate(673.72 457.03) rotate(-29.97)"/><rect class="cls-4" x="-508.44" y="254.16" width="1458.33" height="2.72" transform="translate(672.82 461.27) rotate(-29.96)"/><rect class="cls-4" x="-501.74" y="258.36" width="1458.32" height="2.72" transform="translate(671.61 465.18) rotate(-29.96)"/><rect class="cls-4" x="-494.22" y="262.29" width="1458.32" height="2.72" transform="translate(670.65 469.5) rotate(-29.97)"/><rect class="cls-4" x="-487.52" y="266.49" width="1458.33" height="2.72" transform="translate(669.44 473.41) rotate(-29.97)"/><rect class="cls-4" x="-479.98" y="270.35" width="1458.32" height="2.72" transform="translate(668.55 477.62) rotate(-29.96)"/><rect class="cls-4" x="-473.77" y="274.67" width="1458.33" height="2.72" transform="translate(667.17 481.44) rotate(-29.98)"/><rect class="cls-4" x="-466.37" y="278.61" width="1458.32" height="2.72" transform="translate(666.24 485.52) rotate(-29.96)"/><rect class="cls-4" x="-459.67" y="282.81" width="1458.33" height="2.72" transform="translate(665.03 489.43) rotate(-29.96)"/><rect class="cls-4" x="-452.13" y="286.67" width="1458.32" height="2.72" transform="translate(664.07 493.86) rotate(-29.98)"/><rect class="cls-4" x="-445.42" y="290.87" width="1458.32" height="2.72" transform="translate(662.89 497.7) rotate(-29.97)"/><rect class="cls-4" x="-649.19" y="173.02" width="1458.32" height="2.72" transform="translate(694.52 380.15) rotate(-29.97)"/><rect class="cls-4" x="-642.97" y="177.35" width="1458.33" height="2.72" transform="translate(693.18 383.84) rotate(-29.97)"/><rect class="cls-4" x="-635.58" y="181.29" width="1458.32" height="2.72" transform="translate(692.2 388.06) rotate(-29.97)"/><rect class="cls-4" x="-628.87" y="185.49" width="1458.33" height="2.72" transform="translate(691 391.97) rotate(-29.97)"/><rect class="cls-4" x="-621.34" y="189.35" width="1458.32" height="2.72" transform="translate(690.08 396.25) rotate(-29.97)"/><rect class="cls-4" x="-614.63" y="193.55" width="1458.33" height="2.72" transform="translate(688.9 400.12) rotate(-29.96)"/><rect class="cls-4" x="-607.12" y="197.48" width="1458.33" height="2.72" transform="translate(687.93 404.44) rotate(-29.97)"/><rect class="cls-4" x="-600.41" y="201.68" width="1458.32" height="2.72" transform="translate(686.7 408.39) rotate(-29.98)"/><rect class="cls-4" x="-592.88" y="205.54" width="1458.32" height="2.72" transform="translate(685.83 412.59) rotate(-29.96)"/><rect class="cls-4" x="-586.66" y="209.86" width="1458.32" height="2.72" transform="translate(684.49 416.29) rotate(-29.96)"/><rect class="cls-4" x="-579.27" y="213.8" width="1458.33" height="2.72" transform="translate(683.49 420.53) rotate(-29.97)"/><rect class="cls-4" x="-572.56" y="218" width="1458.32" height="2.72" transform="translate(682.31 424.4) rotate(-29.96)"/><rect class="cls-4" x="-565.03" y="221.86" width="1458.32" height="2.72" transform="translate(681.37 428.73) rotate(-29.97)"/><rect class="cls-4" x="-558.32" y="226.06" width="1458.33" height="2.72" transform="translate(680.17 432.64) rotate(-29.97)"/><rect class="cls-4" x="-435.42" y="292.54" width="1458.33" height="2.72" transform="translate(663.41 502.87) rotate(-29.96)"/><rect class="cls-4" x="-328.84" y="352.53" width="1458.33" height="2.72" transform="translate(647.69 564.12) rotate(-29.96)"/><rect class="cls-4" x="-321.44" y="356.46" width="1458.32" height="2.72" transform="translate(646.7 568.4) rotate(-29.97)"/><rect class="cls-4" x="-314.74" y="360.66" width="1458.33" height="2.72" transform="translate(645.5 572.31) rotate(-29.97)"/><rect class="cls-4" x="-307.2" y="364.52" width="1458.32" height="2.72" transform="translate(644.59 576.53) rotate(-29.96)"/><rect class="cls-4" x="-300.99" y="368.85" width="1458.33" height="2.72" transform="translate(643.27 580.17) rotate(-29.96)"/><rect class="cls-4" x="-293.59" y="372.79" width="1458.32" height="2.72" transform="translate(642.27 584.5) rotate(-29.97)"/><rect class="cls-4" x="-286.89" y="376.99" width="1458.33" height="2.72" transform="translate(641.07 588.41) rotate(-29.97)"/><rect class="cls-4" x="-279.35" y="380.85" width="1458.32" height="2.72" transform="translate(640.15 592.69) rotate(-29.97)"/><rect class="cls-4" x="-272.65" y="385.05" width="1458.32" height="2.72" transform="translate(638.97 596.49) rotate(-29.96)"/><rect class="cls-4" x="-265.13" y="388.98" width="1458.33" height="2.72" transform="translate(637.99 600.88) rotate(-29.97)"/><rect class="cls-4" x="-258.42" y="393.18" width="1458.32" height="2.72" transform="translate(636.79 604.79) rotate(-29.97)"/><rect class="cls-4" x="-250.89" y="397.04" width="1458.32" height="2.72" transform="translate(635.9 608.88) rotate(-29.95)"/><rect class="cls-4" x="-244.67" y="401.36" width="1458.32" height="2.72" transform="translate(634.54 612.75) rotate(-29.97)"/><rect class="cls-4" x="-237.28" y="405.3" width="1458.33" height="2.72" transform="translate(633.58 616.85) rotate(-29.96)"/><rect class="cls-4" x="-230.57" y="409.5" width="1458.32" height="2.72" transform="translate(632.36 620.89) rotate(-29.97)"/><rect class="cls-4" x="-223.04" y="413.36" width="1458.32" height="2.72" transform="translate(631.44 625.17) rotate(-29.97)"/><rect class="cls-4" x="-216.33" y="417.56" width="1458.33" height="2.72" transform="translate(630.24 629.08) rotate(-29.97)"/><rect class="cls-4" x="-427.63" y="295.86" width="1458.32" height="2.71" transform="translate(662.78 507.25) rotate(-29.97)"/><rect class="cls-4" x="-420.1" y="299.72" width="1458.32" height="2.71" transform="translate(661.86 511.53) rotate(-29.97)"/><rect class="cls-4" x="-413.88" y="304.04" width="1458.32" height="2.72" transform="translate(660.55 515.14) rotate(-29.96)"/><rect class="cls-4" x="-406.49" y="307.98" width="1458.33" height="2.72" transform="translate(659.55 519.44) rotate(-29.97)"/><rect class="cls-4" x="-399.78" y="312.18" width="1458.32" height="2.72" transform="translate(658.34 523.38) rotate(-29.97)"/><rect class="cls-4" x="-392.25" y="316.04" width="1458.32" height="2.72" transform="translate(657.43 527.63) rotate(-29.97)"/><rect class="cls-4" x="-385.54" y="320.24" width="1458.33" height="2.72" transform="translate(656.26 531.4) rotate(-29.95)"/><rect class="cls-4" x="-378.03" y="324.17" width="1458.33" height="2.72" transform="translate(655.29 535.73) rotate(-29.96)"/><rect class="cls-4" x="-371.32" y="328.37" width="1458.32" height="2.72" transform="translate(654.07 539.73) rotate(-29.97)"/><rect class="cls-4" x="-363.78" y="332.22" width="1458.33" height="2.72" transform="translate(653.15 544.01) rotate(-29.97)"/><rect class="cls-4" x="-357.57" y="336.56" width="1458.32" height="2.72" transform="translate(651.82 547.69) rotate(-29.97)"/><rect class="cls-4" x="-350.17" y="340.49" width="1458.32" height="2.72" transform="translate(650.85 551.86) rotate(-29.96)"/><rect class="cls-4" x="-343.47" y="344.69" width="1458.32" height="2.72" transform="translate(649.65 555.77) rotate(-29.96)"/><rect class="cls-4" x="-335.93" y="348.55" width="1458.33" height="2.72" transform="translate(648.72 560.11) rotate(-29.97)"/><rect class="cls-4" x="-329.23" y="352.75" width="1458.32" height="2.72" transform="translate(647.52 564.02) rotate(-29.97)"/><rect class="cls-4" x="-117.73" y="474.38" width="1458.33" height="2.72" transform="translate(615.04 685.93) rotate(-29.97)"/><rect class="cls-4" x="-110.33" y="478.31" width="1458.32" height="2.72" transform="translate(614.08 690) rotate(-29.96)"/><rect class="cls-4" x="-103.63" y="482.51" width="1458.32" height="2.72" transform="translate(612.86 694.06) rotate(-29.97)"/><rect class="cls-4" x="-96.09" y="486.37" width="1458.33" height="2.72" transform="translate(611.94 698.34) rotate(-29.97)"/><rect class="cls-4" x="-89.88" y="490.7" width="1458.33" height="2.72" transform="translate(610.62 701.94) rotate(-29.96)"/><rect class="cls-4" x="-82.48" y="494.64" width="1458.32" height="2.72" transform="translate(609.64 706.16) rotate(-29.96)"/><rect class="cls-4" x="-75.78" y="498.84" width="1458.32" height="2.72" transform="translate(608.43 710.16) rotate(-29.97)"/><rect class="cls-4" x="-68.24" y="502.7" width="1458.33" height="2.72" transform="translate(607.52 714.35) rotate(-29.96)"/><rect class="cls-4" x="-61.54" y="506.9" width="1458.32" height="2.72" transform="translate(606.32 718.26) rotate(-29.96)"/><rect class="cls-4" x="-54.02" y="510.83" width="1458.32" height="2.72" transform="translate(605.35 722.63) rotate(-29.97)"/><rect class="cls-4" x="-47.32" y="515.03" width="1458.33" height="2.72" transform="translate(604.13 726.7) rotate(-29.98)"/><rect class="cls-4" x="-39.78" y="518.89" width="1458.32" height="2.72" transform="translate(603.25 730.65) rotate(-29.96)"/><rect class="cls-4" x="-33.56" y="523.21" width="1458.33" height="2.72" transform="translate(601.88 734.67) rotate(-29.98)"/><rect class="cls-4" x="-26.17" y="527.15" width="1458.32" height="2.72" transform="translate(600.95 738.46) rotate(-29.95)"/><rect class="cls-4" x="-19.47" y="531.35" width="1458.33" height="2.72" transform="translate(599.75 742.37) rotate(-29.95)"/><rect class="cls-4" x="-11.93" y="535.21" width="1458.32" height="2.72" transform="translate(598.78 747.09) rotate(-29.98)"/><rect class="cls-4" x="-5.22" y="539.41" width="1458.32" height="2.72" transform="translate(597.61 750.73) rotate(-29.96)"/><rect class="cls-4" x="-208.99" y="421.56" width="1458.32" height="2.72" transform="translate(629.23 633.21) rotate(-29.96)"/><rect class="cls-4" x="-202.77" y="425.89" width="1458.33" height="2.72" transform="translate(627.89 636.97) rotate(-29.97)"/><rect class="cls-4" x="-195.38" y="429.83" width="1458.32" height="2.72" transform="translate(626.91 641.18) rotate(-29.97)"/><rect class="cls-4" x="-188.67" y="434.03" width="1458.33" height="2.72" transform="translate(625.71 645.1) rotate(-29.97)"/><rect class="cls-4" x="-181.14" y="437.89" width="1458.32" height="2.72" transform="translate(624.79 649.38) rotate(-29.97)"/><rect class="cls-4" x="-174.43" y="442.09" width="1458.33" height="2.72" transform="translate(623.61 653.15) rotate(-29.96)"/><rect class="cls-4" x="-166.92" y="446.02" width="1458.33" height="2.72" transform="translate(622.63 657.57) rotate(-29.97)"/><rect class="cls-4" x="-160.21" y="450.22" width="1458.32" height="2.72" transform="translate(621.44 661.4) rotate(-29.96)"/><rect class="cls-4" x="-152.67" y="454.07" width="1458.32" height="2.72" transform="translate(620.54 665.54) rotate(-29.95)"/><rect class="cls-4" x="-146.46" y="458.4" width="1458.32" height="2.72" transform="translate(619.18 669.44) rotate(-29.97)"/><rect class="cls-4" x="-139.07" y="462.34" width="1458.32" height="2.72" transform="translate(618.2 673.66) rotate(-29.97)"/><rect class="cls-4" x="-132.36" y="466.54" width="1458.32" height="2.72" transform="translate(617 677.57) rotate(-29.97)"/><rect class="cls-4" x="-124.82" y="470.4" width="1458.32" height="2.72" transform="translate(616.08 681.85) rotate(-29.97)"/><rect class="cls-4" x="-118.12" y="474.6" width="1458.33" height="2.72" transform="translate(614.87 685.77) rotate(-29.97)"/><rect class="cls-4" x="4.78" y="541.08" width="1458.33" height="2.72" transform="translate(598.11 755.95) rotate(-29.96)"/></g><rect class="cls-5" x="797.98" y="325.07" width="417.71" height="457.09"/><rect class="cls-6" x="797.98" y="325.07" width="417.71" height="457.09"/><path class="cls-7" d="M321.37,300.85S366.88,310,372,318.6s12.55.48,17.12,8.25,5.7,14.92,11.41,18.12,22.4,4.39,22.4,4.39l15.78,6.9" transform="translate(770.93 316.89)"/><path class="cls-7" d="M162.36,307.78s-23.9,7.86-31.89,15.25-24,18.15-34.67,30.46c-10.93,12.6-10.7,10.19-16.41,14.5s-20,25.26-25.68,25.87-18.47,2.85-23,2.85" transform="translate(770.93 316.89)"/><path class="cls-7" d="M349.21,307.78s-6.73,28.74-6.73,48.48,8,100.39,3.44,109" transform="translate(770.93 316.89)"/><path class="cls-7" d="M187.88,386.53s-11,33.82-12.65,44.29-3.2,34.45-3.2,34.45" transform="translate(770.93 316.89)"/><path class="cls-7" d="M85.9,363.06S81.25,383.39,80,401.25s-.9,43.12,2.94,60.37" transform="translate(770.93 316.89)"/><path class="cls-7" d="M383,465.27A141.63,141.63,0,0,0,408.68,424c10.28-25.25,11.69-74.91,11.69-74.91" transform="translate(770.93 316.89)"/><path class="cls-8" d="M327.07,300.85s-4.56,86.75-10.84,95.31-48.51,45.08-74.47,45.08-57.65-8-53.51-26.82S191.82,383,191.82,383Z" transform="translate(770.93 316.89)"/><path class="cls-9" d="M327.07,300.85s-4.56,86.75-10.84,95.31-48.51,45.08-74.47,45.08-57.65-8-53.51-26.82S191.82,383,191.82,383Z" transform="translate(770.93 316.89)"/><path class="cls-8" d="M205,396.73c6.81,1.32,29.1,6.85,40.52,3.42s34.87-28,42.83-32.54,34.21-33.84,35.35-42.31,4.57-30.23,4.57-30.23,7.42,7.07,13.12,2.15,15.41-28.21,17.12-31.69,14.27-11.07,14.84-17.26,5.14-29.92-4-28.82-21.23,8.44-24,19.12-9.13,27-9.13,27,5.7-39.44,3.42-50.28-10.27-29.68-10.27-29.68l2.85-46.79-34.38-26.26-85.47-9.61-61.63,23.31L148,148.48s-1.29,63.34-2.43,66.77,4.28,13.06,2.43,20.22-7.31,38-2.59,55.68,19.94,49.65,26.6,58.78,7.52,20.55,13.37,31.39S192.66,394.34,205,396.73Z" transform="translate(770.93 316.89)"/><path class="cls-4" d="M237.48,218.24s1.71-9,21-11.55,32.1-4.71,37.66-3.43,15,9.42,15.41,11.56-7.27-.86-17.55-2.14-34.67,2.14-40.66,3.42S235.73,221.44,237.48,218.24Z" transform="translate(770.93 316.89)"/><path class="cls-4" d="M195.53,219.45s-.43-3-12.84-8.29-23.11-9.95-27.39-8.28-7.28,8.28-7.28,8.28a17.5,17.5,0,0,0,9.42,2.38c6,0,18.4,2.56,25.25,3.85S198.28,222.36,195.53,219.45Z" transform="translate(770.93 316.89)"/><path class="cls-5" d="M245.47,244.71s7.41-4.35,10.84-8.63,12.82-7.71,18.11-7.13,15.27,3.71,18.41,7.85a27.89,27.89,0,0,1,4.28,7.91s-4.28,2.21-12.27,3.35-24.82-2.89-27.39-3.72S246.32,247.06,245.47,244.71Z" transform="translate(770.93 316.89)"/><path class="cls-5" d="M196.05,241.79c2.66,0-.81-2.86-4.52-7.14a23.25,23.25,0,0,0-15.12-8c-6-.57-15.12,2.86-16.55,5.14s-2.85,5.27,0,6.77,8,6,13.7,5.77,12-3.12,14-3.12S192.29,241.79,196.05,241.79Z" transform="translate(770.93 316.89)"/><path class="cls-10" d="M177.6,315.41s7.94,9.41,12.22,9.41,16,5.42,22,5.71,20.26.86,29.11,0,17.12-1.71,18.55-2.28,17.4-5.06,17.4-5.06-22,2.49-31.38,1.63-16.88-1.07-21.69.43a38.76,38.76,0,0,1-7.38,1,80.65,80.65,0,0,0-8.14-2c-1.41-.2-15-3.07-17.87-3.64S177.6,315.41,177.6,315.41Z" transform="translate(770.93 316.89)"/><path class="cls-10" d="M192.39,329.1s7.13,10.85,12,12.56,16.09,2.76,22.85,2.57c10-.29,20.09-4,25.8-7.85s9.49-8.2,11.48-9.06,12-3.57,12-3.57-11.35,7.64-19.05,13.91-16.57,15.7-32.83,16-24.06-3.14-28.57-8.84-10.65-21.61-10.65-21.61a17.86,17.86,0,0,0,3.42,1.92C190.43,325.81,192.39,329.1,192.39,329.1Z" transform="translate(770.93 316.89)"/><path class="cls-11" d="M188.25,297s-.21,6.85,2.57,7.92,7.71,3.42,9,5.14,8.56,6.42,13.27,5.35,11.82-7.07,14.15-7.71,13.46.16,15.38-1.42,6-5.21,4.92-11.21" transform="translate(770.93 316.89)"/><path class="cls-12" d="M241.76,282.45s5.56.64,7.7,2.78S263.58,304,267,305.32s17.76,13.3,18.19,15.65-4.07,13.48-5.14,14.34" transform="translate(770.93 316.89)"/><path class="cls-11" d="M283.05,308.88s10.28,8.24,10.5,12.3-8.32,20.55-8.32,20.55" transform="translate(770.93 316.89)"/><line class="cls-13" x1="1076.68" y1="632.45" x2="1068.76" y2="655.31"/><path class="cls-13" d="M180.55,297.22s-8.13,8.77-10.06,11.66S172,323.19,172,323.19" transform="translate(770.93 316.89)"/><path class="cls-13" d="M156.58,305.32s9.84,22.62,11.56,25.66" transform="translate(770.93 316.89)"/><path class="cls-4" d="M218,50.89c.09,0-44.42,24.54-53,33.1s-23.4,24-23.4,54.21S148,205.74,148,205.74s-1.29-33.86,2.71-45.28,18.17-38.24,29.06-39.95,37.71-8,42.28-8,31.39,6.85,38.23,6.85,29.39,1.71,37.53,5.14,25.82,15.41,25.82,22.25-2.28,43.38,0,50.8,13.13,29.67,13.13,35.38v28L351,232.37l9.13-11.83s5.71-34.4,2.86-41.82-6.28-27.39-6.28-27.39,2.28-20,2.28-25.68-6.27-27.39-17.12-35.38-42.74-22.83-53.61-27.4-45.47-11.41-51-16.55S218,50.89,218,50.89Z" transform="translate(770.93 316.89)"/><path class="cls-6" d="M138.17,323.19" transform="translate(770.93 316.89)"/><path class="cls-11" d="M202.52,233.8a24.17,24.17,0,0,1,3,10.91c.14,4.21-2.86,15.77-3,19.76s0,9.42,0,9.42" transform="translate(770.93 316.89)"/><path class="cls-11" d="M235.34,233.8c-.43.42-6.14,2.85-6.14,7.56s-1.57,24.4-1.57,24.4" transform="translate(770.93 316.89)"/><circle class="cls-4" cx="949.35" cy="551.69" r="9.31"/><path class="cls-5" d="M178,231.63a2.22,2.22,0,1,1-2.22-2.22A2.22,2.22,0,0,1,178,231.63Z" transform="translate(770.93 316.89)"/><path class="cls-5" d="M182.14,230.86a1.3,1.3,0,1,1-1.3-1.3A1.3,1.3,0,0,1,182.14,230.86Z" transform="translate(770.93 316.89)"/><path class="cls-5" d="M183.36,231.79a.77.77,0,0,1-.77.76.77.77,0,0,1,0-1.53A.77.77,0,0,1,183.36,231.79Z" transform="translate(770.93 316.89)"/><circle class="cls-4" cx="1047" cy="555.98" r="10.08"/><circle class="cls-5" cx="1044.13" cy="552.54" r="2.41"/><path class="cls-5" d="M280.11,234.82a1.41,1.41,0,1,1-1.41-1.41A1.41,1.41,0,0,1,280.11,234.82Z" transform="translate(770.93 316.89)"/><path class="cls-5" d="M281.42,235.82a.82.82,0,0,1-.82.83.83.83,0,1,1,0-1.65A.82.82,0,0,1,281.42,235.82Z" transform="translate(770.93 316.89)"/><path class="cls-5" d="M189.82,324.82s5.57,10.37,10.06,13.61,7.32,5.13,17.58,5.45,18.18.84,26.22-2.91,9.43-4.43,12-6.51,7.82-7,7.82-7a144.56,144.56,0,0,1-21.33,2.91c-11.66.69-26.09,1.8-36-1S189.82,324.82,189.82,324.82Z" transform="translate(770.93 316.89)"/><path class="cls-4" d="M197,240.5s-6.33-10.76-9.27-11.62-5.4-4.5-12.49-4.21-13.8,2.92-15.94,4.74-.32,3.89.13,3.14,7.72-5.32,11.71-5.6,11.28,1,13.2,2.06,5.63,3.64,7.2,5.64S197,240.5,197,240.5Z" transform="translate(770.93 316.89)"/><path class="cls-4" d="M246.44,244.11s5.16-4,7.44-7.46,10.27-8.28,16.91-9.13,13.45-.23,19.9,5c3.71,3,6.07,8.45,5.64,8.88s-1.64-2.34-3.5-4.63c-2.58-3.21-9.78-6.29-14.88-7.24a20.41,20.41,0,0,0-13.37,1.53c-4.32,1.93-7.51,4.7-10.68,7.48A71.66,71.66,0,0,1,246.44,244.11Z" transform="translate(770.93 316.89)"/></svg>