<svg id="Layer_1" data-name="Layer 1" xmlns="http://www.w3.org/2000/svg" viewBox="0 0 676.51 619.76"><defs><style>.cls-1{fill:#150035;}.cls-2{fill:#fff;}.cls-3{fill:#39a1ff;}</style></defs><title>features-3</title><path class="cls-1" d="M624.07,560.28l-7.35,8.35L256.85,360.85c-2.24-1.29-6.15-1.13-8.74.37l-4.53,2.61L229.49,360s-7.66,6.6-1,18.12c0,.06.07.13.11.2v0c0,.08.11.11.15.18a5.38,5.38,0,0,0,.87,1,2.48,2.48,0,0,0,.26.19,8.62,8.62,0,0,0,1.08.79L592.72,589.34c4.48,2.59,12.31,2.26,17.49-.72l15.88-9.17,15.9-9.3Z" transform="translate(-13.41 -11.24)"/><path class="cls-1" d="M600.33,593.35a17.81,17.81,0,0,1-8.74-2.05L229.84,382.44a9.09,9.09,0,0,1-1.37-1,1.36,1.36,0,0,1-.29-.22,7.73,7.73,0,0,1-1.28-1.45l-.05,0h0l-.29-.45c-6-10.54-1.67-18.32,1.45-21l.91-.78,14.35,3.91,3.71-2.14c3.32-1.92,8.05-2.07,11-.36L616.25,565.75l7.32-8.32,23,12.67-35.22,20.47A22.54,22.54,0,0,1,600.33,593.35ZM230.47,377l.18.26a3.3,3.3,0,0,0,.49.55,8.74,8.74,0,0,0,1,.71L593.85,587.38c3.78,2.19,10.76,1.86,15.23-.72l28.33-16.45-12.84-7.08-7.38,8.38L255.72,362.81a7.58,7.58,0,0,0-6.48.36l-5.35,3.09-13.68-3.74c-1.46,1.87-4.17,6.83.23,14.45Z" transform="translate(-13.41 -11.24)"/><path class="cls-2" d="M592.72,576.75,231,367.9c-4.48-2.59-3.92-7.11,1.26-10.1l15.88-9.17c2.59-1.5,6.5-1.66,8.74-.36L626.72,561.81c2.24,1.29,2,3.55-.63,5.05L610.21,576C605,579,597.2,579.34,592.72,576.75Z" transform="translate(-13.41 -11.24)"/><path class="cls-1" d="M600.33,580.76a17.81,17.81,0,0,1-8.74-2L229.84,369.85c-2.68-1.54-4.16-3.8-4.16-6.34,0-2.89,2-5.68,5.41-7.67L247,346.67c3.32-1.91,8.05-2.06,11-.36L627.85,559.85a4.82,4.82,0,0,1,2.64,4.15c0,1.86-1.19,3.61-3.27,4.81L611.34,578A22.54,22.54,0,0,1,600.33,580.76Zm-6.48-6c3.78,2.18,10.76,1.85,15.23-.73L625,564.9a2.19,2.19,0,0,0,1-.91s-.12-.08-.38-.23L255.72,350.22a7.58,7.58,0,0,0-6.48.36l-15.89,9.18c-2,1.14-3.15,2.54-3.15,3.75s1.19,2,1.9,2.43Z" transform="translate(-13.41 -11.24)"/><rect class="cls-3" x="585.7" y="567.25" width="3.47" height="12.59"/><path class="cls-2" d="M687.65,553.71l0,0c0-.4,0-.78,0-1.19V300.94c0-14.94-9.09-32.3-20.3-38.77L242.37,16.8a20.23,20.23,0,0,0-2.93-1.38v0c-4.6-2.37-14.71-3.35-24,2.16s-12.81,17.07-12.81,17.07l19.44,2.92v246.2c0,14.95,9.08,32.31,20.29,38.78L662.88,565.3l-8.2,3.83-3.44,12.73s13.68,3.73,24.11-2.24C688.36,572.17,687.65,553.71,687.65,553.71Z" transform="translate(-13.41 -11.24)"/><path class="cls-1" d="M661,585.28A42.79,42.79,0,0,1,650.64,584l-2.17-.59,4.31-15.92,5.21-2.44L241.24,324.47c-11.81-6.82-21.42-25.09-21.42-40.73V39.49l-20.1-3,.76-2.5c.16-.51,3.89-12.48,13.82-18.36,10.39-6.17,21.35-4.72,26.17-2.23l.15.08a21.38,21.38,0,0,1,2.88,1.39l425,245.36c11.81,6.82,21.43,25.09,21.43,40.73v251.6c0,.24,0,.48,0,.71l0,.37c0,.81.61,19.92-13.42,28A31.27,31.27,0,0,1,661,585.28ZM654,580.14c4.1.71,13.09,1.59,20.19-2.48,8.41-4.81,10.5-15,11-20.35h0l.17-4.78V300.94c0-14.2-8.6-30.72-19.17-36.82l-425-245.36a17.61,17.61,0,0,0-2.61-1.23l-1.3-.61c-4.27-1.62-12.71-2.19-20.73,2.57-5.9,3.5-9.32,9.83-10.84,13.32l18.58,2.79V283.74c0,14.2,8.59,30.72,19.16,36.82l424.26,245-11.17,5.22Z" transform="translate(-13.41 -11.24)"/><path class="cls-1" d="M242.37,16.8a20.23,20.23,0,0,0-2.93-1.38v0c-4.6-2.37-14.71-3.35-24,2.16s-12.81,17.07-12.81,17.07l10.16,1.53c5.3-3.5,13.26-4.69,13.26-4.69A42.35,42.35,0,0,1,249.48,20.9Z" transform="translate(-13.41 -11.24)"/><path class="cls-1" d="M651.24,581.86s13.68,3.73,24.11-2.24c13-7.45,12.3-25.91,12.3-25.91l0,0c0-.4,0-.78,0-1.19V300.94c0-9.41-3.61-19.76-9.07-27.76,0,0-6.19,9.44-20.74,12.3-12,2.34-35.43,189-43.57,251.76l48.61,28.06-8.2,3.83Z" transform="translate(-13.41 -11.24)"/><path class="cls-3" d="M646.37,579.84l-425-245.36c-11.21-6.47-20.3-23.83-20.3-38.78V44.1c0-14.94,9.09-21.81,20.3-15.34l425,245.37c11.21,6.47,20.29,23.83,20.29,38.77V564.5C666.66,579.44,657.58,586.31,646.37,579.84Z" transform="translate(-13.41 -11.24)"/><path class="cls-1" d="M654.44,584.54a18.55,18.55,0,0,1-9.2-2.74l-425-245.37c-11.81-6.82-21.42-25.09-21.42-40.73V44.1c0-8.68,3-15.38,8.14-18.37,4.41-2.54,9.93-2.16,15.54,1.08l425,245.36c11.81,6.82,21.42,25.09,21.42,40.73V564.5c0,8.68-3,15.38-8.14,18.37A12.57,12.57,0,0,1,654.44,584.54Zm-6.94-6.65c4.15,2.39,8.07,2.78,11,1.07,3.74-2.16,5.89-7.43,5.89-14.46V312.9c0-14.2-8.6-30.72-19.17-36.82l-425-245.36c-4.15-2.4-8.07-2.78-11-1.07-3.74,2.15-5.89,7.42-5.89,14.45V295.7c0,14.2,8.6,30.72,19.17,36.82Z" transform="translate(-13.41 -11.24)"/><path class="cls-3" d="M640.28,556.29,227.48,318c-4.49-2.58-8.12-9.53-8.12-15.5v-244c0-6,3.63-8.72,8.12-6.13l412.8,238.33c4.48,2.59,8.12,9.53,8.12,15.51v244C648.4,556.13,644.76,558.88,640.28,556.29Z" transform="translate(-13.41 -11.24)"/><path class="cls-1" d="M643.51,559.53a8.72,8.72,0,0,1-4.36-1.29L226.35,319.91c-5.19-3-9.25-10.67-9.25-17.46v-244c0-4,1.43-7.08,3.94-8.52,2.2-1.27,4.89-1.12,7.56.43L641.41,288.69c5.18,3,9.25,10.67,9.25,17.47v244c0,4-1.44,7.08-3.94,8.52A6.33,6.33,0,0,1,643.51,559.53Zm-2.1-5.2c.71.42,2.05,1,3.05.43s1.68-2.33,1.68-4.61v-244c0-5.16-3.2-11.37-7-13.56L226.35,54.27c-.71-.41-2-1-3.06-.43s-1.67,2.33-1.67,4.61v244c0,5.15,3.2,11.36,7,13.55Z" transform="translate(-13.41 -11.24)"/><path class="cls-1" d="M238.75,311.91c-4.49-2.59-8.12-9.53-8.12-15.51V54.13l-3.15-1.81c-4.49-2.59-8.12.15-8.12,6.13v244c0,6,3.63,12.92,8.12,15.5l412.8,238.34c4.48,2.59,8.12-.16,8.12-6.14v-1.73Z" transform="translate(-13.41 -11.24)"/><path class="cls-1" d="M643.51,559.53a8.72,8.72,0,0,1-4.36-1.29L226.35,319.91c-5.19-3-9.25-10.67-9.25-17.46v-244c0-4,1.43-7.08,3.94-8.52,2.2-1.27,4.89-1.12,7.56.43l4.29,2.47V296.4c0,5.16,3.19,11.37,7,13.55L650.66,547.12v3c0,4-1.44,7.08-3.94,8.52A6.33,6.33,0,0,1,643.51,559.53ZM224.25,53.6a1.93,1.93,0,0,0-1,.24c-1,.61-1.67,2.33-1.67,4.61v244c0,5.15,3.2,11.36,7,13.55L641.41,554.33c.71.42,2.05,1,3.05.43s1.68-2.33,1.68-4.61v-.42L237.61,313.86c-5.18-3-9.24-10.66-9.24-17.46v-241l-2-1.17A4.5,4.5,0,0,0,224.25,53.6Z" transform="translate(-13.41 -11.24)"/><path class="cls-3" d="M401.78,204.78c30.94,34,44.73,83.93,30.8,111.62S382.25,339,351.31,305s-44.73-83.93-30.8-111.62S370.83,170.82,401.78,204.78Z" transform="translate(-13.41 -11.24)"/><path class="cls-2" d="M404.07,336.5c-17.11,0-37.05-10.87-54.43-29.94C318.17,272,304.2,220.81,318.49,192.41c5.41-10.73,14.17-17.21,25.36-18.75,18.16-2.49,40.44,8.58,59.6,29.6h0C434.92,237.8,448.89,289,434.6,317.41c-5.41,10.73-14.17,17.21-25.36,18.75A38.37,38.37,0,0,1,404.07,336.5Zm-55-158.67a33.51,33.51,0,0,0-4.62.31c-9.64,1.32-17.23,7-21.93,16.3-13.53,26.87.13,75.81,30.45,109.08,18.16,19.92,38.95,30.46,55.65,28.16,9.64-1.32,17.23-7,21.93-16.3,13.53-26.87-.13-75.81-30.45-109.08C383.6,188.18,364.89,177.83,349.08,177.83Z" transform="translate(-13.41 -11.24)"/><path class="cls-3" d="M320.55,193.47l56,61.4s0,0,.05,0l25.2-50.06a.08.08,0,0,0,0-.08c-30.92-33.91-67.26-39-81.21-11.35C320.52,193.4,320.53,193.44,320.55,193.47Z" transform="translate(-13.41 -11.24)"/><path class="cls-2" d="M375.6,257.26l-.81-.92-56.9-62.59.62-1.37c5.41-10.72,14.18-17.19,25.35-18.72,18.15-2.49,40.41,8.57,59.55,29.55l1,1.15-.67,1.47L378,257Zm-52.35-64.18L376,251l23.06-45.82c-17.83-19.13-38.18-29.26-54.59-27C335.3,179.39,328,184.55,323.25,193.08Z" transform="translate(-13.41 -11.24)"/><path class="cls-3" d="M429.13,248.48s0,0,0-.06a147,147,0,0,0-27.21-43.48l-1.42,2.82L376.75,255s0,.1.06.1Z" transform="translate(-13.41 -11.24)"/><path class="cls-2" d="M375.77,257.46l-1.62-2.19.56-1.28,26.68-53,2.21,2.42a149.59,149.59,0,0,1,27.64,44.15l.41,1-1.16,2-1.11.11Zm26.68-48.53-21.84,43.38,45.34-5.7A145.41,145.41,0,0,0,402.45,208.93Z" transform="translate(-13.41 -11.24)"/><path class="cls-3" d="M436.09,272.63A128.48,128.48,0,0,0,429,248.38a.07.07,0,0,0-.06,0l-52.12,6.55s0,.1,0,.11l59.24,17.69S436.09,272.67,436.09,272.63Z" transform="translate(-13.41 -11.24)"/><path class="cls-2" d="M436.7,275.2l-1.27-.35-61-18.22.23-3.74,1.84-.25,53.83-6.77.72,1.63a130.73,130.73,0,0,1,7.26,24.68l.27,1.22Zm-49.24-19.39,45.68,13.64a127.75,127.75,0,0,0-5.66-18.67Z" transform="translate(-13.41 -11.24)"/><path class="cls-3" d="M600.29,313.11,471.63,238.83c-4.82-2.78-8.72-.52-8.72,5v49.8c0,5.56,3.9,12.32,8.72,15.11l128.66,74.28c4.82,2.78,8.72.52,8.72-5v-49.8C609,322.66,605.11,315.9,600.29,313.11Z" transform="translate(-13.41 -11.24)"/><path class="cls-2" d="M604.19,386.51a10.14,10.14,0,0,1-5-1.5L470.5,310.73c-5.52-3.19-9.85-10.68-9.85-17.06v-49.8c0-3.53,1.31-6.23,3.69-7.6s5.36-1.16,8.42.61l128.66,74.28c5.53,3.19,9.86,10.68,9.86,17.06V378c0,3.53-1.31,6.23-3.69,7.6A6.67,6.67,0,0,1,604.19,386.51ZM467.74,239.9a2.25,2.25,0,0,0-1.15.28c-.9.52-1.42,1.86-1.42,3.69v49.8c0,4.75,3.48,10.77,7.59,13.15L601.42,381.1c1.57.91,3,1.14,3.91.61s1.43-1.87,1.43-3.69v-49.8c0-4.75-3.48-10.77-7.6-13.15L470.5,240.79A5.74,5.74,0,0,0,467.74,239.9Z" transform="translate(-13.41 -11.24)"/><path class="cls-3" d="M494.53,336.41l-22.9-13.22c-4.82-2.79-8.72-.53-8.72,5v37.46c0,5.56,3.9,12.32,8.72,15.1L494.53,394c4.82,2.78,8.72.52,8.72-5V351.51C503.25,346,499.35,339.19,494.53,336.41Z" transform="translate(-13.41 -11.24)"/><path class="cls-2" d="M498.43,397.46a10.14,10.14,0,0,1-5-1.5l-22.9-13.22c-5.52-3.19-9.85-10.69-9.85-17.06V328.22c0-3.53,1.31-6.23,3.69-7.6s5.36-1.15,8.42.61l22.9,13.22c5.52,3.19,9.85,10.69,9.85,17.06V389c0,3.53-1.31,6.23-3.69,7.6A6.73,6.73,0,0,1,498.43,397.46Zm-30.69-73.21a2.25,2.25,0,0,0-1.15.28c-.9.52-1.42,1.87-1.42,3.69v37.46c0,4.75,3.48,10.77,7.59,13.15l22.9,13.22c1.57.91,3,1.13,3.91.61S501,390.79,501,389V351.51c0-4.75-3.47-10.77-7.59-13.15l-22.9-13.22A5.74,5.74,0,0,0,467.74,324.25Z" transform="translate(-13.41 -11.24)"/><path class="cls-3" d="M283,129.93l-3.91-2.26c-4.81-2.78-8.72-.53-8.72,5v121.8c0,5.57,3.91,12.33,8.72,15.11l3.91,2.26c4.82,2.78,8.73.53,8.73-5V145C291.73,139.47,287.82,132.71,283,129.93Z" transform="translate(-13.41 -11.24)"/><path class="cls-2" d="M286.9,275.34a10.1,10.1,0,0,1-5-1.5L278,271.58c-5.52-3.19-9.85-10.69-9.85-17.07V132.71c0-3.53,1.31-6.23,3.69-7.61s5.37-1.15,8.42.62l3.91,2.25c5.53,3.19,9.85,10.69,9.85,17.07V266.85c0,3.53-1.3,6.23-3.68,7.6A6.77,6.77,0,0,1,286.9,275.34Zm-11.7-146.6a2.28,2.28,0,0,0-1.15.28c-.9.52-1.42,1.86-1.42,3.69v121.8c0,4.76,3.48,10.78,7.59,13.16l3.91,2.26c1.58.91,3,1.13,3.91.61s1.43-1.87,1.43-3.69V145c0-4.75-3.48-10.78-7.59-13.16L278,129.63A5.71,5.71,0,0,0,275.2,128.74Z" transform="translate(-13.41 -11.24)"/><path class="cls-3" d="M547.41,366.94l-22.9-13.22c-4.81-2.78-8.72-.53-8.72,5v37.46c0,5.56,3.91,12.32,8.72,15.11l22.9,13.22c4.82,2.78,8.72.52,8.72-5V382C556.13,376.48,552.23,369.72,547.41,366.94Z" transform="translate(-13.41 -11.24)"/><path class="cls-2" d="M551.31,428a10.14,10.14,0,0,1-5-1.5l-22.9-13.22c-5.52-3.19-9.85-10.68-9.85-17.06V358.75c0-3.53,1.31-6.23,3.68-7.6s5.37-1.15,8.43.61L548.54,365c5.52,3.19,9.85,10.69,9.85,17.06V419.5c0,3.53-1.31,6.23-3.68,7.6A6.67,6.67,0,0,1,551.31,428Zm-30.69-73.21a2.36,2.36,0,0,0-1.15.28c-.9.53-1.42,1.87-1.42,3.69v37.46c0,4.75,3.48,10.77,7.59,13.15l22.9,13.22c1.58.91,3,1.13,3.91.61s1.42-1.87,1.42-3.69V382c0-4.75-3.47-10.77-7.59-13.15l-22.9-13.22A5.82,5.82,0,0,0,520.62,354.78Z" transform="translate(-13.41 -11.24)"/><path class="cls-3" d="M600.29,397.47l-22.9-13.22c-4.81-2.78-8.72-.53-8.72,5v37.46c0,5.56,3.91,12.33,8.72,15.11l22.9,13.22c4.82,2.78,8.72.52,8.72-5V412.58C609,407,605.11,400.25,600.29,397.47Z" transform="translate(-13.41 -11.24)"/><path class="cls-2" d="M604.19,458.52a10.14,10.14,0,0,1-5-1.5l-22.9-13.22c-5.52-3.19-9.85-10.68-9.85-17.06V389.28c0-3.53,1.31-6.23,3.69-7.6s5.36-1.15,8.42.61l22.9,13.22c5.53,3.19,9.86,10.69,9.86,17.07V450c0,3.53-1.31,6.23-3.69,7.6A6.67,6.67,0,0,1,604.19,458.52ZM573.5,385.31a2.32,2.32,0,0,0-1.14.28c-.91.53-1.43,1.87-1.43,3.69v37.46c0,4.75,3.48,10.77,7.59,13.15l22.9,13.22c1.58.91,3,1.13,3.91.61s1.43-1.87,1.43-3.69V412.58c0-4.76-3.48-10.78-7.6-13.16l-22.9-13.22A5.82,5.82,0,0,0,573.5,385.31Z" transform="translate(-13.41 -11.24)"/><rect class="cls-2" x="437.43" y="193.46" width="4.52" height="391.03" transform="translate(-130.43 564.04) rotate(-60)"/><path class="cls-3" d="M669.67,306l-1-3.32a53.54,53.54,0,0,0,15.48-8.51l2.17,2.71A55.65,55.65,0,0,1,669.67,306Z" transform="translate(-13.41 -11.24)"/><rect class="cls-3" x="222.4" y="304.99" width="9.9" height="3.47" transform="translate(-141.36 155.74) rotate(-31.98)"/><path class="cls-3" d="M509.4,514.46l15.82,9.33a6.74,6.74,0,0,0,7.79-.67l5.73-4.17a3.69,3.69,0,0,0-.45-6l-15.49-9.53a6.74,6.74,0,0,0-7.9.61l-6,4.4A3.68,3.68,0,0,0,509.4,514.46Z" transform="translate(-13.41 -11.24)"/><path class="cls-1" d="M528.68,527a9.07,9.07,0,0,1-4.6-1.25l-15.83-9.34a5.93,5.93,0,0,1-.82-9.64l6.14-4.5a8.9,8.9,0,0,1,10.41-.71l15.49,9.53a5.94,5.94,0,0,1,.73,9.59L534.34,525A8.74,8.74,0,0,1,528.68,527Zm-18.13-14.47,15.82,9.33a4.48,4.48,0,0,0,5.18-.45l5.86-4.28a1.38,1.38,0,0,0,.37-1.09,1.45,1.45,0,0,0-.68-1.11l-15.49-9.52a4.47,4.47,0,0,0-5.25.4l-6.14,4.5a1.36,1.36,0,0,0-.37,1.11,1.44,1.44,0,0,0,.7,1.11Z" transform="translate(-13.41 -11.24)"/><path class="cls-3" d="M509.4,510.19l15.82,9.33a6.74,6.74,0,0,0,7.79-.67l5.73-4.17a3.69,3.69,0,0,0-.45-5.95L522.8,499.2a6.74,6.74,0,0,0-7.9.61l-6,4.4A3.68,3.68,0,0,0,509.4,510.19Z" transform="translate(-13.41 -11.24)"/><path class="cls-1" d="M528.68,522.72a9.1,9.1,0,0,1-4.6-1.25l-15.83-9.34a5.93,5.93,0,0,1-.82-9.64l6.14-4.5a8.92,8.92,0,0,1,10.41-.71l15.49,9.53a5.93,5.93,0,0,1,.73,9.58l-5.86,4.29A8.74,8.74,0,0,1,528.68,522.72Zm-9.42-22.26a4.47,4.47,0,0,0-2.9,1.07l-6.14,4.5a1.36,1.36,0,0,0-.37,1.11,1.41,1.41,0,0,0,.7,1.1l15.82,9.34a4.48,4.48,0,0,0,5.18-.45l5.86-4.28a1.38,1.38,0,0,0,.37-1.09,1.42,1.42,0,0,0-.68-1.1l-15.49-9.53A4.46,4.46,0,0,0,519.26,500.46Z" transform="translate(-13.41 -11.24)"/><path class="cls-3" d="M264.21,374.93l58.86,34a6.74,6.74,0,0,0,7.79-.67l5.73-4.18a3.67,3.67,0,0,0-.46-5.94l-58.52-34.16a6.74,6.74,0,0,0-7.9.61l-6,4.4A3.68,3.68,0,0,0,264.21,374.93Z" transform="translate(-13.41 -11.24)"/><path class="cls-1" d="M326.53,412.09a9,9,0,0,1-4.6-1.26l-58.86-34a5.94,5.94,0,0,1-.83-9.64l6.14-4.51a8.9,8.9,0,0,1,10.41-.7l58.48,34.13a5.93,5.93,0,0,1,.78,9.61l-5.86,4.29A8.74,8.74,0,0,1,326.53,412.09ZM265.36,373l58.84,33.95a4.47,4.47,0,0,0,5.2-.43l5.86-4.28a1.34,1.34,0,0,0,.36-1.09A1.4,1.4,0,0,0,335,400l-58.48-34.13a4.48,4.48,0,0,0-5.29.37L265,370.77a1.46,1.46,0,0,0,.33,2.21Z" transform="translate(-13.41 -11.24)"/><path class="cls-3" d="M264.21,370.66l58.86,34a6.74,6.74,0,0,0,7.79-.67l5.73-4.18a3.67,3.67,0,0,0-.46-5.94l-58.52-34.16a6.74,6.74,0,0,0-7.9.6l-6,4.41A3.68,3.68,0,0,0,264.21,370.66Z" transform="translate(-13.41 -11.24)"/><path class="cls-1" d="M326.53,407.82a9,9,0,0,1-4.6-1.26l-58.86-34a5.94,5.94,0,0,1-.83-9.64l6.14-4.51a8.9,8.9,0,0,1,10.41-.7l58.48,34.13a5.93,5.93,0,0,1,.78,9.61l-5.86,4.28A8.7,8.7,0,0,1,326.53,407.82Zm-61.17-39.11,58.84,34a4.51,4.51,0,0,0,5.2-.43l5.86-4.28a1.34,1.34,0,0,0,.36-1.09,1.4,1.4,0,0,0-.67-1.11l-58.48-34.13a4.48,4.48,0,0,0-5.29.37L265,366.5a1.36,1.36,0,0,0-.36,1.1A1.39,1.39,0,0,0,265.36,368.71Z" transform="translate(-13.41 -11.24)"/><path class="cls-3" d="M552.53,498.89a1.35,1.35,0,0,0-1.35,1.49l4,40.36c0,2.41,2.36,4.83,7.08,6a16.82,16.82,0,0,0,8,0c4.72-1.17,7.08-3.59,7.08-6l4-40.36a1.36,1.36,0,0,0-1.35-1.49Z" transform="translate(-13.41 -11.24)"/><path class="cls-1" d="M566.26,549.48a18.66,18.66,0,0,1-4.53-.55c-5.51-1.36-8.8-4.42-8.8-8.19l-4-40.14a3.61,3.61,0,0,1,3.6-4H580a3.61,3.61,0,0,1,3.6,4l-4,40.35c0,3.55-3.28,6.61-8.79,8A18.72,18.72,0,0,1,566.26,549.48Zm-12.74-48.34,3.91,39.37c0,1.46,1.67,3.12,5.38,4a14.59,14.59,0,0,0,6.89,0c3.71-.92,5.37-2.58,5.37-3.81l3.93-39.6Z" transform="translate(-13.41 -11.24)"/><ellipse class="cls-3" cx="552.85" cy="487.65" rx="15.23" ry="8.79"/><path class="cls-1" d="M566.26,510a24.21,24.21,0,0,1-11.9-2.89c-3.6-2.08-5.59-5-5.59-8.17s2-6.1,5.59-8.18c6.67-3.85,17.13-3.85,23.8,0h0c3.6,2.08,5.59,5,5.59,8.18s-2,6.09-5.59,8.17A24.21,24.21,0,0,1,566.26,510Zm0-17.59a19.79,19.79,0,0,0-9.64,2.26c-2.12,1.23-3.33,2.78-3.33,4.27s1.21,3,3.33,4.26c5.22,3,14.06,3,19.28,0,2.12-1.22,3.33-2.78,3.33-4.26s-1.21-3-3.33-4.27h0A19.79,19.79,0,0,0,566.26,492.36Z" transform="translate(-13.41 -11.24)"/><path class="cls-2" d="M81.45,428.15,74.91,473.3s-32-30.54-58.52-30l10.09-36.49S45.2,402.36,81.45,428.15Z" transform="translate(-13.41 -11.24)"/><path class="cls-1" d="M76.52,478l-3.16-3C73,474.64,41.61,445,16.44,445.56l-3,.06,11.25-40.7,1.3-.31c.81-.19,20.15-4.38,56.8,21.7l1.12.8ZM19.35,441.1C41,442.37,64.8,461.38,73.29,468.79L79,429.2c-28.88-20.26-46.15-20.69-50.76-20.35Z" transform="translate(-13.41 -11.24)"/><path class="cls-3" d="M212.19,568.22,211.08,564a9.53,9.53,0,0,0-1.74-3.45l-21.36-20a7.66,7.66,0,0,0-2.06-1.85l-11-6.38a3,3,0,0,0-2.63-.39l-6.51,2.71-5.42,9.61,2.1,8.18,33.27,29.71,14.14-8.82a4.82,4.82,0,0,0,2.45-4.51A3.82,3.82,0,0,0,212.19,568.22Z" transform="translate(-13.41 -11.24)"/><path class="cls-1" d="M195.47,584.93l-35-31.3-2.51-9.72,6.26-11.07,7.22-3a5.19,5.19,0,0,1,4.63.52l11,6.39a9.62,9.62,0,0,1,2.7,2.4l21.14,19.73a12.13,12.13,0,0,1,2.38,4.53l1.11,4.25a5.59,5.59,0,0,1,.16.91,7,7,0,0,1-3.54,6.69Zm-31-33.75L196,579.3l12.7-7.92a2.6,2.6,0,0,0,1.4-2.36l-1.15-4.49a7.39,7.39,0,0,0-1.33-2.62l-21.14-19.74a6.54,6.54,0,0,0-1.64-1.53l-11-6.39a1.34,1.34,0,0,0-.68-.24l-5.75,2.4-4.59,8.14Z" transform="translate(-13.41 -11.24)"/><path class="cls-2" d="M188,540.53a7.66,7.66,0,0,0-2.06-1.85l-11-6.38a3,3,0,0,0-2.63-.39l-6.51,2.71-15.44,9.6a.26.26,0,0,0,0,.44l12.12,7.75,15.25,12.29h0c3.52-2,10.09,8.06,10.68,7.85a14.76,14.76,0,0,0,2.56-.89L208.45,561a.92.92,0,0,0,.25-1.35Z" transform="translate(-13.41 -11.24)"/><path class="cls-1" d="M188.3,574.85c-1.12,0-2-1-3.29-2.54-4-4.71-5.66-5.64-6.29-5.61l-1.28.72-1.1-.92L161,554.16l-13-8.26-.13-1.46a2.51,2.51,0,0,1,1.17-2.13l15.78-9.77,6.51-2.72a5.19,5.19,0,0,1,4.63.52l11,6.39a9.65,9.65,0,0,1,2.58,2.25l20.84,19.31a3.23,3.23,0,0,1,.63,2.55,3.18,3.18,0,0,1-1.5,2.15l-17.47,10.6a14.16,14.16,0,0,1-3,1.11A2.38,2.38,0,0,1,188.3,574.85Zm-9.54-12.71c3.49,0,7.13,4.25,9.68,7.23l.55.65a4.75,4.75,0,0,0,.89-.35L205.75,560,186.2,541.92a5.33,5.33,0,0,0-1.41-1.28l-11-6.39a1.34,1.34,0,0,0-.68-.24l-6.29,2.62-12.6,7.83,9.46,6,14.51,11.68A3.81,3.81,0,0,1,178.76,562.14Z" transform="translate(-13.41 -11.24)"/><path class="cls-1" d="M148.57,547.15v4.63a8.89,8.89,0,0,0,4,7l40,23.29c2.79,1.61,4.73-.45,3.8-4l-1.11-4.25a9.45,9.45,0,0,0-1.74-3.45l-21.37-20a7.33,7.33,0,0,0-2.06-1.84l-11-6.39a3,3,0,0,0-2.63-.39L150,544.44A2.71,2.71,0,0,0,148.57,547.15Z" transform="translate(-13.41 -11.24)"/><path class="cls-1" d="M194.42,584.86a5.89,5.89,0,0,1-2.95-.85l-40-23.3a11.08,11.08,0,0,1-5.15-8.93v-4.62a4.9,4.9,0,0,1,2.79-4.81l6.51-2.71a5.15,5.15,0,0,1,4.63.52l11,6.38a9.62,9.62,0,0,1,2.7,2.4l21.14,19.74a11.94,11.94,0,0,1,2.39,4.53l1.1,4.25c.73,2.79.15,5.23-1.56,6.54A4.25,4.25,0,0,1,194.42,584.86ZM150.88,546.5s0,.22,0,.66v4.62a6.74,6.74,0,0,0,2.9,5l40,23.29a1.84,1.84,0,0,0,.67.25,9.28,9.28,0,0,0-.19-1.75l-1.11-4.25a7.31,7.31,0,0,0-1.33-2.62L170.64,552a6.46,6.46,0,0,0-1.65-1.54l-11-6.39a1.36,1.36,0,0,0-.68-.24Z" transform="translate(-13.41 -11.24)"/><path class="cls-3" d="M173.21,546.65c8.07.27,14.84-2.84,15.12-6.95a4.22,4.22,0,0,0-.76-2.57c-2.24-4.92-8.07-6.6-8.07-6.6A23.25,23.25,0,0,0,168,530.4a12.29,12.29,0,0,0-8.38,6.62l-.19.4a.59.59,0,0,1,0,.08s0,0,0,0a3.76,3.76,0,0,0-.31,1.17C158.83,542.82,165.14,546.37,173.21,546.65Z" transform="translate(-13.41 -11.24)"/><path class="cls-1" d="M174.24,548.92c-.36,0-.73,0-1.11,0h0c-6.11-.2-11.6-2.21-14.34-5.24a6.87,6.87,0,0,1-1.94-5.1,6.08,6.08,0,0,1,.13-.8l-.15-.27.6-1.07a4.47,4.47,0,0,1,.23-.48,14.61,14.61,0,0,1,9.88-7.75,25.55,25.55,0,0,1,12.68.2c.18.05,6.76,2,9.4,7.8a6,6,0,0,1,1,3.66C190.22,545.12,183.28,548.92,174.24,548.92Zm-1-4.53c7.56.26,12.64-2.7,12.79-4.84a2.1,2.1,0,0,0-.42-1.21c-1.91-4.14-6.74-5.62-6.79-5.63a21.26,21.26,0,0,0-10.36-.11,10,10,0,0,0-6.84,5.43l-.11.22a4.42,4.42,0,0,0-.2.61,2.49,2.49,0,0,0,.78,1.77c1.92,2.12,6.29,3.6,11.15,3.76Z" transform="translate(-13.41 -11.24)"/><path class="cls-3" d="M173.51,538.58c-5-.17-8.87-2.36-8.7-4.89s4.35-4.45,9.32-4.28,8.86,2.36,8.69,4.89S178.48,538.75,173.51,538.58Z" transform="translate(-13.41 -11.24)"/><path class="cls-1" d="M174.13,540.85h-.7c-4.06-.14-7.59-1.46-9.46-3.52a5.1,5.1,0,0,1-1.41-3.78c.26-3.86,5.24-6.64,11.65-6.38,4,.13,7.58,1.45,9.45,3.51a5.1,5.1,0,0,1,1.41,3.78C184.82,538.17,180.17,540.85,174.13,540.85Zm-.55-4.52c4.49.12,6.94-1.56,7-2.18a.93.93,0,0,0-.26-.45c-.85-.93-3.11-1.92-6.26-2-4.65-.12-6.94,1.56-7,2.17,0,.08.07.24.26.45.84.94,3.1,1.93,6.25,2Z" transform="translate(-13.41 -11.24)"/><path class="cls-1" d="M182.5,534.18l-17.36-.36c.94-45.27,11.46-86.87,14.08-96.56L171,395.58A109.44,109.44,0,0,0,147.87,347l13.36-11.1A126.92,126.92,0,0,1,188,392.22l9,45.74-.58,2C196.35,440.43,183.51,485.87,182.5,534.18Z" transform="translate(-13.41 -11.24)"/><path class="cls-3" d="M170.57,423.12a30.29,30.29,0,0,0,0,3.16,61.79,61.79,0,0,0,1.58,10.88A23.78,23.78,0,0,0,178.67,449c5.87,5.47,13.51,6,16.54,5.94a2,2,0,0,0,1.81-1.24c1.72-4.22,7.2-19.05,4.31-31.14-1.58-6.63-5.58-11.24-10.46-13.34-8.41-3.63-19.37,3-20.18,12.09Z" transform="translate(-13.41 -11.24)"/><path class="cls-1" d="M194.91,457.23c-3.49,0-11.52-.71-17.78-6.55a25.83,25.83,0,0,1-7.24-13,64.35,64.35,0,0,1-1.63-11.27,32.29,32.29,0,0,1,.06-3.41l.12-1.79a17.45,17.45,0,0,1,23.33-14c5.81,2.5,10.09,7.93,11.75,14.88,3,12.71-2.61,28.11-4.41,32.53a4.23,4.23,0,0,1-3.87,2.63Zm-9.07-46.73a13.23,13.23,0,0,0-6.72,1.93,12.19,12.19,0,0,0-6.18,9.11l-.12,1.73a28.26,28.26,0,0,0,0,2.91,59.48,59.48,0,0,0,1.53,10.49,21.54,21.54,0,0,0,5.91,10.71c5.27,4.92,12.28,5.4,15,5.33,1.42-3.93,6.68-18.2,3.95-29.6-1.33-5.55-4.66-9.85-9.15-11.79A10.48,10.48,0,0,0,185.84,410.5Z" transform="translate(-13.41 -11.24)"/><path class="cls-2" d="M200.5,442.87c1.47-6.1,2.43-13.6.83-20.27a21.81,21.81,0,0,0-2.5-6.18,30.25,30.25,0,0,0-12.69.84,7.6,7.6,0,0,0-5.24,7.59,52.46,52.46,0,0,0,1,8.46A13.33,13.33,0,0,0,196.69,444,12.55,12.55,0,0,0,200.5,442.87Z" transform="translate(-13.41 -11.24)"/><path class="cls-1" d="M194.92,446.39a15.79,15.79,0,0,1-15.22-12.63,54.18,54.18,0,0,1-1-8.84,9.87,9.87,0,0,1,6.82-9.82,32,32,0,0,1,14-.85l.85.25.46.76a24.79,24.79,0,0,1,2.76,6.81c1.42,5.95,1.14,13.13-.83,21.33l-.25,1-.95.47a15.15,15.15,0,0,1-4.48,1.34A14.83,14.83,0,0,1,194.92,446.39Zm-.49-28a26.5,26.5,0,0,0-7.63,1.06,5.37,5.37,0,0,0-3.64,5.37,50.69,50.69,0,0,0,1,8.09,11.12,11.12,0,0,0,12.24,8.9,11.81,11.81,0,0,0,2.2-.53c1.57-7,1.76-13.13.57-18.12a20.64,20.64,0,0,0-1.73-4.62A29,29,0,0,0,194.43,418.35Z" transform="translate(-13.41 -11.24)"/><path class="cls-1" d="M200.73,264.28l-4.85-38.41a70.34,70.34,0,0,0-21.95-42.73l11.81-12.74a87.78,87.78,0,0,1,27.38,53.29L218,262.11Z" transform="translate(-13.41 -11.24)"/><path class="cls-1" d="M162.17,344.32c1.3-4.68.24-9.23-2.35-11.56l-.08-.14a42.55,42.55,0,0,0-9.7-8.18l-6.81,6.32-3.41,21.49a1.08,1.08,0,0,0,.94,1.22,40.27,40.27,0,0,0,12.79-.34l.6-.14C157.79,352.65,160.79,349.28,162.17,344.32Z" transform="translate(-13.41 -11.24)"/><path class="cls-1" d="M146.35,356.05a53.22,53.22,0,0,1-5.84-.33,3.34,3.34,0,0,1-2.92-3.83l3.53-22.25,8.62-8,1.45.87a44.43,44.43,0,0,1,10.3,8.69l.09.12c3.15,3,4.23,8.34,2.76,13.61h0c-1.67,6-5.41,9.88-10,10.31l-.31.09A34.69,34.69,0,0,1,146.35,356.05Zm-4.1-4.7a37.73,37.73,0,0,0,10.76-.41l.63-.15c2.9-.29,5.21-3,6.36-7.08,1-3.65.32-7.46-1.69-9.28L158,334a37.24,37.24,0,0,0-7.67-6.75l-4.95,4.6Z" transform="translate(-13.41 -11.24)"/><path class="cls-3" d="M154.55,341.42c-2.29,8.24-9,13.57-14.9,11.92s-8.89-9.67-6.6-17.9,9-13.56,14.9-11.91S156.84,333.19,154.55,341.42Z" transform="translate(-13.41 -11.24)"/><path class="cls-1" d="M141.81,355.89a10,10,0,0,1-2.76-.38c-7.13-2-10.79-11.25-8.17-20.67A21.05,21.05,0,0,1,137.72,324c3.4-2.71,7.25-3.66,10.83-2.66,7.13,2,10.79,11.26,8.17,20.68h0C154.44,350.24,148.12,355.89,141.81,355.89Zm3.93-30.4a8.45,8.45,0,0,0-5.2,2.05,16.57,16.57,0,0,0-5.31,8.51c-1.92,6.9.38,13.82,5,15.11s10.2-3.44,12.12-10.34-.38-13.82-5-15.12A6.16,6.16,0,0,0,145.74,325.49Z" transform="translate(-13.41 -11.24)"/><path class="cls-1" d="M140,299.72c.07-.86-52.42,31-52.42,31a1.12,1.12,0,0,0-.11.51c.09,2,.78,14.8,5.47,23.18h0s7.44,16.28,28.74,19a1.39,1.39,0,0,0,1.54-1.64L119.86,354a1.34,1.34,0,0,1,.37-1.2C136,336.68,139.4,307.44,140,299.72Z" transform="translate(-13.41 -11.24)"/><path class="cls-1" d="M121.87,375.76a3.55,3.55,0,0,1-.46,0c-22.16-2.87-30.09-19.44-30.5-20.33-4.82-8.74-5.57-21.56-5.67-24a3.28,3.28,0,0,1,.32-1.57l.29-.61.58-.35c52.91-32.15,53.15-32,54.77-31l1.18.73-.11,1.39c-.69,8.54-4.18,37.55-20.11,54.12l3.3,17.39a3.66,3.66,0,0,1-3.59,4.34ZM95.22,353.92c1.27,2.45,8.34,14.44,25.58,17.17l-3.16-16.69a3.63,3.63,0,0,1,1-3.2c13.2-13.44,17.44-36.44,18.75-47.57C128.78,308.5,106,322.2,89.8,332.06c.2,3.33,1.15,14.16,5.13,21.27Z" transform="translate(-13.41 -11.24)"/><path class="cls-2" d="M107.08,342.7a1.12,1.12,0,0,0-.11.51c.15,3.49,2.19,40.58,24.59,27.86,22.87-13,27.22-50.5,27.94-59.4a1.14,1.14,0,0,0-1.62-1.11l-45.12,20.68a1.09,1.09,0,0,0-.55.55Z" transform="translate(-13.41 -11.24)"/><path class="cls-1" d="M123,376a12.32,12.32,0,0,1-6.06-1.56c-10.67-5.92-12.06-27-12.23-31.12a3.36,3.36,0,0,1,.32-1.56h0l5.13-10.91a3.35,3.35,0,0,1,1.65-1.65L157,308.51a3.42,3.42,0,0,1,3.37.3,3.35,3.35,0,0,1,1.43,3.05c-.88,11-5.6,47.84-29.08,61.18A19.83,19.83,0,0,1,123,376Zm-13.77-32.57c.39,8.35,2.88,23.16,9.9,27.06,3,1.69,6.72,1.24,11.3-1.36,20.59-11.7,25.57-45.17,26.63-55.69l-43,19.7Z" transform="translate(-13.41 -11.24)"/><path class="cls-3" d="M89.72,335.05,101,341.58a10.51,10.51,0,0,0,10.66-.08l45.83-27.38a4.46,4.46,0,0,0,0-7.65l-10.62-6.38a10.53,10.53,0,0,0-10.76-.06L89.69,327.35A4.46,4.46,0,0,0,89.72,335.05Z" transform="translate(-13.41 -11.24)"/><path class="cls-1" d="M106.29,345.25a12.69,12.69,0,0,1-6.39-1.72L88.59,337a6.71,6.71,0,0,1,0-11.6L135,298.08a12.77,12.77,0,0,1,13.06.07l10.62,6.39a6.72,6.72,0,0,1,0,11.52l-45.84,27.38A12.79,12.79,0,0,1,106.29,345.25Zm35.2-44.41a8.24,8.24,0,0,0-4.18,1.14L90.83,329.3a2.19,2.19,0,0,0,0,3.79l11.31,6.53a8.25,8.25,0,0,0,8.37-.06l45.84-27.38a2.2,2.2,0,0,0,1.07-1.89,2.15,2.15,0,0,0-1.07-1.88L145.76,302A8.29,8.29,0,0,0,141.49,300.84Z" transform="translate(-13.41 -11.24)"/><path class="cls-1" d="M127.06,364.13h-4.52V351.55a16.42,16.42,0,0,1,7.86-14.07A7.67,7.67,0,0,1,142.1,344v11.11h-4.52V344a3.1,3.1,0,0,0-1.61-2.75,3.14,3.14,0,0,0-3.2.07,12,12,0,0,0-5.71,10.23Z" transform="translate(-13.41 -11.24)"/><path class="cls-1" d="M113.47,330.16h0a6,6,0,0,1-6-6v-18a6,6,0,0,1,6-6h0a6,6,0,0,1,6,6v18A6,6,0,0,1,113.47,330.16Z" transform="translate(-13.41 -11.24)"/><path class="cls-1" d="M133.71,318.82h0a6,6,0,0,1-6-6v-18a6,6,0,0,1,6-6h0a6,6,0,0,1,6,6v18A6,6,0,0,1,133.71,318.82Z" transform="translate(-13.41 -11.24)"/><path class="cls-3" d="M192.08,173c-3.15-6.25-8.69-10.07-13.71-10.05-.07,0-.14-.05-.22-.06-8.65-1.29-18.26.68-18.26.68l-1.13,13.33L176,203.12a1.54,1.54,0,0,0,2.18.39c9.21-6.67,13.3-12.74,13.3-12.74l.51-.74C195.49,186.13,195.41,179.64,192.08,173Z" transform="translate(-13.41 -11.24)"/><path class="cls-1" d="M177.23,206.06a3.79,3.79,0,0,1-3.17-1.7l-17.62-26.85,1.34-15.8,1.66-.33c.41-.09,10.12-2,19.05-.7l.22,0c6,.13,12,4.53,15.38,11.28h0c3.85,7.67,3.67,15-.49,19.55l-.32.5c-.16.24-4.41,6.46-13.83,13.29A3.8,3.8,0,0,1,177.23,206.06Zm-16.16-29.73,16.34,24.91c8.31-6.15,12.11-11.68,12.15-11.74l.52-.75c3-3.33,2.92-8.87,0-14.72-2.65-5.27-7.33-8.8-11.64-8.8h-.25l-.6-.14a56.34,56.34,0,0,0-15.58.42Z" transform="translate(-13.41 -11.24)"/><path class="cls-3" d="M181.15,177.32c5.53,11,3.6,23.14-4.33,27.13s-18.84-1.69-24.37-12.68-3.6-23.14,4.33-27.13S175.62,166.33,181.15,177.32Z" transform="translate(-13.41 -11.24)"/><path class="cls-1" d="M171.39,208c-7.77,0-16.23-5.79-21-15.18-6.08-12.08-3.69-25.61,5.34-30.16s21.32,1.6,27.4,13.68h0c6.08,12.09,3.69,25.62-5.33,30.16A14.18,14.18,0,0,1,171.39,208Zm-9.07-42.35a10,10,0,0,0-4.53,1c-6.79,3.42-8.29,14.23-3.32,24.09s14.54,15.1,21.34,11.68,8.29-14.24,3.32-24.1h0C175.2,170.52,168.37,165.61,162.32,165.61Z" transform="translate(-13.41 -11.24)"/><path class="cls-1" d="M83.82,214.62s-6,10.34,1.44,24.3c5.17,9.7,3.16,28.38,1.45,38.87a189.12,189.12,0,0,0-2.14,19.57l-.46,7.75a2.7,2.7,0,0,0,1.42,2.54l23.28,12.61a.49.49,0,0,0,.62-.11c4.08-4.9,54.95-66.1,56.15-67.59s-12.22-44.34-11.7-45.89-40.71-16.75-40.71-16.75l-12.4,2.18-10.28,8.45Z" transform="translate(-13.41 -11.24)"/><path class="cls-1" d="M109.05,322.58a2.68,2.68,0,0,1-1.32-.34L84.45,309.63A5,5,0,0,1,81.86,305l.45-7.75a195.91,195.91,0,0,1,2.17-19.8c1.64-10.06,3.67-28.31-1.21-37.45-7.65-14.33-2.12-25.19-1.46-26.4l6.85-14.45L99.79,190l13.59-2.37.57.21c40.86,15.05,42.83,16.92,42.2,19.18.3,1.9,2.65,10.16,4.73,17.47,7.89,27.72,7.59,28.1,6.46,29.51-1.28,1.59-55.62,67-56.17,67.62A2.76,2.76,0,0,1,109.05,322.58ZM85.78,215.74c-.24.42-5.23,9.56,1.47,22.12,5.23,9.79,3.8,27.32,1.68,40.3a189.84,189.84,0,0,0-2.11,19.33l-.45,7.75a.48.48,0,0,0,.23.43l22,11.92c7.82-9.41,49.87-60,54.74-65.9-.36-3.23-4.23-16.83-6.83-26-3.31-11.6-4.5-16-4.83-17.95-4-2.28-24.34-10.18-38.75-15.5l-11.22,2L92.31,202Z" transform="translate(-13.41 -11.24)"/><path class="cls-2" d="M79.66,214a2.2,2.2,0,0,0,4.16.58c1.47-3.32,4.85-7.53,12.51-7.53,12.66,0,31.4,21.37,19.33,53.84-10.94,29.45-7.37,54.43-6.61,58.84a.49.49,0,0,0,.75.33l47.83-28a35,35,0,0,0,15.26-18.28,268.57,268.57,0,0,0,9-30.55c6.21-27,2.84-54.73-4.84-67.6-6.85-11.47-26.45-21-26.45-21s-42,13.32-60.82,36.49C80,203.23,79.09,210.16,79.66,214Z" transform="translate(-13.41 -11.24)"/><path class="cls-1" d="M109.52,322.43a2.84,2.84,0,0,1-1.17-.26,2.74,2.74,0,0,1-1.53-2c-.82-4.76-4.38-30.09,6.73-60,8.18-22,.9-36.13-2.6-41.18-4.07-5.84-9.81-9.62-14.62-9.62-5.11,0-8.62,2.08-10.45,6.18a4.45,4.45,0,0,1-8.45-1.16h0c-1-6.59,2.49-14.64,10.6-24.61,19-23.43,60.14-36.67,61.88-37.22l.86-.27.81.39c.82.4,20.3,9.93,27.41,21.84,7.54,12.65,11.72,40.5,5.11,69.27A273.55,273.55,0,0,1,175,274.58,37.15,37.15,0,0,1,158.77,294l-47.83,28A2.88,2.88,0,0,1,109.52,322.43ZM96.33,204.83c6.34,0,13.36,4.43,18.32,11.57,8.27,11.89,9.41,28.41,3.13,45.32a119.4,119.4,0,0,0-6.89,55.12l45.6-26.7a32.82,32.82,0,0,0,14.28-17.09,269,269,0,0,0,8.92-30.29c6.29-27.31,2.33-54.36-4.58-65.94-5.65-9.48-21-17.79-24.69-19.69-6,2.05-42.17,14.91-58.89,35.48-7.16,8.81-10.4,15.91-9.64,21.1l-2.23.33,2.24-.33C83.23,210.39,87.08,204.83,96.33,204.83Z" transform="translate(-13.41 -11.24)"/><path class="cls-3" d="M174.57,213c-17,14.19-37.21,22.47-41.45,24.12a1.11,1.11,0,0,0-.72,1.15c.2,2.71.5,11.48-3.24,19.06a.36.36,0,0,0,.43.52c4.38-1.71,24.49-10,41.38-24.1l.18-.51A61.72,61.72,0,0,0,174.57,213Z" transform="translate(-13.41 -11.24)"/><path class="cls-1" d="M129.45,260.14a2.57,2.57,0,0,1-1.9-.84,2.63,2.63,0,0,1-.42-2.95c3.51-7.12,3.2-15.5,3-17.9A3.35,3.35,0,0,1,132.3,235c3.88-1.51,24-9.73,40.82-23.76l3.71-3.1V213a63.85,63.85,0,0,1-3.55,21l-.38,1.1-.48.4c-17.25,14.43-38,22.92-42,24.47A2.64,2.64,0,0,1,129.45,260.14Zm5.25-21.21A43.49,43.49,0,0,1,132.91,254c7.59-3.29,22.88-10.66,36.14-21.61a59.29,59.29,0,0,0,3.06-14.57A168.12,168.12,0,0,1,134.7,238.93Z" transform="translate(-13.41 -11.24)"/><path class="cls-3" d="M157.82,280.78c6.65-12,10.34-29.12,10.7-30.86a.06.06,0,0,0-.1,0c-16.69,11.74-31.49,18.24-37.08,20a5.34,5.34,0,0,0-3.48,3.53,103.08,103.08,0,0,0-4.23,26.18,1.26,1.26,0,0,0,1.94,1.1Z" transform="translate(-13.41 -11.24)"/><path class="cls-1" d="M124.89,303.1a3.49,3.49,0,0,1-3.51-3.61,105.25,105.25,0,0,1,4.33-26.81,7.65,7.65,0,0,1,5-5c6.12-1.89,20.87-8.69,36.45-19.66l1.25-.88,2.69,1.7-.34,1.59c-.39,1.87-4.11,19.1-10.92,31.44l-.29.52-32.76,20.18A3.46,3.46,0,0,1,124.89,303.1ZM165,254.92C149.77,265,137,270.45,132,272a3.11,3.11,0,0,0-2,2.05,99.57,99.57,0,0,0-4,23.7l30.16-18.58C160.44,271.16,163.43,261.09,165,254.92Z" transform="translate(-13.41 -11.24)"/><path class="cls-1" d="M131.3,228.64l-1.53-4.25c.24-.08,24-8.73,41.45-24.36l3,3.36C156.11,219.62,132.3,228.28,131.3,228.64Z" transform="translate(-13.41 -11.24)"/><path class="cls-1" d="M87.49,289.13s10.57,5.77,17.31,7.51Z" transform="translate(-13.41 -11.24)"/><path class="cls-3" d="M104.24,298.82c-6.94-1.78-17.39-7.47-17.83-7.71l2.16-4c.11.05,10.4,5.66,16.79,7.3Z" transform="translate(-13.41 -11.24)"/><path class="cls-3" d="M105.66,221.15c-5.53-11-16.45-16.67-24.37-12.67A12.09,12.09,0,0,0,77,212.22a23.61,23.61,0,0,0-6.33,17.7s.54,8,8.34,15.36c6,5.6,14.82,4.78,18.73,4.08.3,0,.59-.1.89-.17l.18,0s0,0,.06,0a11.91,11.91,0,0,0,2.44-.83C109.25,244.29,111.19,232.15,105.66,221.15Z" transform="translate(-13.41 -11.24)"/><path class="cls-1" d="M92.32,252.11c-4.58,0-10.4-1-14.84-5.19-8.35-7.86-9-16.49-9-16.85a25.79,25.79,0,0,1,6.93-19.39,14,14,0,0,1,4.91-4.22c4.51-2.27,9.88-2,15.14.73a29.34,29.34,0,0,1,12.27,12.95h0a29.32,29.32,0,0,1,3.1,17.56c-.93,5.86-3.93,10.33-8.43,12.6a12.13,12.13,0,0,1-2.18.81l-.08.09-.84.18c-.43.09-.78.16-1.15.21A32.94,32.94,0,0,1,92.32,252.11ZM86.8,209.45a10,10,0,0,0-4.5,1,9.73,9.73,0,0,0-3.46,3.07,21.6,21.6,0,0,0-5.91,16.07c0,.19.65,7.42,7.65,14,5.25,5,13.48,4.1,16.77,3.51.28,0,.49-.08.71-.13l.06,0a10.78,10.78,0,0,0,2.19-.72c3.17-1.59,5.3-4.89,6-9.27a24.79,24.79,0,0,0-2.67-14.82h0a24.79,24.79,0,0,0-10.31-11A14.25,14.25,0,0,0,86.8,209.45Z" transform="translate(-13.41 -11.24)"/><path class="cls-3" d="M90.29,229.32c3.41,6.77,2.22,14.26-2.67,16.72s-11.61-1-15-7.82S70.39,224,75.27,221.51,86.88,222.55,90.29,229.32Z" transform="translate(-13.41 -11.24)"/><path class="cls-1" d="M84.23,249.09a12.44,12.44,0,0,1-5.71-1.49,18.93,18.93,0,0,1-7.93-8.36c-4-7.87-2.32-16.73,3.67-19.75a10.92,10.92,0,0,1,10.12.46,18.93,18.93,0,0,1,7.93,8.36h0c4,7.87,2.31,16.73-3.67,19.74A9.67,9.67,0,0,1,84.23,249.09ZM78.67,223a5.18,5.18,0,0,0-2.38.55c-3.7,1.86-4.47,8.12-1.67,13.68a14.4,14.4,0,0,0,6,6.38,6.54,6.54,0,0,0,6,.43c3.69-1.86,4.46-8.13,1.66-13.68h0a14.35,14.35,0,0,0-6-6.38A7.92,7.92,0,0,0,78.67,223Z" transform="translate(-13.41 -11.24)"/><path class="cls-3" d="M108.12,356.31c-5.75-5.49-13.62-6.58-17.58-2.43a7.81,7.81,0,0,0-1.79,3.2,15.28,15.28,0,0,0,0,12.15,16.46,16.46,0,0,0,8.41,7.54c4.84,2.12,10.06-.3,12.28-1.58.18-.09.35-.19.51-.29l.1-.06s0,0,0,0a7.51,7.51,0,0,0,1.31-1C115.33,369.61,113.88,361.8,108.12,356.31Z" transform="translate(-13.41 -11.24)"/><path class="cls-1" d="M101.31,379.88a12.61,12.61,0,0,1-5.07-1,18.79,18.79,0,0,1-9.57-8.71,17.43,17.43,0,0,1,0-13.93,9.59,9.59,0,0,1,2.22-3.88c2.43-2.55,6-3.65,10.06-3.08a19.72,19.72,0,0,1,10.72,5.43h0c6.65,6.34,8.14,15.6,3.33,20.65a8.46,8.46,0,0,1-1,.9l0,.07-.71.46-.73.43A19.25,19.25,0,0,1,101.31,379.88ZM97,353.62a6.41,6.41,0,0,0-4.78,1.82,5.49,5.49,0,0,0-1.26,2.29,13.24,13.24,0,0,0-.16,10.48,14.27,14.27,0,0,0,7.31,6.49c3.93,1.73,8.48-.45,10.25-1.47l.4-.24a6.43,6.43,0,0,0,1-.79c3-3.19,1.59-9.72-3.18-14.26a15.27,15.27,0,0,0-8.21-4.23A11.33,11.33,0,0,0,97,353.62Z" transform="translate(-13.41 -11.24)"/><path class="cls-3" d="M100.54,364.61c3.55,3.39,4.44,8.2,2,10.76s-7.29,1.89-10.83-1.5-4.44-8.19-2-10.75S97,361.23,100.54,364.61Z" transform="translate(-13.41 -11.24)"/><path class="cls-1" d="M98.58,379.2a12.53,12.53,0,0,1-8.43-3.69c-4.52-4.31-5.43-10.44-2.08-13.95s9.52-2.89,14,1.42h0a13.1,13.1,0,0,1,3.91,6.91,7.92,7.92,0,0,1-1.83,7A7.61,7.61,0,0,1,98.58,379.2Zm-4.92-15.39a3.11,3.11,0,0,0-2.32.87c-1.52,1.59-.62,5.13,1.93,7.56s6.12,3.16,7.64,1.57a3.56,3.56,0,0,0,.66-3.09A8.65,8.65,0,0,0,99,366.25,8.21,8.21,0,0,0,93.66,363.81Z" transform="translate(-13.41 -11.24)"/><path class="cls-3" d="M133,614.29,131.88,610a9.67,9.67,0,0,0-1.73-3.45l-21.37-20a7.66,7.66,0,0,0-2.06-1.85l-11-6.38a3,3,0,0,0-2.63-.39l-6.51,2.71-5.42,9.61,2.1,8.18,33.27,29.71,14.14-8.82a4.81,4.81,0,0,0,2.45-4.51A5.67,5.67,0,0,0,133,614.29Z" transform="translate(-13.41 -11.24)"/><path class="cls-1" d="M116.27,631l-35-31.3L78.72,590,85,578.91l7.22-3a5.19,5.19,0,0,1,4.63.52l11,6.39a9.73,9.73,0,0,1,2.7,2.4l21.14,19.73a12.13,12.13,0,0,1,2.38,4.53l1.11,4.25a5.59,5.59,0,0,1,.16.91,7.06,7.06,0,0,1-3.54,6.69Zm-31-33.75,31.49,28.13,12.7-7.92a2.62,2.62,0,0,0,1.4-2.37l0-.23-1.11-4.26a7.48,7.48,0,0,0-1.33-2.62l-21.14-19.74a6.54,6.54,0,0,0-1.64-1.53l-11-6.39a1.31,1.31,0,0,0-.68-.24l-5.75,2.4-4.59,8.14Z" transform="translate(-13.41 -11.24)"/><path class="cls-2" d="M108.78,586.6a7.66,7.66,0,0,0-2.06-1.85l-11-6.38a3,3,0,0,0-2.63-.39l-6.51,2.71-15.44,9.6a.26.26,0,0,0,0,.44l12.12,7.75L98.5,610.77h0c3.52-2,10.09,8.06,10.68,7.85a14.76,14.76,0,0,0,2.56-.89l17.49-10.62a.92.92,0,0,0,.25-1.35Z" transform="translate(-13.41 -11.24)"/><path class="cls-1" d="M109.09,620.93c-1.11,0-2-1-3.28-2.55-4-4.71-5.6-5.63-6.29-5.61L98,613.6l-1.15-1.24L81.82,600.24l-13-8.27-.12-1.47a2.49,2.49,0,0,1,1.18-2.13l15.77-9.76,6.51-2.72a5.19,5.19,0,0,1,4.63.52l11,6.39a9.65,9.65,0,0,1,2.58,2.25l20.84,19.31a3.24,3.24,0,0,1,.63,2.55,3.18,3.18,0,0,1-1.5,2.15l-17.47,10.6a13.92,13.92,0,0,1-3.07,1.12A2.23,2.23,0,0,1,109.09,620.93Zm-9.53-12.72c3.5,0,7.13,4.25,9.68,7.23l.55.65a5,5,0,0,0,.89-.35l15.87-9.63L107,588a5.33,5.33,0,0,0-1.41-1.28l-11-6.39a1.31,1.31,0,0,0-.68-.24l-6.29,2.63L75,590.53l9.46,6L99,608.25A3.9,3.9,0,0,1,99.56,608.21Z" transform="translate(-13.41 -11.24)"/><path class="cls-1" d="M69.37,593.23v4.62a8.89,8.89,0,0,0,4,7l40,23.29c2.79,1.61,4.73-.45,3.8-4l-1.11-4.25a9.45,9.45,0,0,0-1.74-3.45L93,596.41a7.33,7.33,0,0,0-2.06-1.84l-11-6.39a3,3,0,0,0-2.63-.39l-6.51,2.72A2.71,2.71,0,0,0,69.37,593.23Z" transform="translate(-13.41 -11.24)"/><path class="cls-1" d="M115.22,630.93a5.91,5.91,0,0,1-3-.85l-40-23.3a11.08,11.08,0,0,1-5.15-8.93v-4.62a4.91,4.91,0,0,1,2.79-4.81l6.51-2.71a5.18,5.18,0,0,1,4.63.51l11,6.39a9.72,9.72,0,0,1,2.69,2.4l21.14,19.74a11.94,11.94,0,0,1,2.39,4.53l1.11,4.25c.72,2.79.14,5.24-1.57,6.54A4.25,4.25,0,0,1,115.22,630.93ZM71.68,592.57s-.05.22-.05.66v4.62a6.74,6.74,0,0,0,2.9,5l40,23.29a1.84,1.84,0,0,0,.67.25,9.16,9.16,0,0,0-.19-1.74l-1.11-4.26a7.31,7.31,0,0,0-1.33-2.62L91.44,598.06a6.65,6.65,0,0,0-1.65-1.54l-11-6.38a1.33,1.33,0,0,0-.68-.25Z" transform="translate(-13.41 -11.24)"/><path class="cls-3" d="M94,592.72c8.07.27,14.84-2.84,15.12-7a4.22,4.22,0,0,0-.76-2.57c-2.24-4.92-8.07-6.6-8.07-6.6a23.22,23.22,0,0,0-11.47-.13,12.27,12.27,0,0,0-8.39,6.63c-.07.13-.13.26-.19.39a.41.41,0,0,0,0,.08s0,0,0,0a4.05,4.05,0,0,0-.31,1.17C79.63,588.89,85.94,592.44,94,592.72Z" transform="translate(-13.41 -11.24)"/><path class="cls-1" d="M95,595c-.36,0-.73,0-1.11,0h0c-6.11-.2-11.6-2.21-14.34-5.25a6.79,6.79,0,0,1-1.93-5.09,4.8,4.8,0,0,1,.12-.8l-.14-.27.59-1.07a4.58,4.58,0,0,1,.23-.47,14.62,14.62,0,0,1,9.88-7.76,25.34,25.34,0,0,1,12.68.21c.18,0,6.77,2,9.4,7.79a6,6,0,0,1,1,3.67C111,591.19,104.08,595,95,595Zm-1-4.53c7.55.26,12.64-2.69,12.78-4.84a2,2,0,0,0-.41-1.21c-1.9-4.14-6.74-5.62-6.79-5.63a21.28,21.28,0,0,0-10.36-.11,10,10,0,0,0-6.84,5.43l-.11.22c-.09.27-.19.52-.2.61a2.49,2.49,0,0,0,.78,1.77c1.92,2.12,6.29,3.6,11.15,3.76Z" transform="translate(-13.41 -11.24)"/><path class="cls-3" d="M94.31,584.65c-5-.17-8.87-2.36-8.69-4.89s4.34-4.44,9.31-4.28,8.86,2.36,8.69,4.89S99.28,584.82,94.31,584.65Z" transform="translate(-13.41 -11.24)"/><path class="cls-1" d="M94.93,586.92h-.7c-4-.14-7.59-1.45-9.45-3.52a5.07,5.07,0,0,1-1.42-3.78c.26-3.86,5.31-6.59,11.65-6.38,4,.13,7.58,1.45,9.45,3.51a5.08,5.08,0,0,1,1.41,3.78C105.62,584.24,101,586.92,94.93,586.92Zm-.63-9.19c-4.13,0-6.39,1.59-6.43,2.18a.81.81,0,0,0,.26.45c.84.94,3.1,1.93,6.25,2,4.47.13,7-1.56,7-2.18a.88.88,0,0,0-.26-.45c-.85-.93-3.11-1.92-6.25-2Z" transform="translate(-13.41 -11.24)"/><path class="cls-1" d="M245.55,294c-13.88,0-27-6-38.08-17.92l12.7-11.84c16.74,18,34.66,13,46.76,5.66a226.89,226.89,0,0,1,24.58-13.15l3.45-1.55L302.09,271l-3.44,1.56a210.65,210.65,0,0,0-22.73,12.17C265.72,290.91,255.44,294,245.55,294Z" transform="translate(-13.41 -11.24)"/><path class="cls-2" d="M334,261.7l-1.85.88c-3.25,1.56-7.8,1.56-12.7.15a.85.85,0,0,1-.47-1.25l4.38-7.14c.55-1.32-.7-3.49-3-4.75L310.15,244a4.78,4.78,0,0,0-3.83-.59L294,248.51a1.59,1.59,0,0,0-1,1.38l-5.12,8.33a.82.82,0,0,0,0,.88c.81,1.28,3.45,4.65,4.78,6.42a.83.83,0,0,0,1.4-.12l2.41-4.62a6.46,6.46,0,0,0,2.09,2.31l2.16,1.51.42.27,6.62,4.09a34.88,34.88,0,0,0,13.7,5.08.63.63,0,0,1,.29.1l6.67,3.88a.83.83,0,0,0,1.13-.29l5.56-9.12a10.51,10.51,0,0,0,1.09-5.54A1.88,1.88,0,0,0,334,261.7Z" transform="translate(-13.41 -11.24)"/><path class="cls-1" d="M328.81,280.4a3.09,3.09,0,0,1-1.56-.43l-6.4-3.73a36.94,36.94,0,0,1-14.3-5.36l-9.32-5.95-.3-.21-.9,1.72a3.08,3.08,0,0,1-5.21.43l-1.14-1.49c-1.44-1.89-3.07-4-3.73-5.07a3,3,0,0,1,0-3.28l4.89-8a3.89,3.89,0,0,1,2.33-2.64l12.32-5.06a6.85,6.85,0,0,1,5.76.7l10.19,5.55c3.34,1.81,5.07,5.08,4,7.6l-.17.31-3.37,5.5c3.67.78,7,.62,9.27-.47l1.85-.89a3.59,3.59,0,0,1,3.38.3,3.83,3.83,0,0,1,2,3,12.8,12.8,0,0,1-1.33,6.71l-5.65,9.26A3.07,3.07,0,0,1,328.81,280.4ZM302.3,263l6.62,4.09a32.72,32.72,0,0,0,12.78,4.76l.45.05.7.33,5.47,3.19,4.83-7.93a7.7,7.7,0,0,0,.78-3.2l-.8.38c-3.71,1.77-8.78,1.87-14.3.28a3.07,3.07,0,0,1-2-1.86,3.14,3.14,0,0,1,.25-2.75l4.21-6.84a5.09,5.09,0,0,0-2-1.88L309.08,246a3,3,0,0,0-1.9-.48l-12,5.08-4.92,8c.72,1,1.87,2.5,2.82,3.75l3.42-6.58,2,4a4.38,4.38,0,0,0,1.36,1.46l2.17,1.51-.88,2.12Z" transform="translate(-13.41 -11.24)"/><path class="cls-3" d="M295.73,273.59l6.64,4.1c7.49,4.62,15.68,6.37,21.28,4.55h0a9.74,9.74,0,0,0,7.16-10.44h0a1.88,1.88,0,0,0-2.17-1.37l-1.85.89c-4.26,2-10.75,1.45-17.34-1.56h0c-2.29-1.05-3.93-3.21-3.6-4.73l.44-2c.31-1.38,2.15-1.75,4.24-.84l3.34,1.44a3.92,3.92,0,0,0,3.57.13h0c1.62-1.09.34-4-2.46-5.47l-10.19-5.55a4.78,4.78,0,0,0-3.83-.59l-12.32,5.06a1.6,1.6,0,0,0-1,1.38l-.23,2.58a2.81,2.81,0,0,0,.34,1.5l3.36,6.81a6.56,6.56,0,0,0,2.09,2.31l2.19,1.53C295.47,273.43,295.6,273.52,295.73,273.59Z" transform="translate(-13.41 -11.24)"/><path class="cls-1" d="M318.8,285.2c-5.41,0-11.73-2-17.62-5.59l-9.31-5.94a8.76,8.76,0,0,1-2.82-3.16l-3.37-6.81a5.14,5.14,0,0,1-.56-2.71l.24-2.58a3.85,3.85,0,0,1,2.43-3.26l12.31-5.06a6.88,6.88,0,0,1,5.77.7l10.19,5.55c2.54,1.38,4.25,3.69,4.35,5.87a3.86,3.86,0,0,1-1.71,3.45c-1.47,1-3.56,1-5.73.07l-3.34-1.44a3.11,3.11,0,0,0-1.23-.31l-.34,1.54a4.37,4.37,0,0,0,2.33,2.18c5.91,2.7,11.81,3.31,15.42,1.58l1.86-.88a3.56,3.56,0,0,1,3.38.29,3.83,3.83,0,0,1,2,3,12,12,0,0,1-8.7,12.71A18,18,0,0,1,318.8,285.2Zm-21.88-13.52,6.63,4.09c6.86,4.23,14.48,5.92,19.41,4.32,3.51-1.14,5.48-3.65,5.6-7.12l-.8.38c-4.86,2.32-12.06,1.74-19.25-1.54-2.85-1.3-5.52-4.29-4.86-7.27l.44-2a3.82,3.82,0,0,1,2-2.6,6.34,6.34,0,0,1,5.32.17l3.34,1.45a3.53,3.53,0,0,0,.89.28,4.79,4.79,0,0,0-1.76-1.56l-10.19-5.55a3,3,0,0,0-1.89-.49l-12,4.93-.2,2.2,3.48,7.11a4.38,4.38,0,0,0,1.36,1.46Z" transform="translate(-13.41 -11.24)"/><path class="cls-3" d="M204,273.85a26.8,26.8,0,0,0,2.1,2,58,58,0,0,0,8.32,5.78,21.89,21.89,0,0,0,12.13,3c7.38-.5,12.53-5.33,14.4-7.39a1.82,1.82,0,0,0,.31-2c-1.75-3.81-8.29-16.85-18.25-22.51-5.46-3.11-11.08-3.32-15.56-1.36-7.74,3.38-10.21,14.91-4.58,21.2Z" transform="translate(-13.41 -11.24)"/><path class="cls-1" d="M225.4,287a24.4,24.4,0,0,1-12.1-3.4,57.38,57.38,0,0,1-8.63-6,27.71,27.71,0,0,1-2.28-2.19l-1.13-1.2a16.26,16.26,0,0,1,5.32-24.82c5.39-2.36,11.8-1.82,17.58,1.47,10.52,6,17.34,19.52,19.19,23.53a4.09,4.09,0,0,1-.7,4.46c-2.05,2.25-7.72,7.57-15.92,8.13C226.29,287,225.84,287,225.4,287Zm-11.76-34.56a13,13,0,0,0-5.26,1.07,11.77,11.77,0,0,0-3.79,17.62l1.09,1.16a23.78,23.78,0,0,0,1.91,1.85,54.88,54.88,0,0,0,8,5.57,19.7,19.7,0,0,0,10.82,2.74c6.34-.43,10.87-4.5,12.7-6.46-1.86-4-8.05-16-17.19-21.23A16.88,16.88,0,0,0,213.64,252.45Z" transform="translate(-13.41 -11.24)"/><path class="cls-2" d="M236.18,266.14c-3.19-4.83-7.63-10.2-13.13-13.33a20.41,20.41,0,0,0-5.73-2.2,27.87,27.87,0,0,0-7.43,9.07,7,7,0,0,0,1.81,8.3,47.67,47.67,0,0,0,6.34,4.65,12.3,12.3,0,0,0,16.5-3.21A11.86,11.86,0,0,0,236.18,266.14Z" transform="translate(-13.41 -11.24)"/><path class="cls-1" d="M224.56,276.73a14.57,14.57,0,0,1-7.71-2.18,50.23,50.23,0,0,1-6.63-4.87,9.26,9.26,0,0,1-2.36-11,29.5,29.5,0,0,1,8.31-10l.76-.45.87.19a22.63,22.63,0,0,1,6.37,2.45c4.92,2.8,9.6,7.53,13.89,14l.58.89-.3,1a14,14,0,0,1-2,3.91A14.35,14.35,0,0,1,224.56,276.73Zm-6.7-23.66a25.93,25.93,0,0,0-5.94,7.6,4.77,4.77,0,0,0,1.27,5.62,46.82,46.82,0,0,0,6,4.42,10.06,10.06,0,0,0,13.45-2.58,10.28,10.28,0,0,0,1-1.7c-3.72-5.42-7.66-9.34-11.72-11.65A17.85,17.85,0,0,0,217.86,253.07Z" transform="translate(-13.41 -11.24)"/><path class="cls-1" d="M62.06,296.23l-17.33-1.15c3-45.79,30.26-67.29,31.42-68.18l10.6,13.75-5.3-6.88,5.34,6.85C85.88,241.34,64.54,258.61,62.06,296.23Z" transform="translate(-13.41 -11.24)"/><rect class="cls-1" x="31.3" y="305.94" width="17.37" height="78.11"/><path class="cls-2" d="M64,429.5,62.61,428c-2.35-2.73-3.55-7.12-3.47-12.22a.84.84,0,0,1,1.08-.79l8,2.36c1.43.18,3.19-1.59,3.79-4.16l2.68-11.29a4.8,4.8,0,0,0-.43-3.85l-8.12-10.55a1.61,1.61,0,0,0-1.61-.65l-9.38-2.74a.82.82,0,0,0-.85.23c-1,1.12-3.58,4.55-4.94,6.29a.84.84,0,0,0,.49,1.33L55,393a6.32,6.32,0,0,0-1.68,2.62l-.89,2.49c-.06.15-.11.31-.16.47L50,406.06a34.85,34.85,0,0,0-1.3,14.55.8.8,0,0,1,0,.31l-2,7.45a.84.84,0,0,0,.57,1l10.26,3A10.53,10.53,0,0,0,63.2,432,1.88,1.88,0,0,0,64,429.5Z" transform="translate(-13.41 -11.24)"/><path class="cls-1" d="M59.61,434.83a12.53,12.53,0,0,1-2.52-.26l-10.41-3a3.06,3.06,0,0,1-2.13-3.76l1.91-7.18a37,37,0,0,1,1.42-15.2l3.28-10.55c.05-.11.09-.23.14-.34l-1.91-.42a3.08,3.08,0,0,1-1.78-4.91l1.17-1.53c1.43-1.87,3-4,3.87-4.9a3.07,3.07,0,0,1,3.16-.88l9,2.63A3.9,3.9,0,0,1,68,386.06l8.13,10.56a6.87,6.87,0,0,1,.84,5.75l-2.68,11.29c-.87,3.7-3.58,6.2-6.27,5.88l-.35-.07-6.19-1.82c.21,3.75,1.23,6.9,2.89,8.83L65.66,428a3.58,3.58,0,0,1,.6,3.34,3.83,3.83,0,0,1-2.34,2.72A13.47,13.47,0,0,1,59.61,434.83Zm-10.34-7.22,8.92,2.58a7.85,7.85,0,0,0,3.29-.09l-.58-.68c-2.68-3.11-4.11-8-4-13.72a3.11,3.11,0,0,1,1.27-2.44,3.06,3.06,0,0,1,2.71-.48L68.56,415a5,5,0,0,0,1.29-2.42l2.67-11.29a3.07,3.07,0,0,0,0-2l-7.91-10.28-.15,0-9-2.64c-.78,1-1.94,2.46-2.88,3.7l7.24,1.58-3.33,2.95a4.21,4.21,0,0,0-1,1.69l-.9,2.49-2.28-.29,2.17.64L52.2,406.7A32.86,32.86,0,0,0,51,420.29l.06.45-.13.76Z" transform="translate(-13.41 -11.24)"/><path class="cls-3" d="M42.41,395.7l-2.2,7.48c-2.49,8.44-2,16.8,1.21,21.74h0a9.72,9.72,0,0,0,11.94,4.15h0a1.86,1.86,0,0,0,.75-2.45l-1.33-1.55c-3.09-3.58-4.23-10-3.06-17.14h0c.41-2.49,2.06-4.64,3.62-4.71l2-.1c1.42-.07,2.26,1.62,1.93,3.87l-.52,3.6a3.94,3.94,0,0,0,.83,3.48h0c1.47,1.28,3.89-.71,4.62-3.81L64.89,399a4.8,4.8,0,0,0-.44-3.85l-8.12-10.55a1.59,1.59,0,0,0-1.6-.65l-2.55.45a2.81,2.81,0,0,0-1.36.73l-5.69,5a6.4,6.4,0,0,0-1.67,2.62l-.91,2.51C42.5,395.41,42.46,395.55,42.41,395.7Z" transform="translate(-13.41 -11.24)"/><path class="cls-1" d="M49.7,432a12,12,0,0,1-10.17-5.82c-3.6-5.48-4.17-14.53-1.49-23.61L41.33,392a8.74,8.74,0,0,1,2.31-3.55l5.68-5a5.08,5.08,0,0,1,2.47-1.26l2.55-.45a3.88,3.88,0,0,1,3.78,1.48l8.12,10.56a6.87,6.87,0,0,1,.85,5.75l-2.68,11.29c-.67,2.82-2.45,5.07-4.53,5.74a3.86,3.86,0,0,1-3.78-.74c-1.33-1.16-1.9-3.17-1.57-5.51l.52-3.61a3.22,3.22,0,0,0,0-1.26l-1.57.07A4.37,4.37,0,0,0,52,408.3c-1.05,6.4-.08,12.26,2.54,15.3l1.33,1.55a3.55,3.55,0,0,1,.61,3.34,3.83,3.83,0,0,1-2.34,2.72A13.62,13.62,0,0,1,49.7,432ZM42.41,395.7l2.17.64-2.21,7.48c-2.28,7.72-1.91,15.52.93,19.86,2.07,3.14,4.93,4.35,8.35,3.54l-.58-.68c-3.52-4.08-4.85-11.17-3.57-19,.5-3.09,2.69-6.46,5.74-6.6l2-.09a3.9,3.9,0,0,1,3,1.27,6.33,6.33,0,0,1,1.23,5.17l-.52,3.6a3.43,3.43,0,0,0,0,.94,4.79,4.79,0,0,0,1-2.11l2.68-11.29a3,3,0,0,0,0-2l-7.91-10.28-2.18.39-5.94,5.23a4.15,4.15,0,0,0-1.05,1.69l-.9,2.51Z" transform="translate(-13.41 -11.24)"/><path class="cls-3" d="M41.78,301.32a26,26,0,0,0-.15,2.92,57.12,57.12,0,0,0,1.08,10.07,21.88,21.88,0,0,0,5.64,11.16c5.22,5.24,12.24,6,15,6a1.81,1.81,0,0,0,1.71-1.07c1.73-3.83,7.29-17.31,5-28.54-1.23-6.16-4.75-10.54-9.17-12.65-7.62-3.63-18,2.07-19,10.44Z" transform="translate(-13.41 -11.24)"/><path class="cls-1" d="M63.43,333.76h-.1c-3.06-.07-10.79-.88-16.58-6.7a24,24,0,0,1-6.27-12.34,59.79,59.79,0,0,1-1.12-10.46,30.12,30.12,0,0,1,.18-3.16l.16-1.64A15.58,15.58,0,0,1,48,288a15.45,15.45,0,0,1,14-.76c5.32,2.54,9.11,7.73,10.42,14.25,2.38,11.88-3.38,25.9-5.21,29.92A4.06,4.06,0,0,1,63.43,333.76Zm-7.54-43.37a12.14,12.14,0,0,0-5.78,1.53A11,11,0,0,0,44.19,300L44,301.55a26.55,26.55,0,0,0-.15,2.67,54,54,0,0,0,1,9.68,19.5,19.5,0,0,0,5,10c4.46,4.49,10.51,5.25,13.19,5.36,1.8-4,6.84-16.58,4.77-26.91-1-5.11-3.91-9.13-7.93-11.05A9.45,9.45,0,0,0,55.89,290.39Z" transform="translate(-13.41 -11.24)"/><path class="cls-2" d="M68.68,320.55c1.56-5.57,2.69-12.45,1.45-18.65a20.29,20.29,0,0,0-2.08-5.78,28,28,0,0,0-11.72.34,7,7,0,0,0-5.09,6.81,48.55,48.55,0,0,0,.64,7.83,12.17,12.17,0,0,0,16.8,9.45Z" transform="translate(-13.41 -11.24)"/><path class="cls-1" d="M63.91,323.78a14.71,14.71,0,0,1-14.26-12.32,51.45,51.45,0,0,1-.67-8.2,9.29,9.29,0,0,1,6.76-9,29.72,29.72,0,0,1,13-.29l.86.27L70,295a22.52,22.52,0,0,1,2.33,6.42c1.11,5.56.6,12.18-1.5,19.7l-.28,1-1,.44a14.35,14.35,0,0,1-4.23,1.09A11.91,11.91,0,0,1,63.91,323.78Zm-1-25.87a23.4,23.4,0,0,0-6,.73,4.75,4.75,0,0,0-3.41,4.64,45.61,45.61,0,0,0,.61,7.46,10.07,10.07,0,0,0,10.77,8.47,10.89,10.89,0,0,0,1.92-.37c1.63-6.29,2-12,1.12-16.5a18.87,18.87,0,0,0-1.37-4.19A29.25,29.25,0,0,0,62.87,297.91Z" transform="translate(-13.41 -11.24)"/><path class="cls-1" d="M103.71,581.74,87.7,575c.3-.69,29.41-70.11,28.42-100.32-.38-11.92-5.59-26.93-15.05-43.42A103.29,103.29,0,0,1,87.49,371l17.31,1.46a86,86,0,0,0,11.34,50.16c11,19.22,16.85,36.54,17.34,51.49C134.59,508.11,105,578.75,103.71,581.74Z" transform="translate(-13.41 -11.24)"/><path class="cls-3" d="M109.08,472a30.26,30.26,0,0,0-.17,3.16,61.22,61.22,0,0,0,1.18,10.93,23.69,23.69,0,0,0,6.12,12.1c5.66,5.69,13.28,6.47,16.3,6.55a2,2,0,0,0,1.86-1.17c1.88-4.15,7.91-18.77,5.47-31-1.34-6.68-5.16-11.43-10-13.72-8.27-3.94-19.48,2.24-20.63,11.33Z" transform="translate(-13.41 -11.24)"/><path class="cls-1" d="M132.56,507h-.11c-3.28-.07-11.6-.94-17.84-7.21a25.83,25.83,0,0,1-6.75-13.29,64.63,64.63,0,0,1-1.21-11.31,29.85,29.85,0,0,1,.19-3.41L107,470a17.46,17.46,0,0,1,23.84-13.14c5.71,2.72,9.79,8.31,11.19,15.32,2.57,12.83-3.66,28-5.63,32.34A4.24,4.24,0,0,1,132.56,507ZM124.38,460a13.34,13.34,0,0,0-6.35,1.69,12.16,12.16,0,0,0-6.53,8.87l-.17,1.73a25.62,25.62,0,0,0-.16,2.9,59,59,0,0,0,1.14,10.55,21.44,21.44,0,0,0,5.5,10.92c5.08,5.11,12,5.81,14.75,5.88,1.58-3.87,7.36-17.92,5.06-29.42-1.12-5.61-4.29-10-8.7-12.13A10.57,10.57,0,0,0,124.38,460Z" transform="translate(-13.41 -11.24)"/><path class="cls-2" d="M138.26,492.89c1.69-6,2.92-13.5,1.58-20.23a22,22,0,0,0-2.27-6.26,30.2,30.2,0,0,0-12.71.36,7.6,7.6,0,0,0-5.52,7.39,52.13,52.13,0,0,0,.7,8.5,13.34,13.34,0,0,0,14.36,11.23A12.91,12.91,0,0,0,138.26,492.89Z" transform="translate(-13.41 -11.24)"/><path class="cls-1" d="M133.09,496.21A15.76,15.76,0,0,1,117.81,483a53.89,53.89,0,0,1-.73-8.86,9.9,9.9,0,0,1,7.19-9.57,32,32,0,0,1,14-.32l.84.28.43.78a24.19,24.19,0,0,1,2.5,6.91c1.2,6,.66,13.16-1.62,21.28l-.28,1-1,.43a14.91,14.91,0,0,1-4.53,1.17A13.73,13.73,0,0,1,133.09,496.21ZM132,468.14a25.24,25.24,0,0,0-6.51.8,5.35,5.35,0,0,0-3.84,5.22,49.49,49.49,0,0,0,.67,8.13c.93,5.76,6.33,10,11.89,9.34a11.19,11.19,0,0,0,2.22-.44c1.83-7,2.25-13.05,1.24-18.08a19,19,0,0,0-1.55-4.69A30,30,0,0,0,132,468.14Z" transform="translate(-13.41 -11.24)"/><rect class="cls-2" x="261.61" y="242.13" width="149.18" height="6.94" transform="translate(-49.46 420.87) rotate(-62.76)"/><rect class="cls-1" x="258.08" y="238.8" width="149.17" height="6.94" transform="translate(-48.42 415.9) rotate(-62.76)"/><rect class="cls-1" x="165.35" y="109.58" width="3.08" height="6.95"/><path class="cls-3" d="M122.94,142.19s6.06,3.89,0,26.2c0,0-4.35,17.85,14.51,26,0,0,7.28,1.67,13.18-2.69a6.4,6.4,0,0,0,1.54-8.34c-2-3.45-4.24-9.91-4-21.21.44-19.54-8.64-24.76-8.64-24.76Z" transform="translate(-13.41 -11.24)"/><path class="cls-1" d="M140.85,197a19.28,19.28,0,0,1-3.91-.37l-.39-.13c-20.37-8.83-15.85-28.43-15.81-28.63,5.35-19.69.9-23.82.85-23.86l-4.19-2.69,4.91-1.29,17.54-5,.83.47c.42.24,10.24,6.13,9.76,26.77-.24,10.79,1.88,16.85,3.69,20A8.64,8.64,0,0,1,152,193.54,18.62,18.62,0,0,1,140.85,197Zm-2.72-4.74c1.06.19,6.67,1,11.15-2.34a4.13,4.13,0,0,0,.93-5.4c-2.1-3.69-4.55-10.56-4.28-22.38.33-14.57-4.92-20.54-6.84-22.23l-12.54,3.6c1.54,3.63,2.51,11-1.44,25.49C125,169.57,121.55,184.92,138.13,192.25Z" transform="translate(-13.41 -11.24)"/><path class="cls-1" d="M126.65,189.29c-2.52-9.24,3.27-24.59,3.51-25.24l4.23,1.61c-.06.14-5.51,14.62-3.38,22.44Z" transform="translate(-13.41 -11.24)"/><path class="cls-3" d="M132.71,125.71c1.9,12.27-2.77,23.18-10.44,24.37s-15.44-7.8-17.34-20.07,2.78-23.18,10.45-24.37S130.81,113.44,132.71,125.71Z" transform="translate(-13.41 -11.24)"/><path class="cls-1" d="M120.86,152.44c-8.39,0-16.17-9.26-18.16-22.08-2.13-13.71,3.29-25.55,12.33-27s17.78,8.24,19.91,22h0a32.66,32.66,0,0,1-1.79,17.58c-2.29,5.34-6,8.67-10.54,9.37A11.55,11.55,0,0,1,120.86,152.44Zm-4.12-44.65a7,7,0,0,0-1,.08c-6.32,1-10.24,11-8.56,21.79s8.48,19.16,14.76,18.19c2.91-.46,5.43-2.83,7.08-6.69a28.05,28.05,0,0,0,1.48-15.11C128.89,115.8,122.75,107.79,116.74,107.79Z" transform="translate(-13.41 -11.24)"/><path class="cls-1" d="M132.22,135.92c1.33,8.58-1.94,16.21-7.31,17s-10.79-5.45-12.12-14,1.94-16.21,7.31-17S130.89,127.34,132.22,135.92Z" transform="translate(-13.41 -11.24)"/><path class="cls-1" d="M123.93,155.29c-6.2,0-11.93-6.71-13.37-16a23.51,23.51,0,0,1,1.3-12.66c1.69-4,4.5-6.43,7.89-7,6.69-1.06,13.15,6,14.7,15.91h0a23.51,23.51,0,0,1-1.3,12.66c-1.7,4-4.5,6.43-7.89,7A8.51,8.51,0,0,1,123.93,155.29Zm-2.86-31.22a3.35,3.35,0,0,0-.63.05c-2.42.37-3.82,2.84-4.43,4.27a18.9,18.9,0,0,0-1,10.19c1.12,7.21,5.45,12.78,9.55,12.15,2.42-.38,3.81-2.84,4.43-4.28a18.89,18.89,0,0,0,1-10.19h0C128.92,129.42,124.94,124.07,121.07,124.07Z" transform="translate(-13.41 -11.24)"/><path class="cls-2" d="M119.14,116.56a51.47,51.47,0,0,0-.32,5.82A114.26,114.26,0,0,0,121,142.53c1.43,7.77,5.3,16.31,11.29,22.32,10.43,10.49,24.48,11.93,30.05,12.07a3.64,3.64,0,0,0,3.42-2.15c3.47-7.65,14.58-34.61,10.09-57.08-2.47-12.31-9.51-21.08-18.35-25.29-15.24-7.27-35.9,4.12-38,20.88Z" transform="translate(-13.41 -11.24)"/><path class="cls-1" d="M162.42,179.18h-.14c-5.84-.15-20.59-1.67-31.61-12.73a46.43,46.43,0,0,1-11.91-23.51,115.66,115.66,0,0,1-2.2-20.54,55.69,55.69,0,0,1,.33-6.07h0l.34-3.28c1.09-8.67,6.82-16.59,15.32-21.24s18.13-5.16,25.91-1.45c10,4.75,17.13,14.55,19.59,26.89,4.62,23.08-6.67,50.58-10.25,58.46A5.9,5.9,0,0,1,162.42,179.18Zm-41-62.39a49,49,0,0,0-.3,5.57,110.63,110.63,0,0,0,2.13,19.76,41.63,41.63,0,0,0,10.67,21.14c9.85,9.9,23.22,11.27,28.5,11.4a1.29,1.29,0,0,0,1.31-.82c3.43-7.57,14.29-33.94,9.93-55.71-2.18-10.92-8.41-19.56-17.1-23.7-6.48-3.08-14.63-2.58-21.81,1.34s-12.09,10.61-13,17.79Z" transform="translate(-13.41 -11.24)"/><path class="cls-1" d="M172.92,155c3.12-11.13,5.4-24.89,2.92-37.29a40.13,40.13,0,0,0-4.18-11.55,55.65,55.65,0,0,0-23.44.66,14,14,0,0,0-10.17,13.63,95.13,95.13,0,0,0,1.29,15.67c2,12.69,13.69,22.09,26.48,20.71A23.65,23.65,0,0,0,172.92,155Z" transform="translate(-13.41 -11.24)"/><path class="cls-1" d="M163.39,159.22c-12.7,0-24.18-9.71-26.28-22.74a98,98,0,0,1-1.32-16,16.31,16.31,0,0,1,11.85-15.8,57.5,57.5,0,0,1,24.71-.63l.86.27.43.79a42.88,42.88,0,0,1,4.42,12.2c2.15,10.75,1.15,23.65-3,38.34l-.29,1-1,.43a25.81,25.81,0,0,1-7.79,2A24,24,0,0,1,163.39,159.22Zm-2.14-51.74A48.74,48.74,0,0,0,148.8,109a11.77,11.77,0,0,0-8.49,11.46,94.5,94.5,0,0,0,1.25,15.3c1.87,11.61,12.65,20,24,18.82a22.92,22.92,0,0,0,5.46-1.24c3.67-13.56,4.55-25.39,2.59-35.19a38.43,38.43,0,0,0-3.46-10A56.48,56.48,0,0,0,161.25,107.48Z" transform="translate(-13.41 -11.24)"/><path class="cls-1" d="M107.52,111.85c-2.9-1.82-7.25-7.19-3-14.47,2.83-4.82,6.2-5.44,8.91-5.94,2.11-.38,3.78-.69,5.64-2.78a10.85,10.85,0,0,1,12.2-2.82c3.58,1.4,5.85,4.3,5.79,7.38l-4.51-.08c0-1.14-1.18-2.41-2.93-3.1a6.34,6.34,0,0,0-7.18,1.63,12.71,12.71,0,0,1-8.2,4.21c-2.44.45-4,.75-5.83,3.79-3.09,5.27,1,8,1.49,8.35Z" transform="translate(-13.41 -11.24)"/><path class="cls-1" d="M104.69,123.2c-3-.45-8.67-3.39-8.67-11.31,0-9.34,8.36-13.75,8.71-13.94l2.08,4c-.26.14-6.27,3.38-6.27,9.93,0,6.06,4.62,6.82,4.82,6.85Z" transform="translate(-13.41 -11.24)"/><path class="cls-1" d="M100.39,104.45a13.78,13.78,0,0,1-3-12.61,9.18,9.18,0,0,1,6.57-6.71c6.81-1.89,11.23,4.14,12.61,7.59l-4.19,1.68c-.11-.26-2.59-6.2-7.22-4.92a4.72,4.72,0,0,0-3.42,3.57,9.19,9.19,0,0,0,2,8.3Z" transform="translate(-13.41 -11.24)"/><path class="cls-1" d="M155.7,177.31l-3.63-2.69c2.77-3.73,3.5-10.59,3.51-10.66l4.49.45C160,164.75,159.21,172.57,155.7,177.31Z" transform="translate(-13.41 -11.24)"/><path class="cls-3" d="M149.3,137.25c-5.48,0-9.94-4.75-9.94-10.58s4.46-10.58,9.94-10.58,9.93,4.74,9.93,10.58S154.78,137.25,149.3,137.25Zm0-17.69c-3.57,0-6.47,3.19-6.47,7.11s2.9,7.1,6.47,7.1,6.46-3.18,6.46-7.1S152.86,119.56,149.3,119.56Z" transform="translate(-13.41 -11.24)"/><path class="cls-3" d="M170.44,135.28c-5,0-9.11-4.75-9.11-10.58s4.09-10.58,9.11-10.58,9.1,4.74,9.1,10.58S175.45,135.28,170.44,135.28Zm0-17.69c-3.11,0-5.63,3.19-5.63,7.11s2.52,7.1,5.63,7.1,5.62-3.18,5.62-7.1S173.54,117.59,170.44,117.59Z" transform="translate(-13.41 -11.24)"/><path class="cls-3" d="M162.11,128a2.81,2.81,0,0,0-1.89-.84,2.5,2.5,0,0,0-1.42.69l-2.61-2.29a5.88,5.88,0,0,1,3.82-1.86,6,6,0,0,1,4.4,1.71Z" transform="translate(-13.41 -11.24)"/><rect class="cls-3" x="137.48" y="125.88" width="3.66" height="3.47" transform="matrix(0.99, -0.13, 0.13, 0.99, -28.93, 8.12)"/><path class="cls-1" d="M136.59,131.33H125.24l-.41-3c-.2-1.15-1.17-3.9-5.61-3.39l-.8-6.9c6.75-.79,10.7,2.72,12.39,6.35h5.78Z" transform="translate(-13.41 -11.24)"/><path class="cls-3" d="M161.2,149.2a9.25,9.25,0,0,1-5.31-1.65l2.05-2.8c.39.27,3.86,2.58,7.69-.93l2.34,2.56A9.86,9.86,0,0,1,161.2,149.2Z" transform="translate(-13.41 -11.24)"/><circle class="cls-3" cx="138.05" cy="115.62" r="2.16"/><path class="cls-3" d="M174.76,125.39a2.17,2.17,0,1,1-2.16-2.17A2.16,2.16,0,0,1,174.76,125.39Z" transform="translate(-13.41 -11.24)"/></svg>