<svg id="Layer_1" data-name="Layer 1" xmlns="http://www.w3.org/2000/svg" viewBox="0 0 373.81 646.91"><defs><style>.cls-1{fill:#fff;}.cls-2{fill:#150035;}.cls-3{fill:#39a1ff;}</style></defs><title>features-1</title><path class="cls-1" d="M229.43,580.34a1.24,1.24,0,0,1-.53.75c-3.73,2.36-30.13,20.44-10.66,46.65,13,17.54,10.59,26.14,6.91,30.13a1.27,1.27,0,0,0,1.24,2.1c9-2.43,23.92-10.42,15.68-36.49-10.55-33.37,14.73-21.22,13.79-6.43a1.25,1.25,0,0,0,2.17,1c5.55-6,15.18-20.6-2.15-37.2C235.2,561,230.17,577.27,229.43,580.34Z" transform="translate(-14.43 -15.09)"/><path class="cls-2" d="M226,662a3.2,3.2,0,0,1-2.75-1.56,3.24,3.24,0,0,1,.4-3.91c4.8-5.21,2.3-15-7.05-27.6-6.19-8.35-8.56-16.77-7-25,2.52-13.55,14.86-22.32,18-24.33.6-2.27,2.68-8.33,8.35-10s12.81,1.65,21.33,9.81c18.77,18,7.82,34,2.24,40a3.24,3.24,0,0,1-5.61-2.45,13.54,13.54,0,0,0-7-12.13c-1-.49-2.75-1.15-3.92-.14-1.83,1.56-2.54,7.17,1,18.23s3.32,20-.46,27c-4,7.35-11.25,10.61-16.6,12.06A3.56,3.56,0,0,1,226,662Zm12.87-88.86a6.7,6.7,0,0,0-1.87.25c-3.9,1.15-5.33,6-5.68,7.42h0a3.2,3.2,0,0,1-1.39,1.94c-2.35,1.49-14.16,9.53-16.45,21.87-1.32,7.13.8,14.51,6.31,21.93,12,16.23,11.54,25.58,8.19,30.83,4.24-1.48,9.14-4.25,12-9.47,3.24-5.91,3.29-13.94.16-23.84-4.57-14.48-2.39-20.2.25-22.45,2.13-1.82,5.15-2,8.28-.39a17.71,17.71,0,0,1,9.13,14c5.64-6.82,11.23-19-3.32-33C248.23,576.25,242.9,573.14,238.91,573.14Z" transform="translate(-14.43 -15.09)"/><path class="cls-2" d="M256.22,596.82c-2.84-6.11-2.1-9.48-.75-11.32a3.22,3.22,0,0,0-.72-4.59c-5.57-3.89-14.16-9.78-16.22-9.76,3.81,17.49-8.94,19.16-11,30.15-2.24,11.77,14.67,25.08,15.16,25.32-.27-1-.52-2-.87-3.15-8.5-26.91,6.28-24.21,11.83-14.41C255.08,605.82,259,602.82,256.22,596.82Z" transform="translate(-14.43 -15.09)"/><path class="cls-2" d="M245.67,630.41l-3.93-2c-.2-.1-18.74-14.1-16.19-27.47.89-4.7,3.48-7.81,6-10.82,3.71-4.46,7.21-8.67,5.06-18.52l-.52-2.39,2.44,0c1.7.07,5.22,1.63,17.38,10.11a5.14,5.14,0,0,1,2.15,3.39,5.29,5.29,0,0,1-1,4c-1.33,1.81-1,5.11.95,9.3,2.59,5.61.27,9.24-1.44,11.9a17.4,17.4,0,0,0-1.16,2l-1.62,3.55L251.88,610c-2.47-4.36-6.58-6.6-8.65-5.73s-3.4,6.4.45,18.56c.31,1,.55,1.93.79,2.86Zm-4.61-56.1c1,9.32-2.94,14.08-6.48,18.33-2.28,2.74-4.43,5.33-5.13,9-1.25,6.56,4.76,14.25,9.44,19-3.89-14.53,0-18.76,2.75-20,3.59-1.56,8.37.47,11.84,4.69,1.42-2.23,2.53-4.27.93-7.71h0c-2.65-5.72-2.83-10.2-.54-13.32a1.32,1.32,0,0,0,.25-1,1.21,1.21,0,0,0-.5-.78C247.1,578,243.28,575.56,241.06,574.31Z" transform="translate(-14.43 -15.09)"/><path class="cls-3" d="M275.11,561.94h0S270.17,523,240,523s-35.1,38.92-35.1,38.92h0c-1.25,6,2.08,12.27,10.07,16.88,13.8,8,36.19,8,50,0C273,574.21,276.36,567.94,275.11,561.94Z" transform="translate(-14.43 -15.09)"/><path class="cls-2" d="M240,586.75c-9.42,0-18.83-2.07-26-6.21-7.55-4.36-11.56-10.31-11.32-16.62h0l0-.21a16.24,16.24,0,0,1,.22-1.81l0-.21C203,561.28,208.52,521,240,521h0c31.52,0,37,40.24,37.06,40.65l0,.25a14.78,14.78,0,0,1,.19,1.47l.06.51h0c.24,6.31-3.77,12.26-11.32,16.62C258.86,584.68,249.45,586.75,240,586.75ZM207.3,560h.08l-.47,2.39c-1.12,5.39,2.2,10.77,9.12,14.76,13.24,7.64,34.77,7.64,48,0,6.92-4,10.24-9.37,9.12-14.76l-.49-2.39h.12C271.25,551.85,264.34,525,240,525h0C216,525,208.9,551.91,207.3,560Z" transform="translate(-14.43 -15.09)"/><path class="cls-2" d="M275.69,562h0s-5-38.91-35.1-38.92c-1.43,0-4.35.8-5.68,1,26.48,3.35,32.56,38,32.56,38h0c1.25,6-2.09,12.27-10.07,16.88-5.86,3.38-13.26,5.31-20.89,5.82,10.36.7,21.15-1.23,29.1-5.82S276.94,568,275.69,562Z" transform="translate(-14.43 -15.09)"/><path class="cls-2" d="M223.86,465v59.76c-.06,2.44,1.51,4.88,4.73,6.74,6.32,3.65,16.57,3.65,22.89,0,3.15-1.82,4.74-4.21,4.74-6.6h0V464.79Z" transform="translate(-14.43 -15.09)"/><path class="cls-2" d="M240,536.2a25.36,25.36,0,0,1-12.43-3c-3.72-2.15-5.8-5.25-5.72-8.51V463l36.33-.19v62.06c0,3.23-2,6.19-5.73,8.32A25.37,25.37,0,0,1,240,536.2Zm-14.18-69.26v57.78c0,1.81,1.32,3.62,3.73,5,5.67,3.27,15.24,3.27,20.9,0,2.42-1.39,3.75-3.13,3.75-4.88V466.79Z" transform="translate(-14.43 -15.09)"/><path class="cls-1" d="M156.78,426.29h-.05s11.94,92.32,83.47,92.23S323.33,426,323.33,426h-.05c2.94-14.27-5-29.12-24-40-32.81-18.87-85.94-18.77-118.68.21C161.68,397.15,153.79,412,156.78,426.29Z" transform="translate(-14.43 -15.09)"/><path class="cls-2" d="M240.09,520.51c-72.36,0-85.2-93-85.33-94l-.09-.69c-2.82-15.5,6.23-30.54,25-41.39,33.24-19.27,87.36-19.36,120.67-.21,18.85,10.83,27.94,25.92,25.06,41.5l-.05.49c-.12.94-12.66,94.18-85.1,94.27Zm-81-92.23c2.43,14,18.34,88.26,81,88.26h.1C303,516.46,318.63,442,321,428h-.12l.44-2.39c2.9-14-5.49-27.82-23-37.9-32.21-18.52-84.56-18.43-116.7.21-17.48,10.13-25.82,24-22.88,38l.5,2.4Z" transform="translate(-14.43 -15.09)"/><path class="cls-2" d="M299.77,383.92c-28.06-16.14-71-18.36-103.28-6.8,31-8.35,69-5.24,94.62,9.49,19,10.91,26.92,25.77,24,40h.05s-8.71,69-57.26,87.81c56.2-13.41,65.92-90.51,65.92-90.51h-.05C326.69,409.68,318.74,394.82,299.77,383.92Z" transform="translate(-14.43 -15.09)"/><path class="cls-3" d="M299.36,386.07c32.78,18.92,32.78,49.6,0,68.52s-85.91,18.93-118.68,0-32.78-49.59,0-68.52S266.59,367.15,299.36,386.07Z" transform="translate(-14.43 -15.09)"/><path class="cls-2" d="M240,470.72c-21.85,0-43.7-4.8-60.34-14.4s-25.57-22.3-25.57-36,9.08-26.46,25.57-36c33.27-19.2,87.4-19.21,120.68,0h0c16.49,9.52,25.57,22.3,25.57,36s-9.08,26.46-25.57,36S261.87,470.72,240,470.72Zm0-96.86c-21.13,0-42.26,4.65-58.35,13.93-15.21,8.78-23.58,20.34-23.58,32.54s8.37,23.76,23.58,32.55c32.17,18.57,84.53,18.57,116.7,0,15.21-8.78,23.59-20.33,23.59-32.54s-8.38-23.76-23.59-32.54C282.28,378.51,261.15,373.86,240,373.86Z" transform="translate(-14.43 -15.09)"/><path class="cls-2" d="M200.92,398.48c29.64-17.11,75.87-18.69,108.7-4.86a67.71,67.71,0,0,0-10.69-7.55c-32.78-18.92-85.91-18.92-118.69,0s-32.77,49.6,0,68.52a87.16,87.16,0,0,0,10,4.86C168.65,440.64,172.21,415.05,200.92,398.48Z" transform="translate(-14.43 -15.09)"/><path class="cls-2" d="M298,386.51c-32.77-18.92-85.91-18.92-118.68,0a62.15,62.15,0,0,0-14.81,11.56c26.43-2.94,54.83,1.49,75.3,13.31,26.71,15.42,31.65,38.65,14.81,57,15.9-1.77,31.07-6.21,43.38-13.31C330.77,436.11,330.77,405.43,298,386.51Z" transform="translate(-14.43 -15.09)"/><path class="cls-1" d="M377,372.6a46.75,46.75,0,0,0-1.18-10.23c-3.35-24.61-15.33-89.92-53.51-153.83L240,215.47l-82.27-6.93c-38.18,63.91-50.16,129.22-53.51,153.83-5.28,23.49,7.68,48.09,38.94,66.14,53.48,30.88,140.2,30.88,193.68,0C363.61,413.07,377,392.83,377,372.6Z" transform="translate(-14.43 -15.09)"/><path class="cls-2" d="M240,453.59c-35.43,0-70.86-7.79-97.84-23.36-31.06-17.94-45.6-42.83-39.88-68.3,3.39-25,15.49-90.39,53.75-154.41l.63-1.06,83.34,7,83.34-7,.63,1.06c38.27,64,50.36,129.44,53.78,154.58A48.17,48.17,0,0,1,379,372.6c0,21.86-14.59,42.32-41.1,57.63C310.88,445.8,275.45,453.59,240,453.59Zm-81.2-243c-37.37,63.05-49.24,127.25-52.61,152-5.35,23.82,8.5,47.14,38,64.15,52.85,30.51,138.85,30.51,191.7,0C361.1,412.22,375,393,375,372.6a44.9,44.9,0,0,0-1.13-9.8c-3.4-24.93-15.25-89.11-52.64-152.18L240,217.46h-.17Z" transform="translate(-14.43 -15.09)"/><path class="cls-2" d="M376.22,362.38c-3.35-24.61-15.33-89.92-53.51-153.83l-7,.6c37.9,63.71,49.82,128.7,53.16,153.23A46.75,46.75,0,0,1,370,372.61c0,20.23-13.37,40.47-40.12,55.91-25.8,14.9-59.33,22.58-93.14,23.11,36.27.56,72.86-7.13,100.54-23.11,26.74-15.44,40.12-35.68,40.12-55.91A46.75,46.75,0,0,0,376.22,362.38Z" transform="translate(-14.43 -15.09)"/><path class="cls-3" d="M299.36,183.85c32.78,18.92,32.78,49.6,0,68.52s-85.91,18.92-118.68,0-32.78-49.6,0-68.52S266.59,164.92,299.36,183.85Z" transform="translate(-14.43 -15.09)"/><path class="cls-2" d="M240,268.49c-21.85,0-43.7-4.8-60.34-14.4s-25.57-22.3-25.57-36,9.08-26.46,25.57-36c33.27-19.21,87.4-19.21,120.68,0h0c16.49,9.53,25.57,22.3,25.57,36s-9.08,26.46-25.57,36S261.87,268.49,240,268.49Zm0-96.86c-21.13,0-42.26,4.65-58.35,13.94-15.21,8.78-23.58,20.33-23.58,32.54s8.37,23.76,23.58,32.54c32.17,18.57,84.53,18.57,116.7,0,15.21-8.78,23.59-20.34,23.59-32.54s-8.38-23.76-23.59-32.55h0C282.29,176.28,261.15,171.63,240,171.63Z" transform="translate(-14.43 -15.09)"/><path class="cls-2" d="M199.29,198.1c32.35-18.68,84.49-18.89,117.35-.7a59.66,59.66,0,0,0-16.54-13.55c-32.77-18.93-85.91-18.93-118.68,0s-32.78,49.6,0,68.52c.43.25.9.45,1.34.69C168,235.09,173.54,213,199.29,198.1Z" transform="translate(-14.43 -15.09)"/><path class="cls-2" d="M298,183.85c-32.77-18.93-85.91-18.93-118.68,0a62,62,0,0,0-14.89,11.64c31.41-9,70.57-6,96.76,9.08,26.67,15.39,31.63,38.58,14.89,56.88A98.59,98.59,0,0,0,298,252.37C330.81,233.45,330.81,202.77,298,183.85Z" transform="translate(-14.43 -15.09)"/><path class="cls-1" d="M323.27,199.22h.05s-11.77-92.34-83.3-92.38-83.3,92.38-83.3,92.38h.05c-3,14.25,5,29.12,23.91,40.07,32.77,18.92,85.91,18.92,118.68,0C318.32,228.34,326.24,213.47,323.27,199.22Z" transform="translate(-14.43 -15.09)"/><path class="cls-2" d="M240,255.41c-21.85,0-43.7-4.8-60.34-14.4-18.82-10.87-27.89-26-25-41.55l.05-.49c.12-.94,12.83-94.12,85.23-94.12h0c72.44,0,85.15,93.18,85.27,94.12l.09.7c2.79,15.49-6.29,30.52-25,41.34C283.72,250.61,261.87,255.41,240,255.41Zm-81-58.18h.12l-.44,2.39c-2.92,14,5.45,27.84,22.95,37.95,32.18,18.57,84.53,18.57,116.7,0,17.5-10.11,25.87-23.94,22.95-37.95l-.49-2.39H321c-2.41-14-18.19-88.37-81-88.4h0C177.18,108.83,161.44,183.27,159,197.23Z" transform="translate(-14.43 -15.09)"/><path class="cls-2" d="M323.34,199.22h.05s-11.77-92.34-83.3-92.38c-16.77,0-30.21,5.1-41,12.87a69.19,69.19,0,0,1,35.25-9.13c71.54,0,83.3,92.38,83.3,92.38l.19,1.33c2.62,12.6-3.51,24.35-18,34.77C318.48,228.14,326.29,213.38,323.34,199.22Z" transform="translate(-14.43 -15.09)"/><path class="cls-2" d="M300.8,240.77l-2.16-3.32c13.87-10,19.66-21,17.21-32.75l-.2-1.47c-.12-.92-12.4-90.62-81.34-90.66h0a67.52,67.52,0,0,0-34.22,8.86l-2.15-3.33a70.71,70.71,0,0,1,42.15-13.25h0c72.44,0,85.15,93.18,85.27,94.12l.09.69C328.22,215,319.28,230,300.8,240.77ZM240.39,108.83c67.09,5.06,79.08,93,79.19,93.88l.18,1.31a28.32,28.32,0,0,1,.09,11.52,26.85,26.85,0,0,0,1.54-15.92l-.49-2.39h.16C318.67,183.29,302.93,109.1,240.39,108.83Z" transform="translate(-14.43 -15.09)"/><path class="cls-3" d="M247.77,121c6,3.47,6,9.1,0,12.58S232,137,226,133.53s-6-9.11,0-12.58S241.76,117.48,247.77,121Z" transform="translate(-14.43 -15.09)"/><path class="cls-2" d="M236.88,138.13A24.23,24.23,0,0,1,225,135.25c-3.55-2.05-5.51-4.9-5.51-8s2-6,5.51-8c6.66-3.84,17.1-3.84,23.76,0,3.55,2,5.51,4.89,5.51,8s-2,6-5.51,8A24.18,24.18,0,0,1,236.88,138.13Zm0-17.78a20.3,20.3,0,0,0-9.89,2.32c-2.24,1.29-3.52,3-3.52,4.57s1.28,3.28,3.52,4.57c5.36,3.09,14.42,3.09,19.79,0,2.23-1.29,3.51-3,3.51-4.57s-1.28-3.28-3.51-4.57h0A20.31,20.31,0,0,0,236.88,120.35Z" transform="translate(-14.43 -15.09)"/><path class="cls-3" d="M197.93,170c-14.39-8.31-20-20.09-16.63-31a.5.5,0,0,0-.88-.46c-9.47,13.08-15.37,27.87-18.9,39.59-3.08,13.49,4.67,27.9,22.63,38.27,15,8.65,34.5,13,54.13,13.22a21,21,0,0,0,18.55-10.82l.18-.33a29.07,29.07,0,0,0-1-30h0A18.14,18.14,0,0,0,240.78,180C225.29,180.14,209.74,176.8,197.93,170Z" transform="translate(-14.43 -15.09)"/><path class="cls-2" d="M238.48,231.54h-.22c-20.81-.2-40.38-5-55.11-13.49-18.14-10.48-27-25.59-23.56-40.43,3.24-10.81,9.18-26.44,19.22-40.32a2.49,2.49,0,0,1,4.39,2.21c-3.19,10.47,2.68,21.22,15.72,28.75h0c11.13,6.42,25.92,9.87,41.84,9.78h.15a20,20,0,0,1,16.8,9.34,31.06,31.06,0,0,1,1,32l-.18.32A23,23,0,0,1,238.48,231.54Zm-60.12-86.47a139.36,139.36,0,0,0-14.94,33.56c-2.94,12.92,5.16,26.42,21.72,36,14.14,8.17,33,12.77,53.16,12.95a19.11,19.11,0,0,0,16.79-9.8l.19-.32a27.06,27.06,0,0,0-.91-27.91A16.26,16.26,0,0,0,240.91,182H240c-16.24,0-31.49-3.65-43-10.31C184.86,164.73,178.28,155.11,178.36,145.07Z" transform="translate(-14.43 -15.09)"/><path class="cls-2" d="M239.36,221.65c-19.63-.18-31.43-1.85-47.53-10.44-18.3-9.76-27.62-21.34-22.63-38.27a146.92,146.92,0,0,1,11.19-27.2,21.47,21.47,0,0,1,.91-6.81.5.5,0,0,0-.88-.46c-9.47,13.08-15.37,27.87-18.9,39.59-3.08,13.49,4.67,27.9,22.63,38.27,15,8.65,34.5,13.22,54.13,13.22,7.74,0,13.53-5.57,17.49-9.7a.36.36,0,0,0-.4-.57A51.06,51.06,0,0,1,239.36,221.65Z" transform="translate(-14.43 -15.09)"/><path class="cls-2" d="M238.28,231.54c-20.49,0-40.06-4.79-55.13-13.49-18.14-10.48-27-25.59-23.56-40.43,3.24-10.81,9.18-26.44,19.22-40.32a2.49,2.49,0,0,1,4.39,2.21,19.69,19.69,0,0,0-.83,6.17l0,.54-.25.46a145.11,145.11,0,0,0-11,26.83c-4.3,14.58,2.38,25.66,21.66,36,16,8.51,27.27,10,46.61,10.2a48.34,48.34,0,0,0,15.36-2.26,2.35,2.35,0,0,1,2.76.95,2.33,2.33,0,0,1-.29,2.87C252.07,226.58,246.22,231.54,238.28,231.54ZM178.4,145a139.18,139.18,0,0,0-15,33.62c-2.94,12.92,5.16,26.42,21.72,36,14.47,8.35,33.34,12.95,53.14,12.95,4.4,0,8.15-2,11.53-4.81a57.39,57.39,0,0,1-10.47.89h0c-19.61-.19-31.86-1.83-48.45-10.68-13.19-7-30-18.9-23.59-40.58a149.39,149.39,0,0,1,11.1-27.13Z" transform="translate(-14.43 -15.09)"/><path class="cls-1" d="M186.16,180c-.47,5.94-3.17,10.57-6,10.35s-4.8-5.23-4.33-11.17,3.17-10.57,6-10.34S186.63,174.08,186.16,180Z" transform="translate(-14.43 -15.09)"/><path class="cls-2" d="M180.33,192.36H180c-2.18-.18-4-1.85-5.1-4.71a21.73,21.73,0,0,1,1.34-16.92c1.54-2.65,3.55-4.05,5.78-3.84,4.08.32,6.73,6,6.16,13.3h0C187.58,187.22,184.26,192.36,180.33,192.36Zm1.31-21.53c-.46,0-1.24.58-2,1.89a18,18,0,0,0-1.07,13.49c.56,1.45,1.27,2.14,1.72,2.18,1.05.09,3.46-3.09,3.89-8.53h0c.43-5.44-1.38-8.94-2.5-9Z" transform="translate(-14.43 -15.09)"/><path class="cls-1" d="M238.93,200.57a12.21,12.21,0,1,1-12.12-12.4A12.25,12.25,0,0,1,238.93,200.57Z" transform="translate(-14.43 -15.09)"/><path class="cls-2" d="M226.72,214.78h-.1a14.3,14.3,0,0,1,.1-28.59h.1a14.07,14.07,0,0,1,10,4.26,14.32,14.32,0,0,1-10.12,24.33Zm0-24.62a10.33,10.33,0,0,0-.07,20.65h.07a10.29,10.29,0,0,0,10.22-10.26l2,0-2,0a10.25,10.25,0,0,0-2.95-7.32,10.09,10.09,0,0,0-7.2-3.07Z" transform="translate(-14.43 -15.09)"/><path class="cls-3" d="M259.87,349.6l-8.35-25.79a7.43,7.43,0,0,0-7.24-5.09c-43.67.69-74.64-15.38-86.44-22.7a7.45,7.45,0,0,0-9.59,1.44l-10.19,11.81a65.59,65.59,0,0,0-13.92,26.23c-14.21,54.48-1.65,77.37-1.45,77.73A106.64,106.64,0,0,0,143,428.15c31.49,18.18,74.5,25.64,115.47,22.41,9.86-27.38,8.25-60.55,6.29-78.51A111.81,111.81,0,0,0,259.87,349.6Z" transform="translate(-14.43 -15.09)"/><path class="cls-2" d="M239.48,453.3c-36.46,0-71.2-8.25-97.5-23.43a109.38,109.38,0,0,1-20.66-15.2l-.36-.47c-.54-1-13.07-24.23,1.27-79.2a67.8,67.8,0,0,1,14.32-27l10.2-11.82a9.4,9.4,0,0,1,12.14-1.83c11.22,7,41.91,23,85.36,22.41h.16a9.37,9.37,0,0,1,9,6.46L261.76,349a113.55,113.55,0,0,1,4.94,22.84c1.93,17.68,3.66,51.49-6.39,79.41l-.43,1.2-1.29.1C252.2,453.05,245.81,453.3,239.48,453.3ZM124.3,412A105.77,105.77,0,0,0,144,426.43c29.88,17.25,71,25.34,113,22.25,9.3-26.93,7.62-59.34,5.75-76.42A110,110,0,0,0,258,350.21l-8.36-25.78a5.41,5.41,0,0,0-5.22-3.72h-.09c-44.49.68-76-15.86-87.53-23a5.45,5.45,0,0,0-7,1.05l-10.2,11.82A64,64,0,0,0,126.07,336C112.93,386.38,123.05,409.46,124.3,412Z" transform="translate(-14.43 -15.09)"/><path class="cls-1" d="M135.7,403.12c0,3-1.7,5.45-3.8,5.45s-3.81-2.44-3.81-5.45,1.71-5.45,3.81-5.45S135.7,400.11,135.7,403.12Z" transform="translate(-14.43 -15.09)"/><path class="cls-2" d="M131.9,410.55c-3.25,0-5.79-3.26-5.79-7.43s2.54-7.44,5.79-7.44,5.79,3.27,5.79,7.44S135.14,410.55,131.9,410.55Zm0-10.9c-.74,0-1.82,1.35-1.82,3.47s1.08,3.46,1.82,3.46,1.81-1.35,1.81-3.46S132.64,399.65,131.9,399.65Z" transform="translate(-14.43 -15.09)"/><path class="cls-1" d="M156.26,313.6c-1.41,2.66-4,4-5.85,3.06s-2.16-3.9-.75-6.56,4-4,5.86-3.06S157.68,311,156.26,313.6Z" transform="translate(-14.43 -15.09)"/><path class="cls-2" d="M151.69,319a4.66,4.66,0,0,1-2.21-.54,5.23,5.23,0,0,1-2.63-4.18,9.26,9.26,0,0,1,4.67-8.79,5,5,0,0,1,7.56,4,8.92,8.92,0,0,1-1.06,5.08h0a8.86,8.86,0,0,1-3.61,3.71A5.9,5.9,0,0,1,151.69,319Zm2.54-10.24a1.94,1.94,0,0,0-.88.25,5.36,5.36,0,0,0-2.56,4.82c0,.27.15.91.55,1.12a1.41,1.41,0,0,0,1.23-.18,4.92,4.92,0,0,0,1.94-2.06h0a4.87,4.87,0,0,0,.62-2.76,1.45,1.45,0,0,0-.54-1.12A.8.8,0,0,0,154.23,308.72Z" transform="translate(-14.43 -15.09)"/><circle class="cls-1" cx="230.38" cy="420.27" r="5.45"/><path class="cls-2" d="M244.81,442.79a7.44,7.44,0,1,1,7.44-7.44A7.44,7.44,0,0,1,244.81,442.79Zm0-10.9a3.46,3.46,0,1,0,3.46,3.46A3.46,3.46,0,0,0,244.81,431.89Z" transform="translate(-14.43 -15.09)"/><path class="cls-1" d="M243.54,336.69a5.45,5.45,0,1,1-5.45-5.45A5.45,5.45,0,0,1,243.54,336.69Z" transform="translate(-14.43 -15.09)"/><path class="cls-2" d="M238.09,344.12a7.44,7.44,0,1,1,7.43-7.43A7.44,7.44,0,0,1,238.09,344.12Zm0-10.9a3.47,3.47,0,1,0,3.46,3.47A3.47,3.47,0,0,0,238.09,333.22Z" transform="translate(-14.43 -15.09)"/><path class="cls-2" d="M237.74,146.37c-21.46,0-26.65-14-26.87-14.64l3.74-1.33c.21.56,5.33,13.85,27.8,11.77l.37,4C241,146.29,239.33,146.37,237.74,146.37Z" transform="translate(-14.43 -15.09)"/><path class="cls-2" d="M273.87,439.46l-.49-3.94c.34,0,34.23-4.41,60.74-20.48l2.06,3.39C308.92,435,275.29,439.29,273.87,439.46Z" transform="translate(-14.43 -15.09)"/><path class="cls-2" d="M342.26,414.23l-2.39-3.17c.06-.05,5.46-4.28,7.8-14.17l3.87.92C348.84,409.18,342.53,414,342.26,414.23Z" transform="translate(-14.43 -15.09)"/><path class="cls-2" d="M236.24,511.43c-33.48-.8-45.68-22-46.19-22.92l3.47-1.94c.47.83,11.7,20.15,42.82,20.89Z" transform="translate(-14.43 -15.09)"/><path class="cls-2" d="M238.12,578.93c-18,0-27.5-11.57-27.93-12.11l3.11-2.48c.41.51,10.32,12.49,29.32,10.36l.44,3.95A44.77,44.77,0,0,1,238.12,578.93Z" transform="translate(-14.43 -15.09)"/><path class="cls-2" d="M183.9,122.18l-2.82-2.8c.82-.83,20.49-20.32,53-23.77l.41,4C203.38,102.86,184.09,122,183.9,122.18Z" transform="translate(-14.43 -15.09)"/><path class="cls-2" d="M282.74,519.85l-2-3.41c.23-.13,22.83-13.81,32.68-36.39l3.64,1.59C306.66,505.41,283.71,519.27,282.74,519.85Z" transform="translate(-14.43 -15.09)"/><path class="cls-2" d="M94.72,369.26l-3.92-.6c0-.37,5.79-37,12.87-58l3.77,1.27C100.46,332.58,94.78,368.9,94.72,369.26Z" transform="translate(-14.43 -15.09)"/><path class="cls-2" d="M265.52,102.37c-6.6-2.42-21.88-2.79-22-2.8l.09-4c.66,0,16.09.4,23.31,3Z" transform="translate(-14.43 -15.09)"/><path class="cls-2" d="M264.33,526.65l-1-3.84a91.36,91.36,0,0,0,13.32-5l1.69,3.6A94.71,94.71,0,0,1,264.33,526.65Z" transform="translate(-14.43 -15.09)"/><path class="cls-2" d="M384.34,355.71a505.49,505.49,0,0,0-20-74.1l3.75-1.32A510.82,510.82,0,0,1,388.24,355Z" transform="translate(-14.43 -15.09)"/><path class="cls-2" d="M361.42,273.72c-4.51-12.12-7.77-19.35-7.8-19.42l3.61-1.64c0,.07,3.35,7.41,7.92,19.67Z" transform="translate(-14.43 -15.09)"/><path class="cls-2" d="M290.88,234.09l-1.62-3.62c.16-.08,16.41-7.52,17-20.68l4,.17C309.53,225.59,291.64,233.75,290.88,234.09Z" transform="translate(-14.43 -15.09)"/><path class="cls-2" d="M220.13,383.2c1.19-16.89-11.64-35.14-28.3-39.58-1.91-.52-10.28-.82-12.1-.91,0,0-16.1,8.91-16.35,23-.25,13.88,8,27.92,20.57,34.57a2,2,0,0,1,.91,1c.83,1.81,2.83,6.92.51,9.65-.26.29-3.92,1.31-3.49,1.44,3.19,1,16.09,2.38,16.79-7.9l1.3,0C211.57,404.38,219.21,396.2,220.13,383.2Z" transform="translate(-14.43 -15.09)"/><path class="cls-2" d="M187.17,415a21.43,21.43,0,0,1-5.87-.75l-1.38-.43-.06-1.47c0-1.55,1.13-1.94,3-2.6.42-.15.84-.28,1.14-.4,1-1.61.1-4.86-1-7.27-13.23-7-21.92-21.63-21.65-36.4.26-15,16.67-24.28,17.37-24.67l.49-.27,1.37.06c5.09.22,10,.49,11.72.94,17.4,4.64,31,23.72,29.76,41.64h0c-1,14.05-9.3,22.83-21.71,23a9.86,9.86,0,0,1-4.1,6.24A16.42,16.42,0,0,1,187.17,415Zm-6.94-70.24c-2.54,1.55-14.66,9.55-14.87,21a37.23,37.23,0,0,0,19.52,32.78,4.17,4.17,0,0,1,1.79,1.9c1.19,2.61,2.75,7.21,1,10.61a12,12,0,0,0,6.39-1.69,6.2,6.2,0,0,0,2.64-5l.12-1.79,3.09-.11h0c10.58,0,17.36-7.22,18.22-19.32,1.14-16.15-11.15-33.34-26.83-37.53a92.07,92.07,0,0,0-10.86-.8Z" transform="translate(-14.43 -15.09)"/><path class="cls-1" d="M214.57,383.2c1.2-16.89-11.64-35.14-28.29-39.58-15.31-4.1-28.17,6-28.46,22.06-.25,13.88,8,27.92,20.57,34.57a2,2,0,0,1,.91,1c.83,1.81,2.83,6.92.51,9.65-.26.29,0,.88.44,1,3.19,1,12.16,2.8,12.86-7.48l1.31,0C206,404.38,213.65,396.2,214.57,383.2Z" transform="translate(-14.43 -15.09)"/><path class="cls-2" d="M185.09,414.66a18.75,18.75,0,0,1-5.43-.88,2.78,2.78,0,0,1-1.83-1.89,2.51,2.51,0,0,1,.47-2.32c1.27-1.48.36-5-.8-7.53-13.24-7-21.93-21.63-21.66-36.4.15-8.42,3.66-15.83,9.63-20.33s13.45-5.71,21.32-3.61c17.4,4.64,31,23.72,29.76,41.64-1,14-9.28,22.81-21.67,23A9.7,9.7,0,0,1,191,413,10.29,10.29,0,0,1,185.09,414.66Zm-2.71-4.27c1.87.38,4.52.6,6.35-.65,1.41-1,2.22-2.81,2.4-5.46l.12-1.79,3.09-.11h0c10.59,0,17.36-7.22,18.22-19.32h0c1.15-16.15-11.14-33.34-26.83-37.53-6.65-1.78-13-.73-17.9,3-5.06,3.82-7.92,9.94-8.05,17.23a37.2,37.2,0,0,0,19.51,32.78,4.12,4.12,0,0,1,1.79,1.9C182.23,402.85,183.68,407.07,182.38,410.39Z" transform="translate(-14.43 -15.09)"/><path class="cls-3" d="M175.83,371.06a3.32,3.32,0,0,1-4.65,3,6.2,6.2,0,0,1-4-5.95,3.32,3.32,0,0,1,4.65-3A6.21,6.21,0,0,1,175.83,371.06Z" transform="translate(-14.43 -15.09)"/><path class="cls-2" d="M172.55,376.28a6.19,6.19,0,0,1-2-.34,8.18,8.18,0,0,1-5.35-8,5.43,5.43,0,0,1,2.35-4.23,5.55,5.55,0,0,1,4.92-.52,8.19,8.19,0,0,1,5.35,8h0a5.46,5.46,0,0,1-2.35,4.23A5.27,5.27,0,0,1,172.55,376.28Zm-2.1-9.43a1.22,1.22,0,0,0-.72.2,1.53,1.53,0,0,0-.58,1.2,4.23,4.23,0,0,0,2.67,3.93,1.63,1.63,0,0,0,1.45-.06,1.53,1.53,0,0,0,.58-1.2,4.24,4.24,0,0,0-2.67-3.94A2.56,2.56,0,0,0,170.45,366.85Z" transform="translate(-14.43 -15.09)"/><path class="cls-3" d="M190.5,376.05a3.33,3.33,0,0,1-4.65,3,6.2,6.2,0,0,1-4-6,3.31,3.31,0,0,1,4.64-3A6.21,6.21,0,0,1,190.5,376.05Z" transform="translate(-14.43 -15.09)"/><path class="cls-2" d="M187.22,381.28a6.47,6.47,0,0,1-2-.34,8.19,8.19,0,0,1-5.35-8,5.48,5.48,0,0,1,2.34-4.23,5.57,5.57,0,0,1,4.93-.51,8.17,8.17,0,0,1,5.35,8,5.43,5.43,0,0,1-2.35,4.23A5.2,5.2,0,0,1,187.22,381.28Zm-2.11-9.43a1.26,1.26,0,0,0-.71.19,1.5,1.5,0,0,0-.58,1.2,4.24,4.24,0,0,0,2.67,3.94,1.63,1.63,0,0,0,1.45-.07,1.49,1.49,0,0,0,.57-1.2,4.21,4.21,0,0,0-2.66-3.93A2.27,2.27,0,0,0,185.11,371.85Z" transform="translate(-14.43 -15.09)"/><path class="cls-3" d="M205.16,381.05a3.31,3.31,0,0,1-4.64,3,6.21,6.21,0,0,1-4-5.95,3.32,3.32,0,0,1,4.65-3A6.2,6.2,0,0,1,205.16,381.05Z" transform="translate(-14.43 -15.09)"/><path class="cls-2" d="M201.88,386.27a6.14,6.14,0,0,1-2-.34,8.19,8.19,0,0,1-5.36-8,5.44,5.44,0,0,1,2.35-4.23,5.55,5.55,0,0,1,4.92-.52,8.19,8.19,0,0,1,5.35,8h0a5.45,5.45,0,0,1-2.34,4.23A5.28,5.28,0,0,1,201.88,386.27Zm-2.1-9.43a1.24,1.24,0,0,0-.71.2,1.48,1.48,0,0,0-.58,1.2,4.21,4.21,0,0,0,2.66,3.93,1.67,1.67,0,0,0,1.45-.06,1.5,1.5,0,0,0,.58-1.2,4.23,4.23,0,0,0-2.67-3.94A2.21,2.21,0,0,0,199.78,376.84Z" transform="translate(-14.43 -15.09)"/><path class="cls-3" d="M146.05,38.68a.69.69,0,0,0-.28-.9l-28.46-16c-1.07-.69-3.36-1.89-3.36-1.89h0c-11.85-5.52-28.11-3-45.72,9.43C41,48.47,19.23,86.64,16.68,119.6c-1.3,16.83,2.31,29.78,9.27,38h0L62,198c.33.36,25.39,14.2,28.87,16.12a.28.28,0,0,0,.41-.24l1.85-68c21.52-20.66,37.49-52.12,39.74-80.35l1.21-1.63Z" transform="translate(-14.43 -15.09)"/><path class="cls-2" d="M91.05,216.1a2.21,2.21,0,0,1-1.09-.28c-28.84-15.91-29.09-16.19-29.4-16.53L23.49,157.87l.05-.08c-7-9-10.08-22.27-8.84-38.34C17.3,85.8,39.33,47.21,67.08,27.68c17.55-12.35,34.51-15.76,47.71-9.6.08,0,2.47,1.3,3.6,2l28.35,15.95a2.67,2.67,0,0,1,1.11,3.47L135.72,65.08l-.87,1.18c-2.41,27.83-17.92,59.27-39.71,80.48L93.28,215l-1.11.79A2.27,2.27,0,0,1,91.05,216.1Zm-27.7-19.65c1.68,1,13.76,7.74,26.06,14.53l1.8-66,.59-.56c21.59-20.73,37-51.77,39.13-79.07l0-.57,1.43-1.93,11.33-24L116.34,23.5c-1.13-.72-3.3-1.85-3.31-1.86-11.61-5.41-27.55-2-43.66,9.29-26.86,18.9-48.19,56.26-50.71,88.83-1.21,15.67,1.84,28.32,8.81,36.58l.17.2Z" transform="translate(-14.43 -15.09)"/><path class="cls-1" d="M121.44,102.66,123,99h0c6.78-15.86,10.29-32.53,9-47.46-.1-1.18-.24-2.33-.4-3.47l11.15-10.56a.65.65,0,0,0-.13-1l-26.21-15c-.65-.41-2.07-1.18-2.07-1.18-8.73-4.46-20-4.31-32.53,1.33C67,28.3,53.09,41.08,42.14,56.56Z" transform="translate(-14.43 -15.09)"/><path class="cls-2" d="M122.36,105.49,39.27,57.19l1.25-1.77c11.63-16.44,26-29.1,40.53-35.64,12.6-5.68,24.76-6.14,34.25-1.29.06,0,1.54.84,2.22,1.27l26.15,15a2.64,2.64,0,0,1,.51,4.2l-10.41,9.87c.1.84.2,1.68.27,2.56,1.25,14.69-1.92,31.43-9.18,48.4ZM45,56l75.49,43.88.7-1.61c7-16.36,10.06-32.44,8.87-46.49-.1-1.15-.24-2.26-.4-3.35l-.14-1,10.6-10L115.48,23.17c-.68-.43-2-1.17-2-1.17-8.46-4.33-19.12-3.85-30.76,1.4C69.33,29.42,56,40.94,45,56Z" transform="translate(-14.43 -15.09)"/><path class="cls-2" d="M55.22,174h0c-7-8.25-10.58-21.2-9.28-38C48.5,103,70.27,64.81,97.5,45.65c35.19-24.77,65-10.25,65,29.49,0,37.24-26.14,82.52-58.39,101.14-.92.53-1.84,1-2.75,1.5h0c-3,9.3-3,19.62-2,28.51.54,4.92-5.42,10.87-8,8Z" transform="translate(-14.43 -15.09)"/><path class="cls-2" d="M93,217a4.11,4.11,0,0,1-3.15-1.41l-37-41.33,0-.07c-7.08-9.06-10.15-22.31-8.91-38.43C46.57,102.14,68.61,63.55,96.35,44,114.23,31.45,132,28.15,145.2,35c12.42,6.45,19.26,20.71,19.26,40.16,0,37.81-26.64,84-59.38,102.86-.7.4-1.4.78-2.09,1.15-2.27,7.57-2.84,16.63-1.71,26.93.47,4.35-2.82,9-6.07,10.45A5.44,5.44,0,0,1,93,217Zm-36.12-44.2L92.79,213c0,.05.19.19.8-.08,1.91-.85,4-4,3.74-6.39-1.23-11.21-.52-21.07,2.11-29.33l.25-.77.71-.38c.9-.47,1.79-1,2.69-1.48,31.65-18.27,57.4-62.87,57.4-99.41,0-17.89-6.08-30.9-17.12-36.63-11.81-6.13-28.1-2.94-44.73,8.76-26.86,18.9-48.19,56.26-50.71,88.83-1.21,15.68,1.84,28.33,8.81,36.58Z" transform="translate(-14.43 -15.09)"/><path class="cls-2" d="M124.11,97.78c0,6.38,4.48,9,10,5.78s10-11,10-17.34-4.48-9-10-5.78S124.11,91.39,124.11,97.78Z" transform="translate(-14.43 -15.09)"/><path class="cls-3" d="M129.65,106.92a7.06,7.06,0,0,1-3.6-.94c-2.53-1.46-3.93-4.37-3.93-8.2,0-7.13,4.84-15.5,11-19.06,3.32-1.92,6.54-2.17,9.06-.71s3.93,4.38,3.93,8.21c0,7.12-4.83,15.5-11,19.06A11.1,11.1,0,0,1,129.65,106.92Zm8.95-25.86a7.12,7.12,0,0,0-3.48,1.1c-4.9,2.82-9,10-9,15.62,0,2.31.7,4,1.93,4.76s3.1.46,5.1-.7c4.89-2.82,9-10,9-15.62,0-2.32-.71-4-1.94-4.77A3.25,3.25,0,0,0,138.6,81.06Z" transform="translate(-14.43 -15.09)"/><path class="cls-2" d="M93.93,115.2c0,6.39,4.48,9,10,5.78s10-11,10-17.34-4.48-9-10-5.78S93.93,108.82,93.93,115.2Z" transform="translate(-14.43 -15.09)"/><path class="cls-3" d="M99.46,124.35a7.15,7.15,0,0,1-3.59-.94c-2.53-1.47-3.93-4.38-3.93-8.21,0-7.12,4.84-15.49,11-19.06,3.32-1.91,6.54-2.16,9.06-.7s3.93,4.37,3.93,8.2c0,7.13-4.84,15.5-11,19.06A11,11,0,0,1,99.46,124.35Zm9-25.87a7.18,7.18,0,0,0-3.48,1.1c-4.89,2.82-9,10-9,15.62,0,2.32.71,4,1.94,4.77s3.09.45,5.1-.71c4.89-2.82,9-10,9-15.62,0-2.31-.71-4-1.94-4.76A3.17,3.17,0,0,0,108.41,98.48Z" transform="translate(-14.43 -15.09)"/><path class="cls-2" d="M64,132.46c0,6.39,4.48,9,10,5.79s10-11,10-17.35-4.49-9-10-5.78S64,126.08,64,132.46Z" transform="translate(-14.43 -15.09)"/><path class="cls-3" d="M69.57,141.61a7.09,7.09,0,0,1-3.6-.94c-2.53-1.46-3.93-4.38-3.93-8.21,0-7.12,4.84-15.49,11-19.06,3.32-1.91,6.54-2.16,9.06-.7S86,117.08,86,120.9C86,128,81.21,136.4,75,140A11.1,11.1,0,0,1,69.57,141.61Zm9-25.86A7.2,7.2,0,0,0,75,116.84c-4.89,2.82-9,10-9,15.62,0,2.32.7,4.06,1.94,4.77s3.09.45,5.09-.7c4.89-2.83,9-10,9-15.63,0-2.31-.71-4.05-1.94-4.76A3.15,3.15,0,0,0,78.52,115.75Z" transform="translate(-14.43 -15.09)"/><path class="cls-3" d="M23.86,154.72l36.57,20.55Z" transform="translate(-14.43 -15.09)"/><rect class="cls-2" x="40.16" y="144.02" width="3.97" height="41.95" transform="translate(-136.78 105.84) rotate(-60.67)"/><path class="cls-3" d="M16.42,124.25,53,144.8Z" transform="translate(-14.43 -15.09)"/><rect class="cls-2" x="32.72" y="113.55" width="3.97" height="41.95" transform="translate(-114.01 83.81) rotate(-60.68)"/><path class="cls-3" d="M81.27,21l36.57,20.55Z" transform="translate(-14.43 -15.09)"/><rect class="cls-2" x="97.57" y="10.28" width="3.97" height="41.95" transform="translate(9.12 87.67) rotate(-60.68)"/></svg>