<svg id="Layer_1" data-name="Layer 1" xmlns="http://www.w3.org/2000/svg" xmlns:xlink="http://www.w3.org/1999/xlink" viewBox="0 0 817.01 877.55"><defs><style>.cls-1{fill:none;}.cls-2{clip-path:url(#clip-path);}.cls-3{fill:#150035;}.cls-4{fill:#fff;}.cls-5{fill:#39a1ff;}</style><clipPath id="clip-path" transform="translate(211.86 -10)"><path class="cls-1" d="M40.56,582,346.24,758.52c3.81,2.19,10.46,1.92,14.86-.62l37.5-21.65c4.4-2.54,4.88-6.38,1.07-8.58L94,551.19c-3.81-2.2-10.46-1.93-14.86.61l-37.5,21.65C37.23,576,36.76,579.83,40.56,582Z"/></clipPath></defs><title>features-2</title><g class="cls-2"><rect class="cls-3" x="-167.05" y="597.11" width="543.9" height="2.21" transform="translate(-72.99 122.43) rotate(-29.98)"/><rect class="cls-3" x="-161.01" y="600.33" width="543.91" height="2.21" transform="translate(-73.66 125.77) rotate(-29.96)"/><rect class="cls-3" x="-155.54" y="603.75" width="543.9" height="2.22" transform="translate(-74.64 128.96) rotate(-29.96)"/><rect class="cls-3" x="-149.39" y="606.9" width="543.91" height="2.21" transform="translate(-75.39 132.45) rotate(-29.96)"/><rect class="cls-3" x="-144.32" y="610.44" width="543.9" height="2.22" transform="translate(-76.48 135.46) rotate(-29.96)"/><rect class="cls-3" x="-138.29" y="613.65" width="543.91" height="2.22" transform="translate(-77.28 138.9) rotate(-29.96)"/><rect class="cls-3" x="-132.81" y="617.08" width="543.9" height="2.21" transform="translate(-78.26 142.09) rotate(-29.96)"/><rect class="cls-3" x="-126.66" y="620.23" width="543.91" height="2.21" transform="translate(-78.79 145.37) rotate(-29.93)"/><rect class="cls-3" x="-121.19" y="623.65" width="543.9" height="2.21" transform="translate(-79.99 148.77) rotate(-29.96)"/><rect class="cls-3" x="-115.06" y="626.86" width="543.9" height="2.22" transform="translate(-80.9 152.39) rotate(-29.98)"/><rect class="cls-3" x="-109.58" y="630.29" width="543.91" height="2.22" transform="translate(-81.75 155.45) rotate(-29.96)"/><rect class="cls-3" x="-103.43" y="633.44" width="543.9" height="2.22" transform="translate(-82.63 159.07) rotate(-29.98)"/><rect class="cls-3" x="-98.36" y="636.97" width="543.91" height="2.22" transform="translate(-83.59 161.95) rotate(-29.96)"/><rect class="cls-3" x="-92.33" y="640.18" width="543.9" height="2.22" transform="translate(-84.39 165.39) rotate(-29.96)"/><rect class="cls-3" x="-86.86" y="643.61" width="543.91" height="2.22" transform="translate(-85.37 168.58) rotate(-29.96)"/><rect class="cls-3" x="-80.71" y="646.76" width="543.91" height="2.22" transform="translate(-86.12 172.08) rotate(-29.96)"/><rect class="cls-3" x="-75.23" y="650.19" width="543.9" height="2.22" transform="translate(-87.1 175.27) rotate(-29.96)"/><rect class="cls-3" x="-247.67" y="550.86" width="543.91" height="2.21" transform="translate(-60.54 75.88) rotate(-29.96)"/><rect class="cls-3" x="-241.52" y="554.01" width="543.91" height="2.21" transform="translate(-61.42 79.46) rotate(-29.98)"/><rect class="cls-3" x="-236.45" y="557.54" width="543.91" height="2.21" transform="translate(-62.38 82.38) rotate(-29.96)"/><rect class="cls-3" x="-230.42" y="560.76" width="543.9" height="2.21" transform="translate(-63.18 85.82) rotate(-29.96)"/><rect class="cls-3" x="-224.94" y="564.19" width="543.91" height="2.22" transform="translate(-64.38 89.16) rotate(-29.99)"/><rect class="cls-3" x="-218.8" y="567.34" width="543.91" height="2.22" transform="translate(-64.91 92.5) rotate(-29.96)"/><rect class="cls-3" x="-213.32" y="570.76" width="543.9" height="2.21" transform="translate(-65.89 95.69) rotate(-29.96)"/><rect class="cls-3" x="-207.19" y="573.97" width="543.9" height="2.21" transform="translate(-66.67 99.18) rotate(-29.96)"/><rect class="cls-3" x="-201.72" y="577.4" width="543.91" height="2.21" transform="translate(-67.65 102.38) rotate(-29.96)"/><rect class="cls-3" x="-195.57" y="580.54" width="543.9" height="2.21" transform="translate(-68.4 105.87) rotate(-29.96)"/><rect class="cls-3" x="-190.49" y="584.08" width="543.91" height="2.21" transform="translate(-69.61 108.97) rotate(-29.98)"/><rect class="cls-3" x="-184.46" y="587.29" width="543.9" height="2.21" transform="translate(-70.28 112.32) rotate(-29.96)"/><rect class="cls-3" x="-178.99" y="590.72" width="543.91" height="2.22" transform="translate(-71.27 115.51) rotate(-29.96)"/><rect class="cls-3" x="-172.84" y="593.87" width="543.9" height="2.21" transform="translate(-72.02 119) rotate(-29.96)"/><rect class="cls-3" x="-167.36" y="597.3" width="543.91" height="2.22" transform="matrix(0.87, -0.5, 0.5, 0.87, -73.35, 122.48)"/><rect class="cls-3" x="5.24" y="696.55" width="543.9" height="2.22" transform="translate(-99.63 221.81) rotate(-29.98)"/><rect class="cls-3" x="11.27" y="699.77" width="543.91" height="2.22" transform="translate(-100.52 225.38) rotate(-29.99)"/><rect class="cls-3" x="16.75" y="703.19" width="543.9" height="2.22" transform="translate(-101.28 228.28) rotate(-29.96)"/><rect class="cls-3" x="22.9" y="706.34" width="543.9" height="2.22" transform="translate(-102.03 231.77) rotate(-29.96)"/><rect class="cls-3" x="27.97" y="709.88" width="543.9" height="2.22" transform="translate(-103.12 234.78) rotate(-29.96)"/><rect class="cls-3" x="34" y="713.09" width="543.91" height="2.22" transform="translate(-104.04 238.39) rotate(-29.98)"/><rect class="cls-3" x="39.47" y="716.52" width="543.91" height="2.22" transform="translate(-105.02 241.59) rotate(-29.98)"/><rect class="cls-3" x="45.62" y="719.67" width="543.9" height="2.22" transform="translate(-105.65 244.91) rotate(-29.96)"/><rect class="cls-3" x="51.1" y="723.09" width="543.91" height="2.22" transform="matrix(0.87, -0.5, 0.5, 0.87, -106.98, 248.58)"/><rect class="cls-3" x="57.23" y="726.3" width="543.91" height="2.22" transform="translate(-107.54 251.77) rotate(-29.98)"/><rect class="cls-3" x="62.7" y="729.73" width="543.9" height="2.22" transform="translate(-108.39 254.78) rotate(-29.96)"/><rect class="cls-3" x="68.85" y="732.88" width="543.91" height="2.22" transform="translate(-109.49 258.77) rotate(-30)"/><rect class="cls-3" x="73.92" y="736.41" width="543.9" height="2.22" transform="translate(-110.35 261.46) rotate(-29.98)"/><rect class="cls-3" x="79.96" y="739.62" width="543.9" height="2.22" transform="translate(-111.03 264.72) rotate(-29.96)"/><rect class="cls-3" x="85.43" y="743.05" width="543.9" height="2.22" transform="translate(-112.01 267.91) rotate(-29.96)"/><rect class="cls-3" x="91.58" y="746.2" width="543.91" height="2.22" transform="translate(-112.88 271.59) rotate(-29.98)"/><rect class="cls-3" x="97.05" y="749.63" width="543.91" height="2.22" transform="translate(-113.74 274.59) rotate(-29.96)"/><rect class="cls-3" x="-69.24" y="653.45" width="543.9" height="2.22" transform="translate(-87.93 178.7) rotate(-29.96)"/><rect class="cls-3" x="-64.17" y="656.98" width="543.91" height="2.22" transform="translate(-89.01 181.7) rotate(-29.96)"/><rect class="cls-3" x="-58.13" y="660.2" width="543.91" height="2.22" transform="translate(-89.81 185.14) rotate(-29.96)"/><rect class="cls-3" x="-52.66" y="663.63" width="543.9" height="2.22" transform="translate(-90.79 188.34) rotate(-29.96)"/><rect class="cls-3" x="-46.51" y="666.78" width="543.9" height="2.22" transform="translate(-91.55 191.83) rotate(-29.96)"/><rect class="cls-3" x="-41.04" y="670.2" width="543.9" height="2.22" transform="translate(-92.53 195.02) rotate(-29.96)"/><rect class="cls-3" x="-34.9" y="673.41" width="543.9" height="2.22" transform="translate(-93.43 198.66) rotate(-29.98)"/><rect class="cls-3" x="-29.43" y="676.84" width="543.91" height="2.22" transform="translate(-94.64 202.11) rotate(-30)"/><rect class="cls-3" x="-23.28" y="679.98" width="543.91" height="2.22" transform="translate(-95.04 205.19) rotate(-29.96)"/><rect class="cls-3" x="-18.21" y="683.52" width="543.91" height="2.22" transform="translate(-96.12 208.2) rotate(-29.96)"/><rect class="cls-3" x="-12.18" y="686.73" width="543.9" height="2.22" transform="translate(-96.92 211.64) rotate(-29.96)"/><rect class="cls-3" x="-6.7" y="690.16" width="543.91" height="2.22" transform="translate(-97.9 214.83) rotate(-29.96)"/><rect class="cls-3" x="-0.55" y="693.31" width="543.91" height="2.22" transform="translate(-98.88 218.6) rotate(-29.99)"/><rect class="cls-3" x="4.92" y="696.74" width="543.9" height="2.22" transform="translate(-99.63 221.51) rotate(-29.96)"/></g><path class="cls-3" d="M369,711.09a31.54,31.54,0,0,0,2.83-14V234.24c0-19-11.52-41-25.74-49.18L64.41,24c-6-3.47-11.52-3.89-15.9-1.82h0c-7.64,2.69-14.42,9.24-14.42,9.24l4.85,7.41h0a40.31,40.31,0,0,0-.28,4.64V506.38c0,19,11.52,41,25.74,49.18l281.69,161,4.6,9a28.23,28.23,0,0,0,17.8-13.5c0-.07.06-.12.1-.18l.38-.76Z" transform="translate(211.86 -10)"/><path class="cls-3" d="M349.64,727.75l-5-9.78L63.46,557.23c-14.73-8.5-26.71-31.31-26.71-50.85V43.49A40.12,40.12,0,0,1,37,39.38L31.6,31.17l1.14-1.1c.29-.28,7.17-6.88,15.11-9.67l.15-.06c5-2.24,11.2-1.52,17.37,2l281.68,161c14.73,8.5,26.71,31.31,26.71,50.84V697.13a33.38,33.38,0,0,1-3,14.78l-.47.94a30.14,30.14,0,0,1-19.23,14.64ZM41.13,36.39l-.27,2.68a37.44,37.44,0,0,0-.27,4.42V506.38c0,18.32,11.11,39.63,24.78,47.52L347.55,715.21l4.15,8.14a26.67,26.67,0,0,0,15.13-12.18l.43-.86,1.75.78-1.72-.84a29.61,29.61,0,0,0,2.63-13.12V234.24c0-18.31-11.11-39.63-24.78-47.51L63.46,25.7c-5.25-3-10.14-3.63-14.13-1.74l-.95.44-.11-.06a44.27,44.27,0,0,0-11.69,7.44l3.21,4.91Z" transform="translate(211.86 -10)"/><path class="cls-4" d="M334.84,723.74l-281.69-161c-14.22-8.21-25.74-30.23-25.74-49.18V50.64c0-18.95,11.52-27.67,25.74-19.46l281.69,161c14.22,8.21,25.74,30.22,25.74,49.18V704.28C360.58,723.23,349.06,731.94,334.84,723.74Z" transform="translate(211.86 -10)"/><path class="cls-3" d="M345.08,728.74a22.6,22.6,0,0,1-11.19-3.34L52.2,564.37c-14.73-8.5-26.71-31.31-26.71-50.84V50.64c0-10.67,3.59-18.86,9.86-22.48,5.29-3.06,11.95-2.57,18.76,1.36l281.68,161c14.74,8.51,26.71,31.31,26.71,50.85V704.28c0,10.67-3.59,18.86-9.85,22.48A15,15,0,0,1,345.08,728.74ZM42.92,30a11.13,11.13,0,0,0-5.65,1.47c-5.05,2.91-7.94,9.89-7.94,19.15V513.53c0,18.31,11.12,39.63,24.78,47.52l281.69,161c5.57,3.21,10.87,3.69,14.93,1.35,5-2.91,7.93-9.89,7.93-19.15V241.39c0-18.31-11.11-39.63-24.78-47.52L52.2,32.85A18.82,18.82,0,0,0,42.92,30Z" transform="translate(211.86 -10)"/><path class="cls-5" d="M326.8,198.65,50.31,40.62c-7.16-4.13-13-.75-13,7.51V514.88c0,15.17,10.75,33.8,23.9,41.39l276.49,158c7.15,4.13,13,.75,13-7.51V240C350.7,224.86,339.94,206.24,326.8,198.65Z" transform="translate(211.86 -10)"/><path class="cls-3" d="M343.47,718a13.56,13.56,0,0,1-6.74-2l-276.49-158C46.53,550,35.38,530.7,35.38,514.88V48.13c0-4.71,1.7-8.28,4.78-10.06s7-1.46,11.11.89L327.76,197c13.71,7.91,24.86,27.23,24.86,43V706.78c0,4.71-1.7,8.29-4.78,10.07A8.64,8.64,0,0,1,343.47,718ZM44.53,40.78a4.75,4.75,0,0,0-2.45.62c-1.85,1.06-2.86,3.45-2.86,6.73V514.88c0,14.6,10.29,32.43,22.94,39.73l276.48,158c2.85,1.64,5.43,2,7.28.89s2.86-3.46,2.86-6.74V240c0-14.6-10.29-32.42-22.94-39.73L49.35,42.29A9.82,9.82,0,0,0,44.53,40.78Z" transform="translate(211.86 -10)"/><path class="cls-3" d="M340.82,712.19l-276.49-158c-13.15-7.59-23.9-26.21-23.9-41.39V46c0-3.08.15-4.21,1.54-5.8C38.75,41.11,37.3,43,37.3,48V514.72c0,15.18,10.75,33.8,23.9,41.39l276.49,158c4.49,2.6,7.13,1.69,9.47-1C345,713.74,343.69,713.84,340.82,712.19Z" transform="translate(211.86 -10)"/><path class="cls-3" d="M342.43,717.6a11.54,11.54,0,0,1-5.7-1.8l-276.49-158c-13.71-7.92-24.86-27.24-24.86-43.06V48c0-5.56,1.82-8.42,6.09-9.59l6.14-1.67L43.42,41.5c-.89,1-1.07,1.48-1.07,4.53V512.77c0,14.6,10.29,32.43,22.94,39.73l276.49,158c2.38,1.37,3.17,1.23,4.88.77l6.13-1.67-4.18,4.78C346.74,716.54,344.72,717.6,342.43,717.6Z" transform="translate(211.86 -10)"/><rect class="cls-5" x="354.01" y="209.67" width="11.52" height="2.22" transform="translate(154.72 194.25) rotate(-29.47)"/><path class="cls-5" d="M52.67,30.88,51,29.38A23.86,23.86,0,0,1,62.27,23l.5,2.15A22.06,22.06,0,0,0,52.67,30.88Z" transform="translate(211.86 -10)"/><path class="cls-5" d="M58,33.93l-1.63-1.5A23.86,23.86,0,0,1,67.61,26l.49,2.15A21.94,21.94,0,0,0,58,33.93Z" transform="translate(211.86 -10)"/><rect class="cls-5" x="359.03" y="223.29" width="11.52" height="2.22" transform="translate(150.11 175.89) rotate(-26.44)"/><path class="cls-5" d="M362,687.64l-1-2c.07,0,6.56-3.44,10.12-6.76l1.51,1.62C368.82,684.07,362.28,687.5,362,687.64Z" transform="translate(211.86 -10)"/><path class="cls-5" d="M362,704.14l-1-2c.07,0,6.56-3.44,10.12-6.76L372.6,697C368.82,700.56,362.28,704,362,704.14Z" transform="translate(211.86 -10)"/><path class="cls-5" d="M362,710.87l-1-2c.07,0,6.56-3.44,10.12-6.76l1.51,1.62C368.82,707.3,362.28,710.73,362,710.87Z" transform="translate(211.86 -10)"/><path class="cls-3" d="M366.46,388.13l-.43.24c-1.58.92-2.86-.05-2.86-2.16V362.46A6.85,6.85,0,0,1,366,357l.43-.25c1.58-.91,2.86.06,2.86,2.17v23.75A6.88,6.88,0,0,1,366.46,388.13Z" transform="translate(211.86 -10)"/><path class="cls-5" d="M364.89,389.82a2.54,2.54,0,0,1-1.29-.34,3.59,3.59,0,0,1-1.54-3.27V362.46a8,8,0,0,1,3.42-6.43l.43-.25a2.94,2.94,0,0,1,3-.15,3.6,3.6,0,0,1,1.54,3.27v23.76a8,8,0,0,1-3.42,6.43l-.42.24A3.4,3.4,0,0,1,364.89,389.82Zm2.71-32.32a1.32,1.32,0,0,0-.59.2l-.42.24a5.81,5.81,0,0,0-2.31,4.52v23.75a1.68,1.68,0,0,0,.43,1.36c.22.12.61-.06.77-.15l.43-.25a5.83,5.83,0,0,0,2.31-4.51V358.9c0-.76-.22-1.23-.44-1.35A.37.37,0,0,0,367.6,357.5Z" transform="translate(211.86 -10)"/><path class="cls-3" d="M366.46,350l-.43.25c-1.58.91-2.86-.06-2.86-2.17V324.35a6.85,6.85,0,0,1,2.86-5.47l.43-.25c1.58-.91,2.86.06,2.86,2.17v23.75A6.85,6.85,0,0,1,366.46,350Z" transform="translate(211.86 -10)"/><path class="cls-5" d="M364.89,351.71a2.63,2.63,0,0,1-1.29-.33,3.61,3.61,0,0,1-1.54-3.28V324.35a8,8,0,0,1,3.42-6.43l.43-.25a2.94,2.94,0,0,1,3-.15,3.61,3.61,0,0,1,1.54,3.28v23.75A8,8,0,0,1,367,351l-.42.24A3.4,3.4,0,0,1,364.89,351.71Zm2.71-32.32a1.32,1.32,0,0,0-.59.2l-.42.25a5.8,5.8,0,0,0-2.31,4.51V348.1c0,.77.22,1.23.43,1.36s.61-.06.77-.15l.43-.25a5.83,5.83,0,0,0,2.31-4.51V320.8c0-.77-.22-1.24-.44-1.36A.37.37,0,0,0,367.6,319.39Z" transform="translate(211.86 -10)"/><path class="cls-3" d="M366.46,306.55l-.43.24c-1.58.92-2.86-.05-2.86-2.16V291.27A6.85,6.85,0,0,1,366,285.8l.43-.25c1.58-.91,2.86.06,2.86,2.17v13.36A6.85,6.85,0,0,1,366.46,306.55Z" transform="translate(211.86 -10)"/><path class="cls-5" d="M364.89,308.24a2.54,2.54,0,0,1-1.29-.34,3.58,3.58,0,0,1-1.54-3.27V291.27a8,8,0,0,1,3.42-6.43l.43-.24a2.92,2.92,0,0,1,3-.16,3.61,3.61,0,0,1,1.54,3.28v13.36a8,8,0,0,1-3.42,6.43l-.42.24A3.4,3.4,0,0,1,364.89,308.24Zm2.71-21.92a1.46,1.46,0,0,0-.59.19l-.42.25a5.8,5.8,0,0,0-2.31,4.51v13.36a1.68,1.68,0,0,0,.43,1.36c.22.12.61-.06.77-.15l.43-.25a5.83,5.83,0,0,0,2.31-4.51V287.72c0-.76-.22-1.23-.44-1.36A.37.37,0,0,0,367.6,286.32Z" transform="translate(211.86 -10)"/><path class="cls-5" d="M366.46,296.15l-.43.25c-1.58.91-2.86-.06-2.86-2.16v-3A6.85,6.85,0,0,1,366,285.8l.43-.25c1.58-.91,2.86.06,2.86,2.17v3A6.85,6.85,0,0,1,366.46,296.15Z" transform="translate(211.86 -10)"/><path class="cls-5" d="M364.89,297.85a2.54,2.54,0,0,1-1.29-.34,3.6,3.6,0,0,1-1.54-3.27v-3a8,8,0,0,1,3.42-6.43l.43-.24a2.92,2.92,0,0,1,3-.16,3.61,3.61,0,0,1,1.54,3.28v3a8,8,0,0,1-3.42,6.43l-.42.25A3.51,3.51,0,0,1,364.89,297.85Zm2.71-11.53a1.46,1.46,0,0,0-.59.19l-.42.25a5.8,5.8,0,0,0-2.31,4.51v3c0,.76.22,1.23.43,1.35s.61-.06.77-.15l.43-.24a5.85,5.85,0,0,0,2.31-4.52v-3c0-.76-.22-1.23-.44-1.36A.37.37,0,0,0,367.6,286.32Z" transform="translate(211.86 -10)"/><rect class="cls-5" x="350.81" y="204.06" width="11.9" height="2.21" transform="translate(157.12 201) rotate(-30.71)"/><path class="cls-3" d="M76.51,21.59l-8.46-4.31A30.81,30.81,0,0,0,52,13.9l-.25-3.82a34.58,34.58,0,0,1,18.06,3.78l8.46,4.31Z" transform="translate(211.86 -10)"/><path class="cls-3" d="M20.39,54H16.55V44a30.66,30.66,0,0,1,5-17A37.64,37.64,0,0,1,43,11.71L44,15.4c-8.37,2.41-14.86,7-19.28,13.69A26.78,26.78,0,0,0,20.39,44Z" transform="translate(211.86 -10)"/><rect class="cls-3" x="590.26" y="667.33" width="3.84" height="21.18"/><path class="cls-3" d="M366.46,607.93l-.43.25c-1.58.91-2.86-.06-2.86-2.17V559.42A6.86,6.86,0,0,1,366,554l.43-.24c1.58-.92,2.86,0,2.86,2.16v46.59A6.85,6.85,0,0,1,366.46,607.93Z" transform="translate(211.86 -10)"/><path class="cls-5" d="M364.89,609.63a2.54,2.54,0,0,1-1.29-.34,3.61,3.61,0,0,1-1.54-3.28V559.42a8,8,0,0,1,3.42-6.43l.43-.24a2.92,2.92,0,0,1,3-.15,3.58,3.58,0,0,1,1.54,3.27v46.59a8,8,0,0,1-3.42,6.43h0l-.43.25A3.44,3.44,0,0,1,364.89,609.63Zm2.71-55.16a1.32,1.32,0,0,0-.59.2l-.43.24a5.82,5.82,0,0,0-2.3,4.51V606c0,.77.22,1.24.43,1.36s.62-.06.77-.15l.43-.25a5.83,5.83,0,0,0,2.31-4.51V555.87c0-.76-.22-1.23-.44-1.36A.37.37,0,0,0,367.6,554.47Z" transform="translate(211.86 -10)"/><path class="cls-5" d="M365.05,600.46c0,.76.54,1.07,1.2.69a2.64,2.64,0,0,0,1.19-2.07c0-.76-.53-1.07-1.19-.69A2.65,2.65,0,0,0,365.05,600.46Z" transform="translate(211.86 -10)"/><path class="cls-3" d="M278.18,152.88l-.42.25c-1.57.93-1.36,2.52.47,3.56l20.68,11.69a6.9,6.9,0,0,0,6.17.2l.43-.25c1.57-.93,1.36-2.52-.48-3.56l-20.67-11.69A6.86,6.86,0,0,0,278.18,152.88Z" transform="translate(211.86 -10)"/><path class="cls-5" d="M302.33,170.32a8.28,8.28,0,0,1-4-1l-20.67-11.69a3.6,3.6,0,0,1-2.09-3,2.93,2.93,0,0,1,1.6-2.52l.42-.25a8,8,0,0,1,7.28.19l20.68,11.69a3.62,3.62,0,0,1,2.09,3,3,3,0,0,1-1.6,2.52l-.43.25A6.59,6.59,0,0,1,302.33,170.32Zm-23.58-16.49-.43.25c-.15.09-.51.33-.51.59s.3.68,1,1.05l20.67,11.69a5.86,5.86,0,0,0,5.07.21l.43-.25c.15-.09.51-.33.5-.59s-.3-.67-1-1.05L283.81,154a5.84,5.84,0,0,0-5.06-.21Z" transform="translate(211.86 -10)"/><path class="cls-3" d="M96.56,49l-.54.32c-2,1.19-1.74,3.22.61,4.55l.89.39c2.35,1.32,5.88,1.44,7.89.25l.55-.32c2-1.18,1.74-3.22-.61-4.55l-.9-.38C102.11,48,98.57,47.84,96.56,49Z" transform="translate(211.86 -10)"/><path class="cls-5" d="M101.9,56.46A10.19,10.19,0,0,1,97,55.24l-.79-.33c-1.69-.95-2.61-2.23-2.62-3.57a3.4,3.4,0,0,1,1.89-3l.54-.32c2.35-1.39,6.3-1.28,9,.24l.79.34c1.69,1,2.61,2.23,2.62,3.56a3.42,3.42,0,0,1-1.89,3l-.55.32A8.14,8.14,0,0,1,101.9,56.46ZM100,49.31a5.76,5.76,0,0,0-2.9.67h0l-.55.32c-.3.17-.8.54-.8,1s.54,1.12,1.39,1.61l.79.33c2.11,1.19,5.21,1.31,6.89.32l.54-.32c.3-.18.81-.55.8-1s-.53-1.12-1.39-1.6l-.79-.34A8.38,8.38,0,0,0,100,49.31Z" transform="translate(211.86 -10)"/><path class="cls-3" d="M106.32,54a5.41,5.41,0,0,0-1-.71l-.89-.39c-2.35-1.32-5.88-1.44-7.89-.25l-.55.32a2.45,2.45,0,0,0-.35.26c-1.39-1.27-1.33-2.85.35-3.84l.55-.32c2-1.18,5.54-1.07,7.89.26l.89.38C107.53,50.9,107.89,52.74,106.32,54Z" transform="translate(211.86 -10)"/><path class="cls-5" d="M106.25,55.39l-.68-.62a4.18,4.18,0,0,0-.76-.57l-.79-.33c-2.11-1.18-5.22-1.3-6.89-.32L95.6,54.63,94.92,54a3.6,3.6,0,0,1-1.32-3,3.48,3.48,0,0,1,1.86-2.61l.54-.32c2.35-1.39,6.3-1.28,9,.24l.79.34a4.4,4.4,0,0,1,2.6,3.37,3.27,3.27,0,0,1-1.4,2.81Zm-6.17-4.72A10.19,10.19,0,0,1,105,51.89l.79.33.36.21a.58.58,0,0,0,0-.26c0-.5-.55-1.07-1.37-1.54l-.79-.34c-2.11-1.18-5.22-1.3-6.89-.31l-.55.32c-.27.16-.74.49-.78.93a.89.89,0,0,0,.1.48l.1-.07A8.18,8.18,0,0,1,100.08,50.67Z" transform="translate(211.86 -10)"/><path class="cls-5" d="M102.77,133.89l128.8,74.26c2.59,1.5,4.69-.09,4.69-3.54h0c0-3.46-2.1-7.48-4.69-9l-128.8-74.26c-2.59-1.5-4.69.09-4.69,3.55h0C98.08,128.38,100.18,132.4,102.77,133.89Z" transform="translate(211.86 -10)"/><path class="cls-4" d="M233.44,210.2a5.24,5.24,0,0,1-2.61-.77L102,135.17c-3.05-1.76-5.43-6.26-5.43-10.24,0-2.36.86-4.21,2.36-5.08a4.42,4.42,0,0,1,4.54.25l128.8,74.26c3,1.76,5.43,6.26,5.43,10.25,0,2.35-.86,4.2-2.36,5.07A3.92,3.92,0,0,1,233.44,210.2ZM103.51,132.62l128.8,74.25c.38.22,1.08.55,1.59.25s.88-1,.88-2.51c0-2.93-1.81-6.46-3.95-7.69L102,122.66c-.38-.22-1.1-.55-1.6-.25s-.88,1-.88,2.52c0,2.93,1.81,6.45,4,7.69Z" transform="translate(211.86 -10)"/><path class="cls-5" d="M77.48,113.42A12.2,12.2,0,0,0,83,123c3,1.77,5.53.34,5.53-3.18A12.21,12.21,0,0,0,83,110.23C80,108.47,77.48,109.9,77.48,113.42Z" transform="translate(211.86 -10)"/><path class="cls-4" d="M85.47,125.22a6.42,6.42,0,0,1-3.2-1A13.66,13.66,0,0,1,76,113.42c0-2.25.83-4,2.35-4.85s3.43-.74,5.38.38A13.66,13.66,0,0,1,90,119.8c0,2.25-.83,4-2.35,4.85A4.33,4.33,0,0,1,85.47,125.22ZM80.54,111a1.39,1.39,0,0,0-.7.17,2.58,2.58,0,0,0-.88,2.3,10.78,10.78,0,0,0,4.78,8.29,2,2,0,0,0,3.31-1.91,10.76,10.76,0,0,0-4.78-8.29A3.62,3.62,0,0,0,80.54,111Z" transform="translate(211.86 -10)"/><path class="cls-4" d="M233.44,237.65a5.23,5.23,0,0,1-2.61-.76L102,162.63c-3.05-1.76-5.43-6.26-5.43-10.25,0-2.35.86-4.2,2.36-5.07a4.42,4.42,0,0,1,4.54.25l128.8,74.26c3,1.75,5.43,6.25,5.43,10.24,0,2.36-.86,4.21-2.36,5.08A3.91,3.91,0,0,1,233.44,237.65ZM103.51,160.07l128.8,74.26a1.75,1.75,0,0,0,1.59.25c.43-.25.88-1,.88-2.52,0-2.93-1.81-6.45-3.95-7.69L102,150.11c-.38-.21-1.09-.54-1.6-.24s-.88,1-.88,2.51c0,2.93,1.81,6.45,4,7.69Z" transform="translate(211.86 -10)"/><path class="cls-5" d="M77.48,140.88A12.2,12.2,0,0,0,83,150.44c3,1.76,5.53.33,5.53-3.19A12.21,12.21,0,0,0,83,137.69C80,135.93,77.48,137.35,77.48,140.88Z" transform="translate(211.86 -10)"/><path class="cls-4" d="M85.47,152.68a6.42,6.42,0,0,1-3.2-1A13.66,13.66,0,0,1,76,140.88c0-2.26.83-4,2.35-4.86a5.28,5.28,0,0,1,5.38.39A13.66,13.66,0,0,1,90,147.25c0,2.25-.83,4-2.35,4.86A4.33,4.33,0,0,1,85.47,152.68Zm-4.93-14.27a1.39,1.39,0,0,0-.7.17,2.57,2.57,0,0,0-.88,2.3,10.76,10.76,0,0,0,4.78,8.28,2,2,0,0,0,3.31-1.91A10.74,10.74,0,0,0,82.27,139,3.62,3.62,0,0,0,80.54,138.41Z" transform="translate(211.86 -10)"/><path class="cls-4" d="M102.77,188.81l128.8,74.26c2.59,1.49,4.69-.1,4.69-3.55h0c0-3.46-2.1-7.47-4.69-9l-128.8-74.26c-2.59-1.49-4.69.09-4.69,3.55h0C98.08,183.3,100.18,187.31,102.77,188.81Z" transform="translate(211.86 -10)"/><path class="cls-4" d="M233.44,265.11a5.24,5.24,0,0,1-2.61-.77L102,190.09c-3.05-1.76-5.43-6.26-5.43-10.25,0-2.36.86-4.21,2.36-5.07a4.42,4.42,0,0,1,4.54.24l128.8,74.26c3,1.76,5.43,6.26,5.43,10.25,0,2.36-.86,4.21-2.36,5.07A3.82,3.82,0,0,1,233.44,265.11ZM103.51,187.53l128.8,74.26a1.71,1.71,0,0,0,1.59.24c.43-.24.88-1,.88-2.51,0-2.93-1.81-6.45-3.95-7.69L102,177.57a1.77,1.77,0,0,0-1.6-.25c-.42.25-.88,1-.88,2.52,0,2.93,1.81,6.45,4,7.69Z" transform="translate(211.86 -10)"/><path class="cls-4" d="M77.48,168.33A12.21,12.21,0,0,0,83,177.9c3,1.76,5.53.33,5.53-3.19A12.22,12.22,0,0,0,83,165.14C80,163.38,77.48,164.81,77.48,168.33Z" transform="translate(211.86 -10)"/><path class="cls-4" d="M85.47,180.13a6.51,6.51,0,0,1-3.2-.95A13.66,13.66,0,0,1,76,168.33c0-2.25.83-4,2.35-4.85s3.43-.74,5.38.39A13.63,13.63,0,0,1,90,174.71c0,2.25-.83,4-2.35,4.85A4.33,4.33,0,0,1,85.47,180.13Zm-4.93-14.26a1.3,1.3,0,0,0-.7.17,2.54,2.54,0,0,0-.88,2.29,10.76,10.76,0,0,0,4.78,8.29,2,2,0,0,0,3.31-1.91,10.76,10.76,0,0,0-4.78-8.29A3.6,3.6,0,0,0,80.54,165.87Z" transform="translate(211.86 -10)"/><path class="cls-5" d="M102.77,215.94l128.8,74.26c2.59,1.5,4.69-.09,4.69-3.55h0c0-3.45-2.1-7.47-4.69-9l-128.8-74.26c-2.59-1.5-4.69.09-4.69,3.55h0C98.08,210.43,100.18,214.45,102.77,215.94Z" transform="translate(211.86 -10)"/><path class="cls-4" d="M233.44,292.25a5.24,5.24,0,0,1-2.61-.77L102,217.22C99,215.46,96.61,211,96.61,207c0-2.35.86-4.2,2.36-5.07a4.4,4.4,0,0,1,4.54.25l128.8,74.26c3,1.76,5.43,6.26,5.43,10.24,0,2.36-.86,4.21-2.37,5.08A3.85,3.85,0,0,1,233.44,292.25ZM103.51,214.66l128.8,74.26c.38.22,1.09.55,1.59.25s.88-1,.88-2.52c0-2.93-1.81-6.45-3.95-7.69L102,204.71a1.77,1.77,0,0,0-1.6-.25c-.42.24-.88,1-.88,2.51,0,2.93,1.81,6.46,4,7.69Z" transform="translate(211.86 -10)"/><path class="cls-4" d="M85.47,207.27a6.42,6.42,0,0,1-3.2-1A13.64,13.64,0,0,1,76,195.47c0-2.25.83-4,2.35-4.86s3.43-.73,5.38.39A13.66,13.66,0,0,1,90,201.84c0,2.26-.83,4-2.35,4.86A4.33,4.33,0,0,1,85.47,207.27ZM80.54,193a1.39,1.39,0,0,0-.7.17,2.57,2.57,0,0,0-.88,2.3,10.74,10.74,0,0,0,4.78,8.28,2,2,0,0,0,3.31-1.91,10.74,10.74,0,0,0-4.78-8.28A3.62,3.62,0,0,0,80.54,193Z" transform="translate(211.86 -10)"/><path class="cls-5" d="M102.77,243.4l128.8,74.26c2.59,1.49,4.69-.09,4.69-3.55h0c0-3.46-2.1-7.47-4.69-9l-128.8-74.26c-2.59-1.49-4.69.1-4.69,3.55h0C98.08,237.89,100.18,241.9,102.77,243.4Z" transform="translate(211.86 -10)"/><path class="cls-4" d="M233.44,319.7a5.23,5.23,0,0,1-2.61-.76L102,244.68c-3.05-1.76-5.43-6.26-5.43-10.25,0-2.36.86-4.21,2.36-5.07a4.4,4.4,0,0,1,4.54.25l128.8,74.26c3,1.75,5.43,6.25,5.43,10.24,0,2.36-.86,4.21-2.37,5.08A3.84,3.84,0,0,1,233.44,319.7ZM103.51,242.12l128.8,74.26c.38.22,1.09.54,1.59.25s.88-1,.88-2.52c0-2.93-1.81-6.45-3.95-7.69L102,232.16a1.77,1.77,0,0,0-1.6-.25c-.42.25-.88,1-.88,2.52,0,2.93,1.81,6.45,4,7.69Z" transform="translate(211.86 -10)"/><path class="cls-5" d="M77.48,222.92A12.2,12.2,0,0,0,83,232.49c3,1.76,5.53.33,5.53-3.19A12.21,12.21,0,0,0,83,219.74C80,218,77.48,219.4,77.48,222.92Z" transform="translate(211.86 -10)"/><path class="cls-4" d="M85.47,234.73a6.53,6.53,0,0,1-3.2-1A13.66,13.66,0,0,1,76,222.92c0-2.25.83-4,2.35-4.85s3.43-.74,5.38.39A13.66,13.66,0,0,1,90,229.3c0,2.25-.83,4-2.35,4.86A4.33,4.33,0,0,1,85.47,234.73Zm-4.93-14.27a1.3,1.3,0,0,0-.7.17,2.56,2.56,0,0,0-.88,2.29,10.76,10.76,0,0,0,4.78,8.29,2,2,0,0,0,3.31-1.91A10.74,10.74,0,0,0,82.27,221,3.62,3.62,0,0,0,80.54,220.46Z" transform="translate(211.86 -10)"/><path class="cls-5" d="M176.33,333.29l128.79,74.26c2.6,1.49,4.7-.09,4.7-3.55h0c0-3.46-2.1-7.47-4.7-9L176.33,320.77c-2.59-1.49-4.69.1-4.69,3.55h0C171.64,327.78,173.74,331.79,176.33,333.29Z" transform="translate(211.86 -10)"/><path class="cls-4" d="M307,409.59a5.29,5.29,0,0,1-2.6-.76l-128.8-74.26c-3-1.76-5.43-6.26-5.43-10.25,0-2.36.86-4.21,2.36-5.07a4.44,4.44,0,0,1,4.55.24l128.79,74.26c3.05,1.76,5.43,6.26,5.43,10.25,0,2.36-.86,4.21-2.36,5.07A3.76,3.76,0,0,1,307,409.59ZM177.07,332l128.79,74.26c.39.22,1.1.54,1.6.25s.88-1,.88-2.52c0-2.93-1.81-6.45-3.95-7.69l-128.8-74.26a1.78,1.78,0,0,0-1.59-.25c-.43.25-.89,1-.89,2.52,0,2.93,1.81,6.45,4,7.69Z" transform="translate(211.86 -10)"/><path class="cls-5" d="M151,312.81a12.2,12.2,0,0,0,5.52,9.57c3.05,1.76,5.52.33,5.52-3.19a12.2,12.2,0,0,0-5.52-9.56C153.51,307.86,151,309.29,151,312.81Z" transform="translate(211.86 -10)"/><path class="cls-4" d="M159,324.61a6.51,6.51,0,0,1-3.21-.95,13.67,13.67,0,0,1-6.26-10.85,5.27,5.27,0,0,1,2.36-4.85c1.52-.88,3.43-.74,5.38.39a13.64,13.64,0,0,1,6.26,10.84c0,2.25-.84,4-2.36,4.85A4.29,4.29,0,0,1,159,324.61Zm-4.93-14.26a1.36,1.36,0,0,0-.71.17,2.54,2.54,0,0,0-.88,2.29,10.74,10.74,0,0,0,4.79,8.29,1.95,1.95,0,0,0,3.3-1.91,10.78,10.78,0,0,0-4.78-8.29A3.67,3.67,0,0,0,154.1,310.35Z" transform="translate(211.86 -10)"/><path class="cls-4" d="M307,437.05a5.21,5.21,0,0,1-2.6-.77L175.59,362c-3-1.76-5.43-6.26-5.43-10.24,0-2.36.86-4.21,2.36-5.08a4.44,4.44,0,0,1,4.55.25l128.79,74.26c3.05,1.76,5.43,6.26,5.43,10.25,0,2.35-.86,4.2-2.36,5.07A3.86,3.86,0,0,1,307,437.05ZM177.07,359.47l128.79,74.26a1.77,1.77,0,0,0,1.6.24c.43-.24.88-1,.88-2.51,0-2.93-1.81-6.45-3.95-7.69l-128.8-74.26a1.74,1.74,0,0,0-1.59-.25c-.43.25-.89,1-.89,2.52,0,2.93,1.81,6.45,4,7.69Z" transform="translate(211.86 -10)"/><path class="cls-5" d="M151,340.27a12.2,12.2,0,0,0,5.52,9.56c3.05,1.77,5.52.34,5.52-3.18a12.2,12.2,0,0,0-5.52-9.57C153.51,335.32,151,336.75,151,340.27Z" transform="translate(211.86 -10)"/><path class="cls-4" d="M159,352.07a6.43,6.43,0,0,1-3.21-1,13.66,13.66,0,0,1-6.26-10.84c0-2.25.84-4,2.36-4.85s3.43-.74,5.38.38a13.66,13.66,0,0,1,6.26,10.85,5.27,5.27,0,0,1-2.36,4.85A4.29,4.29,0,0,1,159,352.07ZM154.1,337.8a1.46,1.46,0,0,0-.71.17,2.58,2.58,0,0,0-.88,2.3,10.76,10.76,0,0,0,4.79,8.29,1.95,1.95,0,0,0,3.3-1.91,10.76,10.76,0,0,0-4.78-8.29A3.59,3.59,0,0,0,154.1,337.8Z" transform="translate(211.86 -10)"/><path class="cls-5" d="M176.33,388.2l128.79,74.26c2.6,1.5,4.7-.09,4.7-3.55h0c0-3.45-2.1-7.47-4.7-9L176.33,375.69c-2.59-1.5-4.69.09-4.69,3.54h0C171.64,382.69,173.74,386.7,176.33,388.2Z" transform="translate(211.86 -10)"/><path class="cls-4" d="M307,464.5a5.19,5.19,0,0,1-2.6-.76l-128.8-74.26c-3-1.76-5.43-6.26-5.43-10.25,0-2.35.86-4.2,2.36-5.07a4.42,4.42,0,0,1,4.55.25l128.79,74.26c3.05,1.76,5.43,6.26,5.43,10.24,0,2.36-.86,4.21-2.36,5.08A3.85,3.85,0,0,1,307,464.5ZM177.07,386.92l128.79,74.26c.39.22,1.1.54,1.6.25s.88-1,.88-2.52c0-2.93-1.81-6.45-3.95-7.69L175.59,377a1.74,1.74,0,0,0-1.59-.25c-.43.24-.89,1-.89,2.51,0,2.93,1.81,6.46,4,7.69Z" transform="translate(211.86 -10)"/><path class="cls-5" d="M151,367.73a12.2,12.2,0,0,0,5.52,9.56c3.05,1.76,5.52.34,5.52-3.19a12.2,12.2,0,0,0-5.52-9.56C153.51,362.78,151,364.2,151,367.73Z" transform="translate(211.86 -10)"/><path class="cls-4" d="M159,379.53a6.43,6.43,0,0,1-3.21-1,13.66,13.66,0,0,1-6.26-10.84c0-2.26.84-4,2.36-4.86a5.28,5.28,0,0,1,5.38.39,13.66,13.66,0,0,1,6.26,10.84A5.29,5.29,0,0,1,161.2,379,4.29,4.29,0,0,1,159,379.53Zm-4.93-14.27a1.46,1.46,0,0,0-.71.17,2.57,2.57,0,0,0-.88,2.3A10.72,10.72,0,0,0,157.3,376a1.95,1.95,0,0,0,3.3-1.91,10.74,10.74,0,0,0-4.78-8.28A3.59,3.59,0,0,0,154.1,365.26Z" transform="translate(211.86 -10)"/><path class="cls-4" d="M176.33,415.34,305.12,489.6c2.6,1.49,4.7-.1,4.7-3.55h0c0-3.46-2.1-7.47-4.7-9L176.33,402.82c-2.59-1.49-4.69.09-4.69,3.55h0C171.64,409.83,173.74,413.84,176.33,415.34Z" transform="translate(211.86 -10)"/><path class="cls-4" d="M307,491.64a5.21,5.21,0,0,1-2.6-.77l-128.8-74.25c-3-1.76-5.43-6.26-5.43-10.25,0-2.36.86-4.21,2.36-5.07a4.41,4.41,0,0,1,4.55.24L305.86,475.8c3.05,1.76,5.43,6.26,5.43,10.25,0,2.36-.86,4.21-2.36,5.07A3.76,3.76,0,0,1,307,491.64ZM177.07,414.06l128.79,74.26a1.73,1.73,0,0,0,1.6.24c.42-.24.88-1,.88-2.51,0-2.93-1.81-6.45-3.95-7.69L175.59,404.1a1.78,1.78,0,0,0-1.59-.25c-.43.25-.89,1-.89,2.52,0,2.93,1.81,6.45,4,7.69Z" transform="translate(211.86 -10)"/><path class="cls-4" d="M151,394.86a12.23,12.23,0,0,0,5.52,9.57c3.05,1.76,5.52.33,5.52-3.19a12.21,12.21,0,0,0-5.52-9.57C153.51,389.91,151,391.34,151,394.86Z" transform="translate(211.86 -10)"/><path class="cls-4" d="M159,406.66a6.43,6.43,0,0,1-3.21-1,13.64,13.64,0,0,1-6.26-10.84c0-2.25.84-4,2.36-4.85s3.43-.74,5.38.39a13.64,13.64,0,0,1,6.26,10.84,5.27,5.27,0,0,1-2.36,4.85A4.29,4.29,0,0,1,159,406.66Zm-4.93-14.27a1.36,1.36,0,0,0-.71.18,2.56,2.56,0,0,0-.88,2.29,10.76,10.76,0,0,0,4.79,8.29,2.57,2.57,0,0,0,2.43.39,2.6,2.6,0,0,0,.87-2.3,10.76,10.76,0,0,0-4.78-8.29A3.59,3.59,0,0,0,154.1,392.39Z" transform="translate(211.86 -10)"/><path class="cls-5" d="M176.33,442.79l128.79,74.26c2.6,1.5,4.7-.09,4.7-3.55h0c0-3.45-2.1-7.47-4.7-9L176.33,430.28c-2.59-1.5-4.69.09-4.69,3.55h0C171.64,437.28,173.74,441.3,176.33,442.79Z" transform="translate(211.86 -10)"/><path class="cls-4" d="M307,519.1a5.21,5.21,0,0,1-2.6-.77l-128.8-74.26c-3-1.76-5.43-6.26-5.43-10.24,0-2.36.86-4.21,2.36-5.08a4.44,4.44,0,0,1,4.55.25l128.79,74.26c3.05,1.76,5.43,6.26,5.43,10.24,0,2.36-.86,4.21-2.36,5.08A3.86,3.86,0,0,1,307,519.1ZM177.07,441.51l128.79,74.26a1.75,1.75,0,0,0,1.6.25c.43-.24.88-1,.88-2.52,0-2.92-1.81-6.45-3.95-7.68l-128.8-74.26c-.38-.22-1.09-.54-1.59-.25s-.89,1-.89,2.52c0,2.93,1.81,6.45,4,7.68Z" transform="translate(211.86 -10)"/><path class="cls-5" d="M151,422.32a12.2,12.2,0,0,0,5.52,9.56c3.05,1.76,5.52.34,5.52-3.19a12.2,12.2,0,0,0-5.52-9.56C153.51,417.37,151,418.8,151,422.32Z" transform="translate(211.86 -10)"/><path class="cls-4" d="M159,434.12a6.43,6.43,0,0,1-3.21-1,13.64,13.64,0,0,1-6.26-10.84,4.81,4.81,0,0,1,7.74-4.47,13.66,13.66,0,0,1,6.26,10.84c0,2.26-.84,4-2.36,4.86A4.29,4.29,0,0,1,159,434.12Zm-4.93-14.27a1.46,1.46,0,0,0-.71.17,2.57,2.57,0,0,0-.88,2.3,10.72,10.72,0,0,0,4.79,8.28,2.52,2.52,0,0,0,2.43.39,2.59,2.59,0,0,0,.87-2.3,10.74,10.74,0,0,0-4.78-8.28A3.59,3.59,0,0,0,154.1,419.85Z" transform="translate(211.86 -10)"/><path class="cls-5" d="M306.21,293.45,265,269.67c-2-1.14-3.6-4.23-3.6-6.88V216.52c0-2.65,1.61-3.87,3.6-2.72l41.18,23.78c2,1.15,3.61,4.23,3.61,6.88v46.27C309.82,293.38,308.2,294.6,306.21,293.45Z" transform="translate(211.86 -10)"/><path class="cls-4" d="M307.65,295.36a4.38,4.38,0,0,1-2.18-.63L264.29,271c-2.43-1.4-4.34-5-4.34-8.16V216.52a4.61,4.61,0,0,1,2-4.19,3.78,3.78,0,0,1,3.84.19L307,236.3c2.43,1.4,4.34,5,4.34,8.16v46.27a4.61,4.61,0,0,1-2,4.19A3.3,3.3,0,0,1,307.65,295.36Zm-.7-3.19c.38.23.71.3.88.19s.51-.57.51-1.63V244.46a7.21,7.21,0,0,0-2.87-5.6l-41.18-23.78c-.37-.22-.71-.3-.88-.19s-.51.57-.51,1.63v46.27c0,2.11,1.34,4.73,2.87,5.61Z" transform="translate(211.86 -10)"/><path class="cls-5" d="M288.74,240.65a20.19,20.19,0,0,0-3.21-2.3h0V254.2h0l3.21-13.55Z" transform="translate(211.86 -10)"/><path class="cls-4" d="M285.53,255.32h-1.11V237.24l1.61.12a22.49,22.49,0,0,1,3.43,2.45l.23.2.2.6-3.48,14.7Zm1.1-14.93v4.36l.87-3.69C287.22,240.83,286.92,240.6,286.63,240.39Z" transform="translate(211.86 -10)"/><path class="cls-5" d="M285.54,254.22l9.72-5.32h0a30.09,30.09,0,0,0-6.52-8.25h0l-3.21,13.57Z" transform="translate(211.86 -10)"/><path class="cls-4" d="M285.29,255.61l-1.15-1.3.36-.55,3.32-14,1.21-.3.44.37a30.88,30.88,0,0,1,6.68,8.42l.53.53-.89,1.12Zm4.09-12.86-2.2,9.31,6.56-3.59A29,29,0,0,0,289.38,242.75Z" transform="translate(211.86 -10)"/><path class="cls-5" d="M285.54,254.23l13.17,7.32h0a26.16,26.16,0,0,0-3.45-12.65h0l-9.73,5.32Z" transform="translate(211.86 -10)"/><path class="cls-4" d="M298.69,262.8l-.52-.28-13.74-7.83v-1.13l11-6,.79.85a27.32,27.32,0,0,1,3.58,13.19l0,.67Zm-10.87-8.57,9.72,5.41a25.92,25.92,0,0,0-2.74-9.23Z" transform="translate(211.86 -10)"/><path class="cls-5" d="M285.55,254.26l-6.8,8.45h0a24.33,24.33,0,0,0,6.8,6.1c7.17,4.14,13,.9,13.18-7.22h0l-13.17-7.32Z" transform="translate(211.86 -10)"/><path class="cls-4" d="M291.44,271.73a13,13,0,0,1-6.44-2,25.69,25.69,0,0,1-7.12-6.37l-.54-.69,7.93-9.87,14.56,8.09v.66c-.09,4.33-1.69,7.57-4.48,9.14A7.82,7.82,0,0,1,291.44,271.73Zm-11.27-9a23,23,0,0,0,5.93,5.14c3.14,1.82,6,2.15,8.16.95,2-1.09,3.13-3.42,3.33-6.58l-11.76-6.55Z" transform="translate(211.86 -10)"/><path class="cls-5" d="M278.73,262.69l6.8-8.45h0V238.35h0c-7.28-4.2-13.18-.79-13.18,7.62,0,5.53,2.56,11.86,6.39,16.73Z" transform="translate(211.86 -10)"/><path class="cls-4" d="M278.47,264l-.53-.52c-4.23-5.39-6.71-11.9-6.71-17.52,0-4.48,1.57-7.86,4.42-9.5s6.54-1.32,10.43.92l.55.32v16.93l-7.47,9.09Zm1.16-26.35a5.62,5.62,0,0,0-2.87.73c-2.14,1.23-3.31,3.92-3.31,7.58,0,4.68,2,10.29,5.31,14.93l5.66-7V239A10.5,10.5,0,0,0,279.63,237.65Z" transform="translate(211.86 -10)"/><path class="cls-4" d="M306.21,362.92,265,339.15c-2-1.15-3.6-4.23-3.6-6.89V286c0-2.65,1.61-3.87,3.6-2.72l41.18,23.78c2,1.15,3.61,4.23,3.61,6.88V360.2C309.82,362.85,308.2,364.07,306.21,362.92Z" transform="translate(211.86 -10)"/><path class="cls-4" d="M307.65,364.83a4.38,4.38,0,0,1-2.18-.63l-41.18-23.77c-2.43-1.41-4.34-5-4.34-8.17V286a4.61,4.61,0,0,1,2-4.19,3.78,3.78,0,0,1,3.84.19L307,305.77c2.43,1.4,4.34,5,4.34,8.16V360.2a4.59,4.59,0,0,1-2,4.19A3.3,3.3,0,0,1,307.65,364.83Zm-.7-3.18c.38.22.71.29.88.19s.51-.58.51-1.64V313.93a7.21,7.21,0,0,0-2.87-5.6l-41.18-23.78c-.37-.22-.71-.3-.88-.19s-.51.57-.51,1.63v46.27c0,2.11,1.34,4.73,2.87,5.61Z" transform="translate(211.86 -10)"/><path class="cls-4" d="M289.43,313.93l-7.62-4.4c-5.23-3-9.48-.57-9.48,5.48s4.25,13.4,9.48,16.42v4.71s5,2.84,5.12-1.75l2.5,1.44c5.24,3,9.48.57,9.48-5.48S294.67,317,289.43,313.93Z" transform="translate(211.86 -10)"/><path class="cls-5" d="M293.67,338.24a9.69,9.69,0,0,1-4.79-1.45l-1.15-.67a3,3,0,0,1-1.33,1.59c-2,1.12-4.82-.43-5.13-.61l-.56-.31v-4.74c-5.28-3.38-9.49-10.87-9.49-17,0-3.34,1.19-5.86,3.34-7.1s4.92-1,7.81.66L290,313c5.54,3.19,10,11,10,17.38,0,3.34-1.18,5.86-3.33,7.1A5.92,5.92,0,0,1,293.67,338.24Zm-7.8-5.74,4.11,2.37c2.18,1.26,4.17,1.49,5.6.67s2.23-2.67,2.23-5.19c0-5.68-4-12.62-8.93-15.47l-7.62-4.39c-2.17-1.26-4.16-1.49-5.6-.67s-2.22,2.67-2.22,5.19c0,5.68,4,12.62,8.93,15.47l.55.31v4.66a3.31,3.31,0,0,0,2.4.33c.39-.22.49-.9.5-1.43Z" transform="translate(211.86 -10)"/><path class="cls-5" d="M121.58,343.34,80.4,319.56c-2-1.15-3.61-4.23-3.61-6.88V266.41c0-2.65,1.62-3.87,3.61-2.73l41.18,23.78c2,1.15,3.6,4.23,3.6,6.89v46.27C125.18,343.27,123.57,344.49,121.58,343.34Z" transform="translate(211.86 -10)"/><path class="cls-4" d="M123,345.24a4.44,4.44,0,0,1-2.18-.62L79.66,320.84c-2.44-1.41-4.34-5-4.34-8.16V266.41a4.59,4.59,0,0,1,2-4.19,3.76,3.76,0,0,1,3.83.19l41.19,23.77c2.43,1.41,4.34,5,4.34,8.17v46.27a4.61,4.61,0,0,1-2,4.19A3.31,3.31,0,0,1,123,345.24Zm-.7-3.18c.38.22.71.29.88.19s.51-.57.51-1.63V294.35c0-2.11-1.34-4.73-2.87-5.61L79.66,265c-.38-.22-.71-.29-.88-.19s-.51.58-.51,1.64v46.27c0,2.1,1.34,4.72,2.86,5.6Z" transform="translate(211.86 -10)"/><path class="cls-5" d="M107.92,307.75V294.14a1.35,1.35,0,0,0-.63-1.07l-12.61-7.29c-.34-.19-.62,0-.62.36v13.61c0,.4-.28.56-.62.36l-2.52-1.46c-.52-.3-.81.24-.48.9l10.07,20.08c.25.49.71.76,1,.55l10.07-8.45c.33-.28,0-1.15-.48-1.45l-2.52-1.46A1.33,1.33,0,0,1,107.92,307.75Z" transform="translate(211.86 -10)"/><path class="cls-4" d="M101.26,321.36a1.53,1.53,0,0,1-.3,0,2.16,2.16,0,0,1-1.44-1.21L89.45,300a1.83,1.83,0,0,1,.22-2.19,1.48,1.48,0,0,1,1.8-.16l1.48.86V286.14a1.48,1.48,0,0,1,2.29-1.31l12.61,7.28a2.47,2.47,0,0,1,1.17,2v13.59l2.59,1.59a2.52,2.52,0,0,1,1.17,1.86,1.6,1.6,0,0,1-.53,1.39L102.18,321A1.46,1.46,0,0,1,101.26,321.36Zm-9-20.65,9.08,18.13,9-7.58L108,309.78a2.47,2.47,0,0,1-1.17-2V294.14l-11.64-6.79v12.4a1.48,1.48,0,0,1-2.28,1.32Z" transform="translate(211.86 -10)"/><path class="cls-4" d="M121.58,412.81,80.4,389c-2-1.15-3.61-4.23-3.61-6.88V335.88c0-2.65,1.62-3.87,3.61-2.72l41.18,23.77c2,1.15,3.6,4.24,3.6,6.89v46.27C125.18,412.74,123.57,414,121.58,412.81Z" transform="translate(211.86 -10)"/><path class="cls-4" d="M123,414.72a4.35,4.35,0,0,1-2.18-.63L79.66,390.31c-2.44-1.41-4.34-5-4.34-8.16V335.88a4.6,4.6,0,0,1,2-4.19,3.76,3.76,0,0,1,3.83.19l41.19,23.78c2.43,1.4,4.34,5,4.34,8.16v46.27a4.61,4.61,0,0,1-2,4.19A3.32,3.32,0,0,1,123,414.72Zm-.7-3.19c.38.22.71.3.88.19s.51-.57.51-1.63V363.82c0-2.11-1.34-4.73-2.87-5.61L79.66,334.43c-.38-.21-.71-.29-.88-.19s-.51.58-.51,1.64v46.27c0,2.1,1.34,4.72,2.86,5.6Z" transform="translate(211.86 -10)"/><path class="cls-4" d="M114.13,380.57c0,8.38-5.88,11.78-13.14,7.59S87.85,373.78,87.85,365.4s5.88-11.78,13.14-7.59S114.13,372.19,114.13,380.57Z" transform="translate(211.86 -10)"/><path class="cls-5" d="M106.86,391.07a13.14,13.14,0,0,1-6.43-1.95c-7.55-4.36-13.69-15-13.69-23.72,0-4.47,1.56-7.83,4.4-9.47s6.53-1.31,10.4.92c7.55,4.36,13.7,15,13.7,23.72,0,4.47-1.57,7.83-4.4,9.47A7.87,7.87,0,0,1,106.86,391.07ZM95.12,357.12a5.62,5.62,0,0,0-2.87.73c-2.13,1.22-3.3,3.9-3.3,7.55,0,8,5.65,17.79,12.59,21.8,3.16,1.82,6.06,2.15,8.19.92s3.29-3.91,3.29-7.55c0-8-5.64-17.79-12.59-21.8A10.77,10.77,0,0,0,95.12,357.12Z" transform="translate(211.86 -10)"/><path class="cls-5" d="M110.83,378.67c0,6.28-4.4,8.82-9.84,5.68s-9.85-10.77-9.85-17.05,4.41-8.83,9.85-5.69S110.83,372.39,110.83,378.67Z" transform="translate(211.86 -10)"/><path class="cls-4" d="M105.39,386.81a10,10,0,0,1-5-1.5C94.7,382,90,373.92,90,367.3c0-3.45,1.23-6.05,3.44-7.34s5.09-1,8.07.7c5.74,3.31,10.4,11.39,10.4,18,0,3.45-1.22,6.05-3.44,7.33A6.11,6.11,0,0,1,105.39,386.81Zm-8.8-25.44a4,4,0,0,0-2,.51c-1.5.87-2.33,2.79-2.33,5.42,0,5.92,4.17,13.14,9.29,16.09,2.28,1.32,4.35,1.56,5.86.69s2.33-2.79,2.33-5.41c0-5.92-4.17-13.14-9.29-16.1A8,8,0,0,0,96.59,361.37Z" transform="translate(211.86 -10)"/><polygon class="cls-4" points="317.29 371.14 311.75 363.34 311.74 356.36 313.96 356.36 313.96 362.63 319.09 369.86 317.29 371.14"/><path class="cls-4" d="M77.36,509.08l232.31,134.6a.1.1,0,0,0,.15-.08V538.72a.1.1,0,0,0-.13-.09l-54.5,15.62h-.08l-24.66-15.63,0,0-70.53.87h0l-45.69-21.69h0l-36.68-8.84A.1.1,0,0,0,77.36,509.08Z" transform="translate(211.86 -10)"/><path class="cls-4" d="M309.8,645.38,309,645,75.52,509.73l.91-2.5,1.35.25,37,9L160.22,538l70.69-.89.47.34,24,15.21L310,537l1.27.87,0,.84V644.44ZM86.3,512.56l222,128.64V540.55L255,555.85l-.63-.36L230,540.06l-70.38.88-.32-.12L113.51,519.1Z" transform="translate(211.86 -10)"/><path class="cls-4" d="M292,581.46l-7.56-41.39H258.93l-.49-1-10.13-29.25-32.69-14.41L189.75,509.6,200.85,547l-2.83.84L187.1,511.05l-14.66,8H172l-14,.15-.38-.18-42.23-23.64L76.71,510.37l-1.44-2.08.9-1,37.27-35,.51-.09,23-4.6.66.7,19.5,21.61,25.56-3.77.48,1.32,5.72,19.25,26.55-14.54.77.3,34.44,15.18.26.68,10,28.79h25.91l.3,1.32,7.77,42.49ZM115.59,492.19l.69.32,42.45,23.77,12.93-.14,14.58-8-5.57-18.74L156.1,493l-.62-.56-19.56-21.66L114.83,475,83.31,504.65Z" transform="translate(211.86 -10)"/></svg>