<svg id="Layer_1" data-name="Layer 1" xmlns="http://www.w3.org/2000/svg" xmlns:xlink="http://www.w3.org/1999/xlink" viewBox="0 0 707.25 759.65"><defs><style>.cls-1{fill:none;}.cls-2{clip-path:url(#clip-path);}.cls-3{fill:#150035;}.cls-4{fill:#fff;}.cls-5{fill:#39a1ff;}</style><clipPath id="clip-path" transform="translate(160.97 -17.76)"><path class="cls-1" d="M57.55,512.94,322.16,665.72c3.3,1.9,9.06,1.66,12.86-.54l32.47-18.74c3.8-2.2,4.22-5.52.92-7.43L103.8,486.24c-3.3-1.9-9-1.67-12.86.53L58.47,505.52C54.67,507.71,54.25,511,57.55,512.94Z"/></clipPath></defs><title>features-2</title><g class="cls-2"><rect class="cls-3" x="-122.17" y="525.99" width="470.83" height="1.92" transform="translate(-87.17 109.31) rotate(-29.98)"/><rect class="cls-3" x="-116.95" y="528.78" width="470.83" height="1.92" transform="translate(-87.75 112.19) rotate(-29.96)"/><rect class="cls-3" x="-112.21" y="531.75" width="470.83" height="1.92" transform="translate(-88.6 114.95) rotate(-29.96)"/><rect class="cls-3" x="-106.88" y="534.47" width="470.83" height="1.92" transform="translate(-89.25 117.97) rotate(-29.96)"/><rect class="cls-3" x="-102.49" y="537.53" width="470.83" height="1.92" transform="translate(-90.19 120.57) rotate(-29.96)"/><rect class="cls-3" x="-97.27" y="540.31" width="470.83" height="1.92" transform="translate(-90.88 123.55) rotate(-29.96)"/><rect class="cls-3" x="-92.53" y="543.28" width="470.83" height="1.92" transform="translate(-91.73 126.32) rotate(-29.96)"/><rect class="cls-3" x="-87.21" y="546" width="470.83" height="1.92" transform="translate(-92.19 129.15) rotate(-29.93)"/><rect class="cls-3" x="-82.47" y="548.97" width="470.83" height="1.92" transform="translate(-93.23 132.1) rotate(-29.96)"/><rect class="cls-3" x="-77.16" y="551.75" width="470.83" height="1.92" transform="translate(-94.01 135.24) rotate(-29.98)"/><rect class="cls-3" x="-72.43" y="554.71" width="470.83" height="1.92" transform="translate(-94.75 137.89) rotate(-29.96)"/><rect class="cls-3" x="-67.1" y="557.44" width="470.83" height="1.92" transform="translate(-95.51 141.03) rotate(-29.98)"/><rect class="cls-3" x="-62.71" y="560.5" width="470.83" height="1.92" transform="translate(-96.34 143.51) rotate(-29.96)"/><rect class="cls-3" x="-57.49" y="563.28" width="470.83" height="1.92" transform="translate(-97.03 146.49) rotate(-29.96)"/><rect class="cls-3" x="-52.75" y="566.25" width="470.83" height="1.92" transform="translate(-97.88 149.25) rotate(-29.96)"/><rect class="cls-3" x="-47.43" y="568.97" width="470.83" height="1.92" transform="translate(-98.53 152.28) rotate(-29.96)"/><rect class="cls-3" x="-42.69" y="571.94" width="470.83" height="1.92" transform="translate(-99.38 155.04) rotate(-29.96)"/><rect class="cls-3" x="-191.96" y="485.96" width="470.83" height="1.92" transform="translate(-76.39 69) rotate(-29.96)"/><rect class="cls-3" x="-186.64" y="488.69" width="470.83" height="1.92" transform="translate(-77.15 72.1) rotate(-29.98)"/><rect class="cls-3" x="-182.25" y="491.74" width="470.83" height="1.92" transform="translate(-77.98 74.63) rotate(-29.96)"/><rect class="cls-3" x="-177.03" y="494.52" width="470.83" height="1.92" transform="translate(-78.67 77.61) rotate(-29.96)"/><rect class="cls-3" x="-172.29" y="497.49" width="470.83" height="1.92" transform="translate(-79.71 80.51) rotate(-29.99)"/><rect class="cls-3" x="-166.97" y="500.22" width="470.83" height="1.92" transform="translate(-80.17 83.39) rotate(-29.96)"/><rect class="cls-3" x="-162.23" y="503.19" width="470.83" height="1.92" transform="translate(-81.02 86.15) rotate(-29.96)"/><rect class="cls-3" x="-156.92" y="505.96" width="470.83" height="1.92" transform="translate(-81.7 89.18) rotate(-29.96)"/><rect class="cls-3" x="-152.18" y="508.93" width="470.83" height="1.92" transform="translate(-82.54 91.94) rotate(-29.96)"/><rect class="cls-3" x="-146.86" y="511.65" width="470.83" height="1.92" transform="translate(-83.19 94.96) rotate(-29.96)"/><rect class="cls-3" x="-142.47" y="514.71" width="470.83" height="1.92" transform="translate(-84.24 97.66) rotate(-29.98)"/><rect class="cls-3" x="-137.24" y="517.49" width="470.83" height="1.92" transform="translate(-84.83 100.54) rotate(-29.96)"/><rect class="cls-3" x="-132.51" y="520.46" width="470.83" height="1.92" transform="translate(-85.67 103.31) rotate(-29.96)"/><rect class="cls-3" x="-127.18" y="523.19" width="470.83" height="1.92" transform="translate(-86.32 106.33) rotate(-29.96)"/><rect class="cls-3" x="-122.44" y="526.15" width="470.83" height="1.92" transform="translate(-87.47 109.36) rotate(-30)"/><rect class="cls-3" x="26.97" y="612.08" width="470.83" height="1.92" transform="translate(-110.23 195.34) rotate(-29.98)"/><rect class="cls-3" x="32.19" y="614.86" width="470.83" height="1.92" transform="translate(-111 198.43) rotate(-29.99)"/><rect class="cls-3" x="36.93" y="617.83" width="470.83" height="1.92" transform="translate(-111.66 200.93) rotate(-29.96)"/><rect class="cls-3" x="42.25" y="620.55" width="470.83" height="1.92" transform="translate(-112.31 203.95) rotate(-29.96)"/><rect class="cls-3" x="46.65" y="623.61" width="470.83" height="1.92" transform="translate(-113.25 206.56) rotate(-29.96)"/><rect class="cls-3" x="51.87" y="626.39" width="470.83" height="1.92" transform="translate(-114.05 209.69) rotate(-29.98)"/><rect class="cls-3" x="56.61" y="629.36" width="470.83" height="1.92" transform="translate(-114.9 212.45) rotate(-29.98)"/><rect class="cls-3" x="61.93" y="632.08" width="470.83" height="1.92" transform="translate(-115.44 215.32) rotate(-29.96)"/><rect class="cls-3" x="66.67" y="635.05" width="470.83" height="1.92" transform="translate(-116.59 218.52) rotate(-30)"/><rect class="cls-3" x="71.98" y="637.83" width="470.83" height="1.92" transform="translate(-117.07 221.27) rotate(-29.98)"/><rect class="cls-3" x="76.71" y="640.79" width="470.83" height="1.92" transform="translate(-117.81 223.87) rotate(-29.96)"/><rect class="cls-3" x="82.04" y="643.52" width="470.83" height="1.92" transform="translate(-118.76 227.34) rotate(-30)"/><rect class="cls-3" x="86.43" y="646.58" width="470.83" height="1.92" transform="translate(-119.51 229.66) rotate(-29.98)"/><rect class="cls-3" x="91.65" y="649.36" width="470.83" height="1.92" transform="translate(-120.09 232.47) rotate(-29.96)"/><rect class="cls-3" x="96.39" y="652.33" width="470.83" height="1.92" transform="translate(-120.94 235.23) rotate(-29.96)"/><rect class="cls-3" x="101.71" y="655.05" width="470.83" height="1.92" transform="translate(-121.7 238.43) rotate(-29.98)"/><rect class="cls-3" x="106.45" y="658.02" width="470.83" height="1.92" transform="translate(-122.44 241.02) rotate(-29.96)"/><rect class="cls-3" x="-37.5" y="574.77" width="470.83" height="1.92" transform="translate(-100.1 158.01) rotate(-29.96)"/><rect class="cls-3" x="-33.11" y="577.82" width="470.83" height="1.92" transform="translate(-101.04 160.61) rotate(-29.96)"/><rect class="cls-3" x="-27.89" y="580.61" width="470.83" height="1.92" transform="translate(-101.73 163.59) rotate(-29.96)"/><rect class="cls-3" x="-23.15" y="583.57" width="470.83" height="1.92" transform="translate(-102.58 166.35) rotate(-29.96)"/><rect class="cls-3" x="-17.82" y="586.3" width="470.83" height="1.92" transform="translate(-103.23 169.37) rotate(-29.96)"/><rect class="cls-3" x="-13.09" y="589.27" width="470.83" height="1.92" transform="translate(-104.08 172.14) rotate(-29.96)"/><rect class="cls-3" x="-7.78" y="592.04" width="470.83" height="1.92" transform="translate(-104.86 175.29) rotate(-29.98)"/><rect class="cls-3" x="-3.04" y="595.01" width="470.83" height="1.92" transform="translate(-105.9 178.29) rotate(-30)"/><rect class="cls-3" x="2.28" y="597.73" width="470.83" height="1.92" transform="translate(-106.25 180.94) rotate(-29.96)"/><rect class="cls-3" x="6.67" y="600.79" width="470.83" height="1.92" transform="translate(-107.19 183.54) rotate(-29.96)"/><rect class="cls-3" x="11.9" y="603.58" width="470.83" height="1.92" transform="translate(-107.89 186.52) rotate(-29.96)"/><rect class="cls-3" x="16.63" y="606.54" width="470.83" height="1.92" transform="translate(-108.73 189.29) rotate(-29.96)"/><rect class="cls-3" x="21.96" y="609.27" width="470.83" height="1.92" transform="translate(-109.57 192.56) rotate(-29.99)"/><rect class="cls-3" x="26.69" y="612.23" width="470.83" height="1.92" transform="translate(-110.23 195.07) rotate(-29.96)"/></g><path class="cls-3" d="M341.87,624.66a27.27,27.27,0,0,0,2.45-12.08V211.88c0-16.41-10-35.47-22.28-42.58L78.19,29.91c-5.2-3-10-3.36-13.76-1.57h0c-6.61,2.32-12.48,8-12.48,8l4.2,6.41h0a36.47,36.47,0,0,0-.24,4V447.46c0,16.4,10,35.46,22.28,42.57L322,629.42l4,7.81a24.42,24.42,0,0,0,15.41-11.69l.08-.15c.12-.21.22-.44.33-.66Z" transform="translate(160.97 -17.76)"/><path class="cls-3" d="M325.1,639.09l-4.31-8.47L77.37,491.47c-12.75-7.36-23.12-27.1-23.12-44V46.75c0-1.13.06-2.28.18-3.56l-4.64-7.1,1-1c.25-.25,6.21-6,13.09-8.38l.13-.05c4.37-1.94,9.7-1.32,15,1.76L322.86,167.86c12.75,7.36,23.12,27.11,23.12,44v400.7a28.91,28.91,0,0,1-2.6,12.79l-.41.81a26,26,0,0,1-16.65,12.68ZM58,40.61l-.24,2.31a36,36,0,0,0-.23,3.83V447.46c0,15.85,9.62,34.3,21.45,41.13L323.3,628.23l3.59,7A23.13,23.13,0,0,0,340,624.73l.38-.74,1.51.67-1.49-.73a25.68,25.68,0,0,0,2.28-11.35V211.88c0-15.86-9.62-34.31-21.45-41.14L77.37,31.35c-4.55-2.62-8.78-3.14-12.23-1.51l-.82.39-.1-.06A38.35,38.35,0,0,0,54.1,36.61l2.78,4.26Z" transform="translate(160.97 -17.76)"/><path class="cls-4" d="M312.29,635.61,68.44,496.21c-12.3-7.1-22.28-26.16-22.28-42.57V52.94c0-16.41,10-23.95,22.28-16.84L312.29,175.49c12.31,7.1,22.29,26.17,22.29,42.57v400.7C334.58,635.17,324.6,642.71,312.29,635.61Z" transform="translate(160.97 -17.76)"/><path class="cls-3" d="M321.15,639.94a19.56,19.56,0,0,1-9.68-2.89L67.62,497.66c-12.75-7.37-23.12-27.11-23.12-44V52.94c0-9.24,3.11-16.33,8.53-19.46,4.58-2.65,10.35-2.23,16.25,1.18L313.12,174.05c12.75,7.36,23.12,27.1,23.12,44v400.7c0,9.24-3.11,16.33-8.54,19.46A12.92,12.92,0,0,1,321.15,639.94ZM59.59,35.09a9.59,9.59,0,0,0-4.89,1.27c-4.37,2.52-6.88,8.56-6.88,16.58v400.7c0,15.85,9.63,34.31,21.46,41.14L313.12,634.17c4.83,2.78,9.41,3.2,12.92,1.18,4.37-2.53,6.87-8.57,6.87-16.59V218.06c0-15.85-9.62-34.3-21.45-41.13L67.62,37.54A16.26,16.26,0,0,0,59.59,35.09Z" transform="translate(160.97 -17.76)"/><path class="cls-5" d="M305.33,181.06,66,44.27c-6.19-3.58-11.26-.65-11.26,6.5v404c0,13.14,9.31,29.26,20.69,35.83L314.76,627.43c6.19,3.58,11.26.65,11.26-6.5v-404C326,203.76,316.71,187.63,305.33,181.06Z" transform="translate(160.97 -17.76)"/><path class="cls-3" d="M319.76,630.63a11.79,11.79,0,0,1-5.83-1.76L74.59,492.08c-11.88-6.85-21.53-23.57-21.53-37.27v-404c0-4.08,1.47-7.17,4.14-8.71s6.08-1.27,9.61.77l239.35,136.8c11.87,6.85,21.52,23.57,21.52,37.27v404c0,4.08-1.47,7.18-4.14,8.72A7.53,7.53,0,0,1,319.76,630.63ZM61,44.4a4.19,4.19,0,0,0-2.13.54c-1.6.92-2.48,3-2.48,5.83v404c0,12.64,8.91,28.07,19.86,34.39L315.58,626c2.47,1.43,4.7,1.7,6.3.78s2.47-3,2.47-5.84v-404c0-12.65-8.9-28.07-19.85-34.4L65.16,45.71A8.58,8.58,0,0,0,61,44.4Z" transform="translate(160.97 -17.76)"/><path class="cls-3" d="M317.47,625.61,78.12,488.82c-11.38-6.57-20.69-22.7-20.69-35.83V49c0-2.67.14-3.64,1.34-5-2.79.76-4.05,2.42-4.05,6.7v404c0,13.14,9.31,29.26,20.69,35.83L314.76,627.3c3.88,2.24,6.17,1.46,8.2-.85C321.09,627,320,627,317.47,625.61Z" transform="translate(160.97 -17.76)"/><path class="cls-3" d="M318.86,630.3a9.91,9.91,0,0,1-4.93-1.57L74.59,491.94c-11.88-6.85-21.53-23.57-21.53-37.27v-404c0-4.81,1.58-7.29,5.27-8.3l5.32-1.45L60,45c-.77.88-.92,1.28-.92,3.92V453c0,12.64,8.9,28.07,19.85,34.39L318.3,624.17c2.06,1.19,2.74,1.07,4.22.67l5.31-1.44-3.62,4.14A7,7,0,0,1,318.86,630.3Z" transform="translate(160.97 -17.76)"/><rect class="cls-5" x="328.89" y="190.61" width="9.97" height="1.92" transform="translate(109.92 171.27) rotate(-29.47)"/><path class="cls-5" d="M68,35.84l-1.41-1.3A20.61,20.61,0,0,1,76.34,29l.43,1.86A19,19,0,0,0,68,35.84Z" transform="translate(160.97 -17.76)"/><path class="cls-5" d="M72.65,38.47l-1.41-1.29A20.55,20.55,0,0,1,81,31.62l.43,1.86A19,19,0,0,0,72.65,38.47Z" transform="translate(160.97 -17.76)"/><rect class="cls-5" x="333.23" y="202.39" width="9.97" height="1.92" transform="translate(105.8 154.09) rotate(-26.44)"/><path class="cls-5" d="M335.8,604.36l-.89-1.69a49.6,49.6,0,0,0,8.76-5.85l1.3,1.4A50.07,50.07,0,0,1,335.8,604.36Z" transform="translate(160.97 -17.76)"/><path class="cls-5" d="M335.8,618.64l-.89-1.69a49.28,49.28,0,0,0,8.76-5.86l1.3,1.41A50.07,50.07,0,0,1,335.8,618.64Z" transform="translate(160.97 -17.76)"/><path class="cls-5" d="M335.8,624.47l-.89-1.69a49.28,49.28,0,0,0,8.76-5.86l1.3,1.41A50.07,50.07,0,0,1,335.8,624.47Z" transform="translate(160.97 -17.76)"/><path class="cls-3" d="M339.66,345.09l-.37.21c-1.37.79-2.48-.05-2.48-1.87V322.87a5.93,5.93,0,0,1,2.48-4.74l.37-.21c1.37-.79,2.48.05,2.48,1.87v20.56A5.93,5.93,0,0,1,339.66,345.09Z" transform="translate(160.97 -17.76)"/><path class="cls-5" d="M338.31,346.55a2.18,2.18,0,0,1-1.12-.29,3.1,3.1,0,0,1-1.33-2.83V322.87a6.91,6.91,0,0,1,2.95-5.57l.37-.21a2.53,2.53,0,0,1,2.59-.13,3.13,3.13,0,0,1,1.33,2.83v20.56a6.91,6.91,0,0,1-3,5.57l-.37.21A3,3,0,0,1,338.31,346.55Zm2.34-28a1.13,1.13,0,0,0-.51.17l-.37.21a5.06,5.06,0,0,0-2,3.91v20.56c0,.66.19,1.06.38,1.17s.53-.05.66-.13l.37-.21a5,5,0,0,0,2-3.91V319.79c0-.66-.18-1.07-.37-1.17A.32.32,0,0,0,340.65,318.58Z" transform="translate(160.97 -17.76)"/><path class="cls-3" d="M339.66,312.1l-.37.21c-1.37.79-2.48-.05-2.48-1.87V289.88a5.93,5.93,0,0,1,2.48-4.74l.37-.21c1.37-.79,2.48.05,2.48,1.87v20.56A5.93,5.93,0,0,1,339.66,312.1Z" transform="translate(160.97 -17.76)"/><path class="cls-5" d="M338.31,313.57a2.19,2.19,0,0,1-1.12-.3,3.1,3.1,0,0,1-1.33-2.83V289.88a6.91,6.91,0,0,1,2.95-5.57l.37-.21a2.53,2.53,0,0,1,2.58-.13,3.11,3.11,0,0,1,1.34,2.83v20.56a6.9,6.9,0,0,1-3,5.57l-.37.21A3,3,0,0,1,338.31,313.57Zm2.34-28a1.13,1.13,0,0,0-.51.17l-.37.21a5.07,5.07,0,0,0-2,3.91v20.56c0,.66.19,1.07.38,1.17s.53-.05.66-.13l.37-.21a5,5,0,0,0,2-3.91V286.8c0-.66-.18-1.06-.38-1.17A.26.26,0,0,0,340.65,285.59Z" transform="translate(160.97 -17.76)"/><path class="cls-3" d="M339.66,274.47l-.37.21c-1.37.79-2.48-.05-2.48-1.87V261.24a5.93,5.93,0,0,1,2.48-4.73l.37-.22c1.37-.79,2.48,0,2.48,1.88v11.56A5.93,5.93,0,0,1,339.66,274.47Z" transform="translate(160.97 -17.76)"/><path class="cls-5" d="M338.31,275.93a2.18,2.18,0,0,1-1.12-.29,3.1,3.1,0,0,1-1.33-2.83V261.24a6.89,6.89,0,0,1,2.95-5.56l.37-.22a2.56,2.56,0,0,1,2.58-.13,3.13,3.13,0,0,1,1.34,2.84v11.56a6.91,6.91,0,0,1-3,5.57l-.37.21A3,3,0,0,1,338.31,275.93Zm2.34-19a1.27,1.27,0,0,0-.51.17l-.37.22a5.05,5.05,0,0,0-2,3.9v11.57c0,.66.19,1.06.38,1.17s.53-.05.66-.13l.37-.21a5,5,0,0,0,2-3.91V258.17c0-.66-.18-1.07-.38-1.18A.37.37,0,0,0,340.65,257Z" transform="translate(160.97 -17.76)"/><path class="cls-5" d="M339.66,265.47l-.37.21c-1.37.79-2.48-.05-2.48-1.87v-2.57a5.93,5.93,0,0,1,2.48-4.73l.37-.22c1.37-.79,2.48,0,2.48,1.88v2.56A5.93,5.93,0,0,1,339.66,265.47Z" transform="translate(160.97 -17.76)"/><path class="cls-5" d="M338.31,266.94a2.19,2.19,0,0,1-1.12-.3,3.1,3.1,0,0,1-1.33-2.83v-2.57a6.89,6.89,0,0,1,2.95-5.56l.37-.22a2.56,2.56,0,0,1,2.58-.13,3.13,3.13,0,0,1,1.34,2.84v2.56a6.9,6.9,0,0,1-3,5.57l-.37.21A2.88,2.88,0,0,1,338.31,266.94Zm2.34-10a1.27,1.27,0,0,0-.51.17l-.37.22a5.05,5.05,0,0,0-2,3.9v2.57c0,.66.19,1.07.38,1.18s.53-.06.66-.14l.37-.21a5,5,0,0,0,2-3.91v-2.56c0-.66-.18-1.07-.38-1.18A.37.37,0,0,0,340.65,257Z" transform="translate(160.97 -17.76)"/><rect class="cls-5" x="326.11" y="185.75" width="10.3" height="1.92" transform="translate(112.07 177.63) rotate(-30.71)"/><path class="cls-3" d="M88.66,27.79l-7.32-3.73a26.59,26.59,0,0,0-13.9-2.92l-.23-3.31A30.07,30.07,0,0,1,82.85,21.1l7.32,3.73Z" transform="translate(160.97 -17.76)"/><path class="cls-3" d="M40.09,55.8H36.76V47.19a26.57,26.57,0,0,1,4.32-14.74A32.63,32.63,0,0,1,59.62,19.24l.93,3.19a29,29,0,0,0-16.7,11.85,23.28,23.28,0,0,0-3.76,12.91Z" transform="translate(160.97 -17.76)"/><rect class="cls-3" x="510.96" y="577.68" width="3.32" height="18.33"/><path class="cls-3" d="M339.66,535.36l-.37.22c-1.37.79-2.48-.05-2.48-1.88V493.37a5.93,5.93,0,0,1,2.48-4.74l.37-.21c1.37-.79,2.48.05,2.48,1.87v40.34A5.93,5.93,0,0,1,339.66,535.36Z" transform="translate(160.97 -17.76)"/><path class="cls-5" d="M338.31,536.83a2.28,2.28,0,0,1-1.12-.29,3.12,3.12,0,0,1-1.33-2.84V493.37a6.93,6.93,0,0,1,2.95-5.57l.38-.21a2.55,2.55,0,0,1,2.58-.13,3.13,3.13,0,0,1,1.33,2.83v40.34a6.88,6.88,0,0,1-3,5.56h0l-.37.22A3,3,0,0,1,338.31,536.83Zm2.34-47.75a1.13,1.13,0,0,0-.51.17l-.37.21a5.07,5.07,0,0,0-2,3.91V533.7c0,.66.19,1.07.38,1.18s.53-.06.66-.14l.37-.21a5,5,0,0,0,2-3.9V490.29c0-.66-.18-1.06-.37-1.17A.32.32,0,0,0,340.65,489.08Z" transform="translate(160.97 -17.76)"/><path class="cls-5" d="M338.44,528.89c0,.66.47.93,1,.6a2.28,2.28,0,0,0,1-1.79c0-.66-.46-.93-1-.6A2.29,2.29,0,0,0,338.44,528.89Z" transform="translate(160.97 -17.76)"/><path class="cls-3" d="M263.24,141.44l-.36.22c-1.36.8-1.18,2.18.41,3.08l17.9,10.12a5.93,5.93,0,0,0,5.34.17l.37-.21c1.36-.81,1.18-2.19-.41-3.09l-17.9-10.11A6,6,0,0,0,263.24,141.44Z" transform="translate(160.97 -17.76)"/><path class="cls-5" d="M284.15,156.54a7.1,7.1,0,0,1-3.44-.85l-17.89-10.11A3.14,3.14,0,0,1,261,143a2.56,2.56,0,0,1,1.38-2.18l.37-.21a6.88,6.88,0,0,1,6.3.16L287,150.9a3.13,3.13,0,0,1,1.81,2.56,2.55,2.55,0,0,1-1.38,2.18l-.37.22A5.75,5.75,0,0,1,284.15,156.54Zm-20.42-14.27-.36.21c-.14.08-.45.29-.45.52s.27.58.84.91L281.66,154a5.06,5.06,0,0,0,4.38.19l.37-.22c.13-.08.44-.29.44-.51s-.26-.59-.84-.91l-17.89-10.12a5,5,0,0,0-4.39-.18Z" transform="translate(160.97 -17.76)"/><path class="cls-3" d="M106,51.54l-.47.28c-1.75,1-1.51,2.79.52,3.93l.78.34a7.57,7.57,0,0,0,6.83.22l.47-.28c1.74-1,1.5-2.79-.53-3.93l-.77-.34A7.57,7.57,0,0,0,106,51.54Z" transform="translate(160.97 -17.76)"/><path class="cls-5" d="M110.64,58a8.85,8.85,0,0,1-4.26-1.06l-.68-.29a3.79,3.79,0,0,1-2.27-3.08A3,3,0,0,1,105.07,51l.47-.27a8.49,8.49,0,0,1,7.79.21l.68.29a3.77,3.77,0,0,1,2.27,3.08,3,3,0,0,1-1.64,2.56l-.47.28A7.06,7.06,0,0,1,110.64,58ZM109,51.79a5.13,5.13,0,0,0-2.52.57h0l-.47.27c-.26.16-.7.48-.69.89s.46,1,1.2,1.39l.69.29a6.7,6.7,0,0,0,6,.27l.47-.27c.26-.16.7-.48.69-.89s-.46-1-1.2-1.39l-.68-.29A7.34,7.34,0,0,0,109,51.79Z" transform="translate(160.97 -17.76)"/><path class="cls-3" d="M114.47,55.8a4.8,4.8,0,0,0-.84-.61l-.77-.33a7.6,7.6,0,0,0-6.83-.23l-.47.28a2.49,2.49,0,0,0-.31.23c-1.2-1.1-1.15-2.47.31-3.32l.47-.28a7.57,7.57,0,0,1,6.83.22l.77.34C115.52,53.17,115.83,54.76,114.47,55.8Z" transform="translate(160.97 -17.76)"/><path class="cls-5" d="M114.41,57.05l-.59-.54a3.63,3.63,0,0,0-.66-.49l-.68-.28a6.73,6.73,0,0,0-6-.28l-1.32.93-.59-.54a3.11,3.11,0,0,1-1.14-2.6A3,3,0,0,1,105.07,51l.47-.28a8.53,8.53,0,0,1,7.79.22l.68.29a3.82,3.82,0,0,1,2.25,2.91,2.79,2.79,0,0,1-1.21,2.43ZM109.07,53A8.84,8.84,0,0,1,113.33,54l.68.29.31.18a.58.58,0,0,0,0-.23c0-.43-.47-.93-1.19-1.33l-.68-.29a6.76,6.76,0,0,0-6-.28l-.47.28c-.23.14-.64.43-.68.81a.79.79,0,0,0,.09.41l.09,0A7.12,7.12,0,0,1,109.07,53Z" transform="translate(160.97 -17.76)"/><path class="cls-5" d="M111.4,125l111.49,64.28c2.25,1.3,4.07-.08,4.07-3.07h0c0-3-1.82-6.47-4.07-7.76L111.4,114.18c-2.24-1.3-4.06.08-4.06,3.07h0C107.34,120.24,109.16,123.71,111.4,125Z" transform="translate(160.97 -17.76)"/><path class="cls-4" d="M224.51,191.06a4.5,4.5,0,0,1-2.25-.66l-111.5-64.29c-2.63-1.52-4.7-5.41-4.7-8.86,0-2,.75-3.65,2-4.39a3.81,3.81,0,0,1,3.93.21l111.49,64.28c2.64,1.52,4.7,5.42,4.7,8.87,0,2-.74,3.64-2,4.39A3.31,3.31,0,0,1,224.51,191.06ZM112,123.9l111.49,64.29a1.52,1.52,0,0,0,1.38.21c.37-.21.77-.9.77-2.18,0-2.54-1.57-5.58-3.42-6.65l-111.5-64.29c-.33-.19-.94-.47-1.38-.21s-.76.9-.76,2.18c0,2.53,1.56,5.58,3.42,6.65Z" transform="translate(160.97 -17.76)"/><path class="cls-5" d="M89.51,107.29a10.59,10.59,0,0,0,4.78,8.28c2.64,1.52,4.78.28,4.78-2.76a10.56,10.56,0,0,0-4.78-8.28C91.65,103,89.51,104.24,89.51,107.29Z" transform="translate(160.97 -17.76)"/><path class="cls-4" d="M96.43,117.5a5.61,5.61,0,0,1-2.78-.83,11.81,11.81,0,0,1-5.42-9.38,4.16,4.16,0,0,1,6.7-3.87,11.81,11.81,0,0,1,5.42,9.39,4.57,4.57,0,0,1-2,4.2A3.72,3.72,0,0,1,96.43,117.5Zm-4.27-12.35a1.17,1.17,0,0,0-.61.15,2.21,2.21,0,0,0-.76,2,9.3,9.3,0,0,0,4.14,7.17,2.19,2.19,0,0,0,2.1.33,2.22,2.22,0,0,0,.76-2,9.33,9.33,0,0,0-4.14-7.18A3.1,3.1,0,0,0,92.16,105.15Z" transform="translate(160.97 -17.76)"/><path class="cls-4" d="M224.51,214.83a4.5,4.5,0,0,1-2.25-.66l-111.5-64.29c-2.63-1.52-4.7-5.41-4.7-8.87a4.83,4.83,0,0,1,2-4.39,3.84,3.84,0,0,1,3.93.22l111.49,64.28c2.64,1.52,4.7,5.42,4.7,8.87,0,2-.74,3.64-2,4.39A3.31,3.31,0,0,1,224.51,214.83ZM112,147.67,223.53,212a1.52,1.52,0,0,0,1.38.22c.37-.22.77-.9.77-2.18,0-2.54-1.57-5.59-3.42-6.66l-111.5-64.28c-.33-.19-.94-.47-1.38-.21s-.76.9-.76,2.17c0,2.54,1.57,5.59,3.42,6.66Z" transform="translate(160.97 -17.76)"/><path class="cls-5" d="M89.51,131.05a10.56,10.56,0,0,0,4.78,8.28c2.64,1.53,4.78.29,4.78-2.76a10.57,10.57,0,0,0-4.78-8.28C91.65,126.77,89.51,128,89.51,131.05Z" transform="translate(160.97 -17.76)"/><path class="cls-4" d="M96.43,141.27a5.61,5.61,0,0,1-2.78-.83,11.83,11.83,0,0,1-5.42-9.39,4.16,4.16,0,0,1,6.7-3.86,11.8,11.8,0,0,1,5.42,9.38,4.57,4.57,0,0,1-2,4.2A3.73,3.73,0,0,1,96.43,141.27Zm-4.27-12.35a1.17,1.17,0,0,0-.61.15,2.18,2.18,0,0,0-.76,2,9.31,9.31,0,0,0,4.14,7.18,1.69,1.69,0,0,0,2.86-1.66,9.32,9.32,0,0,0-4.14-7.17A3.1,3.1,0,0,0,92.16,128.92Z" transform="translate(160.97 -17.76)"/><path class="cls-4" d="M111.4,172.55l111.49,64.28c2.25,1.29,4.07-.08,4.07-3.07h0c0-3-1.82-6.47-4.07-7.77L111.4,161.71c-2.24-1.29-4.06.08-4.06,3.07h0C107.34,167.77,109.16,171.25,111.4,172.55Z" transform="translate(160.97 -17.76)"/><path class="cls-4" d="M224.51,238.6a4.51,4.51,0,0,1-2.25-.67l-111.5-64.28c-2.63-1.52-4.7-5.42-4.7-8.87a4.83,4.83,0,0,1,2-4.39,3.81,3.81,0,0,1,3.93.22l111.49,64.28c2.64,1.52,4.7,5.41,4.7,8.87,0,2-.74,3.64-2,4.39A3.31,3.31,0,0,1,224.51,238.6ZM112,171.44l111.49,64.28c.33.19.94.47,1.38.21s.77-.89.77-2.17c0-2.54-1.57-5.59-3.42-6.66l-111.5-64.28a1.52,1.52,0,0,0-1.38-.22c-.37.22-.76.9-.76,2.18,0,2.54,1.56,5.59,3.42,6.66Z" transform="translate(160.97 -17.76)"/><path class="cls-4" d="M89.51,154.82a10.56,10.56,0,0,0,4.78,8.28c2.64,1.53,4.78.29,4.78-2.76a10.57,10.57,0,0,0-4.78-8.28C91.65,150.54,89.51,151.77,89.51,154.82Z" transform="translate(160.97 -17.76)"/><path class="cls-4" d="M96.43,165a5.61,5.61,0,0,1-2.78-.83,11.83,11.83,0,0,1-5.42-9.39,4.16,4.16,0,0,1,6.7-3.86,11.8,11.8,0,0,1,5.42,9.38,4.57,4.57,0,0,1-2,4.2A3.73,3.73,0,0,1,96.43,165Zm-4.27-12.35a1.17,1.17,0,0,0-.61.14,2.22,2.22,0,0,0-.76,2A9.28,9.28,0,0,0,94.93,162a2.2,2.2,0,0,0,2.1.34,2.23,2.23,0,0,0,.76-2,9.31,9.31,0,0,0-4.14-7.17A3.1,3.1,0,0,0,92.16,152.69Z" transform="translate(160.97 -17.76)"/><path class="cls-5" d="M111.4,196l111.49,64.29c2.25,1.29,4.07-.08,4.07-3.07h0c0-3-1.82-6.47-4.07-7.77L111.4,185.2c-2.24-1.29-4.06.08-4.06,3.07h0C107.34,191.26,109.16,194.74,111.4,196Z" transform="translate(160.97 -17.76)"/><path class="cls-4" d="M224.51,262.09a4.51,4.51,0,0,1-2.25-.67l-111.5-64.28c-2.63-1.52-4.7-5.42-4.7-8.87a4.83,4.83,0,0,1,2-4.39,3.83,3.83,0,0,1,3.93.21l111.49,64.29c2.64,1.52,4.7,5.42,4.7,8.87,0,2-.74,3.64-2,4.39A3.31,3.31,0,0,1,224.51,262.09ZM112,194.93l111.49,64.28c.33.19.95.47,1.38.22s.77-.9.77-2.18c0-2.54-1.57-5.59-3.42-6.66l-111.5-64.28a1.52,1.52,0,0,0-1.38-.22c-.37.22-.76.9-.76,2.18,0,2.54,1.56,5.59,3.42,6.66Z" transform="translate(160.97 -17.76)"/><path class="cls-4" d="M96.43,188.53a5.61,5.61,0,0,1-2.78-.83,11.83,11.83,0,0,1-5.42-9.39,4.16,4.16,0,0,1,6.7-3.86,11.8,11.8,0,0,1,5.42,9.38,4.57,4.57,0,0,1-2,4.2A3.73,3.73,0,0,1,96.43,188.53Zm-4.27-12.36a1.17,1.17,0,0,0-.61.15,2.22,2.22,0,0,0-.76,2,9.28,9.28,0,0,0,4.14,7.17,2.2,2.2,0,0,0,2.1.34,2.24,2.24,0,0,0,.76-2,9.31,9.31,0,0,0-4.14-7.17A3.13,3.13,0,0,0,92.16,176.17Z" transform="translate(160.97 -17.76)"/><path class="cls-5" d="M111.4,219.8l111.49,64.28c2.25,1.3,4.07-.07,4.07-3.07h0c0-3-1.82-6.46-4.07-7.76L111.4,209c-2.24-1.3-4.06.08-4.06,3.07h0C107.34,215,109.16,218.51,111.4,219.8Z" transform="translate(160.97 -17.76)"/><path class="cls-4" d="M224.51,285.85a4.5,4.5,0,0,1-2.25-.66l-111.5-64.28c-2.63-1.52-4.7-5.42-4.7-8.87a4.83,4.83,0,0,1,2-4.39,3.81,3.81,0,0,1,3.93.21l111.49,64.29c2.64,1.52,4.7,5.41,4.7,8.86,0,2.05-.74,3.65-2,4.4A3.3,3.3,0,0,1,224.51,285.85ZM112,218.7,223.53,283c.33.19.95.47,1.38.21s.77-.89.77-2.18c0-2.53-1.57-5.58-3.42-6.65l-111.5-64.28a1.52,1.52,0,0,0-1.38-.22c-.37.22-.76.9-.76,2.18,0,2.54,1.56,5.58,3.42,6.66Z" transform="translate(160.97 -17.76)"/><path class="cls-5" d="M89.51,202.08a10.57,10.57,0,0,0,4.78,8.28c2.64,1.52,4.78.29,4.78-2.76a10.56,10.56,0,0,0-4.78-8.28C91.65,197.79,89.51,199,89.51,202.08Z" transform="translate(160.97 -17.76)"/><path class="cls-4" d="M96.43,212.29a5.51,5.51,0,0,1-2.78-.83,11.8,11.8,0,0,1-5.42-9.38,4.17,4.17,0,0,1,6.7-3.87,11.83,11.83,0,0,1,5.42,9.39,4.57,4.57,0,0,1-2,4.2A3.72,3.72,0,0,1,96.43,212.29Zm-4.27-12.35a1.17,1.17,0,0,0-.61.15,2.22,2.22,0,0,0-.76,2,9.28,9.28,0,0,0,4.14,7.17,1.69,1.69,0,0,0,2.86-1.65,9.31,9.31,0,0,0-4.14-7.17A3.13,3.13,0,0,0,92.16,199.94Z" transform="translate(160.97 -17.76)"/><path class="cls-5" d="M175.08,297.62,286.57,361.9c2.24,1.29,4.06-.08,4.06-3.07h0c0-3-1.82-6.47-4.06-7.77L175.08,286.78c-2.25-1.29-4.07.08-4.07,3.07h0C171,292.84,172.83,296.32,175.08,297.62Z" transform="translate(160.97 -17.76)"/><path class="cls-4" d="M288.18,363.67a4.44,4.44,0,0,1-2.25-.67L174.44,298.72c-2.64-1.52-4.7-5.42-4.7-8.87,0-2,.74-3.64,2-4.39a3.85,3.85,0,0,1,3.94.21L287.21,350c2.63,1.52,4.7,5.42,4.7,8.87a4.83,4.83,0,0,1-2.05,4.39A3.28,3.28,0,0,1,288.18,363.67ZM175.72,296.51l111.49,64.28c.33.19,1,.47,1.38.22s.76-.9.76-2.18c0-2.54-1.57-5.59-3.42-6.66L174.44,287.89c-.33-.19-.95-.47-1.38-.22s-.77.9-.77,2.18c0,2.54,1.57,5.59,3.43,6.66Z" transform="translate(160.97 -17.76)"/><path class="cls-5" d="M153.18,279.89a10.56,10.56,0,0,0,4.78,8.28c2.64,1.52,4.78.29,4.78-2.76a10.57,10.57,0,0,0-4.78-8.28C155.32,275.61,153.18,276.84,153.18,279.89Z" transform="translate(160.97 -17.76)"/><path class="cls-4" d="M160.1,290.11a5.64,5.64,0,0,1-2.78-.83,11.83,11.83,0,0,1-5.42-9.39,4.17,4.17,0,0,1,6.7-3.87,11.83,11.83,0,0,1,5.42,9.39,4.55,4.55,0,0,1-2,4.2A3.73,3.73,0,0,1,160.1,290.11Zm-4.27-12.35a1.2,1.2,0,0,0-.61.14,2.24,2.24,0,0,0-.76,2,9.31,9.31,0,0,0,4.14,7.17,1.69,1.69,0,0,0,2.86-1.65,9.28,9.28,0,0,0-4.14-7.17A3.1,3.1,0,0,0,155.83,277.76Z" transform="translate(160.97 -17.76)"/><path class="cls-4" d="M288.18,387.43a4.53,4.53,0,0,1-2.25-.66L174.44,322.49c-2.64-1.52-4.7-5.42-4.7-8.87,0-2,.74-3.64,2-4.39a3.83,3.83,0,0,1,3.94.21l111.49,64.29c2.63,1.52,4.7,5.41,4.7,8.87a4.83,4.83,0,0,1-2.05,4.39A3.27,3.27,0,0,1,288.18,387.43ZM175.72,320.28l111.49,64.28c.33.19,1,.47,1.38.21s.76-.89.76-2.17c0-2.54-1.57-5.59-3.42-6.66L174.44,311.66a1.52,1.52,0,0,0-1.38-.22c-.37.22-.77.9-.77,2.18,0,2.54,1.57,5.58,3.43,6.66Z" transform="translate(160.97 -17.76)"/><path class="cls-5" d="M153.18,303.66a10.57,10.57,0,0,0,4.78,8.28c2.64,1.52,4.78.29,4.78-2.76A10.56,10.56,0,0,0,158,300.9C155.32,299.37,153.18,300.61,153.18,303.66Z" transform="translate(160.97 -17.76)"/><path class="cls-4" d="M160.1,313.87a5.62,5.62,0,0,1-2.78-.82,11.83,11.83,0,0,1-5.42-9.39,4.17,4.17,0,0,1,6.7-3.87,11.83,11.83,0,0,1,5.42,9.39,4.55,4.55,0,0,1-2,4.2A3.72,3.72,0,0,1,160.1,313.87Zm-4.27-12.35a1.2,1.2,0,0,0-.61.15,2.23,2.23,0,0,0-.76,2,9.31,9.31,0,0,0,4.14,7.17,1.69,1.69,0,0,0,2.86-1.65,9.28,9.28,0,0,0-4.14-7.17A3.13,3.13,0,0,0,155.83,301.52Z" transform="translate(160.97 -17.76)"/><path class="cls-5" d="M175.08,345.15l111.49,64.28c2.24,1.3,4.06-.08,4.06-3.07h0c0-3-1.82-6.46-4.06-7.76L175.08,334.32c-2.25-1.3-4.07.08-4.07,3.07h0C171,340.38,172.83,343.86,175.08,345.15Z" transform="translate(160.97 -17.76)"/><path class="cls-4" d="M288.18,411.2a4.53,4.53,0,0,1-2.25-.66L174.44,346.26c-2.64-1.53-4.7-5.42-4.7-8.87,0-2,.74-3.64,2-4.39a3.83,3.83,0,0,1,3.94.21l111.49,64.28c2.63,1.53,4.7,5.42,4.7,8.87,0,2-.75,3.65-2.05,4.39A3.28,3.28,0,0,1,288.18,411.2ZM175.72,344.05l111.49,64.28c.33.19,1,.47,1.38.21s.76-.9.76-2.18c0-2.53-1.57-5.58-3.42-6.65L174.44,335.42c-.33-.18-.94-.46-1.38-.21s-.77.9-.77,2.18c0,2.53,1.57,5.58,3.43,6.66Z" transform="translate(160.97 -17.76)"/><path class="cls-5" d="M153.18,327.43a10.57,10.57,0,0,0,4.78,8.28c2.64,1.52,4.78.29,4.78-2.76a10.56,10.56,0,0,0-4.78-8.28C155.32,323.14,153.18,324.38,153.18,327.43Z" transform="translate(160.97 -17.76)"/><path class="cls-4" d="M160.1,337.64a5.64,5.64,0,0,1-2.78-.83,11.81,11.81,0,0,1-5.42-9.38,4.17,4.17,0,0,1,6.7-3.87A11.83,11.83,0,0,1,164,333a4.55,4.55,0,0,1-2,4.2A3.72,3.72,0,0,1,160.1,337.64Zm-4.27-12.35a1.2,1.2,0,0,0-.61.15,2.23,2.23,0,0,0-.76,2,9.32,9.32,0,0,0,4.14,7.17,2.22,2.22,0,0,0,2.1.33,2.18,2.18,0,0,0,.76-2,9.31,9.31,0,0,0-4.14-7.18A3.1,3.1,0,0,0,155.83,325.29Z" transform="translate(160.97 -17.76)"/><path class="cls-4" d="M175.08,368.64l111.49,64.28c2.24,1.3,4.06-.08,4.06-3.07h0c0-3-1.82-6.46-4.06-7.76L175.08,357.81c-2.25-1.3-4.07.08-4.07,3.07h0C171,363.87,172.83,367.35,175.08,368.64Z" transform="translate(160.97 -17.76)"/><path class="cls-4" d="M288.18,434.69a4.53,4.53,0,0,1-2.25-.66L174.44,369.75c-2.64-1.52-4.7-5.42-4.7-8.87,0-2,.74-3.64,2-4.39a3.83,3.83,0,0,1,3.94.21L287.21,421c2.63,1.53,4.7,5.42,4.7,8.87a4.83,4.83,0,0,1-2.05,4.39A3.28,3.28,0,0,1,288.18,434.69ZM175.72,367.53l111.49,64.29a1.49,1.49,0,0,0,1.38.21c.36-.21.76-.9.76-2.18,0-2.53-1.57-5.58-3.42-6.65L174.44,358.91a1.53,1.53,0,0,0-1.38-.21c-.37.21-.77.9-.77,2.18,0,2.53,1.57,5.58,3.43,6.65Z" transform="translate(160.97 -17.76)"/><path class="cls-4" d="M153.18,350.92A10.57,10.57,0,0,0,158,359.2c2.64,1.52,4.78.28,4.78-2.76a10.56,10.56,0,0,0-4.78-8.28C155.32,346.63,153.18,347.87,153.18,350.92Z" transform="translate(160.97 -17.76)"/><path class="cls-4" d="M160.1,361.13a5.54,5.54,0,0,1-2.78-.83,11.81,11.81,0,0,1-5.42-9.38,4.17,4.17,0,0,1,6.7-3.87,11.83,11.83,0,0,1,5.42,9.39,4.55,4.55,0,0,1-2,4.2A3.72,3.72,0,0,1,160.1,361.13Zm-4.27-12.35a1.2,1.2,0,0,0-.61.15,2.23,2.23,0,0,0-.76,2,9.32,9.32,0,0,0,4.14,7.17,1.69,1.69,0,0,0,2.86-1.65,9.3,9.3,0,0,0-4.14-7.18A3.1,3.1,0,0,0,155.83,348.78Z" transform="translate(160.97 -17.76)"/><path class="cls-5" d="M175.08,392.41l111.49,64.28c2.24,1.3,4.06-.08,4.06-3.07h0c0-3-1.82-6.47-4.06-7.76L175.08,381.57c-2.25-1.29-4.07.09-4.07,3.08h0C171,387.64,172.83,391.11,175.08,392.41Z" transform="translate(160.97 -17.76)"/><path class="cls-4" d="M288.18,458.46a4.53,4.53,0,0,1-2.25-.66L174.44,393.52c-2.64-1.53-4.7-5.42-4.7-8.87,0-2,.74-3.65,2-4.39a3.83,3.83,0,0,1,3.94.21l111.49,64.28c2.63,1.52,4.7,5.42,4.7,8.87a4.83,4.83,0,0,1-2.05,4.39A3.28,3.28,0,0,1,288.18,458.46ZM175.72,391.3l111.49,64.28a1.5,1.5,0,0,0,1.38.22c.37-.21.76-.9.76-2.18,0-2.54-1.57-5.58-3.42-6.65L174.44,382.68a1.53,1.53,0,0,0-1.38-.21c-.37.21-.77.9-.77,2.18,0,2.53,1.57,5.58,3.43,6.65Z" transform="translate(160.97 -17.76)"/><path class="cls-5" d="M153.18,374.69A10.56,10.56,0,0,0,158,383c2.64,1.53,4.78.29,4.78-2.76a10.56,10.56,0,0,0-4.78-8.27C155.32,370.4,153.18,371.64,153.18,374.69Z" transform="translate(160.97 -17.76)"/><path class="cls-4" d="M160.1,384.9a5.64,5.64,0,0,1-2.78-.83,11.81,11.81,0,0,1-5.42-9.38,4.16,4.16,0,0,1,6.7-3.87A11.81,11.81,0,0,1,164,380.2a4.57,4.57,0,0,1-2,4.21A3.72,3.72,0,0,1,160.1,384.9Zm-4.27-12.35a1.2,1.2,0,0,0-.61.15,2.23,2.23,0,0,0-.76,2,9.32,9.32,0,0,0,4.14,7.17,1.69,1.69,0,0,0,2.86-1.66,9.3,9.3,0,0,0-4.14-7.17A3.1,3.1,0,0,0,155.83,372.55Z" transform="translate(160.97 -17.76)"/><path class="cls-5" d="M287.51,263.13l-35.65-20.58a7.48,7.48,0,0,1-3.12-6V196.54c0-2.3,1.4-3.36,3.12-2.36l35.65,20.58a7.5,7.5,0,0,1,3.12,6v40C290.63,263.07,289.23,264.13,287.51,263.13Z" transform="translate(160.97 -17.76)"/><path class="cls-4" d="M288.76,264.78a3.81,3.81,0,0,1-1.89-.54l-35.65-20.58a8.77,8.77,0,0,1-3.76-7.07V196.54a4,4,0,0,1,1.72-3.63,3.26,3.26,0,0,1,3.32.16l35.65,20.59a8.75,8.75,0,0,1,3.76,7.06v40a4,4,0,0,1-1.72,3.63A2.79,2.79,0,0,1,288.76,264.78Zm-.61-2.75c.33.19.61.25.76.16s.44-.5.44-1.42v-40a6.27,6.27,0,0,0-2.48-4.85l-35.65-20.58c-.33-.19-.61-.26-.76-.17s-.44.5-.44,1.42v40.05a6.27,6.27,0,0,0,2.48,4.85Z" transform="translate(160.97 -17.76)"/><path class="cls-5" d="M272.38,217.42a18.18,18.18,0,0,0-2.77-2h0v13.72h0l2.77-11.73Z" transform="translate(160.97 -17.76)"/><path class="cls-4" d="M269.61,230.12h-1V214.47l1.4.1a19.79,19.79,0,0,1,3,2.13l.2.17.17.52-3,12.73Zm.95-12.92V221l.75-3.19C271.06,217.58,270.81,217.38,270.56,217.2Z" transform="translate(160.97 -17.76)"/><path class="cls-5" d="M269.61,229.17l8.41-4.61h0a26,26,0,0,0-5.64-7.14h0l-2.77,11.74Z" transform="translate(160.97 -17.76)"/><path class="cls-4" d="M269.4,230.38l-1-1.13.31-.47,2.87-12.15,1.05-.26.39.32A26.84,26.84,0,0,1,278.8,224l.46.46-.78,1Zm3.54-11.14L271,227.3l5.68-3.11A25.14,25.14,0,0,0,272.94,219.24Z" transform="translate(160.97 -17.76)"/><path class="cls-5" d="M269.61,229.18l11.4,6.34h0a22.71,22.71,0,0,0-3-11h0l-8.42,4.61Z" transform="translate(160.97 -17.76)"/><path class="cls-4" d="M281,236.6l-.45-.25-11.89-6.77v-1l9.55-5.22.67.73a23.53,23.53,0,0,1,3.1,11.43v.57Zm-9.4-7.42,8.41,4.68a22.4,22.4,0,0,0-2.37-8Z" transform="translate(160.97 -17.76)"/><path class="cls-5" d="M269.62,229.2l-5.88,7.32h0a21.11,21.11,0,0,0,5.88,5.28c6.21,3.58,11.25.78,11.41-6.25h0l-11.41-6.34Z" transform="translate(160.97 -17.76)"/><path class="cls-4" d="M274.72,244.32a11.27,11.27,0,0,1-5.58-1.69,22.17,22.17,0,0,1-6.15-5.51l-.48-.6,6.87-8.55,12.6,7v.57c-.09,3.75-1.47,6.55-3.88,7.92A6.85,6.85,0,0,1,274.72,244.32Zm-9.75-7.8A19.64,19.64,0,0,0,270.1,241c2.72,1.57,5.23,1.86,7.07.82,1.69-.95,2.7-3,2.88-5.7l-10.19-5.66Z" transform="translate(160.97 -17.76)"/><path class="cls-5" d="M263.72,236.51l5.88-7.32h0V215.43h0c-6.3-3.63-11.41-.68-11.41,6.6,0,4.79,2.21,10.26,5.52,14.48Z" transform="translate(160.97 -17.76)"/><path class="cls-4" d="M263.5,237.64l-.46-.46c-3.67-4.66-5.81-10.29-5.81-15.16,0-3.88,1.36-6.8,3.82-8.22s5.67-1.14,9,.79l.48.28v14.65l-6.47,7.87Zm1-22.82a4.84,4.84,0,0,0-2.49.64c-1.85,1.06-2.86,3.39-2.86,6.56,0,4,1.74,8.91,4.59,12.93l4.9-6.1V216A9,9,0,0,0,264.5,214.82Z" transform="translate(160.97 -17.76)"/><path class="cls-4" d="M287.51,323.27l-35.65-20.58a7.5,7.5,0,0,1-3.12-6V256.67c0-2.29,1.4-3.35,3.12-2.35l35.65,20.58a7.48,7.48,0,0,1,3.12,6v40.05C290.63,323.21,289.23,324.26,287.51,323.27Z" transform="translate(160.97 -17.76)"/><path class="cls-4" d="M288.76,324.92a3.81,3.81,0,0,1-1.89-.54l-35.65-20.59a8.74,8.74,0,0,1-3.76-7.06V256.67a4,4,0,0,1,1.72-3.62,3.26,3.26,0,0,1,3.32.16l35.65,20.58a8.78,8.78,0,0,1,3.76,7.07v40.05a4,4,0,0,1-1.72,3.63A2.89,2.89,0,0,1,288.76,324.92Zm-.61-2.76c.33.19.61.26.76.17s.44-.5.44-1.42V280.86a6.27,6.27,0,0,0-2.48-4.85l-35.65-20.59c-.33-.19-.61-.25-.76-.16s-.44.5-.44,1.41v40.06a6.27,6.27,0,0,0,2.48,4.85Z" transform="translate(160.97 -17.76)"/><path class="cls-4" d="M273,280.85l-6.59-3.8c-4.53-2.62-8.21-.5-8.21,4.74s3.68,11.6,8.21,14.22v4.08s4.31,2.45,4.43-1.52l2.16,1.25c4.53,2.61,8.21.49,8.21-4.74S277.51,283.47,273,280.85Z" transform="translate(160.97 -17.76)"/><path class="cls-5" d="M276.65,301.9a8.38,8.38,0,0,1-4.15-1.26l-1-.57a2.58,2.58,0,0,1-1.15,1.37c-1.73,1-4.17-.37-4.44-.52l-.49-.28v-4.09c-4.57-2.93-8.21-9.41-8.21-14.76,0-2.89,1-5.07,2.89-6.15s4.26-.86,6.76.58l6.59,3.8c4.79,2.77,8.69,9.52,8.69,15.06,0,2.88-1,5.07-2.89,6.14A5.16,5.16,0,0,1,276.65,301.9Zm-6.75-5,3.56,2.05c1.89,1.09,3.61,1.3,4.85.58s1.92-2.31,1.92-4.48a17.14,17.14,0,0,0-7.73-13.4l-6.59-3.8c-1.88-1.09-3.6-1.29-4.85-.58s-1.92,2.31-1.92,4.49a17.12,17.12,0,0,0,7.73,13.39l.48.28v4a2.9,2.9,0,0,0,2.07.28c.34-.19.43-.78.44-1.23Z" transform="translate(160.97 -17.76)"/><path class="cls-5" d="M127.68,306.32,92,285.73a7.47,7.47,0,0,1-3.12-6v-40c0-2.3,1.4-3.35,3.12-2.36L127.68,258a7.46,7.46,0,0,1,3.12,5.95V304C130.8,306.26,129.4,307.31,127.68,306.32Z" transform="translate(160.97 -17.76)"/><path class="cls-4" d="M128.93,308a3.82,3.82,0,0,1-1.89-.55L91.39,286.84a8.76,8.76,0,0,1-3.76-7.07v-40a4,4,0,0,1,1.72-3.63,3.29,3.29,0,0,1,3.32.17l35.65,20.58a8.74,8.74,0,0,1,3.76,7.07v40a4,4,0,0,1-1.72,3.63A2.86,2.86,0,0,1,128.93,308Zm-.61-2.76c.33.19.62.25.76.16s.44-.49.44-1.41v-40a6.26,6.26,0,0,0-2.48-4.86L91.39,238.47c-.33-.19-.61-.25-.76-.16s-.44.49-.44,1.41v40a6.25,6.25,0,0,0,2.48,4.85Z" transform="translate(160.97 -17.76)"/><path class="cls-5" d="M115.85,275.51V263.73a1.2,1.2,0,0,0-.53-.93l-10.92-6.31c-.3-.17-.54,0-.54.31v11.78c0,.35-.24.48-.54.31l-2.18-1.26c-.45-.26-.7.21-.42.78l8.72,17.38c.21.43.62.66.83.48L119,279c.28-.24,0-1-.42-1.25l-2.18-1.26A1.18,1.18,0,0,1,115.85,275.51Z" transform="translate(160.97 -17.76)"/><path class="cls-4" d="M110.1,287.29l-.27,0a1.88,1.88,0,0,1-1.25-1l-8.71-17.38a1.59,1.59,0,0,1,.19-1.91,1.29,1.29,0,0,1,1.56-.13l1.28.74V256.8a1.32,1.32,0,0,1,.64-1.17,1.34,1.34,0,0,1,1.34,0L115.79,262a2.15,2.15,0,0,1,1,1.76v11.76l2.24,1.38a2.13,2.13,0,0,1,1,1.61,1.39,1.39,0,0,1-.45,1.2L110.89,287A1.2,1.2,0,0,1,110.1,287.29Zm-7.79-17.88,7.86,15.7,7.81-6.56-2.07-1.28a2.15,2.15,0,0,1-1-1.76V263.73l-10.07-5.88v10.73a1.29,1.29,0,0,1-2,1.15Z" transform="translate(160.97 -17.76)"/><path class="cls-4" d="M127.68,366.45,92,345.87a7.47,7.47,0,0,1-3.12-6V299.86c0-2.3,1.4-3.35,3.12-2.36l35.65,20.59a7.46,7.46,0,0,1,3.12,6V364.1C130.8,366.39,129.4,367.45,127.68,366.45Z" transform="translate(160.97 -17.76)"/><path class="cls-4" d="M128.93,368.1a3.81,3.81,0,0,1-1.89-.54L91.39,347a8.76,8.76,0,0,1-3.76-7.07V299.86a4,4,0,0,1,1.72-3.63,3.29,3.29,0,0,1,3.32.16L128.32,317a8.74,8.74,0,0,1,3.76,7.06V364.1a4,4,0,0,1-1.72,3.62A2.76,2.76,0,0,1,128.93,368.1Zm-.61-2.75c.33.19.62.25.76.16s.44-.5.44-1.41V324a6.24,6.24,0,0,0-2.48-4.85L91.39,298.61c-.33-.19-.61-.26-.76-.17s-.44.5-.44,1.42v40.05a6.27,6.27,0,0,0,2.48,4.85Z" transform="translate(160.97 -17.76)"/><path class="cls-4" d="M121.23,338.55c0,7.25-5.09,10.19-11.37,6.56s-11.38-12.45-11.38-19.7,5.09-10.2,11.38-6.57S121.23,331.29,121.23,338.55Z" transform="translate(160.97 -17.76)"/><path class="cls-5" d="M114.94,347.63a11.18,11.18,0,0,1-5.56-1.69c-6.54-3.77-11.86-13-11.86-20.53,0-3.87,1.36-6.78,3.81-8.2s5.66-1.13,9,.8c6.54,3.78,11.86,13,11.86,20.54,0,3.86-1.35,6.77-3.81,8.19A6.74,6.74,0,0,1,114.94,347.63Zm-10.16-29.39a4.84,4.84,0,0,0-2.49.64c-1.84,1.06-2.85,3.38-2.85,6.53,0,6.94,4.89,15.41,10.89,18.87,2.74,1.58,5.25,1.86,7.09.8s2.85-3.38,2.85-6.53c0-6.94-4.88-15.41-10.89-18.88A9.41,9.41,0,0,0,104.78,318.24Z" transform="translate(160.97 -17.76)"/><path class="cls-5" d="M118.38,336.9c0,5.43-3.82,7.64-8.52,4.92s-8.53-9.33-8.53-14.76,3.82-7.64,8.53-4.92S118.38,331.46,118.38,336.9Z" transform="translate(160.97 -17.76)"/><path class="cls-4" d="M113.66,344a8.7,8.7,0,0,1-4.28-1.3c-5-2.87-9-9.86-9-15.59,0-3,1.06-5.24,3-6.35s4.4-.89,7,.6c5,2.86,9,9.86,9,15.59,0,3-1.06,5.24-3,6.35A5.41,5.41,0,0,1,113.66,344Zm-7.61-22a3.39,3.39,0,0,0-1.74.44c-1.3.75-2,2.42-2,4.69,0,5.12,3.61,11.37,8,13.93,2,1.14,3.76,1.35,5.06.6s2-2.42,2-4.69c0-5.12-3.61-11.37-8-13.93A6.84,6.84,0,0,0,106.05,321.93Z" transform="translate(160.97 -17.76)"/><polygon class="cls-4" points="274.66 321.28 269.87 314.52 269.86 308.49 271.78 308.49 271.78 313.91 276.22 320.17 274.66 321.28"/><path class="cls-4" d="M89.41,449.79,290.5,566.31a.09.09,0,0,0,.13-.08V475.45a.08.08,0,0,0-.11-.08l-47.18,13.52a.09.09,0,0,1-.07,0l-21.34-13.53h-.05l-61,.75h0l-39.55-18.77h0l-31.75-7.66A.08.08,0,0,0,89.41,449.79Z" transform="translate(160.97 -17.76)"/><path class="cls-4" d="M290.61,567.78l-.72-.35L87.81,450.35l.79-2.16,1.17.21,32,7.76,39.32,18.67,61.2-.77.4.29,20.78,13.16L290.77,474l1.1.76,0,.72V567ZM97.14,452.8,289.35,564.16V477l-46.2,13.25-.55-.32-21.08-13.35-60.93.76-.27-.11-39.63-18.8Z" transform="translate(160.97 -17.76)"/><path class="cls-4" d="M275.17,512.45l-6.55-35.84h-22l-.42-.83-8.77-25.33L209.08,438l-22.39,12.26,9.61,32.33-2.45.73-9.45-31.8-12.69,6.95h-.37l-12.1.12-.32-.15L122.36,438,88.84,450.9l-1.25-1.8.78-.84,32.26-30.32.45-.08,19.92-4,.57.61,16.88,18.7,22.14-3.26.4,1.15,5,16.66,23-12.59.67.26,29.81,13.14.23.59,8.62,24.92h22.43l.27,1.14L277.68,512ZM122.5,435.17l.59.28L159.84,456,171,455.9,183.65,449l-4.82-16.21-21.27,3.12-.54-.48L140.1,416.67l-18.26,3.65L94.55,446Z" transform="translate(160.97 -17.76)"/></svg>