<svg id="Layer_1" data-name="Layer 1" xmlns="http://www.w3.org/2000/svg" viewBox="0 0 381.75 100.02"><defs><style>.cls-1{fill:#fff;}</style></defs><title>forbes</title><path id="path2995" class="cls-1" d="M106.93,158.6a29.87,29.87,0,0,1-17-8.2,30.81,30.81,0,0,1-7.89-13.27,49.06,49.06,0,0,1,0-28.25A33.14,33.14,0,0,1,98.21,89.81c10.24-5.14,24.65-4.82,34.14.76,8.53,5,13.7,14,15.14,26.15a64.31,64.31,0,0,1-.54,14.84c-2.83,13.29-11.07,22.57-23.15,26.07a38.48,38.48,0,0,1-4.49,1,75.25,75.25,0,0,1-12.38,0Zm10-5.34c1.95-.58,4.35-2.83,5.63-5.28,2.64-5,3.82-12.53,3.85-24.39,0-14.88-2.3-24.34-7.22-29.3-2.06-2.08-3.53-2.72-6.17-2.72-5.87,0-9.59,6.13-11.06,18.19-.67,5.54-.68,18.74,0,23.58,2.08,15,7.46,22.15,15,19.92ZM225,158.59c-2.73-.27-11.06-1.66-14-2.32l-2-.46.16-10.75c.38-25.89.43-40,.18-53.77-.24-13.46-.31-14.88-.83-16.88-.65-2.52-1.6-4.28-2.75-5.09a9.27,9.27,0,0,0-2.68-1c-3.42-.77-3.23-.64-3.32-2.2-.06-.9,0-1.5.27-1.68s28.38-5.6,29.27-5.58c.26,0,.3,3.59.17,15.94-.1,8.77-.11,15.94,0,15.94s1.1-.44,2.28-1a27.72,27.72,0,0,1,11.54-2.52,24.13,24.13,0,0,1,6.24.3c10.59,2.19,18.42,10.86,21.16,23.4a66,66,0,0,1,.51,15.49,51,51,0,0,1-2.76,11.19c-4.53,11.46-14.24,18.93-27.13,20.87a102,102,0,0,1-16.29.1Zm11-5.46a10.2,10.2,0,0,0,5.21-2.67c4.18-3.76,7.32-11.5,8.55-21.1a81.07,81.07,0,0,0-.12-16.08c-1.51-8.83-4.75-14.63-9.47-17a7.37,7.37,0,0,0-4.59-1,15.67,15.67,0,0,0-4.31.53l-1.82.54-.13,10.05c-.17,12.86.25,45.08.6,46,.22.59.47.72,1.58.8a13.15,13.15,0,0,0,4.5-.07Zm68,5.33c-13.63-2.46-23.38-12.13-26.57-26.35a40.11,40.11,0,0,1-.69-7.84c-.17-6.26.34-10.15,2-15,3.1-9.28,8.67-15.85,16.75-19.79,8.53-4.16,20.19-4.43,27.74-.65,8.49,4.26,13.49,12.77,14.76,25.12a36.1,36.1,0,0,1,.22,4.39l-.09,1.38-20.34.07-20.33.07.07,2.4a34.2,34.2,0,0,0,3.59,14.77,17.47,17.47,0,0,0,3.76,5c4.39,4.44,8.77,6.16,15.66,6.16a21,21,0,0,0,12.36-3.43,9.67,9.67,0,0,1,2.37-1.24c.58,0,1.9,1.7,1.9,2.44,0,1.21-3.94,5.12-7.79,7.72a35.23,35.23,0,0,1-12.48,4.81,51.64,51.64,0,0,1-12.85,0Zm8.63-44.8,4.78-.17-.17-3.39c-.61-12-3.54-18.53-8.29-18.52-5.17,0-9.3,6.65-11,17.71a33.44,33.44,0,0,0-.39,3.59V114l5.16-.08c2.83,0,7.3-.16,9.93-.25ZM372,158c11.67-1.77,19.21-8,21.19-17.6.95-4.62.51-9.76-1.15-13.19-2.31-4.81-6.23-7.71-15.92-11.81-7.2-3-11.52-5.63-13.29-7.95a8.37,8.37,0,0,1-1.91-5.94c0-3.85,1.49-6.8,4.27-8.64,2.34-1.54,5.26-1.92,8.67-1.11,4.11,1,7.21,3.49,10,8.16a61.72,61.72,0,0,1,3.61,8.23c.14.4.29.42,1.25.14a4.78,4.78,0,0,0,1.29-.52c.11-.1.1-4,0-8.75l-.21-8.56-1-.42a58.57,58.57,0,0,0-9-2.44c-2.18-.4-4.09-.5-9.21-.5-6.1,0-6.6,0-9.13.73-7.32,2-12.75,6.12-15.59,11.87a18,18,0,0,0-2,9.09c0,5.23,1.45,9.09,4.6,12.46,2.71,2.91,6.23,5,12.24,7.19,4.72,1.75,9.6,4.18,11.45,5.72a10.68,10.68,0,0,1,2.57,3.11c.91,1.67.95,1.89.95,4.51s-.07,2.9-.87,4.59c-2.08,4.4-6.26,6.59-11.74,6.15-7.43-.61-12.67-5.53-16.93-15.91-1.11-2.71-1.19-2.76-2.88-2.12l-.77.29.19,9.68c.18,8.59.25,9.72.66,10,1.22.93,9.13,2.81,14.62,3.47a65.65,65.65,0,0,0,14,0Zm-359.7-.88c-.23-.09-.34-.77-.34-2,0-2.28-.15-2.18,4.26-3,3.37-.62,4.58-1.26,6.08-3.22,2.89-3.79,3.51-11.09,3.52-41.16,0-28.24-.54-34.18-3.53-38.55-1.33-1.93-3.56-3-7.31-3.43l-2.89-.35L12,63.07l-.08-2.26.91-.16c.5-.08,18-.12,38.82-.08l37.92.08.18,1.1c.1.6.26,6.8.36,13.78l.18,12.68-2,.6c-2.94.89-2.92.9-4.25-2.6-3.25-8.61-7-13.56-12.08-16.07-3.52-1.72-5.15-1.93-15.09-1.93H48.28l-.14,1.44c-.28,2.7-.73,20.11-.72,28.31v8.17H50c1.4,0,4.16-.11,6.13-.23,3-.18,3.84-.33,5.08-.91,3-1.41,5.12-4.51,6.39-9.57l.66-2.61,2.24-.08,2.25-.08v33l-2.25-.08-2.24-.08-.64-2.61c-1.2-4.91-3.5-8.42-6.35-9.68-1.31-.58-4.56-.91-10.85-1.1l-3-.09v6.2c0,6.76.37,15.91.85,20.87.66,6.92,2.43,10.74,5.61,12.13a24.71,24.71,0,0,0,4.26,1,26.22,26.22,0,0,1,3.64.72c.67.35.71,3.93,0,4.19s-49,.18-49.52,0Zm135.48,0c-.25-.16-.33-.79-.27-2.13l.08-1.9,1-.2,2.53-.5c2.66-.5,4.19-1.94,5-4.77.7-2.3,1-9.68,1-24.48,0-18.11-.35-22.39-2.18-24.81-1-1.32-1.71-1.69-4.12-2.15l-2.78-.55c-.55-.11-.62-.29-.62-1.64s.08-1.54.62-1.76c.82-.34,28-5.78,28.92-5.78h.68l-.14,4.05c-.07,2.23-.19,5.48-.26,7.21l-.12,3.16,1-1.77c3.16-5.7,6.7-9.23,11.41-11.39a15.43,15.43,0,0,1,7.51-1.54c3.78,0,7.57,1.24,7.57,2.47,0,.83-6.67,18.47-7,18.61a11.08,11.08,0,0,1-2.9-1.11,19,19,0,0,0-8.39-2.1c-3.34,0-7.08,1.24-8.55,2.82-.63.67-.63.72-.79,10.81s.18,22.2.74,27.11c.48,4.18,1.59,6.23,3.88,7.19a40.9,40.9,0,0,0,7.19,1,5.43,5.43,0,0,1,.14,2.13l-.09,2.13-20.33.06c-11.19,0-20.5,0-20.7-.16Z" transform="translate(-11.94 -58.86)"/></svg>