<svg id="Layer_1" data-name="Layer 1" xmlns="http://www.w3.org/2000/svg" viewBox="0 0 572.3 740.3"><defs><style>.cls-1{fill:#16110d;}.cls-2{fill:#39a1ff;}.cls-3{fill:#fff;}</style></defs><title>graph</title><path class="cls-1" d="M143.35,741.23c2.68,1.55,2.68,4.06,0,5.61a10.72,10.72,0,0,1-9.71,0c-2.68-1.55-2.68-4.06,0-5.61A10.78,10.78,0,0,1,143.35,741.23Z" transform="translate(-55.47 -7.7)"/><ellipse class="cls-1" cx="108.41" cy="721.68" rx="6.87" ry="3.96"/><path class="cls-1" d="M194.12,711.92c2.68,1.55,2.68,4.06,0,5.61a10.78,10.78,0,0,1-9.71,0c-2.68-1.55-2.68-4.06,0-5.61A10.72,10.72,0,0,1,194.12,711.92Z" transform="translate(-55.47 -7.7)"/><ellipse class="cls-1" cx="159.18" cy="692.37" rx="6.87" ry="3.96"/><ellipse class="cls-1" cx="184.57" cy="677.71" rx="6.87" ry="3.96"/><ellipse class="cls-1" cx="209.95" cy="663.05" rx="6.87" ry="3.96"/><path class="cls-1" d="M295.66,653.29c2.69,1.55,2.69,4.06,0,5.61a10.72,10.72,0,0,1-9.71,0c-2.68-1.55-2.68-4.06,0-5.61A10.78,10.78,0,0,1,295.66,653.29Z" transform="translate(-55.47 -7.7)"/><ellipse class="cls-1" cx="260.72" cy="633.74" rx="6.87" ry="3.96"/><path class="cls-1" d="M346.44,624c2.68,1.55,2.68,4.06,0,5.61a10.72,10.72,0,0,1-9.71,0c-2.68-1.55-2.68-4.06,0-5.61A10.72,10.72,0,0,1,346.44,624Z" transform="translate(-55.47 -7.7)"/><path class="cls-1" d="M371.82,609.32c2.68,1.55,2.68,4.06,0,5.61a10.72,10.72,0,0,1-9.71,0c-2.68-1.55-2.68-4.06,0-5.61A10.78,10.78,0,0,1,371.82,609.32Z" transform="translate(-55.47 -7.7)"/><path class="cls-1" d="M92.58,741.23c2.68,1.55,2.68,4.06,0,5.61a10.72,10.72,0,0,1-9.71,0c-2.68-1.55-2.68-4.06,0-5.61A10.78,10.78,0,0,1,92.58,741.23Z" transform="translate(-55.47 -7.7)"/><ellipse class="cls-1" cx="57.64" cy="721.68" rx="6.87" ry="3.96"/><path class="cls-1" d="M143.35,711.92c2.68,1.55,2.68,4.06,0,5.61a10.78,10.78,0,0,1-9.71,0c-2.68-1.55-2.68-4.06,0-5.61A10.72,10.72,0,0,1,143.35,711.92Z" transform="translate(-55.47 -7.7)"/><path class="cls-1" d="M168.74,697.26c2.68,1.55,2.68,4.06,0,5.61a10.72,10.72,0,0,1-9.71,0c-2.69-1.55-2.69-4.06,0-5.6A10.75,10.75,0,0,1,168.74,697.26Z" transform="translate(-55.47 -7.7)"/><path class="cls-1" d="M194.12,682.61c2.68,1.55,2.68,4.06,0,5.6a10.72,10.72,0,0,1-9.71,0c-2.68-1.54-2.68-4.05,0-5.6A10.72,10.72,0,0,1,194.12,682.61Z" transform="translate(-55.47 -7.7)"/><path class="cls-1" d="M219.51,668c2.68,1.55,2.68,4.06,0,5.61a10.78,10.78,0,0,1-9.71,0c-2.68-1.55-2.68-4.06,0-5.61A10.72,10.72,0,0,1,219.51,668Z" transform="translate(-55.47 -7.7)"/><path class="cls-1" d="M244.89,653.29c2.68,1.55,2.68,4.06,0,5.61a10.72,10.72,0,0,1-9.71,0c-2.68-1.55-2.68-4.06,0-5.61A10.78,10.78,0,0,1,244.89,653.29Z" transform="translate(-55.47 -7.7)"/><path class="cls-1" d="M270.28,638.64c2.68,1.55,2.68,4.06,0,5.6a10.72,10.72,0,0,1-9.71,0c-2.68-1.54-2.68-4,0-5.6A10.72,10.72,0,0,1,270.28,638.64Z" transform="translate(-55.47 -7.7)"/><path class="cls-1" d="M295.66,624c2.69,1.55,2.69,4.06,0,5.61a10.7,10.7,0,0,1-9.7,0c-2.69-1.55-2.69-4.06,0-5.61A10.7,10.7,0,0,1,295.66,624Z" transform="translate(-55.47 -7.7)"/><path class="cls-1" d="M321.05,609.32c2.68,1.55,2.68,4.06,0,5.61a10.72,10.72,0,0,1-9.71,0c-2.68-1.55-2.68-4.06,0-5.61A10.78,10.78,0,0,1,321.05,609.32Z" transform="translate(-55.47 -7.7)"/><ellipse class="cls-1" cx="286.11" cy="589.77" rx="6.87" ry="3.96"/><path class="cls-1" d="M67.19,726.58c2.68,1.55,2.68,4.06,0,5.6a10.72,10.72,0,0,1-9.71,0c-2.68-1.54-2.68-4,0-5.6A10.72,10.72,0,0,1,67.19,726.58Z" transform="translate(-55.47 -7.7)"/><path class="cls-1" d="M92.58,711.92c2.68,1.55,2.68,4.06,0,5.61a10.78,10.78,0,0,1-9.71,0c-2.68-1.55-2.68-4.06,0-5.61A10.72,10.72,0,0,1,92.58,711.92Z" transform="translate(-55.47 -7.7)"/><path class="cls-1" d="M184.41,653.29a10.78,10.78,0,0,1,9.71,0c2.68,1.55,2.68,4.06,0,5.61a10.72,10.72,0,0,1-9.71,0C181.73,657.35,181.73,654.84,184.41,653.29Z" transform="translate(-55.47 -7.7)"/><path class="cls-1" d="M209.8,638.64a10.72,10.72,0,0,1,9.71,0c2.68,1.55,2.68,4.06,0,5.6a10.72,10.72,0,0,1-9.71,0c-2.68-1.54-2.68-4,0-5.6Z" transform="translate(-55.47 -7.7)"/><path class="cls-1" d="M235.18,624a10.72,10.72,0,0,1,9.71,0c2.68,1.55,2.68,4.06,0,5.61a10.72,10.72,0,0,1-9.71,0c-2.68-1.55-2.68-4.06,0-5.61Z" transform="translate(-55.47 -7.7)"/><path class="cls-1" d="M260.57,609.32a10.78,10.78,0,0,1,9.71,0c2.68,1.55,2.68,4.06,0,5.61a10.72,10.72,0,0,1-9.71,0c-2.68-1.55-2.68-4.06,0-5.61Z" transform="translate(-55.47 -7.7)"/><ellipse class="cls-1" cx="235.34" cy="589.77" rx="6.87" ry="3.96"/><path class="cls-1" d="M321.05,580c2.68,1.55,2.68,4.06,0,5.61a10.72,10.72,0,0,1-9.71,0c-2.68-1.55-2.68-4.06,0-5.61A10.72,10.72,0,0,1,321.05,580Z" transform="translate(-55.47 -7.7)"/><path class="cls-1" d="M67.19,697.27c2.68,1.54,2.68,4.05,0,5.6a10.72,10.72,0,0,1-9.71,0c-2.68-1.55-2.68-4.06,0-5.6A10.72,10.72,0,0,1,67.19,697.27Z" transform="translate(-55.47 -7.7)"/><path class="cls-1" d="M387.54,594.88a10.72,10.72,0,0,1,9.71,0c2.69,1.54,2.7,4,0,5.6a10.72,10.72,0,0,1-9.71,0C384.88,598.94,384.87,596.43,387.54,594.88Z" transform="translate(-55.47 -7.7)"/><path class="cls-1" d="M422.67,580.2c2.68,1.55,2.68,4.06,0,5.61a10.72,10.72,0,0,1-9.71,0c-2.68-1.55-2.68-4.06,0-5.61A10.72,10.72,0,0,1,422.67,580.2Z" transform="translate(-55.47 -7.7)"/><path class="cls-1" d="M448.06,565.55c2.68,1.54,2.68,4.05,0,5.6a10.72,10.72,0,0,1-9.71,0c-2.68-1.55-2.68-4.06,0-5.6A10.72,10.72,0,0,1,448.06,565.55Z" transform="translate(-55.47 -7.7)"/><path class="cls-1" d="M473.44,550.89c2.68,1.55,2.68,4.06,0,5.6a10.72,10.72,0,0,1-9.71,0c-2.68-1.54-2.68-4,0-5.6A10.72,10.72,0,0,1,473.44,550.89Z" transform="translate(-55.47 -7.7)"/><path class="cls-1" d="M498.83,536.23c2.68,1.55,2.68,4.06,0,5.61a10.72,10.72,0,0,1-9.71,0c-2.68-1.55-2.68-4.06,0-5.61A10.72,10.72,0,0,1,498.83,536.23Z" transform="translate(-55.47 -7.7)"/><path class="cls-1" d="M524.21,521.58c2.68,1.54,2.68,4,0,5.6a10.72,10.72,0,0,1-9.71,0c-2.68-1.55-2.68-4.06,0-5.6A10.72,10.72,0,0,1,524.21,521.58Z" transform="translate(-55.47 -7.7)"/><path class="cls-1" d="M549.6,506.92c2.68,1.55,2.68,4.06,0,5.61a10.78,10.78,0,0,1-9.71,0c-2.68-1.55-2.68-4.06,0-5.61A10.72,10.72,0,0,1,549.6,506.92Z" transform="translate(-55.47 -7.7)"/><path class="cls-1" d="M575,492.26c2.68,1.55,2.68,4.06,0,5.61a10.72,10.72,0,0,1-9.71,0c-2.68-1.55-2.68-4.06,0-5.61A10.72,10.72,0,0,1,575,492.26Z" transform="translate(-55.47 -7.7)"/><ellipse class="cls-1" cx="540.04" cy="472.71" rx="6.87" ry="3.96"/><path class="cls-1" d="M625.76,463c2.68,1.55,2.68,4.06,0,5.61a10.78,10.78,0,0,1-9.71,0c-2.68-1.55-2.68-4.06,0-5.61A10.72,10.72,0,0,1,625.76,463Z" transform="translate(-55.47 -7.7)"/><path class="cls-1" d="M362.16,580.22a10.75,10.75,0,0,1,9.71,0c2.68,1.55,2.69,4.06,0,5.61a10.73,10.73,0,0,1-9.7,0C359.49,584.28,359.48,581.77,362.16,580.22Z" transform="translate(-55.47 -7.7)"/><path class="cls-1" d="M397.29,565.55c2.68,1.54,2.68,4.05,0,5.6a10.72,10.72,0,0,1-9.71,0c-2.69-1.55-2.69-4.06,0-5.6A10.72,10.72,0,0,1,397.29,565.55Z" transform="translate(-55.47 -7.7)"/><path class="cls-1" d="M422.67,550.89c2.68,1.55,2.68,4.06,0,5.6a10.72,10.72,0,0,1-9.71,0c-2.68-1.54-2.68-4,0-5.6A10.72,10.72,0,0,1,422.67,550.89Z" transform="translate(-55.47 -7.7)"/><ellipse class="cls-1" cx="387.73" cy="531.33" rx="6.87" ry="3.96"/><path class="cls-1" d="M473.44,521.58c2.68,1.54,2.68,4,0,5.6a10.72,10.72,0,0,1-9.71,0c-2.68-1.55-2.68-4.06,0-5.6A10.72,10.72,0,0,1,473.44,521.58Z" transform="translate(-55.47 -7.7)"/><path class="cls-1" d="M498.83,506.92c2.68,1.55,2.68,4.06,0,5.61a10.78,10.78,0,0,1-9.71,0c-2.68-1.55-2.68-4.06,0-5.61A10.72,10.72,0,0,1,498.83,506.92Z" transform="translate(-55.47 -7.7)"/><path class="cls-1" d="M524.21,492.26c2.68,1.55,2.68,4.06,0,5.61a10.72,10.72,0,0,1-9.71,0c-2.68-1.55-2.68-4.06,0-5.61A10.72,10.72,0,0,1,524.21,492.26Z" transform="translate(-55.47 -7.7)"/><path class="cls-1" d="M549.6,477.61c2.68,1.54,2.68,4.06,0,5.6a10.72,10.72,0,0,1-9.71,0c-2.68-1.54-2.68-4.06,0-5.6A10.72,10.72,0,0,1,549.6,477.61Z" transform="translate(-55.47 -7.7)"/><path class="cls-1" d="M575,463c2.68,1.55,2.68,4.06,0,5.61a10.78,10.78,0,0,1-9.71,0c-2.68-1.55-2.68-4.06,0-5.61A10.72,10.72,0,0,1,575,463Z" transform="translate(-55.47 -7.7)"/><path class="cls-1" d="M600.37,448.29c2.68,1.55,2.68,4.06,0,5.61a10.72,10.72,0,0,1-9.71,0c-2.68-1.55-2.68-4.06,0-5.61A10.78,10.78,0,0,1,600.37,448.29Z" transform="translate(-55.47 -7.7)"/><path class="cls-1" d="M625.76,433.64c2.68,1.55,2.68,4.06,0,5.6a10.72,10.72,0,0,1-9.71,0c-2.68-1.54-2.68-4.05,0-5.6A10.72,10.72,0,0,1,625.76,433.64Z" transform="translate(-55.47 -7.7)"/><path class="cls-1" d="M336.77,565.56a10.75,10.75,0,0,1,9.71,0c2.69,1.55,2.7,4.06,0,5.61a10.72,10.72,0,0,1-9.71,0C334.1,569.62,334.1,567.11,336.77,565.56Z" transform="translate(-55.47 -7.7)"/><path class="cls-1" d="M371.9,550.89c2.68,1.55,2.68,4.06,0,5.6a10.72,10.72,0,0,1-9.71,0c-2.68-1.54-2.68-4,0-5.6A10.72,10.72,0,0,1,371.9,550.89Z" transform="translate(-55.47 -7.7)"/><path class="cls-1" d="M397.29,536.23c2.68,1.55,2.68,4.06,0,5.61a10.72,10.72,0,0,1-9.71,0c-2.68-1.55-2.68-4.06,0-5.61A10.72,10.72,0,0,1,397.29,536.23Z" transform="translate(-55.47 -7.7)"/><path class="cls-1" d="M422.67,521.58c2.68,1.54,2.68,4,0,5.6a10.72,10.72,0,0,1-9.71,0c-2.68-1.55-2.68-4.06,0-5.6A10.72,10.72,0,0,1,422.67,521.58Z" transform="translate(-55.47 -7.7)"/><path class="cls-1" d="M448.06,506.92c2.68,1.55,2.68,4.06,0,5.61a10.78,10.78,0,0,1-9.71,0c-2.68-1.55-2.68-4.06,0-5.61A10.72,10.72,0,0,1,448.06,506.92Z" transform="translate(-55.47 -7.7)"/><path class="cls-1" d="M473.44,492.26c2.68,1.55,2.68,4.06,0,5.61a10.72,10.72,0,0,1-9.71,0c-2.68-1.55-2.68-4.06,0-5.61A10.72,10.72,0,0,1,473.44,492.26Z" transform="translate(-55.47 -7.7)"/><path class="cls-1" d="M498.83,477.61c2.68,1.54,2.68,4.06,0,5.6a10.72,10.72,0,0,1-9.71,0c-2.68-1.54-2.68-4.06,0-5.6A10.72,10.72,0,0,1,498.83,477.61Z" transform="translate(-55.47 -7.7)"/><path class="cls-1" d="M524.21,463c2.69,1.55,2.69,4.06,0,5.61a10.78,10.78,0,0,1-9.71,0c-2.68-1.55-2.68-4.06,0-5.61A10.72,10.72,0,0,1,524.21,463Z" transform="translate(-55.47 -7.7)"/><ellipse class="cls-1" cx="489.27" cy="443.4" rx="6.86" ry="3.96"/><path class="cls-1" d="M575,433.64c2.68,1.55,2.68,4.06,0,5.6a10.72,10.72,0,0,1-9.71,0c-2.68-1.54-2.68-4.05,0-5.6A10.72,10.72,0,0,1,575,433.64Z" transform="translate(-55.47 -7.7)"/><ellipse class="cls-1" cx="540.04" cy="414.08" rx="6.87" ry="3.96"/><polygon class="cls-2" points="564.18 33.04 564.18 404.15 57.92 696.44 104.75 578.97 159.46 579.66 282.35 304.66 350.39 378.62 412.23 272.52 454.84 313.21 564.18 33.04"/><polygon class="cls-2" points="57.92 696.44 9.04 668.64 55.87 551.17 104.75 578.97 57.92 696.44"/><polygon class="cls-3" points="53.3 698.06 19.62 677.88 66.45 560.41 115.33 588.21 75.58 687.92 53.3 698.06"/><polygon class="cls-2" points="110.59 551.86 159.46 579.66 104.75 578.97 55.87 551.17 110.59 551.86"/><polygon class="cls-3" points="122.19 560.89 172.08 589.03 115.33 588.21 67.47 560.41 122.19 560.89"/><polygon class="cls-2" points="233.47 276.86 282.35 304.66 159.46 579.66 110.59 551.86 233.47 276.86"/><polygon class="cls-3" points="246.09 286.23 294.97 314.03 172.08 589.03 123.21 561.23 246.09 286.23"/><polygon class="cls-2" points="363.36 244.72 412.23 272.52 350.39 378.62 309.51 334.19 363.36 244.72"/><polygon class="cls-3" points="373.96 254.19 422.83 281.98 360.99 388.09 320.12 343.66 373.96 254.19"/><polygon class="cls-2" points="515.31 5.25 564.18 33.04 454.84 313.21 412.23 272.52 515.31 5.25"/><polygon class="cls-3" points="525.91 14.61 564.18 36.38 564.18 66.26 465.45 322.58 422.83 281.88 525.91 14.61"/><path class="cls-1" d="M623.35,41.51h0V38.59L617.9,35.5h0L569,7.7,466,275l-48.43-27.54-53.16,88.34-22.18-24.12h0l-2-2.21-4-2.3h0l-48.88-27.8L163.68,555.84l-51.34-.65h0l-3.48,0-2.13,5.34h0L59.9,678l48.87,27.8h0l4.64,2.64,2.93-1.7h0L623.35,414ZM572.54,18.19,615,42.31,509,314.58l-36.68-35,.41-.71-.37-.21Zm-203,323.24,50.56-84,42.5,24.17-57.45,98.57Zm-78.92-51.65,42.42,24.13L284.32,423l-71.1,159.1-16-9.1L170.8,558Zm-165,273,39.45.5L185.8,575l14.86,8.46-19-.24L161.22,583l-29.08-16.54Zm-12.41,1.44L124,570.3l31.63,18L111.53,698.84l-42.4-24.12Zm7.56,131.44,42-105.22,51.23.64h0l3.37,0,2.36-5.27h0L289.1,430.43,338.9,319l21.5,23.37h0l46.13,50.14,62-106.38,43,41.12L616,58.51V409.72Z" transform="translate(-55.47 -7.7)"/></svg>