<svg id="Layer_1" data-name="Layer 1" xmlns="http://www.w3.org/2000/svg" xmlns:xlink="http://www.w3.org/1999/xlink" viewBox="0 0 1737.53 1055.86"><defs><style>.cls-1{fill:none;}.cls-2{clip-path:url(#clip-path);}.cls-3{fill:#150035;}.cls-4{fill:#39a1ff;}.cls-5{fill:#fff;}</style><clipPath id="clip-path" transform="translate(405.01 -18.41)"><path class="cls-1" d="M670.3,482.81,421.71,626.34c-27.36,15.79-75.13,13.81-106.71-4.42L42.66,465.18c-31.58-18.24-36.12-31.88-8.77-47.67L297.82,263.84c27.35-15.79,60.9-17.61,92.48.62L662.64,421.21C694.22,439.44,697.65,467,670.3,482.81Z"/></clipPath></defs><title>info-left</title><g class="cls-2"><polygon class="cls-3" points="171.85 684.39 164.11 670.95 1087.19 138.93 1094.94 152.37 171.85 684.39"/><rect class="cls-3" x="-265.97" y="444.81" width="1065.41" height="15.51" transform="translate(214.63 175.3) rotate(-29.96)"/><rect class="cls-3" x="-227.67" y="468.8" width="1065.41" height="15.51" transform="translate(207.71 197.73) rotate(-29.97)"/><rect class="cls-3" x="-184.63" y="490.84" width="1065.41" height="15.51" transform="translate(202.48 222.14) rotate(-29.97)"/><polygon class="cls-3" points="330.93 777.63 323.2 764.19 1246.27 232.2 1254.01 245.63 330.93 777.63"/><polygon class="cls-3" points="373.15 800.13 365.41 786.69 1288.48 254.69 1296.23 268.13 373.15 800.13"/><polygon class="cls-3" points="411.45 824.12 403.71 810.68 1326.77 278.68 1334.52 292.12 411.45 824.12"/><polygon class="cls-3" points="454.5 846.15 446.77 832.71 1369.83 300.72 1377.58 314.15 454.5 846.15"/><rect class="cls-3" x="12.76" y="608.09" width="1065.41" height="15.51" transform="translate(170.31 336.38) rotate(-29.97)"/><rect class="cls-3" x="55.68" y="630.52" width="1065.4" height="15.51" transform="translate(164.98 360.41) rotate(-29.94)"/><polygon class="cls-3" points="574.03 916.57 566.3 903.13 1489.37 371.14 1497.11 384.57 574.03 916.57"/><rect class="cls-3" x="137.03" y="676.55" width="1065.41" height="15.51" transform="translate(152.7 407.72) rotate(-29.97)"/><rect class="cls-3" x="172.53" y="701.27" width="1065.42" height="15.51" transform="translate(145.12 428.7) rotate(-29.97)"/><rect class="cls-3" x="214.76" y="723.77" width="1065.41" height="15.51" transform="translate(139.54 452.73) rotate(-29.97)"/><polygon class="cls-3" points="733.11 1009.83 725.38 996.39 1648.44 464.39 1656.19 477.84 733.11 1009.83"/><polygon class="cls-3" points="776.15 1031.87 768.42 1018.43 1691.48 486.43 1699.23 499.87 776.15 1031.87"/><rect class="cls-3" x="334.42" y="793.79" width="1065.39" height="15.51" transform="translate(120.61 521.66) rotate(-29.96)"/><rect class="cls-3" x="-472.31" y="331.08" width="1065.4" height="15.51" transform="translate(243.96 56.95) rotate(-29.94)"/><polygon class="cls-3" points="49.96 615.64 42.23 602.21 965.3 70.21 973.04 83.65 49.96 615.64"/><polygon class="cls-3" points="88.27 639.64 80.53 626.2 1003.59 94.2 1011.34 107.64 88.27 639.64"/><rect class="cls-3" x="-348.74" y="399.61" width="1065.4" height="15.51" transform="translate(226.27 127.74) rotate(-29.94)"/><rect class="cls-3" x="-310.43" y="423.61" width="1065.42" height="15.51" transform="translate(219.29 150.24) rotate(-29.96)"/></g><path class="cls-4" d="M587.32,173.61l-470.18.71a9.67,9.67,0,0,0-9.66,9.68l.17,145.08h.14c1,14.34,11.74,29.21,32.09,41l141.51,81.7c39.18,22.62,98.45,25.07,132.37,5.49l160.52-92.68c16.3-9.41,23.56-22.21,22.6-35.47H597V183.28A9.67,9.67,0,0,0,587.32,173.61Z" transform="translate(405.01 -18.41)"/><path class="cls-3" d="M356.13,485c-28.45,0-58.25-7-82-20.7l-141.51-81.7c-18.45-10.63-31-24.16-36.39-39H93.3l-.16-14.49L93,184a24.17,24.17,0,0,1,24.13-24.2l470.18-.71h0c6-.73,12.55,2.49,17.14,7.06a24,24,0,0,1,7.09,17.11V343.59h-1.73c-3.71,13.23-13.47,25-28.25,33.51L421,469.78C403.36,480,380.23,485,356.13,485Zm-234-158.24.11,1.28c.72,10,9.79,20.74,24.88,29.46l141.52,81.7c34.51,19.89,88.5,22.46,117.87,5.49L567,352c7.44-4.29,16.14-11.57,15.38-21.86l-1.13-15.57h1.24V188.12l-460.52.7Z" transform="translate(405.01 -18.41)"/><path class="cls-3" d="M587.32,174l-216.4.33V470c16.05-1.56,31-5.54,42.84-12.36L574.28,365c16.3-9.42,23.56-22.22,22.6-35.47H597V183.72A9.68,9.68,0,0,0,587.32,174Z" transform="translate(405.01 -18.41)"/><path class="cls-5" d="M574.28,209.8,413.76,302.48c-33.92,19.58-93.19,17.13-132.37-5.49l-141.51-81.7c-39.17-22.62-43.43-56.84-9.5-76.42L290.9,46.19c33.93-19.59,93.19-17.13,132.37,5.49l141.51,81.7C604,156,608.21,190.22,574.28,209.8Z" transform="translate(405.01 -18.41)"/><path class="cls-3" d="M356.13,330.23c-28.45,0-58.25-7-82-20.7L132.63,227.85C107.43,213.3,93,193,93,172.06c0-18.28,10.71-34.52,30.17-45.75l160.5-92.68c38.52-22.25,103-19.84,146.88,5.48L572,120.82c25.2,14.55,39.66,34.88,39.66,55.79,0,18.28-10.71,34.52-30.17,45.75h0L421,315C403.36,325.22,380.23,330.23,356.13,330.23ZM348.23,47.5c-19,0-37,3.69-50.09,11.26l-160.5,92.67c-7.15,4.12-15.67,11-15.67,20.63,0,10.11,9.41,21.57,25.16,30.67l141.52,81.7c34.51,19.9,88.5,22.45,117.87,5.5L567,197.24c7.14-4.12,15.65-11.05,15.65-20.63,0-10.12-9.41-21.57-25.16-30.67L416,64.23C396.9,53.2,371.8,47.5,348.23,47.5Z" transform="translate(405.01 -18.41)"/><rect class="cls-3" x="687.07" y="286.09" width="29" height="154.04"/><rect class="cls-4" x="935.83" y="247.05" width="22.31" height="75.63"/></svg>