<svg id="Layer_1" data-name="Layer 1" xmlns="http://www.w3.org/2000/svg" xmlns:xlink="http://www.w3.org/1999/xlink" viewBox="0 0 2439.96 1410.74"><defs><style>.cls-1{fill:none;}.cls-2{clip-path:url(#clip-path);}.cls-3{fill:#150035;}.cls-4{fill:#39a1ff;}.cls-5{fill:#fff;}</style><clipPath id="clip-path" transform="translate(960.93 233.13)"><path class="cls-1" d="M689.06,504.37,665.69,454c-3.91-8.43-18.92-13.43-33.51-11.17L605.59,447a163,163,0,0,0-16.71-11.07,199.33,199.33,0,0,0-19.16-9.64l7.12-15.36c3.91-8.42-4.75-17.09-19.35-19.35l-84-13-.62-.36A84.59,84.59,0,0,0,487.25,347l29.29-4.53c16.07-2.49,25.61-12,21.3-21.31l-25.73-55.45c-4.31-9.28-20.83-14.78-36.9-12.3L445.93,258a180.2,180.2,0,0,0-18.41-12.18,218.68,218.68,0,0,0-21.09-10.62l7.84-16.91c4.31-9.28-5.23-18.82-21.3-21.3l-96-14.86c-16.08-2.49-32.6,3-36.91,12.3l-7.84,16.91a337.41,337.41,0,0,0-54,8.32l-21.4-12.35c-11.76-6.8-30.84-6.8-42.61,0l-70.3,40.59c-11.77,6.79-11.77,17.81,0,24.6L85.26,284.8A84.71,84.71,0,0,0,70.85,316l-29.29,4.53c-16.07,2.48-25.61,12-21.3,21.3L46,397.26c4.31,9.28,20.83,14.79,36.9,12.3L112.17,405a177.48,177.48,0,0,0,18.41,12.18,221.05,221.05,0,0,0,21.09,10.63l-7.84,16.9c-4.31,9.28,5.23,18.82,21.3,21.31l96,14.86a51.06,51.06,0,0,0,10.73.46A72.73,72.73,0,0,0,265,499.65l-26.59,4.11c-14.6,2.26-23.26,10.93-19.35,19.35l23.37,50.36c3.91,8.43,18.91,13.43,33.51,11.17l26.59-4.11a164.64,164.64,0,0,0,16.71,11.06,201.72,201.72,0,0,0,19.16,9.65l-7.12,15.35c-3.91,8.43,4.75,17.09,19.35,19.35l87.22,13.49c14.59,2.26,29.6-2.74,33.51-11.17l7.12-15.36a307.47,307.47,0,0,0,49-7.55l19.43,11.21c10.69,6.17,28,6.17,38.7,0l63.85-36.87c10.68-6.17,10.68-16.17,0-22.34L630,556.14a76.9,76.9,0,0,0,13.09-28.31l26.59-4.11C684.31,521.46,693,512.8,689.06,504.37Z"/></clipPath></defs><title>info-right</title><g class="cls-2"><rect class="cls-3" x="-827.08" y="310.25" width="1624.34" height="6.62" transform="translate(802.36 267.57) rotate(-29.96)"/><rect class="cls-3" x="-809.06" y="319.85" width="1624.34" height="6.62" transform="translate(799.98 277.85) rotate(-29.96)"/><rect class="cls-3" x="-792.72" y="330.09" width="1624.34" height="6.62" transform="translate(796.97 287.43) rotate(-29.97)"/><rect class="cls-3" x="-774.35" y="339.49" width="1624.33" height="6.62" transform="translate(794.72 297.87) rotate(-29.97)"/><rect class="cls-3" x="-759.2" y="350.04" width="1624.34" height="6.62" transform="translate(791.48 306.85) rotate(-29.97)"/><rect class="cls-3" x="-741.18" y="359.64" width="1624.34" height="6.62" transform="translate(789.09 317.13) rotate(-29.97)"/><rect class="cls-3" x="-724.84" y="369.88" width="1624.34" height="6.62" transform="translate(786.22 326.61) rotate(-29.96)"/><rect class="cls-3" x="-706.47" y="379.28" width="1624.34" height="6.62" transform="translate(784.04 336.99) rotate(-29.95)"/><rect class="cls-3" x="-690.13" y="389.52" width="1624.34" height="6.62" transform="translate(780.99 346.64) rotate(-29.97)"/><rect class="cls-3" x="-671.82" y="399.09" width="1624.34" height="6.62" transform="translate(778.69 357.03) rotate(-29.97)"/><rect class="cls-3" x="-655.47" y="409.33" width="1624.34" height="6.62" transform="translate(775.78 366.54) rotate(-29.96)"/><rect class="cls-3" x="-637.1" y="418.73" width="1624.34" height="6.62" transform="translate(773.52 377) rotate(-29.97)"/><rect class="cls-3" x="-621.95" y="429.28" width="1624.34" height="6.62" transform="translate(770.28 385.97) rotate(-29.97)"/><rect class="cls-3" x="-603.94" y="438.88" width="1624.33" height="6.62" transform="translate(767.92 396.21) rotate(-29.96)"/><rect class="cls-3" x="-587.59" y="449.12" width="1624.33" height="6.62" transform="translate(764.93 405.83) rotate(-29.97)"/><rect class="cls-3" x="-569.23" y="458.52" width="1624.33" height="6.62" transform="translate(762.72 416.22) rotate(-29.97)"/><rect class="cls-3" x="-552.88" y="468.76" width="1624.34" height="6.62" transform="translate(759.76 425.8) rotate(-29.97)"/><rect class="cls-3" x="-1067.87" y="172.13" width="1624.33" height="6.62" transform="translate(839.11 128.86) rotate(-29.97)"/><rect class="cls-3" x="-1049.5" y="181.54" width="1624.34" height="6.61" transform="translate(836.84 139.28) rotate(-29.97)"/><polygon class="cls-3" points="36.82 837.1 33.52 831.36 1440.67 19.95 1443.98 25.68 36.82 837.1"/><polygon class="cls-3" points="54.84 846.7 51.53 840.96 1458.69 29.55 1461.99 35.28 54.84 846.7"/><rect class="cls-3" x="-999.99" y="211.92" width="1624.33" height="6.62" transform="translate(828.33 168.09) rotate(-29.96)"/><rect class="cls-3" x="-981.62" y="221.32" width="1624.34" height="6.62" transform="translate(826.09 178.52) rotate(-29.96)"/><rect class="cls-3" x="-965.28" y="231.56" width="1624.34" height="6.62" transform="translate(823.14 188.05) rotate(-29.97)"/><rect class="cls-3" x="-946.96" y="241.13" width="1624.34" height="6.62" transform="translate(820.83 198.48) rotate(-29.96)"/><rect class="cls-3" x="-930.62" y="251.37" width="1624.34" height="6.62" transform="translate(817.96 208) rotate(-29.95)"/><rect class="cls-3" x="-912.25" y="260.77" width="1624.34" height="6.62" transform="translate(815.72 218.43) rotate(-29.95)"/><rect class="cls-3" x="-897.1" y="271.33" width="1624.34" height="6.62" transform="translate(812.39 227.42) rotate(-29.97)"/><rect class="cls-3" x="-879.09" y="280.93" width="1624.34" height="6.62" transform="translate(810.03 237.69) rotate(-29.96)"/><rect class="cls-3" x="-862.74" y="291.16" width="1624.34" height="6.62" transform="translate(807.05 247.24) rotate(-29.97)"/><rect class="cls-3" x="-844.38" y="300.57" width="1624.34" height="6.62" transform="translate(804.81 257.68) rotate(-29.97)"/><rect class="cls-3" x="-828.03" y="310.8" width="1624.34" height="6.62" transform="translate(801.91 267.2) rotate(-29.97)"/><rect class="cls-3" x="-312.56" y="607.23" width="1624.34" height="6.62" transform="translate(722.75 564.31) rotate(-29.97)"/><rect class="cls-3" x="-294.54" y="616.83" width="1624.34" height="6.62" transform="translate(720.37 574.59) rotate(-29.97)"/><rect class="cls-3" x="-278.2" y="627.06" width="1624.34" height="6.62" transform="matrix(0.87, -0.5, 0.5, 0.87, 717.41, 584.2)"/><rect class="cls-3" x="-259.83" y="636.47" width="1624.33" height="6.62" transform="translate(715.17 594.64) rotate(-29.97)"/><rect class="cls-3" x="-244.68" y="647.01" width="1624.34" height="6.62" transform="translate(712.01 603.38) rotate(-29.96)"/><rect class="cls-3" x="-226.66" y="656.62" width="1624.34" height="6.62" transform="translate(709.6 613.72) rotate(-29.96)"/><rect class="cls-3" x="-210.32" y="666.85" width="1624.33" height="6.62" transform="translate(706.66 623.28) rotate(-29.96)"/><rect class="cls-3" x="-191.95" y="676.25" width="1624.33" height="6.62" transform="matrix(0.87, -0.5, 0.5, 0.87, 704.37, 633.87)"/><rect class="cls-3" x="-175.61" y="686.5" width="1624.34" height="6.62" transform="translate(701.44 643.41) rotate(-29.97)"/><rect class="cls-3" x="-157.29" y="696.06" width="1624.33" height="6.62" transform="translate(699.14 653.74) rotate(-29.97)"/><rect class="cls-3" x="-140.95" y="706.3" width="1624.33" height="6.62" transform="translate(696.18 663.37) rotate(-29.97)"/><rect class="cls-3" x="-122.58" y="715.71" width="1624.34" height="6.62" transform="translate(693.97 673.7) rotate(-29.97)"/><rect class="cls-3" x="-107.43" y="726.25" width="1624.34" height="6.62" transform="translate(690.72 682.68) rotate(-29.97)"/><rect class="cls-3" x="-89.42" y="735.85" width="1624.34" height="6.62" transform="translate(688.31 693.07) rotate(-29.97)"/><rect class="cls-3" x="-73.08" y="746.09" width="1624.34" height="6.62" transform="translate(685.46 702.3) rotate(-29.96)"/><rect class="cls-3" x="-54.71" y="755.49" width="1624.34" height="6.62" transform="translate(683.22 712.73) rotate(-29.96)"/><rect class="cls-3" x="-38.36" y="765.73" width="1624.34" height="6.62" transform="translate(680.21 722.57) rotate(-29.97)"/><rect class="cls-3" x="-534.98" y="478.51" width="1624.34" height="6.62" transform="translate(757.37 435.91) rotate(-29.96)"/><rect class="cls-3" x="-519.83" y="489.06" width="1624.34" height="6.62" transform="translate(754.07 444.98) rotate(-29.97)"/><rect class="cls-3" x="-501.81" y="498.66" width="1624.34" height="6.62" transform="translate(751.68 455.26) rotate(-29.97)"/><rect class="cls-3" x="-485.47" y="508.9" width="1624.34" height="6.62" transform="translate(748.78 464.75) rotate(-29.96)"/><rect class="cls-3" x="-467.1" y="518.3" width="1624.34" height="6.62" transform="translate(746.48 475.28) rotate(-29.97)"/><rect class="cls-3" x="-450.76" y="528.54" width="1624.34" height="6.62" transform="translate(743.62 484.69) rotate(-29.96)"/><rect class="cls-3" x="-432.45" y="538.11" width="1624.34" height="6.62" transform="translate(741.25 495.18) rotate(-29.97)"/><rect class="cls-3" x="-416.1" y="548.35" width="1624.34" height="6.62" transform="matrix(0.87, -0.5, 0.5, 0.87, 738.29, 504.78)"/><rect class="cls-3" x="-397.73" y="557.75" width="1624.34" height="6.62" transform="translate(736.05 515.22) rotate(-29.97)"/><rect class="cls-3" x="-382.58" y="568.29" width="1624.34" height="6.62" transform="translate(732.81 524.2) rotate(-29.97)"/><rect class="cls-3" x="-364.57" y="577.9" width="1624.33" height="6.62" transform="translate(730.42 534.48) rotate(-29.97)"/><rect class="cls-3" x="-348.22" y="588.14" width="1624.34" height="6.62" transform="translate(727.52 543.94) rotate(-29.97)"/><rect class="cls-3" x="-329.85" y="597.54" width="1624.33" height="6.62" transform="translate(725.28 554.37) rotate(-29.97)"/><rect class="cls-3" x="-313.51" y="607.78" width="1624.33" height="6.62" transform="translate(722.35 563.9) rotate(-29.97)"/></g><path class="cls-4" d="M497.92,244.56,497.45,158a1.36,1.36,0,0,0-1-1.32l-27.05-6.76a1.43,1.43,0,0,1-.34-.14L386.4,103.2a1.39,1.39,0,0,1-.7-1.2V53.78a1.37,1.37,0,0,0-1.88-1.27l-28.2,11.36a1.37,1.37,0,0,1-.4.09l-159,12.55h-.07l-136.38,18a1.39,1.39,0,0,0-1.19,1.35L57.66,164a1.38,1.38,0,0,1-1.52,1.35l-28.28-3a1.37,1.37,0,0,0-1.52,1.37l0,91.66a1.45,1.45,0,0,0,.15.5,9.32,9.32,0,0,0,.75,5.29l23.37,50.36c3.91,8.42,18.91,13.42,33.51,11.17l26.59-4.12a161.89,161.89,0,0,0,16.71,11.06c3.62,2.09,7.38,4,11.21,5.91l.12,25c1.24,6.25,8.88,11.74,20.05,13.46l87.22,13.5c14.6,2.25,29.6-2.75,33.51-11.17L286.7,361a306.34,306.34,0,0,0,49-7.56l19.43,11.22c10.68,6.17,28,6.17,38.69,0l63.85-36.86c6-3.49,8.54-8.2,7.76-12.75a1.3,1.3,0,0,0,.2-.57V263.67L478,261.76C491.33,259.7,499.59,252.27,497.92,244.56Z" transform="translate(960.93 233.13)"/><path class="cls-3" d="M253.4,393.78a53.61,53.61,0,0,1-8.22-.64L158,379.65c-13.3-2-23-9.12-24.8-18l-.11-1.1L133,339.1c-2.85-1.44-5.65-2.93-8.37-4.51a169.31,169.31,0,0,1-15.34-10L85,328.35c-17.52,2.67-34.51-3.49-39.58-14.42L22.08,263.57a14.74,14.74,0,0,1-1.34-7.3l-.09-.89,0-91.67a7.11,7.11,0,0,1,7.85-7.07L52,159.14l.83-63.31A7.12,7.12,0,0,1,59,88.89l136.72-18.1L354.1,58.3l27.58-11.1a7.09,7.09,0,0,1,9.75,6.59V99.45l79.91,45,26.46,6.6a7.11,7.11,0,0,1,5.38,6.85l.47,86.09a15.57,15.57,0,0,1-2.73,11.63c-4.09,6-12.14,10.26-22.08,11.8l-7.45,1.15v47.26l-.08.16c.28,6.46-3.62,12.6-10.74,16.71l-63.85,36.86c-12.46,7.2-32,7.19-44.43,0l-17.46-10.09a313.27,313.27,0,0,1-44.35,6.91l-5.72,12.32C280.5,387.92,267.76,393.77,253.4,393.78Zm-108.88-34c1,3.28,6.41,7.15,15.2,8.5l87.22,13.49c13.06,2,24.94-2.55,27.44-7.91l8.54-18.41,3.35-.25a303.54,303.54,0,0,0,48.13-7.41l2.23-.54L358,359.66c8.93,5.14,24,5.16,33,0l63.85-36.86c1.68-1,5.53-3.58,5-6.82l-.32-1.85.44-.88V258.75l17.16-2.65c7.92-1.22,12.63-4.4,14.39-7a4,4,0,0,0,.84-3.36l-.13-1.18-.45-83.23-25.61-6.69-82.54-46.49A7.11,7.11,0,0,1,380,102V60.23l-24.39,9.45L196.13,82.25,64.24,99.75l-.85,64.31a7.1,7.1,0,0,1-7.86,7l-23.46-2.49.29,86.39-.15,1.69a3.61,3.61,0,0,0,.27,2.12l23.36,50.36c2.49,5.35,14.73,9.88,27.44,7.91l29-4.49,1.93,1.47a160.7,160.7,0,0,0,16.13,10.67c3.51,2,7.16,3.9,10.87,5.72l3.19,1.57Z" transform="translate(960.93 233.13)"/><path class="cls-3" d="M61.86,320.48a44.32,44.32,0,0,0,22.3,2.21l26.59-4.12.15.11V182.17h-49Z" transform="translate(960.93 233.13)"/><path class="cls-3" d="M116.63,329.93l-7.33-5.33L85,328.35a49.84,49.84,0,0,1-25.25-2.54l-3.65-1.42V176.44h60.5Zm-49-13.63a39.69,39.69,0,0,0,15.69.72l21.89-3.38V187.9H67.59Z" transform="translate(960.93 233.13)"/><path class="cls-3" d="M279.57,376.31,286.7,361a306.34,306.34,0,0,0,49-7.56l19.43,11.22c10.68,6.17,28,6.17,38.69,0l63.85-36.86c6-3.49,8.54-8.2,7.76-12.75a1.3,1.3,0,0,0,.2-.57V263.67L478,261.76c13.36-2.06,21.62-9.49,19.95-17.2L497.45,158a1.36,1.36,0,0,0-1-1.32l-27.05-6.76a1.43,1.43,0,0,1-.34-.14l-6.88-3.87c-22.29,10.81-46.84,22.84-47.39,23.67-1,1.51-70.39,61.17-70.39,61.17L245.75,256v39l.31,92.53C260.66,389.73,275.66,384.73,279.57,376.31Z" transform="translate(960.93 233.13)"/><path class="cls-3" d="M253.4,393.78a53.61,53.61,0,0,1-8.22-.64l-4.83-.75L240,251.53l101.62-26.05c26.65-22.92,66.27-57.14,68.86-59.79.67-1.11,1-1.64,49.14-25l2.7-1.31,9,5.07,26.46,6.6a7.11,7.11,0,0,1,5.38,6.85l.47,86.09a15.57,15.57,0,0,1-2.73,11.63c-4.09,6-12.14,10.26-22.08,11.8l-7.45,1.15v47.26l-.08.16c.28,6.46-3.62,12.6-10.74,16.71l-63.85,36.86c-12.46,7.2-32,7.19-44.43,0l-17.46-10.09a313.27,313.27,0,0,1-44.35,6.91l-5.72,12.32C280.5,387.92,267.76,393.78,253.4,393.78Zm-1.63-11.51c11.06.38,20.42-3.68,22.61-8.37h0l8.55-18.41,3.35-.25a303.54,303.54,0,0,0,48.13-7.41l2.23-.54L358,359.66c8.93,5.14,24,5.15,33,0l63.85-36.86c1.68-1,5.53-3.58,5-6.82l-.32-1.85.44-.88V258.75l17.16-2.65c7.92-1.22,12.63-4.4,14.39-7a4,4,0,0,0,.84-3.36l-.13-1.18-.45-83.23-25.61-6.69-4.19-2.36c-35.4,17.19-42.37,20.92-43.65,21.71-3.28,3.14-16.11,14.51-70.19,61l-1,.87-95.6,24.51Z" transform="translate(960.93 233.13)"/><path class="cls-5" d="M440.12,88.37l-26.59,4.11a161.89,161.89,0,0,0-16.71-11.06,198.23,198.23,0,0,0-19.16-9.65l7.13-15.35C388.7,48,380,39.33,365.44,37.07L278.22,23.58c-14.6-2.26-29.6,2.74-33.51,11.17L237.58,50.1a307.47,307.47,0,0,0-49,7.56L169.11,46.44c-10.68-6.17-28-6.17-38.69,0L66.57,83.31c-10.69,6.17-10.69,16.17,0,22.34L86,116.86a76.94,76.94,0,0,0-13.09,28.32l-26.6,4.11C31.72,151.55,23.05,160.21,27,168.64L50.33,219c3.92,8.43,18.92,13.43,33.52,11.18l26.59-4.12a161.89,161.89,0,0,0,16.71,11.06,197.09,197.09,0,0,0,19.16,9.65l-7.13,15.36c-3.91,8.42,4.75,17.08,19.35,19.34L245.75,295c14.6,2.26,29.6-2.74,33.51-11.17l7.13-15.35a306.34,306.34,0,0,0,49-7.56l19.43,11.22c10.68,6.17,28,6.17,38.69,0l63.85-36.86c10.69-6.17,10.69-16.18,0-22.34L438,201.67a76.9,76.9,0,0,0,13.09-28.31l26.6-4.12c14.59-2.26,23.26-10.92,19.35-19.35L473.64,99.54C469.72,91.11,454.72,86.11,440.12,88.37Z" transform="translate(960.93 233.13)"/><path class="cls-3" d="M253.07,301.25a54.48,54.48,0,0,1-8.19-.63l-87.22-13.49c-10.91-1.69-19.6-6.76-23.25-13.57a15.15,15.15,0,0,1-.42-13.85l4.69-10.14c-5.11-2.41-9.94-4.92-14.4-7.49a169.41,169.41,0,0,1-15.34-10l-24.22,3.75c-17.49,2.68-34.51-3.5-39.58-14.43L21.77,171.05a15.17,15.17,0,0,1,.42-13.86c3.64-6.81,12.34-11.88,23.25-13.56l22.84-3.54a81.51,81.51,0,0,1,9.54-21.33L63.7,110.61c-6.91-4-10.88-9.88-10.88-16.14s4-12.14,10.88-16.13l63.85-36.86c12.46-7.2,32-7.19,44.43,0l17.46,10.09a312.29,312.29,0,0,1,44.35-6.91l5.72-12.31c5.06-10.93,22.1-17.13,39.58-14.43l87.23,13.5c10.9,1.69,19.59,6.76,23.24,13.57A15.18,15.18,0,0,1,390,58.83L385.29,69c5.09,2.41,9.92,4.92,14.4,7.51a169,169,0,0,1,15.34,10l24.22-3.76c17.52-2.71,34.51,3.49,39.58,14.42l23.37,50.36a15.15,15.15,0,0,1-.42,13.85c-3.64,6.81-12.34,11.89-23.25,13.57l-22.84,3.53a81.63,81.63,0,0,1-9.54,21.35l14.12,8.15c6.91,4,10.87,9.86,10.88,16.13s-4,12.13-10.88,16.13l-63.86,36.86c-12.45,7.19-32,7.19-44.42,0L334.53,267a312.06,312.06,0,0,1-44.35,6.91l-5.72,12.32C280.19,295.4,267.44,301.25,253.07,301.25ZM112,220l1.93,1.46A160.21,160.21,0,0,0,130,232.16a195.44,195.44,0,0,0,18.61,9.35l5.34,2.36-9.58,20.66a3.74,3.74,0,0,0,.13,3.62c1.44,2.69,6.21,6.31,14.9,7.65l87.22,13.49c12.7,1.94,24.95-2.57,27.44-7.92L282.61,263l3.36-.25a301.49,301.49,0,0,0,48.12-7.41l2.22-.53,21.41,12.36c8.93,5.16,24,5.16,33,0l63.86-36.86c3.22-1.87,5.14-4.19,5.14-6.21s-1.92-4.35-5.14-6.2l-24.93-14.4,3.72-5.15a71.3,71.3,0,0,0,12.14-26.2l.85-3.82,30.46-4.72c8.7-1.34,13.46-4.95,14.9-7.64a3.76,3.76,0,0,0,.13-3.63L468.44,102C466,96.58,454.08,92,441,94l-29,4.49-1.93-1.46A157.9,157.9,0,0,0,394,86.38,196.69,196.69,0,0,0,375.35,77L370,74.66,379.59,54a3.74,3.74,0,0,0-.13-3.62c-1.44-2.69-6.21-6.31-14.9-7.65l-87.22-13.5c-13.07-2-24.95,2.56-27.44,7.92l-8.54,18.41-3.36.25a301.49,301.49,0,0,0-48.12,7.41l-2.22.53L166.25,51.4c-8.94-5.16-24-5.16-33,0L69.43,88.27c-3.22,1.86-5.14,4.18-5.14,6.2s1.92,4.35,5.14,6.22l24.93,14.39-3.72,5.14A71.42,71.42,0,0,0,78.5,146.41l-.85,3.83L47.19,155c-8.69,1.34-13.46,4.95-14.9,7.64a3.76,3.76,0,0,0-.13,3.63l23.37,50.35C58,222,69.91,226.55,83,224.5Z" transform="translate(960.93 233.13)"/><ellipse class="cls-4" cx="1222.91" cy="392.39" rx="115.6" ry="66.74"/><path class="cls-3" d="M262,231.62c-30.64,0-61.27-6.73-84.61-20.2-23.67-13.67-36.71-32.19-36.71-52.15s13-38.49,36.71-52.16c46.66-26.93,122.57-26.93,169.22,0h0c23.69,13.67,36.73,32.2,36.72,52.16s-13,38.48-36.72,52.15C323.27,224.89,292.62,231.62,262,231.62ZM262,98.2c-28.56,0-57.12,6.28-78.87,18.83-20,11.55-31,26.54-31,42.24s11,30.69,31,42.23c43.48,25.1,114.25,25.11,157.75,0,20-11.54,31-26.54,31-42.23s-11-30.69-31-42.24h0C319.12,104.49,290.55,98.2,262,98.2Z" transform="translate(960.93 233.13)"/><path class="cls-3" d="M262,92.62c-29.58,0-59.16,6.52-81.74,19.55-45.14,26.06-45.14,68.32,0,94.38,20.81,12,47.58,18.42,74.82,19.36H262Z" transform="translate(960.93 233.13)"/><path class="cls-3" d="M267.71,231.65H255.06c-29.44-1-57-8.16-77.69-20.14-23.67-13.66-36.71-32.19-36.71-52.15s13-38.48,36.71-52.15C200.07,94.1,230.12,86.89,262,86.89h5.73ZM256.26,98.43c-27.72.81-53.52,7.36-73.16,18.7-20,11.54-31,26.54-31,42.23s11,30.7,31,42.23c19.13,11,44.75,17.65,72.14,18.6h1Z" transform="translate(960.93 233.13)"/><path class="cls-4" d="M185.61,203c0,3.72,0,2.78,0,6.51,43.92,22.06,109.82,21.79,153.2-.81,0-3.73,0-2.79-.05-6.51C294.89,180.09,229,180.36,185.61,203Z" transform="translate(960.93 233.13)"/><path class="cls-3" d="M261.44,231.5c-27.95,0-55.89-5.62-78.35-16.9L180,213l-.09-13.52,3.11-1.62c44.8-23.36,112.9-23.72,158.41-.86l3.13,1.58.11,13.51-3.11,1.62C318.81,225.57,290.13,231.5,261.44,231.5ZM192,206.18c41.15,18.9,99.87,18.61,140.43-.73C291.3,186.55,232.57,186.85,192,206.18Z" transform="translate(960.93 233.13)"/><rect class="cls-3" x="1093.99" y="502.37" width="11.46" height="91.27"/><rect class="cls-4" x="1173.28" y="337.43" width="11.46" height="77.87"/><rect class="cls-4" x="1243.42" y="507.99" width="11.46" height="80.05"/><rect class="cls-4" x="1332.78" y="516.32" width="11.46" height="80.05"/><rect class="cls-4" x="1422.02" y="467.88" width="11.46" height="25.49"/><path class="cls-4" d="M626.1,475.28a4,4,0,0,0,0-2.21l-.14-67.8a.37.37,0,0,0-.27-.36l-107.33-35a.37.37,0,0,1-.26-.37l.48-53.35a.39.39,0,0,0-.48-.38L428.9,337.47h0l-93.4,17.4h-.12l-39.61-5.48h-.08L268.3,351a.4.4,0,0,0-.37.39V428a.38.38,0,0,1-.45.38L235,423.13a.38.38,0,0,0-.44.39l.37,69.28a4,4,0,0,0,0,3.34l15.9,34.26c1.68,3.62,8.11,5.76,14.37,4.79L298.6,530a.37.37,0,0,1,.31.1A119.75,119.75,0,0,0,321.78,547a164.2,164.2,0,0,0,19.48,9.48.39.39,0,0,1,.24.35l.33,24.11a3.64,3.64,0,0,0,0,.66h0c.12,2.93,3.49,5.58,8.64,6.38l59.34,9.18c6.25,1,12.69-1.18,14.36-4.79l8.92-19.22a.39.39,0,0,1,.34-.22c24.58-.27,49.06-3.94,71.17-11a.35.35,0,0,1,.3,0l24.28,14c4.67,2.7,12.31,2.7,17,0l43.24-25c2.29-1.32,3.44-3.05,3.44-4.78l-.23-61.33a.4.4,0,0,1,.33-.39l24.65-3.81c4.56-.71,7.74-2.87,8.5-5.39Z" transform="translate(960.93 233.13)"/><path class="cls-3" d="M412.86,603.09a26.59,26.59,0,0,1-3.92-.29l-59.34-9.19c-7.81-1.21-13.24-5.94-13.49-11.8l0-.46.05-1.12-.32-19.85a166.35,166.35,0,0,1-16.9-8.44,128.5,128.5,0,0,1-22-15.86L266,540.86c-7.76,1.17-17.25-1.2-20.44-8.05l-15.89-34.26a9.69,9.69,0,0,1-.56-6.66l-.39-71.06,4.28-3.74,3,.41,26.21,4.26V345.94l5.85-.62,27.84-1.69.65.08,38.76,5.36,92.53-17.23,91.61-22.24,4.71,3.5.15,3.1-.45,49.48,107.56,35.07.27,4.52.14,67.16a9.46,9.46,0,0,1-.23,4.49h0c-1.46,4.84-6.37,8.36-13.11,9.41l-20.11,3.1.21,56.74c0,3.89-2.3,7.45-6.29,9.76l-43.26,25c-6.47,3.74-16.23,3.74-22.7,0l-22.25-12.84a251.6,251.6,0,0,1-67.19,10.51l-7.51,16.18C426.71,600.49,419.63,603.09,412.86,603.09ZM300.41,523.94l2.34,1.91A114.74,114.74,0,0,0,324.65,542a158,158,0,0,0,18.79,9.14l3.55,1.46.24,4.19.33,24c0,.08,1.15,1,3.79,1.45l59.35,9.19c4.46.68,7.81-.91,8.33-1.62l10.41-22.46,4-.22c24.26-.27,48.29-4,69.43-10.73l2.4-.76,2.49,1.28,24.3,14c2.89,1.66,8.35,1.66,11.24,0l43.25-25a2.65,2.65,0,0,0,.75-.57l-.43-65.59,5.3-1.05L616.72,475a8.49,8.49,0,0,0,3.64-1.29l-.13-64.55L512.62,374.08l-.27-4.53.43-46.54-82.53,20-94.81,17.67-1.21-.22-38.73-5.35-21.84,1.32v74.26l-4.25,3.73-3-.39-26.19-4.25.35,64.14-.2.47L256,528c.48.64,3.82,2.24,8.29,1.54Z" transform="translate(960.93 233.13)"/><path class="cls-3" d="M267,427.82a.39.39,0,0,1-.45.38L259.05,427V535.06a19.75,19.75,0,0,0,5.2-.09l32.07-5V426.14H267Z" transform="translate(960.93 233.13)"/><path class="cls-3" d="M261.35,540.92a28.65,28.65,0,0,1-2.91-.15l-5.12-.56v-120l8,1.3V420.4h40.76V534.93l-36.92,5.71A24.73,24.73,0,0,1,261.35,540.92Zm3.43-107.2v95.37l25.81-4V431.87H271.25l-2.61,2.29Z" transform="translate(960.93 233.13)"/><path class="cls-3" d="M277.56,358.86a.39.39,0,0,1-.45.38L269.59,358V466.1a19.75,19.75,0,0,0,5.2-.09l32.07-5V357.18h-29.3Z" transform="translate(960.93 233.13)"/><path class="cls-3" d="M271.89,472a26.06,26.06,0,0,1-2.91-.16l-5.12-.55v-120l8,1.3v-1.14h40.76V466l-36.92,5.7A24.73,24.73,0,0,1,271.89,472Zm3.43-107.21v95.38l25.81-4V362.91H281.8L279,365.29Z" transform="translate(960.93 233.13)"/><path class="cls-3" d="M625.94,475.35a4,4,0,0,0,0-2.21l-.15-67.8a.38.38,0,0,0-.26-.36L518.2,370a.39.39,0,0,1-.27-.37l.48-53.35a.39.39,0,0,0-.48-.38l-48,11.66-7.86,7L414.88,512.16v85.13c4.28-.47,7.94-2.28,9.14-4.88l8.92-19.21a.38.38,0,0,1,.34-.22c24.59-.28,49.06-4,71.18-11a.35.35,0,0,1,.3,0L529,576c4.66,2.69,12.3,2.69,17,0l43.25-25c2.29-1.32,3.43-3.06,3.43-4.79l-.22-61.33a.39.39,0,0,1,.32-.39l24.66-3.81c4.56-.71,7.73-2.87,8.49-5.39Z" transform="translate(960.93 233.13)"/><path class="cls-3" d="M409.15,603.68l.19-93,47.59-179.23,10.22-9.14,52.16-12.66,4.74,3.59.09,3.12-.45,49.39,107.56,35.06.27,4.53.15,67.17a9.67,9.67,0,0,1-.24,4.48h0c-1.46,4.84-6.36,8.35-13.11,9.4l-20.11,3.11.21,56.74c0,3.91-2.29,7.46-6.3,9.77l-43.24,25c-6.48,3.74-16.23,3.73-22.71,0l-22.24-12.85a252.77,252.77,0,0,1-67.2,10.51l-7.51,16.17c-2,4.39-7.15,7.43-13.71,8.17Zm11.46-90.77v73.26l8.58-18.49,3.76-.42c24.59-.29,48.62-4,69.77-10.74l2.33-.75L507.5,557l24.4,14.08c2.89,1.65,8.36,1.65,11.24,0l43.25-25a2.67,2.67,0,0,0,.75-.57l-.43-65.59,5.31-1.06,24.55-3.8a8.43,8.43,0,0,0,3.64-1.31l-.14-64.54L512.46,374.15l-.26-4.53.42-46.54-40,9.7-5.52,4.93Z" transform="translate(960.93 233.13)"/><path class="cls-5" d="M595.43,363.17l-33.61,5.2a119.93,119.93,0,0,0-23-17,173,173,0,0,0-29.41-13.28l9-19.4c1.68-3.61-2-7.33-8.29-8.29l-59.34-9.18c-6.25-1-12.69,1.17-14.36,4.78l-9,19.44c-24.72.26-49.34,3.94-71.57,11.05L331.21,322.3c-4.58-2.65-12-2.65-16.58,0l-43.44,25.08c-4.59,2.64-4.59,6.93,0,9.58l24.61,14.21c-12.31,12.83-18.7,27-19.15,41.32L243,417.7c-6.26,1-10,4.68-8.3,8.29l15.9,34.26c1.68,3.61,8.11,5.76,14.37,4.79l33.61-5.2a119.2,119.2,0,0,0,23,17A172.65,172.65,0,0,0,351,490.1l-9,19.4c-1.67,3.61,2,7.33,8.29,8.3L409.61,527c6.26,1,12.69-1.18,14.37-4.79l9-19.44c24.72-.25,49.34-3.94,71.57-11.05l24.61,14.21c4.58,2.65,12,2.64,16.59,0l43.44-25.08c4.58-2.64,4.58-6.93,0-9.57L564.6,457c12.31-12.83,18.69-27,19.14-41.32l33.66-5.21c6.26-1,10-4.68,8.29-8.29L609.79,368C608.12,364.35,601.69,362.21,595.43,363.17Z" transform="translate(960.93 233.13)"/><path class="cls-3" d="M412.68,532.94a25.68,25.68,0,0,1-3.95-.3l-59.33-9.18c-5.77-.89-10.27-3.62-12.35-7.51a9.72,9.72,0,0,1-.27-8.86l6.38-13.75a172.11,172.11,0,0,1-24.45-11.57,127.54,127.54,0,0,1-22-15.85l-30.86,4.78c-7.77,1.2-17.26-1.18-20.44-8L229.51,428.4a9.69,9.69,0,0,1,.26-8.86c2.07-3.88,6.57-6.61,12.35-7.51l29.16-4.51c1.41-12.16,6.72-24,15.58-34.9l-18.54-10.71c-4-2.31-6.3-5.86-6.3-9.75s2.29-7.43,6.3-9.74l43.44-25.08c6.36-3.69,16-3.69,22.31,0l22.45,13a252.19,252.19,0,0,1,67.19-10.51l7.51-16.17c3.18-6.87,12.72-9.25,20.44-8L511,304.75c5.78.89,10.28,3.63,12.35,7.5a9.71,9.71,0,0,1,.27,8.87l-6.38,13.75a171.59,171.59,0,0,1,24.45,11.57,127.69,127.69,0,0,1,22,15.85l30.86-4.78c7.74-1.2,17.26,1.17,20.44,8l15.9,34.26a9.71,9.71,0,0,1-.27,8.87c-2.07,3.87-6.57,6.61-12.34,7.5l-29.16,4.51c-1.41,12.15-6.72,24-15.58,34.9l18.53,10.7c4,2.32,6.31,5.87,6.31,9.77s-2.3,7.43-6.31,9.73l-43.43,25.08c-6.36,3.7-15.95,3.7-22.32,0l-22.44-12.95a252.59,252.59,0,0,1-67.19,10.5l-7.52,16.18C426.52,530.33,419.45,532.94,412.68,532.94Zm-65-22a8.73,8.73,0,0,0,3.51,1.2l59.34,9.18c4.49.7,7.82-.9,8.33-1.61l10.5-22.64,3.61,0c24.48-.25,48.64-4,69.89-10.78l2.42-.77L532.05,501c2.79,1.61,8.06,1.6,10.86,0l43.14-24.9L555.4,458.36l5.06-5.28c11.08-11.55,17.15-24.53,17.55-37.54l.15-4.75,38.36-5.94a9,9,0,0,0,3.52-1.2L604.6,370.37c-.48-.64-3.84-2.22-8.29-1.53h0l-36.41,5.63-2-2A112.71,112.71,0,0,0,536,356.36a165.31,165.31,0,0,0-28.42-12.83l-6-2.08,11.21-24.17a9,9,0,0,0-3.51-1.2l-59.34-9.17c-4.52-.7-7.83.88-8.33,1.61l-10.5,22.63-3.62,0c-24.47.25-48.64,4-69.88,10.78l-2.42.78-26.82-15.49a12.86,12.86,0,0,0-10.85,0l-43.14,24.9L305,369.86l-5.05,5.27c-11.08,11.55-17.15,24.53-17.56,37.54l-.14,4.75-38.37,5.94a8.73,8.73,0,0,0-3.51,1.2l15.44,33.28c.47.64,3.84,2.22,8.28,1.53l36.42-5.63,2,1.95a113.32,113.32,0,0,0,21.9,16.16,166.19,166.19,0,0,0,28.43,12.83l6,2.09Z" transform="translate(960.93 233.13)"/><path class="cls-4" d="M496.05,376.09c36.36,21,36.36,55,0,76s-95.33,21-131.7,0-36.37-55,0-76S459.68,355.09,496.05,376.09Z" transform="translate(960.93 233.13)"/><path class="cls-3" d="M430.2,474.36c-25,0-50.09-5.5-69.15-16.51-19.73-11.39-30.59-26.92-30.59-43.75s10.87-32.35,30.59-43.73c38.14-22,100.18-22,138.3,0h0c19.72,11.38,30.58,26.91,30.58,43.73s-10.86,32.36-30.58,43.75C480.29,468.86,455.24,474.36,430.2,474.36Zm0-107.48c-22.65,0-45.3,5-62.54,14.94-15.46,8.92-24,20.38-24,32.28s8.51,23.37,24,32.3c34.48,19.9,90.59,19.9,125.08,0,15.46-8.93,24-20.4,24-32.3s-8.51-23.36-24-32.28h0C475.5,371.86,452.85,366.88,430.2,366.88Z" transform="translate(960.93 233.13)"/><path class="cls-3" d="M430.2,360.42c-23.83,0-47.67,5.25-65.85,15.75-36.37,21-36.37,55,0,76,16.76,9.68,38.33,14.84,60.26,15.59h5.59Z" transform="translate(960.93 233.13)"/><path class="cls-3" d="M436.81,474.4h-12.2c-24.1-.82-46.59-6.68-63.56-16.48-19.73-11.38-30.59-26.92-30.59-43.74s10.87-32.35,30.59-43.74c18.56-10.72,43.12-16.63,69.15-16.63h6.61ZM423.59,367.17c-21.24.89-40.89,6-55.93,14.72-15.46,8.92-24,20.39-24,32.29s8.51,23.36,24,32.29c14.83,8.57,34.65,13.76,55.93,14.67Z" transform="translate(960.93 233.13)"/><path class="cls-4" d="M364.24,451.78c0,.21,0,.17,0,.38,36.7,21,96.13,20.75,132.31-.73v-.38C459.85,430.06,400.42,430.3,364.24,451.78Z" transform="translate(960.93 233.13)"/><path class="cls-3" d="M429.75,474.26c-24.84,0-49.7-5.45-68.79-16.36L357.63,456v-7.6l3.24-2.3c38-22.54,100.31-22.9,139-.78l3.33,1.91v7.6l-3.23,2.29C480.71,468.53,455.24,474.26,429.75,474.26Zm-51-22.4c31,12.67,72.75,12.49,103.32-.51C451.09,438.68,409.32,438.88,378.74,451.86Z" transform="translate(960.93 233.13)"/><rect class="cls-4" x="1349.15" y="602.96" width="13.22" height="62.72"/><rect class="cls-3" x="1296.83" y="746.87" width="11.46" height="70.08"/><rect class="cls-4" x="1493.14" y="743.99" width="11.46" height="65.17"/><rect class="cls-4" x="1390.81" y="739.06" width="11.46" height="65.16"/></svg>