<svg id="Layer_1" data-name="Layer 1" xmlns="http://www.w3.org/2000/svg" viewBox="0 0 448 448"><defs><style>.cls-1{fill:#150035;}</style></defs><title>instagram</title><path class="cls-1" d="M341.31,156.82a46.69,46.69,0,0,0-26.77-26.77c-5-1.93-12.44-4.22-26.19-4.86-14.87-.67-19.33-.82-57-.82s-42.12.15-57,.82c-13.75.64-21.22,2.93-26.19,4.86a46.69,46.69,0,0,0-26.77,26.77c-1.93,5-4.22,12.44-4.85,26.19-.68,14.87-.82,19.33-.82,57s.14,42.12.82,57c.63,13.75,2.92,21.22,4.85,26.19a46.71,46.71,0,0,0,26.77,26.76c5,1.94,12.44,4.24,26.19,4.86,14.87.68,19.33.83,57,.83s42.12-.15,57-.83c13.75-.62,21.22-2.92,26.19-4.86a46.71,46.71,0,0,0,26.77-26.76c1.93-5,4.22-12.44,4.85-26.19.68-14.87.82-19.33.82-57s-.14-42.12-.82-57C345.53,169.26,343.24,161.79,341.31,156.82ZM231.36,312.43A72.43,72.43,0,1,1,303.78,240,72.42,72.42,0,0,1,231.36,312.43Zm75.29-130.79a16.93,16.93,0,1,1,16.92-16.93A16.93,16.93,0,0,1,306.65,181.64Z" transform="translate(-7.36 -16)"/><path class="cls-1" d="M231.36,193a47,47,0,1,0,47,47A47,47,0,0,0,231.36,193Z" transform="translate(-7.36 -16)"/><path class="cls-1" d="M231.36,16c-123.71,0-224,100.29-224,224s100.29,224,224,224,224-100.29,224-224S355.07,16,231.36,16ZM371.55,298.15c-.69,15-3.07,25.26-6.56,34.23a72.09,72.09,0,0,1-41.24,41.25c-9,3.49-19.23,5.88-34.24,6.56s-19.85.85-58.15.85-43.11-.17-58.15-.85S148,377.12,139,373.63a72.09,72.09,0,0,1-41.24-41.25c-3.49-9-5.87-19.22-6.56-34.23s-.85-19.85-.85-58.15.17-43.11.85-58.15,3.07-25.26,6.56-34.23A72.09,72.09,0,0,1,139,106.37c9-3.49,19.23-5.87,34.24-6.56S193.06,99,231.36,99s43.1.16,58.15.85,25.26,3.07,34.24,6.56A72.09,72.09,0,0,1,365,147.62c3.49,9,5.87,19.22,6.56,34.23s.85,19.85.85,58.15S372.23,283.11,371.55,298.15Z" transform="translate(-7.36 -16)"/></svg>