<svg id="Layer_1" data-name="Layer 1" xmlns="http://www.w3.org/2000/svg" viewBox="0 0 1322.03 332.89"><defs><style>.cls-1,.cls-2{fill:#fff;}.cls-2{font-size:261.73px;font-family:BebasNeue-Regular, Bebas Neue;}</style></defs><title>logo</title><polygon class="cls-1" points="135.4 332.88 135.4 235.25 160.52 235.25 160.52 269.09 256.33 166.31 160.78 63.8 160.78 104.55 38.89 179.32 51.85 193.33 137.3 193.33 137.3 170.75 173.43 170.75 173.43 193.33 160.59 193.33 160.59 217.39 40.33 217.39 0 174.57 135.65 89.59 135.65 0 290.68 166.31 135.4 332.88"/><polygon class="cls-1" points="161.62 122.17 116.05 147.99 153.72 143.1 161.62 122.17"/><polygon class="cls-1" points="101.26 96.24 101.26 45.44 123.49 65.55 123.49 82.41 101.26 96.24"/><polygon class="cls-1" points="180.34 325.73 180.34 300.71 155.41 327.48 155.41 332.88 173.42 332.88 180.34 325.73"/><polygon class="cls-1" points="290.68 211.69 290.68 184.74 265.74 211.51 265.74 237.47 290.68 211.69"/><polygon class="cls-1" points="217.59 287.23 217.59 262.53 192.66 289.3 192.66 313.01 217.59 287.23"/><polygon class="cls-1" points="254.32 249.28 254.32 223.4 229.38 250.17 229.38 275.05 254.32 249.28"/><text class="cls-2" transform="matrix(1, 0, 0, 1, 355.19, 255.98)">4 shepherd</text></svg>