<svg id="Layer_1" data-name="Layer 1" xmlns="http://www.w3.org/2000/svg" viewBox="0 0 1343.01 338.12"><defs><style>.cls-1,.cls-2{fill:#150035;}.cls-2{font-size:265.84px;font-family:BebasNeue-Regular, Bebas Neue;}</style></defs><title>logo-dark</title><polygon class="cls-1" points="137.53 338.12 137.53 238.94 163.05 238.94 163.05 273.32 260.36 168.92 163.3 64.8 163.3 106.19 39.5 182.14 52.66 196.37 139.46 196.37 139.46 173.44 176.16 173.44 176.16 196.37 163.11 196.37 163.11 220.81 40.97 220.81 0 177.31 137.78 91 137.78 0 295.25 168.92 137.53 338.12"/><polygon class="cls-1" points="164.16 124.09 117.87 150.32 156.14 145.35 164.16 124.09"/><polygon class="cls-1" points="102.85 97.75 102.85 46.15 125.43 66.58 125.43 83.71 102.85 97.75"/><polygon class="cls-1" points="183.18 330.85 183.18 305.44 157.85 332.63 157.85 338.12 176.15 338.12 183.18 330.85"/><polygon class="cls-1" points="295.25 215.02 295.25 187.64 269.92 214.83 269.92 241.2 295.25 215.02"/><polygon class="cls-1" points="221.01 291.75 221.01 266.66 195.68 293.85 195.68 317.93 221.01 291.75"/><polygon class="cls-1" points="258.31 253.19 258.31 226.91 232.98 254.1 232.98 279.37 258.31 253.19"/><text class="cls-2" transform="translate(360.97 260.25) rotate(0.08)">4 shepherd</text></svg>