<svg id="Layer_1" data-name="Layer 1" xmlns="http://www.w3.org/2000/svg" viewBox="0 0 561.22 235.78"><defs><style>.cls-1{fill:#fff;}.cls-2{fill:#16110d;}.cls-3{fill:#39a1ff;}.cls-4{fill:#fec;}</style></defs><title>play-clipped-bg-with-play</title><path class="cls-1" d="M1185.22,82.38V318.16l-386-209.94a42.49,42.49,0,0,0-41.91.62L624,187.43v-105Z" transform="translate(-624 -82.38)"/><g id="Y"><path class="cls-2" d="M863.35,131a.21.21,0,0,1,0,.4.74.74,0,0,1-.68,0,.21.21,0,0,1,0-.4A.81.81,0,0,1,863.35,131Z" transform="translate(-624 -82.38)"/><ellipse class="cls-2" cx="240.79" cy="47.82" rx="0.48" ry="0.28"/><path class="cls-2" d="M849.1,137.2a.21.21,0,0,1,0,.4.74.74,0,0,1-.68,0,.21.21,0,0,1,0-.4A.81.81,0,0,1,849.1,137.2Z" transform="translate(-624 -82.38)"/><path class="cls-2" d="M850.88,136.18c.19.1.19.28,0,.39a.74.74,0,0,1-.68,0c-.19-.11-.19-.29,0-.39A.74.74,0,0,1,850.88,136.18Z" transform="translate(-624 -82.38)"/><ellipse class="cls-2" cx="228.32" cy="52.96" rx="0.48" ry="0.28"/><ellipse class="cls-2" cx="230.1" cy="51.94" rx="0.48" ry="0.28"/><ellipse class="cls-2" cx="231.88" cy="50.91" rx="0.48" ry="0.28"/><ellipse class="cls-2" cx="233.66" cy="49.88" rx="0.48" ry="0.28"/><path class="cls-2" d="M859.79,131a.22.22,0,0,1,0,.4.74.74,0,0,1-.68,0,.21.21,0,0,1,0-.4A.81.81,0,0,1,859.79,131Z" transform="translate(-624 -82.38)"/><path class="cls-2" d="M861.57,130c.19.1.19.28,0,.39a.74.74,0,0,1-.68,0c-.19-.11-.19-.29,0-.39A.74.74,0,0,1,861.57,130Z" transform="translate(-624 -82.38)"/><path class="cls-2" d="M863.35,129c.19.11.19.28,0,.39a.74.74,0,0,1-.68,0c-.19-.11-.19-.28,0-.39A.74.74,0,0,1,863.35,129Z" transform="translate(-624 -82.38)"/><path class="cls-2" d="M845.54,137.2a.22.22,0,0,1,0,.4.74.74,0,0,1-.68,0,.21.21,0,0,1,0-.4A.81.81,0,0,1,845.54,137.2Z" transform="translate(-624 -82.38)"/><ellipse class="cls-2" cx="222.98" cy="53.99" rx="0.48" ry="0.28"/><ellipse class="cls-2" cx="224.76" cy="52.96" rx="0.48" ry="0.28"/><path class="cls-2" d="M850.88,134.12c.19.11.19.28,0,.39a.74.74,0,0,1-.68,0c-.19-.11-.19-.28,0-.39A.74.74,0,0,1,850.88,134.12Z" transform="translate(-624 -82.38)"/><path class="cls-2" d="M852.66,133.09c.19.11.19.29,0,.39a.74.74,0,0,1-.68,0c-.19-.1-.19-.28,0-.39A.74.74,0,0,1,852.66,133.09Z" transform="translate(-624 -82.38)"/><path class="cls-2" d="M854.44,132.06a.21.21,0,0,1,0,.4.81.81,0,0,1-.68,0,.21.21,0,0,1,0-.4A.74.74,0,0,1,854.44,132.06Z" transform="translate(-624 -82.38)"/><ellipse class="cls-2" cx="231.88" cy="48.85" rx="0.48" ry="0.28"/><path class="cls-2" d="M858,130a.21.21,0,0,1,0,.39.76.76,0,0,1-.69,0,.21.21,0,0,1,0-.39A.76.76,0,0,1,858,130Z" transform="translate(-624 -82.38)"/><path class="cls-2" d="M859.79,129a.21.21,0,0,1,0,.39.74.74,0,0,1-.68,0c-.19-.11-.19-.28,0-.39A.74.74,0,0,1,859.79,129Z" transform="translate(-624 -82.38)"/><path class="cls-2" d="M861.57,128c.19.11.19.28,0,.39a.74.74,0,0,1-.68,0c-.19-.11-.19-.28,0-.39A.74.74,0,0,1,861.57,128Z" transform="translate(-624 -82.38)"/><path class="cls-2" d="M843.76,136.18a.21.21,0,0,1,0,.39.76.76,0,0,1-.69,0,.21.21,0,0,1,0-.39A.76.76,0,0,1,843.76,136.18Z" transform="translate(-624 -82.38)"/><ellipse class="cls-2" cx="221.2" cy="52.96" rx="0.48" ry="0.28"/><ellipse class="cls-2" cx="222.98" cy="51.94" rx="0.48" ry="0.28"/><ellipse class="cls-2" cx="224.76" cy="50.91" rx="0.48" ry="0.28"/><ellipse class="cls-2" cx="226.54" cy="49.88" rx="0.48" ry="0.28"/><path class="cls-2" d="M852.66,131a.21.21,0,0,1,0,.4.74.74,0,0,1-.68,0,.21.21,0,0,1,0-.4A.81.81,0,0,1,852.66,131Z" transform="translate(-624 -82.38)"/><path class="cls-2" d="M854.44,130c.19.1.19.28,0,.39a.74.74,0,0,1-.68,0c-.19-.11-.19-.29,0-.39A.74.74,0,0,1,854.44,130Z" transform="translate(-624 -82.38)"/><path class="cls-2" d="M856.22,129c.19.11.19.28,0,.39a.74.74,0,0,1-.68,0c-.19-.11-.19-.28,0-.39A.74.74,0,0,1,856.22,129Z" transform="translate(-624 -82.38)"/><ellipse class="cls-2" cx="233.66" cy="45.77" rx="0.48" ry="0.28"/><path class="cls-2" d="M859.79,126.92a.21.21,0,0,1,0,.39.74.74,0,0,1-.68,0c-.19-.1-.19-.28,0-.39A.74.74,0,0,1,859.79,126.92Z" transform="translate(-624 -82.38)"/><ellipse class="cls-2" cx="217.63" cy="52.96" rx="0.48" ry="0.28"/><ellipse class="cls-2" cx="219.41" cy="51.94" rx="0.48" ry="0.28"/><path class="cls-2" d="M845.54,133.09a.21.21,0,0,1,0,.39.74.74,0,0,1-.68,0c-.19-.1-.19-.28,0-.39A.74.74,0,0,1,845.54,133.09Z" transform="translate(-624 -82.38)"/><ellipse class="cls-2" cx="222.98" cy="49.88" rx="0.48" ry="0.28"/><path class="cls-2" d="M849.1,131a.21.21,0,0,1,0,.4.74.74,0,0,1-.68,0,.21.21,0,0,1,0-.4A.81.81,0,0,1,849.1,131Z" transform="translate(-624 -82.38)"/><ellipse class="cls-2" cx="226.54" cy="47.82" rx="0.48" ry="0.28"/><ellipse class="cls-2" cx="228.32" cy="46.79" rx="0.48" ry="0.28"/><ellipse class="cls-2" cx="230.1" cy="45.77" rx="0.48" ry="0.28"/><path class="cls-2" d="M856.22,126.92c.19.11.19.29,0,.39a.74.74,0,0,1-.68,0c-.19-.1-.19-.28,0-.39A.74.74,0,0,1,856.22,126.92Z" transform="translate(-624 -82.38)"/><path class="cls-2" d="M858,125.89a.22.22,0,0,1,0,.4.83.83,0,0,1-.69,0,.22.22,0,0,1,0-.4A.76.76,0,0,1,858,125.89Z" transform="translate(-624 -82.38)"/><path class="cls-2" d="M840.19,134.12c.19.11.19.28,0,.39a.74.74,0,0,1-.68,0c-.19-.11-.19-.28,0-.39A.74.74,0,0,1,840.19,134.12Z" transform="translate(-624 -82.38)"/><ellipse class="cls-2" cx="217.63" cy="50.91" rx="0.48" ry="0.28"/><ellipse class="cls-2" cx="219.41" cy="49.88" rx="0.48" ry="0.28"/><path class="cls-2" d="M845.54,131a.22.22,0,0,1,0,.4.74.74,0,0,1-.68,0,.21.21,0,0,1,0-.4A.81.81,0,0,1,845.54,131Z" transform="translate(-624 -82.38)"/><ellipse class="cls-2" cx="222.98" cy="47.82" rx="0.48" ry="0.28"/><path class="cls-2" d="M848.42,129a.74.74,0,0,1,.68,0c.19.11.19.28,0,.39a.74.74,0,0,1-.68,0c-.19-.11-.19-.28,0-.39Z" transform="translate(-624 -82.38)"/><path class="cls-2" d="M850.2,128a.74.74,0,0,1,.68,0c.19.11.19.28,0,.39a.74.74,0,0,1-.68,0c-.19-.11-.19-.28,0-.39Z" transform="translate(-624 -82.38)"/><path class="cls-2" d="M852.66,126.92c.19.11.19.29,0,.39a.74.74,0,0,1-.68,0c-.19-.1-.19-.28,0-.39A.74.74,0,0,1,852.66,126.92Z" transform="translate(-624 -82.38)"/><path class="cls-2" d="M854.44,125.89a.21.21,0,0,1,0,.4.81.81,0,0,1-.68,0,.21.21,0,0,1,0-.4A.74.74,0,0,1,854.44,125.89Z" transform="translate(-624 -82.38)"/><path class="cls-2" d="M856.22,124.86a.21.21,0,0,1,0,.4.74.74,0,0,1-.68,0,.21.21,0,0,1,0-.4A.74.74,0,0,1,856.22,124.86Z" transform="translate(-624 -82.38)"/><ellipse class="cls-2" cx="214.07" cy="50.91" rx="0.48" ry="0.28"/><path class="cls-2" d="M840.19,132.06a.21.21,0,0,1,0,.4.81.81,0,0,1-.68,0,.21.21,0,0,1,0-.4A.74.74,0,0,1,840.19,132.06Z" transform="translate(-624 -82.38)"/><path class="cls-2" d="M842,131a.21.21,0,0,1,0,.4.74.74,0,0,1-.68,0,.21.21,0,0,1,0-.4A.81.81,0,0,1,842,131Z" transform="translate(-624 -82.38)"/><ellipse class="cls-2" cx="219.41" cy="47.82" rx="0.48" ry="0.28"/><ellipse class="cls-2" cx="214.06" cy="48.84" rx="0.48" ry="0.28"/><ellipse class="cls-2" cx="215.84" cy="47.81" rx="0.48" ry="0.28"/><path class="cls-2" d="M842,129c.19.1.19.28,0,.39a.74.74,0,0,1-.68,0c-.19-.11-.19-.29,0-.39A.74.74,0,0,1,842,129Z" transform="translate(-624 -82.38)"/><path class="cls-2" d="M838.4,129a.21.21,0,0,1,0,.39.74.74,0,0,1-.68,0c-.19-.11-.19-.29,0-.39A.74.74,0,0,1,838.4,129Z" transform="translate(-624 -82.38)"/><ellipse class="cls-2" cx="215.84" cy="45.75" rx="0.48" ry="0.28"/><path class="cls-2" d="M838.4,126.91a.21.21,0,0,1,0,.39.74.74,0,0,1-.68,0c-.19-.11-.19-.28,0-.39A.74.74,0,0,1,838.4,126.91Z" transform="translate(-624 -82.38)"/><ellipse class="cls-2" cx="255.06" cy="45.79" rx="0.48" ry="0.28"/><path class="cls-2" d="M881.18,126.94a.21.21,0,0,1,0,.4.74.74,0,0,1-.68,0,.21.21,0,0,1,0-.4A.81.81,0,0,1,881.18,126.94Z" transform="translate(-624 -82.38)"/><ellipse class="cls-2" cx="258.62" cy="43.73" rx="0.48" ry="0.28"/><path class="cls-2" d="M884.74,124.89c.19.11.19.28,0,.39a.74.74,0,0,1-.68,0c-.19-.11-.19-.28,0-.39A.74.74,0,0,1,884.74,124.89Z" transform="translate(-624 -82.38)"/><ellipse class="cls-2" cx="249.72" cy="46.82" rx="0.48" ry="0.28"/><path class="cls-2" d="M875.84,128a.21.21,0,0,1,0,.4.81.81,0,0,1-.68,0,.21.21,0,0,1,0-.4A.74.74,0,0,1,875.84,128Z" transform="translate(-624 -82.38)"/><ellipse class="cls-2" cx="253.28" cy="44.76" rx="0.48" ry="0.28"/><ellipse class="cls-2" cx="255.06" cy="43.73" rx="0.48" ry="0.28"/><path class="cls-2" d="M881.18,124.89c.19.11.19.28,0,.39a.74.74,0,0,1-.68,0c-.19-.11-.19-.28,0-.39A.74.74,0,0,1,881.18,124.89Z" transform="translate(-624 -82.38)"/><path class="cls-2" d="M883,123.86c.19.11.19.28,0,.39a.74.74,0,0,1-.68,0c-.19-.11-.19-.28,0-.39A.74.74,0,0,1,883,123.86Z" transform="translate(-624 -82.38)"/><ellipse class="cls-2" cx="260.4" cy="40.65" rx="0.48" ry="0.28"/><path class="cls-2" d="M868,130a.76.76,0,0,1,.69,0,.21.21,0,0,1,0,.39.74.74,0,0,1-.68,0C867.83,130.3,867.83,130.13,868,130Z" transform="translate(-624 -82.38)"/><ellipse class="cls-2" cx="246.14" cy="46.81" rx="0.48" ry="0.28"/><path class="cls-2" d="M872.26,128a.21.21,0,0,1,0,.4.81.81,0,0,1-.68,0,.21.21,0,0,1,0-.4A.74.74,0,0,1,872.26,128Z" transform="translate(-624 -82.38)"/><ellipse class="cls-2" cx="249.7" cy="44.75" rx="0.48" ry="0.28"/><path class="cls-2" d="M875.82,125.91c.19.1.19.28,0,.39a.74.74,0,0,1-.68,0c-.19-.11-.19-.29,0-.39A.74.74,0,0,1,875.82,125.91Z" transform="translate(-624 -82.38)"/><path class="cls-2" d="M877.6,124.88c.19.11.19.28,0,.39a.74.74,0,0,1-.68,0c-.19-.11-.19-.28,0-.39A.74.74,0,0,1,877.6,124.88Z" transform="translate(-624 -82.38)"/><ellipse class="cls-2" cx="255.04" cy="41.67" rx="0.48" ry="0.28"/><path class="cls-2" d="M881.17,122.82a.21.21,0,0,1,0,.39.74.74,0,0,1-.68,0c-.19-.11-.19-.28,0-.39A.74.74,0,0,1,881.17,122.82Z" transform="translate(-624 -82.38)"/><path class="cls-2" d="M883,121.79a.21.21,0,0,1,0,.4.81.81,0,0,1-.68,0,.21.21,0,0,1,0-.4A.74.74,0,0,1,883,121.79Z" transform="translate(-624 -82.38)"/><ellipse class="cls-2" cx="260.39" cy="38.58" rx="0.48" ry="0.28"/><path class="cls-2" d="M866.23,129a.74.74,0,0,1,.68,0c.19.11.19.29,0,.39a.76.76,0,0,1-.69,0A.21.21,0,0,1,866.23,129Z" transform="translate(-624 -82.38)"/><ellipse class="cls-2" cx="244.36" cy="45.78" rx="0.48" ry="0.28"/><path class="cls-2" d="M870.48,126.93a.21.21,0,0,1,0,.4.74.74,0,0,1-.68,0,.21.21,0,0,1,0-.4A.74.74,0,0,1,870.48,126.93Z" transform="translate(-624 -82.38)"/><ellipse class="cls-2" cx="247.92" cy="43.72" rx="0.48" ry="0.28"/><ellipse class="cls-2" cx="249.7" cy="42.69" rx="0.48" ry="0.28"/><path class="cls-2" d="M875.82,123.85c.19.11.19.28,0,.39a.74.74,0,0,1-.68,0c-.19-.11-.19-.28,0-.39A.74.74,0,0,1,875.82,123.85Z" transform="translate(-624 -82.38)"/><path class="cls-2" d="M877.6,122.82c.19.11.19.28,0,.39a.74.74,0,0,1-.68,0c-.19-.11-.19-.28,0-.39A.74.74,0,0,1,877.6,122.82Z" transform="translate(-624 -82.38)"/><ellipse class="cls-2" cx="255.04" cy="39.61" rx="0.48" ry="0.28"/><ellipse class="cls-2" cx="256.83" cy="38.58" rx="0.48" ry="0.28"/><path class="cls-2" d="M883,119.73a.21.21,0,0,1,0,.4.74.74,0,0,1-.68,0,.21.21,0,0,1,0-.4A.81.81,0,0,1,883,119.73Z" transform="translate(-624 -82.38)"/><path class="cls-2" d="M864.45,128a.74.74,0,0,1,.68,0,.21.21,0,0,1,0,.4.77.77,0,0,1-.68,0A.21.21,0,0,1,864.45,128Z" transform="translate(-624 -82.38)"/><path class="cls-2" d="M866.92,126.93a.22.22,0,0,1,0,.4.74.74,0,0,1-.68,0,.21.21,0,0,1,0-.4A.74.74,0,0,1,866.92,126.93Z" transform="translate(-624 -82.38)"/><path class="cls-2" d="M868.7,125.91c.19.1.19.28,0,.39a.74.74,0,0,1-.68,0c-.19-.11-.19-.29,0-.39A.74.74,0,0,1,868.7,125.91Z" transform="translate(-624 -82.38)"/><ellipse class="cls-2" cx="246.14" cy="42.69" rx="0.48" ry="0.28"/><path class="cls-2" d="M872.26,123.85c.19.11.19.28,0,.39a.74.74,0,0,1-.68,0c-.19-.11-.19-.28,0-.39A.74.74,0,0,1,872.26,123.85Z" transform="translate(-624 -82.38)"/><path class="cls-2" d="M874,122.82c.19.11.19.28,0,.39a.74.74,0,0,1-.68,0c-.19-.11-.19-.28,0-.39A.74.74,0,0,1,874,122.82Z" transform="translate(-624 -82.38)"/><ellipse class="cls-2" cx="251.48" cy="39.61" rx="0.48" ry="0.28"/><ellipse class="cls-2" cx="253.26" cy="38.58" rx="0.48" ry="0.28"/><path class="cls-2" d="M879.39,119.73a.22.22,0,0,1,0,.4.76.76,0,0,1-.69,0,.22.22,0,0,1,0-.4A.83.83,0,0,1,879.39,119.73Z" transform="translate(-624 -82.38)"/><path class="cls-2" d="M862.67,126.94a.77.77,0,0,1,.68,0,.21.21,0,0,1,0,.4.74.74,0,0,1-.68,0C862.48,127.22,862.48,127,862.67,126.94Z" transform="translate(-624 -82.38)"/><path class="cls-2" d="M865.14,125.91a.21.21,0,0,1,0,.39.76.76,0,0,1-.69,0,.21.21,0,0,1,0-.39A.76.76,0,0,1,865.14,125.91Z" transform="translate(-624 -82.38)"/><ellipse class="cls-2" cx="242.58" cy="42.69" rx="0.48" ry="0.28"/><path class="cls-2" d="M868.7,123.85c.19.11.19.28,0,.39a.74.74,0,0,1-.68,0c-.19-.11-.19-.28,0-.39A.74.74,0,0,1,868.7,123.85Z" transform="translate(-624 -82.38)"/><ellipse class="cls-2" cx="246.14" cy="40.64" rx="0.48" ry="0.28"/><ellipse class="cls-2" cx="247.92" cy="39.61" rx="0.48" ry="0.28"/><ellipse class="cls-2" cx="249.7" cy="38.58" rx="0.48" ry="0.28"/><ellipse class="cls-2" cx="251.48" cy="37.55" rx="0.48" ry="0.28"/><path class="cls-2" d="M860.89,125.91a.74.74,0,0,1,.68,0c.19.1.19.28,0,.39a.74.74,0,0,1-.68,0C860.7,126.19,860.7,126,860.89,125.91Z" transform="translate(-624 -82.38)"/><ellipse class="cls-2" cx="239.01" cy="42.69" rx="0.48" ry="0.28"/><path class="cls-2" d="M865.14,123.85a.21.21,0,0,1,0,.39.76.76,0,0,1-.69,0,.21.21,0,0,1,0-.39A.76.76,0,0,1,865.14,123.85Z" transform="translate(-624 -82.38)"/><path class="cls-2" d="M866.92,122.82a.21.21,0,0,1,0,.39.74.74,0,0,1-.68,0c-.19-.11-.19-.28,0-.39A.74.74,0,0,1,866.92,122.82Z" transform="translate(-624 -82.38)"/><ellipse class="cls-2" cx="244.36" cy="39.61" rx="0.48" ry="0.28"/><path class="cls-2" d="M870.48,120.76a.21.21,0,0,1,0,.4.74.74,0,0,1-.68,0,.21.21,0,0,1,0-.4A.74.74,0,0,1,870.48,120.76Z" transform="translate(-624 -82.38)"/><path class="cls-2" d="M859.11,124.88a.74.74,0,0,1,.68,0c.19.11.19.28,0,.39a.74.74,0,0,1-.68,0C858.92,125.16,858.92,125,859.11,124.88Z" transform="translate(-624 -82.38)"/><path class="cls-2" d="M861.57,123.85c.19.11.19.28,0,.39a.74.74,0,0,1-.68,0c-.19-.11-.19-.28,0-.39A.74.74,0,0,1,861.57,123.85Z" transform="translate(-624 -82.38)"/><ellipse class="cls-2" cx="239.01" cy="40.64" rx="0.48" ry="0.28"/><path class="cls-2" d="M865.14,121.79a.22.22,0,0,1,0,.4.83.83,0,0,1-.69,0,.22.22,0,0,1,0-.4A.76.76,0,0,1,865.14,121.79Z" transform="translate(-624 -82.38)"/><path class="cls-2" d="M857.33,123.85a.74.74,0,0,1,.68,0c.19.11.19.28,0,.39a.74.74,0,0,1-.68,0c-.19-.11-.19-.28,0-.39Z" transform="translate(-624 -82.38)"/><path class="cls-2" d="M859.79,122.82c.19.11.19.28,0,.39a.74.74,0,0,1-.68,0C858.92,123.1,859.6,122.71,859.79,122.82Z" transform="translate(-624 -82.38)"/><polygon class="cls-3" points="213.9 35.08 213.9 44.76 221.55 49.18 221.55 39.49 213.9 35.08"/><path class="cls-3" d="M859.42,109.45l15.27-3.22,8.23,4.75-26.39,4.56-11,6.33-7.65-4.41,10.75-6.21,8.11-15.37,8.28,4.78Z" transform="translate(-624 -82.38)"/><path class="cls-4" d="M859.42,112l15.27-3.22,8.23,4.75-26.39,4.55-11,6.34L837.9,120l10.75-6.21,8.11-15.37L865,103.2Z" transform="translate(-624 -82.38)"/><path class="cls-2" d="M883,110.59l-8.24-4.76-9.34,2v-7.36l-.5-.29-8.29-4.79L848.37,111l-10.47,6-.38.22v10.12l7.66,4.42.37.22.38-.22,10.73-6.2L883.3,121V110.77Zm-37.81,20.32-6.91-4v-8.82l.17.09,6.74,3.89Zm-6.36-13.36-.17-.09,10.19-5.89.09,0,8-15.12,7.6,4.38L858.62,110l16-3.37,7.21,4.16-11.14,1.92-13.79,2.38-.51.09-.24.14-10.61,6.12Z" transform="translate(-624 -82.38)"/><polygon class="cls-3" points="232.91 42.44 232.16 42.72 232.16 33.8 232.91 33.52 232.91 42.44"/></g><g id="P"><ellipse class="cls-2" cx="91.2" cy="50.24" rx="0.48" ry="0.28"/><ellipse class="cls-2" cx="92.99" cy="49.21" rx="0.48" ry="0.28"/><ellipse class="cls-2" cx="94.77" cy="48.18" rx="0.48" ry="0.28"/><path class="cls-2" d="M720.89,129.34c.19.1.19.28,0,.39a.74.74,0,0,1-.68,0c-.19-.11-.19-.29,0-.39A.74.74,0,0,1,720.89,129.34Z" transform="translate(-624 -82.38)"/><path class="cls-2" d="M712,132.42c.19.11.19.29,0,.39a.74.74,0,0,1-.68,0c-.19-.1-.19-.28,0-.39A.74.74,0,0,1,712,132.42Z" transform="translate(-624 -82.38)"/><path class="cls-2" d="M713.76,131.39a.21.21,0,0,1,0,.4.81.81,0,0,1-.68,0,.21.21,0,0,1,0-.4A.74.74,0,0,1,713.76,131.39Z" transform="translate(-624 -82.38)"/><path class="cls-2" d="M715.55,130.36a.22.22,0,0,1,0,.4.76.76,0,0,1-.69,0,.22.22,0,0,1,0-.4A.83.83,0,0,1,715.55,130.36Z" transform="translate(-624 -82.38)"/><path class="cls-2" d="M717.33,129.34a.21.21,0,0,1,0,.39.74.74,0,0,1-.68,0c-.19-.11-.19-.29,0-.39A.74.74,0,0,1,717.33,129.34Z" transform="translate(-624 -82.38)"/><path class="cls-2" d="M719.11,128.31c.19.11.19.28,0,.39a.74.74,0,0,1-.68,0c-.19-.11-.19-.28,0-.39A.74.74,0,0,1,719.11,128.31Z" transform="translate(-624 -82.38)"/><path class="cls-2" d="M708.42,132.42c.19.11.19.29,0,.39a.74.74,0,0,1-.68,0c-.19-.1-.19-.28,0-.39A.74.74,0,0,1,708.42,132.42Z" transform="translate(-624 -82.38)"/><ellipse class="cls-2" cx="85.86" cy="49.21" rx="0.48" ry="0.28"/><path class="cls-2" d="M712,130.36a.21.21,0,0,1,0,.4.74.74,0,0,1-.68,0,.21.21,0,0,1,0-.4A.81.81,0,0,1,712,130.36Z" transform="translate(-624 -82.38)"/><path class="cls-2" d="M713.76,129.34c.19.1.19.28,0,.39a.74.74,0,0,1-.68,0c-.19-.11-.19-.29,0-.39A.74.74,0,0,1,713.76,129.34Z" transform="translate(-624 -82.38)"/><path class="cls-2" d="M715.55,128.31a.21.21,0,0,1,0,.39.76.76,0,0,1-.69,0,.21.21,0,0,1,0-.39A.76.76,0,0,1,715.55,128.31Z" transform="translate(-624 -82.38)"/><ellipse class="cls-2" cx="92.99" cy="45.1" rx="0.48" ry="0.28"/><ellipse class="cls-2" cx="80.5" cy="50.23" rx="0.48" ry="0.28"/><path class="cls-2" d="M706.62,131.38c.19.11.19.29,0,.39a.74.74,0,0,1-.68,0c-.19-.1-.19-.28,0-.39A.74.74,0,0,1,706.62,131.38Z" transform="translate(-624 -82.38)"/><ellipse class="cls-2" cx="84.06" cy="48.17" rx="0.48" ry="0.28"/><path class="cls-2" d="M710.19,129.32a.22.22,0,0,1,0,.4.76.76,0,0,1-.69,0,.22.22,0,0,1,0-.4A.83.83,0,0,1,710.19,129.32Z" transform="translate(-624 -82.38)"/><path class="cls-2" d="M712,128.3c.19.1.19.28,0,.39a.74.74,0,0,1-.68,0c-.19-.11-.19-.29,0-.39A.74.74,0,0,1,712,128.3Z" transform="translate(-624 -82.38)"/><ellipse class="cls-2" cx="89.41" cy="45.08" rx="0.48" ry="0.28"/><path class="cls-2" d="M715.53,126.24c.19.11.19.28,0,.39a.74.74,0,0,1-.68,0c-.19-.11-.19-.28,0-.39A.74.74,0,0,1,715.53,126.24Z" transform="translate(-624 -82.38)"/><path class="cls-2" d="M701.28,132.41c.19.11.19.28,0,.39a.74.74,0,0,1-.68,0c-.19-.11-.19-.28,0-.39A.74.74,0,0,1,701.28,132.41Z" transform="translate(-624 -82.38)"/><ellipse class="cls-2" cx="78.72" cy="49.2" rx="0.48" ry="0.28"/><ellipse class="cls-2" cx="80.5" cy="48.17" rx="0.48" ry="0.28"/><path class="cls-2" d="M706.62,129.32a.21.21,0,0,1,0,.4.74.74,0,0,1-.68,0,.21.21,0,0,1,0-.4A.81.81,0,0,1,706.62,129.32Z" transform="translate(-624 -82.38)"/><path class="cls-2" d="M708.4,128.3c.19.1.19.28,0,.39a.74.74,0,0,1-.68,0,.21.21,0,0,1,0-.39A.74.74,0,0,1,708.4,128.3Z" transform="translate(-624 -82.38)"/><path class="cls-2" d="M710.19,127.27a.21.21,0,0,1,0,.39.76.76,0,0,1-.69,0,.21.21,0,0,1,0-.39A.76.76,0,0,1,710.19,127.27Z" transform="translate(-624 -82.38)"/><path class="cls-2" d="M712,126.24c.19.11.19.28,0,.39a.74.74,0,0,1-.68,0c-.19-.11-.19-.28,0-.39A.74.74,0,0,1,712,126.24Z" transform="translate(-624 -82.38)"/><path class="cls-2" d="M699.5,131.38c.19.11.19.29,0,.39a.74.74,0,0,1-.68,0c-.19-.1-.19-.28,0-.39A.74.74,0,0,1,699.5,131.38Z" transform="translate(-624 -82.38)"/><path class="cls-2" d="M701.28,130.35a.21.21,0,0,1,0,.4.74.74,0,0,1-.68,0,.21.21,0,0,1,0-.4A.74.74,0,0,1,701.28,130.35Z" transform="translate(-624 -82.38)"/><ellipse class="cls-2" cx="78.72" cy="47.14" rx="0.48" ry="0.28"/><ellipse class="cls-2" cx="80.5" cy="46.11" rx="0.48" ry="0.28"/><path class="cls-2" d="M706.62,127.27c.19.11.19.28,0,.39a.74.74,0,0,1-.68,0c-.19-.11-.19-.28,0-.39A.74.74,0,0,1,706.62,127.27Z" transform="translate(-624 -82.38)"/><path class="cls-2" d="M708.4,126.24c.19.11.19.28,0,.39a.74.74,0,0,1-.68,0,.21.21,0,0,1,0-.39A.74.74,0,0,1,708.4,126.24Z" transform="translate(-624 -82.38)"/><ellipse class="cls-2" cx="66.25" cy="52.28" rx="0.48" ry="0.28"/><path class="cls-2" d="M692.37,133.44c.19.11.19.28,0,.39a.74.74,0,0,1-.68,0c-.19-.11-.19-.28,0-.39A.74.74,0,0,1,692.37,133.44Z" transform="translate(-624 -82.38)"/><ellipse class="cls-2" cx="69.81" cy="50.23" rx="0.48" ry="0.28"/><path class="cls-2" d="M695.94,131.38a.21.21,0,0,1,0,.39.74.74,0,0,1-.68,0c-.19-.1-.19-.28,0-.39A.74.74,0,0,1,695.94,131.38Z" transform="translate(-624 -82.38)"/><path class="cls-2" d="M697.72,130.35a.21.21,0,0,1,0,.4.74.74,0,0,1-.68,0,.21.21,0,0,1,0-.4A.74.74,0,0,1,697.72,130.35Z" transform="translate(-624 -82.38)"/><path class="cls-2" d="M699.5,129.32a.21.21,0,0,1,0,.4.74.74,0,0,1-.68,0,.21.21,0,0,1,0-.4A.81.81,0,0,1,699.5,129.32Z" transform="translate(-624 -82.38)"/><path class="cls-2" d="M701.28,128.3c.19.1.19.28,0,.39a.74.74,0,0,1-.68,0c-.19-.11-.19-.29,0-.39A.74.74,0,0,1,701.28,128.3Z" transform="translate(-624 -82.38)"/><ellipse class="cls-2" cx="78.72" cy="45.08" rx="0.48" ry="0.28"/><path class="cls-2" d="M704.84,126.24c.19.11.19.28,0,.39a.74.74,0,0,1-.68,0c-.19-.11-.19-.28,0-.39A.74.74,0,0,1,704.84,126.24Z" transform="translate(-624 -82.38)"/><ellipse class="cls-2" cx="62.69" cy="52.28" rx="0.48" ry="0.28"/><ellipse class="cls-2" cx="64.47" cy="51.26" rx="0.48" ry="0.28"/><path class="cls-2" d="M690.59,132.41c.19.11.19.28,0,.39a.74.74,0,0,1-.68,0c-.19-.11-.19-.28,0-.39A.74.74,0,0,1,690.59,132.41Z" transform="translate(-624 -82.38)"/><path class="cls-2" d="M692.37,131.38a.21.21,0,0,1,0,.4.81.81,0,0,1-.68,0,.21.21,0,0,1,0-.4A.74.74,0,0,1,692.37,131.38Z" transform="translate(-624 -82.38)"/><path class="cls-2" d="M694.16,130.35a.22.22,0,0,1,0,.4.76.76,0,0,1-.69,0,.22.22,0,0,1,0-.4A.76.76,0,0,1,694.16,130.35Z" transform="translate(-624 -82.38)"/><ellipse class="cls-2" cx="71.6" cy="47.14" rx="0.48" ry="0.28"/><path class="cls-2" d="M697.72,128.3c.19.11.19.28,0,.39a.74.74,0,0,1-.68,0c-.19-.11-.19-.28,0-.39A.74.74,0,0,1,697.72,128.3Z" transform="translate(-624 -82.38)"/><ellipse class="cls-2" cx="75.16" cy="45.08" rx="0.48" ry="0.28"/><path class="cls-2" d="M701.28,126.24c.19.11.19.28,0,.39a.74.74,0,0,1-.68,0c-.19-.11-.19-.28,0-.39A.74.74,0,0,1,701.28,126.24Z" transform="translate(-624 -82.38)"/><path class="cls-2" d="M703.06,125.21c.19.11.19.29,0,.39a.74.74,0,0,1-.68,0c-.19-.1-.19-.28,0-.39A.74.74,0,0,1,703.06,125.21Z" transform="translate(-624 -82.38)"/><path class="cls-2" d="M685.25,133.44c.19.11.19.28,0,.39a.74.74,0,0,1-.68,0c-.19-.11-.19-.28,0-.39A.74.74,0,0,1,685.25,133.44Z" transform="translate(-624 -82.38)"/><path class="cls-2" d="M687,132.41c.19.11.19.28,0,.39a.74.74,0,0,1-.68,0c-.19-.11-.19-.28,0-.39A.74.74,0,0,1,687,132.41Z" transform="translate(-624 -82.38)"/><path class="cls-2" d="M688.81,131.38a.21.21,0,0,1,0,.4.81.81,0,0,1-.68,0,.21.21,0,0,1,0-.4A.74.74,0,0,1,688.81,131.38Z" transform="translate(-624 -82.38)"/><ellipse class="cls-2" cx="66.25" cy="48.17" rx="0.48" ry="0.28"/><path class="cls-2" d="M692.37,129.32a.21.21,0,0,1,0,.4.74.74,0,0,1-.68,0,.21.21,0,0,1,0-.4A.81.81,0,0,1,692.37,129.32Z" transform="translate(-624 -82.38)"/><path class="cls-2" d="M694.16,128.3a.21.21,0,0,1,0,.39.76.76,0,0,1-.69,0,.21.21,0,0,1,0-.39A.76.76,0,0,1,694.16,128.3Z" transform="translate(-624 -82.38)"/><ellipse class="cls-2" cx="71.6" cy="45.08" rx="0.48" ry="0.28"/><path class="cls-2" d="M697.72,126.24c.19.11.19.28,0,.39a.74.74,0,0,1-.68,0c-.19-.11-.19-.28,0-.39A.74.74,0,0,1,697.72,126.24Z" transform="translate(-624 -82.38)"/><path class="cls-2" d="M699.5,125.21c.19.11.19.29,0,.39a.74.74,0,0,1-.68,0c-.19-.1-.19-.28,0-.39A.74.74,0,0,1,699.5,125.21Z" transform="translate(-624 -82.38)"/><path class="cls-2" d="M701.28,124.58a.81.81,0,0,1-.68,0,.21.21,0,0,1,0-.4C700.79,124.07,701.47,124.47,701.28,124.58Z" transform="translate(-624 -82.38)"/><path class="cls-2" d="M683.47,132.41c.19.11.19.28,0,.39a.74.74,0,0,1-.68,0c-.19-.11-.19-.28,0-.39A.74.74,0,0,1,683.47,132.41Z" transform="translate(-624 -82.38)"/><path class="cls-2" d="M685.25,131.38a.21.21,0,0,1,0,.4.81.81,0,0,1-.68,0,.21.21,0,0,1,0-.4A.74.74,0,0,1,685.25,131.38Z" transform="translate(-624 -82.38)"/><path class="cls-2" d="M687,130.35a.21.21,0,0,1,0,.4.74.74,0,0,1-.68,0,.21.21,0,0,1,0-.4A.74.74,0,0,1,687,130.35Z" transform="translate(-624 -82.38)"/><path class="cls-2" d="M688.81,129.32a.21.21,0,0,1,0,.4.74.74,0,0,1-.68,0,.21.21,0,0,1,0-.4A.81.81,0,0,1,688.81,129.32Z" transform="translate(-624 -82.38)"/><path class="cls-2" d="M690.59,128.3c.19.11.19.28,0,.39a.74.74,0,0,1-.68,0c-.19-.11-.19-.28,0-.39A.74.74,0,0,1,690.59,128.3Z" transform="translate(-624 -82.38)"/><ellipse class="cls-2" cx="68.03" cy="45.08" rx="0.48" ry="0.28"/><path class="cls-2" d="M694.16,126.24a.21.21,0,0,1,0,.39.76.76,0,0,1-.69,0,.21.21,0,0,1,0-.39A.76.76,0,0,1,694.16,126.24Z" transform="translate(-624 -82.38)"/><path class="cls-2" d="M695.94,125.21a.21.21,0,0,1,0,.39.74.74,0,0,1-.68,0c-.19-.1-.19-.28,0-.39A.74.74,0,0,1,695.94,125.21Z" transform="translate(-624 -82.38)"/><path class="cls-2" d="M697,124.18a.74.74,0,0,1,.68,0,.21.21,0,0,1,0,.4.81.81,0,0,1-.68,0,.21.21,0,0,1,0-.4Z" transform="translate(-624 -82.38)"/><path class="cls-2" d="M681.69,131.38a.22.22,0,0,1,0,.4.81.81,0,0,1-.68,0,.21.21,0,0,1,0-.4A.74.74,0,0,1,681.69,131.38Z" transform="translate(-624 -82.38)"/><path class="cls-2" d="M683.47,130.35a.21.21,0,0,1,0,.4.74.74,0,0,1-.68,0,.21.21,0,0,1,0-.4A.74.74,0,0,1,683.47,130.35Z" transform="translate(-624 -82.38)"/><ellipse class="cls-2" cx="60.91" cy="47.14" rx="0.48" ry="0.28"/><ellipse class="cls-2" cx="55.55" cy="48.16" rx="0.48" ry="0.28"/><path class="cls-2" d="M681.67,129.31a.21.21,0,0,1,0,.4.74.74,0,0,1-.68,0,.21.21,0,0,1,0-.4A.81.81,0,0,1,681.67,129.31Z" transform="translate(-624 -82.38)"/><path class="cls-2" d="M683.45,128.29c.19.1.19.28,0,.39a.74.74,0,0,1-.68,0c-.19-.11-.19-.29,0-.39A.74.74,0,0,1,683.45,128.29Z" transform="translate(-624 -82.38)"/><path class="cls-2" d="M678.11,129.31a.21.21,0,0,1,0,.4.74.74,0,0,1-.68,0,.21.21,0,0,1,0-.4A.81.81,0,0,1,678.11,129.31Z" transform="translate(-624 -82.38)"/><path class="cls-2" d="M679.89,128.29c.19.1.19.28,0,.39a.74.74,0,0,1-.68,0c-.19-.11-.19-.29,0-.39A.74.74,0,0,1,679.89,128.29Z" transform="translate(-624 -82.38)"/><path class="cls-2" d="M681.67,127.26c.19.11.19.28,0,.39a.74.74,0,0,1-.68,0c-.19-.11-.19-.28,0-.39A.74.74,0,0,1,681.67,127.26Z" transform="translate(-624 -82.38)"/><path class="cls-2" d="M678.11,127.26c.19.11.19.28,0,.39a.74.74,0,0,1-.68,0c-.19-.11-.19-.28,0-.39A.74.74,0,0,1,678.11,127.26Z" transform="translate(-624 -82.38)"/><path class="cls-2" d="M679.89,126.23c.19.11.19.28,0,.39a.74.74,0,0,1-.68,0c-.19-.11-.19-.28,0-.39A.74.74,0,0,1,679.89,126.23Z" transform="translate(-624 -82.38)"/><path class="cls-2" d="M678.11,125.2c.19.11.19.29,0,.39a.74.74,0,0,1-.68,0c-.19-.1-.19-.28,0-.39A.74.74,0,0,1,678.11,125.2Z" transform="translate(-624 -82.38)"/><path class="cls-2" d="M722,128.32a.74.74,0,0,1,.68,0c.19.11.19.29,0,.39a.77.77,0,0,1-.68,0A.21.21,0,0,1,722,128.32Z" transform="translate(-624 -82.38)"/><path class="cls-2" d="M724.46,127.29a.22.22,0,0,1,0,.4.81.81,0,0,1-.68,0,.21.21,0,0,1,0-.4A.74.74,0,0,1,724.46,127.29Z" transform="translate(-624 -82.38)"/><path class="cls-2" d="M726.24,126.26a.21.21,0,0,1,0,.4.74.74,0,0,1-.68,0,.21.21,0,0,1,0-.4A.81.81,0,0,1,726.24,126.26Z" transform="translate(-624 -82.38)"/><path class="cls-2" d="M720.21,127.29a.74.74,0,0,1,.68,0,.21.21,0,0,1,0,.4.77.77,0,0,1-.68,0A.21.21,0,0,1,720.21,127.29Z" transform="translate(-624 -82.38)"/><path class="cls-2" d="M722.68,126.26a.22.22,0,0,1,0,.4.76.76,0,0,1-.69,0,.22.22,0,0,1,0-.4A.83.83,0,0,1,722.68,126.26Z" transform="translate(-624 -82.38)"/><path class="cls-2" d="M724.46,125.24a.21.21,0,0,1,0,.39.74.74,0,0,1-.68,0c-.19-.11-.19-.29,0-.39A.74.74,0,0,1,724.46,125.24Z" transform="translate(-624 -82.38)"/><path class="cls-2" d="M726.24,124.21c.19.11.19.28,0,.39a.74.74,0,0,1-.68,0c-.19-.11-.19-.28,0-.39A.74.74,0,0,1,726.24,124.21Z" transform="translate(-624 -82.38)"/><path class="cls-2" d="M718.43,126.27a.77.77,0,0,1,.68,0,.21.21,0,0,1,0,.4.74.74,0,0,1-.68,0C718.24,126.55,718.24,126.37,718.43,126.27Z" transform="translate(-624 -82.38)"/><ellipse class="cls-2" cx="96.55" cy="43.05" rx="0.48" ry="0.28"/><ellipse class="cls-2" cx="98.34" cy="42.02" rx="0.48" ry="0.28"/><path class="cls-2" d="M724.46,123.18a.21.21,0,0,1,0,.39.74.74,0,0,1-.68,0c-.19-.11-.19-.28,0-.39A.74.74,0,0,1,724.46,123.18Z" transform="translate(-624 -82.38)"/><path class="cls-2" d="M716.63,125.23a.74.74,0,0,1,.68,0,.21.21,0,0,1,0,.39.76.76,0,0,1-.69,0,.21.21,0,0,1,0-.39Z" transform="translate(-624 -82.38)"/><path class="cls-2" d="M719.1,124.2c.19.1.19.28,0,.39a.74.74,0,0,1-.68,0c-.19-.11-.19-.29,0-.39A.74.74,0,0,1,719.1,124.2Z" transform="translate(-624 -82.38)"/><ellipse class="cls-2" cx="96.54" cy="40.98" rx="0.48" ry="0.28"/><ellipse class="cls-2" cx="98.32" cy="39.96" rx="0.48" ry="0.28"/><polygon class="cls-3" points="54.63 32.38 54.63 42.07 62.23 46.46 62.23 36.77 54.63 32.38"/><path class="cls-3" d="M716.09,113.61l-8.51,1.88L697,113.85l-1.44-.08v9.69l2.13,1.23a21.68,21.68,0,0,0,10.47,3.07,18.83,18.83,0,0,0,10.05-2.59c2.55-1.47,3.86-3,4-4.74h0v-9.71Z" transform="translate(-624 -82.38)"/><path class="cls-2" d="M708.6,128.14h-.45A22.18,22.18,0,0,1,697.51,125l-2.33-1.34v-10.3l1.84.1,10.55,1.64,8.4-1.86,6.58-3.12,0,10.56c-.2,1.73-1.59,3.34-4.12,4.8A19.36,19.36,0,0,1,708.6,128.14Zm-12.67-4.9,2,1.12a21.43,21.43,0,0,0,10.28,3,18.67,18.67,0,0,0,9.87-2.55c2.41-1.39,3.68-2.88,3.77-4.43v-9.1L716.17,114l-8.58,1.89-10.65-1.65-1-.06Z" transform="translate(-624 -82.38)"/><path class="cls-3" d="M718.21,115.48a18.83,18.83,0,0,1-10.05,2.59A21.68,21.68,0,0,1,697.69,115l-2.13-1.23-9.33,5.38-7.6-4.38,28.12-16.24,9.73,5.62q5.34,3.07,5.68,6T718.21,115.48Zm-16.46-5.29,1.39.8a7.47,7.47,0,0,0,3.68,1,7.1,7.1,0,0,0,3.66-1c1.9-1.1,1.8-2.25-.3-3.47l-2-1.13Z" transform="translate(-624 -82.38)"/><path class="cls-4" d="M718.4,117.69a18.94,18.94,0,0,1-10.06,2.6,21.69,21.69,0,0,1-10.46-3.08L695.75,116l-9.33,5.38-7.6-4.38,28.12-16.24,9.73,5.62q5.33,3.08,5.67,6C722.58,114.25,721.26,116,718.4,117.69Zm-16.46-5.29,1.38.8a7.5,7.5,0,0,0,3.69,1,7,7,0,0,0,3.66-1c1.9-1.1,1.8-2.25-.31-3.47l-2-1.13Z" transform="translate(-624 -82.38)"/><path class="cls-2" d="M710.36,107.27,708.21,106,701,110.19l2,1.12a7.84,7.84,0,0,0,3.86,1.07h.12a7.33,7.33,0,0,0,3.74-1c1-.6,1.54-1.23,1.54-1.92S711.6,108,710.36,107.27Z" transform="translate(-624 -82.38)"/><path class="cls-2" d="M722.53,110.07c-.25-2.07-2.17-4.11-5.86-6.24l-9.92-5.73-28.12,16.23-.37.22v10.12l7.59,4.39.38.21.37-.21,9.33-5.39v-9.25l1.58.9a22.07,22.07,0,0,0,10.64,3.13,19.39,19.39,0,0,0,10.25-2.65C721.39,114.08,722.78,112.15,722.53,110.07ZM679,124.24v-8.83l6.84,4v8.82Zm7.59,4v-8.82l8.58-5v8.82Zm31.43-13a18.76,18.76,0,0,1-9.87,2.55,21.43,21.43,0,0,1-10.28-3l-2-1.12-.37-.22h0l-9.33,5.39-6.85-4L706.75,99l9.55,5.51c3.42,2,5.27,3.9,5.49,5.69S720.73,113.59,718,115.15Z" transform="translate(-624 -82.38)"/><polygon class="cls-2" points="81.79 35.46 81.79 45.19 87.25 45.39 93.83 43.13 97.64 40.43 98.12 37.26 98.56 29.07 95.26 32.89 91.62 34.76 86.79 35.76 81.79 35.46"/><polygon class="cls-2" points="71.56 31.39 71.56 41.08 62.23 46.46 62.23 36.77 71.56 31.39"/></g><g id="L"><path class="cls-2" d="M754.24,145.07c.19.11.19.28,0,.39a.74.74,0,0,1-.68,0c-.19-.11-.19-.28,0-.39A.74.74,0,0,1,754.24,145.07Z" transform="translate(-624 -82.38)"/><ellipse class="cls-2" cx="131.68" cy="61.85" rx="0.48" ry="0.28"/><path class="cls-2" d="M757.8,143c.19.11.19.28,0,.39a.74.74,0,0,1-.68,0,.21.21,0,0,1,0-.39A.74.74,0,0,1,757.8,143Z" transform="translate(-624 -82.38)"/><path class="cls-2" d="M759.59,142a.21.21,0,0,1,0,.39.76.76,0,0,1-.69,0,.21.21,0,0,1,0-.39A.76.76,0,0,1,759.59,142Z" transform="translate(-624 -82.38)"/><path class="cls-2" d="M752.46,144c.19.11.19.28,0,.39a.74.74,0,0,1-.68,0c-.19-.11-.19-.28,0-.39A.74.74,0,0,1,752.46,144Z" transform="translate(-624 -82.38)"/><ellipse class="cls-2" cx="129.9" cy="60.83" rx="0.48" ry="0.28"/><path class="cls-2" d="M756,142c.19.11.19.29,0,.39a.74.74,0,0,1-.68,0c-.19-.1-.19-.28,0-.39A.74.74,0,0,1,756,142Z" transform="translate(-624 -82.38)"/><path class="cls-2" d="M750.68,143c.19.11.19.28,0,.39a.74.74,0,0,1-.68,0c-.19-.11-.19-.28,0-.39A.74.74,0,0,1,750.68,143Z" transform="translate(-624 -82.38)"/><ellipse class="cls-2" cx="128.12" cy="59.8" rx="0.48" ry="0.28"/><ellipse class="cls-2" cx="129.9" cy="58.77" rx="0.48" ry="0.28"/><ellipse class="cls-2" cx="124.56" cy="59.8" rx="0.48" ry="0.28"/><ellipse class="cls-2" cx="126.34" cy="58.77" rx="0.48" ry="0.28"/><ellipse class="cls-2" cx="128.12" cy="57.74" rx="0.48" ry="0.28"/><path class="cls-2" d="M747.12,141a.21.21,0,0,1,0,.4.81.81,0,0,1-.68,0,.21.21,0,0,1,0-.4A.74.74,0,0,1,747.12,141Z" transform="translate(-624 -82.38)"/><path class="cls-2" d="M748.9,139.92a.21.21,0,0,1,0,.4.74.74,0,0,1-.68,0,.21.21,0,0,1,0-.4A.81.81,0,0,1,748.9,139.92Z" transform="translate(-624 -82.38)"/><path class="cls-2" d="M750.68,138.9c.19.1.19.28,0,.39a.74.74,0,0,1-.68,0c-.19-.11-.19-.29,0-.39A.74.74,0,0,1,750.68,138.9Z" transform="translate(-624 -82.38)"/><ellipse class="cls-2" cx="120.98" cy="57.73" rx="0.48" ry="0.28"/><ellipse class="cls-2" cx="122.76" cy="56.7" rx="0.48" ry="0.28"/><path class="cls-2" d="M748.88,137.86c.19.11.19.28,0,.39a.74.74,0,0,1-.68,0c-.19-.11-.19-.28,0-.39A.74.74,0,0,1,748.88,137.86Z" transform="translate(-624 -82.38)"/><path class="cls-2" d="M743.54,138.89c.19.1.19.28,0,.39a.74.74,0,0,1-.68,0c-.19-.11-.19-.29,0-.39A.74.74,0,0,1,743.54,138.89Z" transform="translate(-624 -82.38)"/><path class="cls-2" d="M745.32,137.86c.19.11.19.28,0,.39a.74.74,0,0,1-.68,0c-.19-.11-.19-.28,0-.39A.74.74,0,0,1,745.32,137.86Z" transform="translate(-624 -82.38)"/><ellipse class="cls-2" cx="122.76" cy="54.65" rx="0.48" ry="0.28"/><ellipse class="cls-2" cx="117.42" cy="55.67" rx="0.48" ry="0.28"/><path class="cls-2" d="M743.54,136.83c.19.11.19.28,0,.39a.74.74,0,0,1-.68,0c-.19-.11-.19-.28,0-.39A.74.74,0,0,1,743.54,136.83Z" transform="translate(-624 -82.38)"/><path class="cls-2" d="M745.32,135.8c.19.11.19.28,0,.39a.74.74,0,0,1-.68,0c-.19-.11-.19-.28,0-.39A.74.74,0,0,1,745.32,135.8Z" transform="translate(-624 -82.38)"/><path class="cls-2" d="M740,136.83c.19.11.19.28,0,.39a.74.74,0,0,1-.68,0c-.19-.11-.19-.28,0-.39A.74.74,0,0,1,740,136.83Z" transform="translate(-624 -82.38)"/><path class="cls-2" d="M741.76,135.8c.19.11.19.28,0,.39a.74.74,0,0,1-.68,0c-.19-.11-.19-.28,0-.39A.74.74,0,0,1,741.76,135.8Z" transform="translate(-624 -82.38)"/><path class="cls-2" d="M743.54,134.77a.21.21,0,0,1,0,.4.81.81,0,0,1-.68,0,.21.21,0,0,1,0-.4A.74.74,0,0,1,743.54,134.77Z" transform="translate(-624 -82.38)"/><path class="cls-2" d="M738.2,135.8a.21.21,0,0,1,0,.39.76.76,0,0,1-.69,0,.21.21,0,0,1,0-.39A.76.76,0,0,1,738.2,135.8Z" transform="translate(-624 -82.38)"/><path class="cls-2" d="M740,134.77a.21.21,0,0,1,0,.4.81.81,0,0,1-.68,0,.21.21,0,0,1,0-.4A.74.74,0,0,1,740,134.77Z" transform="translate(-624 -82.38)"/><path class="cls-2" d="M741.76,133.74a.21.21,0,0,1,0,.4.74.74,0,0,1-.68,0,.21.21,0,0,1,0-.4A.74.74,0,0,1,741.76,133.74Z" transform="translate(-624 -82.38)"/><path class="cls-2" d="M736.41,134.77a.21.21,0,0,1,0,.4.81.81,0,0,1-.68,0,.22.22,0,0,1,0-.4A.74.74,0,0,1,736.41,134.77Z" transform="translate(-624 -82.38)"/><ellipse class="cls-2" cx="113.86" cy="51.56" rx="0.48" ry="0.28"/><path class="cls-2" d="M740,132.71a.21.21,0,0,1,0,.4.74.74,0,0,1-.68,0,.21.21,0,0,1,0-.4A.81.81,0,0,1,740,132.71Z" transform="translate(-624 -82.38)"/><path class="cls-2" d="M736.41,132.71a.21.21,0,0,1,0,.4.74.74,0,0,1-.68,0,.22.22,0,0,1,0-.4A.81.81,0,0,1,736.41,132.71Z" transform="translate(-624 -82.38)"/><path class="cls-2" d="M738.2,131.69a.21.21,0,0,1,0,.39.76.76,0,0,1-.69,0,.21.21,0,0,1,0-.39A.76.76,0,0,1,738.2,131.69Z" transform="translate(-624 -82.38)"/><path class="cls-2" d="M740,131.05a.74.74,0,0,1-.68,0c-.19-.11-.19-.28,0-.39S740.17,130.94,740,131.05Z" transform="translate(-624 -82.38)"/><path class="cls-2" d="M736.41,130.66c.19.11.19.28,0,.39a.74.74,0,0,1-.68,0,.21.21,0,0,1,0-.39A.74.74,0,0,1,736.41,130.66Z" transform="translate(-624 -82.38)"/><ellipse class="cls-2" cx="137.1" cy="64.78" rx="0.48" ry="0.28"/><path class="cls-2" d="M763.22,145.93c.19.11.19.28,0,.39a.74.74,0,0,1-.68,0c-.19-.11-.19-.28,0-.39A.74.74,0,0,1,763.22,145.93Z" transform="translate(-624 -82.38)"/><ellipse class="cls-2" cx="140.66" cy="62.72" rx="0.48" ry="0.28"/><ellipse class="cls-2" cx="133.53" cy="64.78" rx="0.48" ry="0.28"/><path class="cls-2" d="M759.66,145.93a.21.21,0,0,1,0,.39.76.76,0,0,1-.69,0,.21.21,0,0,1,0-.39A.76.76,0,0,1,759.66,145.93Z" transform="translate(-624 -82.38)"/><path class="cls-2" d="M761.44,144.9a.21.21,0,0,1,0,.4.81.81,0,0,1-.68,0,.21.21,0,0,1,0-.4A.74.74,0,0,1,761.44,144.9Z" transform="translate(-624 -82.38)"/><path class="cls-2" d="M763.22,143.87a.21.21,0,0,1,0,.4.74.74,0,0,1-.68,0,.21.21,0,0,1,0-.4A.74.74,0,0,1,763.22,143.87Z" transform="translate(-624 -82.38)"/><path class="cls-2" d="M756.09,145.93c.19.11.19.28,0,.39a.74.74,0,0,1-.68,0c-.19-.11-.19-.28,0-.39A.74.74,0,0,1,756.09,145.93Z" transform="translate(-624 -82.38)"/><ellipse class="cls-2" cx="133.53" cy="62.72" rx="0.48" ry="0.28"/><ellipse class="cls-2" cx="135.32" cy="61.69" rx="0.48" ry="0.28"/><ellipse class="cls-2" cx="137.1" cy="60.66" rx="0.48" ry="0.28"/><path class="cls-2" d="M761.38,141c.19.11.19.29,0,.39a.74.74,0,0,1-.68,0c-.19-.1-.19-.28,0-.39A.74.74,0,0,1,761.38,141Z" transform="translate(-624 -82.38)"/><path class="cls-2" d="M763.16,139.93a.21.21,0,0,1,0,.4.74.74,0,0,1-.68,0,.21.21,0,0,1,0-.4A.74.74,0,0,1,763.16,139.93Z" transform="translate(-624 -82.38)"/><ellipse class="cls-2" cx="140.6" cy="56.72" rx="0.48" ry="0.28"/><path class="cls-2" d="M766.73,137.88a.21.21,0,0,1,0,.39.76.76,0,0,1-.69,0,.21.21,0,0,1,0-.39A.76.76,0,0,1,766.73,137.88Z" transform="translate(-624 -82.38)"/><ellipse class="cls-2" cx="144.17" cy="54.66" rx="0.48" ry="0.28"/><path class="cls-2" d="M759.6,139.93a.21.21,0,0,1,0,.4.74.74,0,0,1-.68,0C758.73,140.22,759.41,139.83,759.6,139.93Z" transform="translate(-624 -82.38)"/><path class="cls-2" d="M761.38,138.9a.21.21,0,0,1,0,.4.74.74,0,0,1-.68,0C760.51,139.19,761.19,138.8,761.38,138.9Z" transform="translate(-624 -82.38)"/><path class="cls-2" d="M764.94,136.85c.19.11.19.28,0,.39a.74.74,0,0,1-.68,0C764.07,137.13,764.76,136.74,764.94,136.85Z" transform="translate(-624 -82.38)"/><path class="cls-2" d="M766,135.82a.76.76,0,0,1,.69,0,.21.21,0,0,1,0,.39.76.76,0,0,1-.69,0,.21.21,0,0,1,0-.39Z" transform="translate(-624 -82.38)"/><path class="cls-2" d="M766.11,143.88a.74.74,0,0,1,.68,0,.21.21,0,0,1,0,.4.77.77,0,0,1-.68,0A.21.21,0,0,1,766.11,143.88Z" transform="translate(-624 -82.38)"/><path class="cls-2" d="M768.58,142.85a.22.22,0,0,1,0,.4.76.76,0,0,1-.69,0,.22.22,0,0,1,0-.4A.83.83,0,0,1,768.58,142.85Z" transform="translate(-624 -82.38)"/><path class="cls-2" d="M770.36,141.83c.19.1.19.28,0,.39a.74.74,0,0,1-.68,0c-.19-.11-.19-.29,0-.39A.74.74,0,0,1,770.36,141.83Z" transform="translate(-624 -82.38)"/><ellipse class="cls-2" cx="147.8" cy="58.61" rx="0.48" ry="0.28"/><path class="cls-2" d="M764.33,142.86a.77.77,0,0,1,.68,0,.21.21,0,0,1,0,.4.74.74,0,0,1-.68,0C764.14,143.14,764.14,143,764.33,142.86Z" transform="translate(-624 -82.38)"/><ellipse class="cls-2" cx="142.45" cy="59.64" rx="0.48" ry="0.28"/><path class="cls-2" d="M768.58,140.8a.21.21,0,0,1,0,.39.76.76,0,0,1-.69,0,.21.21,0,0,1,0-.39A.76.76,0,0,1,768.58,140.8Z" transform="translate(-624 -82.38)"/><path class="cls-2" d="M770.36,139.77c.19.11.19.28,0,.39a.74.74,0,0,1-.68,0c-.19-.11-.19-.28,0-.39A.74.74,0,0,1,770.36,139.77Z" transform="translate(-624 -82.38)"/><path class="cls-2" d="M772.14,138.74c.19.11.19.28,0,.39a.74.74,0,0,1-.68,0c-.19-.11-.19-.28,0-.39A.74.74,0,0,1,772.14,138.74Z" transform="translate(-624 -82.38)"/><path class="cls-2" d="M762.55,141.83a.74.74,0,0,1,.68,0c.19.1.19.28,0,.39a.74.74,0,0,1-.68,0C762.36,142.11,762.36,141.94,762.55,141.83Z" transform="translate(-624 -82.38)"/><path class="cls-2" d="M765,140.8c.19.11.19.28,0,.39a.74.74,0,0,1-.68,0c-.19-.11-.19-.28,0-.39A.74.74,0,0,1,765,140.8Z" transform="translate(-624 -82.38)"/><path class="cls-2" d="M766.8,139.77a.21.21,0,0,1,0,.39.76.76,0,0,1-.69,0,.21.21,0,0,1,0-.39A.76.76,0,0,1,766.8,139.77Z" transform="translate(-624 -82.38)"/><path class="cls-2" d="M768.58,138.74a.21.21,0,0,1,0,.39.76.76,0,0,1-.69,0,.21.21,0,0,1,0-.39A.76.76,0,0,1,768.58,138.74Z" transform="translate(-624 -82.38)"/><path class="cls-2" d="M770.36,137.71a.21.21,0,0,1,0,.4.81.81,0,0,1-.68,0,.21.21,0,0,1,0-.4A.74.74,0,0,1,770.36,137.71Z" transform="translate(-624 -82.38)"/><path class="cls-3" d="M736.16,129.08V91.53l8.78,5.08V126l12.53,7.23v8.2Z" transform="translate(-624 -82.38)"/><polygon class="cls-3" points="112.16 9.15 121.67 3.66 130.45 8.73 120.94 14.22 112.16 9.15"/><polygon class="cls-3" points="130.45 38.09 142.98 45.32 133.47 50.81 120.94 43.58 130.45 38.09"/><polygon class="cls-4" points="112.16 12.09 121.67 6.6 130.45 11.67 120.94 17.16 112.16 12.09"/><polygon class="cls-4" points="130.45 41.03 142.98 48.26 133.47 53.75 120.94 46.52 130.45 41.03"/><path class="cls-2" d="M767,127.27l-12.15-7V90.9l-.38-.22-8.78-5.07-9.51,5.49-.38.22v38l21.31,12.3.38.22.37-.22,9.51-5.49v-8.63Zm-21.31-40.8,8,4.64-8.76,5.06-8-4.64Zm11.42,54.27-20.56-11.87V92.18l8,4.64v29.36l.37.22,12.15,7ZM745.69,126l8.76-5.06,11.78,6.8-8.76,5.06Z" transform="translate(-624 -82.38)"/></g><g id="A"><path class="cls-2" d="M790.68,134.86a.21.21,0,0,1,0,.39.74.74,0,0,1-.68,0c-.19-.1-.19-.28,0-.39A.74.74,0,0,1,790.68,134.86Z" transform="translate(-624 -82.38)"/><ellipse class="cls-2" cx="168.12" cy="51.65" rx="0.48" ry="0.28"/><path class="cls-2" d="M794.24,132.8a.21.21,0,0,1,0,.4.74.74,0,0,1-.68,0,.21.21,0,0,1,0-.4A.81.81,0,0,1,794.24,132.8Z" transform="translate(-624 -82.38)"/><path class="cls-2" d="M796,131.78c.19.1.19.28,0,.39a.74.74,0,0,1-.68,0c-.19-.11-.19-.29,0-.39A.74.74,0,0,1,796,131.78Z" transform="translate(-624 -82.38)"/><path class="cls-2" d="M797.8,130.75c.19.11.19.28,0,.39a.74.74,0,0,1-.68,0c-.19-.11-.19-.28,0-.39a.74.74,0,0,1,.68,0Z" transform="translate(-624 -82.38)"/><ellipse class="cls-2" cx="184.15" cy="42.39" rx="0.48" ry="0.28"/><ellipse class="cls-2" cx="185.93" cy="41.37" rx="0.48" ry="0.28"/><path class="cls-2" d="M812.05,122.52c.19.11.19.29,0,.39a.74.74,0,0,1-.68,0c-.19-.1-.19-.28,0-.39A.74.74,0,0,1,812.05,122.52Z" transform="translate(-624 -82.38)"/><path class="cls-2" d="M813.83,121.49a.21.21,0,0,1,0,.4.81.81,0,0,1-.68,0,.21.21,0,0,1,0-.4A.74.74,0,0,1,813.83,121.49Z" transform="translate(-624 -82.38)"/><path class="cls-2" d="M788.9,133.83a.22.22,0,0,1,0,.4.83.83,0,0,1-.69,0,.22.22,0,0,1,0-.4A.76.76,0,0,1,788.9,133.83Z" transform="translate(-624 -82.38)"/><ellipse class="cls-2" cx="166.34" cy="50.62" rx="0.48" ry="0.28"/><ellipse class="cls-2" cx="168.12" cy="49.59" rx="0.48" ry="0.28"/><ellipse class="cls-2" cx="169.9" cy="48.56" rx="0.48" ry="0.28"/><ellipse class="cls-2" cx="171.68" cy="47.54" rx="0.48" ry="0.28"/><path class="cls-2" d="M808.49,122.52c.19.11.19.29,0,.39a.74.74,0,0,1-.68,0c-.19-.1-.19-.28,0-.39A.74.74,0,0,1,808.49,122.52Z" transform="translate(-624 -82.38)"/><path class="cls-2" d="M810.27,121.49a.21.21,0,0,1,0,.4.81.81,0,0,1-.68,0,.21.21,0,0,1,0-.4A.74.74,0,0,1,810.27,121.49Z" transform="translate(-624 -82.38)"/><path class="cls-2" d="M812.05,120.46a.21.21,0,0,1,0,.4.74.74,0,0,1-.68,0,.21.21,0,0,1,0-.4A.81.81,0,0,1,812.05,120.46Z" transform="translate(-624 -82.38)"/><ellipse class="cls-2" cx="164.55" cy="49.59" rx="0.48" ry="0.28"/><path class="cls-2" d="M790.68,130.75a.21.21,0,0,1,0,.39.74.74,0,0,1-.68,0c-.19-.11-.19-.28,0-.39A.74.74,0,0,1,790.68,130.75Z" transform="translate(-624 -82.38)"/><path class="cls-2" d="M792.46,129.72c.19.11.19.28,0,.39a.74.74,0,0,1-.68,0c-.19-.11-.19-.28,0-.39A.74.74,0,0,1,792.46,129.72Z" transform="translate(-624 -82.38)"/><path class="cls-2" d="M794.24,128.69c.19.11.19.29,0,.39a.74.74,0,0,1-.68,0c-.19-.1-.19-.28,0-.39A.74.74,0,0,1,794.24,128.69Z" transform="translate(-624 -82.38)"/><path class="cls-2" d="M808.49,120.46a.21.21,0,0,1,0,.4.74.74,0,0,1-.68,0C807.62,120.75,808.3,120.36,808.49,120.46Z" transform="translate(-624 -82.38)"/><path class="cls-2" d="M810.27,119.44c.19.1.19.28,0,.39a.74.74,0,0,1-.68,0C809.4,119.72,810.08,119.33,810.27,119.44Z" transform="translate(-624 -82.38)"/><path class="cls-2" d="M787.11,130.75c.19.11.19.28,0,.39a.74.74,0,0,1-.68,0c-.19-.11-.19-.28,0-.39A.74.74,0,0,1,787.11,130.75Z" transform="translate(-624 -82.38)"/><path class="cls-2" d="M788.9,129.72a.21.21,0,0,1,0,.39.76.76,0,0,1-.69,0,.21.21,0,0,1,0-.39A.76.76,0,0,1,788.9,129.72Z" transform="translate(-624 -82.38)"/><path class="cls-2" d="M790.68,128.69a.21.21,0,0,1,0,.39.74.74,0,0,1-.68,0c-.19-.1-.19-.28,0-.39A.74.74,0,0,1,790.68,128.69Z" transform="translate(-624 -82.38)"/><ellipse class="cls-2" cx="168.12" cy="45.48" rx="0.48" ry="0.28"/><path class="cls-2" d="M794.24,126.63a.21.21,0,0,1,0,.4.74.74,0,0,1-.68,0,.21.21,0,0,1,0-.4.81.81,0,0,1,.68,0C794.43,126.74,794.05,126.53,794.24,126.63Z" transform="translate(-624 -82.38)"/><ellipse class="cls-2" cx="160.99" cy="47.54" rx="0.48" ry="0.28"/><path class="cls-2" d="M787.11,128.69c.19.11.19.29,0,.39a.74.74,0,0,1-.68,0c-.19-.1-.19-.28,0-.39A.74.74,0,0,1,787.11,128.69Z" transform="translate(-624 -82.38)"/><path class="cls-2" d="M788.9,127.66a.22.22,0,0,1,0,.4.83.83,0,0,1-.69,0,.22.22,0,0,1,0-.4A.76.76,0,0,1,788.9,127.66Z" transform="translate(-624 -82.38)"/><ellipse class="cls-2" cx="166.34" cy="44.45" rx="0.48" ry="0.28"/><ellipse class="cls-2" cx="168.12" cy="43.42" rx="0.48" ry="0.28"/><path class="cls-2" d="M785.32,127.65a.21.21,0,0,1,0,.4.81.81,0,0,1-.68,0,.21.21,0,0,1,0-.4A.74.74,0,0,1,785.32,127.65Z" transform="translate(-624 -82.38)"/><ellipse class="cls-2" cx="162.76" cy="44.44" rx="0.48" ry="0.28"/><ellipse class="cls-2" cx="164.54" cy="43.41" rx="0.48" ry="0.28"/><path class="cls-2" d="M790.66,124.57c.19.11.19.28,0,.39a.74.74,0,0,1-.68,0c-.19-.11-.19-.28,0-.39A.74.74,0,0,1,790.66,124.57Z" transform="translate(-624 -82.38)"/><ellipse class="cls-2" cx="159.2" cy="44.44" rx="0.48" ry="0.28"/><path class="cls-2" d="M785.32,125.6c.19.1.19.28,0,.39a.74.74,0,0,1-.68,0c-.19-.11-.19-.29,0-.39A.74.74,0,0,1,785.32,125.6Z" transform="translate(-624 -82.38)"/><path class="cls-2" d="M787.1,124.57c.19.11.19.28,0,.39a.74.74,0,0,1-.68,0c-.19-.11-.19-.28,0-.39A.74.74,0,0,1,787.1,124.57Z" transform="translate(-624 -82.38)"/><ellipse class="cls-2" cx="164.54" cy="41.35" rx="0.48" ry="0.28"/><path class="cls-2" d="M790.66,122.9a.74.74,0,0,1-.68,0c-.19-.11-.19-.28,0-.39a.74.74,0,0,1,.68,0C790.85,122.62,790.85,122.79,790.66,122.9Z" transform="translate(-624 -82.38)"/><path class="cls-2" d="M781.75,125.6c.19.1.19.28,0,.39a.74.74,0,0,1-.68,0,.21.21,0,0,1,0-.39A.74.74,0,0,1,781.75,125.6Z" transform="translate(-624 -82.38)"/><path class="cls-2" d="M783.54,124.57a.21.21,0,0,1,0,.39.76.76,0,0,1-.69,0,.21.21,0,0,1,0-.39A.76.76,0,0,1,783.54,124.57Z" transform="translate(-624 -82.38)"/><ellipse class="cls-2" cx="160.98" cy="41.35" rx="0.48" ry="0.28"/><path class="cls-2" d="M787.1,122.51c.19.11.19.28,0,.39a.74.74,0,0,1-.68,0c-.19-.11-.19-.28,0-.39A.74.74,0,0,1,787.1,122.51Z" transform="translate(-624 -82.38)"/><path class="cls-2" d="M788.88,121.48c.19.11.19.29,0,.39a.74.74,0,0,1-.68,0c-.19-.1-.19-.28,0-.39A.74.74,0,0,1,788.88,121.48Z" transform="translate(-624 -82.38)"/><ellipse class="cls-2" cx="157.41" cy="41.35" rx="0.48" ry="0.28"/><ellipse class="cls-2" cx="159.2" cy="40.33" rx="0.48" ry="0.28"/><ellipse class="cls-2" cx="160.98" cy="39.3" rx="0.48" ry="0.28"/><path class="cls-2" d="M787.1,120.45a.21.21,0,0,1,0,.4.74.74,0,0,1-.68,0,.21.21,0,0,1,0-.4A.74.74,0,0,1,787.1,120.45Z" transform="translate(-624 -82.38)"/><path class="cls-2" d="M788.88,119.82a.74.74,0,0,1-.68,0,.21.21,0,0,1,0-.4C788.39,119.32,789.07,119.71,788.88,119.82Z" transform="translate(-624 -82.38)"/><ellipse class="cls-2" cx="157.41" cy="39.3" rx="0.48" ry="0.28"/><path class="cls-2" d="M783.54,120.45a.22.22,0,0,1,0,.4.76.76,0,0,1-.69,0,.22.22,0,0,1,0-.4A.76.76,0,0,1,783.54,120.45Z" transform="translate(-624 -82.38)"/><path class="cls-2" d="M785.32,119.42a.21.21,0,0,1,0,.4.74.74,0,0,1-.68,0,.21.21,0,0,1,0-.4A.81.81,0,0,1,785.32,119.42Z" transform="translate(-624 -82.38)"/><path class="cls-2" d="M787.1,118.4c.19.11.19.28,0,.39a.74.74,0,0,1-.68,0c-.19-.11-.19-.28,0-.39A.74.74,0,0,1,787.1,118.4Z" transform="translate(-624 -82.38)"/><path class="cls-2" d="M780,120.45a.21.21,0,0,1,0,.4.74.74,0,0,1-.68,0,.21.21,0,0,1,0-.4A.74.74,0,0,1,780,120.45Z" transform="translate(-624 -82.38)"/><path class="cls-2" d="M781.75,119.42a.21.21,0,0,1,0,.4.74.74,0,0,1-.68,0,.22.22,0,0,1,0-.4A.81.81,0,0,1,781.75,119.42Z" transform="translate(-624 -82.38)"/><path class="cls-2" d="M783.54,118.4a.21.21,0,0,1,0,.39.76.76,0,0,1-.69,0,.21.21,0,0,1,0-.39A.76.76,0,0,1,783.54,118.4Z" transform="translate(-624 -82.38)"/><path class="cls-2" d="M785.32,117.37c.19.11.19.28,0,.39a.74.74,0,0,1-.68,0c-.19-.11-.19-.28,0-.39A.74.74,0,0,1,785.32,117.37Z" transform="translate(-624 -82.38)"/><path class="cls-2" d="M778.19,119.42a.21.21,0,0,1,0,.4.74.74,0,0,1-.68,0,.21.21,0,0,1,0-.4A.81.81,0,0,1,778.19,119.42Z" transform="translate(-624 -82.38)"/><ellipse class="cls-2" cx="155.63" cy="36.21" rx="0.48" ry="0.28"/><ellipse class="cls-2" cx="157.41" cy="35.18" rx="0.48" ry="0.28"/><path class="cls-2" d="M783.54,116.34a.21.21,0,0,1,0,.39.76.76,0,0,1-.69,0,.21.21,0,0,1,0-.39A.76.76,0,0,1,783.54,116.34Z" transform="translate(-624 -82.38)"/><path class="cls-2" d="M785.32,115.7a.74.74,0,0,1-.68,0c-.19-.1-.19-.28,0-.39S785.51,115.6,785.32,115.7Z" transform="translate(-624 -82.38)"/><path class="cls-2" d="M778.19,117.37c.19.11.19.28,0,.39a.74.74,0,0,1-.68,0c-.19-.11-.19-.28,0-.39A.74.74,0,0,1,778.19,117.37Z" transform="translate(-624 -82.38)"/><ellipse class="cls-2" cx="155.63" cy="34.16" rx="0.48" ry="0.28"/><path class="cls-2" d="M781.75,115.31c.19.11.19.29,0,.39a.74.74,0,0,1-.68,0,.21.21,0,0,1,0-.39A.74.74,0,0,1,781.75,115.31Z" transform="translate(-624 -82.38)"/><path class="cls-2" d="M783.54,114.28a.22.22,0,0,1,0,.4.83.83,0,0,1-.69,0,.22.22,0,0,1,0-.4.76.76,0,0,1,.69,0Z" transform="translate(-624 -82.38)"/><path class="cls-2" d="M778.18,115.3c.19.11.19.29,0,.39a.74.74,0,0,1-.68,0c-.19-.1-.19-.28,0-.39A.74.74,0,0,1,778.18,115.3Z" transform="translate(-624 -82.38)"/><path class="cls-2" d="M780,114.27a.21.21,0,0,1,0,.4.81.81,0,0,1-.68,0,.21.21,0,0,1,0-.4A.74.74,0,0,1,780,114.27Z" transform="translate(-624 -82.38)"/><ellipse class="cls-2" cx="157.4" cy="31.06" rx="0.48" ry="0.28"/><path class="cls-2" d="M776.4,114.27a.22.22,0,0,1,0,.4.83.83,0,0,1-.69,0,.22.22,0,0,1,0-.4A.76.76,0,0,1,776.4,114.27Z" transform="translate(-624 -82.38)"/><path class="cls-2" d="M778.18,113.24a.21.21,0,0,1,0,.4.74.74,0,0,1-.68,0,.21.21,0,0,1,0-.4A.74.74,0,0,1,778.18,113.24Z" transform="translate(-624 -82.38)"/><path class="cls-2" d="M780,112.22c.19.1.19.28,0,.39a.74.74,0,0,1-.68,0c-.19-.11-.19-.29,0-.39A.74.74,0,0,1,780,112.22Z" transform="translate(-624 -82.38)"/><path class="cls-2" d="M776.4,112.22a.21.21,0,0,1,0,.39.76.76,0,0,1-.69,0,.21.21,0,0,1,0-.39A.76.76,0,0,1,776.4,112.22Z" transform="translate(-624 -82.38)"/><path class="cls-2" d="M778.18,111.19c.19.11.19.28,0,.39a.74.74,0,0,1-.68,0c-.19-.11-.19-.28,0-.39A.74.74,0,0,1,778.18,111.19Z" transform="translate(-624 -82.38)"/><path class="cls-2" d="M780,110.55a.74.74,0,0,1-.68,0c-.19-.11-.19-.28,0-.39S780.15,110.44,780,110.55Z" transform="translate(-624 -82.38)"/><ellipse class="cls-2" cx="173.53" cy="56.63" rx="0.48" ry="0.28"/><path class="cls-2" d="M799.65,137.78a.21.21,0,0,1,0,.4.81.81,0,0,1-.68,0,.21.21,0,0,1,0-.4A.74.74,0,0,1,799.65,137.78Z" transform="translate(-624 -82.38)"/><ellipse class="cls-2" cx="177.09" cy="54.57" rx="0.48" ry="0.28"/><path class="cls-2" d="M803.21,135.72a.21.21,0,0,1,0,.4.74.74,0,0,1-.68,0,.22.22,0,0,1,0-.4A.81.81,0,0,1,803.21,135.72Z" transform="translate(-624 -82.38)"/><path class="cls-2" d="M805,134.7a.21.21,0,0,1,0,.39.76.76,0,0,1-.69,0,.21.21,0,0,1,0-.39A.76.76,0,0,1,805,134.7Z" transform="translate(-624 -82.38)"/><path class="cls-2" d="M806.78,133.67c.19.11.19.28,0,.39a.74.74,0,0,1-.68,0c-.19-.11-.19-.28,0-.39A.74.74,0,0,1,806.78,133.67Z" transform="translate(-624 -82.38)"/><ellipse class="cls-2" cx="184.22" cy="50.46" rx="0.48" ry="0.28"/><ellipse class="cls-2" cx="186" cy="49.43" rx="0.48" ry="0.28"/><ellipse class="cls-2" cx="187.78" cy="48.4" rx="0.48" ry="0.28"/><path class="cls-2" d="M819.25,126.47a.21.21,0,0,1,0,.39.76.76,0,0,1-.69,0,.21.21,0,0,1,0-.39A.76.76,0,0,1,819.25,126.47Z" transform="translate(-624 -82.38)"/><path class="cls-2" d="M821,125.44a.21.21,0,0,1,0,.39.74.74,0,0,1-.68,0c-.19-.1-.19-.28,0-.39A.74.74,0,0,1,821,125.44Z" transform="translate(-624 -82.38)"/><path class="cls-2" d="M794.31,138.81c.19.11.19.28,0,.39a.74.74,0,0,1-.68,0c-.19-.11-.19-.28,0-.39A.74.74,0,0,1,794.31,138.81Z" transform="translate(-624 -82.38)"/><path class="cls-2" d="M796.09,137.78a.21.21,0,0,1,0,.4.81.81,0,0,1-.68,0,.21.21,0,0,1,0-.4A.74.74,0,0,1,796.09,137.78Z" transform="translate(-624 -82.38)"/><path class="cls-2" d="M797.87,136.75a.21.21,0,0,1,0,.4.74.74,0,0,1-.68,0,.21.21,0,0,1,0-.4A.74.74,0,0,1,797.87,136.75Z" transform="translate(-624 -82.38)"/><path class="cls-2" d="M799.65,135.72a.21.21,0,0,1,0,.4.74.74,0,0,1-.68,0,.21.21,0,0,1,0-.4A.81.81,0,0,1,799.65,135.72Z" transform="translate(-624 -82.38)"/><ellipse class="cls-2" cx="177.09" cy="52.51" rx="0.48" ry="0.28"/><path class="cls-2" d="M803.21,133.67c.19.11.19.28,0,.39a.74.74,0,0,1-.68,0,.21.21,0,0,1,0-.39A.74.74,0,0,1,803.21,133.67Z" transform="translate(-624 -82.38)"/><ellipse class="cls-2" cx="180.66" cy="50.46" rx="0.48" ry="0.28"/><ellipse class="cls-2" cx="182.44" cy="49.43" rx="0.48" ry="0.28"/><path class="cls-2" d="M808.56,130.58a.21.21,0,0,1,0,.4.74.74,0,0,1-.68,0,.21.21,0,0,1,0-.4A.74.74,0,0,1,808.56,130.58Z" transform="translate(-624 -82.38)"/><ellipse class="cls-2" cx="186" cy="47.37" rx="0.48" ry="0.28"/><path class="cls-2" d="M812.12,128.53c.19.1.19.28,0,.39a.74.74,0,0,1-.68,0c-.19-.11-.19-.29,0-.39A.74.74,0,0,1,812.12,128.53Z" transform="translate(-624 -82.38)"/><path class="cls-2" d="M815.68,126.47c.19.11.19.28,0,.39a.74.74,0,0,1-.68,0c-.19-.11-.19-.28,0-.39A.74.74,0,0,1,815.68,126.47Z" transform="translate(-624 -82.38)"/><ellipse class="cls-2" cx="193.12" cy="43.26" rx="0.48" ry="0.28"/><path class="cls-2" d="M819.25,124.41a.22.22,0,0,1,0,.4.83.83,0,0,1-.69,0,.22.22,0,0,1,0-.4A.76.76,0,0,1,819.25,124.41Z" transform="translate(-624 -82.38)"/><ellipse class="cls-2" cx="168.19" cy="55.6" rx="0.48" ry="0.28"/><path class="cls-2" d="M794.31,136.75a.21.21,0,0,1,0,.4.74.74,0,0,1-.68,0,.21.21,0,0,1,0-.4A.74.74,0,0,1,794.31,136.75Z" transform="translate(-624 -82.38)"/><path class="cls-2" d="M796.09,135.72a.21.21,0,0,1,0,.4.74.74,0,0,1-.68,0,.21.21,0,0,1,0-.4A.81.81,0,0,1,796.09,135.72Z" transform="translate(-624 -82.38)"/><path class="cls-2" d="M797.87,134.7c.19.11.19.28,0,.39a.74.74,0,0,1-.68,0c-.19-.11-.19-.28,0-.39A.74.74,0,0,1,797.87,134.7Z" transform="translate(-624 -82.38)"/><path class="cls-2" d="M799.65,133.67c.19.11.19.28,0,.39a.74.74,0,0,1-.68,0c-.19-.11-.19-.28,0-.39A.74.74,0,0,1,799.65,133.67Z" transform="translate(-624 -82.38)"/><path class="cls-2" d="M801.43,132.64c.19.11.19.28,0,.39a.74.74,0,0,1-.68,0c-.19-.11-.19-.28,0-.39A.74.74,0,0,1,801.43,132.64Z" transform="translate(-624 -82.38)"/><ellipse class="cls-2" cx="178.87" cy="49.43" rx="0.48" ry="0.28"/><path class="cls-2" d="M805,130.58a.22.22,0,0,1,0,.4.76.76,0,0,1-.69,0,.22.22,0,0,1,0-.4A.76.76,0,0,1,805,130.58Z" transform="translate(-624 -82.38)"/><path class="cls-2" d="M806.78,129.55a.21.21,0,0,1,0,.4.74.74,0,0,1-.68,0,.21.21,0,0,1,0-.4A.81.81,0,0,1,806.78,129.55Z" transform="translate(-624 -82.38)"/><path class="cls-2" d="M808.56,128.53c.19.1.19.28,0,.39a.74.74,0,0,1-.68,0c-.19-.11-.19-.29,0-.39A.74.74,0,0,1,808.56,128.53Z" transform="translate(-624 -82.38)"/><path class="cls-2" d="M810.34,127.5c.19.11.19.28,0,.39a.74.74,0,0,1-.68,0c-.19-.11-.19-.28,0-.39A.74.74,0,0,1,810.34,127.5Z" transform="translate(-624 -82.38)"/><path class="cls-2" d="M812.12,126.47c.19.11.19.28,0,.39a.74.74,0,0,1-.68,0c-.19-.11-.19-.28,0-.39A.74.74,0,0,1,812.12,126.47Z" transform="translate(-624 -82.38)"/><path class="cls-2" d="M813.9,125.44c.19.11.19.29,0,.39a.74.74,0,0,1-.68,0c-.19-.1-.19-.28,0-.39A.74.74,0,0,1,813.9,125.44Z" transform="translate(-624 -82.38)"/><path class="cls-2" d="M815.68,124.41a.21.21,0,0,1,0,.4.81.81,0,0,1-.68,0,.21.21,0,0,1,0-.4A.74.74,0,0,1,815.68,124.41Z" transform="translate(-624 -82.38)"/><path class="cls-2" d="M817.46,123.38a.21.21,0,0,1,0,.4.74.74,0,0,1-.68,0,.21.21,0,0,1,0-.4A.81.81,0,0,1,817.46,123.38Z" transform="translate(-624 -82.38)"/><path class="cls-2" d="M792.53,135.72a.21.21,0,0,1,0,.4.74.74,0,0,1-.68,0,.21.21,0,0,1,0-.4A.81.81,0,0,1,792.53,135.72Z" transform="translate(-624 -82.38)"/><path class="cls-2" d="M794.31,134.7c.19.11.19.28,0,.39a.74.74,0,0,1-.68,0c-.19-.11-.19-.28,0-.39A.74.74,0,0,1,794.31,134.7Z" transform="translate(-624 -82.38)"/><ellipse class="cls-2" cx="171.75" cy="51.48" rx="0.48" ry="0.28"/><ellipse class="cls-2" cx="173.53" cy="50.46" rx="0.48" ry="0.28"/><path class="cls-2" d="M799.65,131.61c.19.11.19.29,0,.39a.74.74,0,0,1-.68,0c-.19-.1-.19-.28,0-.39A.74.74,0,0,1,799.65,131.61Z" transform="translate(-624 -82.38)"/><path class="cls-2" d="M800.75,130.58a.74.74,0,0,1,.68,0,.21.21,0,0,1,0,.4.74.74,0,0,1-.68,0,.21.21,0,0,1,0-.4Z" transform="translate(-624 -82.38)"/><ellipse class="cls-2" cx="178.87" cy="47.37" rx="0.48" ry="0.28"/><ellipse class="cls-2" cx="184.22" cy="44.29" rx="0.48" ry="0.28"/><path class="cls-2" d="M810.34,125.44c.19.11.19.29,0,.39a.74.74,0,0,1-.68,0c-.19-.1-.19-.28,0-.39A.74.74,0,0,1,810.34,125.44Z" transform="translate(-624 -82.38)"/><path class="cls-2" d="M812.12,124.41a.21.21,0,0,1,0,.4.81.81,0,0,1-.68,0,.21.21,0,0,1,0-.4A.74.74,0,0,1,812.12,124.41Z" transform="translate(-624 -82.38)"/><ellipse class="cls-2" cx="189.56" cy="41.2" rx="0.48" ry="0.28"/><path class="cls-2" d="M815.68,122.36c.19.1.19.28,0,.39a.74.74,0,0,1-.68,0c-.19-.11-.19-.29,0-.39A.74.74,0,0,1,815.68,122.36Z" transform="translate(-624 -82.38)"/><path class="cls-2" d="M815.63,120.47a.21.21,0,0,1,0,.4.81.81,0,0,1-.68,0,.21.21,0,0,1,0-.4A.74.74,0,0,1,815.63,120.47Z" transform="translate(-624 -82.38)"/><path class="cls-2" d="M817.41,119.44a.21.21,0,0,1,0,.4.74.74,0,0,1-.68,0,.21.21,0,0,1,0-.4A.81.81,0,0,1,817.41,119.44Z" transform="translate(-624 -82.38)"/><path class="cls-2" d="M813.16,119.45a.77.77,0,0,1,.68,0,.21.21,0,0,1,0,.4.76.76,0,0,1-.69,0A.21.21,0,0,1,813.16,119.45Z" transform="translate(-624 -82.38)"/><path class="cls-2" d="M815.63,118.81a.74.74,0,0,1-.68,0c-.19-.11-.19-.29,0-.39S815.82,118.7,815.63,118.81Z" transform="translate(-624 -82.38)"/><path class="cls-2" d="M811.38,118.42a.74.74,0,0,1,.68,0c.19.1.19.28,0,.39a.74.74,0,0,1-.68,0c-.19-.11-.19-.28,0-.39Z" transform="translate(-624 -82.38)"/><path class="cls-2" d="M822.14,124.42a.74.74,0,0,1,.68,0,.21.21,0,0,1,0,.4.81.81,0,0,1-.68,0A.21.21,0,0,1,822.14,124.42Z" transform="translate(-624 -82.38)"/><ellipse class="cls-2" cx="200.26" cy="41.21" rx="0.48" ry="0.28"/><ellipse class="cls-2" cx="202.04" cy="40.18" rx="0.48" ry="0.28"/><ellipse class="cls-2" cx="203.83" cy="39.15" rx="0.48" ry="0.28"/><ellipse class="cls-2" cx="205.61" cy="38.12" rx="0.48" ry="0.28"/><path class="cls-2" d="M831.73,119.28c.19.11.19.28,0,.39a.74.74,0,0,1-.68,0c-.19-.11-.19-.28,0-.39A.74.74,0,0,1,831.73,119.28Z" transform="translate(-624 -82.38)"/><path class="cls-2" d="M820.36,123.39a.81.81,0,0,1,.68,0,.21.21,0,0,1,0,.4.74.74,0,0,1-.68,0A.21.21,0,0,1,820.36,123.39Z" transform="translate(-624 -82.38)"/><path class="cls-2" d="M822.82,122.36a.21.21,0,0,1,0,.4.74.74,0,0,1-.68,0,.21.21,0,0,1,0-.4A.81.81,0,0,1,822.82,122.36Z" transform="translate(-624 -82.38)"/><path class="cls-2" d="M824.6,121.34c.19.1.19.28,0,.39a.74.74,0,0,1-.68,0c-.19-.11-.19-.29,0-.39A.74.74,0,0,1,824.6,121.34Z" transform="translate(-624 -82.38)"/><ellipse class="cls-2" cx="202.04" cy="38.12" rx="0.48" ry="0.28"/><ellipse class="cls-2" cx="203.83" cy="37.1" rx="0.48" ry="0.28"/><path class="cls-2" d="M830,118.25c.19.11.19.29,0,.39a.74.74,0,0,1-.68,0c-.19-.1-.19-.28,0-.39A.74.74,0,0,1,830,118.25Z" transform="translate(-624 -82.38)"/><ellipse class="cls-2" cx="207.39" cy="35.04" rx="0.48" ry="0.28"/><path class="cls-2" d="M818.58,122.37a.74.74,0,0,1,.68,0c.19.1.19.28,0,.39a.74.74,0,0,1-.68,0C818.39,122.65,818.39,122.47,818.58,122.37Z" transform="translate(-624 -82.38)"/><path class="cls-2" d="M821,121.34c.19.1.19.28,0,.39a.74.74,0,0,1-.68,0c-.19-.11-.19-.28,0-.39A.74.74,0,0,1,821,121.34Z" transform="translate(-624 -82.38)"/><ellipse class="cls-2" cx="198.48" cy="38.12" rx="0.48" ry="0.28"/><path class="cls-2" d="M824.6,119.28c.19.11.19.28,0,.39a.74.74,0,0,1-.68,0c-.19-.11-.19-.28,0-.39A.74.74,0,0,1,824.6,119.28Z" transform="translate(-624 -82.38)"/><path class="cls-2" d="M826.38,118.25c.19.11.19.29,0,.39a.74.74,0,0,1-.68,0,.21.21,0,0,1,0-.39A.74.74,0,0,1,826.38,118.25Z" transform="translate(-624 -82.38)"/><path class="cls-2" d="M828.17,117.22a.22.22,0,0,1,0,.4.83.83,0,0,1-.69,0,.22.22,0,0,1,0-.4A.76.76,0,0,1,828.17,117.22Z" transform="translate(-624 -82.38)"/><path class="cls-2" d="M830,116.19a.21.21,0,0,1,0,.4.74.74,0,0,1-.68,0,.21.21,0,0,1,0-.4A.81.81,0,0,1,830,116.19Z" transform="translate(-624 -82.38)"/><path class="cls-2" d="M816.8,121.34a.74.74,0,0,1,.68,0c.18.11.19.28,0,.39a.74.74,0,0,1-.68,0C816.61,121.62,816.61,121.45,816.8,121.34Z" transform="translate(-624 -82.38)"/><path class="cls-2" d="M819.26,120.31c.19.11.19.28,0,.39a.74.74,0,0,1-.68,0c-.19-.11-.19-.28,0-.39a.74.74,0,0,1,.68,0Z" transform="translate(-624 -82.38)"/><path class="cls-3" d="M819.54,110.85l-7.06-2.38-9.69,5.6,4.08,4.1L798,123.28,777.8,100.37l10.75-6.21,39.81,11.6Zm-15.34-5.23L798,103.54q-2.09-.69-5.32-1.81c-2.15-.75-3.68-1.3-4.56-1.66q.86.71,2.7,2.4t7,6.82Z" transform="translate(-624 -82.38)"/><polygon class="cls-3" points="153.8 17.99 153.8 27.68 174.02 50.59 174.02 40.9 153.8 17.99"/><polygon class="cls-3" points="195.54 28.47 195.54 38.16 188.48 35.78 188.48 26.09 195.54 28.47"/><path class="cls-4" d="M819.54,113.53l-7.06-2.38-9.69,5.6,4.08,4.1L798,126,777.8,103.05l10.75-6.21,39.81,11.6ZM804.2,108.3,798,106.22q-2.09-.69-5.32-1.81c-2.15-.75-3.68-1.3-4.56-1.66q.86.7,2.7,2.4t7,6.81Z" transform="translate(-624 -82.38)"/><path class="cls-2" d="M797.59,109.55l.2.2,7.31-4.22-7-2.35c-1.38-.45-3.15-1.06-5.31-1.81s-3.67-1.3-4.54-1.64l-2.23-.9,1.85,1.53c.57.47,1.47,1.27,2.69,2.39S794.1,106.09,797.59,109.55Z" transform="translate(-624 -82.38)"/><path class="cls-2" d="M828.31,105.36,788.5,93.76l-10.63,6.13-.45.26v10l20.22,22.91.3.34.45-.26,8.86-5.12v-6.45l5.27-3.05,6.65,2.24.41.14.34-.19,8.81-5.09V105.48ZM797.64,132l-19.47-22.06v-8.56l17.77,20.14,1.7,1.92Zm21.53-12-6.31-2.13V109l6.31,2.13Zm-6.31-11.82-.42-.14h0l-.33.2L802.18,114l4.08,4.1-8.17,4.71-1.4-1.59-18.31-20.75,10.22-5.9,38.81,11.32-7.91,4.56Z" transform="translate(-624 -82.38)"/><polygon class="cls-3" points="183.69 38.29 182.94 38.71 182.94 35.77 183.69 35.35 183.69 38.29"/></g></svg>