<svg id="Layer_1" data-name="Layer 1" xmlns="http://www.w3.org/2000/svg" viewBox="0 0 560.28 291.67"><defs><style>.cls-1{fill:#39a1ff;}.cls-2{fill:#16110d;}.cls-3{fill:#fec;}</style></defs><title>play-bg</title><path class="cls-1" d="M765.28,709.17v61.11H205v-191l91.39-55.44h0l.22-.14h0l1.42-.86.38-.23,1.31-.79h0l.47-.3,1.2-.72.56-.34,1.15-.7.62-.37,1.12-.68.62-.38,1.1-.67.65-.39h0l9.51-5.78.38-.23.37-.22,8-4.88.37-.22,9.89-6,6.13-3.72a41,41,0,0,1,21.53-6h.74l.7,0c1.14.05,2.28.14,3.42.28a41.11,41.11,0,0,1,15.21,5l9.86,5.52,1.72,1,1.76,1,3.27,1.83.37.2,1.3.73,6.55,3.66,10.13,5.67.38.22.37.2,6.91,3.87.37.21,4.74,2.65Z" transform="translate(-205 -478.61)"/><g id="Y"><path class="cls-2" d="M444.35,524a.21.21,0,0,1,0,.4.74.74,0,0,1-.68,0,.21.21,0,0,1,0-.4A.81.81,0,0,1,444.35,524Z" transform="translate(-205 -478.61)"/><ellipse class="cls-2" cx="240.79" cy="44.59" rx="0.48" ry="0.28"/><path class="cls-2" d="M430.1,530.2a.21.21,0,0,1,0,.4.74.74,0,0,1-.68,0,.21.21,0,0,1,0-.4A.81.81,0,0,1,430.1,530.2Z" transform="translate(-205 -478.61)"/><path class="cls-2" d="M431.88,529.18c.19.1.19.28,0,.39a.74.74,0,0,1-.68,0c-.19-.11-.19-.29,0-.39A.74.74,0,0,1,431.88,529.18Z" transform="translate(-205 -478.61)"/><ellipse class="cls-2" cx="228.32" cy="49.73" rx="0.48" ry="0.28"/><ellipse class="cls-2" cx="230.1" cy="48.71" rx="0.48" ry="0.28"/><ellipse class="cls-2" cx="231.88" cy="47.68" rx="0.48" ry="0.28"/><ellipse class="cls-2" cx="233.66" cy="46.65" rx="0.48" ry="0.28"/><path class="cls-2" d="M440.79,524a.22.22,0,0,1,0,.4.74.74,0,0,1-.68,0,.21.21,0,0,1,0-.4A.81.81,0,0,1,440.79,524Z" transform="translate(-205 -478.61)"/><path class="cls-2" d="M442.57,523c.19.1.19.28,0,.39a.74.74,0,0,1-.68,0c-.19-.11-.19-.29,0-.39A.74.74,0,0,1,442.57,523Z" transform="translate(-205 -478.61)"/><path class="cls-2" d="M444.35,522c.19.11.19.28,0,.39a.74.74,0,0,1-.68,0c-.19-.11-.19-.28,0-.39A.74.74,0,0,1,444.35,522Z" transform="translate(-205 -478.61)"/><path class="cls-2" d="M426.54,530.2a.22.22,0,0,1,0,.4.74.74,0,0,1-.68,0,.21.21,0,0,1,0-.4A.81.81,0,0,1,426.54,530.2Z" transform="translate(-205 -478.61)"/><ellipse class="cls-2" cx="222.98" cy="50.76" rx="0.48" ry="0.28"/><ellipse class="cls-2" cx="224.76" cy="49.73" rx="0.48" ry="0.28"/><path class="cls-2" d="M431.88,527.12c.19.11.19.28,0,.39a.74.74,0,0,1-.68,0c-.19-.11-.19-.28,0-.39A.74.74,0,0,1,431.88,527.12Z" transform="translate(-205 -478.61)"/><path class="cls-2" d="M433.66,526.09c.19.11.19.29,0,.39a.74.74,0,0,1-.68,0c-.19-.1-.19-.28,0-.39A.74.74,0,0,1,433.66,526.09Z" transform="translate(-205 -478.61)"/><path class="cls-2" d="M435.44,525.06a.21.21,0,0,1,0,.4.81.81,0,0,1-.68,0,.21.21,0,0,1,0-.4A.74.74,0,0,1,435.44,525.06Z" transform="translate(-205 -478.61)"/><ellipse class="cls-2" cx="231.88" cy="45.62" rx="0.48" ry="0.28"/><path class="cls-2" d="M439,523a.21.21,0,0,1,0,.39.76.76,0,0,1-.69,0,.21.21,0,0,1,0-.39A.76.76,0,0,1,439,523Z" transform="translate(-205 -478.61)"/><path class="cls-2" d="M440.79,522a.21.21,0,0,1,0,.39.74.74,0,0,1-.68,0c-.19-.11-.19-.28,0-.39A.74.74,0,0,1,440.79,522Z" transform="translate(-205 -478.61)"/><path class="cls-2" d="M442.57,521c.19.11.19.28,0,.39a.74.74,0,0,1-.68,0c-.19-.11-.19-.28,0-.39A.74.74,0,0,1,442.57,521Z" transform="translate(-205 -478.61)"/><path class="cls-2" d="M424.76,529.18a.21.21,0,0,1,0,.39.76.76,0,0,1-.69,0,.21.21,0,0,1,0-.39A.76.76,0,0,1,424.76,529.18Z" transform="translate(-205 -478.61)"/><ellipse class="cls-2" cx="221.2" cy="49.73" rx="0.48" ry="0.28"/><ellipse class="cls-2" cx="222.98" cy="48.71" rx="0.48" ry="0.28"/><ellipse class="cls-2" cx="224.76" cy="47.68" rx="0.48" ry="0.28"/><ellipse class="cls-2" cx="226.54" cy="46.65" rx="0.48" ry="0.28"/><path class="cls-2" d="M433.66,524a.21.21,0,0,1,0,.4.74.74,0,0,1-.68,0,.21.21,0,0,1,0-.4A.81.81,0,0,1,433.66,524Z" transform="translate(-205 -478.61)"/><path class="cls-2" d="M435.44,523c.19.1.19.28,0,.39a.74.74,0,0,1-.68,0c-.19-.11-.19-.29,0-.39A.74.74,0,0,1,435.44,523Z" transform="translate(-205 -478.61)"/><path class="cls-2" d="M437.22,522c.19.11.19.28,0,.39a.74.74,0,0,1-.68,0c-.19-.11-.19-.28,0-.39A.74.74,0,0,1,437.22,522Z" transform="translate(-205 -478.61)"/><ellipse class="cls-2" cx="233.66" cy="42.54" rx="0.48" ry="0.28"/><path class="cls-2" d="M440.79,519.92a.21.21,0,0,1,0,.39.74.74,0,0,1-.68,0c-.19-.1-.19-.28,0-.39A.74.74,0,0,1,440.79,519.92Z" transform="translate(-205 -478.61)"/><ellipse class="cls-2" cx="217.63" cy="49.73" rx="0.48" ry="0.28"/><ellipse class="cls-2" cx="219.41" cy="48.71" rx="0.48" ry="0.28"/><path class="cls-2" d="M426.54,526.09a.21.21,0,0,1,0,.39.74.74,0,0,1-.68,0c-.19-.1-.19-.28,0-.39A.74.74,0,0,1,426.54,526.09Z" transform="translate(-205 -478.61)"/><ellipse class="cls-2" cx="222.98" cy="46.65" rx="0.48" ry="0.28"/><path class="cls-2" d="M430.1,524a.21.21,0,0,1,0,.4.74.74,0,0,1-.68,0,.21.21,0,0,1,0-.4A.81.81,0,0,1,430.1,524Z" transform="translate(-205 -478.61)"/><ellipse class="cls-2" cx="226.54" cy="44.59" rx="0.48" ry="0.28"/><ellipse class="cls-2" cx="228.32" cy="43.56" rx="0.48" ry="0.28"/><ellipse class="cls-2" cx="230.1" cy="42.54" rx="0.48" ry="0.28"/><path class="cls-2" d="M437.22,519.92c.19.11.19.29,0,.39a.74.74,0,0,1-.68,0c-.19-.1-.19-.28,0-.39A.74.74,0,0,1,437.22,519.92Z" transform="translate(-205 -478.61)"/><path class="cls-2" d="M439,518.89a.22.22,0,0,1,0,.4.83.83,0,0,1-.69,0,.22.22,0,0,1,0-.4A.76.76,0,0,1,439,518.89Z" transform="translate(-205 -478.61)"/><path class="cls-2" d="M421.19,527.12c.19.11.19.28,0,.39a.74.74,0,0,1-.68,0c-.19-.11-.19-.28,0-.39A.74.74,0,0,1,421.19,527.12Z" transform="translate(-205 -478.61)"/><ellipse class="cls-2" cx="217.63" cy="47.68" rx="0.48" ry="0.28"/><ellipse class="cls-2" cx="219.41" cy="46.65" rx="0.48" ry="0.28"/><path class="cls-2" d="M426.54,524a.22.22,0,0,1,0,.4.74.74,0,0,1-.68,0,.21.21,0,0,1,0-.4A.81.81,0,0,1,426.54,524Z" transform="translate(-205 -478.61)"/><ellipse class="cls-2" cx="222.98" cy="44.59" rx="0.48" ry="0.28"/><path class="cls-2" d="M429.42,522a.74.74,0,0,1,.68,0c.19.11.19.28,0,.39a.74.74,0,0,1-.68,0c-.19-.11-.19-.28,0-.39Z" transform="translate(-205 -478.61)"/><path class="cls-2" d="M431.2,521a.74.74,0,0,1,.68,0c.19.11.19.28,0,.39a.74.74,0,0,1-.68,0c-.19-.11-.19-.28,0-.39Z" transform="translate(-205 -478.61)"/><path class="cls-2" d="M433.66,519.92c.19.11.19.29,0,.39a.74.74,0,0,1-.68,0c-.19-.1-.19-.28,0-.39A.74.74,0,0,1,433.66,519.92Z" transform="translate(-205 -478.61)"/><path class="cls-2" d="M435.44,518.89a.21.21,0,0,1,0,.4.81.81,0,0,1-.68,0,.21.21,0,0,1,0-.4A.74.74,0,0,1,435.44,518.89Z" transform="translate(-205 -478.61)"/><path class="cls-2" d="M437.22,517.86a.21.21,0,0,1,0,.4.74.74,0,0,1-.68,0,.21.21,0,0,1,0-.4A.74.74,0,0,1,437.22,517.86Z" transform="translate(-205 -478.61)"/><ellipse class="cls-2" cx="214.07" cy="47.68" rx="0.48" ry="0.28"/><path class="cls-2" d="M421.19,525.06a.21.21,0,0,1,0,.4.81.81,0,0,1-.68,0,.21.21,0,0,1,0-.4A.74.74,0,0,1,421.19,525.06Z" transform="translate(-205 -478.61)"/><path class="cls-2" d="M423,524a.21.21,0,0,1,0,.4.74.74,0,0,1-.68,0,.21.21,0,0,1,0-.4A.81.81,0,0,1,423,524Z" transform="translate(-205 -478.61)"/><ellipse class="cls-2" cx="219.41" cy="44.59" rx="0.48" ry="0.28"/><ellipse class="cls-2" cx="214.06" cy="45.61" rx="0.48" ry="0.28"/><ellipse class="cls-2" cx="215.84" cy="44.58" rx="0.48" ry="0.28"/><path class="cls-2" d="M423,522c.19.1.19.28,0,.39a.74.74,0,0,1-.68,0c-.19-.11-.19-.29,0-.39A.74.74,0,0,1,423,522Z" transform="translate(-205 -478.61)"/><path class="cls-2" d="M419.4,522a.21.21,0,0,1,0,.39.74.74,0,0,1-.68,0c-.19-.11-.19-.28,0-.39A.74.74,0,0,1,419.4,522Z" transform="translate(-205 -478.61)"/><ellipse class="cls-2" cx="215.84" cy="42.52" rx="0.48" ry="0.28"/><path class="cls-2" d="M419.4,519.91a.21.21,0,0,1,0,.39.74.74,0,0,1-.68,0c-.19-.11-.19-.28,0-.39A.74.74,0,0,1,419.4,519.91Z" transform="translate(-205 -478.61)"/><ellipse class="cls-2" cx="255.06" cy="42.56" rx="0.48" ry="0.28"/><path class="cls-2" d="M462.18,519.94a.21.21,0,0,1,0,.4.74.74,0,0,1-.68,0,.21.21,0,0,1,0-.4A.81.81,0,0,1,462.18,519.94Z" transform="translate(-205 -478.61)"/><ellipse class="cls-2" cx="258.62" cy="40.5" rx="0.48" ry="0.28"/><path class="cls-2" d="M465.74,517.89c.19.11.19.28,0,.39a.74.74,0,0,1-.68,0c-.19-.11-.19-.28,0-.39A.74.74,0,0,1,465.74,517.89Z" transform="translate(-205 -478.61)"/><ellipse class="cls-2" cx="249.72" cy="43.59" rx="0.48" ry="0.28"/><path class="cls-2" d="M456.84,521a.21.21,0,0,1,0,.4.81.81,0,0,1-.68,0,.21.21,0,0,1,0-.4A.74.74,0,0,1,456.84,521Z" transform="translate(-205 -478.61)"/><ellipse class="cls-2" cx="253.28" cy="41.53" rx="0.48" ry="0.28"/><ellipse class="cls-2" cx="255.06" cy="40.5" rx="0.48" ry="0.28"/><path class="cls-2" d="M462.18,517.89c.19.11.19.28,0,.39a.74.74,0,0,1-.68,0c-.19-.11-.19-.28,0-.39A.74.74,0,0,1,462.18,517.89Z" transform="translate(-205 -478.61)"/><path class="cls-2" d="M464,516.86c.19.11.19.28,0,.39a.74.74,0,0,1-.68,0c-.19-.11-.19-.28,0-.39A.74.74,0,0,1,464,516.86Z" transform="translate(-205 -478.61)"/><ellipse class="cls-2" cx="260.4" cy="37.42" rx="0.48" ry="0.28"/><path class="cls-2" d="M449,523a.76.76,0,0,1,.69,0,.21.21,0,0,1,0,.39.74.74,0,0,1-.68,0A.21.21,0,0,1,449,523Z" transform="translate(-205 -478.61)"/><ellipse class="cls-2" cx="246.14" cy="43.58" rx="0.48" ry="0.28"/><path class="cls-2" d="M453.26,521a.21.21,0,0,1,0,.4.81.81,0,0,1-.68,0,.21.21,0,0,1,0-.4A.74.74,0,0,1,453.26,521Z" transform="translate(-205 -478.61)"/><ellipse class="cls-2" cx="249.7" cy="41.52" rx="0.48" ry="0.28"/><path class="cls-2" d="M456.82,518.91c.19.1.19.28,0,.39a.74.74,0,0,1-.68,0c-.19-.11-.19-.29,0-.39A.74.74,0,0,1,456.82,518.91Z" transform="translate(-205 -478.61)"/><path class="cls-2" d="M458.6,517.88c.19.11.19.28,0,.39a.74.74,0,0,1-.68,0c-.19-.11-.19-.28,0-.39A.74.74,0,0,1,458.6,517.88Z" transform="translate(-205 -478.61)"/><ellipse class="cls-2" cx="255.04" cy="38.44" rx="0.48" ry="0.28"/><path class="cls-2" d="M462.17,515.82a.21.21,0,0,1,0,.39.74.74,0,0,1-.68,0c-.19-.11-.19-.28,0-.39A.74.74,0,0,1,462.17,515.82Z" transform="translate(-205 -478.61)"/><path class="cls-2" d="M464,514.79a.21.21,0,0,1,0,.4.81.81,0,0,1-.68,0,.21.21,0,0,1,0-.4A.74.74,0,0,1,464,514.79Z" transform="translate(-205 -478.61)"/><ellipse class="cls-2" cx="260.39" cy="35.35" rx="0.48" ry="0.28"/><path class="cls-2" d="M447.23,522a.74.74,0,0,1,.68,0c.19.11.19.29,0,.39a.76.76,0,0,1-.69,0A.21.21,0,0,1,447.23,522Z" transform="translate(-205 -478.61)"/><ellipse class="cls-2" cx="244.36" cy="42.55" rx="0.48" ry="0.28"/><path class="cls-2" d="M451.48,519.93a.21.21,0,0,1,0,.4.74.74,0,0,1-.68,0,.21.21,0,0,1,0-.4A.81.81,0,0,1,451.48,519.93Z" transform="translate(-205 -478.61)"/><ellipse class="cls-2" cx="247.92" cy="40.49" rx="0.48" ry="0.28"/><ellipse class="cls-2" cx="249.7" cy="39.46" rx="0.48" ry="0.28"/><path class="cls-2" d="M456.82,516.85c.19.11.19.28,0,.39a.74.74,0,0,1-.68,0c-.19-.11-.19-.28,0-.39A.74.74,0,0,1,456.82,516.85Z" transform="translate(-205 -478.61)"/><path class="cls-2" d="M458.6,515.82c.19.11.19.28,0,.39a.74.74,0,0,1-.68,0c-.19-.11-.19-.28,0-.39A.74.74,0,0,1,458.6,515.82Z" transform="translate(-205 -478.61)"/><ellipse class="cls-2" cx="255.04" cy="36.38" rx="0.48" ry="0.28"/><ellipse class="cls-2" cx="256.83" cy="35.35" rx="0.48" ry="0.28"/><path class="cls-2" d="M464,512.73a.21.21,0,0,1,0,.4.74.74,0,0,1-.68,0,.21.21,0,0,1,0-.4A.81.81,0,0,1,464,512.73Z" transform="translate(-205 -478.61)"/><path class="cls-2" d="M445.45,521a.74.74,0,0,1,.68,0,.21.21,0,0,1,0,.4.77.77,0,0,1-.68,0A.21.21,0,0,1,445.45,521Z" transform="translate(-205 -478.61)"/><path class="cls-2" d="M447.92,519.93a.22.22,0,0,1,0,.4.74.74,0,0,1-.68,0,.21.21,0,0,1,0-.4A.81.81,0,0,1,447.92,519.93Z" transform="translate(-205 -478.61)"/><path class="cls-2" d="M449.7,518.91c.19.1.19.28,0,.39a.74.74,0,0,1-.68,0c-.19-.11-.19-.29,0-.39A.74.74,0,0,1,449.7,518.91Z" transform="translate(-205 -478.61)"/><ellipse class="cls-2" cx="246.14" cy="39.46" rx="0.48" ry="0.28"/><path class="cls-2" d="M453.26,516.85c.19.11.19.28,0,.39a.74.74,0,0,1-.68,0c-.19-.11-.19-.28,0-.39A.74.74,0,0,1,453.26,516.85Z" transform="translate(-205 -478.61)"/><path class="cls-2" d="M455,515.82c.19.11.19.28,0,.39a.74.74,0,0,1-.68,0c-.19-.11-.19-.28,0-.39A.74.74,0,0,1,455,515.82Z" transform="translate(-205 -478.61)"/><ellipse class="cls-2" cx="251.48" cy="36.38" rx="0.48" ry="0.28"/><ellipse class="cls-2" cx="253.26" cy="35.35" rx="0.48" ry="0.28"/><path class="cls-2" d="M460.39,512.73a.22.22,0,0,1,0,.4.76.76,0,0,1-.69,0,.22.22,0,0,1,0-.4A.83.83,0,0,1,460.39,512.73Z" transform="translate(-205 -478.61)"/><path class="cls-2" d="M443.67,519.94a.77.77,0,0,1,.68,0,.21.21,0,0,1,0,.4.74.74,0,0,1-.68,0C443.48,520.22,443.48,520,443.67,519.94Z" transform="translate(-205 -478.61)"/><path class="cls-2" d="M446.14,518.91a.21.21,0,0,1,0,.39.76.76,0,0,1-.69,0,.21.21,0,0,1,0-.39A.76.76,0,0,1,446.14,518.91Z" transform="translate(-205 -478.61)"/><ellipse class="cls-2" cx="242.58" cy="39.46" rx="0.48" ry="0.28"/><path class="cls-2" d="M449.7,516.85c.19.11.19.28,0,.39a.74.74,0,0,1-.68,0c-.19-.11-.19-.28,0-.39A.74.74,0,0,1,449.7,516.85Z" transform="translate(-205 -478.61)"/><ellipse class="cls-2" cx="246.14" cy="37.41" rx="0.48" ry="0.28"/><ellipse class="cls-2" cx="247.92" cy="36.38" rx="0.48" ry="0.28"/><ellipse class="cls-2" cx="249.7" cy="35.35" rx="0.48" ry="0.28"/><ellipse class="cls-2" cx="251.48" cy="34.32" rx="0.48" ry="0.28"/><path class="cls-2" d="M441.89,518.91a.74.74,0,0,1,.68,0c.19.1.19.28,0,.39a.74.74,0,0,1-.68,0C441.7,519.19,441.7,519,441.89,518.91Z" transform="translate(-205 -478.61)"/><ellipse class="cls-2" cx="239.01" cy="39.46" rx="0.48" ry="0.28"/><path class="cls-2" d="M446.14,516.85a.21.21,0,0,1,0,.39.76.76,0,0,1-.69,0,.21.21,0,0,1,0-.39A.76.76,0,0,1,446.14,516.85Z" transform="translate(-205 -478.61)"/><path class="cls-2" d="M447.92,515.82a.21.21,0,0,1,0,.39.74.74,0,0,1-.68,0c-.19-.11-.19-.28,0-.39A.74.74,0,0,1,447.92,515.82Z" transform="translate(-205 -478.61)"/><ellipse class="cls-2" cx="244.36" cy="36.38" rx="0.48" ry="0.28"/><path class="cls-2" d="M451.48,513.76a.21.21,0,0,1,0,.4.74.74,0,0,1-.68,0,.21.21,0,0,1,0-.4A.74.74,0,0,1,451.48,513.76Z" transform="translate(-205 -478.61)"/><path class="cls-2" d="M440.11,517.88a.74.74,0,0,1,.68,0c.19.11.19.28,0,.39a.74.74,0,0,1-.68,0C439.92,518.16,439.92,518,440.11,517.88Z" transform="translate(-205 -478.61)"/><path class="cls-2" d="M442.57,516.85c.19.11.19.28,0,.39a.74.74,0,0,1-.68,0c-.19-.11-.19-.28,0-.39A.74.74,0,0,1,442.57,516.85Z" transform="translate(-205 -478.61)"/><ellipse class="cls-2" cx="239.01" cy="37.41" rx="0.48" ry="0.28"/><path class="cls-2" d="M446.14,514.79a.22.22,0,0,1,0,.4.83.83,0,0,1-.69,0,.22.22,0,0,1,0-.4A.76.76,0,0,1,446.14,514.79Z" transform="translate(-205 -478.61)"/><path class="cls-2" d="M438.33,516.85a.74.74,0,0,1,.68,0c.19.11.19.28,0,.39a.74.74,0,0,1-.68,0c-.19-.11-.19-.28,0-.39Z" transform="translate(-205 -478.61)"/><path class="cls-2" d="M440.79,515.82c.19.11.19.28,0,.39a.74.74,0,0,1-.68,0C439.92,516.1,440.6,515.71,440.79,515.82Z" transform="translate(-205 -478.61)"/><polygon class="cls-1" points="213.9 31.85 213.9 41.53 221.55 45.95 221.55 36.27 213.9 31.85"/><path class="cls-1" d="M455.69,499.23l-13.39,2.82-1.88.4,4.43-6.93,1.19-1.86-8.28-4.78-8.11,15.37-10.75,6.21,2.21,1.27,5.44,3.14,11-6.33,23-4,3.4-.59Z" transform="translate(-205 -478.61)"/><path class="cls-3" d="M460.52,504.57l-.5-.29-4.33-2.5L440.42,505l1.6-2.51.28-.44L446,496.2l-1.19-.68-.33-.19-6.76-3.9-8.11,15.37-8.16,4.71-.38.22-.37.22-1.47.85-.37.21.37.21,6.91,4,.37.21,10.61-6.13.37-.21.38-.07,26-4.48Z" transform="translate(-205 -478.61)"/><path class="cls-2" d="M464,503.59l-8.24-4.76-9.34,2v-7.36l-.5-.29-8.29-4.79L429.37,504l-10.47,6-.38.22v10.12l7.66,4.42.37.22.38-.22,4.36-2.52,6.37-3.68,2.35-.4.9-.16,4.54-.78.81-.14,4.77-.82h0l.46-.09h0l8.19-1.4h0l.35-.06h0l4.17-.73V503.77Zm-37.81,20.32-1.29-.75h0l-.39-.22-1.4-.81-.4-.23-1.37-.79h0l-.41-.24h0l-1.35-.78-.26-.15v-8.82l.17.09,1.3.75,5.44,3.14Zm3.75-19.39,8-15.12,7.6,4.38-1,1.55-4.9,7.67,2.4-.51,13.61-2.86,7.21,4.16-2.82.49-8.32,1.43-13.79,2.38-.51.09-.24.14-10.61,6.12-5.06-2.93-1.67-1-.17-.09,10.19-5.89Z" transform="translate(-205 -478.61)"/><polygon class="cls-1" points="232.91 39.2 232.16 39.49 232.16 30.57 232.91 30.29 232.91 39.2"/></g><g id="P"><ellipse class="cls-2" cx="91.2" cy="47.01" rx="0.48" ry="0.28"/><ellipse class="cls-2" cx="92.99" cy="45.98" rx="0.48" ry="0.28"/><ellipse class="cls-2" cx="94.77" cy="44.95" rx="0.48" ry="0.28"/><path class="cls-2" d="M301.89,522.34c.19.1.19.28,0,.39a.74.74,0,0,1-.68,0c-.19-.11-.19-.29,0-.39A.74.74,0,0,1,301.89,522.34Z" transform="translate(-205 -478.61)"/><path class="cls-2" d="M293,525.42c.19.11.19.29,0,.39a.74.74,0,0,1-.68,0c-.19-.1-.19-.28,0-.39A.74.74,0,0,1,293,525.42Z" transform="translate(-205 -478.61)"/><path class="cls-2" d="M294.76,524.39a.21.21,0,0,1,0,.4.81.81,0,0,1-.68,0,.21.21,0,0,1,0-.4A.74.74,0,0,1,294.76,524.39Z" transform="translate(-205 -478.61)"/><path class="cls-2" d="M296.55,523.36a.22.22,0,0,1,0,.4.76.76,0,0,1-.69,0,.22.22,0,0,1,0-.4A.83.83,0,0,1,296.55,523.36Z" transform="translate(-205 -478.61)"/><path class="cls-2" d="M298.33,522.34a.21.21,0,0,1,0,.39.74.74,0,0,1-.68,0c-.19-.11-.19-.29,0-.39A.74.74,0,0,1,298.33,522.34Z" transform="translate(-205 -478.61)"/><path class="cls-2" d="M300.11,521.31c.19.11.19.28,0,.39a.74.74,0,0,1-.68,0c-.19-.11-.19-.28,0-.39A.74.74,0,0,1,300.11,521.31Z" transform="translate(-205 -478.61)"/><path class="cls-2" d="M289.42,525.42c.19.11.19.29,0,.39a.74.74,0,0,1-.68,0c-.19-.1-.19-.28,0-.39A.74.74,0,0,1,289.42,525.42Z" transform="translate(-205 -478.61)"/><ellipse class="cls-2" cx="85.86" cy="45.98" rx="0.48" ry="0.28"/><path class="cls-2" d="M293,523.36a.21.21,0,0,1,0,.4.74.74,0,0,1-.68,0,.21.21,0,0,1,0-.4A.81.81,0,0,1,293,523.36Z" transform="translate(-205 -478.61)"/><path class="cls-2" d="M294.76,522.34c.19.1.19.28,0,.39a.74.74,0,0,1-.68,0c-.19-.11-.19-.29,0-.39A.74.74,0,0,1,294.76,522.34Z" transform="translate(-205 -478.61)"/><path class="cls-2" d="M296.55,521.31a.21.21,0,0,1,0,.39.76.76,0,0,1-.69,0,.21.21,0,0,1,0-.39A.76.76,0,0,1,296.55,521.31Z" transform="translate(-205 -478.61)"/><ellipse class="cls-2" cx="92.99" cy="41.87" rx="0.48" ry="0.28"/><ellipse class="cls-2" cx="80.5" cy="47" rx="0.48" ry="0.28"/><path class="cls-2" d="M287.62,524.38c.19.11.19.29,0,.39a.74.74,0,0,1-.68,0c-.19-.1-.19-.28,0-.39A.74.74,0,0,1,287.62,524.38Z" transform="translate(-205 -478.61)"/><ellipse class="cls-2" cx="84.06" cy="44.94" rx="0.48" ry="0.28"/><path class="cls-2" d="M291.19,522.32a.22.22,0,0,1,0,.4.76.76,0,0,1-.69,0,.22.22,0,0,1,0-.4A.83.83,0,0,1,291.19,522.32Z" transform="translate(-205 -478.61)"/><path class="cls-2" d="M293,521.3c.19.1.19.28,0,.39a.74.74,0,0,1-.68,0c-.19-.11-.19-.29,0-.39A.74.74,0,0,1,293,521.3Z" transform="translate(-205 -478.61)"/><ellipse class="cls-2" cx="89.41" cy="41.85" rx="0.48" ry="0.28"/><path class="cls-2" d="M296.53,519.24c.19.11.19.28,0,.39a.74.74,0,0,1-.68,0c-.19-.11-.19-.28,0-.39A.74.74,0,0,1,296.53,519.24Z" transform="translate(-205 -478.61)"/><path class="cls-2" d="M282.28,525.41c.19.11.19.28,0,.39a.74.74,0,0,1-.68,0c-.19-.11-.19-.28,0-.39A.74.74,0,0,1,282.28,525.41Z" transform="translate(-205 -478.61)"/><ellipse class="cls-2" cx="78.72" cy="45.97" rx="0.48" ry="0.28"/><ellipse class="cls-2" cx="80.5" cy="44.94" rx="0.48" ry="0.28"/><path class="cls-2" d="M287.62,522.32a.21.21,0,0,1,0,.4.74.74,0,0,1-.68,0,.21.21,0,0,1,0-.4A.81.81,0,0,1,287.62,522.32Z" transform="translate(-205 -478.61)"/><path class="cls-2" d="M289.4,521.3c.19.1.19.28,0,.39a.74.74,0,0,1-.68,0,.21.21,0,0,1,0-.39A.74.74,0,0,1,289.4,521.3Z" transform="translate(-205 -478.61)"/><path class="cls-2" d="M291.19,520.27a.21.21,0,0,1,0,.39.76.76,0,0,1-.69,0,.21.21,0,0,1,0-.39A.76.76,0,0,1,291.19,520.27Z" transform="translate(-205 -478.61)"/><path class="cls-2" d="M293,519.24c.19.11.19.28,0,.39a.74.74,0,0,1-.68,0c-.19-.11-.19-.28,0-.39A.74.74,0,0,1,293,519.24Z" transform="translate(-205 -478.61)"/><path class="cls-2" d="M280.5,524.38c.19.11.19.29,0,.39a.74.74,0,0,1-.68,0c-.19-.1-.19-.28,0-.39A.74.74,0,0,1,280.5,524.38Z" transform="translate(-205 -478.61)"/><path class="cls-2" d="M282.28,523.35a.21.21,0,0,1,0,.4.74.74,0,0,1-.68,0,.21.21,0,0,1,0-.4A.74.74,0,0,1,282.28,523.35Z" transform="translate(-205 -478.61)"/><ellipse class="cls-2" cx="78.72" cy="43.91" rx="0.48" ry="0.28"/><ellipse class="cls-2" cx="80.5" cy="42.88" rx="0.48" ry="0.28"/><path class="cls-2" d="M287.62,520.27c.19.11.19.28,0,.39a.74.74,0,0,1-.68,0c-.19-.11-.19-.28,0-.39A.74.74,0,0,1,287.62,520.27Z" transform="translate(-205 -478.61)"/><path class="cls-2" d="M289.4,519.24c.19.11.19.28,0,.39a.74.74,0,0,1-.68,0,.21.21,0,0,1,0-.39A.74.74,0,0,1,289.4,519.24Z" transform="translate(-205 -478.61)"/><ellipse class="cls-2" cx="66.25" cy="49.05" rx="0.48" ry="0.28"/><path class="cls-2" d="M273.37,526.44c.19.11.19.28,0,.39a.74.74,0,0,1-.68,0c-.19-.11-.19-.28,0-.39A.74.74,0,0,1,273.37,526.44Z" transform="translate(-205 -478.61)"/><ellipse class="cls-2" cx="69.81" cy="47" rx="0.48" ry="0.28"/><path class="cls-2" d="M276.94,524.38a.21.21,0,0,1,0,.39.74.74,0,0,1-.68,0c-.19-.1-.19-.28,0-.39A.74.74,0,0,1,276.94,524.38Z" transform="translate(-205 -478.61)"/><path class="cls-2" d="M278.72,523.35a.21.21,0,0,1,0,.4.74.74,0,0,1-.68,0,.21.21,0,0,1,0-.4A.74.74,0,0,1,278.72,523.35Z" transform="translate(-205 -478.61)"/><path class="cls-2" d="M280.5,522.32a.21.21,0,0,1,0,.4.74.74,0,0,1-.68,0,.21.21,0,0,1,0-.4A.81.81,0,0,1,280.5,522.32Z" transform="translate(-205 -478.61)"/><path class="cls-2" d="M282.28,521.3c.19.1.19.28,0,.39a.74.74,0,0,1-.68,0c-.19-.11-.19-.29,0-.39A.74.74,0,0,1,282.28,521.3Z" transform="translate(-205 -478.61)"/><ellipse class="cls-2" cx="78.72" cy="41.85" rx="0.48" ry="0.28"/><path class="cls-2" d="M285.84,519.24c.19.11.19.28,0,.39a.74.74,0,0,1-.68,0c-.19-.11-.19-.28,0-.39A.74.74,0,0,1,285.84,519.24Z" transform="translate(-205 -478.61)"/><ellipse class="cls-2" cx="62.69" cy="49.05" rx="0.48" ry="0.28"/><ellipse class="cls-2" cx="64.47" cy="48.03" rx="0.48" ry="0.28"/><path class="cls-2" d="M271.59,525.41c.19.11.19.28,0,.39a.74.74,0,0,1-.68,0c-.19-.11-.19-.28,0-.39A.74.74,0,0,1,271.59,525.41Z" transform="translate(-205 -478.61)"/><path class="cls-2" d="M273.37,524.38a.21.21,0,0,1,0,.4.81.81,0,0,1-.68,0,.21.21,0,0,1,0-.4A.74.74,0,0,1,273.37,524.38Z" transform="translate(-205 -478.61)"/><path class="cls-2" d="M275.16,523.35a.22.22,0,0,1,0,.4.76.76,0,0,1-.69,0,.22.22,0,0,1,0-.4A.76.76,0,0,1,275.16,523.35Z" transform="translate(-205 -478.61)"/><ellipse class="cls-2" cx="71.6" cy="43.91" rx="0.48" ry="0.28"/><path class="cls-2" d="M278.72,521.3c.19.11.19.28,0,.39a.74.74,0,0,1-.68,0c-.19-.11-.19-.28,0-.39A.74.74,0,0,1,278.72,521.3Z" transform="translate(-205 -478.61)"/><ellipse class="cls-2" cx="75.16" cy="41.85" rx="0.48" ry="0.28"/><path class="cls-2" d="M282.28,519.24c.19.11.19.28,0,.39a.74.74,0,0,1-.68,0c-.19-.11-.19-.28,0-.39A.74.74,0,0,1,282.28,519.24Z" transform="translate(-205 -478.61)"/><path class="cls-2" d="M284.06,518.21c.19.11.19.29,0,.39a.74.74,0,0,1-.68,0c-.19-.1-.19-.28,0-.39A.74.74,0,0,1,284.06,518.21Z" transform="translate(-205 -478.61)"/><path class="cls-2" d="M266.25,526.44c.19.11.19.28,0,.39a.74.74,0,0,1-.68,0c-.19-.11-.19-.28,0-.39A.74.74,0,0,1,266.25,526.44Z" transform="translate(-205 -478.61)"/><path class="cls-2" d="M268,525.41c.19.11.19.28,0,.39a.74.74,0,0,1-.68,0c-.19-.11-.19-.28,0-.39A.74.74,0,0,1,268,525.41Z" transform="translate(-205 -478.61)"/><path class="cls-2" d="M269.81,524.38a.21.21,0,0,1,0,.4.81.81,0,0,1-.68,0,.21.21,0,0,1,0-.4A.74.74,0,0,1,269.81,524.38Z" transform="translate(-205 -478.61)"/><ellipse class="cls-2" cx="66.25" cy="44.94" rx="0.48" ry="0.28"/><path class="cls-2" d="M273.37,522.32a.21.21,0,0,1,0,.4.74.74,0,0,1-.68,0,.21.21,0,0,1,0-.4A.81.81,0,0,1,273.37,522.32Z" transform="translate(-205 -478.61)"/><path class="cls-2" d="M275.16,521.3a.21.21,0,0,1,0,.39.76.76,0,0,1-.69,0,.21.21,0,0,1,0-.39A.76.76,0,0,1,275.16,521.3Z" transform="translate(-205 -478.61)"/><ellipse class="cls-2" cx="71.6" cy="41.85" rx="0.48" ry="0.28"/><path class="cls-2" d="M278.72,519.24c.19.11.19.28,0,.39a.74.74,0,0,1-.68,0c-.19-.11-.19-.28,0-.39A.74.74,0,0,1,278.72,519.24Z" transform="translate(-205 -478.61)"/><path class="cls-2" d="M280.5,518.21c.19.11.19.29,0,.39a.74.74,0,0,1-.68,0c-.19-.1-.19-.28,0-.39A.74.74,0,0,1,280.5,518.21Z" transform="translate(-205 -478.61)"/><path class="cls-2" d="M282.28,517.58a.81.81,0,0,1-.68,0,.21.21,0,0,1,0-.4C281.79,517.07,282.47,517.47,282.28,517.58Z" transform="translate(-205 -478.61)"/><path class="cls-2" d="M264.47,525.41c.19.11.19.28,0,.39a.74.74,0,0,1-.68,0c-.19-.11-.19-.28,0-.39A.74.74,0,0,1,264.47,525.41Z" transform="translate(-205 -478.61)"/><path class="cls-2" d="M266.25,524.38a.21.21,0,0,1,0,.4.81.81,0,0,1-.68,0,.21.21,0,0,1,0-.4A.74.74,0,0,1,266.25,524.38Z" transform="translate(-205 -478.61)"/><path class="cls-2" d="M268,523.35a.21.21,0,0,1,0,.4.74.74,0,0,1-.68,0,.21.21,0,0,1,0-.4A.74.74,0,0,1,268,523.35Z" transform="translate(-205 -478.61)"/><path class="cls-2" d="M269.81,522.32a.21.21,0,0,1,0,.4.74.74,0,0,1-.68,0,.21.21,0,0,1,0-.4A.81.81,0,0,1,269.81,522.32Z" transform="translate(-205 -478.61)"/><path class="cls-2" d="M271.59,521.3c.19.11.19.28,0,.39a.74.74,0,0,1-.68,0c-.19-.11-.19-.28,0-.39A.74.74,0,0,1,271.59,521.3Z" transform="translate(-205 -478.61)"/><ellipse class="cls-2" cx="68.03" cy="41.85" rx="0.48" ry="0.28"/><path class="cls-2" d="M275.16,519.24a.21.21,0,0,1,0,.39.76.76,0,0,1-.69,0,.21.21,0,0,1,0-.39A.76.76,0,0,1,275.16,519.24Z" transform="translate(-205 -478.61)"/><path class="cls-2" d="M276.94,518.21a.21.21,0,0,1,0,.39.74.74,0,0,1-.68,0c-.19-.1-.19-.28,0-.39A.74.74,0,0,1,276.94,518.21Z" transform="translate(-205 -478.61)"/><path class="cls-2" d="M278,517.18a.74.74,0,0,1,.68,0,.21.21,0,0,1,0,.4.81.81,0,0,1-.68,0,.21.21,0,0,1,0-.4Z" transform="translate(-205 -478.61)"/><path class="cls-2" d="M262.69,524.38a.22.22,0,0,1,0,.4.81.81,0,0,1-.68,0,.21.21,0,0,1,0-.4A.74.74,0,0,1,262.69,524.38Z" transform="translate(-205 -478.61)"/><path class="cls-2" d="M264.47,523.35a.21.21,0,0,1,0,.4.74.74,0,0,1-.68,0,.21.21,0,0,1,0-.4A.74.74,0,0,1,264.47,523.35Z" transform="translate(-205 -478.61)"/><ellipse class="cls-2" cx="60.91" cy="43.91" rx="0.48" ry="0.28"/><ellipse class="cls-2" cx="55.55" cy="44.93" rx="0.48" ry="0.28"/><path class="cls-2" d="M262.67,522.31a.21.21,0,0,1,0,.4.74.74,0,0,1-.68,0,.21.21,0,0,1,0-.4A.81.81,0,0,1,262.67,522.31Z" transform="translate(-205 -478.61)"/><path class="cls-2" d="M264.45,521.29c.19.1.19.28,0,.39a.74.74,0,0,1-.68,0c-.19-.11-.19-.29,0-.39A.74.74,0,0,1,264.45,521.29Z" transform="translate(-205 -478.61)"/><path class="cls-2" d="M259.11,522.31a.21.21,0,0,1,0,.4.74.74,0,0,1-.68,0,.21.21,0,0,1,0-.4A.81.81,0,0,1,259.11,522.31Z" transform="translate(-205 -478.61)"/><path class="cls-2" d="M260.89,521.29c.19.1.19.28,0,.39a.74.74,0,0,1-.68,0c-.19-.11-.19-.29,0-.39A.74.74,0,0,1,260.89,521.29Z" transform="translate(-205 -478.61)"/><path class="cls-2" d="M262.67,520.26c.19.11.19.28,0,.39a.74.74,0,0,1-.68,0c-.19-.11-.19-.28,0-.39A.74.74,0,0,1,262.67,520.26Z" transform="translate(-205 -478.61)"/><path class="cls-2" d="M259.11,520.26c.19.11.19.28,0,.39a.74.74,0,0,1-.68,0c-.19-.11-.19-.28,0-.39A.74.74,0,0,1,259.11,520.26Z" transform="translate(-205 -478.61)"/><path class="cls-2" d="M260.89,519.23c.19.11.19.28,0,.39a.74.74,0,0,1-.68,0c-.19-.11-.19-.28,0-.39A.74.74,0,0,1,260.89,519.23Z" transform="translate(-205 -478.61)"/><path class="cls-2" d="M259.11,518.2c.19.11.19.29,0,.39a.74.74,0,0,1-.68,0c-.19-.1-.19-.28,0-.39A.74.74,0,0,1,259.11,518.2Z" transform="translate(-205 -478.61)"/><path class="cls-2" d="M303,521.32a.74.74,0,0,1,.68,0c.19.11.19.29,0,.39a.77.77,0,0,1-.68,0A.21.21,0,0,1,303,521.32Z" transform="translate(-205 -478.61)"/><path class="cls-2" d="M305.46,520.29a.22.22,0,0,1,0,.4.81.81,0,0,1-.68,0,.21.21,0,0,1,0-.4A.74.74,0,0,1,305.46,520.29Z" transform="translate(-205 -478.61)"/><path class="cls-2" d="M307.24,519.26a.21.21,0,0,1,0,.4.74.74,0,0,1-.68,0,.21.21,0,0,1,0-.4A.81.81,0,0,1,307.24,519.26Z" transform="translate(-205 -478.61)"/><path class="cls-2" d="M301.21,520.29a.74.74,0,0,1,.68,0,.21.21,0,0,1,0,.4.77.77,0,0,1-.68,0A.21.21,0,0,1,301.21,520.29Z" transform="translate(-205 -478.61)"/><path class="cls-2" d="M303.68,519.26a.22.22,0,0,1,0,.4.76.76,0,0,1-.69,0,.22.22,0,0,1,0-.4A.83.83,0,0,1,303.68,519.26Z" transform="translate(-205 -478.61)"/><path class="cls-2" d="M305.46,518.24a.21.21,0,0,1,0,.39.74.74,0,0,1-.68,0c-.19-.11-.19-.29,0-.39A.74.74,0,0,1,305.46,518.24Z" transform="translate(-205 -478.61)"/><path class="cls-2" d="M307.24,517.21c.19.11.19.28,0,.39a.74.74,0,0,1-.68,0c-.19-.11-.19-.28,0-.39A.74.74,0,0,1,307.24,517.21Z" transform="translate(-205 -478.61)"/><path class="cls-2" d="M299.43,519.27a.77.77,0,0,1,.68,0,.21.21,0,0,1,0,.4.74.74,0,0,1-.68,0C299.24,519.55,299.24,519.37,299.43,519.27Z" transform="translate(-205 -478.61)"/><ellipse class="cls-2" cx="96.55" cy="39.82" rx="0.48" ry="0.28"/><ellipse class="cls-2" cx="98.34" cy="38.79" rx="0.48" ry="0.28"/><path class="cls-2" d="M305.46,516.18a.21.21,0,0,1,0,.39.74.74,0,0,1-.68,0c-.19-.11-.19-.28,0-.39A.74.74,0,0,1,305.46,516.18Z" transform="translate(-205 -478.61)"/><path class="cls-2" d="M297.63,518.23a.74.74,0,0,1,.68,0,.21.21,0,0,1,0,.39.76.76,0,0,1-.69,0,.21.21,0,0,1,0-.39Z" transform="translate(-205 -478.61)"/><path class="cls-2" d="M300.1,517.2c.19.1.19.28,0,.39a.74.74,0,0,1-.68,0c-.19-.11-.19-.29,0-.39A.74.74,0,0,1,300.1,517.2Z" transform="translate(-205 -478.61)"/><ellipse class="cls-2" cx="96.54" cy="37.75" rx="0.48" ry="0.28"/><ellipse class="cls-2" cx="98.32" cy="36.73" rx="0.48" ry="0.28"/><polygon class="cls-1" points="54.63 29.16 54.63 38.84 62.23 43.23 62.23 33.54 54.63 29.16"/><path class="cls-1" d="M297.09,506.61l-8.51,1.88L278,506.85l-1.44-.08v9.69l2.13,1.23a21.68,21.68,0,0,0,10.47,3.07,18.83,18.83,0,0,0,10-2.59c2.55-1.47,3.86-3,4-4.74h0v-9.71Z" transform="translate(-205 -478.61)"/><path class="cls-2" d="M303.53,503.14l-.36.17-.36.17-.14.07-5.7,2.7-8.4,1.86L278,506.47l-1.35-.07h-.21l-.28,0v10.3h0l.37.22,1.95,1.12a26.15,26.15,0,0,0,3,1.46l.57.23c.49.19,1,.37,1.49.51h0c.22.08.43.14.65.2a20.51,20.51,0,0,0,5,.73h.45a19.32,19.32,0,0,0,4.44-.51l.83-.22a19.7,19.7,0,0,0,4.53-1.92,10.33,10.33,0,0,0,3.23-2.67h0a3.64,3.64,0,0,0,.24-.35c.07-.12.14-.23.2-.35a4.12,4.12,0,0,0,.44-1.41l0-9v-1.58Zm-.73,10.27a4.14,4.14,0,0,1-1.42,2.7,2.87,2.87,0,0,1-.31.29,9.59,9.59,0,0,1-1,.79l-.62.41-.41.24c-.24.14-.47.27-.71.39h0l-.71.36c-.45.21-.88.41-1.34.58h0l-.5.18a18.23,18.23,0,0,1-4.48,1h0l-.86,0c-.41,0-.82,0-1.23,0s-1,0-1.49-.09h0l-.61-.07-.26,0a21.8,21.8,0,0,1-6.23-1.94l-.12-.06h0c-.51-.26-1-.52-1.54-.82l0,0-.41-.23h0l-1.49-.86v-9.08l.34,0,.67,0,.21,0,10.44,1.62,8.58-1.89,5.53-2.62.1-.05Z" transform="translate(-205 -478.61)"/><path class="cls-1" d="M303.17,503.31a.67.67,0,0,0,0-.2q-.35-2.88-5.68-6l-9.73-5.62-28.12,16.24,2,1.16,5.59,3.22,8.95-5.16.38-.22.71.41,1.42.82a22.44,22.44,0,0,0,8.1,2.88,18.94,18.94,0,0,0,2.37.2c.47,0,.93,0,1.39,0h.07a19,19,0,0,0,8.59-2.59,11.55,11.55,0,0,0,2.24-1.6l.05,0a6.75,6.75,0,0,0,1-1.19l0,0c.09-.15.17-.3.25-.45a4.11,4.11,0,0,0,.29-.78,3.74,3.74,0,0,0,.09-.66A1.88,1.88,0,0,0,303.17,503.31Zm-11.69.75a7.1,7.1,0,0,1-3.66.95,7.44,7.44,0,0,1-3-.68,6.89,6.89,0,0,1-.66-.34l-1.39-.8,6.46-3.73,2,1.13c1.72,1,2.1,2,1.13,2.87A4.58,4.58,0,0,1,291.48,504.06Z" transform="translate(-205 -478.61)"/><path class="cls-3" d="M303.34,505.32a2,2,0,0,0-.06-.34.94.94,0,0,0,0-.16h0a1,1,0,0,0-.06-.18,1.06,1.06,0,0,0-.09-.25,3.82,3.82,0,0,0-.23-.51l-.06-.1a1.59,1.59,0,0,0-.13-.22,14.24,14.24,0,0,0-5-4.19l-9.73-5.62-25.93,15-.37.22-.37.22-1.26.72-.19.11.19.11,6.84,3.94.38.22.19.11.18-.1,8.58-4.95.38-.22.19-.11.18.1,1.95,1.13a22.3,22.3,0,0,0,7.91,2.85,18.31,18.31,0,0,0,2.55.23,18.94,18.94,0,0,0,10.06-2.6,9.22,9.22,0,0,0,3.4-3,4,4,0,0,0,.38-.82A3.49,3.49,0,0,0,303.34,505.32Zm-18.94-.77h0l.39-.22,4.6-2.66,2,1.13a6,6,0,0,1,.95.66,2.23,2.23,0,0,1,.27.26c.81.88.51,1.73-.91,2.55a7,7,0,0,1-3.66,1,7.5,7.5,0,0,1-3.69-1l-1.38-.8Z" transform="translate(-205 -478.61)"/><path class="cls-2" d="M291.36,500.27,289.21,499,282,503.19l1.95,1.12.45.24h0a7.68,7.68,0,0,0,3.4.83h.12a7.33,7.33,0,0,0,3.74-1,4.55,4.55,0,0,0,.91-.66,1.74,1.74,0,0,0,.63-1.26C293.21,501.7,292.6,501,291.36,500.27Z" transform="translate(-205 -478.61)"/><path class="cls-2" d="M276.56,506.33l-.1.06h.21Zm0,0-.1.06h.21Zm0,0-.1.06h.21Zm27-3.19s0-.05,0-.07c-.25-2.07-2.17-4.11-5.86-6.24l-9.92-5.73-28.12,16.23-.37.22v10.12l7.59,4.39.38.21.37-.21,9-5.17.37-.22v-9.25l1.58.9a22.79,22.79,0,0,0,8.28,2.94,20.66,20.66,0,0,0,2.36.19,19.19,19.19,0,0,0,7.43-1.3h0l.06,0a20,20,0,0,0,2.72-1.31c.3-.18.59-.35.86-.53a8.91,8.91,0,0,0,2.54-2.38,4.18,4.18,0,0,0,.38-.68,2.29,2.29,0,0,0,.1-.23,2.06,2.06,0,0,0,.12-.35h0a3.24,3.24,0,0,0,.15-.87v-.38A.93.93,0,0,0,303.53,503.14Zm-4.5,5a18.76,18.76,0,0,1-9.87,2.55,21.43,21.43,0,0,1-10.28-3l-.73-.42-.76-.43h0l-.43-.26-.26-.15-.11-.07-.1.06-.28.16-8.95,5.17-5.22-3-1.63-.94L287.75,492l9.55,5.51c3.42,2,5.27,3.9,5.49,5.69,0,.1,0,.22,0,.32a2.71,2.71,0,0,1,0,.29c0,.05,0,.09,0,.13h0a3.58,3.58,0,0,1-.09.45C302.33,505.68,301.11,507,299,508.15Zm-32.18,13-6.84-4v-8.82l1.26.73,5.58,3.22Zm9.33-5-8.58,5v-8.82l8.58-4.95Zm.38-9.91-.1.06h.21Zm0,0-.1.06h.21Z" transform="translate(-205 -478.61)"/><polygon class="cls-2" points="81.79 32.23 81.79 41.96 87.25 42.16 93.83 39.9 97.64 37.2 98.12 34.02 98.56 25.84 95.26 29.66 91.62 31.52 86.79 32.52 81.79 32.23"/><polygon class="cls-2" points="71.56 28.16 71.56 37.84 62.23 43.23 62.23 33.54 71.56 28.16"/></g><g id="L"><path class="cls-2" d="M335.24,538.07c.19.1.19.28,0,.39a.74.74,0,0,1-.68,0c-.19-.11-.19-.29,0-.39A.74.74,0,0,1,335.24,538.07Z" transform="translate(-205 -478.61)"/><ellipse class="cls-2" cx="131.68" cy="58.62" rx="0.48" ry="0.28"/><path class="cls-2" d="M338.8,536c.19.11.19.28,0,.39a.74.74,0,0,1-.68,0,.21.21,0,0,1,0-.39A.74.74,0,0,1,338.8,536Z" transform="translate(-205 -478.61)"/><path class="cls-2" d="M340.59,535a.21.21,0,0,1,0,.39.76.76,0,0,1-.69,0,.21.21,0,0,1,0-.39A.76.76,0,0,1,340.59,535Z" transform="translate(-205 -478.61)"/><path class="cls-2" d="M333.46,537c.19.11.19.28,0,.39a.74.74,0,0,1-.68,0c-.19-.11-.19-.28,0-.39A.74.74,0,0,1,333.46,537Z" transform="translate(-205 -478.61)"/><ellipse class="cls-2" cx="129.9" cy="57.6" rx="0.48" ry="0.28"/><path class="cls-2" d="M337,535c.19.11.19.29,0,.39a.74.74,0,0,1-.68,0c-.19-.1-.19-.28,0-.39A.74.74,0,0,1,337,535Z" transform="translate(-205 -478.61)"/><path class="cls-2" d="M331.68,536c.19.11.19.28,0,.39a.74.74,0,0,1-.68,0c-.19-.11-.19-.28,0-.39A.74.74,0,0,1,331.68,536Z" transform="translate(-205 -478.61)"/><ellipse class="cls-2" cx="128.12" cy="56.57" rx="0.48" ry="0.28"/><ellipse class="cls-2" cx="129.9" cy="55.54" rx="0.48" ry="0.28"/><ellipse class="cls-2" cx="124.56" cy="56.57" rx="0.48" ry="0.28"/><ellipse class="cls-2" cx="126.34" cy="55.54" rx="0.48" ry="0.28"/><ellipse class="cls-2" cx="128.12" cy="54.51" rx="0.48" ry="0.28"/><path class="cls-2" d="M328.12,534a.21.21,0,0,1,0,.4.81.81,0,0,1-.68,0,.21.21,0,0,1,0-.4A.74.74,0,0,1,328.12,534Z" transform="translate(-205 -478.61)"/><path class="cls-2" d="M329.9,532.92a.21.21,0,0,1,0,.4.74.74,0,0,1-.68,0,.21.21,0,0,1,0-.4A.81.81,0,0,1,329.9,532.92Z" transform="translate(-205 -478.61)"/><path class="cls-2" d="M331.68,531.9c.19.1.19.28,0,.39a.74.74,0,0,1-.68,0c-.19-.11-.19-.29,0-.39A.74.74,0,0,1,331.68,531.9Z" transform="translate(-205 -478.61)"/><ellipse class="cls-2" cx="120.98" cy="54.5" rx="0.48" ry="0.28"/><ellipse class="cls-2" cx="122.76" cy="53.47" rx="0.48" ry="0.28"/><path class="cls-2" d="M329.88,530.86c.19.11.19.28,0,.39a.74.74,0,0,1-.68,0c-.19-.11-.19-.28,0-.39A.74.74,0,0,1,329.88,530.86Z" transform="translate(-205 -478.61)"/><path class="cls-2" d="M324.54,531.89c.19.1.19.28,0,.39a.74.74,0,0,1-.68,0c-.19-.11-.19-.29,0-.39A.74.74,0,0,1,324.54,531.89Z" transform="translate(-205 -478.61)"/><path class="cls-2" d="M326.32,530.86c.19.11.19.28,0,.39a.74.74,0,0,1-.68,0c-.19-.11-.19-.28,0-.39A.74.74,0,0,1,326.32,530.86Z" transform="translate(-205 -478.61)"/><ellipse class="cls-2" cx="122.76" cy="51.42" rx="0.48" ry="0.28"/><ellipse class="cls-2" cx="117.42" cy="52.44" rx="0.48" ry="0.28"/><path class="cls-2" d="M324.54,529.83c.19.11.19.28,0,.39a.74.74,0,0,1-.68,0c-.19-.11-.19-.28,0-.39A.74.74,0,0,1,324.54,529.83Z" transform="translate(-205 -478.61)"/><path class="cls-2" d="M326.32,528.8c.19.11.19.28,0,.39a.74.74,0,0,1-.68,0c-.19-.11-.19-.28,0-.39A.74.74,0,0,1,326.32,528.8Z" transform="translate(-205 -478.61)"/><path class="cls-2" d="M321,529.83c.19.11.19.28,0,.39a.74.74,0,0,1-.68,0c-.19-.11-.19-.28,0-.39A.74.74,0,0,1,321,529.83Z" transform="translate(-205 -478.61)"/><path class="cls-2" d="M322.76,528.8c.19.11.19.28,0,.39a.74.74,0,0,1-.68,0c-.19-.11-.19-.28,0-.39A.74.74,0,0,1,322.76,528.8Z" transform="translate(-205 -478.61)"/><path class="cls-2" d="M324.54,527.77a.21.21,0,0,1,0,.4.81.81,0,0,1-.68,0,.21.21,0,0,1,0-.4A.74.74,0,0,1,324.54,527.77Z" transform="translate(-205 -478.61)"/><path class="cls-2" d="M319.2,528.8a.21.21,0,0,1,0,.39.76.76,0,0,1-.69,0,.21.21,0,0,1,0-.39A.76.76,0,0,1,319.2,528.8Z" transform="translate(-205 -478.61)"/><path class="cls-2" d="M321,527.77a.21.21,0,0,1,0,.4.81.81,0,0,1-.68,0,.21.21,0,0,1,0-.4A.74.74,0,0,1,321,527.77Z" transform="translate(-205 -478.61)"/><path class="cls-2" d="M322.76,526.74a.21.21,0,0,1,0,.4.74.74,0,0,1-.68,0,.21.21,0,0,1,0-.4A.74.74,0,0,1,322.76,526.74Z" transform="translate(-205 -478.61)"/><path class="cls-2" d="M317.41,527.77a.21.21,0,0,1,0,.4.81.81,0,0,1-.68,0,.22.22,0,0,1,0-.4A.74.74,0,0,1,317.41,527.77Z" transform="translate(-205 -478.61)"/><ellipse class="cls-2" cx="113.86" cy="48.33" rx="0.48" ry="0.28"/><path class="cls-2" d="M321,525.72c.19.1.19.28,0,.39a.74.74,0,0,1-.68,0c-.19-.11-.19-.29,0-.39A.74.74,0,0,1,321,525.72Z" transform="translate(-205 -478.61)"/><path class="cls-2" d="M317.41,525.72c.19.1.19.28,0,.39a.74.74,0,0,1-.68,0,.21.21,0,0,1,0-.39A.74.74,0,0,1,317.41,525.72Z" transform="translate(-205 -478.61)"/><path class="cls-2" d="M319.2,524.69a.21.21,0,0,1,0,.39.76.76,0,0,1-.69,0,.21.21,0,0,1,0-.39A.76.76,0,0,1,319.2,524.69Z" transform="translate(-205 -478.61)"/><path class="cls-2" d="M321,524.05a.74.74,0,0,1-.68,0c-.19-.11-.19-.28,0-.39S321.17,523.94,321,524.05Z" transform="translate(-205 -478.61)"/><path class="cls-2" d="M317.41,523.66c.19.11.19.28,0,.39a.74.74,0,0,1-.68,0,.21.21,0,0,1,0-.39A.74.74,0,0,1,317.41,523.66Z" transform="translate(-205 -478.61)"/><ellipse class="cls-2" cx="137.1" cy="61.55" rx="0.48" ry="0.28"/><path class="cls-2" d="M344.22,538.93c.19.11.19.28,0,.39a.74.74,0,0,1-.68,0c-.19-.11-.19-.28,0-.39A.74.74,0,0,1,344.22,538.93Z" transform="translate(-205 -478.61)"/><ellipse class="cls-2" cx="140.66" cy="59.49" rx="0.48" ry="0.28"/><ellipse class="cls-2" cx="133.53" cy="61.55" rx="0.48" ry="0.28"/><path class="cls-2" d="M340.66,538.93a.21.21,0,0,1,0,.39.76.76,0,0,1-.69,0,.21.21,0,0,1,0-.39A.76.76,0,0,1,340.66,538.93Z" transform="translate(-205 -478.61)"/><path class="cls-2" d="M342.44,537.9a.21.21,0,0,1,0,.4.81.81,0,0,1-.68,0,.21.21,0,0,1,0-.4A.74.74,0,0,1,342.44,537.9Z" transform="translate(-205 -478.61)"/><path class="cls-2" d="M344.22,536.87a.21.21,0,0,1,0,.4.74.74,0,0,1-.68,0,.21.21,0,0,1,0-.4A.74.74,0,0,1,344.22,536.87Z" transform="translate(-205 -478.61)"/><path class="cls-2" d="M337.09,538.93c.19.11.19.28,0,.39a.74.74,0,0,1-.68,0c-.19-.11-.19-.28,0-.39A.74.74,0,0,1,337.09,538.93Z" transform="translate(-205 -478.61)"/><ellipse class="cls-2" cx="133.53" cy="59.49" rx="0.48" ry="0.28"/><ellipse class="cls-2" cx="135.32" cy="58.46" rx="0.48" ry="0.28"/><ellipse class="cls-2" cx="137.1" cy="57.43" rx="0.48" ry="0.28"/><path class="cls-2" d="M342.38,534c.19.11.19.29,0,.39a.74.74,0,0,1-.68,0c-.19-.1-.19-.28,0-.39A.74.74,0,0,1,342.38,534Z" transform="translate(-205 -478.61)"/><path class="cls-2" d="M344.16,532.93a.21.21,0,0,1,0,.4.74.74,0,0,1-.68,0,.21.21,0,0,1,0-.4A.74.74,0,0,1,344.16,532.93Z" transform="translate(-205 -478.61)"/><ellipse class="cls-2" cx="140.6" cy="53.49" rx="0.48" ry="0.28"/><path class="cls-2" d="M347.73,530.88a.21.21,0,0,1,0,.39.76.76,0,0,1-.69,0,.21.21,0,0,1,0-.39A.76.76,0,0,1,347.73,530.88Z" transform="translate(-205 -478.61)"/><ellipse class="cls-2" cx="144.17" cy="51.43" rx="0.48" ry="0.28"/><path class="cls-2" d="M340.6,532.93a.21.21,0,0,1,0,.4.74.74,0,0,1-.68,0C339.73,533.22,340.41,532.83,340.6,532.93Z" transform="translate(-205 -478.61)"/><path class="cls-2" d="M342.38,531.9a.21.21,0,0,1,0,.4.74.74,0,0,1-.68,0C341.51,532.19,342.19,531.8,342.38,531.9Z" transform="translate(-205 -478.61)"/><path class="cls-2" d="M345.94,529.85c.19.11.19.28,0,.39a.74.74,0,0,1-.68,0C345.07,530.13,345.76,529.74,345.94,529.85Z" transform="translate(-205 -478.61)"/><path class="cls-2" d="M347,528.82a.76.76,0,0,1,.69,0,.21.21,0,0,1,0,.39.76.76,0,0,1-.69,0,.21.21,0,0,1,0-.39Z" transform="translate(-205 -478.61)"/><path class="cls-2" d="M347.11,536.88a.74.74,0,0,1,.68,0,.21.21,0,0,1,0,.4.77.77,0,0,1-.68,0A.21.21,0,0,1,347.11,536.88Z" transform="translate(-205 -478.61)"/><path class="cls-2" d="M349.58,535.85a.22.22,0,0,1,0,.4.76.76,0,0,1-.69,0,.22.22,0,0,1,0-.4A.83.83,0,0,1,349.58,535.85Z" transform="translate(-205 -478.61)"/><path class="cls-2" d="M351.36,534.83c.19.1.19.28,0,.39a.74.74,0,0,1-.68,0c-.19-.11-.19-.29,0-.39A.74.74,0,0,1,351.36,534.83Z" transform="translate(-205 -478.61)"/><ellipse class="cls-2" cx="147.8" cy="55.38" rx="0.48" ry="0.28"/><path class="cls-2" d="M345.33,535.85a.81.81,0,0,1,.68,0,.21.21,0,0,1,0,.4.74.74,0,0,1-.68,0A.21.21,0,0,1,345.33,535.85Z" transform="translate(-205 -478.61)"/><ellipse class="cls-2" cx="142.45" cy="56.41" rx="0.48" ry="0.28"/><path class="cls-2" d="M349.58,533.8a.21.21,0,0,1,0,.39.76.76,0,0,1-.69,0,.21.21,0,0,1,0-.39A.76.76,0,0,1,349.58,533.8Z" transform="translate(-205 -478.61)"/><path class="cls-2" d="M351.36,532.77c.19.11.19.28,0,.39a.74.74,0,0,1-.68,0c-.19-.11-.19-.28,0-.39A.74.74,0,0,1,351.36,532.77Z" transform="translate(-205 -478.61)"/><path class="cls-2" d="M353.14,531.74c.19.11.19.28,0,.39a.74.74,0,0,1-.68,0c-.19-.11-.19-.28,0-.39A.74.74,0,0,1,353.14,531.74Z" transform="translate(-205 -478.61)"/><path class="cls-2" d="M343.55,534.83a.74.74,0,0,1,.68,0c.19.1.19.28,0,.39a.74.74,0,0,1-.68,0C343.36,535.11,343.36,534.94,343.55,534.83Z" transform="translate(-205 -478.61)"/><path class="cls-2" d="M346,533.8c.19.11.19.28,0,.39a.74.74,0,0,1-.68,0c-.19-.11-.19-.28,0-.39A.74.74,0,0,1,346,533.8Z" transform="translate(-205 -478.61)"/><path class="cls-2" d="M347.8,532.77a.21.21,0,0,1,0,.39.76.76,0,0,1-.69,0,.21.21,0,0,1,0-.39A.76.76,0,0,1,347.8,532.77Z" transform="translate(-205 -478.61)"/><path class="cls-2" d="M349.58,531.74a.21.21,0,0,1,0,.39.76.76,0,0,1-.69,0,.21.21,0,0,1,0-.39A.76.76,0,0,1,349.58,531.74Z" transform="translate(-205 -478.61)"/><path class="cls-2" d="M351.36,530.71a.21.21,0,0,1,0,.4.81.81,0,0,1-.68,0,.21.21,0,0,1,0-.4A.74.74,0,0,1,351.36,530.71Z" transform="translate(-205 -478.61)"/><path class="cls-1" d="M328.49,520.43,325.94,519V489.61L319.7,486l-2.54-1.47v37.55l3,1.74.53.3,17.77,10.27v-8.2Z" transform="translate(-205 -478.61)"/><polygon class="cls-1" points="112.16 5.92 121.67 0.43 130.45 5.5 120.94 10.99 112.16 5.92"/><polygon class="cls-1" points="130.45 34.86 142.98 42.09 133.47 47.58 120.94 40.35 130.45 34.86"/><polygon class="cls-3" points="112.16 8.86 121.67 3.37 130.45 8.44 120.94 13.93 112.16 8.86"/><polygon class="cls-3" points="130.45 37.8 142.98 45.03 133.47 50.52 120.94 43.29 130.45 37.8"/><path class="cls-2" d="M348,520.27l-12.15-7V483.9l-.38-.22-8.78-5.07-9.51,5.49-.38.22v38l21.31,12.3.38.22.37-.22,9.51-5.49v-8.63Zm-9.89,13.47-20.56-11.87V485.18l1.8,1,6.24,3.6v29.36l.37.22,2.17,1.25,10,5.76Zm-11.42-54.27,8,4.64-2.17,1.25-6.59,3.81-5.86-3.39-2.17-1.25ZM345.06,522l-6.59,3.81-9.61-5.55L326.69,519l8.76-5.06,11.78,6.8Z" transform="translate(-205 -478.61)"/></g><g id="A"><path class="cls-2" d="M371.68,527.86a.21.21,0,0,1,0,.39.74.74,0,0,1-.68,0c-.19-.1-.19-.28,0-.39A.74.74,0,0,1,371.68,527.86Z" transform="translate(-205 -478.61)"/><ellipse class="cls-2" cx="168.12" cy="48.42" rx="0.48" ry="0.28"/><path class="cls-2" d="M375.24,525.8a.21.21,0,0,1,0,.4.74.74,0,0,1-.68,0,.21.21,0,0,1,0-.4A.81.81,0,0,1,375.24,525.8Z" transform="translate(-205 -478.61)"/><path class="cls-2" d="M377,524.78c.19.1.19.28,0,.39a.74.74,0,0,1-.68,0c-.19-.11-.19-.29,0-.39A.74.74,0,0,1,377,524.78Z" transform="translate(-205 -478.61)"/><path class="cls-2" d="M378.8,523.75c.19.11.19.28,0,.39a.74.74,0,0,1-.68,0c-.19-.11-.19-.28,0-.39a.74.74,0,0,1,.68,0Z" transform="translate(-205 -478.61)"/><ellipse class="cls-2" cx="184.15" cy="39.16" rx="0.48" ry="0.28"/><ellipse class="cls-2" cx="185.93" cy="38.14" rx="0.48" ry="0.28"/><path class="cls-2" d="M393.05,515.52c.19.11.19.29,0,.39a.74.74,0,0,1-.68,0c-.19-.1-.19-.28,0-.39A.74.74,0,0,1,393.05,515.52Z" transform="translate(-205 -478.61)"/><path class="cls-2" d="M394.83,514.49a.21.21,0,0,1,0,.4.81.81,0,0,1-.68,0,.21.21,0,0,1,0-.4A.74.74,0,0,1,394.83,514.49Z" transform="translate(-205 -478.61)"/><path class="cls-2" d="M369.9,526.83a.22.22,0,0,1,0,.4.83.83,0,0,1-.69,0,.22.22,0,0,1,0-.4A.76.76,0,0,1,369.9,526.83Z" transform="translate(-205 -478.61)"/><ellipse class="cls-2" cx="166.34" cy="47.39" rx="0.48" ry="0.28"/><ellipse class="cls-2" cx="168.12" cy="46.36" rx="0.48" ry="0.28"/><ellipse class="cls-2" cx="169.9" cy="45.33" rx="0.48" ry="0.28"/><ellipse class="cls-2" cx="171.68" cy="44.31" rx="0.48" ry="0.28"/><path class="cls-2" d="M389.49,515.52c.19.11.19.29,0,.39a.74.74,0,0,1-.68,0c-.19-.1-.19-.28,0-.39A.74.74,0,0,1,389.49,515.52Z" transform="translate(-205 -478.61)"/><path class="cls-2" d="M391.27,514.49a.21.21,0,0,1,0,.4.81.81,0,0,1-.68,0,.21.21,0,0,1,0-.4A.74.74,0,0,1,391.27,514.49Z" transform="translate(-205 -478.61)"/><path class="cls-2" d="M393.05,513.46a.21.21,0,0,1,0,.4.74.74,0,0,1-.68,0,.21.21,0,0,1,0-.4A.81.81,0,0,1,393.05,513.46Z" transform="translate(-205 -478.61)"/><ellipse class="cls-2" cx="164.55" cy="46.36" rx="0.48" ry="0.28"/><path class="cls-2" d="M371.68,523.75a.21.21,0,0,1,0,.39.74.74,0,0,1-.68,0c-.19-.11-.19-.28,0-.39A.74.74,0,0,1,371.68,523.75Z" transform="translate(-205 -478.61)"/><path class="cls-2" d="M373.46,522.72c.19.11.19.28,0,.39a.74.74,0,0,1-.68,0c-.19-.11-.19-.28,0-.39A.74.74,0,0,1,373.46,522.72Z" transform="translate(-205 -478.61)"/><path class="cls-2" d="M375.24,521.69c.19.11.19.29,0,.39a.74.74,0,0,1-.68,0c-.19-.1-.19-.28,0-.39A.74.74,0,0,1,375.24,521.69Z" transform="translate(-205 -478.61)"/><path class="cls-2" d="M389.49,513.46a.21.21,0,0,1,0,.4.74.74,0,0,1-.68,0C388.62,513.75,389.3,513.36,389.49,513.46Z" transform="translate(-205 -478.61)"/><path class="cls-2" d="M391.27,512.44c.19.1.19.28,0,.39a.74.74,0,0,1-.68,0C390.4,512.72,391.08,512.33,391.27,512.44Z" transform="translate(-205 -478.61)"/><path class="cls-2" d="M368.11,523.75c.19.11.19.28,0,.39a.74.74,0,0,1-.68,0c-.19-.11-.19-.28,0-.39A.74.74,0,0,1,368.11,523.75Z" transform="translate(-205 -478.61)"/><path class="cls-2" d="M369.9,522.72a.21.21,0,0,1,0,.39.76.76,0,0,1-.69,0,.21.21,0,0,1,0-.39A.76.76,0,0,1,369.9,522.72Z" transform="translate(-205 -478.61)"/><path class="cls-2" d="M371.68,521.69a.21.21,0,0,1,0,.39.74.74,0,0,1-.68,0c-.19-.1-.19-.28,0-.39A.74.74,0,0,1,371.68,521.69Z" transform="translate(-205 -478.61)"/><ellipse class="cls-2" cx="168.12" cy="42.25" rx="0.48" ry="0.28"/><path class="cls-2" d="M375.24,519.63a.21.21,0,0,1,0,.4.74.74,0,0,1-.68,0,.21.21,0,0,1,0-.4.81.81,0,0,1,.68,0Z" transform="translate(-205 -478.61)"/><ellipse class="cls-2" cx="160.99" cy="44.31" rx="0.48" ry="0.28"/><path class="cls-2" d="M368.11,521.69c.19.11.19.29,0,.39a.74.74,0,0,1-.68,0c-.19-.1-.19-.28,0-.39A.74.74,0,0,1,368.11,521.69Z" transform="translate(-205 -478.61)"/><path class="cls-2" d="M369.9,520.66a.22.22,0,0,1,0,.4.83.83,0,0,1-.69,0,.22.22,0,0,1,0-.4A.76.76,0,0,1,369.9,520.66Z" transform="translate(-205 -478.61)"/><ellipse class="cls-2" cx="166.34" cy="41.22" rx="0.48" ry="0.28"/><ellipse class="cls-2" cx="168.12" cy="40.19" rx="0.48" ry="0.28"/><path class="cls-2" d="M366.32,520.65a.21.21,0,0,1,0,.4.81.81,0,0,1-.68,0,.21.21,0,0,1,0-.4A.74.74,0,0,1,366.32,520.65Z" transform="translate(-205 -478.61)"/><ellipse class="cls-2" cx="162.76" cy="41.21" rx="0.48" ry="0.28"/><ellipse class="cls-2" cx="164.54" cy="40.18" rx="0.48" ry="0.28"/><path class="cls-2" d="M371.66,517.57c.19.11.19.28,0,.39a.74.74,0,0,1-.68,0c-.19-.11-.19-.28,0-.39A.74.74,0,0,1,371.66,517.57Z" transform="translate(-205 -478.61)"/><ellipse class="cls-2" cx="159.2" cy="41.21" rx="0.48" ry="0.28"/><path class="cls-2" d="M366.32,518.6c.19.1.19.28,0,.39a.74.74,0,0,1-.68,0c-.19-.11-.19-.29,0-.39A.74.74,0,0,1,366.32,518.6Z" transform="translate(-205 -478.61)"/><path class="cls-2" d="M368.1,517.57c.19.11.19.28,0,.39a.74.74,0,0,1-.68,0c-.19-.11-.19-.28,0-.39A.74.74,0,0,1,368.1,517.57Z" transform="translate(-205 -478.61)"/><ellipse class="cls-2" cx="164.54" cy="38.12" rx="0.48" ry="0.28"/><path class="cls-2" d="M371.66,515.9a.74.74,0,0,1-.68,0c-.19-.11-.19-.28,0-.39a.74.74,0,0,1,.68,0C371.85,515.62,371.85,515.79,371.66,515.9Z" transform="translate(-205 -478.61)"/><path class="cls-2" d="M362.75,518.6c.19.1.19.28,0,.39a.74.74,0,0,1-.68,0,.21.21,0,0,1,0-.39A.74.74,0,0,1,362.75,518.6Z" transform="translate(-205 -478.61)"/><path class="cls-2" d="M364.54,517.57a.21.21,0,0,1,0,.39.76.76,0,0,1-.69,0,.21.21,0,0,1,0-.39A.76.76,0,0,1,364.54,517.57Z" transform="translate(-205 -478.61)"/><ellipse class="cls-2" cx="160.98" cy="38.12" rx="0.48" ry="0.28"/><path class="cls-2" d="M368.1,515.51c.19.11.19.28,0,.39a.74.74,0,0,1-.68,0c-.19-.11-.19-.28,0-.39A.74.74,0,0,1,368.1,515.51Z" transform="translate(-205 -478.61)"/><path class="cls-2" d="M369.88,514.48c.19.11.19.29,0,.39a.74.74,0,0,1-.68,0c-.19-.1-.19-.28,0-.39A.74.74,0,0,1,369.88,514.48Z" transform="translate(-205 -478.61)"/><ellipse class="cls-2" cx="157.41" cy="38.12" rx="0.48" ry="0.28"/><ellipse class="cls-2" cx="159.2" cy="37.1" rx="0.48" ry="0.28"/><ellipse class="cls-2" cx="160.98" cy="36.07" rx="0.48" ry="0.28"/><path class="cls-2" d="M368.1,513.45a.21.21,0,0,1,0,.4.74.74,0,0,1-.68,0,.21.21,0,0,1,0-.4A.74.74,0,0,1,368.1,513.45Z" transform="translate(-205 -478.61)"/><path class="cls-2" d="M369.88,512.82a.74.74,0,0,1-.68,0,.21.21,0,0,1,0-.4C369.39,512.32,370.07,512.71,369.88,512.82Z" transform="translate(-205 -478.61)"/><ellipse class="cls-2" cx="157.41" cy="36.07" rx="0.48" ry="0.28"/><path class="cls-2" d="M364.54,513.45a.22.22,0,0,1,0,.4.76.76,0,0,1-.69,0,.22.22,0,0,1,0-.4A.76.76,0,0,1,364.54,513.45Z" transform="translate(-205 -478.61)"/><path class="cls-2" d="M366.32,512.42a.21.21,0,0,1,0,.4.74.74,0,0,1-.68,0,.21.21,0,0,1,0-.4A.81.81,0,0,1,366.32,512.42Z" transform="translate(-205 -478.61)"/><path class="cls-2" d="M368.1,511.4c.19.11.19.28,0,.39a.74.74,0,0,1-.68,0c-.19-.11-.19-.28,0-.39A.74.74,0,0,1,368.1,511.4Z" transform="translate(-205 -478.61)"/><path class="cls-2" d="M361,513.45a.21.21,0,0,1,0,.4.74.74,0,0,1-.68,0,.21.21,0,0,1,0-.4A.74.74,0,0,1,361,513.45Z" transform="translate(-205 -478.61)"/><path class="cls-2" d="M362.75,512.42a.21.21,0,0,1,0,.4.74.74,0,0,1-.68,0,.22.22,0,0,1,0-.4A.81.81,0,0,1,362.75,512.42Z" transform="translate(-205 -478.61)"/><path class="cls-2" d="M364.54,511.4a.21.21,0,0,1,0,.39.76.76,0,0,1-.69,0,.21.21,0,0,1,0-.39A.76.76,0,0,1,364.54,511.4Z" transform="translate(-205 -478.61)"/><path class="cls-2" d="M366.32,510.37c.19.11.19.28,0,.39a.74.74,0,0,1-.68,0c-.19-.11-.19-.28,0-.39A.74.74,0,0,1,366.32,510.37Z" transform="translate(-205 -478.61)"/><path class="cls-2" d="M359.19,512.42a.21.21,0,0,1,0,.4.74.74,0,0,1-.68,0,.21.21,0,0,1,0-.4A.81.81,0,0,1,359.19,512.42Z" transform="translate(-205 -478.61)"/><ellipse class="cls-2" cx="155.63" cy="32.98" rx="0.48" ry="0.28"/><ellipse class="cls-2" cx="157.41" cy="31.95" rx="0.48" ry="0.28"/><path class="cls-2" d="M364.54,509.34a.21.21,0,0,1,0,.39.76.76,0,0,1-.69,0,.21.21,0,0,1,0-.39A.76.76,0,0,1,364.54,509.34Z" transform="translate(-205 -478.61)"/><path class="cls-2" d="M366.32,508.7a.74.74,0,0,1-.68,0c-.19-.1-.19-.28,0-.39S366.51,508.6,366.32,508.7Z" transform="translate(-205 -478.61)"/><path class="cls-2" d="M359.19,510.37c.19.11.19.28,0,.39a.74.74,0,0,1-.68,0c-.19-.11-.19-.28,0-.39A.74.74,0,0,1,359.19,510.37Z" transform="translate(-205 -478.61)"/><ellipse class="cls-2" cx="155.63" cy="30.93" rx="0.48" ry="0.28"/><path class="cls-2" d="M362.75,508.31c.19.11.19.29,0,.39a.74.74,0,0,1-.68,0,.21.21,0,0,1,0-.39A.74.74,0,0,1,362.75,508.31Z" transform="translate(-205 -478.61)"/><path class="cls-2" d="M364.54,507.28a.22.22,0,0,1,0,.4.83.83,0,0,1-.69,0,.22.22,0,0,1,0-.4.76.76,0,0,1,.69,0Z" transform="translate(-205 -478.61)"/><path class="cls-2" d="M359.18,508.3c.19.11.19.29,0,.39a.74.74,0,0,1-.68,0c-.19-.1-.19-.28,0-.39A.74.74,0,0,1,359.18,508.3Z" transform="translate(-205 -478.61)"/><path class="cls-2" d="M361,507.27a.21.21,0,0,1,0,.4.81.81,0,0,1-.68,0,.21.21,0,0,1,0-.4A.74.74,0,0,1,361,507.27Z" transform="translate(-205 -478.61)"/><ellipse class="cls-2" cx="157.4" cy="27.83" rx="0.48" ry="0.28"/><path class="cls-2" d="M357.4,507.27a.22.22,0,0,1,0,.4.83.83,0,0,1-.69,0,.22.22,0,0,1,0-.4A.76.76,0,0,1,357.4,507.27Z" transform="translate(-205 -478.61)"/><path class="cls-2" d="M359.18,506.24a.21.21,0,0,1,0,.4.74.74,0,0,1-.68,0,.21.21,0,0,1,0-.4A.74.74,0,0,1,359.18,506.24Z" transform="translate(-205 -478.61)"/><path class="cls-2" d="M361,505.22c.19.1.19.28,0,.39a.74.74,0,0,1-.68,0c-.19-.11-.19-.29,0-.39A.74.74,0,0,1,361,505.22Z" transform="translate(-205 -478.61)"/><path class="cls-2" d="M357.4,505.22a.21.21,0,0,1,0,.39.76.76,0,0,1-.69,0,.21.21,0,0,1,0-.39A.76.76,0,0,1,357.4,505.22Z" transform="translate(-205 -478.61)"/><path class="cls-2" d="M359.18,504.19c.19.11.19.28,0,.39a.74.74,0,0,1-.68,0c-.19-.11-.19-.28,0-.39A.74.74,0,0,1,359.18,504.19Z" transform="translate(-205 -478.61)"/><path class="cls-2" d="M361,503.55a.74.74,0,0,1-.68,0c-.19-.11-.19-.28,0-.39S361.15,503.44,361,503.55Z" transform="translate(-205 -478.61)"/><ellipse class="cls-2" cx="173.53" cy="53.4" rx="0.48" ry="0.28"/><path class="cls-2" d="M380.65,530.78a.21.21,0,0,1,0,.4.81.81,0,0,1-.68,0,.21.21,0,0,1,0-.4A.74.74,0,0,1,380.65,530.78Z" transform="translate(-205 -478.61)"/><ellipse class="cls-2" cx="177.09" cy="51.34" rx="0.48" ry="0.28"/><path class="cls-2" d="M384.21,528.72a.21.21,0,0,1,0,.4.74.74,0,0,1-.68,0,.22.22,0,0,1,0-.4A.81.81,0,0,1,384.21,528.72Z" transform="translate(-205 -478.61)"/><path class="cls-2" d="M386,527.7a.21.21,0,0,1,0,.39.76.76,0,0,1-.69,0,.21.21,0,0,1,0-.39A.76.76,0,0,1,386,527.7Z" transform="translate(-205 -478.61)"/><path class="cls-2" d="M387.78,526.67c.19.11.19.28,0,.39a.74.74,0,0,1-.68,0c-.19-.11-.19-.28,0-.39A.74.74,0,0,1,387.78,526.67Z" transform="translate(-205 -478.61)"/><ellipse class="cls-2" cx="184.22" cy="47.23" rx="0.48" ry="0.28"/><ellipse class="cls-2" cx="186" cy="46.2" rx="0.48" ry="0.28"/><ellipse class="cls-2" cx="187.78" cy="45.17" rx="0.48" ry="0.28"/><path class="cls-2" d="M400.25,519.47a.21.21,0,0,1,0,.39.76.76,0,0,1-.69,0,.21.21,0,0,1,0-.39A.76.76,0,0,1,400.25,519.47Z" transform="translate(-205 -478.61)"/><path class="cls-2" d="M402,518.44a.21.21,0,0,1,0,.39.74.74,0,0,1-.68,0c-.19-.1-.19-.28,0-.39A.74.74,0,0,1,402,518.44Z" transform="translate(-205 -478.61)"/><path class="cls-2" d="M375.31,531.81c.19.11.19.28,0,.39a.74.74,0,0,1-.68,0c-.19-.11-.19-.28,0-.39A.74.74,0,0,1,375.31,531.81Z" transform="translate(-205 -478.61)"/><path class="cls-2" d="M377.09,530.78a.21.21,0,0,1,0,.4.81.81,0,0,1-.68,0,.21.21,0,0,1,0-.4A.74.74,0,0,1,377.09,530.78Z" transform="translate(-205 -478.61)"/><path class="cls-2" d="M378.87,529.75a.21.21,0,0,1,0,.4.74.74,0,0,1-.68,0,.21.21,0,0,1,0-.4A.74.74,0,0,1,378.87,529.75Z" transform="translate(-205 -478.61)"/><path class="cls-2" d="M380.65,528.72a.21.21,0,0,1,0,.4.74.74,0,0,1-.68,0,.21.21,0,0,1,0-.4A.81.81,0,0,1,380.65,528.72Z" transform="translate(-205 -478.61)"/><ellipse class="cls-2" cx="177.09" cy="49.28" rx="0.48" ry="0.28"/><path class="cls-2" d="M384.21,526.67c.19.11.19.28,0,.39a.74.74,0,0,1-.68,0,.21.21,0,0,1,0-.39A.74.74,0,0,1,384.21,526.67Z" transform="translate(-205 -478.61)"/><ellipse class="cls-2" cx="180.66" cy="47.23" rx="0.48" ry="0.28"/><ellipse class="cls-2" cx="182.44" cy="46.2" rx="0.48" ry="0.28"/><path class="cls-2" d="M389.56,523.58a.21.21,0,0,1,0,.4.81.81,0,0,1-.68,0,.21.21,0,0,1,0-.4A.74.74,0,0,1,389.56,523.58Z" transform="translate(-205 -478.61)"/><ellipse class="cls-2" cx="186" cy="44.14" rx="0.48" ry="0.28"/><path class="cls-2" d="M393.12,521.53c.19.1.19.28,0,.39a.74.74,0,0,1-.68,0c-.19-.11-.19-.29,0-.39A.74.74,0,0,1,393.12,521.53Z" transform="translate(-205 -478.61)"/><path class="cls-2" d="M396.68,519.47c.19.11.19.28,0,.39a.74.74,0,0,1-.68,0c-.19-.11-.19-.28,0-.39A.74.74,0,0,1,396.68,519.47Z" transform="translate(-205 -478.61)"/><ellipse class="cls-2" cx="193.12" cy="40.03" rx="0.48" ry="0.28"/><path class="cls-2" d="M400.25,517.41a.22.22,0,0,1,0,.4.83.83,0,0,1-.69,0,.22.22,0,0,1,0-.4A.76.76,0,0,1,400.25,517.41Z" transform="translate(-205 -478.61)"/><ellipse class="cls-2" cx="168.19" cy="52.37" rx="0.48" ry="0.28"/><path class="cls-2" d="M375.31,529.75a.21.21,0,0,1,0,.4.74.74,0,0,1-.68,0,.21.21,0,0,1,0-.4A.74.74,0,0,1,375.31,529.75Z" transform="translate(-205 -478.61)"/><path class="cls-2" d="M377.09,528.72a.21.21,0,0,1,0,.4.74.74,0,0,1-.68,0,.21.21,0,0,1,0-.4A.81.81,0,0,1,377.09,528.72Z" transform="translate(-205 -478.61)"/><path class="cls-2" d="M378.87,527.7c.19.11.19.28,0,.39a.74.74,0,0,1-.68,0c-.19-.11-.19-.28,0-.39A.74.74,0,0,1,378.87,527.7Z" transform="translate(-205 -478.61)"/><path class="cls-2" d="M380.65,526.67c.19.11.19.28,0,.39a.74.74,0,0,1-.68,0c-.19-.11-.19-.28,0-.39A.74.74,0,0,1,380.65,526.67Z" transform="translate(-205 -478.61)"/><path class="cls-2" d="M382.43,525.64c.19.11.19.28,0,.39a.74.74,0,0,1-.68,0c-.19-.11-.19-.28,0-.39A.74.74,0,0,1,382.43,525.64Z" transform="translate(-205 -478.61)"/><ellipse class="cls-2" cx="178.87" cy="46.2" rx="0.48" ry="0.28"/><path class="cls-2" d="M386,523.58a.22.22,0,0,1,0,.4.83.83,0,0,1-.69,0,.22.22,0,0,1,0-.4A.76.76,0,0,1,386,523.58Z" transform="translate(-205 -478.61)"/><path class="cls-2" d="M387.78,522.55a.21.21,0,0,1,0,.4.74.74,0,0,1-.68,0,.21.21,0,0,1,0-.4A.81.81,0,0,1,387.78,522.55Z" transform="translate(-205 -478.61)"/><path class="cls-2" d="M389.56,521.53c.19.1.19.28,0,.39a.74.74,0,0,1-.68,0c-.19-.11-.19-.29,0-.39A.74.74,0,0,1,389.56,521.53Z" transform="translate(-205 -478.61)"/><path class="cls-2" d="M391.34,520.5c.19.11.19.28,0,.39a.74.74,0,0,1-.68,0c-.19-.11-.19-.28,0-.39A.74.74,0,0,1,391.34,520.5Z" transform="translate(-205 -478.61)"/><path class="cls-2" d="M393.12,519.47c.19.11.19.28,0,.39a.74.74,0,0,1-.68,0c-.19-.11-.19-.28,0-.39A.74.74,0,0,1,393.12,519.47Z" transform="translate(-205 -478.61)"/><path class="cls-2" d="M394.9,518.44c.19.11.19.29,0,.39a.74.74,0,0,1-.68,0c-.19-.1-.19-.28,0-.39A.74.74,0,0,1,394.9,518.44Z" transform="translate(-205 -478.61)"/><path class="cls-2" d="M396.68,517.41a.21.21,0,0,1,0,.4.81.81,0,0,1-.68,0,.21.21,0,0,1,0-.4A.74.74,0,0,1,396.68,517.41Z" transform="translate(-205 -478.61)"/><path class="cls-2" d="M398.46,516.38a.21.21,0,0,1,0,.4.74.74,0,0,1-.68,0,.21.21,0,0,1,0-.4A.81.81,0,0,1,398.46,516.38Z" transform="translate(-205 -478.61)"/><path class="cls-2" d="M373.53,528.72a.21.21,0,0,1,0,.4.74.74,0,0,1-.68,0,.21.21,0,0,1,0-.4A.81.81,0,0,1,373.53,528.72Z" transform="translate(-205 -478.61)"/><path class="cls-2" d="M375.31,527.7c.19.11.19.28,0,.39a.74.74,0,0,1-.68,0c-.19-.11-.19-.28,0-.39A.74.74,0,0,1,375.31,527.7Z" transform="translate(-205 -478.61)"/><ellipse class="cls-2" cx="171.75" cy="48.25" rx="0.48" ry="0.28"/><ellipse class="cls-2" cx="173.53" cy="47.23" rx="0.48" ry="0.28"/><path class="cls-2" d="M380.65,524.61c.19.11.19.29,0,.39a.74.74,0,0,1-.68,0c-.19-.1-.19-.28,0-.39A.74.74,0,0,1,380.65,524.61Z" transform="translate(-205 -478.61)"/><path class="cls-2" d="M381.75,523.58a.74.74,0,0,1,.68,0,.21.21,0,0,1,0,.4.74.74,0,0,1-.68,0,.21.21,0,0,1,0-.4Z" transform="translate(-205 -478.61)"/><ellipse class="cls-2" cx="178.87" cy="44.14" rx="0.48" ry="0.28"/><ellipse class="cls-2" cx="184.22" cy="41.06" rx="0.48" ry="0.28"/><path class="cls-2" d="M391.34,518.44c.19.11.19.29,0,.39a.74.74,0,0,1-.68,0c-.19-.1-.19-.28,0-.39A.74.74,0,0,1,391.34,518.44Z" transform="translate(-205 -478.61)"/><path class="cls-2" d="M393.12,517.41a.21.21,0,0,1,0,.4.81.81,0,0,1-.68,0,.21.21,0,0,1,0-.4A.74.74,0,0,1,393.12,517.41Z" transform="translate(-205 -478.61)"/><ellipse class="cls-2" cx="189.56" cy="37.97" rx="0.48" ry="0.28"/><path class="cls-2" d="M396.68,515.36c.19.1.19.28,0,.39a.74.74,0,0,1-.68,0c-.19-.11-.19-.29,0-.39A.74.74,0,0,1,396.68,515.36Z" transform="translate(-205 -478.61)"/><path class="cls-2" d="M396.63,513.47a.21.21,0,0,1,0,.4.81.81,0,0,1-.68,0,.21.21,0,0,1,0-.4A.74.74,0,0,1,396.63,513.47Z" transform="translate(-205 -478.61)"/><path class="cls-2" d="M398.41,512.44a.21.21,0,0,1,0,.4.74.74,0,0,1-.68,0,.21.21,0,0,1,0-.4A.81.81,0,0,1,398.41,512.44Z" transform="translate(-205 -478.61)"/><path class="cls-2" d="M394.16,512.45a.77.77,0,0,1,.68,0,.21.21,0,0,1,0,.4.76.76,0,0,1-.69,0A.21.21,0,0,1,394.16,512.45Z" transform="translate(-205 -478.61)"/><path class="cls-2" d="M396.63,511.81a.74.74,0,0,1-.68,0c-.19-.11-.19-.29,0-.39S396.82,511.7,396.63,511.81Z" transform="translate(-205 -478.61)"/><path class="cls-2" d="M392.38,511.42a.74.74,0,0,1,.68,0c.19.1.19.28,0,.39a.74.74,0,0,1-.68,0c-.19-.11-.19-.28,0-.39Z" transform="translate(-205 -478.61)"/><path class="cls-2" d="M403.14,517.42a.74.74,0,0,1,.68,0,.21.21,0,0,1,0,.4.81.81,0,0,1-.68,0A.21.21,0,0,1,403.14,517.42Z" transform="translate(-205 -478.61)"/><ellipse class="cls-2" cx="200.26" cy="37.98" rx="0.48" ry="0.28"/><ellipse class="cls-2" cx="202.04" cy="36.95" rx="0.48" ry="0.28"/><ellipse class="cls-2" cx="203.83" cy="35.92" rx="0.48" ry="0.28"/><ellipse class="cls-2" cx="205.61" cy="34.89" rx="0.48" ry="0.28"/><path class="cls-2" d="M412.73,512.28c.19.11.19.28,0,.39a.74.74,0,0,1-.68,0c-.19-.11-.19-.28,0-.39A.74.74,0,0,1,412.73,512.28Z" transform="translate(-205 -478.61)"/><path class="cls-2" d="M401.36,516.39a.81.81,0,0,1,.68,0,.21.21,0,0,1,0,.4.74.74,0,0,1-.68,0A.21.21,0,0,1,401.36,516.39Z" transform="translate(-205 -478.61)"/><path class="cls-2" d="M403.82,515.36a.21.21,0,0,1,0,.4.74.74,0,0,1-.68,0,.21.21,0,0,1,0-.4A.81.81,0,0,1,403.82,515.36Z" transform="translate(-205 -478.61)"/><path class="cls-2" d="M405.6,514.34c.19.1.19.28,0,.39a.74.74,0,0,1-.68,0c-.19-.11-.19-.29,0-.39A.74.74,0,0,1,405.6,514.34Z" transform="translate(-205 -478.61)"/><ellipse class="cls-2" cx="202.04" cy="34.89" rx="0.48" ry="0.28"/><ellipse class="cls-2" cx="203.83" cy="33.87" rx="0.48" ry="0.28"/><path class="cls-2" d="M411,511.25c.19.11.19.29,0,.39a.74.74,0,0,1-.68,0c-.19-.1-.19-.28,0-.39A.74.74,0,0,1,411,511.25Z" transform="translate(-205 -478.61)"/><ellipse class="cls-2" cx="207.39" cy="31.81" rx="0.48" ry="0.28"/><path class="cls-2" d="M399.58,515.37a.74.74,0,0,1,.68,0c.19.1.19.28,0,.39a.74.74,0,0,1-.68,0C399.39,515.65,399.39,515.47,399.58,515.37Z" transform="translate(-205 -478.61)"/><path class="cls-2" d="M402,514.34c.19.1.19.28,0,.39a.74.74,0,0,1-.68,0c-.19-.11-.19-.29,0-.39A.74.74,0,0,1,402,514.34Z" transform="translate(-205 -478.61)"/><ellipse class="cls-2" cx="198.48" cy="34.89" rx="0.48" ry="0.28"/><path class="cls-2" d="M405.6,512.28c.19.11.19.28,0,.39a.74.74,0,0,1-.68,0c-.19-.11-.19-.28,0-.39A.74.74,0,0,1,405.6,512.28Z" transform="translate(-205 -478.61)"/><path class="cls-2" d="M407.38,511.25c.19.11.19.29,0,.39a.74.74,0,0,1-.68,0,.21.21,0,0,1,0-.39A.74.74,0,0,1,407.38,511.25Z" transform="translate(-205 -478.61)"/><path class="cls-2" d="M409.17,510.22a.22.22,0,0,1,0,.4.83.83,0,0,1-.69,0,.22.22,0,0,1,0-.4A.76.76,0,0,1,409.17,510.22Z" transform="translate(-205 -478.61)"/><path class="cls-2" d="M411,509.19a.21.21,0,0,1,0,.4.74.74,0,0,1-.68,0,.21.21,0,0,1,0-.4A.81.81,0,0,1,411,509.19Z" transform="translate(-205 -478.61)"/><path class="cls-2" d="M397.8,514.34a.74.74,0,0,1,.68,0c.18.11.19.28,0,.39a.74.74,0,0,1-.68,0C397.61,514.62,397.61,514.45,397.8,514.34Z" transform="translate(-205 -478.61)"/><path class="cls-2" d="M400.26,513.31c.19.11.19.28,0,.39a.74.74,0,0,1-.68,0c-.19-.11-.19-.28,0-.39a.74.74,0,0,1,.68,0Z" transform="translate(-205 -478.61)"/><path class="cls-1" d="M369.55,487.16l-5.32,3.07-5.43,3.14,1.57,1.78L379,516.28l7.16-4.13,1.69-1-2.39-2.4-1.69-1.7,9.69-5.6,1.66.56,5.4,1.82,5.73-3.31,3.09-1.78Zm12.72,13.15-3.42,2c-2-2-3.62-3.58-4.87-4.78-.91-.89-1.62-1.56-2.14-2q-1.84-1.7-2.7-2.4c.88.36,2.41.91,4.56,1.66s3.93,1.35,5.32,1.81l6.18,2.08Z" transform="translate(-205 -478.61)"/><polygon class="cls-1" points="153.8 14.76 153.8 24.45 174.02 47.36 174.02 37.67 153.8 14.76"/><polygon class="cls-1" points="195.54 25.24 195.54 34.93 188.48 32.55 188.48 22.86 195.54 25.24"/><path class="cls-3" d="M406.27,500.54l-.49-.14-36.23-10.56-1.2.69L360.7,495l-.33.2-.34.19-.86.5-.37.21.37.42,19.47,22.06.38.43,8.85-5.11-1.69-1.7-.28-.28-2.11-2.12,1.36-.78.33-.2,8-4.62.38.13,6.31,2.13.37.12,1.3-.75,7.52-4.34Zm-33.12-3.32.55.19.28.1c2,.7,3.71,1.27,5,1.71l3.25,1.09.47.16,2.46.83L378.85,505q-5.16-5.11-7-6.81t-2.7-2.4C369.94,496.08,371.29,496.56,373.15,497.22Z" transform="translate(-205 -478.61)"/><path class="cls-2" d="M379.13,496.18c-1.38-.45-3.15-1.06-5.31-1.81s-3.67-1.3-4.54-1.64l-2.23-.9,1.85,1.53c.57.47,1.47,1.27,2.69,2.39l1.56,1.47c1.3,1.25,3.1,3,5.44,5.33l.2.2,3.95-2.28,3.36-1.94Z" transform="translate(-205 -478.61)"/><path class="cls-2" d="M409.31,498.36l-39.81-11.6-6,3.46-4.62,2.67-.45.26V503.2l1.81,2.05.39.44,3.22,3.66.41.45,3.2,3.64.43.48,3.19,3.62.43.48,3.19,3.62.43.48,3.1,3.51.41.47h0l.3.34.45-.26,8.86-5.12v-6.45l5.27-3.05,5.93,2,.58.2h0l.13,0,.41.14.34-.19,7.47-4.32,1.34-.77V498.48ZM400.17,513l-3.56-1.2-.78-.26-2-.67V502l3,1,3.27,1.1Zm5.61-12.62-5.28,3-6.64-2.24-.42-.14h0l-.31.19L383.18,507l2,2,2.11,2.12-1.36.78-6.81,3.93-1.4-1.59L360.7,495l-1.32-1.49,5.55-3.21,4.67-2.69,38.81,11.32ZM378.64,525,377,523.12l-.42-.47L373.39,519l-.43-.48-3.2-3.63-.43-.49-3.19-3.61-.42-.48-3.21-3.63-.42-.48-2.92-3.31v-8.56l.86,1,16.91,19.16,1.7,1.92Z" transform="translate(-205 -478.61)"/><polygon class="cls-1" points="183.69 35.06 182.94 35.48 182.94 32.55 183.69 32.12 183.69 35.06"/></g></svg>