<svg id="Layer_1" data-name="Layer 1" xmlns="http://www.w3.org/2000/svg" viewBox="0 0 696.44 291.67"><defs><style>.cls-1{fill:#39a1ff;}.cls-2{fill:#16110d;}.cls-3{fill:#fec;}</style></defs><title>play-bg</title><path class="cls-1" d="M1.33,300.28H697.77V269.66L261.56,25.55a41.16,41.16,0,0,0-41.6.63L1.33,158.8Z" transform="translate(-1.33 -8.61)"/><g id="Y"><path class="cls-2" d="M322.35,54a.21.21,0,0,1,0,.4.74.74,0,0,1-.68,0,.21.21,0,0,1,0-.4A.81.81,0,0,1,322.35,54Z" transform="translate(-1.33 -8.61)"/><ellipse class="cls-2" cx="322.46" cy="44.6" rx="0.48" ry="0.28"/><path class="cls-2" d="M308.1,60.2a.21.21,0,0,1,0,.4.74.74,0,0,1-.68,0,.21.21,0,0,1,0-.4A.81.81,0,0,1,308.1,60.2Z" transform="translate(-1.33 -8.61)"/><path class="cls-2" d="M309.88,59.18c.19.1.19.28,0,.39a.74.74,0,0,1-.68,0c-.19-.11-.19-.29,0-.39A.74.74,0,0,1,309.88,59.18Z" transform="translate(-1.33 -8.61)"/><ellipse class="cls-2" cx="309.99" cy="49.74" rx="0.48" ry="0.28"/><ellipse class="cls-2" cx="311.77" cy="48.71" rx="0.48" ry="0.28"/><ellipse class="cls-2" cx="313.55" cy="47.68" rx="0.48" ry="0.28"/><ellipse class="cls-2" cx="315.33" cy="46.65" rx="0.48" ry="0.28"/><path class="cls-2" d="M318.79,54a.22.22,0,0,1,0,.4.74.74,0,0,1-.68,0,.21.21,0,0,1,0-.4A.81.81,0,0,1,318.79,54Z" transform="translate(-1.33 -8.61)"/><path class="cls-2" d="M320.57,53c.19.1.19.28,0,.39a.74.74,0,0,1-.68,0c-.19-.11-.19-.29,0-.39A.74.74,0,0,1,320.57,53Z" transform="translate(-1.33 -8.61)"/><path class="cls-2" d="M322.35,52c.19.11.19.28,0,.39a.74.74,0,0,1-.68,0c-.19-.11-.19-.28,0-.39A.74.74,0,0,1,322.35,52Z" transform="translate(-1.33 -8.61)"/><path class="cls-2" d="M304.54,60.2a.22.22,0,0,1,0,.4.74.74,0,0,1-.68,0,.21.21,0,0,1,0-.4A.81.81,0,0,1,304.54,60.2Z" transform="translate(-1.33 -8.61)"/><ellipse class="cls-2" cx="304.64" cy="50.77" rx="0.48" ry="0.28"/><ellipse class="cls-2" cx="306.43" cy="49.74" rx="0.48" ry="0.28"/><path class="cls-2" d="M309.88,57.12c.19.11.19.28,0,.39a.74.74,0,0,1-.68,0c-.19-.11-.19-.28,0-.39A.74.74,0,0,1,309.88,57.12Z" transform="translate(-1.33 -8.61)"/><path class="cls-2" d="M311.66,56.09c.19.11.19.29,0,.39a.74.74,0,0,1-.68,0c-.19-.1-.19-.28,0-.39A.74.74,0,0,1,311.66,56.09Z" transform="translate(-1.33 -8.61)"/><path class="cls-2" d="M313.44,55.06a.21.21,0,0,1,0,.4.81.81,0,0,1-.68,0,.21.21,0,0,1,0-.4A.74.74,0,0,1,313.44,55.06Z" transform="translate(-1.33 -8.61)"/><ellipse class="cls-2" cx="313.55" cy="45.62" rx="0.48" ry="0.28"/><path class="cls-2" d="M317,53a.21.21,0,0,1,0,.39.76.76,0,0,1-.69,0,.21.21,0,0,1,0-.39A.76.76,0,0,1,317,53Z" transform="translate(-1.33 -8.61)"/><path class="cls-2" d="M318.79,52a.21.21,0,0,1,0,.39.74.74,0,0,1-.68,0c-.19-.11-.19-.28,0-.39A.74.74,0,0,1,318.79,52Z" transform="translate(-1.33 -8.61)"/><path class="cls-2" d="M320.57,51c.19.11.19.28,0,.39a.74.74,0,0,1-.68,0c-.19-.11-.19-.28,0-.39A.74.74,0,0,1,320.57,51Z" transform="translate(-1.33 -8.61)"/><path class="cls-2" d="M302.76,59.18a.21.21,0,0,1,0,.39.76.76,0,0,1-.69,0,.21.21,0,0,1,0-.39A.76.76,0,0,1,302.76,59.18Z" transform="translate(-1.33 -8.61)"/><ellipse class="cls-2" cx="302.86" cy="49.74" rx="0.48" ry="0.28"/><ellipse class="cls-2" cx="304.64" cy="48.71" rx="0.48" ry="0.28"/><ellipse class="cls-2" cx="306.43" cy="47.68" rx="0.48" ry="0.28"/><ellipse class="cls-2" cx="308.21" cy="46.65" rx="0.48" ry="0.28"/><path class="cls-2" d="M311.66,54a.21.21,0,0,1,0,.4.74.74,0,0,1-.68,0,.21.21,0,0,1,0-.4A.81.81,0,0,1,311.66,54Z" transform="translate(-1.33 -8.61)"/><path class="cls-2" d="M313.44,53c.19.1.19.28,0,.39a.74.74,0,0,1-.68,0c-.19-.11-.19-.29,0-.39A.74.74,0,0,1,313.44,53Z" transform="translate(-1.33 -8.61)"/><path class="cls-2" d="M315.22,52c.19.11.19.28,0,.39a.74.74,0,0,1-.68,0c-.19-.11-.19-.28,0-.39A.74.74,0,0,1,315.22,52Z" transform="translate(-1.33 -8.61)"/><ellipse class="cls-2" cx="315.33" cy="42.54" rx="0.48" ry="0.28"/><path class="cls-2" d="M318.79,49.92a.21.21,0,0,1,0,.39.74.74,0,0,1-.68,0c-.19-.1-.19-.28,0-.39A.74.74,0,0,1,318.79,49.92Z" transform="translate(-1.33 -8.61)"/><ellipse class="cls-2" cx="299.3" cy="49.74" rx="0.48" ry="0.28"/><ellipse class="cls-2" cx="301.08" cy="48.71" rx="0.48" ry="0.28"/><path class="cls-2" d="M304.54,56.09a.21.21,0,0,1,0,.39.74.74,0,0,1-.68,0c-.19-.1-.19-.28,0-.39A.74.74,0,0,1,304.54,56.09Z" transform="translate(-1.33 -8.61)"/><ellipse class="cls-2" cx="304.64" cy="46.65" rx="0.48" ry="0.28"/><path class="cls-2" d="M308.1,54a.21.21,0,0,1,0,.4.74.74,0,0,1-.68,0,.21.21,0,0,1,0-.4A.81.81,0,0,1,308.1,54Z" transform="translate(-1.33 -8.61)"/><ellipse class="cls-2" cx="308.21" cy="44.6" rx="0.48" ry="0.28"/><ellipse class="cls-2" cx="309.99" cy="43.57" rx="0.48" ry="0.28"/><ellipse class="cls-2" cx="311.77" cy="42.54" rx="0.48" ry="0.28"/><path class="cls-2" d="M315.22,49.92c.19.11.19.29,0,.39a.74.74,0,0,1-.68,0c-.19-.1-.19-.28,0-.39A.74.74,0,0,1,315.22,49.92Z" transform="translate(-1.33 -8.61)"/><path class="cls-2" d="M317,48.89a.22.22,0,0,1,0,.4.83.83,0,0,1-.69,0,.22.22,0,0,1,0-.4A.76.76,0,0,1,317,48.89Z" transform="translate(-1.33 -8.61)"/><path class="cls-2" d="M299.19,57.12c.19.11.19.28,0,.39a.74.74,0,0,1-.68,0c-.19-.11-.19-.28,0-.39A.74.74,0,0,1,299.19,57.12Z" transform="translate(-1.33 -8.61)"/><ellipse class="cls-2" cx="299.3" cy="47.68" rx="0.48" ry="0.28"/><ellipse class="cls-2" cx="301.08" cy="46.65" rx="0.48" ry="0.28"/><path class="cls-2" d="M304.54,54a.22.22,0,0,1,0,.4.74.74,0,0,1-.68,0,.21.21,0,0,1,0-.4A.81.81,0,0,1,304.54,54Z" transform="translate(-1.33 -8.61)"/><ellipse class="cls-2" cx="304.64" cy="44.6" rx="0.48" ry="0.28"/><path class="cls-2" d="M307.42,52a.74.74,0,0,1,.68,0c.19.11.19.28,0,.39a.74.74,0,0,1-.68,0c-.19-.11-.19-.28,0-.39Z" transform="translate(-1.33 -8.61)"/><path class="cls-2" d="M309.2,51a.74.74,0,0,1,.68,0c.19.11.19.28,0,.39a.74.74,0,0,1-.68,0c-.19-.11-.19-.28,0-.39Z" transform="translate(-1.33 -8.61)"/><path class="cls-2" d="M311.66,49.92c.19.11.19.29,0,.39a.74.74,0,0,1-.68,0c-.19-.1-.19-.28,0-.39A.74.74,0,0,1,311.66,49.92Z" transform="translate(-1.33 -8.61)"/><path class="cls-2" d="M313.44,48.89a.21.21,0,0,1,0,.4.81.81,0,0,1-.68,0,.21.21,0,0,1,0-.4A.74.74,0,0,1,313.44,48.89Z" transform="translate(-1.33 -8.61)"/><path class="cls-2" d="M315.22,47.86a.21.21,0,0,1,0,.4.74.74,0,0,1-.68,0,.21.21,0,0,1,0-.4A.74.74,0,0,1,315.22,47.86Z" transform="translate(-1.33 -8.61)"/><ellipse class="cls-2" cx="295.74" cy="47.68" rx="0.48" ry="0.28"/><path class="cls-2" d="M299.19,55.06a.21.21,0,0,1,0,.4.81.81,0,0,1-.68,0,.21.21,0,0,1,0-.4A.74.74,0,0,1,299.19,55.06Z" transform="translate(-1.33 -8.61)"/><path class="cls-2" d="M301,54a.21.21,0,0,1,0,.4.74.74,0,0,1-.68,0,.21.21,0,0,1,0-.4A.81.81,0,0,1,301,54Z" transform="translate(-1.33 -8.61)"/><ellipse class="cls-2" cx="301.08" cy="44.6" rx="0.48" ry="0.28"/><ellipse class="cls-2" cx="295.72" cy="45.61" rx="0.48" ry="0.28"/><ellipse class="cls-2" cx="297.5" cy="44.58" rx="0.48" ry="0.28"/><path class="cls-2" d="M301,52c.19.1.19.28,0,.39a.74.74,0,0,1-.68,0c-.19-.11-.19-.29,0-.39A.74.74,0,0,1,301,52Z" transform="translate(-1.33 -8.61)"/><path class="cls-2" d="M297.4,52a.21.21,0,0,1,0,.39.74.74,0,0,1-.68,0c-.19-.11-.19-.29,0-.39A.74.74,0,0,1,297.4,52Z" transform="translate(-1.33 -8.61)"/><ellipse class="cls-2" cx="297.5" cy="42.53" rx="0.48" ry="0.28"/><path class="cls-2" d="M297.4,49.91a.21.21,0,0,1,0,.39.74.74,0,0,1-.68,0c-.19-.11-.19-.28,0-.39A.74.74,0,0,1,297.4,49.91Z" transform="translate(-1.33 -8.61)"/><ellipse class="cls-2" cx="336.73" cy="42.56" rx="0.48" ry="0.28"/><path class="cls-2" d="M340.18,49.94a.21.21,0,0,1,0,.4.74.74,0,0,1-.68,0,.21.21,0,0,1,0-.4A.81.81,0,0,1,340.18,49.94Z" transform="translate(-1.33 -8.61)"/><ellipse class="cls-2" cx="340.29" cy="40.51" rx="0.48" ry="0.28"/><path class="cls-2" d="M343.74,47.89c.19.11.19.28,0,.39a.74.74,0,0,1-.68,0c-.19-.11-.19-.28,0-.39A.74.74,0,0,1,343.74,47.89Z" transform="translate(-1.33 -8.61)"/><ellipse class="cls-2" cx="331.38" cy="43.59" rx="0.48" ry="0.28"/><path class="cls-2" d="M334.84,51a.21.21,0,0,1,0,.4.81.81,0,0,1-.68,0,.21.21,0,0,1,0-.4A.74.74,0,0,1,334.84,51Z" transform="translate(-1.33 -8.61)"/><ellipse class="cls-2" cx="334.95" cy="41.53" rx="0.48" ry="0.28"/><ellipse class="cls-2" cx="336.73" cy="40.51" rx="0.48" ry="0.28"/><path class="cls-2" d="M340.18,47.89c.19.11.19.28,0,.39a.74.74,0,0,1-.68,0c-.19-.11-.19-.28,0-.39A.74.74,0,0,1,340.18,47.89Z" transform="translate(-1.33 -8.61)"/><path class="cls-2" d="M342,46.86c.19.11.19.28,0,.39a.74.74,0,0,1-.68,0c-.19-.11-.19-.28,0-.39A.74.74,0,0,1,342,46.86Z" transform="translate(-1.33 -8.61)"/><ellipse class="cls-2" cx="342.07" cy="37.42" rx="0.48" ry="0.28"/><path class="cls-2" d="M327,53a.76.76,0,0,1,.69,0,.21.21,0,0,1,0,.39.74.74,0,0,1-.68,0C326.83,53.3,326.83,53.13,327,53Z" transform="translate(-1.33 -8.61)"/><ellipse class="cls-2" cx="327.81" cy="43.58" rx="0.48" ry="0.28"/><path class="cls-2" d="M331.26,51a.21.21,0,0,1,0,.4.81.81,0,0,1-.68,0,.21.21,0,0,1,0-.4A.74.74,0,0,1,331.26,51Z" transform="translate(-1.33 -8.61)"/><ellipse class="cls-2" cx="331.37" cy="41.52" rx="0.48" ry="0.28"/><path class="cls-2" d="M334.82,48.91c.19.1.19.28,0,.39a.74.74,0,0,1-.68,0c-.19-.11-.19-.29,0-.39A.74.74,0,0,1,334.82,48.91Z" transform="translate(-1.33 -8.61)"/><path class="cls-2" d="M336.6,47.88c.19.11.19.28,0,.39a.74.74,0,0,1-.68,0c-.19-.11-.19-.28,0-.39A.74.74,0,0,1,336.6,47.88Z" transform="translate(-1.33 -8.61)"/><ellipse class="cls-2" cx="336.71" cy="38.44" rx="0.48" ry="0.28"/><path class="cls-2" d="M340.17,45.82a.21.21,0,0,1,0,.39.74.74,0,0,1-.68,0c-.19-.11-.19-.28,0-.39A.74.74,0,0,1,340.17,45.82Z" transform="translate(-1.33 -8.61)"/><path class="cls-2" d="M342,44.79a.21.21,0,0,1,0,.4.81.81,0,0,1-.68,0,.21.21,0,0,1,0-.4A.74.74,0,0,1,342,44.79Z" transform="translate(-1.33 -8.61)"/><ellipse class="cls-2" cx="342.06" cy="35.35" rx="0.48" ry="0.28"/><path class="cls-2" d="M325.23,52a.74.74,0,0,1,.68,0c.19.11.19.29,0,.39a.76.76,0,0,1-.69,0A.21.21,0,0,1,325.23,52Z" transform="translate(-1.33 -8.61)"/><ellipse class="cls-2" cx="326.02" cy="42.55" rx="0.48" ry="0.28"/><path class="cls-2" d="M329.48,49.93a.21.21,0,0,1,0,.4.74.74,0,0,1-.68,0,.21.21,0,0,1,0-.4A.74.74,0,0,1,329.48,49.93Z" transform="translate(-1.33 -8.61)"/><ellipse class="cls-2" cx="329.59" cy="40.5" rx="0.48" ry="0.28"/><ellipse class="cls-2" cx="331.37" cy="39.47" rx="0.48" ry="0.28"/><path class="cls-2" d="M334.82,46.85c.19.11.19.28,0,.39a.74.74,0,0,1-.68,0c-.19-.11-.19-.28,0-.39A.74.74,0,0,1,334.82,46.85Z" transform="translate(-1.33 -8.61)"/><path class="cls-2" d="M336.6,45.82c.19.11.19.28,0,.39a.74.74,0,0,1-.68,0c-.19-.11-.19-.28,0-.39A.74.74,0,0,1,336.6,45.82Z" transform="translate(-1.33 -8.61)"/><ellipse class="cls-2" cx="336.71" cy="36.38" rx="0.48" ry="0.28"/><ellipse class="cls-2" cx="338.49" cy="35.35" rx="0.48" ry="0.28"/><path class="cls-2" d="M342,42.73a.21.21,0,0,1,0,.4.74.74,0,0,1-.68,0,.21.21,0,0,1,0-.4A.81.81,0,0,1,342,42.73Z" transform="translate(-1.33 -8.61)"/><path class="cls-2" d="M323.45,51a.74.74,0,0,1,.68,0,.21.21,0,0,1,0,.4.77.77,0,0,1-.68,0A.21.21,0,0,1,323.45,51Z" transform="translate(-1.33 -8.61)"/><path class="cls-2" d="M325.92,49.93a.22.22,0,0,1,0,.4.74.74,0,0,1-.68,0,.21.21,0,0,1,0-.4A.74.74,0,0,1,325.92,49.93Z" transform="translate(-1.33 -8.61)"/><path class="cls-2" d="M327.7,48.91c.19.1.19.28,0,.39a.74.74,0,0,1-.68,0c-.19-.11-.19-.29,0-.39A.74.74,0,0,1,327.7,48.91Z" transform="translate(-1.33 -8.61)"/><ellipse class="cls-2" cx="327.81" cy="39.47" rx="0.48" ry="0.28"/><path class="cls-2" d="M331.26,46.85c.19.11.19.28,0,.39a.74.74,0,0,1-.68,0c-.19-.11-.19-.28,0-.39A.74.74,0,0,1,331.26,46.85Z" transform="translate(-1.33 -8.61)"/><path class="cls-2" d="M333,45.82c.19.11.19.28,0,.39a.74.74,0,0,1-.68,0c-.19-.11-.19-.28,0-.39A.74.74,0,0,1,333,45.82Z" transform="translate(-1.33 -8.61)"/><ellipse class="cls-2" cx="333.15" cy="36.38" rx="0.48" ry="0.28"/><ellipse class="cls-2" cx="334.93" cy="35.35" rx="0.48" ry="0.28"/><path class="cls-2" d="M338.39,42.73a.22.22,0,0,1,0,.4.76.76,0,0,1-.69,0,.22.22,0,0,1,0-.4A.83.83,0,0,1,338.39,42.73Z" transform="translate(-1.33 -8.61)"/><path class="cls-2" d="M321.67,49.94a.77.77,0,0,1,.68,0,.21.21,0,0,1,0,.4.74.74,0,0,1-.68,0C321.48,50.22,321.48,50,321.67,49.94Z" transform="translate(-1.33 -8.61)"/><path class="cls-2" d="M324.14,48.91a.21.21,0,0,1,0,.39.76.76,0,0,1-.69,0,.21.21,0,0,1,0-.39A.76.76,0,0,1,324.14,48.91Z" transform="translate(-1.33 -8.61)"/><ellipse class="cls-2" cx="324.24" cy="39.47" rx="0.48" ry="0.28"/><path class="cls-2" d="M327.7,46.85c.19.11.19.28,0,.39a.74.74,0,0,1-.68,0c-.19-.11-.19-.28,0-.39A.74.74,0,0,1,327.7,46.85Z" transform="translate(-1.33 -8.61)"/><ellipse class="cls-2" cx="327.81" cy="37.41" rx="0.48" ry="0.28"/><ellipse class="cls-2" cx="329.59" cy="36.38" rx="0.48" ry="0.28"/><ellipse class="cls-2" cx="331.37" cy="35.35" rx="0.48" ry="0.28"/><ellipse class="cls-2" cx="333.15" cy="34.32" rx="0.48" ry="0.28"/><path class="cls-2" d="M319.89,48.91a.74.74,0,0,1,.68,0c.19.1.19.28,0,.39a.74.74,0,0,1-.68,0C319.7,49.19,319.7,49,319.89,48.91Z" transform="translate(-1.33 -8.61)"/><ellipse class="cls-2" cx="320.68" cy="39.47" rx="0.48" ry="0.28"/><path class="cls-2" d="M324.14,46.85a.21.21,0,0,1,0,.39.76.76,0,0,1-.69,0,.21.21,0,0,1,0-.39A.76.76,0,0,1,324.14,46.85Z" transform="translate(-1.33 -8.61)"/><path class="cls-2" d="M325.92,45.82a.21.21,0,0,1,0,.39.74.74,0,0,1-.68,0c-.19-.11-.19-.28,0-.39A.74.74,0,0,1,325.92,45.82Z" transform="translate(-1.33 -8.61)"/><ellipse class="cls-2" cx="326.02" cy="36.38" rx="0.48" ry="0.28"/><path class="cls-2" d="M329.48,43.76a.21.21,0,0,1,0,.4.74.74,0,0,1-.68,0,.21.21,0,0,1,0-.4A.74.74,0,0,1,329.48,43.76Z" transform="translate(-1.33 -8.61)"/><path class="cls-2" d="M318.11,47.88a.74.74,0,0,1,.68,0c.19.11.19.28,0,.39a.74.74,0,0,1-.68,0C317.92,48.16,317.92,48,318.11,47.88Z" transform="translate(-1.33 -8.61)"/><path class="cls-2" d="M320.57,46.85c.19.11.19.28,0,.39a.74.74,0,0,1-.68,0c-.19-.11-.19-.28,0-.39A.74.74,0,0,1,320.57,46.85Z" transform="translate(-1.33 -8.61)"/><ellipse class="cls-2" cx="320.68" cy="37.41" rx="0.48" ry="0.28"/><path class="cls-2" d="M324.14,44.79a.22.22,0,0,1,0,.4.83.83,0,0,1-.69,0,.22.22,0,0,1,0-.4A.76.76,0,0,1,324.14,44.79Z" transform="translate(-1.33 -8.61)"/><path class="cls-2" d="M316.33,46.85a.74.74,0,0,1,.68,0c.19.11.19.28,0,.39a.74.74,0,0,1-.68,0c-.19-.11-.19-.28,0-.39Z" transform="translate(-1.33 -8.61)"/><path class="cls-2" d="M318.79,45.82c.19.11.19.28,0,.39a.74.74,0,0,1-.68,0C317.92,46.1,318.6,45.71,318.79,45.82Z" transform="translate(-1.33 -8.61)"/><polygon class="cls-1" points="295.57 31.85 295.57 41.54 303.22 45.96 303.22 36.27 295.57 31.85"/><path class="cls-1" d="M318.42,32.45l15.27-3.22L341.92,34l-26.39,4.56-11,6.33-7.65-4.41,10.75-6.21,8.11-15.37L324,23.66Z" transform="translate(-1.33 -8.61)"/><path class="cls-3" d="M318.42,35l15.27-3.22,8.23,4.75-26.39,4.55-11,6.34L296.9,43l10.75-6.21,8.11-15.37L324,26.2Z" transform="translate(-1.33 -8.61)"/><path class="cls-2" d="M342,33.59l-8.24-4.76-9.34,2V23.44l-.5-.29-8.29-4.79L307.37,34,296.9,40l-.38.22V50.36l7.66,4.42.37.22.38-.22,10.73-6.2L342.3,44V33.77ZM304.18,53.91l-6.91-4V41.11l.17.09,6.74,3.89Zm-6.36-13.36-.17-.09,10.19-5.89.09,0,8-15.12,7.6,4.38L317.62,33l16-3.37,7.21,4.16L329.7,35.71l-13.79,2.38-.51.09-.24.14-10.61,6.12Z" transform="translate(-1.33 -8.61)"/><polygon class="cls-1" points="314.58 39.21 313.83 39.49 313.83 30.58 314.58 30.3 314.58 39.21"/></g><g id="P"><ellipse class="cls-2" cx="172.87" cy="47.01" rx="0.48" ry="0.28"/><ellipse class="cls-2" cx="174.65" cy="45.98" rx="0.48" ry="0.28"/><ellipse class="cls-2" cx="176.43" cy="44.95" rx="0.48" ry="0.28"/><path class="cls-2" d="M179.89,52.34c.19.1.19.28,0,.39a.74.74,0,0,1-.68,0c-.19-.11-.19-.29,0-.39A.74.74,0,0,1,179.89,52.34Z" transform="translate(-1.33 -8.61)"/><path class="cls-2" d="M171,55.42c.19.11.19.29,0,.39a.74.74,0,0,1-.68,0c-.19-.1-.19-.28,0-.39A.74.74,0,0,1,171,55.42Z" transform="translate(-1.33 -8.61)"/><path class="cls-2" d="M172.76,54.39a.21.21,0,0,1,0,.4.81.81,0,0,1-.68,0,.21.21,0,0,1,0-.4A.74.74,0,0,1,172.76,54.39Z" transform="translate(-1.33 -8.61)"/><path class="cls-2" d="M174.55,53.36a.22.22,0,0,1,0,.4.76.76,0,0,1-.69,0,.22.22,0,0,1,0-.4A.83.83,0,0,1,174.55,53.36Z" transform="translate(-1.33 -8.61)"/><path class="cls-2" d="M176.33,52.34a.21.21,0,0,1,0,.39.74.74,0,0,1-.68,0c-.19-.11-.19-.29,0-.39A.74.74,0,0,1,176.33,52.34Z" transform="translate(-1.33 -8.61)"/><path class="cls-2" d="M178.11,51.31c.19.11.19.28,0,.39a.74.74,0,0,1-.68,0c-.19-.11-.19-.28,0-.39A.74.74,0,0,1,178.11,51.31Z" transform="translate(-1.33 -8.61)"/><path class="cls-2" d="M167.42,55.42c.19.11.19.29,0,.39a.74.74,0,0,1-.68,0c-.19-.1-.19-.28,0-.39A.74.74,0,0,1,167.42,55.42Z" transform="translate(-1.33 -8.61)"/><ellipse class="cls-2" cx="167.53" cy="45.98" rx="0.48" ry="0.28"/><path class="cls-2" d="M171,53.36a.21.21,0,0,1,0,.4.74.74,0,0,1-.68,0,.21.21,0,0,1,0-.4A.81.81,0,0,1,171,53.36Z" transform="translate(-1.33 -8.61)"/><path class="cls-2" d="M172.76,52.34c.19.1.19.28,0,.39a.74.74,0,0,1-.68,0c-.19-.11-.19-.29,0-.39A.74.74,0,0,1,172.76,52.34Z" transform="translate(-1.33 -8.61)"/><path class="cls-2" d="M174.55,51.31a.21.21,0,0,1,0,.39.76.76,0,0,1-.69,0,.21.21,0,0,1,0-.39A.76.76,0,0,1,174.55,51.31Z" transform="translate(-1.33 -8.61)"/><ellipse class="cls-2" cx="174.65" cy="41.87" rx="0.48" ry="0.28"/><ellipse class="cls-2" cx="162.17" cy="47" rx="0.48" ry="0.28"/><path class="cls-2" d="M165.62,54.38c.19.11.19.29,0,.39a.74.74,0,0,1-.68,0c-.19-.1-.19-.28,0-.39A.74.74,0,0,1,165.62,54.38Z" transform="translate(-1.33 -8.61)"/><ellipse class="cls-2" cx="165.73" cy="44.94" rx="0.48" ry="0.28"/><path class="cls-2" d="M169.19,52.32a.22.22,0,0,1,0,.4.76.76,0,0,1-.69,0,.22.22,0,0,1,0-.4A.83.83,0,0,1,169.19,52.32Z" transform="translate(-1.33 -8.61)"/><path class="cls-2" d="M171,51.3c.19.1.19.28,0,.39a.74.74,0,0,1-.68,0c-.19-.11-.19-.29,0-.39A.74.74,0,0,1,171,51.3Z" transform="translate(-1.33 -8.61)"/><ellipse class="cls-2" cx="171.08" cy="41.86" rx="0.48" ry="0.28"/><path class="cls-2" d="M174.53,49.24c.19.11.19.28,0,.39a.74.74,0,0,1-.68,0c-.19-.11-.19-.28,0-.39A.74.74,0,0,1,174.53,49.24Z" transform="translate(-1.33 -8.61)"/><path class="cls-2" d="M160.28,55.41c.19.11.19.28,0,.39a.74.74,0,0,1-.68,0c-.19-.11-.19-.28,0-.39A.74.74,0,0,1,160.28,55.41Z" transform="translate(-1.33 -8.61)"/><ellipse class="cls-2" cx="160.39" cy="45.97" rx="0.48" ry="0.28"/><ellipse class="cls-2" cx="162.17" cy="44.94" rx="0.48" ry="0.28"/><path class="cls-2" d="M165.62,52.32a.21.21,0,0,1,0,.4.74.74,0,0,1-.68,0,.21.21,0,0,1,0-.4A.81.81,0,0,1,165.62,52.32Z" transform="translate(-1.33 -8.61)"/><path class="cls-2" d="M167.4,51.3c.19.1.19.28,0,.39a.74.74,0,0,1-.68,0,.21.21,0,0,1,0-.39A.74.74,0,0,1,167.4,51.3Z" transform="translate(-1.33 -8.61)"/><path class="cls-2" d="M169.19,50.27a.21.21,0,0,1,0,.39.76.76,0,0,1-.69,0,.21.21,0,0,1,0-.39A.76.76,0,0,1,169.19,50.27Z" transform="translate(-1.33 -8.61)"/><path class="cls-2" d="M171,49.24c.19.11.19.28,0,.39a.74.74,0,0,1-.68,0c-.19-.11-.19-.28,0-.39A.74.74,0,0,1,171,49.24Z" transform="translate(-1.33 -8.61)"/><path class="cls-2" d="M158.5,54.38c.19.11.19.29,0,.39a.74.74,0,0,1-.68,0c-.19-.1-.19-.28,0-.39A.74.74,0,0,1,158.5,54.38Z" transform="translate(-1.33 -8.61)"/><path class="cls-2" d="M160.28,53.35a.21.21,0,0,1,0,.4.74.74,0,0,1-.68,0,.21.21,0,0,1,0-.4A.74.74,0,0,1,160.28,53.35Z" transform="translate(-1.33 -8.61)"/><ellipse class="cls-2" cx="160.39" cy="43.91" rx="0.48" ry="0.28"/><ellipse class="cls-2" cx="162.17" cy="42.89" rx="0.48" ry="0.28"/><path class="cls-2" d="M165.62,50.27c.19.11.19.28,0,.39a.74.74,0,0,1-.68,0c-.19-.11-.19-.28,0-.39A.74.74,0,0,1,165.62,50.27Z" transform="translate(-1.33 -8.61)"/><path class="cls-2" d="M167.4,49.24c.19.11.19.28,0,.39a.74.74,0,0,1-.68,0,.21.21,0,0,1,0-.39A.74.74,0,0,1,167.4,49.24Z" transform="translate(-1.33 -8.61)"/><ellipse class="cls-2" cx="147.92" cy="49.06" rx="0.48" ry="0.28"/><path class="cls-2" d="M151.37,56.44c.19.11.19.28,0,.39a.74.74,0,0,1-.68,0c-.19-.11-.19-.28,0-.39A.74.74,0,0,1,151.37,56.44Z" transform="translate(-1.33 -8.61)"/><ellipse class="cls-2" cx="151.48" cy="47" rx="0.48" ry="0.28"/><path class="cls-2" d="M154.94,54.38a.21.21,0,0,1,0,.39.74.74,0,0,1-.68,0c-.19-.1-.19-.28,0-.39A.74.74,0,0,1,154.94,54.38Z" transform="translate(-1.33 -8.61)"/><path class="cls-2" d="M156.72,53.35a.21.21,0,0,1,0,.4.74.74,0,0,1-.68,0,.21.21,0,0,1,0-.4A.74.74,0,0,1,156.72,53.35Z" transform="translate(-1.33 -8.61)"/><path class="cls-2" d="M158.5,52.32a.21.21,0,0,1,0,.4.74.74,0,0,1-.68,0,.21.21,0,0,1,0-.4A.81.81,0,0,1,158.5,52.32Z" transform="translate(-1.33 -8.61)"/><path class="cls-2" d="M160.28,51.3c.19.1.19.28,0,.39a.74.74,0,0,1-.68,0c-.19-.11-.19-.29,0-.39A.74.74,0,0,1,160.28,51.3Z" transform="translate(-1.33 -8.61)"/><ellipse class="cls-2" cx="160.39" cy="41.86" rx="0.48" ry="0.28"/><path class="cls-2" d="M163.84,49.24c.19.11.19.28,0,.39a.74.74,0,0,1-.68,0c-.19-.11-.19-.28,0-.39A.74.74,0,0,1,163.84,49.24Z" transform="translate(-1.33 -8.61)"/><ellipse class="cls-2" cx="144.36" cy="49.06" rx="0.48" ry="0.28"/><ellipse class="cls-2" cx="146.14" cy="48.03" rx="0.48" ry="0.28"/><path class="cls-2" d="M149.59,55.41c.19.11.19.28,0,.39a.74.74,0,0,1-.68,0c-.19-.11-.19-.28,0-.39A.74.74,0,0,1,149.59,55.41Z" transform="translate(-1.33 -8.61)"/><path class="cls-2" d="M151.37,54.38a.21.21,0,0,1,0,.4.81.81,0,0,1-.68,0,.21.21,0,0,1,0-.4A.74.74,0,0,1,151.37,54.38Z" transform="translate(-1.33 -8.61)"/><path class="cls-2" d="M153.16,53.35a.22.22,0,0,1,0,.4.76.76,0,0,1-.69,0,.22.22,0,0,1,0-.4A.76.76,0,0,1,153.16,53.35Z" transform="translate(-1.33 -8.61)"/><ellipse class="cls-2" cx="153.26" cy="43.91" rx="0.48" ry="0.28"/><path class="cls-2" d="M156.72,51.3c.19.11.19.28,0,.39a.74.74,0,0,1-.68,0c-.19-.11-.19-.28,0-.39A.74.74,0,0,1,156.72,51.3Z" transform="translate(-1.33 -8.61)"/><ellipse class="cls-2" cx="156.83" cy="41.86" rx="0.48" ry="0.28"/><path class="cls-2" d="M160.28,49.24c.19.11.19.28,0,.39a.74.74,0,0,1-.68,0c-.19-.11-.19-.28,0-.39A.74.74,0,0,1,160.28,49.24Z" transform="translate(-1.33 -8.61)"/><path class="cls-2" d="M162.06,48.21c.19.11.19.29,0,.39a.74.74,0,0,1-.68,0c-.19-.1-.19-.28,0-.39A.74.74,0,0,1,162.06,48.21Z" transform="translate(-1.33 -8.61)"/><path class="cls-2" d="M144.25,56.44c.19.11.19.28,0,.39a.74.74,0,0,1-.68,0c-.19-.11-.19-.28,0-.39A.74.74,0,0,1,144.25,56.44Z" transform="translate(-1.33 -8.61)"/><path class="cls-2" d="M146,55.41c.19.11.19.28,0,.39a.74.74,0,0,1-.68,0c-.19-.11-.19-.28,0-.39A.74.74,0,0,1,146,55.41Z" transform="translate(-1.33 -8.61)"/><path class="cls-2" d="M147.81,54.38a.21.21,0,0,1,0,.4.81.81,0,0,1-.68,0,.21.21,0,0,1,0-.4A.74.74,0,0,1,147.81,54.38Z" transform="translate(-1.33 -8.61)"/><ellipse class="cls-2" cx="147.92" cy="44.94" rx="0.48" ry="0.28"/><path class="cls-2" d="M151.37,52.32a.21.21,0,0,1,0,.4.74.74,0,0,1-.68,0,.21.21,0,0,1,0-.4A.81.81,0,0,1,151.37,52.32Z" transform="translate(-1.33 -8.61)"/><path class="cls-2" d="M153.16,51.3a.21.21,0,0,1,0,.39.76.76,0,0,1-.69,0,.21.21,0,0,1,0-.39A.76.76,0,0,1,153.16,51.3Z" transform="translate(-1.33 -8.61)"/><ellipse class="cls-2" cx="153.26" cy="41.86" rx="0.48" ry="0.28"/><path class="cls-2" d="M156.72,49.24c.19.11.19.28,0,.39a.74.74,0,0,1-.68,0c-.19-.11-.19-.28,0-.39A.74.74,0,0,1,156.72,49.24Z" transform="translate(-1.33 -8.61)"/><path class="cls-2" d="M158.5,48.21c.19.11.19.29,0,.39a.74.74,0,0,1-.68,0c-.19-.1-.19-.28,0-.39A.74.74,0,0,1,158.5,48.21Z" transform="translate(-1.33 -8.61)"/><path class="cls-2" d="M160.28,47.58a.81.81,0,0,1-.68,0,.21.21,0,0,1,0-.4C159.79,47.07,160.47,47.47,160.28,47.58Z" transform="translate(-1.33 -8.61)"/><path class="cls-2" d="M142.47,55.41c.19.11.19.28,0,.39a.74.74,0,0,1-.68,0c-.19-.11-.19-.28,0-.39A.74.74,0,0,1,142.47,55.41Z" transform="translate(-1.33 -8.61)"/><path class="cls-2" d="M144.25,54.38a.21.21,0,0,1,0,.4.81.81,0,0,1-.68,0,.21.21,0,0,1,0-.4A.74.74,0,0,1,144.25,54.38Z" transform="translate(-1.33 -8.61)"/><path class="cls-2" d="M146,53.35a.21.21,0,0,1,0,.4.74.74,0,0,1-.68,0,.21.21,0,0,1,0-.4A.74.74,0,0,1,146,53.35Z" transform="translate(-1.33 -8.61)"/><path class="cls-2" d="M147.81,52.32a.21.21,0,0,1,0,.4.74.74,0,0,1-.68,0,.21.21,0,0,1,0-.4A.81.81,0,0,1,147.81,52.32Z" transform="translate(-1.33 -8.61)"/><path class="cls-2" d="M149.59,51.3c.19.11.19.28,0,.39a.74.74,0,0,1-.68,0c-.19-.11-.19-.28,0-.39A.74.74,0,0,1,149.59,51.3Z" transform="translate(-1.33 -8.61)"/><ellipse class="cls-2" cx="149.7" cy="41.86" rx="0.48" ry="0.28"/><path class="cls-2" d="M153.16,49.24a.21.21,0,0,1,0,.39.76.76,0,0,1-.69,0,.21.21,0,0,1,0-.39A.76.76,0,0,1,153.16,49.24Z" transform="translate(-1.33 -8.61)"/><path class="cls-2" d="M154.94,48.21a.21.21,0,0,1,0,.39.74.74,0,0,1-.68,0c-.19-.1-.19-.28,0-.39A.74.74,0,0,1,154.94,48.21Z" transform="translate(-1.33 -8.61)"/><path class="cls-2" d="M156,47.18a.74.74,0,0,1,.68,0,.21.21,0,0,1,0,.4.81.81,0,0,1-.68,0,.21.21,0,0,1,0-.4Z" transform="translate(-1.33 -8.61)"/><path class="cls-2" d="M140.69,54.38a.22.22,0,0,1,0,.4.81.81,0,0,1-.68,0,.21.21,0,0,1,0-.4A.74.74,0,0,1,140.69,54.38Z" transform="translate(-1.33 -8.61)"/><path class="cls-2" d="M142.47,53.35a.21.21,0,0,1,0,.4.74.74,0,0,1-.68,0,.21.21,0,0,1,0-.4A.74.74,0,0,1,142.47,53.35Z" transform="translate(-1.33 -8.61)"/><ellipse class="cls-2" cx="142.58" cy="43.91" rx="0.48" ry="0.28"/><ellipse class="cls-2" cx="137.22" cy="44.93" rx="0.48" ry="0.28"/><path class="cls-2" d="M140.67,52.31a.21.21,0,0,1,0,.4.74.74,0,0,1-.68,0,.21.21,0,0,1,0-.4A.81.81,0,0,1,140.67,52.31Z" transform="translate(-1.33 -8.61)"/><path class="cls-2" d="M142.45,51.29c.19.1.19.28,0,.39a.74.74,0,0,1-.68,0c-.19-.11-.19-.29,0-.39A.74.74,0,0,1,142.45,51.29Z" transform="translate(-1.33 -8.61)"/><path class="cls-2" d="M137.11,52.31a.21.21,0,0,1,0,.4.74.74,0,0,1-.68,0,.21.21,0,0,1,0-.4A.81.81,0,0,1,137.11,52.31Z" transform="translate(-1.33 -8.61)"/><path class="cls-2" d="M138.89,51.29c.19.1.19.28,0,.39a.74.74,0,0,1-.68,0c-.19-.11-.19-.29,0-.39A.74.74,0,0,1,138.89,51.29Z" transform="translate(-1.33 -8.61)"/><path class="cls-2" d="M140.67,50.26c.19.11.19.28,0,.39a.74.74,0,0,1-.68,0c-.19-.11-.19-.28,0-.39A.74.74,0,0,1,140.67,50.26Z" transform="translate(-1.33 -8.61)"/><path class="cls-2" d="M137.11,50.26c.19.11.19.28,0,.39a.74.74,0,0,1-.68,0c-.19-.11-.19-.28,0-.39A.74.74,0,0,1,137.11,50.26Z" transform="translate(-1.33 -8.61)"/><path class="cls-2" d="M138.89,49.23c.19.11.19.28,0,.39a.74.74,0,0,1-.68,0c-.19-.11-.19-.28,0-.39A.74.74,0,0,1,138.89,49.23Z" transform="translate(-1.33 -8.61)"/><path class="cls-2" d="M137.11,48.2c.19.11.19.29,0,.39a.74.74,0,0,1-.68,0c-.19-.1-.19-.28,0-.39A.74.74,0,0,1,137.11,48.2Z" transform="translate(-1.33 -8.61)"/><path class="cls-2" d="M181,51.32a.74.74,0,0,1,.68,0c.19.11.19.29,0,.39a.77.77,0,0,1-.68,0A.21.21,0,0,1,181,51.32Z" transform="translate(-1.33 -8.61)"/><path class="cls-2" d="M183.46,50.29a.22.22,0,0,1,0,.4.81.81,0,0,1-.68,0,.21.21,0,0,1,0-.4A.74.74,0,0,1,183.46,50.29Z" transform="translate(-1.33 -8.61)"/><path class="cls-2" d="M185.24,49.26a.21.21,0,0,1,0,.4.74.74,0,0,1-.68,0,.21.21,0,0,1,0-.4A.81.81,0,0,1,185.24,49.26Z" transform="translate(-1.33 -8.61)"/><path class="cls-2" d="M179.21,50.29a.74.74,0,0,1,.68,0,.21.21,0,0,1,0,.4.77.77,0,0,1-.68,0A.21.21,0,0,1,179.21,50.29Z" transform="translate(-1.33 -8.61)"/><path class="cls-2" d="M181.68,49.26a.22.22,0,0,1,0,.4.76.76,0,0,1-.69,0,.22.22,0,0,1,0-.4A.83.83,0,0,1,181.68,49.26Z" transform="translate(-1.33 -8.61)"/><path class="cls-2" d="M183.46,48.24a.21.21,0,0,1,0,.39.74.74,0,0,1-.68,0c-.19-.11-.19-.29,0-.39A.74.74,0,0,1,183.46,48.24Z" transform="translate(-1.33 -8.61)"/><path class="cls-2" d="M185.24,47.21c.19.11.19.28,0,.39a.74.74,0,0,1-.68,0c-.19-.11-.19-.28,0-.39A.74.74,0,0,1,185.24,47.21Z" transform="translate(-1.33 -8.61)"/><path class="cls-2" d="M177.43,49.27a.77.77,0,0,1,.68,0,.21.21,0,0,1,0,.4.74.74,0,0,1-.68,0C177.24,49.55,177.24,49.37,177.43,49.27Z" transform="translate(-1.33 -8.61)"/><ellipse class="cls-2" cx="178.22" cy="39.83" rx="0.48" ry="0.28"/><ellipse class="cls-2" cx="180" cy="38.8" rx="0.48" ry="0.28"/><path class="cls-2" d="M183.46,46.18a.21.21,0,0,1,0,.39.74.74,0,0,1-.68,0c-.19-.11-.19-.28,0-.39A.74.74,0,0,1,183.46,46.18Z" transform="translate(-1.33 -8.61)"/><path class="cls-2" d="M175.63,48.23a.74.74,0,0,1,.68,0,.21.21,0,0,1,0,.39.76.76,0,0,1-.69,0,.21.21,0,0,1,0-.39Z" transform="translate(-1.33 -8.61)"/><path class="cls-2" d="M178.1,47.2c.19.1.19.28,0,.39a.74.74,0,0,1-.68,0c-.19-.11-.19-.29,0-.39A.74.74,0,0,1,178.1,47.2Z" transform="translate(-1.33 -8.61)"/><ellipse class="cls-2" cx="178.21" cy="37.76" rx="0.48" ry="0.28"/><ellipse class="cls-2" cx="179.99" cy="36.73" rx="0.48" ry="0.28"/><polygon class="cls-1" points="136.3 29.16 136.3 38.85 143.9 43.23 143.9 33.55 136.3 29.16"/><path class="cls-1" d="M175.09,36.61l-8.51,1.88L156,36.85l-1.44-.08v9.69l2.13,1.23a21.68,21.68,0,0,0,10.47,3.07,18.83,18.83,0,0,0,10.05-2.59c2.55-1.47,3.86-3.05,4-4.74h0V33.72Z" transform="translate(-1.33 -8.61)"/><path class="cls-2" d="M167.6,51.14h-.45A22.18,22.18,0,0,1,156.51,48l-2.33-1.34V36.37l1.84.1,10.55,1.64,8.4-1.86,6.58-3.12,0,10.56c-.2,1.73-1.59,3.34-4.12,4.8A19.36,19.36,0,0,1,167.6,51.14Zm-12.67-4.9,1.95,1.12a21.43,21.43,0,0,0,10.28,3A18.67,18.67,0,0,0,177,47.84c2.41-1.39,3.68-2.88,3.77-4.43v-9.1L175.17,37l-8.58,1.89-10.65-1.65-1-.06Z" transform="translate(-1.33 -8.61)"/><path class="cls-1" d="M177.21,38.48a18.83,18.83,0,0,1-10.05,2.59A21.68,21.68,0,0,1,156.69,38l-2.13-1.23-9.33,5.38-7.6-4.38,28.12-16.24,9.73,5.62q5.34,3.08,5.68,6T177.21,38.48Zm-16.46-5.29,1.39.8a7.47,7.47,0,0,0,3.68,1,7.1,7.1,0,0,0,3.66-.95c1.9-1.1,1.8-2.25-.3-3.47l-2-1.13Z" transform="translate(-1.33 -8.61)"/><path class="cls-3" d="M177.4,40.69a18.94,18.94,0,0,1-10.06,2.6,21.69,21.69,0,0,1-10.46-3.08L154.75,39l-9.33,5.38L137.82,40l28.12-16.24,9.73,5.62q5.33,3.08,5.67,6C181.58,37.25,180.26,39,177.4,40.69ZM160.94,35.4l1.38.8a7.5,7.5,0,0,0,3.69,1,7,7,0,0,0,3.66-.95c1.9-1.1,1.8-2.25-.31-3.47l-2-1.13Z" transform="translate(-1.33 -8.61)"/><path class="cls-2" d="M169.36,30.27,167.21,29,160,33.19,162,34.31a7.84,7.84,0,0,0,3.86,1.07h.12a7.33,7.33,0,0,0,3.74-1c1-.6,1.54-1.23,1.54-1.92S170.6,31,169.36,30.27Z" transform="translate(-1.33 -8.61)"/><path class="cls-2" d="M181.53,33.07c-.25-2.07-2.17-4.11-5.86-6.24l-9.92-5.73L137.63,37.33l-.37.22V47.67l7.59,4.39.38.21.37-.21,9.33-5.39V37.42l1.58.9a22.07,22.07,0,0,0,10.64,3.13A19.39,19.39,0,0,0,177.4,38.8C180.39,37.08,181.78,35.15,181.53,33.07ZM138,47.24V38.41l6.84,4v8.82Zm7.59,3.95V42.37l8.58-4.95v8.82Zm31.43-13a18.76,18.76,0,0,1-9.87,2.55,21.43,21.43,0,0,1-10.28-3l-1.95-1.12-.37-.22h0l-9.33,5.39-6.85-3.95L165.75,22l9.55,5.51c3.42,2,5.27,3.9,5.49,5.69S179.73,36.59,177,38.15Z" transform="translate(-1.33 -8.61)"/><polygon class="cls-2" points="163.46 32.24 163.46 41.96 168.91 42.16 175.5 39.9 179.3 37.2 179.79 34.03 180.23 25.84 176.93 29.66 173.29 31.53 168.46 32.53 163.46 32.24"/><polygon class="cls-2" points="153.23 28.16 153.23 37.85 143.9 43.23 143.9 33.55 153.23 28.16"/></g><g id="L"><path class="cls-2" d="M213.24,68.07c.19.11.19.28,0,.39a.74.74,0,0,1-.68,0c-.19-.11-.19-.28,0-.39A.74.74,0,0,1,213.24,68.07Z" transform="translate(-1.33 -8.61)"/><ellipse class="cls-2" cx="213.35" cy="58.63" rx="0.48" ry="0.28"/><path class="cls-2" d="M216.8,66c.19.11.19.28,0,.39a.74.74,0,0,1-.68,0,.21.21,0,0,1,0-.39A.74.74,0,0,1,216.8,66Z" transform="translate(-1.33 -8.61)"/><path class="cls-2" d="M218.59,65a.21.21,0,0,1,0,.39.76.76,0,0,1-.69,0,.21.21,0,0,1,0-.39A.76.76,0,0,1,218.59,65Z" transform="translate(-1.33 -8.61)"/><path class="cls-2" d="M211.46,67c.19.11.19.28,0,.39a.74.74,0,0,1-.68,0c-.19-.11-.19-.28,0-.39A.74.74,0,0,1,211.46,67Z" transform="translate(-1.33 -8.61)"/><ellipse class="cls-2" cx="211.57" cy="57.6" rx="0.48" ry="0.28"/><path class="cls-2" d="M215,65c.19.11.19.29,0,.39a.74.74,0,0,1-.68,0c-.19-.1-.19-.28,0-.39A.74.74,0,0,1,215,65Z" transform="translate(-1.33 -8.61)"/><path class="cls-2" d="M209.68,66c.19.11.19.28,0,.39a.74.74,0,0,1-.68,0c-.19-.11-.19-.28,0-.39A.74.74,0,0,1,209.68,66Z" transform="translate(-1.33 -8.61)"/><ellipse class="cls-2" cx="209.79" cy="56.57" rx="0.48" ry="0.28"/><ellipse class="cls-2" cx="211.57" cy="55.54" rx="0.48" ry="0.28"/><ellipse class="cls-2" cx="206.23" cy="56.57" rx="0.48" ry="0.28"/><ellipse class="cls-2" cx="208.01" cy="55.54" rx="0.48" ry="0.28"/><ellipse class="cls-2" cx="209.79" cy="54.51" rx="0.48" ry="0.28"/><path class="cls-2" d="M206.12,64a.21.21,0,0,1,0,.4.81.81,0,0,1-.68,0,.21.21,0,0,1,0-.4A.74.74,0,0,1,206.12,64Z" transform="translate(-1.33 -8.61)"/><path class="cls-2" d="M207.9,62.92a.21.21,0,0,1,0,.4.74.74,0,0,1-.68,0,.21.21,0,0,1,0-.4A.81.81,0,0,1,207.9,62.92Z" transform="translate(-1.33 -8.61)"/><path class="cls-2" d="M209.68,61.9c.19.1.19.28,0,.39a.74.74,0,0,1-.68,0c-.19-.11-.19-.29,0-.39A.74.74,0,0,1,209.68,61.9Z" transform="translate(-1.33 -8.61)"/><ellipse class="cls-2" cx="202.65" cy="54.5" rx="0.48" ry="0.28"/><ellipse class="cls-2" cx="204.43" cy="53.48" rx="0.48" ry="0.28"/><path class="cls-2" d="M207.88,60.86c.19.11.19.28,0,.39a.74.74,0,0,1-.68,0c-.19-.11-.19-.28,0-.39A.74.74,0,0,1,207.88,60.86Z" transform="translate(-1.33 -8.61)"/><path class="cls-2" d="M202.54,61.89c.19.1.19.28,0,.39a.74.74,0,0,1-.68,0c-.19-.11-.19-.29,0-.39A.74.74,0,0,1,202.54,61.89Z" transform="translate(-1.33 -8.61)"/><path class="cls-2" d="M204.32,60.86c.19.11.19.28,0,.39a.74.74,0,0,1-.68,0c-.19-.11-.19-.28,0-.39A.74.74,0,0,1,204.32,60.86Z" transform="translate(-1.33 -8.61)"/><ellipse class="cls-2" cx="204.43" cy="51.42" rx="0.48" ry="0.28"/><ellipse class="cls-2" cx="199.09" cy="52.45" rx="0.48" ry="0.28"/><path class="cls-2" d="M202.54,59.83c.19.11.19.28,0,.39a.74.74,0,0,1-.68,0c-.19-.11-.19-.28,0-.39A.74.74,0,0,1,202.54,59.83Z" transform="translate(-1.33 -8.61)"/><path class="cls-2" d="M204.32,58.8c.19.11.19.28,0,.39a.74.74,0,0,1-.68,0c-.19-.11-.19-.28,0-.39A.74.74,0,0,1,204.32,58.8Z" transform="translate(-1.33 -8.61)"/><path class="cls-2" d="M199,59.83c.19.11.19.28,0,.39a.74.74,0,0,1-.68,0c-.19-.11-.19-.28,0-.39A.74.74,0,0,1,199,59.83Z" transform="translate(-1.33 -8.61)"/><path class="cls-2" d="M200.76,58.8c.19.11.19.28,0,.39a.74.74,0,0,1-.68,0c-.19-.11-.19-.28,0-.39A.74.74,0,0,1,200.76,58.8Z" transform="translate(-1.33 -8.61)"/><path class="cls-2" d="M202.54,57.77a.21.21,0,0,1,0,.4.81.81,0,0,1-.68,0,.21.21,0,0,1,0-.4A.74.74,0,0,1,202.54,57.77Z" transform="translate(-1.33 -8.61)"/><path class="cls-2" d="M197.2,58.8a.21.21,0,0,1,0,.39.76.76,0,0,1-.69,0,.21.21,0,0,1,0-.39A.76.76,0,0,1,197.2,58.8Z" transform="translate(-1.33 -8.61)"/><path class="cls-2" d="M199,57.77a.21.21,0,0,1,0,.4.81.81,0,0,1-.68,0,.21.21,0,0,1,0-.4A.74.74,0,0,1,199,57.77Z" transform="translate(-1.33 -8.61)"/><path class="cls-2" d="M200.76,56.74a.21.21,0,0,1,0,.4.74.74,0,0,1-.68,0,.21.21,0,0,1,0-.4A.74.74,0,0,1,200.76,56.74Z" transform="translate(-1.33 -8.61)"/><path class="cls-2" d="M195.41,57.77a.21.21,0,0,1,0,.4.81.81,0,0,1-.68,0,.22.22,0,0,1,0-.4A.74.74,0,0,1,195.41,57.77Z" transform="translate(-1.33 -8.61)"/><ellipse class="cls-2" cx="195.52" cy="48.33" rx="0.48" ry="0.28"/><path class="cls-2" d="M199,55.71a.21.21,0,0,1,0,.4.74.74,0,0,1-.68,0,.21.21,0,0,1,0-.4A.81.81,0,0,1,199,55.71Z" transform="translate(-1.33 -8.61)"/><path class="cls-2" d="M195.41,55.71a.21.21,0,0,1,0,.4.74.74,0,0,1-.68,0,.22.22,0,0,1,0-.4A.81.81,0,0,1,195.41,55.71Z" transform="translate(-1.33 -8.61)"/><path class="cls-2" d="M197.2,54.69a.21.21,0,0,1,0,.39.76.76,0,0,1-.69,0,.21.21,0,0,1,0-.39A.76.76,0,0,1,197.2,54.69Z" transform="translate(-1.33 -8.61)"/><path class="cls-2" d="M199,54.05a.74.74,0,0,1-.68,0c-.19-.11-.19-.28,0-.39S199.17,53.94,199,54.05Z" transform="translate(-1.33 -8.61)"/><path class="cls-2" d="M195.41,53.66c.19.11.19.28,0,.39a.74.74,0,0,1-.68,0,.21.21,0,0,1,0-.39A.74.74,0,0,1,195.41,53.66Z" transform="translate(-1.33 -8.61)"/><ellipse class="cls-2" cx="218.76" cy="61.55" rx="0.48" ry="0.28"/><path class="cls-2" d="M222.22,68.93c.19.11.19.28,0,.39a.74.74,0,0,1-.68,0c-.19-.11-.19-.28,0-.39A.74.74,0,0,1,222.22,68.93Z" transform="translate(-1.33 -8.61)"/><ellipse class="cls-2" cx="222.33" cy="59.49" rx="0.48" ry="0.28"/><ellipse class="cls-2" cx="215.2" cy="61.55" rx="0.48" ry="0.28"/><path class="cls-2" d="M218.66,68.93a.21.21,0,0,1,0,.39.76.76,0,0,1-.69,0,.21.21,0,0,1,0-.39A.76.76,0,0,1,218.66,68.93Z" transform="translate(-1.33 -8.61)"/><path class="cls-2" d="M220.44,67.9a.21.21,0,0,1,0,.4.81.81,0,0,1-.68,0,.21.21,0,0,1,0-.4A.74.74,0,0,1,220.44,67.9Z" transform="translate(-1.33 -8.61)"/><path class="cls-2" d="M222.22,66.87a.21.21,0,0,1,0,.4.74.74,0,0,1-.68,0,.21.21,0,0,1,0-.4A.74.74,0,0,1,222.22,66.87Z" transform="translate(-1.33 -8.61)"/><path class="cls-2" d="M215.09,68.93c.19.11.19.28,0,.39a.74.74,0,0,1-.68,0c-.19-.11-.19-.28,0-.39A.74.74,0,0,1,215.09,68.93Z" transform="translate(-1.33 -8.61)"/><ellipse class="cls-2" cx="215.2" cy="59.49" rx="0.48" ry="0.28"/><ellipse class="cls-2" cx="216.98" cy="58.46" rx="0.48" ry="0.28"/><ellipse class="cls-2" cx="218.76" cy="57.44" rx="0.48" ry="0.28"/><path class="cls-2" d="M220.38,64c.19.11.19.29,0,.39a.74.74,0,0,1-.68,0c-.19-.1-.19-.28,0-.39A.74.74,0,0,1,220.38,64Z" transform="translate(-1.33 -8.61)"/><path class="cls-2" d="M222.16,62.93a.21.21,0,0,1,0,.4.74.74,0,0,1-.68,0,.21.21,0,0,1,0-.4A.74.74,0,0,1,222.16,62.93Z" transform="translate(-1.33 -8.61)"/><ellipse class="cls-2" cx="222.27" cy="53.49" rx="0.48" ry="0.28"/><path class="cls-2" d="M225.73,60.88a.21.21,0,0,1,0,.39.76.76,0,0,1-.69,0,.21.21,0,0,1,0-.39A.76.76,0,0,1,225.73,60.88Z" transform="translate(-1.33 -8.61)"/><ellipse class="cls-2" cx="225.83" cy="51.44" rx="0.48" ry="0.28"/><path class="cls-2" d="M218.6,62.93a.21.21,0,0,1,0,.4.74.74,0,0,1-.68,0C217.73,63.22,218.41,62.83,218.6,62.93Z" transform="translate(-1.33 -8.61)"/><path class="cls-2" d="M220.38,61.9a.21.21,0,0,1,0,.4.74.74,0,0,1-.68,0C219.51,62.19,220.19,61.8,220.38,61.9Z" transform="translate(-1.33 -8.61)"/><path class="cls-2" d="M223.94,59.85c.19.11.19.28,0,.39a.74.74,0,0,1-.68,0C223.07,60.13,223.76,59.74,223.94,59.85Z" transform="translate(-1.33 -8.61)"/><path class="cls-2" d="M225,58.82a.76.76,0,0,1,.69,0,.21.21,0,0,1,0,.39.76.76,0,0,1-.69,0,.21.21,0,0,1,0-.39Z" transform="translate(-1.33 -8.61)"/><path class="cls-2" d="M225.11,66.88a.74.74,0,0,1,.68,0,.21.21,0,0,1,0,.4.77.77,0,0,1-.68,0A.21.21,0,0,1,225.11,66.88Z" transform="translate(-1.33 -8.61)"/><path class="cls-2" d="M227.58,65.85a.22.22,0,0,1,0,.4.76.76,0,0,1-.69,0,.22.22,0,0,1,0-.4A.83.83,0,0,1,227.58,65.85Z" transform="translate(-1.33 -8.61)"/><path class="cls-2" d="M229.36,64.83c.19.1.19.28,0,.39a.74.74,0,0,1-.68,0c-.19-.11-.19-.29,0-.39A.74.74,0,0,1,229.36,64.83Z" transform="translate(-1.33 -8.61)"/><ellipse class="cls-2" cx="229.47" cy="55.39" rx="0.48" ry="0.28"/><path class="cls-2" d="M223.33,65.86a.77.77,0,0,1,.68,0,.21.21,0,0,1,0,.4.74.74,0,0,1-.68,0C223.14,66.14,223.14,66,223.33,65.86Z" transform="translate(-1.33 -8.61)"/><ellipse class="cls-2" cx="224.12" cy="56.42" rx="0.48" ry="0.28"/><path class="cls-2" d="M227.58,63.8a.21.21,0,0,1,0,.39.76.76,0,0,1-.69,0,.21.21,0,0,1,0-.39A.76.76,0,0,1,227.58,63.8Z" transform="translate(-1.33 -8.61)"/><path class="cls-2" d="M229.36,62.77c.19.11.19.28,0,.39a.74.74,0,0,1-.68,0c-.19-.11-.19-.28,0-.39A.74.74,0,0,1,229.36,62.77Z" transform="translate(-1.33 -8.61)"/><path class="cls-2" d="M231.14,61.74c.19.11.19.28,0,.39a.74.74,0,0,1-.68,0c-.19-.11-.19-.28,0-.39A.74.74,0,0,1,231.14,61.74Z" transform="translate(-1.33 -8.61)"/><path class="cls-2" d="M221.55,64.83a.74.74,0,0,1,.68,0c.19.1.19.28,0,.39a.74.74,0,0,1-.68,0C221.36,65.11,221.36,64.94,221.55,64.83Z" transform="translate(-1.33 -8.61)"/><path class="cls-2" d="M224,63.8c.19.11.19.28,0,.39a.74.74,0,0,1-.68,0c-.19-.11-.19-.28,0-.39A.74.74,0,0,1,224,63.8Z" transform="translate(-1.33 -8.61)"/><path class="cls-2" d="M225.8,62.77a.21.21,0,0,1,0,.39.76.76,0,0,1-.69,0,.21.21,0,0,1,0-.39A.76.76,0,0,1,225.8,62.77Z" transform="translate(-1.33 -8.61)"/><path class="cls-2" d="M227.58,61.74a.21.21,0,0,1,0,.39.76.76,0,0,1-.69,0,.21.21,0,0,1,0-.39A.76.76,0,0,1,227.58,61.74Z" transform="translate(-1.33 -8.61)"/><path class="cls-2" d="M229.36,60.71a.21.21,0,0,1,0,.4.81.81,0,0,1-.68,0,.21.21,0,0,1,0-.4A.74.74,0,0,1,229.36,60.71Z" transform="translate(-1.33 -8.61)"/><path class="cls-1" d="M195.16,52.08V14.53l8.78,5.08V49l12.53,7.23v8.2Z" transform="translate(-1.33 -8.61)"/><polygon class="cls-1" points="193.82 5.92 203.34 0.43 212.12 5.51 202.61 11 193.82 5.92"/><polygon class="cls-1" points="212.12 34.86 224.65 42.09 215.13 47.59 202.61 40.36 212.12 34.86"/><polygon class="cls-3" points="193.82 8.86 203.34 3.37 212.12 8.44 202.61 13.94 193.82 8.86"/><polygon class="cls-3" points="212.12 37.8 224.65 45.03 215.13 50.52 202.61 43.29 212.12 37.8"/><path class="cls-2" d="M226,50.27l-12.15-7V13.9l-.38-.22-8.78-5.07-9.51,5.49-.38.22v38l21.31,12.3.38.22.37-.22,9.51-5.49V50.48ZM204.67,9.47l8,4.64-8.76,5.06-8-4.64Zm11.42,54.27L195.53,51.87V15.18l8,4.64V49.18l.37.22,12.15,7ZM204.69,49l8.76-5.06,11.78,6.8-8.76,5.06Z" transform="translate(-1.33 -8.61)"/></g><g id="A"><path class="cls-2" d="M249.68,57.86a.21.21,0,0,1,0,.39.74.74,0,0,1-.68,0c-.19-.1-.19-.28,0-.39A.74.74,0,0,1,249.68,57.86Z" transform="translate(-1.33 -8.61)"/><ellipse class="cls-2" cx="249.78" cy="48.42" rx="0.48" ry="0.28"/><path class="cls-2" d="M253.24,55.8a.21.21,0,0,1,0,.4.74.74,0,0,1-.68,0,.21.21,0,0,1,0-.4A.81.81,0,0,1,253.24,55.8Z" transform="translate(-1.33 -8.61)"/><path class="cls-2" d="M255,54.78c.19.1.19.28,0,.39a.74.74,0,0,1-.68,0c-.19-.11-.19-.29,0-.39A.74.74,0,0,1,255,54.78Z" transform="translate(-1.33 -8.61)"/><path class="cls-2" d="M256.8,53.75c.19.11.19.28,0,.39a.74.74,0,0,1-.68,0c-.19-.11-.19-.28,0-.39a.74.74,0,0,1,.68,0Z" transform="translate(-1.33 -8.61)"/><ellipse class="cls-2" cx="265.82" cy="39.17" rx="0.48" ry="0.28"/><ellipse class="cls-2" cx="267.6" cy="38.14" rx="0.48" ry="0.28"/><path class="cls-2" d="M271.05,45.52c.19.11.19.29,0,.39a.74.74,0,0,1-.68,0c-.19-.1-.19-.28,0-.39A.74.74,0,0,1,271.05,45.52Z" transform="translate(-1.33 -8.61)"/><path class="cls-2" d="M272.83,44.49a.21.21,0,0,1,0,.4.81.81,0,0,1-.68,0,.21.21,0,0,1,0-.4A.74.74,0,0,1,272.83,44.49Z" transform="translate(-1.33 -8.61)"/><path class="cls-2" d="M247.9,56.83a.22.22,0,0,1,0,.4.83.83,0,0,1-.69,0,.22.22,0,0,1,0-.4A.76.76,0,0,1,247.9,56.83Z" transform="translate(-1.33 -8.61)"/><ellipse class="cls-2" cx="248" cy="47.39" rx="0.48" ry="0.28"/><ellipse class="cls-2" cx="249.78" cy="46.37" rx="0.48" ry="0.28"/><ellipse class="cls-2" cx="251.57" cy="45.34" rx="0.48" ry="0.28"/><ellipse class="cls-2" cx="253.35" cy="44.31" rx="0.48" ry="0.28"/><path class="cls-2" d="M267.49,45.52c.19.11.19.29,0,.39a.74.74,0,0,1-.68,0c-.19-.1-.19-.28,0-.39A.74.74,0,0,1,267.49,45.52Z" transform="translate(-1.33 -8.61)"/><path class="cls-2" d="M269.27,44.49a.21.21,0,0,1,0,.4.81.81,0,0,1-.68,0,.21.21,0,0,1,0-.4A.74.74,0,0,1,269.27,44.49Z" transform="translate(-1.33 -8.61)"/><path class="cls-2" d="M271.05,43.46a.21.21,0,0,1,0,.4.74.74,0,0,1-.68,0,.21.21,0,0,1,0-.4A.81.81,0,0,1,271.05,43.46Z" transform="translate(-1.33 -8.61)"/><ellipse class="cls-2" cx="246.22" cy="46.37" rx="0.48" ry="0.28"/><path class="cls-2" d="M249.68,53.75a.21.21,0,0,1,0,.39.74.74,0,0,1-.68,0c-.19-.11-.19-.28,0-.39A.74.74,0,0,1,249.68,53.75Z" transform="translate(-1.33 -8.61)"/><path class="cls-2" d="M251.46,52.72c.19.11.19.28,0,.39a.74.74,0,0,1-.68,0c-.19-.11-.19-.28,0-.39A.74.74,0,0,1,251.46,52.72Z" transform="translate(-1.33 -8.61)"/><path class="cls-2" d="M253.24,51.69c.19.11.19.29,0,.39a.74.74,0,0,1-.68,0c-.19-.1-.19-.28,0-.39A.74.74,0,0,1,253.24,51.69Z" transform="translate(-1.33 -8.61)"/><path class="cls-2" d="M267.49,43.46a.21.21,0,0,1,0,.4.74.74,0,0,1-.68,0C266.62,43.75,267.3,43.36,267.49,43.46Z" transform="translate(-1.33 -8.61)"/><path class="cls-2" d="M269.27,42.44c.19.1.19.28,0,.39a.74.74,0,0,1-.68,0C268.4,42.72,269.08,42.33,269.27,42.44Z" transform="translate(-1.33 -8.61)"/><path class="cls-2" d="M246.11,53.75c.19.11.19.28,0,.39a.74.74,0,0,1-.68,0c-.19-.11-.19-.28,0-.39A.74.74,0,0,1,246.11,53.75Z" transform="translate(-1.33 -8.61)"/><path class="cls-2" d="M247.9,52.72a.21.21,0,0,1,0,.39.76.76,0,0,1-.69,0,.21.21,0,0,1,0-.39A.76.76,0,0,1,247.9,52.72Z" transform="translate(-1.33 -8.61)"/><path class="cls-2" d="M249.68,51.69a.21.21,0,0,1,0,.39.74.74,0,0,1-.68,0c-.19-.1-.19-.28,0-.39A.74.74,0,0,1,249.68,51.69Z" transform="translate(-1.33 -8.61)"/><ellipse class="cls-2" cx="249.78" cy="42.25" rx="0.48" ry="0.28"/><path class="cls-2" d="M253.24,49.63a.21.21,0,0,1,0,.4.74.74,0,0,1-.68,0,.21.21,0,0,1,0-.4.81.81,0,0,1,.68,0Z" transform="translate(-1.33 -8.61)"/><ellipse class="cls-2" cx="242.66" cy="44.31" rx="0.48" ry="0.28"/><path class="cls-2" d="M246.11,51.69c.19.11.19.29,0,.39a.74.74,0,0,1-.68,0c-.19-.1-.19-.28,0-.39A.74.74,0,0,1,246.11,51.69Z" transform="translate(-1.33 -8.61)"/><path class="cls-2" d="M247.9,50.66a.22.22,0,0,1,0,.4.83.83,0,0,1-.69,0,.22.22,0,0,1,0-.4A.76.76,0,0,1,247.9,50.66Z" transform="translate(-1.33 -8.61)"/><ellipse class="cls-2" cx="248" cy="41.22" rx="0.48" ry="0.28"/><ellipse class="cls-2" cx="249.78" cy="40.2" rx="0.48" ry="0.28"/><path class="cls-2" d="M244.32,50.65a.21.21,0,0,1,0,.4.81.81,0,0,1-.68,0,.21.21,0,0,1,0-.4A.74.74,0,0,1,244.32,50.65Z" transform="translate(-1.33 -8.61)"/><ellipse class="cls-2" cx="244.43" cy="41.21" rx="0.48" ry="0.28"/><ellipse class="cls-2" cx="246.21" cy="40.18" rx="0.48" ry="0.28"/><path class="cls-2" d="M249.66,47.57c.19.11.19.28,0,.39a.74.74,0,0,1-.68,0c-.19-.11-.19-.28,0-.39A.74.74,0,0,1,249.66,47.57Z" transform="translate(-1.33 -8.61)"/><ellipse class="cls-2" cx="240.86" cy="41.21" rx="0.48" ry="0.28"/><path class="cls-2" d="M244.32,48.6c.19.1.19.28,0,.39a.74.74,0,0,1-.68,0c-.19-.11-.19-.29,0-.39A.74.74,0,0,1,244.32,48.6Z" transform="translate(-1.33 -8.61)"/><path class="cls-2" d="M246.1,47.57c.19.11.19.28,0,.39a.74.74,0,0,1-.68,0c-.19-.11-.19-.28,0-.39A.74.74,0,0,1,246.1,47.57Z" transform="translate(-1.33 -8.61)"/><ellipse class="cls-2" cx="246.21" cy="38.13" rx="0.48" ry="0.28"/><path class="cls-2" d="M249.66,45.9a.74.74,0,0,1-.68,0c-.19-.11-.19-.28,0-.39a.74.74,0,0,1,.68,0C249.85,45.62,249.85,45.79,249.66,45.9Z" transform="translate(-1.33 -8.61)"/><path class="cls-2" d="M240.75,48.6c.19.1.19.28,0,.39a.74.74,0,0,1-.68,0,.21.21,0,0,1,0-.39A.74.74,0,0,1,240.75,48.6Z" transform="translate(-1.33 -8.61)"/><path class="cls-2" d="M242.54,47.57a.21.21,0,0,1,0,.39.76.76,0,0,1-.69,0,.21.21,0,0,1,0-.39A.76.76,0,0,1,242.54,47.57Z" transform="translate(-1.33 -8.61)"/><ellipse class="cls-2" cx="242.64" cy="38.13" rx="0.48" ry="0.28"/><path class="cls-2" d="M246.1,45.51c.19.11.19.28,0,.39a.74.74,0,0,1-.68,0c-.19-.11-.19-.28,0-.39A.74.74,0,0,1,246.1,45.51Z" transform="translate(-1.33 -8.61)"/><path class="cls-2" d="M247.88,44.48c.19.11.19.29,0,.39a.74.74,0,0,1-.68,0c-.19-.1-.19-.28,0-.39A.74.74,0,0,1,247.88,44.48Z" transform="translate(-1.33 -8.61)"/><ellipse class="cls-2" cx="239.08" cy="38.13" rx="0.48" ry="0.28"/><ellipse class="cls-2" cx="240.86" cy="37.1" rx="0.48" ry="0.28"/><ellipse class="cls-2" cx="242.64" cy="36.07" rx="0.48" ry="0.28"/><path class="cls-2" d="M246.1,43.45a.21.21,0,0,1,0,.4.74.74,0,0,1-.68,0,.21.21,0,0,1,0-.4A.74.74,0,0,1,246.1,43.45Z" transform="translate(-1.33 -8.61)"/><path class="cls-2" d="M247.88,42.82a.74.74,0,0,1-.68,0,.21.21,0,0,1,0-.4C247.39,42.32,248.07,42.71,247.88,42.82Z" transform="translate(-1.33 -8.61)"/><ellipse class="cls-2" cx="239.08" cy="36.07" rx="0.48" ry="0.28"/><path class="cls-2" d="M242.54,43.45a.22.22,0,0,1,0,.4.76.76,0,0,1-.69,0,.22.22,0,0,1,0-.4A.76.76,0,0,1,242.54,43.45Z" transform="translate(-1.33 -8.61)"/><path class="cls-2" d="M244.32,42.42a.21.21,0,0,1,0,.4.74.74,0,0,1-.68,0,.21.21,0,0,1,0-.4A.81.81,0,0,1,244.32,42.42Z" transform="translate(-1.33 -8.61)"/><path class="cls-2" d="M246.1,41.4c.19.11.19.28,0,.39a.74.74,0,0,1-.68,0c-.19-.11-.19-.28,0-.39A.74.74,0,0,1,246.1,41.4Z" transform="translate(-1.33 -8.61)"/><path class="cls-2" d="M239,43.45a.21.21,0,0,1,0,.4.74.74,0,0,1-.68,0,.21.21,0,0,1,0-.4A.74.74,0,0,1,239,43.45Z" transform="translate(-1.33 -8.61)"/><path class="cls-2" d="M240.75,42.42a.21.21,0,0,1,0,.4.74.74,0,0,1-.68,0,.22.22,0,0,1,0-.4A.81.81,0,0,1,240.75,42.42Z" transform="translate(-1.33 -8.61)"/><path class="cls-2" d="M242.54,41.4a.21.21,0,0,1,0,.39.76.76,0,0,1-.69,0,.21.21,0,0,1,0-.39A.76.76,0,0,1,242.54,41.4Z" transform="translate(-1.33 -8.61)"/><path class="cls-2" d="M244.32,40.37c.19.11.19.28,0,.39a.74.74,0,0,1-.68,0c-.19-.11-.19-.28,0-.39A.74.74,0,0,1,244.32,40.37Z" transform="translate(-1.33 -8.61)"/><path class="cls-2" d="M237.19,42.42a.21.21,0,0,1,0,.4.74.74,0,0,1-.68,0,.21.21,0,0,1,0-.4A.81.81,0,0,1,237.19,42.42Z" transform="translate(-1.33 -8.61)"/><ellipse class="cls-2" cx="237.3" cy="32.99" rx="0.48" ry="0.28"/><ellipse class="cls-2" cx="239.08" cy="31.96" rx="0.48" ry="0.28"/><path class="cls-2" d="M242.54,39.34a.21.21,0,0,1,0,.39.76.76,0,0,1-.69,0,.21.21,0,0,1,0-.39A.76.76,0,0,1,242.54,39.34Z" transform="translate(-1.33 -8.61)"/><path class="cls-2" d="M244.32,38.7a.74.74,0,0,1-.68,0c-.19-.1-.19-.28,0-.39S244.51,38.6,244.32,38.7Z" transform="translate(-1.33 -8.61)"/><path class="cls-2" d="M237.19,40.37c.19.11.19.28,0,.39a.74.74,0,0,1-.68,0c-.19-.11-.19-.28,0-.39A.74.74,0,0,1,237.19,40.37Z" transform="translate(-1.33 -8.61)"/><ellipse class="cls-2" cx="237.3" cy="30.93" rx="0.48" ry="0.28"/><path class="cls-2" d="M240.75,38.31c.19.11.19.29,0,.39a.74.74,0,0,1-.68,0,.21.21,0,0,1,0-.39A.74.74,0,0,1,240.75,38.31Z" transform="translate(-1.33 -8.61)"/><path class="cls-2" d="M242.54,37.28a.22.22,0,0,1,0,.4.83.83,0,0,1-.69,0,.22.22,0,0,1,0-.4.76.76,0,0,1,.69,0Z" transform="translate(-1.33 -8.61)"/><path class="cls-2" d="M237.18,38.3c.19.11.19.29,0,.39a.74.74,0,0,1-.68,0c-.19-.1-.19-.28,0-.39A.74.74,0,0,1,237.18,38.3Z" transform="translate(-1.33 -8.61)"/><path class="cls-2" d="M239,37.27a.21.21,0,0,1,0,.4.81.81,0,0,1-.68,0,.21.21,0,0,1,0-.4A.74.74,0,0,1,239,37.27Z" transform="translate(-1.33 -8.61)"/><ellipse class="cls-2" cx="239.07" cy="27.83" rx="0.48" ry="0.28"/><path class="cls-2" d="M235.4,37.27a.22.22,0,0,1,0,.4.83.83,0,0,1-.69,0,.22.22,0,0,1,0-.4A.76.76,0,0,1,235.4,37.27Z" transform="translate(-1.33 -8.61)"/><path class="cls-2" d="M237.18,36.24a.21.21,0,0,1,0,.4.74.74,0,0,1-.68,0,.21.21,0,0,1,0-.4A.74.74,0,0,1,237.18,36.24Z" transform="translate(-1.33 -8.61)"/><path class="cls-2" d="M239,35.22c.19.1.19.28,0,.39a.74.74,0,0,1-.68,0c-.19-.11-.19-.29,0-.39A.74.74,0,0,1,239,35.22Z" transform="translate(-1.33 -8.61)"/><path class="cls-2" d="M235.4,35.22a.21.21,0,0,1,0,.39.76.76,0,0,1-.69,0,.21.21,0,0,1,0-.39A.76.76,0,0,1,235.4,35.22Z" transform="translate(-1.33 -8.61)"/><path class="cls-2" d="M237.18,34.19c.19.11.19.28,0,.39a.74.74,0,0,1-.68,0c-.19-.11-.19-.28,0-.39A.74.74,0,0,1,237.18,34.19Z" transform="translate(-1.33 -8.61)"/><path class="cls-2" d="M239,33.55a.74.74,0,0,1-.68,0c-.19-.11-.19-.28,0-.39S239.15,33.44,239,33.55Z" transform="translate(-1.33 -8.61)"/><ellipse class="cls-2" cx="255.2" cy="53.4" rx="0.48" ry="0.28"/><path class="cls-2" d="M258.65,60.78a.21.21,0,0,1,0,.4.81.81,0,0,1-.68,0,.21.21,0,0,1,0-.4A.74.74,0,0,1,258.65,60.78Z" transform="translate(-1.33 -8.61)"/><ellipse class="cls-2" cx="258.76" cy="51.34" rx="0.48" ry="0.28"/><path class="cls-2" d="M262.21,58.72a.21.21,0,0,1,0,.4.74.74,0,0,1-.68,0,.22.22,0,0,1,0-.4A.81.81,0,0,1,262.21,58.72Z" transform="translate(-1.33 -8.61)"/><path class="cls-2" d="M264,57.7a.21.21,0,0,1,0,.39.76.76,0,0,1-.69,0,.21.21,0,0,1,0-.39A.76.76,0,0,1,264,57.7Z" transform="translate(-1.33 -8.61)"/><path class="cls-2" d="M265.78,56.67c.19.11.19.28,0,.39a.74.74,0,0,1-.68,0c-.19-.11-.19-.28,0-.39A.74.74,0,0,1,265.78,56.67Z" transform="translate(-1.33 -8.61)"/><ellipse class="cls-2" cx="265.89" cy="47.23" rx="0.48" ry="0.28"/><ellipse class="cls-2" cx="267.67" cy="46.2" rx="0.48" ry="0.28"/><ellipse class="cls-2" cx="269.45" cy="45.17" rx="0.48" ry="0.28"/><path class="cls-2" d="M278.25,49.47a.21.21,0,0,1,0,.39.76.76,0,0,1-.69,0,.21.21,0,0,1,0-.39A.76.76,0,0,1,278.25,49.47Z" transform="translate(-1.33 -8.61)"/><path class="cls-2" d="M280,48.44a.21.21,0,0,1,0,.39.74.74,0,0,1-.68,0c-.19-.1-.19-.28,0-.39A.74.74,0,0,1,280,48.44Z" transform="translate(-1.33 -8.61)"/><path class="cls-2" d="M253.31,61.81c.19.11.19.28,0,.39a.74.74,0,0,1-.68,0c-.19-.11-.19-.28,0-.39A.74.74,0,0,1,253.31,61.81Z" transform="translate(-1.33 -8.61)"/><path class="cls-2" d="M255.09,60.78a.21.21,0,0,1,0,.4.81.81,0,0,1-.68,0,.21.21,0,0,1,0-.4A.74.74,0,0,1,255.09,60.78Z" transform="translate(-1.33 -8.61)"/><path class="cls-2" d="M256.87,59.75a.21.21,0,0,1,0,.4.74.74,0,0,1-.68,0,.21.21,0,0,1,0-.4A.74.74,0,0,1,256.87,59.75Z" transform="translate(-1.33 -8.61)"/><path class="cls-2" d="M258.65,58.72a.21.21,0,0,1,0,.4.74.74,0,0,1-.68,0,.21.21,0,0,1,0-.4A.81.81,0,0,1,258.65,58.72Z" transform="translate(-1.33 -8.61)"/><ellipse class="cls-2" cx="258.76" cy="49.29" rx="0.48" ry="0.28"/><path class="cls-2" d="M262.21,56.67c.19.11.19.28,0,.39a.74.74,0,0,1-.68,0,.21.21,0,0,1,0-.39A.74.74,0,0,1,262.21,56.67Z" transform="translate(-1.33 -8.61)"/><ellipse class="cls-2" cx="262.32" cy="47.23" rx="0.48" ry="0.28"/><ellipse class="cls-2" cx="264.1" cy="46.2" rx="0.48" ry="0.28"/><path class="cls-2" d="M267.56,53.58a.21.21,0,0,1,0,.4.74.74,0,0,1-.68,0,.21.21,0,0,1,0-.4A.74.74,0,0,1,267.56,53.58Z" transform="translate(-1.33 -8.61)"/><ellipse class="cls-2" cx="267.67" cy="44.14" rx="0.48" ry="0.28"/><path class="cls-2" d="M271.12,51.53c.19.1.19.28,0,.39a.74.74,0,0,1-.68,0c-.19-.11-.19-.29,0-.39A.74.74,0,0,1,271.12,51.53Z" transform="translate(-1.33 -8.61)"/><path class="cls-2" d="M274.68,49.47c.19.11.19.28,0,.39a.74.74,0,0,1-.68,0c-.19-.11-.19-.28,0-.39A.74.74,0,0,1,274.68,49.47Z" transform="translate(-1.33 -8.61)"/><ellipse class="cls-2" cx="274.79" cy="40.03" rx="0.48" ry="0.28"/><path class="cls-2" d="M278.25,47.41a.22.22,0,0,1,0,.4.83.83,0,0,1-.69,0,.22.22,0,0,1,0-.4A.76.76,0,0,1,278.25,47.41Z" transform="translate(-1.33 -8.61)"/><ellipse class="cls-2" cx="249.85" cy="52.37" rx="0.48" ry="0.28"/><path class="cls-2" d="M253.31,59.75a.21.21,0,0,1,0,.4.74.74,0,0,1-.68,0,.21.21,0,0,1,0-.4A.74.74,0,0,1,253.31,59.75Z" transform="translate(-1.33 -8.61)"/><path class="cls-2" d="M255.09,58.72a.21.21,0,0,1,0,.4.74.74,0,0,1-.68,0,.21.21,0,0,1,0-.4A.81.81,0,0,1,255.09,58.72Z" transform="translate(-1.33 -8.61)"/><path class="cls-2" d="M256.87,57.7c.19.11.19.28,0,.39a.74.74,0,0,1-.68,0c-.19-.11-.19-.28,0-.39A.74.74,0,0,1,256.87,57.7Z" transform="translate(-1.33 -8.61)"/><path class="cls-2" d="M258.65,56.67c.19.11.19.28,0,.39a.74.74,0,0,1-.68,0c-.19-.11-.19-.28,0-.39A.74.74,0,0,1,258.65,56.67Z" transform="translate(-1.33 -8.61)"/><path class="cls-2" d="M260.43,55.64c.19.11.19.28,0,.39a.74.74,0,0,1-.68,0c-.19-.11-.19-.28,0-.39A.74.74,0,0,1,260.43,55.64Z" transform="translate(-1.33 -8.61)"/><ellipse class="cls-2" cx="260.54" cy="46.2" rx="0.48" ry="0.28"/><path class="cls-2" d="M264,53.58a.22.22,0,0,1,0,.4.76.76,0,0,1-.69,0,.22.22,0,0,1,0-.4A.76.76,0,0,1,264,53.58Z" transform="translate(-1.33 -8.61)"/><path class="cls-2" d="M265.78,52.55a.21.21,0,0,1,0,.4.74.74,0,0,1-.68,0,.21.21,0,0,1,0-.4A.81.81,0,0,1,265.78,52.55Z" transform="translate(-1.33 -8.61)"/><path class="cls-2" d="M267.56,51.53c.19.1.19.28,0,.39a.74.74,0,0,1-.68,0c-.19-.11-.19-.29,0-.39A.74.74,0,0,1,267.56,51.53Z" transform="translate(-1.33 -8.61)"/><path class="cls-2" d="M269.34,50.5c.19.11.19.28,0,.39a.74.74,0,0,1-.68,0c-.19-.11-.19-.28,0-.39A.74.74,0,0,1,269.34,50.5Z" transform="translate(-1.33 -8.61)"/><path class="cls-2" d="M271.12,49.47c.19.11.19.28,0,.39a.74.74,0,0,1-.68,0c-.19-.11-.19-.28,0-.39A.74.74,0,0,1,271.12,49.47Z" transform="translate(-1.33 -8.61)"/><path class="cls-2" d="M272.9,48.44c.19.11.19.29,0,.39a.74.74,0,0,1-.68,0c-.19-.1-.19-.28,0-.39A.74.74,0,0,1,272.9,48.44Z" transform="translate(-1.33 -8.61)"/><path class="cls-2" d="M274.68,47.41a.21.21,0,0,1,0,.4.81.81,0,0,1-.68,0,.21.21,0,0,1,0-.4A.74.74,0,0,1,274.68,47.41Z" transform="translate(-1.33 -8.61)"/><path class="cls-2" d="M276.46,46.38a.21.21,0,0,1,0,.4.74.74,0,0,1-.68,0,.21.21,0,0,1,0-.4A.81.81,0,0,1,276.46,46.38Z" transform="translate(-1.33 -8.61)"/><path class="cls-2" d="M251.53,58.72a.21.21,0,0,1,0,.4.74.74,0,0,1-.68,0,.21.21,0,0,1,0-.4A.81.81,0,0,1,251.53,58.72Z" transform="translate(-1.33 -8.61)"/><path class="cls-2" d="M253.31,57.7c.19.11.19.28,0,.39a.74.74,0,0,1-.68,0c-.19-.11-.19-.28,0-.39A.74.74,0,0,1,253.31,57.7Z" transform="translate(-1.33 -8.61)"/><ellipse class="cls-2" cx="253.42" cy="48.26" rx="0.48" ry="0.28"/><ellipse class="cls-2" cx="255.2" cy="47.23" rx="0.48" ry="0.28"/><path class="cls-2" d="M258.65,54.61c.19.11.19.29,0,.39a.74.74,0,0,1-.68,0c-.19-.1-.19-.28,0-.39A.74.74,0,0,1,258.65,54.61Z" transform="translate(-1.33 -8.61)"/><path class="cls-2" d="M259.75,53.58a.74.74,0,0,1,.68,0,.21.21,0,0,1,0,.4.74.74,0,0,1-.68,0,.21.21,0,0,1,0-.4Z" transform="translate(-1.33 -8.61)"/><ellipse class="cls-2" cx="260.54" cy="44.14" rx="0.48" ry="0.28"/><ellipse class="cls-2" cx="265.89" cy="41.06" rx="0.48" ry="0.28"/><path class="cls-2" d="M269.34,48.44c.19.11.19.29,0,.39a.74.74,0,0,1-.68,0c-.19-.1-.19-.28,0-.39A.74.74,0,0,1,269.34,48.44Z" transform="translate(-1.33 -8.61)"/><path class="cls-2" d="M271.12,47.41a.21.21,0,0,1,0,.4.81.81,0,0,1-.68,0,.21.21,0,0,1,0-.4A.74.74,0,0,1,271.12,47.41Z" transform="translate(-1.33 -8.61)"/><ellipse class="cls-2" cx="271.23" cy="37.97" rx="0.48" ry="0.28"/><path class="cls-2" d="M274.68,45.36c.19.1.19.28,0,.39a.74.74,0,0,1-.68,0c-.19-.11-.19-.29,0-.39A.74.74,0,0,1,274.68,45.36Z" transform="translate(-1.33 -8.61)"/><path class="cls-2" d="M274.63,43.47a.21.21,0,0,1,0,.4.81.81,0,0,1-.68,0,.21.21,0,0,1,0-.4A.74.74,0,0,1,274.63,43.47Z" transform="translate(-1.33 -8.61)"/><path class="cls-2" d="M276.41,42.44a.21.21,0,0,1,0,.4.74.74,0,0,1-.68,0,.21.21,0,0,1,0-.4A.81.81,0,0,1,276.41,42.44Z" transform="translate(-1.33 -8.61)"/><path class="cls-2" d="M272.16,42.45a.77.77,0,0,1,.68,0,.21.21,0,0,1,0,.4.76.76,0,0,1-.69,0A.21.21,0,0,1,272.16,42.45Z" transform="translate(-1.33 -8.61)"/><path class="cls-2" d="M274.63,41.81a.74.74,0,0,1-.68,0c-.19-.11-.19-.29,0-.39S274.82,41.7,274.63,41.81Z" transform="translate(-1.33 -8.61)"/><path class="cls-2" d="M270.38,41.42a.74.74,0,0,1,.68,0c.19.1.19.28,0,.39a.74.74,0,0,1-.68,0c-.19-.11-.19-.28,0-.39Z" transform="translate(-1.33 -8.61)"/><path class="cls-2" d="M281.14,47.42a.74.74,0,0,1,.68,0,.21.21,0,0,1,0,.4.81.81,0,0,1-.68,0A.21.21,0,0,1,281.14,47.42Z" transform="translate(-1.33 -8.61)"/><ellipse class="cls-2" cx="281.93" cy="37.98" rx="0.48" ry="0.28"/><ellipse class="cls-2" cx="283.71" cy="36.95" rx="0.48" ry="0.28"/><ellipse class="cls-2" cx="285.49" cy="35.93" rx="0.48" ry="0.28"/><ellipse class="cls-2" cx="287.27" cy="34.9" rx="0.48" ry="0.28"/><path class="cls-2" d="M290.73,42.28c.19.11.19.28,0,.39a.74.74,0,0,1-.68,0c-.19-.11-.19-.28,0-.39A.74.74,0,0,1,290.73,42.28Z" transform="translate(-1.33 -8.61)"/><path class="cls-2" d="M279.36,46.39a.81.81,0,0,1,.68,0,.21.21,0,0,1,0,.4.74.74,0,0,1-.68,0A.21.21,0,0,1,279.36,46.39Z" transform="translate(-1.33 -8.61)"/><path class="cls-2" d="M281.82,45.36a.21.21,0,0,1,0,.4.74.74,0,0,1-.68,0,.21.21,0,0,1,0-.4A.81.81,0,0,1,281.82,45.36Z" transform="translate(-1.33 -8.61)"/><path class="cls-2" d="M283.6,44.34c.19.1.19.28,0,.39a.74.74,0,0,1-.68,0c-.19-.11-.19-.29,0-.39A.74.74,0,0,1,283.6,44.34Z" transform="translate(-1.33 -8.61)"/><ellipse class="cls-2" cx="283.71" cy="34.9" rx="0.48" ry="0.28"/><ellipse class="cls-2" cx="285.49" cy="33.87" rx="0.48" ry="0.28"/><path class="cls-2" d="M289,41.25c.19.11.19.29,0,.39a.74.74,0,0,1-.68,0c-.19-.1-.19-.28,0-.39A.74.74,0,0,1,289,41.25Z" transform="translate(-1.33 -8.61)"/><ellipse class="cls-2" cx="289.06" cy="31.81" rx="0.48" ry="0.28"/><path class="cls-2" d="M277.58,45.37a.74.74,0,0,1,.68,0c.19.1.19.28,0,.39a.74.74,0,0,1-.68,0C277.39,45.65,277.39,45.47,277.58,45.37Z" transform="translate(-1.33 -8.61)"/><path class="cls-2" d="M280,44.34c.19.1.19.28,0,.39a.74.74,0,0,1-.68,0c-.19-.11-.19-.28,0-.39A.74.74,0,0,1,280,44.34Z" transform="translate(-1.33 -8.61)"/><ellipse class="cls-2" cx="280.15" cy="34.9" rx="0.48" ry="0.28"/><path class="cls-2" d="M283.6,42.28c.19.11.19.28,0,.39a.74.74,0,0,1-.68,0c-.19-.11-.19-.28,0-.39A.74.74,0,0,1,283.6,42.28Z" transform="translate(-1.33 -8.61)"/><path class="cls-2" d="M285.38,41.25c.19.11.19.29,0,.39a.74.74,0,0,1-.68,0,.21.21,0,0,1,0-.39A.74.74,0,0,1,285.38,41.25Z" transform="translate(-1.33 -8.61)"/><path class="cls-2" d="M287.17,40.22a.22.22,0,0,1,0,.4.83.83,0,0,1-.69,0,.22.22,0,0,1,0-.4A.76.76,0,0,1,287.17,40.22Z" transform="translate(-1.33 -8.61)"/><path class="cls-2" d="M289,39.19a.21.21,0,0,1,0,.4.74.74,0,0,1-.68,0,.21.21,0,0,1,0-.4A.81.81,0,0,1,289,39.19Z" transform="translate(-1.33 -8.61)"/><path class="cls-2" d="M275.8,44.34a.74.74,0,0,1,.68,0c.18.11.19.28,0,.39a.74.74,0,0,1-.68,0C275.61,44.62,275.61,44.45,275.8,44.34Z" transform="translate(-1.33 -8.61)"/><path class="cls-2" d="M278.26,43.31c.19.11.19.28,0,.39a.74.74,0,0,1-.68,0c-.19-.11-.19-.28,0-.39a.74.74,0,0,1,.68,0Z" transform="translate(-1.33 -8.61)"/><path class="cls-1" d="M278.54,33.85l-7.06-2.38-9.69,5.6,4.08,4.1L257,46.28,236.8,23.37l10.75-6.21,39.81,11.6ZM263.2,28.62,257,26.54q-2.08-.69-5.32-1.81c-2.15-.75-3.68-1.3-4.56-1.66q.86.7,2.7,2.4t7,6.82Z" transform="translate(-1.33 -8.61)"/><polygon class="cls-1" points="235.46 14.76 235.46 24.45 255.68 47.36 255.68 37.67 235.46 14.76"/><polygon class="cls-1" points="277.21 25.25 277.21 34.94 270.15 32.55 270.15 22.87 277.21 25.25"/><path class="cls-3" d="M278.54,36.53l-7.06-2.38-9.69,5.6,4.08,4.1L257,49,236.8,26.05l10.75-6.21,39.81,11.6ZM263.2,31.3,257,29.22q-2.08-.69-5.32-1.81c-2.15-.75-3.68-1.3-4.56-1.66q.86.7,2.7,2.4t7,6.81Z" transform="translate(-1.33 -8.61)"/><path class="cls-2" d="M256.59,32.55l.2.2,7.31-4.22-7-2.35c-1.38-.45-3.15-1.06-5.31-1.81s-3.67-1.3-4.54-1.64l-2.23-.9,1.85,1.53c.57.47,1.47,1.27,2.69,2.39S253.1,29.09,256.59,32.55Z" transform="translate(-1.33 -8.61)"/><path class="cls-2" d="M287.31,28.36,247.5,16.76l-10.63,6.13-.45.26V33.2l20.22,22.91.3.34.45-.26,8.86-5.12V44.62l5.27-3,6.65,2.24.41.14.34-.19,8.81-5.09V28.48ZM256.64,55,237.17,32.92V24.36L254.94,44.5l1.7,1.92Zm21.53-12-6.31-2.13V32l6.31,2.13ZM271.86,31.2l-.42-.14h0l-.33.2L261.18,37l4.08,4.1-8.17,4.71-1.4-1.59L237.38,23.46l10.22-5.9,38.81,11.32-7.91,4.56Z" transform="translate(-1.33 -8.61)"/><polygon class="cls-1" points="265.35 35.06 264.6 35.49 264.6 32.55 265.35 32.12 265.35 35.06"/></g></svg>