<svg id="Layer_1" data-name="Layer 1" xmlns="http://www.w3.org/2000/svg" xmlns:xlink="http://www.w3.org/1999/xlink" viewBox="0 0 978.41 1095.6"><defs><style>.cls-1{fill:none;}.cls-2{clip-path:url(#clip-path);}.cls-3{fill:#150035;}.cls-4{fill:#39a1ff;}.cls-5{fill:#fff;}.cls-6{clip-path:url(#clip-path-2);}</style><clipPath id="clip-path" transform="translate(63.17 95.91)"><path class="cls-1" d="M549.22,672.78l-137.4,79.33c-15.12,8.73-41.53,7.63-59-2.45L202.31,663c-17.46-10.08-20-17.62-4.85-26.35l145.88-84.93c15.12-8.73,33.66-9.74,51.12.34L545,638.72C562.44,648.8,564.34,664.05,549.22,672.78Z"/></clipPath><clipPath id="clip-path-2" transform="translate(63.17 95.91)"><path class="cls-1" d="M125.8,171,509,390.3c6.09,3.52,16.74,3.08,23.78-1l60-34.64c7-4.07,7.8-10.21,1.71-13.73L211.29,121.61c-6.09-3.52-16.74-3.08-23.77,1l-60,34.65C120.47,161.3,119.7,167.45,125.8,171Z"/></clipPath></defs><title>play-right</title><g class="cls-2"><rect class="cls-3" x="8.38" y="639.34" width="588.88" height="8.57" transform="translate(-217.63 332.91) rotate(-29.94)"/><rect class="cls-3" x="31.72" y="651.77" width="588.87" height="8.57" transform="translate(-220.94 346.55) rotate(-29.97)"/><rect class="cls-3" x="52.89" y="665.03" width="588.87" height="8.57" transform="translate(-224.73 358.89) rotate(-29.97)"/><rect class="cls-3" x="76.68" y="677.21" width="588.88" height="8.57" transform="translate(-227.64 372.41) rotate(-29.97)"/><polygon class="cls-3" points="200.95 941.82 196.68 934.39 706.88 640.35 711.16 647.77 200.95 941.82"/><rect class="cls-3" x="119.65" y="703.32" width="588.87" height="8.57" transform="translate(-234.77 397.07) rotate(-29.94)"/><rect class="cls-3" x="140.82" y="716.58" width="588.87" height="8.57" transform="translate(-238.56 409.41) rotate(-29.94)"/><polygon class="cls-3" points="269.25 979.69 264.98 972.26 775.17 678.22 779.46 685.65 269.25 979.69"/><rect class="cls-3" x="185.78" y="742.02" width="588.87" height="8.57" transform="translate(-245.42 435.57) rotate(-29.97)"/><rect class="cls-3" x="209.5" y="754.42" width="588.87" height="8.57" transform="translate(-248.23 448.63) rotate(-29.94)"/><polygon class="cls-3" points="335.32 1018.62 331.05 1011.19 841.24 717.14 845.53 724.57 335.32 1018.62"/><rect class="cls-3" x="254.47" y="779.86" width="588.87" height="8.57" transform="translate(-255.14 474.94) rotate(-29.97)"/><rect class="cls-3" x="274.09" y="793.52" width="588.88" height="8.57" transform="translate(-259.34 486.57) rotate(-29.97)"/><rect class="cls-3" x="297.43" y="805.96" width="588.87" height="8.57" transform="translate(-262.4 499.81) rotate(-29.96)"/><polygon class="cls-3" points="423.24 1070.16 418.97 1062.73 929.17 768.69 933.45 776.12 423.24 1070.16"/><rect class="cls-3" x="342.4" y="831.4" width="588.87" height="8.57" transform="translate(-268.91 525.23) rotate(-29.94)"/><rect class="cls-3" x="363.57" y="844.66" width="588.86" height="8.57" transform="translate(-272.87 537.96) rotate(-29.96)"/><rect class="cls-3" x="-82.32" y="588.91" width="588.87" height="8.57" transform="translate(-204.57 280.92) rotate(-29.94)"/><polygon class="cls-3" points="45.65 852.29 41.38 844.86 551.58 550.81 555.86 558.24 45.65 852.29"/><rect class="cls-3" x="-37.81" y="614.61" width="588.87" height="8.57" transform="translate(-211.39 306.48) rotate(-29.93)"/><rect class="cls-3" x="-14.02" y="626.79" width="588.87" height="8.57" transform="translate(-214.29 319.97) rotate(-29.93)"/><rect class="cls-3" x="7.15" y="640.05" width="588.88" height="8.57" transform="translate(-218.32 332.63) rotate(-29.96)"/></g><path class="cls-4" d="M503.35,501.87l-259.87.4a5.34,5.34,0,0,0-5.34,5.35l.09,80.19h.08c.57,7.92,6.49,16.14,17.74,22.63l78.21,45.16c21.65,12.51,54.41,13.86,73.17,3l88.72-51.23c9-5.2,13-12.28,12.49-19.6h.07V507.22A5.35,5.35,0,0,0,503.35,501.87Z" transform="translate(63.17 95.91)"/><path class="cls-3" d="M375.57,674c-15.72,0-32.19-3.86-45.32-11.44L252,617.38c-10.2-5.87-17.12-13.35-20.12-21.56H230.3l-.09-8-.09-80.19a13.37,13.37,0,0,1,13.34-13.38l259.88-.39h0c3.34-.4,6.94,1.38,9.48,3.9a13.33,13.33,0,0,1,3.92,9.46v88.6h-1c-2,7.32-7.45,13.82-15.61,18.53l-88.72,51.23C401.68,671.21,388.89,674,375.57,674ZM246.24,586.52l.06.71c.4,5.53,5.41,11.46,13.75,16.28l78.22,45.16c19.08,11,48.92,12.41,65.15,3l88.72-51.23c4.11-2.37,8.91-6.39,8.5-12.08l-.63-8.61h.69V509.89l-254.54.39Z" transform="translate(63.17 95.91)"/><path class="cls-3" d="M503.35,502.11l-119.6.18V665.7c8.87-.85,17.15-3.05,23.68-6.83l88.72-51.22c9-5.2,13-12.28,12.49-19.6h.07V507.46A5.35,5.35,0,0,0,503.35,502.11Z" transform="translate(63.17 95.91)"/><path class="cls-5" d="M496.15,521.88,407.43,573.1c-18.76,10.83-51.52,9.47-73.17-3l-78.21-45.16c-21.66-12.5-24-31.41-5.26-42.24l88.72-51.22c18.76-10.83,51.52-9.47,73.17,3l78.21,45.16C512.55,492.14,514.9,511.05,496.15,521.88Z" transform="translate(63.17 95.91)"/><path class="cls-3" d="M375.57,588.44c-15.72,0-32.19-3.86-45.32-11.44L252,531.86c-13.93-8.05-21.92-19.29-21.92-30.84,0-10.1,5.92-19.08,16.67-25.29l88.71-51.22c21.29-12.3,56.95-11,81.19,3L494.9,472.7c13.93,8,21.92,19.28,21.92,30.83,0,10.1-5.92,19.08-16.67,25.29h0L411.44,580C401.68,585.67,388.89,588.44,375.57,588.44ZM371.2,432.17c-10.49,0-20.44,2-27.68,6.22l-88.71,51.23c-3.95,2.27-8.66,6.1-8.66,11.4,0,5.59,5.2,11.92,13.9,17l78.22,45.16c19.08,11,48.92,12.4,65.15,3l88.72-51.22c3.95-2.28,8.65-6.11,8.65-11.41,0-5.59-5.2-11.92-13.91-16.95l-78.21-45.16C398.11,435.32,384.23,432.17,371.2,432.17Z" transform="translate(63.17 95.91)"/><rect class="cls-3" x="397.8" y="670.13" width="16.03" height="85.14"/><rect class="cls-4" x="535.29" y="648.55" width="12.33" height="41.8"/><g class="cls-6"><rect class="cls-3" x="-9.65" y="100.96" width="588.87" height="8.57" transform="translate(48.67 252.28) rotate(-29.98)"/><rect class="cls-3" x="13.69" y="113.4" width="588.87" height="8.57" transform="translate(45.57 265.52) rotate(-29.96)"/><rect class="cls-3" x="34.86" y="126.66" width="588.86" height="8.57" transform="translate(41.78 277.91) rotate(-29.97)"/><rect class="cls-3" x="58.65" y="138.84" width="588.87" height="8.57" transform="matrix(0.87, -0.5, 0.5, 0.87, 38.88, 291.42)"/><rect class="cls-3" x="78.28" y="152.51" width="588.87" height="8.57" transform="translate(34.67 303.02) rotate(-29.96)"/><rect class="cls-3" x="101.61" y="164.94" width="588.88" height="8.57" transform="translate(31.58 316.37) rotate(-29.97)"/><rect class="cls-3" x="122.79" y="178.2" width="588.87" height="8.57" transform="translate(27.79 328.72) rotate(-29.97)"/><rect class="cls-3" x="146.58" y="190.38" width="588.88" height="8.57" transform="translate(24.88 342.17) rotate(-29.96)"/><rect class="cls-3" x="167.74" y="203.64" width="588.88" height="8.57" transform="translate(21.09 354.51) rotate(-29.96)"/><rect class="cls-3" x="191.46" y="216.04" width="588.88" height="8.57" transform="translate(18.07 368.04) rotate(-29.96)"/><rect class="cls-3" x="212.64" y="229.3" width="588.88" height="8.57" transform="translate(14.27 380.36) rotate(-29.96)"/><rect class="cls-3" x="236.43" y="241.48" width="588.88" height="8.57" transform="translate(11.38 393.95) rotate(-29.97)"/><rect class="cls-3" x="256.06" y="255.15" width="588.87" height="8.57" transform="translate(7.17 405.58) rotate(-29.97)"/><rect class="cls-3" x="279.4" y="267.58" width="588.86" height="8.57" transform="translate(4.07 418.8) rotate(-29.96)"/><rect class="cls-3" x="300.57" y="280.84" width="588.87" height="8.57" transform="translate(0.29 431.25) rotate(-29.97)"/><rect class="cls-3" x="324.36" y="293.03" width="588.88" height="8.57" transform="translate(-2.62 444.76) rotate(-29.97)"/><rect class="cls-3" x="345.53" y="306.29" width="588.87" height="8.57" transform="translate(-6.42 457.01) rotate(-29.96)"/><rect class="cls-3" x="-100.36" y="50.54" width="588.88" height="8.57" transform="translate(61.73 200.21) rotate(-29.98)"/><rect class="cls-3" x="-77.02" y="62.98" width="588.88" height="8.57" transform="translate(58.63 213.51) rotate(-29.97)"/><rect class="cls-3" x="-55.85" y="76.24" width="588.88" height="8.57" transform="translate(54.84 225.86) rotate(-29.97)"/><rect class="cls-3" x="-32.05" y="88.41" width="588.87" height="8.57" transform="translate(51.93 239.33) rotate(-29.96)"/><rect class="cls-3" x="-10.89" y="101.68" width="588.88" height="8.57" transform="translate(48.13 251.63) rotate(-29.95)"/></g><path class="cls-5" d="M554.76,223.85l-354-205.07c-2-1.17-3.87-1.13-5.25-.2L137,55a2.33,2.33,0,0,0-.77,3.17l56.44,60.51a2.27,2.27,0,0,1,.33,1.19v19.53c0,5.71,3.47,12.33,7.75,14.8l19.4-23.07a2.21,2.21,0,0,1,.84.82l277.1,194.82a2.33,2.33,0,0,0,3.23.79L560,291s2.55-3.12,2.55-6.15V238.65C562.51,233,559,226.32,554.76,223.85Z" transform="translate(63.17 95.91)"/><path class="cls-3" d="M500,335.35a9.71,9.71,0,0,1-7.09-3.08l-271.65-191-18.89,22.47-5.39-3.1c-6.54-3.77-11.48-12.89-11.48-21.24V122L129.81,62A9.69,9.69,0,0,1,133,48.73l58.52-36.45c3.61-2.42,8.5-2.45,12.9.08l354,205.07c6.53,3.76,11.46,12.89,11.46,21.22v46.21c0,5.4-3.53,10-4.24,10.84l-1.82,1.61-58.67,36.57A9.73,9.73,0,0,1,500,335.35Zm-274-208.87L500.41,319.37l54.3-33.84a3.85,3.85,0,0,0,.39-.9l0-46c0-3.5-2.4-7.43-4-8.37h0L198,25.77,146.19,58,199,114.84a9.68,9.68,0,0,1,1.42,5v19.53a10.11,10.11,0,0,0,.51,3.05l17.61-20.94,5.42,3.25A9.66,9.66,0,0,1,226.05,126.48Z" transform="translate(63.17 95.91)"/><path class="cls-3" d="M242.11,162.26s214.82,126.2,214.56,128.63l41,34.51a3.91,3.91,0,0,0,5.43,1.32L560.37,291s2.55-3.12,2.55-6.15V241.51a1.59,1.59,0,0,0-2.43-1.35l-57.9,36.1c-.22.14,71.17,42.42-215.51-124.21Z" transform="translate(63.17 95.91)"/><path class="cls-3" d="M501,334.74a10.85,10.85,0,0,1-2.7-.33,11.17,11.17,0,0,1-6.18-3.93l-41.5-35C437.17,286,317.71,215.3,238.35,168.67l-16.15-9.49,66.08-15,2.52,1.48C404.88,211.94,475.6,252.91,501.89,268l54.67-34.09a9,9,0,0,1,13.79,7.65v43.35c0,5.4-3.52,10-4.24,10.84l-1.82,1.61L507,333A11.24,11.24,0,0,1,501,334.74Zm-39.57-49.53L501.51,319l53.62-33.43a4.33,4.33,0,0,0,.39-.9V252L516,276.62c2,2.2,2.77,4.82.66,8.33s-3,5.1-10.53,1.77l-.27.36c-.49-.34-1.84-1.17-3.21-2-6.93-3.47-17.95-9.84-36.06-20.29C435,246.52,379.91,214.59,285.87,159.94L262,165.35C412.57,253.83,451.3,277.06,461,285.76Z" transform="translate(63.17 95.91)"/><path class="cls-4" d="M494.09,328.54l-354-205.06c-4.28-2.47-7.75-9.1-7.75-14.81V62.46c0-5.7,3.47-8.33,7.75-5.86l354,205.06c4.28,2.48,7.75,9.1,7.75,14.81v46.21C501.84,328.39,498.37,331,494.09,328.54Z" transform="translate(63.17 95.91)"/><path class="cls-3" d="M497.19,336.9a13.64,13.64,0,0,1-6.82-1.94h0l-354-205.06c-6.51-3.76-11.45-12.88-11.45-21.22V62.46c0-5.72,2.33-10.35,6.39-12.7,3.77-2.15,8.3-2,12.5.42l354,205.06c6.52,3.76,11.46,12.88,11.46,21.23v46.21c0,5.72-2.33,10.35-6.39,12.7A11.42,11.42,0,0,1,497.19,336.9Zm.61-14.78-3.71,6.42,3.8-6.38Zm-358-257.07-.09,43.63c0,3.5,2.4,7.43,4,8.36l350.56,203,.09-43.62c0-3.5-2.4-7.43-4-8.37Z" transform="translate(63.17 95.91)"/><rect class="cls-3" x="169.43" y="48.25" width="68.92" height="14.85" transform="translate(64.56 212.12) rotate(-31.91)"/><rect class="cls-4" x="502.68" y="282.57" width="60.13" height="11.43" transform="translate(-9.21 411.65) rotate(-31.02)"/></svg>