<svg id="Layer_1" data-name="Layer 1" xmlns="http://www.w3.org/2000/svg" xmlns:xlink="http://www.w3.org/1999/xlink" viewBox="0 0 2903.74 1684.82"><defs><style>.cls-1{fill:none;}.cls-2{clip-path:url(#clip-path);}.cls-3{fill:#150035;}.cls-4{fill:#fff;}.cls-5{fill:#39a1ff;}</style><clipPath id="clip-path" transform="translate(1255.87 132.63)"><path class="cls-1" d="M26.78,498.88,419.06,728.19c18.43,10.64,50.61,9.3,71.89-3L672.4,620.45c21.28-12.28,23.58-30.86,5.16-41.5L285.27,349.64c-18.43-10.64-50.61-9.31-71.88,3L31.94,457.38C10.66,469.66,8.35,488.24,26.78,498.88Z"/></clipPath></defs><title>play-left</title><g class="cls-2"><polygon class="cls-3" points="287.19 1064 274.26 1041.54 1816.87 152.48 1829.82 174.93 287.19 1064"/><polygon class="cls-3" points="357.75 1101.6 344.84 1079.14 1887.45 190.08 1900.39 212.53 357.75 1101.6"/><polygon class="cls-3" points="421.77 1141.69 408.84 1119.23 1951.45 230.17 1964.4 252.63 421.77 1141.69"/><rect class="cls-3" x="-887.56" y="577.18" width="1780.51" height="25.92" transform="translate(961.45 212.88) rotate(-29.97)"/><rect class="cls-3" x="-828.23" y="618.48" width="1780.49" height="25.92" transform="translate(948.75 248.03) rotate(-29.97)"/><rect class="cls-3" x="-757.67" y="656.08" width="1780.5" height="25.92" transform="translate(939.33 288.37) rotate(-29.98)"/><rect class="cls-3" x="-693.65" y="696.17" width="1780.49" height="25.92" transform="translate(927.86 325.71) rotate(-29.98)"/><polygon class="cls-3" points="759.56 1334.37 746.65 1311.91 2289.26 422.85 2302.2 445.3 759.56 1334.37"/><polygon class="cls-3" points="823.56 1374.46 810.65 1352 2353.26 462.94 2366.2 485.39 823.56 1374.46"/><polygon class="cls-3" points="895.3 1411.96 882.37 1389.5 2424.98 500.44 2437.93 522.89 895.3 1411.96"/><polygon class="cls-3" points="959.3 1452.05 946.39 1429.59 2489.02 540.53 2501.96 562.98 959.3 1452.05"/><polygon class="cls-3" points="1031.25 1488.88 1018.33 1466.41 2560.94 577.35 2573.89 599.81 1031.25 1488.88"/><rect class="cls-3" x="-290.68" y="928.84" width="1780.5" height="25.92" transform="translate(865.52 558.17) rotate(-29.98)"/><rect class="cls-3" x="-220.13" y="966.44" width="1780.5" height="25.93" transform="translate(856.32 598.14) rotate(-29.96)"/><rect class="cls-3" x="-156.1" y="1006.53" width="1780.5" height="25.92" transform="translate(844.77 635.65) rotate(-29.97)"/><rect class="cls-3" x="-84.18" y="1043.36" width="1780.51" height="25.92" transform="translate(836 676.5) rotate(-29.97)"/><rect class="cls-3" x="-20.18" y="1083.45" width="1780.5" height="25.92" transform="translate(824.53 713.83) rotate(-29.97)"/><rect class="cls-3" x="-1368.34" y="310.18" width="1780.5" height="25.92" transform="translate(1030.54 -62.98) rotate(-29.97)"/><polygon class="cls-3" points="83.51 949.15 70.58 926.69 1613.2 37.59 1626.15 60.06 83.51 949.15"/><rect class="cls-3" x="-1233.76" y="387.87" width="1780.5" height="25.92" transform="translate(1009.77 14.64) rotate(-29.96)"/><polygon class="cls-3" points="219.45 1026.07 206.52 1003.61 1749.13 114.54 1762.08 137 219.45 1026.07"/><polygon class="cls-3" points="283.47 1066.16 270.55 1043.7 1813.16 154.64 1826.11 177.1 283.47 1066.16"/></g><path class="cls-4" d="M559.18,208.7,335.92,80.17c-6.16-3.56-11.69-3.42-15.87-.64L143.16,189.72a7,7,0,0,0-2.32,9.58l170.66,183a7,7,0,0,1,1,3.6v59.05c0,17.25,10.49,37.29,23.43,44.77l58.67-69.78a7,7,0,0,1,2.53,2.49L387.73,520a7,7,0,0,0,9.77,2.37L574.9,411.75s7.7-9.41,7.7-18.56V253.46C582.6,236.21,572.12,216.17,559.18,208.7Z" transform="translate(1255.87 132.63)"/><path class="cls-3" d="M393.81,545.85a28.47,28.47,0,0,1-7.07-.88,29.09,29.09,0,0,1-18.28-13.56l-3.74-6.3,3.77-39.29L341,518.5l-16.29-9.38C305,497.73,290,470.15,290,444.92V392.15L121.53,210.73a29.6,29.6,0,0,1,9.84-40.09L308.17,60.48c10.89-7.32,25.72-7.38,39,.27l223.2,128.51c19.75,11.39,34.69,39,34.69,64.2V393.2c0,16.35-10.69,30.18-12.85,32.77l-5.46,4.82L409.36,541.4A29.69,29.69,0,0,1,393.81,545.85ZM389.56,391l16.3,9.44a29.58,29.58,0,0,1,10.68,10.66l3.61,6.23-6.58,68.49L559,395.18a11.8,11.8,0,0,0,1.18-2.69l-.06-139c0-10.58-7.26-22.46-12.18-25.29L327.59,101.28,171.06,198.8l159.73,172a29.45,29.45,0,0,1,4.15,15v59.08a30.26,30.26,0,0,0,1.55,9.21Z" transform="translate(1255.87 132.63)"/><path class="cls-3" d="M263.85,399.73s-.46,4.34-1.24,11.66L386.47,515.75a11.85,11.85,0,0,0,16.43,4l173.24-108s7.71-9.41,7.71-18.56V262.1a4.8,4.8,0,0,0-7.34-4.07L401.44,367.16a5,5,0,0,0-1.63,1.69Z" transform="translate(1255.87 132.63)"/><path class="cls-3" d="M396.75,544a32.82,32.82,0,0,1-8.1-1,34,34,0,0,1-18.81-11.93L239,420.88l4.25-39.49L389.9,347.91,564.64,239a27.27,27.27,0,0,1,41.68,23.1V393.2c0,16.35-10.69,30.18-12.85,32.77L588,430.79l-173.25,108A33.68,33.68,0,0,1,396.75,544ZM300.92,414.34l97.24,81.9L560.29,395.18a12.78,12.78,0,0,0,1.18-2.69l0-98.6L417.22,383.76l-2.6,4.75Z" transform="translate(1255.87 132.63)"/><path class="cls-5" d="M375.74,525.24,152.48,396.71c-12.93-7.47-23.42-27.51-23.42-44.76V212.22c0-17.25,10.49-25.18,23.42-17.71L375.74,323c12.94,7.47,23.42,27.52,23.42,44.77V507.53C399.16,524.78,388.68,532.71,375.74,525.24Z" transform="translate(1255.87 132.63)"/><path class="cls-3" d="M385.08,550.53a41,41,0,0,1-20.57-5.86L141.28,416.16c-19.75-11.4-34.69-39-34.69-64.21V212.22c0-17.3,7-31.29,19.32-38.4,11.36-6.52,25.12-6.08,37.8,1.27L386.94,303.6c19.75,11.39,34.69,39,34.69,64.21V507.54c0,17.3-7,31.29-19.35,38.37A34,34,0,0,1,385.08,550.53ZM387,505.86l-11.23,19.38L387.21,506A1.08,1.08,0,0,0,387,505.86ZM151.77,220,151.5,352c0,10.59,7.25,22.46,12.18,25.3l212.77,122.5.27-131.94c0-10.59-7.25-22.47-12.17-25.29Z" transform="translate(1255.87 132.63)"/><rect class="cls-3" x="241.29" y="169.24" width="208.41" height="44.89" transform="matrix(0.85, -0.53, 0.53, 0.85, 1206.77, 344.35)"/><rect class="cls-5" x="401.72" y="386.27" width="181.82" height="34.55" transform="matrix(0.86, -0.52, 0.52, 0.86, 1118.37, 444.17)"/></svg>