<svg id="Layer_1" data-name="Layer 1" xmlns="http://www.w3.org/2000/svg" viewBox="0 0 440.1 382.99"><defs><style>.cls-1{fill:#16110d;}.cls-2{fill:#39a1ff;}.cls-3{fill:#fec;}</style></defs><title>question-mark</title><g id="_" data-name="?"><path class="cls-1" d="M217.06,341.19c1.89,1.09,1.89,2.86,0,3.95a7.56,7.56,0,0,1-6.84,0c-1.89-1.09-1.89-2.86,0-3.95A7.56,7.56,0,0,1,217.06,341.19Z" transform="translate(-11.9 -13.05)"/><path class="cls-1" d="M235,330.86c1.89,1.09,1.89,2.86,0,3.95a7.56,7.56,0,0,1-6.84,0c-1.89-1.09-1.89-2.86,0-3.95A7.56,7.56,0,0,1,235,330.86Z" transform="translate(-11.9 -13.05)"/><path class="cls-1" d="M252.84,320.54c1.89,1.09,1.89,2.85,0,3.95a7.56,7.56,0,0,1-6.84,0c-1.89-1.1-1.89-2.86,0-3.95A7.5,7.5,0,0,1,252.84,320.54Z" transform="translate(-11.9 -13.05)"/><path class="cls-1" d="M270.72,310.21c1.89,1.09,1.89,2.86,0,4a7.56,7.56,0,0,1-6.84,0c-1.89-1.09-1.89-2.86,0-4A7.56,7.56,0,0,1,270.72,310.21Z" transform="translate(-11.9 -13.05)"/><path class="cls-1" d="M199.18,330.86c1.89,1.09,1.89,2.86,0,3.95a7.56,7.56,0,0,1-6.84,0c-1.89-1.09-1.89-2.86,0-3.95A7.56,7.56,0,0,1,199.18,330.86Z" transform="translate(-11.9 -13.05)"/><path class="cls-1" d="M217.06,320.54c1.89,1.09,1.89,2.85,0,3.95a7.56,7.56,0,0,1-6.84,0c-1.89-1.1-1.89-2.86,0-3.95A7.5,7.5,0,0,1,217.06,320.54Z" transform="translate(-11.9 -13.05)"/><path class="cls-1" d="M235,310.21c1.89,1.09,1.89,2.86,0,4a7.56,7.56,0,0,1-6.84,0c-1.89-1.09-1.89-2.86,0-4A7.56,7.56,0,0,1,235,310.21Z" transform="translate(-11.9 -13.05)"/><path class="cls-1" d="M252.84,299.88c1.89,1.09,1.89,2.86,0,3.95a7.56,7.56,0,0,1-6.84,0c-1.89-1.09-1.89-2.86,0-3.95A7.56,7.56,0,0,1,252.84,299.88Z" transform="translate(-11.9 -13.05)"/><path class="cls-1" d="M181.29,320.54c1.89,1.09,1.89,2.85,0,3.95a7.56,7.56,0,0,1-6.84,0c-1.89-1.1-1.89-2.86,0-3.95A7.5,7.5,0,0,1,181.29,320.54Z" transform="translate(-11.9 -13.05)"/><path class="cls-1" d="M199.18,310.21c1.89,1.09,1.89,2.86,0,4a7.56,7.56,0,0,1-6.84,0c-1.89-1.09-1.89-2.86,0-4A7.56,7.56,0,0,1,199.18,310.21Z" transform="translate(-11.9 -13.05)"/><path class="cls-1" d="M217.06,299.88c1.89,1.09,1.89,2.86,0,3.95a7.56,7.56,0,0,1-6.84,0c-1.89-1.09-1.89-2.86,0-3.95A7.56,7.56,0,0,1,217.06,299.88Z" transform="translate(-11.9 -13.05)"/><path class="cls-1" d="M235,289.56c1.89,1.09,1.89,2.86,0,3.95a7.56,7.56,0,0,1-6.84,0c-1.89-1.09-1.89-2.86,0-3.95A7.5,7.5,0,0,1,235,289.56Z" transform="translate(-11.9 -13.05)"/><path class="cls-1" d="M181.29,299.88c1.89,1.09,1.89,2.86,0,3.95a7.56,7.56,0,0,1-6.84,0c-1.89-1.09-1.89-2.86,0-3.95A7.56,7.56,0,0,1,181.29,299.88Z" transform="translate(-11.9 -13.05)"/><path class="cls-1" d="M199.18,289.56c1.89,1.09,1.89,2.86,0,3.95a7.56,7.56,0,0,1-6.84,0c-1.89-1.09-1.89-2.86,0-3.95A7.5,7.5,0,0,1,199.18,289.56Z" transform="translate(-11.9 -13.05)"/><path class="cls-1" d="M217.06,279.23c1.89,1.09,1.89,2.86,0,3.95a7.56,7.56,0,0,1-6.84,0c-1.89-1.09-1.89-2.86,0-3.95A7.56,7.56,0,0,1,217.06,279.23Z" transform="translate(-11.9 -13.05)"/><path class="cls-1" d="M181.29,279.23c1.89,1.09,1.89,2.86,0,3.95a7.56,7.56,0,0,1-6.84,0c-1.89-1.09-1.89-2.86,0-3.95A7.56,7.56,0,0,1,181.29,279.23Z" transform="translate(-11.9 -13.05)"/><path class="cls-1" d="M199.18,268.9c1.89,1.09,1.89,2.86,0,4a7.56,7.56,0,0,1-6.84,0c-1.89-1.09-1.89-2.86,0-4A7.56,7.56,0,0,1,199.18,268.9Z" transform="translate(-11.9 -13.05)"/><path class="cls-1" d="M145.36,279.12c1.89,1.09,1.89,2.86,0,3.95a7.56,7.56,0,0,1-6.84,0c-1.89-1.09-1.89-2.86,0-3.95A7.56,7.56,0,0,1,145.36,279.12Z" transform="translate(-11.9 -13.05)"/><path class="cls-1" d="M163.25,268.79c1.89,1.09,1.89,2.86,0,3.95a7.5,7.5,0,0,1-6.84,0c-1.89-1.09-1.89-2.86,0-3.95A7.56,7.56,0,0,1,163.25,268.79Z" transform="translate(-11.9 -13.05)"/><path class="cls-1" d="M181.14,258.47c1.89,1.09,1.89,2.86,0,3.95a7.56,7.56,0,0,1-6.84,0c-1.89-1.09-1.89-2.86,0-3.95A7.56,7.56,0,0,1,181.14,258.47Z" transform="translate(-11.9 -13.05)"/><path class="cls-1" d="M109.59,279.12c1.89,1.09,1.89,2.86,0,3.95a7.56,7.56,0,0,1-6.84,0c-1.89-1.09-1.89-2.86,0-3.95A7.56,7.56,0,0,1,109.59,279.12Z" transform="translate(-11.9 -13.05)"/><path class="cls-1" d="M127.48,268.79c1.89,1.09,1.89,2.86,0,3.95a7.5,7.5,0,0,1-6.84,0c-1.89-1.09-1.89-2.86,0-3.95A7.56,7.56,0,0,1,127.48,268.79Z" transform="translate(-11.9 -13.05)"/><path class="cls-1" d="M145.37,258.47c1.88,1.09,1.88,2.86,0,3.95a7.58,7.58,0,0,1-6.85,0c-1.89-1.09-1.89-2.86,0-3.95A7.58,7.58,0,0,1,145.37,258.47Z" transform="translate(-11.9 -13.05)"/><path class="cls-1" d="M163.25,248.14c1.89,1.09,1.89,2.86,0,4a7.56,7.56,0,0,1-6.84,0c-1.89-1.09-1.89-2.86,0-4A7.56,7.56,0,0,1,163.25,248.14Z" transform="translate(-11.9 -13.05)"/><path class="cls-1" d="M73.82,279.12c1.89,1.09,1.89,2.86,0,3.95a7.56,7.56,0,0,1-6.84,0c-1.89-1.09-1.89-2.86,0-3.95A7.56,7.56,0,0,1,73.82,279.12Z" transform="translate(-11.9 -13.05)"/><path class="cls-1" d="M91.71,268.79c1.89,1.1,1.89,2.86,0,3.95a7.5,7.5,0,0,1-6.84,0c-1.89-1.09-1.89-2.85,0-3.95A7.56,7.56,0,0,1,91.71,268.79Z" transform="translate(-11.9 -13.05)"/><path class="cls-1" d="M109.59,258.47c1.89,1.09,1.89,2.86,0,3.95a7.56,7.56,0,0,1-6.84,0c-1.89-1.09-1.89-2.86,0-3.95A7.56,7.56,0,0,1,109.59,258.47Z" transform="translate(-11.9 -13.05)"/><path class="cls-1" d="M127.48,248.14c1.89,1.09,1.89,2.86,0,4a7.56,7.56,0,0,1-6.84,0c-1.89-1.09-1.89-2.86,0-4A7.56,7.56,0,0,1,127.48,248.14Z" transform="translate(-11.9 -13.05)"/><path class="cls-1" d="M145.37,237.82c1.88,1.08,1.88,2.85,0,3.94a7.52,7.52,0,0,1-6.85,0c-1.88-1.09-1.88-2.86,0-3.94A7.58,7.58,0,0,1,145.37,237.82Z" transform="translate(-11.9 -13.05)"/><path class="cls-1" d="M38.05,279.12c1.89,1.09,1.89,2.86,0,3.95a7.56,7.56,0,0,1-6.84,0c-1.89-1.09-1.89-2.86,0-3.95A7.56,7.56,0,0,1,38.05,279.12Z" transform="translate(-11.9 -13.05)"/><path class="cls-1" d="M55.93,268.79c1.89,1.1,1.89,2.86,0,3.95a7.5,7.5,0,0,1-6.84,0c-1.89-1.09-1.89-2.85,0-3.95A7.56,7.56,0,0,1,55.93,268.79Z" transform="translate(-11.9 -13.05)"/><path class="cls-1" d="M73.82,258.47c1.89,1.09,1.89,2.86,0,3.95a7.56,7.56,0,0,1-6.84,0c-1.89-1.09-1.89-2.86,0-3.95A7.56,7.56,0,0,1,73.82,258.47Z" transform="translate(-11.9 -13.05)"/><path class="cls-1" d="M91.71,248.14c1.89,1.09,1.89,2.86,0,4a7.56,7.56,0,0,1-6.84,0c-1.89-1.09-1.89-2.86,0-4A7.56,7.56,0,0,1,91.71,248.14Z" transform="translate(-11.9 -13.05)"/><ellipse class="cls-1" cx="94.27" cy="226.74" rx="4.84" ry="2.79"/><ellipse class="cls-1" cx="112.15" cy="216.41" rx="4.84" ry="2.79"/><path class="cls-1" d="M20.16,268.79c1.89,1.1,1.89,2.86,0,3.95a7.5,7.5,0,0,1-6.84,0c-1.89-1.09-1.89-2.85,0-3.95A7.56,7.56,0,0,1,20.16,268.79Z" transform="translate(-11.9 -13.05)"/><path class="cls-1" d="M38.05,258.47c1.89,1.09,1.89,2.86,0,3.95a7.56,7.56,0,0,1-6.84,0c-1.89-1.09-1.89-2.86,0-3.95A7.56,7.56,0,0,1,38.05,258.47Z" transform="translate(-11.9 -13.05)"/><path class="cls-1" d="M55.93,248.14c1.89,1.09,1.89,2.86,0,4a7.56,7.56,0,0,1-6.84,0c-1.89-1.09-1.88-2.86,0-4A7.56,7.56,0,0,1,55.93,248.14Z" transform="translate(-11.9 -13.05)"/><path class="cls-1" d="M73.82,237.82c1.89,1.09,1.89,2.85,0,3.94a7.5,7.5,0,0,1-6.84,0c-1.89-1.09-1.89-2.85,0-3.94A7.56,7.56,0,0,1,73.82,237.82Z" transform="translate(-11.9 -13.05)"/><path class="cls-1" d="M91.71,227.49c1.89,1.09,1.89,2.86,0,3.95a7.56,7.56,0,0,1-6.84,0c-1.89-1.09-1.89-2.86,0-3.95A7.56,7.56,0,0,1,91.71,227.49Z" transform="translate(-11.9 -13.05)"/><path class="cls-1" d="M109.59,217.16c1.89,1.09,1.89,2.86,0,4a7.56,7.56,0,0,1-6.84,0c-1.89-1.09-1.89-2.86,0-4A7.56,7.56,0,0,1,109.59,217.16Z" transform="translate(-11.9 -13.05)"/><path class="cls-1" d="M20.16,248.14c1.89,1.09,1.89,2.86,0,4a7.56,7.56,0,0,1-6.84,0c-1.89-1.09-1.89-2.86,0-4A7.56,7.56,0,0,1,20.16,248.14Z" transform="translate(-11.9 -13.05)"/><ellipse class="cls-1" cx="22.72" cy="226.74" rx="4.84" ry="2.79"/><ellipse class="cls-1" cx="40.61" cy="216.41" rx="4.84" ry="2.79"/><path class="cls-1" d="M73.82,217.16c1.89,1.09,1.89,2.86,0,4a7.56,7.56,0,0,1-6.84,0c-1.89-1.09-1.89-2.86,0-4A7.56,7.56,0,0,1,73.82,217.16Z" transform="translate(-11.9 -13.05)"/><path class="cls-1" d="M91.71,206.84c1.89,1.09,1.89,2.85,0,3.94a7.5,7.5,0,0,1-6.84,0c-1.89-1.09-1.89-2.85,0-3.94A7.5,7.5,0,0,1,91.71,206.84Z" transform="translate(-11.9 -13.05)"/><ellipse class="cls-1" cx="4.84" cy="216.41" rx="4.84" ry="2.79"/><path class="cls-1" d="M38.05,217.16c1.89,1.09,1.89,2.86,0,4a7.56,7.56,0,0,1-6.84,0c-1.89-1.09-1.89-2.86,0-4A7.56,7.56,0,0,1,38.05,217.16Z" transform="translate(-11.9 -13.05)"/><path class="cls-1" d="M55.93,206.84c1.89,1.09,1.89,2.85,0,3.95a7.56,7.56,0,0,1-6.84,0c-1.88-1.1-1.88-2.86,0-3.95A7.5,7.5,0,0,1,55.93,206.84Z" transform="translate(-11.9 -13.05)"/><path class="cls-1" d="M378.89,391.28c1.89,1.09,1.89,2.86,0,4a7.56,7.56,0,0,1-6.84,0c-1.89-1.09-1.89-2.86,0-4A7.56,7.56,0,0,1,378.89,391.28Z" transform="translate(-11.9 -13.05)"/><path class="cls-1" d="M396.78,381c1.89,1.09,1.89,2.86,0,3.95a7.56,7.56,0,0,1-6.84,0c-1.89-1.09-1.89-2.86,0-3.95A7.56,7.56,0,0,1,396.78,381Z" transform="translate(-11.9 -13.05)"/><path class="cls-1" d="M343.12,391.28c1.89,1.09,1.89,2.86,0,4a7.56,7.56,0,0,1-6.84,0c-1.89-1.09-1.89-2.86,0-4A7.56,7.56,0,0,1,343.12,391.28Z" transform="translate(-11.9 -13.05)"/><path class="cls-1" d="M361,381c1.89,1.09,1.89,2.86,0,3.95a7.56,7.56,0,0,1-6.84,0c-1.89-1.09-1.89-2.86,0-3.95A7.56,7.56,0,0,1,361,381Z" transform="translate(-11.9 -13.05)"/><path class="cls-1" d="M378.89,370.62c1.89,1.09,1.89,2.86,0,3.95a7.56,7.56,0,0,1-6.84,0c-1.89-1.09-1.89-2.86,0-3.95A7.56,7.56,0,0,1,378.89,370.62Z" transform="translate(-11.9 -13.05)"/><path class="cls-1" d="M325.24,381c1.88,1.09,1.88,2.86,0,3.95a7.56,7.56,0,0,1-6.84,0c-1.89-1.09-1.89-2.86,0-3.95A7.56,7.56,0,0,1,325.24,381Z" transform="translate(-11.9 -13.05)"/><path class="cls-1" d="M343.12,370.62c1.89,1.09,1.89,2.86,0,3.95a7.56,7.56,0,0,1-6.84,0c-1.89-1.09-1.89-2.86,0-3.95A7.56,7.56,0,0,1,343.12,370.62Z" transform="translate(-11.9 -13.05)"/><path class="cls-1" d="M361,360.3c1.89,1.09,1.89,2.86,0,3.95a7.56,7.56,0,0,1-6.84,0c-1.89-1.09-1.89-2.86,0-3.95A7.56,7.56,0,0,1,361,360.3Z" transform="translate(-11.9 -13.05)"/><path class="cls-1" d="M289.31,380.84c1.89,1.09,1.89,2.86,0,4a7.56,7.56,0,0,1-6.84,0c-1.89-1.09-1.89-2.86,0-4A7.56,7.56,0,0,1,289.31,380.84Z" transform="translate(-11.9 -13.05)"/><path class="cls-1" d="M307.2,370.52c1.88,1.09,1.88,2.85,0,4a7.58,7.58,0,0,1-6.85,0c-1.88-1.1-1.88-2.86,0-4A7.52,7.52,0,0,1,307.2,370.52Z" transform="translate(-11.9 -13.05)"/><path class="cls-1" d="M325.08,360.19c1.89,1.09,1.89,2.86,0,3.95a7.56,7.56,0,0,1-6.84,0c-1.89-1.09-1.89-2.86,0-3.95A7.56,7.56,0,0,1,325.08,360.19Z" transform="translate(-11.9 -13.05)"/><path class="cls-1" d="M343,349.86c1.89,1.09,1.89,2.86,0,3.95a7.56,7.56,0,0,1-6.84,0c-1.89-1.09-1.89-2.86,0-3.95A7.56,7.56,0,0,1,343,349.86Z" transform="translate(-11.9 -13.05)"/><path class="cls-1" d="M271.42,370.52c1.89,1.09,1.89,2.85,0,4a7.56,7.56,0,0,1-6.84,0c-1.89-1.1-1.89-2.86,0-4A7.5,7.5,0,0,1,271.42,370.52Z" transform="translate(-11.9 -13.05)"/><path class="cls-1" d="M289.31,360.19c1.89,1.09,1.89,2.86,0,3.95a7.56,7.56,0,0,1-6.84,0c-1.89-1.09-1.89-2.86,0-3.95A7.56,7.56,0,0,1,289.31,360.19Z" transform="translate(-11.9 -13.05)"/><path class="cls-1" d="M307.2,349.86c1.88,1.09,1.88,2.86,0,3.95a7.58,7.58,0,0,1-6.85,0c-1.88-1.09-1.88-2.86,0-3.95A7.58,7.58,0,0,1,307.2,349.86Z" transform="translate(-11.9 -13.05)"/><path class="cls-1" d="M325.08,339.54c1.89,1.09,1.89,2.85,0,3.95a7.56,7.56,0,0,1-6.84,0c-1.89-1.1-1.89-2.86,0-3.95A7.56,7.56,0,0,1,325.08,339.54Z" transform="translate(-11.9 -13.05)"/><path class="cls-1" d="M271.42,349.86c1.89,1.09,1.89,2.86,0,3.95a7.56,7.56,0,0,1-6.84,0c-1.89-1.09-1.89-2.86,0-3.95A7.56,7.56,0,0,1,271.42,349.86Z" transform="translate(-11.9 -13.05)"/><path class="cls-1" d="M289.31,339.54c1.89,1.09,1.89,2.85,0,3.95a7.56,7.56,0,0,1-6.84,0c-1.89-1.1-1.89-2.86,0-3.95A7.56,7.56,0,0,1,289.31,339.54Z" transform="translate(-11.9 -13.05)"/><path class="cls-1" d="M307.2,329.21c1.88,1.09,1.88,2.86,0,4a7.58,7.58,0,0,1-6.85,0c-1.88-1.09-1.88-2.86,0-4A7.58,7.58,0,0,1,307.2,329.21Z" transform="translate(-11.9 -13.05)"/><path class="cls-1" d="M235.65,349.86c1.89,1.09,1.89,2.86,0,3.95a7.56,7.56,0,0,1-6.84,0c-1.89-1.09-1.89-2.86,0-3.95A7.56,7.56,0,0,1,235.65,349.86Z" transform="translate(-11.9 -13.05)"/><path class="cls-1" d="M253.54,339.54c1.89,1.09,1.89,2.85,0,3.95a7.56,7.56,0,0,1-6.84,0c-1.89-1.1-1.89-2.86,0-3.95A7.56,7.56,0,0,1,253.54,339.54Z" transform="translate(-11.9 -13.05)"/><path class="cls-1" d="M271.42,329.21c1.89,1.09,1.89,2.86,0,4a7.56,7.56,0,0,1-6.84,0c-1.89-1.09-1.89-2.86,0-4A7.56,7.56,0,0,1,271.42,329.21Z" transform="translate(-11.9 -13.05)"/><path class="cls-1" d="M289.31,318.88c1.89,1.09,1.89,2.86,0,3.95a7.56,7.56,0,0,1-6.84,0c-1.89-1.09-1.89-2.86,0-3.95A7.56,7.56,0,0,1,289.31,318.88Z" transform="translate(-11.9 -13.05)"/><path class="cls-1" d="M288.75,300c1.89,1.09,1.89,2.86,0,3.95a7.56,7.56,0,0,1-6.84,0c-1.89-1.09-1.89-2.86,0-3.95A7.56,7.56,0,0,1,288.75,300Z" transform="translate(-11.9 -13.05)"/><path class="cls-1" d="M264,289.66a7.53,7.53,0,0,1,6.84,0c1.9,1.09,1.9,2.86,0,4a7.59,7.59,0,0,1-6.84,0C262.12,292.52,262.12,290.75,264,289.66Z" transform="translate(-11.9 -13.05)"/><path class="cls-1" d="M288.75,279.32c1.89,1.09,1.89,2.86,0,3.95a7.56,7.56,0,0,1-6.84,0c-1.89-1.09-1.89-2.86,0-3.95A7.56,7.56,0,0,1,288.75,279.32Z" transform="translate(-11.9 -13.05)"/><path class="cls-1" d="M306.64,272.94a7.56,7.56,0,0,1-6.84,0c-1.89-1.09-1.89-2.86,0-3.95a7.56,7.56,0,0,1,6.84,0C308.53,270.08,308.53,271.85,306.64,272.94Z" transform="translate(-11.9 -13.05)"/><path class="cls-1" d="M246.12,279.33a7.56,7.56,0,0,1,6.84,0c1.89,1.09,1.9,2.86,0,3.95a7.56,7.56,0,0,1-6.84,0C244.24,282.19,244.23,280.42,246.12,279.33Z" transform="translate(-11.9 -13.05)"/><path class="cls-1" d="M270.87,269c1.89,1.09,1.89,2.86,0,3.95a7.56,7.56,0,0,1-6.84,0c-1.89-1.09-1.89-2.86,0-3.95A7.56,7.56,0,0,1,270.87,269Z" transform="translate(-11.9 -13.05)"/><path class="cls-1" d="M288.75,258.66c1.89,1.09,1.89,2.86,0,3.95a7.56,7.56,0,0,1-6.84,0c-1.89-1.09-1.89-2.86,0-3.95A7.56,7.56,0,0,1,288.75,258.66Z" transform="translate(-11.9 -13.05)"/><path class="cls-1" d="M306.64,252.29a7.56,7.56,0,0,1-6.84,0c-1.89-1.09-1.89-2.86,0-3.95S308.53,251.2,306.64,252.29Z" transform="translate(-11.9 -13.05)"/><path class="cls-1" d="M228.23,269a7.56,7.56,0,0,1,6.84,0c1.89,1.08,1.9,2.85,0,3.95a7.56,7.56,0,0,1-6.84,0C226.35,271.87,226.35,270.1,228.23,269Z" transform="translate(-11.9 -13.05)"/><path class="cls-1" d="M210.35,258.68a7.53,7.53,0,0,1,6.84,0c1.89,1.09,1.89,2.86,0,3.95a7.56,7.56,0,0,1-6.84,0C208.47,261.54,208.46,259.77,210.35,258.68Z" transform="translate(-11.9 -13.05)"/><path class="cls-1" d="M235.1,252.29a7.58,7.58,0,0,1-6.85,0c-1.89-1.09-1.89-2.86,0-3.95a7.58,7.58,0,0,1,6.85,0C237,249.43,237,251.2,235.1,252.29Z" transform="translate(-11.9 -13.05)"/><path class="cls-1" d="M192.3,248.24a7.61,7.61,0,0,1,6.85,0c1.89,1.09,1.89,2.86,0,4a7.53,7.53,0,0,1-6.84,0C190.42,251.1,190.42,249.33,192.3,248.24Z" transform="translate(-11.9 -13.05)"/><path class="cls-1" d="M217.05,237.9c1.89,1.09,1.89,2.86,0,3.95a7.56,7.56,0,0,1-6.84,0c-1.89-1.09-1.89-2.86,0-3.95A7.56,7.56,0,0,1,217.05,237.9Z" transform="translate(-11.9 -13.05)"/><path class="cls-1" d="M174.42,237.91a7.56,7.56,0,0,1,6.84,0c1.89,1.09,1.9,2.86,0,4a7.59,7.59,0,0,1-6.84,0C172.54,240.78,172.53,239,174.42,237.91Z" transform="translate(-11.9 -13.05)"/><path class="cls-1" d="M199.17,227.58c1.89,1.09,1.89,2.85,0,3.95a7.56,7.56,0,0,1-6.84,0c-1.89-1.1-1.89-2.86,0-3.95A7.53,7.53,0,0,1,199.17,227.58Z" transform="translate(-11.9 -13.05)"/><path class="cls-1" d="M217.05,217.25c1.89,1.09,1.89,2.86,0,3.95a7.56,7.56,0,0,1-6.84,0c-1.89-1.09-1.89-2.86,0-3.95A7.56,7.56,0,0,1,217.05,217.25Z" transform="translate(-11.9 -13.05)"/><path class="cls-1" d="M156.53,227.59a7.56,7.56,0,0,1,6.84,0c1.9,1.09,1.9,2.86,0,3.95a7.58,7.58,0,0,1-6.85,0C154.65,230.45,154.65,228.68,156.53,227.59Z" transform="translate(-11.9 -13.05)"/><path class="cls-1" d="M181.28,217.25c1.89,1.09,1.89,2.86,0,3.95a7.56,7.56,0,0,1-6.84,0c-1.89-1.09-1.89-2.86,0-3.95A7.56,7.56,0,0,1,181.28,217.25Z" transform="translate(-11.9 -13.05)"/><path class="cls-1" d="M199.17,206.92c1.89,1.09,1.89,2.86,0,4a7.56,7.56,0,0,1-6.84,0c-1.89-1.09-1.89-2.86,0-4A7.56,7.56,0,0,1,199.17,206.92Z" transform="translate(-11.9 -13.05)"/><path class="cls-1" d="M217.05,200.55a7.56,7.56,0,0,1-6.84,0c-1.89-1.1-1.89-2.86,0-4a7.56,7.56,0,0,1,6.84,0C218.94,197.69,218.94,199.45,217.05,200.55Z" transform="translate(-11.9 -13.05)"/><path class="cls-1" d="M138.65,217.26a7.56,7.56,0,0,1,6.84,0c1.89,1.08,1.9,2.85,0,3.94a7.53,7.53,0,0,1-6.84,0C136.77,220.12,136.76,218.35,138.65,217.26Z" transform="translate(-11.9 -13.05)"/><path class="cls-1" d="M163.4,206.92c1.89,1.09,1.89,2.86,0,4a7.58,7.58,0,0,1-6.85,0c-1.88-1.09-1.88-2.86,0-4A7.58,7.58,0,0,1,163.4,206.92Z" transform="translate(-11.9 -13.05)"/><path class="cls-1" d="M181.28,196.6c1.89,1.09,1.89,2.85,0,4a7.56,7.56,0,0,1-6.84,0c-1.89-1.1-1.89-2.86,0-4A7.56,7.56,0,0,1,181.28,196.6Z" transform="translate(-11.9 -13.05)"/><path class="cls-1" d="M199.17,186.27c1.89,1.09,1.89,2.86,0,3.95a7.56,7.56,0,0,1-6.84,0c-1.89-1.09-1.89-2.86,0-3.95A7.56,7.56,0,0,1,199.17,186.27Z" transform="translate(-11.9 -13.05)"/><path class="cls-1" d="M217.05,179.89a7.56,7.56,0,0,1-6.84,0c-1.89-1.09-1.89-2.86,0-3.95a7.56,7.56,0,0,1,6.84,0C218.94,177,218.94,178.8,217.05,179.89Z" transform="translate(-11.9 -13.05)"/><path class="cls-1" d="M120.76,206.94a7.53,7.53,0,0,1,6.84,0c1.89,1.09,1.9,2.86,0,3.95a7.59,7.59,0,0,1-6.84,0C118.88,209.8,118.87,208,120.76,206.94Z" transform="translate(-11.9 -13.05)"/><ellipse class="cls-1" cx="130.18" cy="185.52" rx="4.84" ry="2.79"/><path class="cls-1" d="M163.4,186.27c1.89,1.09,1.89,2.86,0,3.95a7.58,7.58,0,0,1-6.85,0c-1.88-1.09-1.88-2.86,0-3.95A7.58,7.58,0,0,1,163.4,186.27Z" transform="translate(-11.9 -13.05)"/><path class="cls-1" d="M181.28,175.94c1.89,1.09,1.89,2.86,0,3.95a7.56,7.56,0,0,1-6.84,0c-1.89-1.09-1.89-2.86,0-3.95A7.56,7.56,0,0,1,181.28,175.94Z" transform="translate(-11.9 -13.05)"/><path class="cls-1" d="M199.17,165.62c1.89,1.09,1.89,2.86,0,3.95a7.56,7.56,0,0,1-6.84,0c-1.89-1.09-1.89-2.86,0-3.95A7.56,7.56,0,0,1,199.17,165.62Z" transform="translate(-11.9 -13.05)"/><path class="cls-1" d="M102.87,196.61a7.58,7.58,0,0,1,6.85,0c1.89,1.09,1.89,2.86,0,4a7.56,7.56,0,0,1-6.84,0C101,199.47,101,197.7,102.87,196.61Z" transform="translate(-11.9 -13.05)"/><path class="cls-1" d="M127.62,186.27c1.89,1.09,1.89,2.86,0,3.95a7.56,7.56,0,0,1-6.84,0c-1.89-1.09-1.89-2.86,0-3.95A7.56,7.56,0,0,1,127.62,186.27Z" transform="translate(-11.9 -13.05)"/><path class="cls-1" d="M145.51,175.94c1.89,1.09,1.89,2.86,0,3.95a7.56,7.56,0,0,1-6.84,0c-1.89-1.09-1.89-2.86,0-3.95A7.56,7.56,0,0,1,145.51,175.94Z" transform="translate(-11.9 -13.05)"/><path class="cls-1" d="M163.4,165.62c1.89,1.09,1.89,2.86,0,3.95a7.56,7.56,0,0,1-6.84,0c-1.89-1.09-1.89-2.86,0-3.95A7.56,7.56,0,0,1,163.4,165.62Z" transform="translate(-11.9 -13.05)"/><path class="cls-1" d="M181.28,155.29c1.89,1.09,1.89,2.86,0,4a7.56,7.56,0,0,1-6.84,0c-1.89-1.09-1.89-2.86,0-4A7.56,7.56,0,0,1,181.28,155.29Z" transform="translate(-11.9 -13.05)"/><path class="cls-1" d="M102.9,175.94a7.56,7.56,0,0,1,6.84,0c1.89,1.09,1.89,2.86,0,3.95a7.56,7.56,0,0,1-6.84,0c-1.89-1.09-1.89-2.86,0-3.95Z" transform="translate(-11.9 -13.05)"/><path class="cls-1" d="M120.78,165.62a7.56,7.56,0,0,1,6.84,0c1.89,1.09,1.89,2.86,0,3.95a7.56,7.56,0,0,1-6.84,0c-1.89-1.09-1.89-2.86,0-3.95Z" transform="translate(-11.9 -13.05)"/><path class="cls-1" d="M138.67,155.29a7.56,7.56,0,0,1,6.84,0c1.89,1.09,1.89,2.86,0,4a7.56,7.56,0,0,1-6.84,0c-1.89-1.09-1.89-2.86,0-4Z" transform="translate(-11.9 -13.05)"/><path class="cls-1" d="M163.4,145c1.89,1.09,1.89,2.86,0,3.95a7.56,7.56,0,0,1-6.84,0C154.67,147.82,161.51,143.87,163.4,145Z" transform="translate(-11.9 -13.05)"/><path class="cls-1" d="M408,370.72a7.56,7.56,0,0,1,6.84,0c1.89,1.09,1.9,2.86,0,3.95a7.56,7.56,0,0,1-6.84,0C406.07,373.59,406.06,371.82,408,370.72Z" transform="translate(-11.9 -13.05)"/><path class="cls-1" d="M432.7,360.39c1.89,1.09,1.89,2.85,0,3.94a7.5,7.5,0,0,1-6.84,0c-1.89-1.09-1.89-2.85,0-3.94A7.5,7.5,0,0,1,432.7,360.39Z" transform="translate(-11.9 -13.05)"/><path class="cls-1" d="M450.58,350.06c1.89,1.09,1.89,2.86,0,3.95a7.56,7.56,0,0,1-6.84,0c-1.89-1.09-1.89-2.86,0-3.95A7.56,7.56,0,0,1,450.58,350.06Z" transform="translate(-11.9 -13.05)"/><path class="cls-1" d="M390.06,360.4a7.53,7.53,0,0,1,6.84,0c1.9,1.09,1.9,2.86,0,3.95a7.56,7.56,0,0,1-6.84,0C388.18,363.26,388.18,361.49,390.06,360.4Z" transform="translate(-11.9 -13.05)"/><path class="cls-1" d="M414.81,350.06c1.89,1.09,1.89,2.86,0,3.95a7.56,7.56,0,0,1-6.84,0c-1.89-1.09-1.89-2.86,0-3.95A7.56,7.56,0,0,1,414.81,350.06Z" transform="translate(-11.9 -13.05)"/><path class="cls-1" d="M432.7,339.73c1.89,1.09,1.89,2.86,0,3.95a7.56,7.56,0,0,1-6.84,0c-1.89-1.09-1.89-2.86,0-3.95A7.56,7.56,0,0,1,432.7,339.73Z" transform="translate(-11.9 -13.05)"/><path class="cls-1" d="M450.58,329.41c1.89,1.09,1.89,2.85,0,3.94a7.5,7.5,0,0,1-6.84,0c-1.89-1.09-1.89-2.85,0-3.94A7.5,7.5,0,0,1,450.58,329.41Z" transform="translate(-11.9 -13.05)"/><path class="cls-1" d="M372.17,350.07a7.61,7.61,0,0,1,6.85,0c1.89,1.09,1.89,2.86,0,3.95a7.53,7.53,0,0,1-6.84,0C370.3,352.93,370.29,351.16,372.17,350.07Z" transform="translate(-11.9 -13.05)"/><path class="cls-1" d="M396.93,339.73c1.88,1.09,1.88,2.86,0,3.95a7.58,7.58,0,0,1-6.85,0c-1.88-1.09-1.88-2.86,0-3.95A7.58,7.58,0,0,1,396.93,339.73Z" transform="translate(-11.9 -13.05)"/><path class="cls-1" d="M414.81,329.41c1.89,1.09,1.89,2.85,0,3.94a7.5,7.5,0,0,1-6.84,0c-1.89-1.09-1.89-2.85,0-3.94A7.5,7.5,0,0,1,414.81,329.41Z" transform="translate(-11.9 -13.05)"/><path class="cls-1" d="M432.7,319.08c1.89,1.09,1.89,2.86,0,3.95a7.56,7.56,0,0,1-6.84,0c-1.89-1.09-1.89-2.86,0-3.95A7.56,7.56,0,0,1,432.7,319.08Z" transform="translate(-11.9 -13.05)"/><path class="cls-1" d="M354.13,339.64a7.53,7.53,0,0,1,6.84,0c1.9,1.09,1.9,2.86,0,3.95a7.56,7.56,0,0,1-6.84,0C352.25,342.5,352.25,340.73,354.13,339.64Z" transform="translate(-11.9 -13.05)"/><path class="cls-1" d="M378.88,329.3c1.89,1.09,1.89,2.86,0,3.95a7.56,7.56,0,0,1-6.84,0c-1.89-1.09-1.89-2.86,0-3.95A7.56,7.56,0,0,1,378.88,329.3Z" transform="translate(-11.9 -13.05)"/><path class="cls-1" d="M396.77,319c1.89,1.09,1.89,2.86,0,3.95a7.56,7.56,0,0,1-6.84,0c-1.89-1.09-1.89-2.86,0-3.95A7.56,7.56,0,0,1,396.77,319Z" transform="translate(-11.9 -13.05)"/><path class="cls-1" d="M414.66,308.64c1.89,1.09,1.89,2.86,0,3.95a7.56,7.56,0,0,1-6.84,0c-1.89-1.09-1.89-2.86,0-3.95A7.56,7.56,0,0,1,414.66,308.64Z" transform="translate(-11.9 -13.05)"/><path class="cls-2" d="M246.26,285.42l-17.62-10.18q-20.07-11.58-25.71-24.31t2.15-32.35q6.15-15.62,5-24.66t-12-15.33q-8.62-5-21.41-3.36A67.15,67.15,0,0,0,151.39,184q-30.93,17.85-50.4,54.41L16.78,222.72C31.4,191.89,72.19,181,94.23,144.41c15.48-25.74,42.49-88.09,73.22-90.38s76.23,63.81,99.31,77.13q24.78,14.31,31.33,31.47t-2.66,41.17q-7.57,20.46-6.56,27.32c.7,4.58,4,8.56,9.85,11.95l10.45,6Z" transform="translate(-11.9 -13.05)"/><path class="cls-1" d="M246.26,289.77l-19.5-11.26c-14.23-8.22-23.15-16.74-27.27-26.06s-3.46-21.24,2.09-35.25c3.84-9.78,5.45-17.45,4.78-22.81-.61-4.84-3.92-8.95-10.13-12.54-5-2.87-11.39-3.83-19-2.88a63.69,63.69,0,0,0-23.91,8.33c-19.9,11.48-35.93,32-48.52,55.68h0L13,225.85l.37-4.75c7.68-16.21,21.9-26.92,37-38.28,14.73-11.12,30-22.61,40.65-40.35,2.87-4.76,6.12-10.77,9.72-17.43,16.62-30.7,39.39-72.75,66.45-74.77,21.76-1.61,47.6,25.43,70.63,49.27,11.85,12.26,23.05,23.86,30.84,28.36,17.21,9.94,28.3,21.18,33,33.39s3.8,27-2.67,43.86c-6.28,17-6.68,23.21-6.34,25.41.51,3.36,3.21,6.48,8,9.24l16.1,9.3Zm-63.6-118.7A34.21,34.21,0,0,1,200,175.33c8.27,4.78,12.93,10.88,13.84,18.12.84,6.73-.88,15.4-5.26,26.52-4.78,12.07-5.52,22-2.21,29.43,3.41,7.7,11.53,15.3,24.16,22.58l15.73,9.1,55.38-32-4.81-2.76c-6.88-4-10.81-8.91-11.68-14.66-.51-3.35-.35-10,6.75-29.19,5.8-15.09,6.69-28,2.67-38.52s-14-20.49-29.69-29.54c-8.72-5-19.73-16.45-32.5-29.66-20.79-21.53-46.45-48.33-64.65-47-22.95,1.72-45.47,43.32-60.39,70.85-3.66,6.77-7,12.89-9.89,17.72-11.42,19-27.26,30.93-42.57,42.48-12.82,9.67-25,18.86-32.35,31.14L99,234.24c13.1-23.69,30.08-41.66,50.53-53.47a71.27,71.27,0,0,1,26.73-9.28A53.17,53.17,0,0,1,182.66,171.07Z" transform="translate(-11.9 -13.05)"/><polygon class="cls-2" points="4.88 112.38 4.88 209.67 89.08 225.4 89.08 128.11 4.88 112.38"/><path class="cls-2" d="M202,139.38l-1.39,2.51L201,234.6c-.67,6.13-.11,11.62,2,16.33q5.64,12.74,25.71,24.31l17.62,10.18v-125Z" transform="translate(-11.9 -13.05)"/><path class="cls-1" d="M246.26,289.77l-19.5-11.26c-14.23-8.22-23.15-16.74-27.27-26.06-2.28-5.11-3-11.26-2.29-18.25l-.39-93.28,3.59-6.44L250,158V287.59ZM204.35,144.68l.37,89.91c-.64,6.08-.07,10.92,1.65,14.81,3.41,7.7,11.53,15.3,24.16,22.58l12,6.92V162.79Z" transform="translate(-11.9 -13.05)"/><path class="cls-2" d="M246.26,188.13,228.64,178q-20.07-11.59-25.71-24.31t2.15-32.35q6.15-15.63,5-24.67t-12-15.31q-8.62-5-21.41-3.38a67.15,67.15,0,0,0-25.32,8.81q-30.93,17.87-50.4,54.42L16.78,125.43Q38.71,79.17,94.23,47.12,139.92,20.74,186,17.31t80.74,16.55q24.78,14.32,31.33,31.47t-2.66,41.17q-7.57,20.46-6.56,27.33c.7,4.57,4,8.55,9.85,11.94l10.45,6Z" transform="translate(-11.9 -13.05)"/><path class="cls-3" d="M297.82,172.65q-8.81-5.09-9.84-12c-.69-4.57-4.16-13.23.89-26.87,6.15-16,12.71-30.18,8.33-41.62s-14.81-21.93-31.33-31.47q-34.63-20-80.74-16.55T93.34,74q-55.53,32.06-77.45,78.31L100.09,168q19.48-36.56,50.41-54.42a67.15,67.15,0,0,1,25.32-8.81q12.8-1.59,21.4,3.37c7.25,4.18,11.23,9.29,12,15.32s-.9,14-4.88,24.25h0v36.68c4.44,7.06,12.1,13.87,23.4,20.39L245.37,215l62.91-36.32Z" transform="translate(-11.9 -13.05)"/><path class="cls-1" d="M309.17,147.46l-8.57-5c-4.79-2.77-7.49-5.89-8-9.24-.34-2.2.06-8.42,6.34-25.42C305.41,91,306.31,76.26,301.61,64s-15.76-23.45-33-33.39C245,17,217.11,11.23,185.75,13.56c-31.17,2.31-62.6,12.51-93.4,30.3-36.46,21-62.5,47.09-77.6,77.37L13,124.58V225.85L104.75,243V229.4l21.93-26.32L169.29,176V83.31a56.33,56.33,0,0,1,7.88-1.64c7.67-1,14.08,0,19.06,2.9,6.21,3.58,9.52,7.67,10.13,12.52.67,5.37-.94,13-4.78,22.81-5.55,14-6.26,25.88-2.09,35.26s13,17.83,27.27,26.05l15.74,9.09v97.29l3.76,2.18,66.68-38.49V149.63ZM97.22,233.92,20.55,219.59V130l55.23,10.32,21.44,4Zm149-50.14-15.73-9.1c-12.63-7.28-20.75-14.87-24.16-22.57-3.31-7.47-2.58-17.37,2.21-29.44,4.37-11.12,6.1-19.79,5.26-26.52C212.92,88.91,208.27,82.82,200,78a34.29,34.29,0,0,0-17.37-4.25,50.68,50.68,0,0,0-6.39.41,71.1,71.1,0,0,0-26.73,9.28C129.06,95.29,112.08,113.28,99,137L22.37,122.65C36.94,94.53,61.73,70.23,96.11,50.39c29.81-17.23,60.16-27.09,90.19-29.32s56.27,3.18,78.58,16.06c15.68,9,25.66,19,29.69,29.55s3.13,23.42-2.67,38.51c-7.1,19.18-7.26,25.85-6.75,29.21.88,5.73,4.8,10.66,11.68,14.64l4.81,2.76-6.36,3.67Z" transform="translate(-11.9 -13.05)"/><path class="cls-2" d="M412.31,303.39h0v-97.6l-120.94,10-.36,93q-.7,12.25,18.14,23.12A74.09,74.09,0,0,0,349.63,342q21.63-.78,41.89-12.48,19.68-11.35,20.81-23.84A14.84,14.84,0,0,0,412.31,303.39Z" transform="translate(-11.9 -13.05)"/><path class="cls-1" d="M346.85,345.84a78.17,78.17,0,0,1-39.56-10.67c-13.84-8-20.58-16.95-20-26.6l.37-96.3L416.09,201.7V303.39a18,18,0,0,1,0,2.65c-.88,9.71-8.3,18.47-22.67,26.77-14,8.07-28.68,12.44-43.64,13C348.79,345.82,347.82,345.84,346.85,345.84Zm-51.7-126.63-.36,89.58c-.38,6.8,5.09,13.41,16.26,19.85a70.59,70.59,0,0,0,38.44,9.62,85.9,85.9,0,0,0,40.15-12c11.93-6.89,18.31-13.92,18.95-20.92a14.06,14.06,0,0,0,0-1.59V209.88Z" transform="translate(-11.9 -13.05)"/><path class="cls-2" d="M309.16,232.11Q290.3,221.22,291,209t22-24.54q20.49-11.82,41.8-12.18a76.05,76.05,0,0,1,40,10.4q18.65,10.77,17.53,23.25t-20.81,23.83q-20.28,11.72-41.89,12.49A74.06,74.06,0,0,1,309.16,232.11Z" transform="translate(-11.9 -13.05)"/><path class="cls-3" d="M394.79,205.66a76,76,0,0,0-40-10.4q-21.3.35-41.8,12.18c-8.61,5-14.66,9.94-18.23,14.89v21c3,4.05,7.75,8,14.35,11.79a74,74,0,0,0,40.46,10.11q21.61-.77,41.89-12.48,19.68-11.36,20.81-23.83T394.79,205.66Z" transform="translate(-11.9 -13.05)"/><path class="cls-1" d="M346.78,246a78,78,0,0,1-39.5-10.66h0c-13.84-8-20.58-16.94-20-26.61s8.37-18.62,23.9-27.6c14.16-8.16,28.83-12.43,43.63-12.68a79.47,79.47,0,0,1,41.89,10.91c13.75,8,20.28,17,19.39,26.85-.88,9.71-8.3,18.46-22.67,26.76-14,8.08-28.7,12.45-43.64,13C348.76,246,347.77,246,346.78,246Zm9.39-70h-1.26c-13.5.23-27,4.15-40,11.68s-19.76,14.73-20.16,21.5c-.37,6.59,5.1,13.21,16.27,19.65h0a69.57,69.57,0,0,0,38.44,9.61c13.71-.48,27.22-4.51,40.15-12,11.93-6.89,18.31-13.92,18.95-20.91.59-6.69-4.68-13.3-15.66-19.65A72.75,72.75,0,0,0,356.17,176Z" transform="translate(-11.9 -13.05)"/><polygon class="cls-1" points="333.05 231.32 333.05 329.02 382 315.44 400.46 297.03 400.42 199.35 379.6 216.68 353.55 229.22 333.05 231.32"/></g></svg>