<svg id="Layer_1" data-name="Layer 1" xmlns="http://www.w3.org/2000/svg" viewBox="0 0 673.91 199.77"><defs><style>.cls-1{fill:#39a1ff;}</style></defs><title>seabox</title><path class="cls-1" d="M226.33,169.85c-6.63,0-12.4.11-18.17,0-3.65-.1-12.26-9.09-12.26-12.75q-.08-37.65,0-75.32c0-4.35,8.74-12.79,13.1-12.94,16.8-.56,16.8-.56,28.62,11.41l18.74,19V68.85c6.87,0,13.1-.23,19.31.09,3.46.18,11.17,9.69,11.17,13.19q0,37.16,0,74.33c0,4.13-8.1,13-12.13,13.36-1.31.12-2.64,0-4,0H256.5c0-6.31-.51-12.39.12-18.35.9-8.58-1.65-14.94-8.36-20.65-7.46-6.34-13.88-13.9-20.75-20.93l-1.18.65Z" transform="translate(-14.09 -12.43)"/><path class="cls-1" d="M388.49,68.83c22.93,0,45.53,0,68.13,0,3.87,0,11.94,8.88,12,12.86.06,7.1-.23,14.21.11,21.29.21,4.47-.74,8-4.43,10.76-1.93,1.45-3.42,3.48-5.11,5.24.35.69.45,1.28.79,1.51,7.86,5.34,10,12.87,8.72,21.87a28.32,28.32,0,0,0,0,7.91c1,6.81-.91,12.39-6.75,16.17-2.31,1.49-5.07,3.2-7.64,3.23-21.78.26-43.57.15-65.79.15Zm50.09,20c-6.35,0-11.91-.12-17.46.12-1,0-2.71,1.5-2.75,2.37-.24,5.84-.13,11.69-.13,17.94,6.33,0,11.89.14,17.44-.13a4.05,4.05,0,0,0,2.77-2.82C438.72,100.76,438.58,95.2,438.58,88.83Zm-20.37,40.66c0,6.2-.1,11.93.1,17.65,0,.88,1.38,2.45,2.16,2.48,5.86.21,11.74.11,17.7.11V129.49Z" transform="translate(-14.09 -12.43)"/><path class="cls-1" d="M297.14,169.46V69.07c1.71-.09,3.29-.26,4.87-.26q30.72,0,61.44,0c6.4,0,14.41,8.14,14.41,14.6q0,36.18,0,72.35c0,5.09-8.11,14.06-13,14.07-21.8.06-43.6,0-65.41,0A18.39,18.39,0,0,1,297.14,169.46Zm30.6-80.34v60.3h19.51V89.12Z" transform="translate(-14.09 -12.43)"/><path class="cls-1" d="M135.25,129.51V169.9c-6.73,0-13.12.32-19.46-.12-3.7-.25-10.83-10.09-10.83-14q0-36.43,0-72.86c0-5.71,8.33-14,14-14q26.52,0,53,0c5.29,0,13.7,8.49,13.7,13.83q0,36.67,0,73.35c0,5.56-8.12,13.8-13.61,13.84-4.79,0-9.59,0-14.38,0-.48,0-1-.17-2.29-.4V163c0-9.75,0-19.5,0-29.24,0-2.26.12-4.34-3.18-4.26C146.88,129.61,141.45,129.51,135.25,129.51Zm10.27-41.93L133.11,99.82l12,12.61c4.28-4.19,8.46-8.29,12.75-12.51Z" transform="translate(-14.09 -12.43)"/><path class="cls-1" d="M479,118.83V83.18c0-6.31,7.84-14.36,14.06-14.37q26.25,0,52.49,0c6.13,0,14.12,8.11,14.12,14.32q0,36.39,0,72.79c0,5.67-8.33,13.92-14,13.93q-26,0-52,0C487,169.85,479,162,479,155.47c0-12.21,0-24.42,0-36.64Zm30.51-29.72v60.68c5.31,0,10.26-.26,15.16.08,4.08.28,5-1.37,4.92-5.13-.16-17-.06-34-.08-51,0-1.44-.18-2.88-.3-4.59Z" transform="translate(-14.09 -12.43)"/><path class="cls-1" d="M14.64,139.74H44v9.46H64.25V129.58c-1.49-.09-3.06-.25-4.63-.25-10.41,0-20.81,0-31.22,0-6.33,0-14.29-7.85-14.29-14.08,0-10.9,0-21.8,0-32.7,0-5.58,8.15-13.7,13.71-13.71q26.51,0,53,0c5.64,0,13.81,8,13.86,13.6,0,4.79,0,9.58,0,14.37a11.08,11.08,0,0,1-.38,1.84H64.94c-.18-3-.37-6-.61-9.76-6,0-11.93-.12-17.81.13-.81,0-2.14,1.9-2.19,3-.26,4.61,0,9.24-.17,13.86-.11,3,1.31,3.57,3.92,3.54,10.9-.09,21.8,0,32.7,0,6.14,0,13.9,7.74,13.92,13.91q.06,16.61,0,33.2c0,5.1-8.41,13.36-13.57,13.37q-26.76.06-53.51,0c-5.18,0-13.45-8.28-13.5-13.47-.05-5,0-9.91,0-14.86A9.06,9.06,0,0,1,14.64,139.74Z" transform="translate(-14.09 -12.43)"/><path class="cls-1" d="M581.75,119.29c-13-6.34-12.59-16.3-11.92-26.38a15.78,15.78,0,0,0,0-4.45C567.89,80,573,74.94,578.65,70.15a5.27,5.27,0,0,1,3-1.28c5.93-.12,11.86-.06,18.5-.06,0,6.85.7,13.48-.16,19.91-1.25,9.23,3.16,14.93,10.38,19.88,5.36-4.61,11.31-8.62,10.15-17.74-.88-7-.17-14.15-.17-22,6.64,0,13-.28,19.35.11,3.58.23,11,10.18,11,13.91,0,6.44-.34,12.91.11,19.32.36,5.09-1,9-5.08,12l-5.58,4.08,1.06,1.07c.11.29.13.73.34.87,9,6,10.34,14.84,9.19,24.65a24.28,24.28,0,0,0,0,6.43c.93,6.12-1.29,10.57-5.92,14.64-3.05,2.67-5.79,4.37-10,4.06-4.58-.35-9.2-.08-14.51-.08,0-7.06-.77-13.88.18-20.45,1.35-9.22-3.65-14.41-10.32-19.55-5.35,4.74-11.42,8.66-10.23,17.84.91,7,.18,14.16.18,22.1-6.57,0-12.95.33-19.27-.12-3.8-.27-11.07-10.35-11.07-14.33,0-6.44.31-12.9-.1-19.32-.31-4.71.9-8.35,4.68-11.14C576.4,123.42,578.35,121.89,581.75,119.29Z" transform="translate(-14.09 -12.43)"/><path class="cls-1" d="M670.22,101.31l17.78,18-18.25,18-17.73-18Z" transform="translate(-14.09 -12.43)"/><path class="cls-1" d="M126.44,194.18l17.68-17.89,18.08,18.34c-5.8,5.7-12,11.78-17.87,17.57Z" transform="translate(-14.09 -12.43)"/><path class="cls-1" d="M338.93,35.32c6.17-.74,7.24.11,7.3,5.59,0,4.28,0,8.56,0,12.85,0,5.6-.94,6.35-7.31,5.75-.17-3-.34-6-.53-9.33h-7.08c-.14,3.2-.27,6.11-.4,9-5.74,1.34-7.24.3-7.3-5-.05-4.45,0-8.9,0-13.34,0-5.26,1-6,7.09-5.54.22,2.93.46,6,.71,9.32h6.93C338.54,41.62,338.74,38.44,338.93,35.32Z" transform="translate(-14.09 -12.43)"/><path class="cls-1" d="M367.92,44.92v4.8h-9.46c-.14,1.87-.25,3.25-.4,5l9.72.45c.17.58.3.77.26.9-1.38,3.89-5.35,5-13.59,3.79-3.79-.53-4-3.14-4-6.15q.12-6.91,0-13.83c-.06-3.55,1.65-5.11,5.11-5,2.8.05,5.68-.38,8.37.17,1.71.35,3.13,2.09,4.68,3.2l-.79,1.55H358.4v5.13Z" transform="translate(-14.09 -12.43)"/><path class="cls-1" d="M304.11,40.1l-7-.52-.8-1.34c1.38-1.11,2.88-3.29,4.13-3.16,6.32.71,13.54-2.92,19,2.56,0,.56-.05,1.12-.08,1.68l-7.64.89c0,4.63.34,9.39-.16,14.07-.21,1.95-2,5.08-3.42,5.3-3.35.51-4-2.4-4-5.34C304.17,49.64,304.11,45.05,304.11,40.1Z" transform="translate(-14.09 -12.43)"/><path class="cls-1" d="M352.69,12.43h13.25V25.88H352.69Z" transform="translate(-14.09 -12.43)"/></svg>