<svg id="Layer_1" data-name="Layer 1" xmlns="http://www.w3.org/2000/svg" viewBox="0 0 676.02 107.1"><defs><style>.cls-1{fill:#39a1ff;}</style></defs><title>star-atlas</title><path class="cls-1" d="M282.83,68.93c5.86,8.76,11.71,17.4,17.44,26.13a21,21,0,0,1,1.62,4.34c-1.5.43-3,1.21-4.5,1.26-13.83.47-13.83.44-21.59-10.78-2.79-4-6.12-7.78-8.24-12.13-3.69-7.6-9.58-8.15-17.19-6.43,0,8-.2,16.12.09,24.22.14,4.14-1.34,5.28-5.34,5.25-12.62-.08-12.62.07-12.62-12.57,0-22,.14-44.08-.11-66.12,0-4.82,1.05-6.63,6.19-6.44,10.43.39,20.89.08,31.34.13,13.95.07,24.48,7.67,27.94,20.09s-1.64,24.35-13.42,31.76C283.91,68,283.44,68.44,282.83,68.93ZM250.73,34V52.71c7.51,0,14.67.19,21.82-.06a9.23,9.23,0,0,0,8.85-9.33,9.07,9.07,0,0,0-8.85-9.24C265.4,33.85,258.24,34,250.73,34Z" transform="translate(-13.98 -15.65)"/><path class="cls-1" d="M84.64,16.54c-2.4,5.57-4.35,10.72-6.91,15.53-.63,1.18-3.3,1.76-5,1.79-9.79.17-19.58,0-29.37.09-6,0-9.41,2.81-9.49,7.49s3.41,7.65,9.27,7.74c5.22.08,10.44,0,15.66,0,15.92.24,27.11,11.09,27,26.08-.13,14.6-11.59,25.34-27.18,25.4q-19.33.08-38.67,0c-1.69,0-3.39-.29-5.9-.53,2.31-5.69,4.07-10.73,6.47-15.45.61-1.2,3.23-1.92,4.95-1.94,10.93-.18,21.87.12,32.79-.24,2.8-.09,6.29-1.27,8.09-3.22,1.42-1.54,1.71-5.48.74-7.52a9,9,0,0,0-6.35-4.22c-6.48-.58-13,0-19.56-.3C28.65,66.8,18.9,58.27,16.49,46a25.4,25.4,0,0,1,14.6-27.7A28.9,28.9,0,0,1,41.94,15.9c12.72-.28,25.45-.13,38.18-.09A34.21,34.21,0,0,1,84.64,16.54Z" transform="translate(-13.98 -15.65)"/><path class="cls-1" d="M617.26,83.1c2.74-.18,4.64-.4,6.54-.41,12.4,0,24.81,0,37.22,0a29.23,29.23,0,0,0,4.87-.29c4.17-.74,6.16-3.57,6.31-7.57a7.16,7.16,0,0,0-7-7.35c-6-.25-12.08-.07-18.12-.14-15.44-.16-26.76-11.16-26.71-25.9.06-14.5,11.22-25.41,26.49-25.61,11.92-.15,23.84-.05,35.75,0,1.56,0,3.11.31,5.62.58-2.51,5.74-4.47,10.87-7.07,15.67-.64,1.2-3.31,1.78-5.07,1.81-9.63.17-19.26,0-28.9.1-5.86,0-8.89,2.58-9,7.34-.14,5,3,7.78,9,7.88,5.55.09,11.1-.09,16.65.06,15.14.42,26.45,11.69,26.21,26s-11.65,25.35-26.78,25.45c-11.59.08-23.18-.06-34.77.07-2.84,0-4.62-.81-5.63-3.53C621.14,92.71,619.3,88.25,617.26,83.1Z" transform="translate(-13.98 -15.65)"/><path class="cls-1" d="M416.53,100.57c-6.48,0-11.94.23-17.35-.18C398,100.3,396.72,98,396,96.51,389.83,82.69,383.75,68.82,377.62,55c-.65-1.48-1.34-3-2.38-5.24-1.1,2.38-1.93,4.13-2.72,5.91C366.73,68.74,360.73,81.77,355.26,95c-1.87,4.55-4.36,6.27-9.14,5.78-3.75-.39-7.57-.08-12.2-.08,1.24-3.2,1.87-5,2.64-6.77q15.66-36.09,31.33-72.16c1.41-3.26,2.65-5.82,7.2-5.81s5.9,2.17,7.36,5.57Q398.11,57.89,414,94.16C414.65,95.79,415.28,97.45,416.53,100.57Z" transform="translate(-13.98 -15.65)"/><path class="cls-1" d="M186.42,49.5c-7.16,16.23-13.91,31.21-20.34,46.34-1.59,3.74-3.63,5.31-7.71,4.94s-8-.07-12.88-.07c.86-2.68,1.25-4.36,1.92-5.91,10.7-24.64,21.48-49.25,32.09-73.93,1.39-3.23,3-4.78,6.8-4.85,4-.07,5.72,1.64,7.18,5C204.09,45.74,214.86,70.35,225.56,95c2.24,5.16,1.86,5.81-4,5.68-15.55-.33-11.11,2.75-17.52-11.34C198.22,76.49,192.62,63.53,186.42,49.5Z" transform="translate(-13.98 -15.65)"/><path class="cls-1" d="M534.84,100.46c.95-2.52,1.43-4,2-5.45,10.69-24.66,21.44-49.29,32-74,1.46-3.39,3.22-5.08,7.23-5,3.8.06,5.4,1.71,6.78,4.91,10.68,24.83,21.51,49.61,32.28,74.41.56,1.3,1,2.68,1.83,5.16-6.26,0-11.86.23-17.4-.19-1.12-.08-2.31-2.52-3-4.07-6.11-13.68-12.12-27.41-18.17-41.12-.72-1.63-1.5-3.23-2.54-5.47L560.1,85.41c-.93,2.08-1.74,4.22-2.79,6.24-1.54,3-2.77,7.9-5,8.41C547,101.3,541.25,100.46,534.84,100.46Z" transform="translate(-13.98 -15.65)"/><path class="cls-1" d="M429.67,33.94c-6.69,0-13-.15-19.32.06-3.58.11-4.85-1.11-4.92-4.76-.24-13.46-.36-13.46,12.81-13.46,16.32,0,32.65.1,49-.07,4,0,5.4,1.22,5.39,5.33,0,12.9.11,12.9-12.93,12.9H448.3c-.09,1.93-.23,3.65-.23,5.36,0,18.61-.11,37.22.06,55.82,0,4.18-1.1,5.74-5.51,5.69-12.69-.15-12.69,0-12.69-12.62q0-24.24,0-48.47C429.92,38,429.77,36.22,429.67,33.94Z" transform="translate(-13.98 -15.65)"/><path class="cls-1" d="M84.77,33.61c.13-1.55.11-1.72.16-1.86,5.86-16,5.86-16,22.77-16,13.7,0,27.4.14,41.1-.08,4.28-.08,5.62,1.27,5.55,5.58-.18,12.66,0,12.66-12.58,12.66h-12v5.41c0,18.59-.11,37.19.09,55.78,0,4.16-1,5.73-5.43,5.68-12.55-.15-12.56,0-12.56-12.64V33.61Z" transform="translate(-13.98 -15.65)"/><path class="cls-1" d="M497,82.67h38.52c-2.88,6.39-5.15,11.8-7.81,17-.42.82-2.65,1-4,1-13.38.07-26.77-.06-40.15.11-3.75,0-4.74-1.47-4.73-4.94q.14-37.7,0-75.39c0-3.74,1.49-4.93,5-4.71a56.22,56.22,0,0,0,8.31,0c4-.33,5,1.49,5,5.19-.13,18.61-.06,37.21-.06,55.81Z" transform="translate(-13.98 -15.65)"/><path class="cls-1" d="M388.51,95.24c-4.39,9.1-8.61,17.84-13.26,27.5-4.74-9.47-9.09-18.18-13.75-27.5Z" transform="translate(-13.98 -15.65)"/></svg>