<svg id="Layer_1" data-name="Layer 1" xmlns="http://www.w3.org/2000/svg" xmlns:xlink="http://www.w3.org/1999/xlink" viewBox="0 0 810.68 385.44"><defs><style>.cls-1,.cls-2{fill:none;}.cls-2{stroke:#150035;stroke-miterlimit:10;}.cls-3{clip-path:url(#clip-path);}.cls-4{fill:#150035;}</style><clipPath id="clip-path" transform="translate(108.45 152.92)"><path class="cls-1" d="M483.06,76.26H18.76a7.09,7.09,0,0,1-7.09-7.08V12.37a7,7,0,0,1,.27-1.9,7.08,7.08,0,0,0-5.16,6.81V74.09a7.09,7.09,0,0,0,7.09,7.09h464.3A7.08,7.08,0,0,0,485,76,6.82,6.82,0,0,1,483.06,76.26Z"/></clipPath></defs><title>stats-bg</title><rect class="cls-2" x="119.98" y="158.58" width="478.47" height="70.98" rx="7.09"/><g class="cls-3"><rect class="cls-4" x="-108.14" y="-2.45" width="241.45" height="0.45" transform="translate(111.25 158.91) rotate(-29.97)"/><rect class="cls-4" x="-106.91" y="-1.8" width="241.45" height="0.45" transform="translate(111.08 159.61) rotate(-29.95)"/><rect class="cls-4" x="-105.8" y="-1.11" width="241.45" height="0.45" transform="translate(110.89 160.26) rotate(-29.97)"/><rect class="cls-4" x="-104.56" y="-0.47" width="241.45" height="0.45" transform="translate(110.73 160.97) rotate(-29.97)"/><rect class="cls-4" x="-103.53" y="0.25" width="241.45" height="0.45" transform="translate(110.51 161.58) rotate(-29.96)"/><rect class="cls-4" x="-102.3" y="0.9" width="241.45" height="0.45" transform="translate(110.35 162.28) rotate(-29.97)"/><rect class="cls-4" x="-101.19" y="1.6" width="241.45" height="0.45" transform="translate(110.15 162.93) rotate(-29.97)"/><rect class="cls-4" x="-99.94" y="2.24" width="241.45" height="0.45" transform="translate(110 163.63) rotate(-29.97)"/><rect class="cls-4" x="-98.83" y="2.93" width="241.45" height="0.45" transform="translate(109.8 164.28) rotate(-29.97)"/><rect class="cls-4" x="-97.59" y="3.58" width="241.45" height="0.45" transform="translate(109.64 164.99) rotate(-29.97)"/><rect class="cls-4" x="-96.48" y="4.28" width="241.45" height="0.45" transform="translate(109.44 165.63) rotate(-29.96)"/><rect class="cls-4" x="-95.23" y="4.92" width="241.45" height="0.45" transform="translate(109.29 166.34) rotate(-29.96)"/><rect class="cls-4" x="-94.2" y="5.63" width="241.45" height="0.45" transform="translate(109.07 166.95) rotate(-29.96)"/><rect class="cls-4" x="-92.98" y="6.28" width="241.45" height="0.45" transform="translate(108.91 167.65) rotate(-29.96)"/><rect class="cls-4" x="-91.87" y="6.98" width="241.45" height="0.45" transform="translate(108.71 168.31) rotate(-29.98)"/><rect class="cls-4" x="-90.62" y="7.62" width="241.45" height="0.45" transform="translate(108.56 169.01) rotate(-29.97)"/><rect class="cls-4" x="-89.51" y="8.31" width="241.45" height="0.45" transform="translate(108.36 169.66) rotate(-29.96)"/><rect class="cls-4" x="-124.49" y="-11.84" width="241.45" height="0.45" transform="translate(113.75 149.49) rotate(-29.97)"/><rect class="cls-4" x="-123.25" y="-11.2" width="241.45" height="0.45" transform="translate(113.6 150.2) rotate(-29.97)"/><rect class="cls-4" x="-122.22" y="-10.48" width="241.45" height="0.45" transform="translate(113.38 150.81) rotate(-29.97)"/><rect class="cls-4" x="-120.99" y="-9.83" width="241.45" height="0.45" transform="translate(113.21 151.51) rotate(-29.97)"/><rect class="cls-4" x="-119.88" y="-9.13" width="241.45" height="0.45" transform="translate(113.01 152.15) rotate(-29.97)"/><rect class="cls-4" x="-118.64" y="-8.5" width="241.45" height="0.45" transform="translate(112.86 152.86) rotate(-29.97)"/><rect class="cls-4" x="-117.53" y="-7.8" width="241.45" height="0.45" transform="translate(112.66 153.51) rotate(-29.98)"/><rect class="cls-4" x="-116.28" y="-7.15" width="241.45" height="0.45" transform="translate(112.51 154.22) rotate(-29.98)"/><rect class="cls-4" x="-115.17" y="-6.45" width="241.45" height="0.45" transform="translate(112.3 154.87) rotate(-29.96)"/><rect class="cls-4" x="-113.92" y="-5.82" width="241.45" height="0.45" transform="translate(112.15 155.57) rotate(-29.97)"/><rect class="cls-4" x="-112.89" y="-5.1" width="241.45" height="0.45" transform="translate(111.93 156.18) rotate(-29.97)"/><rect class="cls-4" x="-111.67" y="-4.45" width="241.45" height="0.45" transform="translate(111.77 156.88) rotate(-29.96)"/><rect class="cls-4" x="-110.56" y="-3.75" width="241.45" height="0.45" transform="translate(111.57 157.53) rotate(-29.97)"/><rect class="cls-4" x="-109.31" y="-3.11" width="241.45" height="0.45" transform="translate(111.42 158.24) rotate(-29.97)"/><rect class="cls-4" x="-108.2" y="-2.42" width="241.45" height="0.45" transform="translate(111.22 158.89) rotate(-29.97)"/><rect class="cls-4" x="-73.18" y="17.72" width="241.45" height="0.45" transform="translate(105.85 179.08) rotate(-29.98)"/><rect class="cls-4" x="-71.96" y="18.37" width="241.45" height="0.45" transform="translate(105.68 179.77) rotate(-29.97)"/><rect class="cls-4" x="-70.85" y="19.07" width="241.45" height="0.45" transform="translate(105.48 180.42) rotate(-29.97)"/><rect class="cls-4" x="-69.6" y="19.71" width="241.45" height="0.45" transform="translate(105.33 181.12) rotate(-29.96)"/><rect class="cls-4" x="-68.57" y="20.42" width="241.45" height="0.45" transform="translate(105.11 181.74) rotate(-29.97)"/><rect class="cls-4" x="-67.35" y="21.08" width="241.45" height="0.45" transform="translate(104.95 182.42) rotate(-29.96)"/><rect class="cls-4" x="-66.24" y="21.77" width="241.45" height="0.45" transform="translate(104.75 183.08) rotate(-29.97)"/><rect class="cls-4" x="-64.99" y="22.41" width="241.45" height="0.45" transform="translate(104.6 183.79) rotate(-29.97)"/><rect class="cls-4" x="-63.88" y="23.1" width="241.45" height="0.45" transform="translate(104.4 184.44) rotate(-29.97)"/><rect class="cls-4" x="-62.64" y="23.75" width="241.45" height="0.45" transform="translate(104.24 185.15) rotate(-29.97)"/><rect class="cls-4" x="-61.53" y="24.45" width="241.45" height="0.45" transform="translate(104.04 185.78) rotate(-29.96)"/><rect class="cls-4" x="-60.28" y="25.09" width="241.45" height="0.45" transform="translate(103.89 186.5) rotate(-29.96)"/><rect class="cls-4" x="-59.25" y="25.81" width="241.45" height="0.45" transform="translate(103.67 187.1) rotate(-29.96)"/><rect class="cls-4" x="-58.03" y="26.46" width="241.45" height="0.45" transform="translate(103.51 187.81) rotate(-29.97)"/><rect class="cls-4" x="-56.92" y="27.15" width="241.45" height="0.45" transform="translate(103.31 188.47) rotate(-29.98)"/><rect class="cls-4" x="-55.67" y="27.79" width="241.45" height="0.45" transform="translate(103.15 189.15) rotate(-29.96)"/><rect class="cls-4" x="-54.56" y="28.49" width="241.45" height="0.45" transform="translate(102.96 189.82) rotate(-29.97)"/><rect class="cls-4" x="-88.29" y="8.98" width="241.45" height="0.45" transform="translate(108.19 170.35) rotate(-29.96)"/><rect class="cls-4" x="-87.26" y="9.69" width="241.45" height="0.45" transform="translate(107.97 170.96) rotate(-29.96)"/><rect class="cls-4" x="-86.04" y="10.34" width="241.45" height="0.45" transform="translate(107.81 171.66) rotate(-29.97)"/><rect class="cls-4" x="-84.93" y="11.04" width="241.45" height="0.45" transform="translate(107.61 172.31) rotate(-29.96)"/><rect class="cls-4" x="-83.68" y="11.68" width="241.45" height="0.45" transform="translate(107.46 173.02) rotate(-29.97)"/><rect class="cls-4" x="-82.57" y="12.37" width="241.45" height="0.45" transform="translate(107.26 173.67) rotate(-29.97)"/><rect class="cls-4" x="-81.33" y="13.02" width="241.45" height="0.45" transform="translate(107.1 174.38) rotate(-29.97)"/><rect class="cls-4" x="-80.22" y="13.72" width="241.45" height="0.45" transform="translate(106.9 175.02) rotate(-29.97)"/><rect class="cls-4" x="-78.97" y="14.36" width="241.45" height="0.45" transform="translate(106.75 175.73) rotate(-29.97)"/><rect class="cls-4" x="-77.94" y="15.08" width="241.45" height="0.45" transform="translate(106.53 176.34) rotate(-29.97)"/><rect class="cls-4" x="-76.72" y="15.73" width="241.45" height="0.45" transform="translate(106.37 177.04) rotate(-29.96)"/><rect class="cls-4" x="-75.61" y="16.42" width="241.45" height="0.45" transform="translate(106.17 177.69) rotate(-29.97)"/><rect class="cls-4" x="-74.36" y="17.06" width="241.45" height="0.45" transform="translate(106.01 178.39) rotate(-29.96)"/><rect class="cls-4" x="-73.25" y="17.76" width="241.45" height="0.45" transform="translate(105.82 179.04) rotate(-29.97)"/><rect class="cls-4" x="-3.24" y="57.93" width="241.45" height="0.45" transform="translate(95.11 219.36) rotate(-29.96)"/><rect class="cls-4" x="-2.02" y="58.58" width="241.45" height="0.45" transform="translate(94.95 220.09) rotate(-29.97)"/><rect class="cls-4" x="-0.9" y="59.28" width="241.45" height="0.45" transform="translate(94.75 220.73) rotate(-29.97)"/><rect class="cls-4" x="0.34" y="59.92" width="241.45" height="0.45" transform="translate(94.59 221.42) rotate(-29.96)"/><rect class="cls-4" x="1.37" y="60.63" width="241.45" height="0.45" transform="translate(94.38 222.05) rotate(-29.97)"/><rect class="cls-4" x="2.6" y="61.29" width="241.45" height="0.45" transform="translate(94.21 222.73) rotate(-29.96)"/><rect class="cls-4" x="3.71" y="61.98" width="241.45" height="0.45" transform="translate(94.01 223.4) rotate(-29.97)"/><rect class="cls-4" x="4.95" y="62.62" width="241.45" height="0.45" transform="translate(93.86 224.11) rotate(-29.97)"/><rect class="cls-4" x="6.06" y="63.31" width="241.45" height="0.45" transform="translate(93.66 224.76) rotate(-29.97)"/><rect class="cls-4" x="7.31" y="63.96" width="241.45" height="0.45" transform="translate(93.5 225.44) rotate(-29.96)"/><rect class="cls-4" x="8.42" y="64.66" width="241.45" height="0.45" transform="translate(93.3 226.08) rotate(-29.96)"/><rect class="cls-4" x="9.67" y="65.3" width="241.45" height="0.45" transform="translate(93.15 226.82) rotate(-29.97)"/><rect class="cls-4" x="10.7" y="66.02" width="241.45" height="0.45" transform="translate(92.93 227.4) rotate(-29.96)"/><rect class="cls-4" x="11.92" y="66.67" width="241.45" height="0.45" transform="translate(92.77 228.13) rotate(-29.97)"/><rect class="cls-4" x="13.03" y="67.36" width="241.45" height="0.45" transform="translate(92.57 228.81) rotate(-29.98)"/><rect class="cls-4" x="14.28" y="68" width="241.45" height="0.45" transform="translate(92.42 229.46) rotate(-29.96)"/><rect class="cls-4" x="15.39" y="68.7" width="241.45" height="0.45" transform="translate(92.22 230.1) rotate(-29.96)"/><rect class="cls-4" x="-19.6" y="48.55" width="241.45" height="0.45" transform="translate(97.61 209.98) rotate(-29.98)"/><rect class="cls-4" x="-18.35" y="49.19" width="241.45" height="0.45" transform="translate(97.46 210.65) rotate(-29.96)"/><rect class="cls-4" x="-17.32" y="49.9" width="241.45" height="0.45" transform="translate(97.24 211.28) rotate(-29.97)"/><rect class="cls-4" x="-16.1" y="50.55" width="241.45" height="0.45" transform="translate(97.07 211.96) rotate(-29.96)"/><rect class="cls-4" x="-14.99" y="51.25" width="241.45" height="0.45" transform="translate(96.88 212.63) rotate(-29.97)"/><rect class="cls-4" x="-13.74" y="51.89" width="241.45" height="0.45" transform="translate(96.72 213.34) rotate(-29.97)"/><rect class="cls-4" x="-12.63" y="52.58" width="241.45" height="0.45" transform="translate(96.52 213.97) rotate(-29.96)"/><rect class="cls-4" x="-11.38" y="53.23" width="241.45" height="0.45" transform="translate(96.37 214.69) rotate(-29.97)"/><rect class="cls-4" x="-10.27" y="53.93" width="241.45" height="0.45" transform="translate(96.17 215.34) rotate(-29.97)"/><rect class="cls-4" x="-9.03" y="54.57" width="241.45" height="0.45" transform="translate(96.01 216.05) rotate(-29.97)"/><rect class="cls-4" x="-8" y="55.29" width="241.45" height="0.45" transform="translate(95.8 216.68) rotate(-29.98)"/><rect class="cls-4" x="-6.77" y="55.94" width="241.45" height="0.45" transform="translate(95.63 217.32) rotate(-29.95)"/><rect class="cls-4" x="-5.66" y="56.63" width="241.45" height="0.45" transform="translate(95.43 217.99) rotate(-29.96)"/><rect class="cls-4" x="-4.41" y="57.27" width="241.45" height="0.45" transform="translate(95.28 218.71) rotate(-29.97)"/><rect class="cls-4" x="-3.3" y="57.97" width="241.45" height="0.45" transform="translate(95.08 219.36) rotate(-29.97)"/><rect class="cls-4" x="31.71" y="78.1" width="241.45" height="0.45" transform="translate(89.71 239.55) rotate(-29.97)"/><rect class="cls-4" x="32.94" y="78.76" width="241.45" height="0.45" transform="translate(89.54 240.24) rotate(-29.97)"/><rect class="cls-4" x="34.05" y="79.45" width="241.45" height="0.45" transform="translate(89.34 240.87) rotate(-29.96)"/><rect class="cls-4" x="35.3" y="80.09" width="241.45" height="0.45" transform="translate(89.19 241.6) rotate(-29.97)"/><rect class="cls-4" x="36.32" y="80.81" width="241.45" height="0.45" transform="translate(88.97 242.21) rotate(-29.97)"/><rect class="cls-4" x="37.55" y="81.46" width="241.45" height="0.45" transform="translate(88.81 242.89) rotate(-29.96)"/><rect class="cls-4" x="38.66" y="82.15" width="241.45" height="0.45" transform="translate(88.61 243.59) rotate(-29.98)"/><rect class="cls-4" x="39.91" y="82.79" width="241.45" height="0.45" transform="translate(88.46 244.27) rotate(-29.97)"/><rect class="cls-4" x="41.02" y="83.49" width="241.45" height="0.45" transform="translate(88.26 244.88) rotate(-29.96)"/><rect class="cls-4" x="42.26" y="84.14" width="241.45" height="0.45" transform="translate(88.1 245.59) rotate(-29.96)"/><rect class="cls-4" x="43.37" y="84.83" width="241.45" height="0.45" transform="translate(87.9 246.27) rotate(-29.97)"/><rect class="cls-4" x="44.62" y="85.47" width="241.45" height="0.45" transform="translate(87.75 246.98) rotate(-29.97)"/><rect class="cls-4" x="45.65" y="86.19" width="241.45" height="0.45" transform="translate(87.53 247.59) rotate(-29.97)"/><rect class="cls-4" x="46.87" y="86.84" width="241.45" height="0.45" transform="translate(87.37 248.27) rotate(-29.96)"/><rect class="cls-4" x="47.98" y="87.54" width="241.45" height="0.45" transform="translate(87.17 248.91) rotate(-29.96)"/><rect class="cls-4" x="49.23" y="88.18" width="241.45" height="0.45" transform="translate(87.02 249.64) rotate(-29.97)"/><rect class="cls-4" x="50.34" y="88.87" width="241.45" height="0.45" transform="translate(86.82 250.25) rotate(-29.96)"/><rect class="cls-4" x="16.6" y="69.36" width="241.45" height="0.45" transform="translate(92.05 230.78) rotate(-29.95)"/><rect class="cls-4" x="17.63" y="70.08" width="241.45" height="0.45" transform="translate(91.83 231.47) rotate(-29.98)"/><rect class="cls-4" x="18.86" y="70.73" width="241.45" height="0.45" transform="translate(91.67 232.14) rotate(-29.97)"/><rect class="cls-4" x="19.97" y="71.42" width="241.45" height="0.45" transform="translate(91.47 232.75) rotate(-29.96)"/><rect class="cls-4" x="21.22" y="72.06" width="241.45" height="0.45" transform="translate(91.32 233.52) rotate(-29.98)"/><rect class="cls-4" x="22.33" y="72.76" width="241.45" height="0.45" transform="translate(91.12 234.14) rotate(-29.97)"/><rect class="cls-4" x="23.57" y="73.41" width="241.45" height="0.45" transform="translate(90.96 234.85) rotate(-29.97)"/><rect class="cls-4" x="24.68" y="74.1" width="241.45" height="0.45" transform="translate(90.76 235.5) rotate(-29.97)"/><rect class="cls-4" x="25.93" y="74.74" width="241.45" height="0.45" transform="translate(90.61 236.21) rotate(-29.97)"/><rect class="cls-4" x="26.96" y="75.46" width="241.45" height="0.45" transform="translate(90.39 236.8) rotate(-29.96)"/><rect class="cls-4" x="28.18" y="76.11" width="241.45" height="0.45" transform="translate(90.23 237.51) rotate(-29.97)"/><rect class="cls-4" x="29.29" y="76.81" width="241.45" height="0.45" transform="translate(90.03 238.16) rotate(-29.97)"/><rect class="cls-4" x="30.54" y="77.45" width="241.45" height="0.45" transform="translate(89.88 238.85) rotate(-29.96)"/><rect class="cls-4" x="31.65" y="78.14" width="241.45" height="0.45" transform="translate(89.68 239.49) rotate(-29.96)"/><rect class="cls-4" x="52" y="89.15" width="241.45" height="0.45" transform="translate(86.9 251.13) rotate(-29.96)"/><rect class="cls-4" x="69.18" y="99.4" width="241.45" height="0.45" transform="translate(84.08 261.11) rotate(-29.97)"/><rect class="cls-4" x="70.4" y="100.05" width="241.45" height="0.45" transform="translate(83.91 261.81) rotate(-29.97)"/><rect class="cls-4" x="71.51" y="100.75" width="241.45" height="0.45" transform="translate(83.72 262.45) rotate(-29.97)"/><rect class="cls-4" x="72.76" y="101.38" width="241.45" height="0.45" transform="translate(83.56 263.16) rotate(-29.97)"/><rect class="cls-4" x="73.79" y="102.1" width="241.45" height="0.45" transform="translate(83.34 263.73) rotate(-29.96)"/><rect class="cls-4" x="75.01" y="102.75" width="241.45" height="0.45" transform="translate(83.18 264.47) rotate(-29.97)"/><rect class="cls-4" x="76.12" y="103.45" width="241.45" height="0.45" transform="translate(82.98 265.12) rotate(-29.97)"/><rect class="cls-4" x="77.37" y="104.09" width="241.45" height="0.45" transform="translate(82.83 265.8) rotate(-29.96)"/><rect class="cls-4" x="78.48" y="104.78" width="241.45" height="0.45" transform="translate(82.63 266.47) rotate(-29.97)"/><rect class="cls-4" x="79.72" y="105.43" width="241.45" height="0.45" transform="translate(82.47 267.18) rotate(-29.97)"/><rect class="cls-4" x="80.83" y="106.13" width="241.45" height="0.45" transform="translate(82.27 267.83) rotate(-29.97)"/><rect class="cls-4" x="82.08" y="106.77" width="241.45" height="0.45" transform="translate(82.12 268.49) rotate(-29.96)"/><rect class="cls-4" x="83.11" y="107.48" width="241.45" height="0.45" transform="translate(81.9 269.15) rotate(-29.97)"/><rect class="cls-4" x="84.33" y="108.14" width="241.45" height="0.45" transform="translate(81.74 269.8) rotate(-29.96)"/><rect class="cls-4" x="85.45" y="108.83" width="241.45" height="0.45" transform="translate(81.54 270.5) rotate(-29.97)"/><rect class="cls-4" x="86.69" y="109.47" width="241.45" height="0.45" transform="translate(81.39 271.2) rotate(-29.97)"/><rect class="cls-4" x="87.8" y="110.17" width="241.45" height="0.45" transform="translate(81.19 271.85) rotate(-29.97)"/><rect class="cls-4" x="52.82" y="90.02" width="241.45" height="0.45" transform="translate(86.58 251.68) rotate(-29.97)"/><rect class="cls-4" x="54.07" y="90.65" width="241.45" height="0.45" transform="translate(86.42 252.39) rotate(-29.97)"/><rect class="cls-4" x="55.1" y="91.37" width="241.45" height="0.45" transform="translate(86.2 252.94) rotate(-29.95)"/><rect class="cls-4" x="56.32" y="92.02" width="241.45" height="0.45" transform="translate(86.04 253.7) rotate(-29.97)"/><rect class="cls-4" x="57.43" y="92.72" width="241.45" height="0.45" transform="translate(85.84 254.38) rotate(-29.98)"/><rect class="cls-4" x="58.68" y="93.36" width="241.45" height="0.45" transform="translate(85.69 255.03) rotate(-29.96)"/><rect class="cls-4" x="59.79" y="94.05" width="241.45" height="0.45" transform="translate(85.49 255.64) rotate(-29.95)"/><rect class="cls-4" x="61.03" y="94.7" width="241.45" height="0.45" transform="translate(85.33 256.37) rotate(-29.96)"/><rect class="cls-4" x="62.14" y="95.4" width="241.45" height="0.45" transform="translate(85.13 257.06) rotate(-29.97)"/><rect class="cls-4" x="63.39" y="96.04" width="241.45" height="0.45" transform="translate(84.98 257.77) rotate(-29.97)"/><rect class="cls-4" x="64.42" y="96.75" width="241.45" height="0.45" transform="translate(84.76 258.38) rotate(-29.97)"/><rect class="cls-4" x="65.64" y="97.41" width="241.45" height="0.45" transform="translate(84.6 259.05) rotate(-29.96)"/><rect class="cls-4" x="66.75" y="98.1" width="241.45" height="0.45" transform="translate(84.4 259.7) rotate(-29.96)"/><rect class="cls-4" x="68" y="98.74" width="241.45" height="0.45" transform="translate(84.25 260.43) rotate(-29.97)"/><rect class="cls-4" x="69.11" y="99.44" width="241.45" height="0.45" transform="translate(84.05 261.06) rotate(-29.96)"/><rect class="cls-4" x="104.13" y="119.57" width="241.45" height="0.45" transform="translate(78.67 281.24) rotate(-29.96)"/><rect class="cls-4" x="105.35" y="120.22" width="241.45" height="0.45" transform="translate(78.51 281.91) rotate(-29.96)"/><rect class="cls-4" x="106.46" y="120.92" width="241.45" height="0.45" transform="translate(78.31 282.58) rotate(-29.96)"/><rect class="cls-4" x="107.71" y="121.56" width="241.45" height="0.45" transform="translate(78.16 283.27) rotate(-29.96)"/><rect class="cls-4" x="108.74" y="122.27" width="241.45" height="0.45" transform="translate(77.94 283.93) rotate(-29.97)"/><rect class="cls-4" x="109.96" y="122.93" width="241.45" height="0.45" transform="translate(77.78 284.6) rotate(-29.96)"/><rect class="cls-4" x="111.07" y="123.62" width="241.45" height="0.45" transform="translate(77.58 285.28) rotate(-29.97)"/><rect class="cls-4" x="112.32" y="124.26" width="241.45" height="0.45" transform="translate(77.43 285.98) rotate(-29.97)"/><rect class="cls-4" x="113.43" y="124.96" width="241.45" height="0.45" transform="translate(77.23 286.63) rotate(-29.97)"/><rect class="cls-4" x="114.68" y="125.61" width="241.45" height="0.45" transform="translate(77.07 287.34) rotate(-29.97)"/><rect class="cls-4" x="115.79" y="126.3" width="241.45" height="0.45" transform="translate(76.87 287.99) rotate(-29.97)"/><rect class="cls-4" x="117.03" y="126.94" width="241.45" height="0.45" transform="translate(76.71 288.61) rotate(-29.95)"/><rect class="cls-4" x="118.06" y="127.66" width="241.45" height="0.45" transform="translate(76.5 289.36) rotate(-29.98)"/><rect class="cls-4" x="119.29" y="128.31" width="241.45" height="0.45" transform="translate(76.33 289.92) rotate(-29.95)"/><rect class="cls-4" x="120.4" y="129.01" width="241.45" height="0.45" transform="translate(76.13 290.57) rotate(-29.95)"/><rect class="cls-4" x="121.65" y="129.64" width="241.45" height="0.45" transform="translate(75.99 291.41) rotate(-29.98)"/><rect class="cls-4" x="122.76" y="130.34" width="241.45" height="0.45" transform="translate(75.78 292.01) rotate(-29.97)"/><rect class="cls-4" x="89.02" y="110.83" width="241.45" height="0.45" transform="translate(81.02 272.52) rotate(-29.96)"/><rect class="cls-4" x="90.05" y="111.54" width="241.45" height="0.45" transform="translate(80.8 273.16) rotate(-29.97)"/><rect class="cls-4" x="91.27" y="112.2" width="241.45" height="0.45" transform="translate(80.64 273.86) rotate(-29.97)"/><rect class="cls-4" x="92.38" y="112.89" width="241.45" height="0.45" transform="translate(80.44 274.5) rotate(-29.97)"/><rect class="cls-4" x="93.63" y="113.53" width="241.45" height="0.45" transform="translate(80.29 275.21) rotate(-29.97)"/><rect class="cls-4" x="94.74" y="114.23" width="241.45" height="0.45" transform="translate(80.09 275.81) rotate(-29.96)"/><rect class="cls-4" x="95.98" y="114.88" width="241.45" height="0.45" transform="translate(79.93 276.57) rotate(-29.97)"/><rect class="cls-4" x="97.09" y="115.57" width="241.45" height="0.45" transform="translate(79.73 277.22) rotate(-29.97)"/><rect class="cls-4" x="98.34" y="116.21" width="241.45" height="0.45" transform="translate(79.58 277.85) rotate(-29.95)"/><rect class="cls-4" x="99.37" y="116.93" width="241.45" height="0.45" transform="translate(79.36 278.53) rotate(-29.97)"/><rect class="cls-4" x="100.6" y="117.58" width="241.45" height="0.45" transform="translate(79.2 279.23) rotate(-29.97)"/><rect class="cls-4" x="101.71" y="118.28" width="241.45" height="0.45" transform="translate(78.99 279.83) rotate(-29.96)"/><rect class="cls-4" x="102.95" y="118.91" width="241.45" height="0.45" transform="translate(78.84 280.59) rotate(-29.97)"/><rect class="cls-4" x="104.06" y="119.61" width="241.45" height="0.45" transform="translate(78.65 281.24) rotate(-29.97)"/><rect class="cls-4" x="124.41" y="130.62" width="241.45" height="0.45" transform="translate(75.87 292.84) rotate(-29.96)"/><rect class="cls-4" x="142.06" y="140.55" width="241.45" height="0.45" transform="translate(73.27 302.98) rotate(-29.96)"/><rect class="cls-4" x="143.28" y="141.2" width="241.45" height="0.45" transform="translate(73.1 303.71) rotate(-29.97)"/><rect class="cls-4" x="144.39" y="141.89" width="241.45" height="0.45" transform="translate(72.91 304.36) rotate(-29.97)"/><rect class="cls-4" x="145.64" y="142.53" width="241.45" height="0.45" transform="translate(72.75 305.04) rotate(-29.96)"/><rect class="cls-4" x="146.67" y="143.25" width="241.45" height="0.45" transform="translate(72.53 305.62) rotate(-29.96)"/><rect class="cls-4" x="147.89" y="143.9" width="241.45" height="0.45" transform="translate(72.37 306.38) rotate(-29.97)"/><rect class="cls-4" x="149" y="144.6" width="241.45" height="0.45" transform="translate(72.17 307.03) rotate(-29.97)"/><rect class="cls-4" x="150.25" y="145.24" width="241.45" height="0.45" transform="translate(72.02 307.68) rotate(-29.96)"/><rect class="cls-4" x="151.36" y="145.93" width="241.45" height="0.45" transform="translate(71.82 308.32) rotate(-29.96)"/><rect class="cls-4" x="152.61" y="146.58" width="241.45" height="0.45" transform="translate(71.66 309.09) rotate(-29.97)"/><rect class="cls-4" x="153.72" y="147.28" width="241.45" height="0.45" transform="translate(71.46 309.74) rotate(-29.97)"/><rect class="cls-4" x="154.96" y="147.92" width="241.45" height="0.45" transform="translate(71.31 310.35) rotate(-29.95)"/><rect class="cls-4" x="155.99" y="148.63" width="241.45" height="0.45" transform="translate(71.09 311.06) rotate(-29.97)"/><rect class="cls-4" x="157.22" y="149.29" width="241.45" height="0.45" transform="translate(70.93 311.7) rotate(-29.96)"/><rect class="cls-4" x="158.33" y="149.98" width="241.45" height="0.45" transform="translate(70.73 312.4) rotate(-29.97)"/><rect class="cls-4" x="159.58" y="150.62" width="241.45" height="0.45" transform="translate(70.58 313.11) rotate(-29.97)"/><rect class="cls-4" x="160.69" y="151.32" width="241.45" height="0.45" transform="translate(70.38 313.76) rotate(-29.97)"/><rect class="cls-4" x="125.7" y="131.16" width="241.45" height="0.45" transform="translate(75.77 293.59) rotate(-29.97)"/><rect class="cls-4" x="126.95" y="131.8" width="241.45" height="0.45" transform="translate(75.61 294.3) rotate(-29.97)"/><rect class="cls-4" x="127.98" y="132.52" width="241.45" height="0.45" transform="translate(75.39 294.86) rotate(-29.96)"/><rect class="cls-4" x="129.2" y="133.17" width="241.45" height="0.45" transform="translate(75.23 295.61) rotate(-29.97)"/><rect class="cls-4" x="130.31" y="133.87" width="241.45" height="0.45" transform="translate(75.03 296.31) rotate(-29.98)"/><rect class="cls-4" x="131.56" y="134.51" width="241.45" height="0.45" transform="translate(74.88 296.96) rotate(-29.97)"/><rect class="cls-4" x="132.67" y="135.2" width="241.45" height="0.45" transform="translate(74.68 297.52) rotate(-29.95)"/><rect class="cls-4" x="133.91" y="135.85" width="241.45" height="0.45" transform="translate(74.52 298.26) rotate(-29.96)"/><rect class="cls-4" x="135.02" y="136.55" width="241.45" height="0.45" transform="translate(74.32 298.97) rotate(-29.97)"/><rect class="cls-4" x="136.27" y="137.19" width="241.45" height="0.45" transform="translate(74.17 299.68) rotate(-29.97)"/><rect class="cls-4" x="137.3" y="137.9" width="241.45" height="0.45" transform="translate(73.95 300.29) rotate(-29.97)"/><rect class="cls-4" x="138.53" y="138.56" width="241.45" height="0.45" transform="translate(73.79 300.99) rotate(-29.97)"/><rect class="cls-4" x="139.64" y="139.25" width="241.45" height="0.45" transform="translate(73.59 301.63) rotate(-29.97)"/><rect class="cls-4" x="140.88" y="139.89" width="241.45" height="0.45" transform="translate(73.44 302.34) rotate(-29.97)"/><rect class="cls-4" x="141.99" y="140.58" width="241.45" height="0.45" transform="translate(73.24 302.99) rotate(-29.97)"/><rect class="cls-4" x="177.01" y="160.72" width="241.45" height="0.45" transform="translate(67.86 323.17) rotate(-29.97)"/><rect class="cls-4" x="178.24" y="161.37" width="241.45" height="0.45" transform="translate(67.7 323.81) rotate(-29.96)"/><rect class="cls-4" x="179.35" y="162.07" width="241.45" height="0.45" transform="translate(67.5 324.48) rotate(-29.96)"/><rect class="cls-4" x="180.59" y="162.71" width="241.45" height="0.45" transform="translate(67.35 325.23) rotate(-29.97)"/><rect class="cls-4" x="181.62" y="163.42" width="241.45" height="0.45" transform="translate(67.13 325.84) rotate(-29.97)"/><rect class="cls-4" x="182.85" y="164.08" width="241.45" height="0.45" transform="translate(66.97 326.54) rotate(-29.97)"/><rect class="cls-4" x="183.96" y="164.77" width="241.45" height="0.45" transform="translate(66.77 327.18) rotate(-29.97)"/><rect class="cls-4" x="185.2" y="165.41" width="241.45" height="0.45" transform="translate(66.61 327.85) rotate(-29.96)"/><rect class="cls-4" x="186.31" y="166.11" width="241.45" height="0.45" transform="translate(66.41 328.5) rotate(-29.96)"/><rect class="cls-4" x="187.56" y="166.76" width="241.45" height="0.45" transform="translate(66.26 329.25) rotate(-29.97)"/><rect class="cls-4" x="188.67" y="167.45" width="241.45" height="0.45" transform="translate(66.06 329.96) rotate(-29.98)"/><rect class="cls-4" x="189.92" y="168.09" width="241.45" height="0.45" transform="translate(65.9 330.54) rotate(-29.96)"/><rect class="cls-4" x="190.95" y="168.81" width="241.45" height="0.45" transform="translate(65.69 331.28) rotate(-29.98)"/><rect class="cls-4" x="192.17" y="169.46" width="241.45" height="0.45" transform="translate(65.52 331.81) rotate(-29.95)"/><rect class="cls-4" x="193.28" y="170.16" width="241.45" height="0.45" transform="translate(65.32 332.49) rotate(-29.96)"/><rect class="cls-4" x="194.53" y="170.79" width="241.45" height="0.45" transform="translate(65.17 333.34) rotate(-29.98)"/><rect class="cls-4" x="195.64" y="171.49" width="241.45" height="0.45" transform="translate(64.97 333.92) rotate(-29.97)"/><rect class="cls-4" x="161.9" y="151.98" width="241.45" height="0.45" transform="translate(70.21 314.42) rotate(-29.96)"/><rect class="cls-4" x="162.93" y="152.69" width="241.45" height="0.45" transform="translate(69.99 315.07) rotate(-29.97)"/><rect class="cls-4" x="164.15" y="153.35" width="241.45" height="0.45" transform="translate(69.83 315.77) rotate(-29.97)"/><rect class="cls-4" x="165.26" y="154.04" width="241.45" height="0.45" transform="translate(69.63 316.41) rotate(-29.97)"/><rect class="cls-4" x="166.51" y="154.68" width="241.45" height="0.45" transform="translate(69.48 317.12) rotate(-29.97)"/><rect class="cls-4" x="167.62" y="155.38" width="241.45" height="0.45" transform="translate(69.28 317.71) rotate(-29.96)"/><rect class="cls-4" x="168.87" y="156.03" width="241.45" height="0.45" transform="translate(69.12 318.41) rotate(-29.96)"/><rect class="cls-4" x="169.98" y="156.72" width="241.45" height="0.45" transform="translate(68.92 319.13) rotate(-29.97)"/><rect class="cls-4" x="171.23" y="157.36" width="241.45" height="0.45" transform="translate(68.76 319.73) rotate(-29.95)"/><rect class="cls-4" x="172.25" y="158.08" width="241.45" height="0.45" transform="translate(68.55 320.41) rotate(-29.96)"/><rect class="cls-4" x="173.48" y="158.73" width="241.45" height="0.45" transform="translate(68.38 321.11) rotate(-29.96)"/><rect class="cls-4" x="174.59" y="159.42" width="241.45" height="0.45" transform="translate(68.19 321.79) rotate(-29.97)"/><rect class="cls-4" x="175.84" y="160.06" width="241.45" height="0.45" transform="translate(68.03 322.5) rotate(-29.97)"/><rect class="cls-4" x="176.95" y="160.76" width="241.45" height="0.45" transform="translate(67.83 323.15) rotate(-29.97)"/><rect class="cls-4" x="197.29" y="171.77" width="241.45" height="0.45" transform="translate(65.06 334.78) rotate(-29.97)"/><rect class="cls-4" x="-38.2" y="37.86" width="241.45" height="0.45" transform="translate(100.46 199.24) rotate(-29.97)"/><rect class="cls-4" x="-36.98" y="38.51" width="241.45" height="0.45" transform="translate(100.3 199.93) rotate(-29.96)"/><rect class="cls-4" x="-35.87" y="39.2" width="241.45" height="0.45" transform="translate(100.1 200.56) rotate(-29.95)"/><rect class="cls-4" x="-34.62" y="39.84" width="241.45" height="0.45" transform="translate(99.95 201.29) rotate(-29.97)"/><rect class="cls-4" x="-33.59" y="40.56" width="241.45" height="0.45" transform="translate(99.73 201.89) rotate(-29.96)"/><rect class="cls-4" x="-32.37" y="41.21" width="241.45" height="0.45" transform="translate(99.57 202.6) rotate(-29.97)"/><rect class="cls-4" x="-31.25" y="41.91" width="241.45" height="0.45" transform="translate(99.37 203.25) rotate(-29.97)"/><rect class="cls-4" x="-30.01" y="42.55" width="241.45" height="0.45" transform="translate(99.21 203.94) rotate(-29.96)"/><rect class="cls-4" x="-28.9" y="43.24" width="241.45" height="0.45" transform="translate(99.02 204.61) rotate(-29.97)"/><rect class="cls-4" x="-27.65" y="43.89" width="241.45" height="0.45" transform="translate(98.86 205.3) rotate(-29.96)"/><rect class="cls-4" x="-26.54" y="44.59" width="241.45" height="0.45" transform="translate(98.66 205.95) rotate(-29.96)"/><rect class="cls-4" x="-25.3" y="45.23" width="241.45" height="0.45" transform="translate(98.51 206.67) rotate(-29.97)"/><rect class="cls-4" x="-24.27" y="45.94" width="241.45" height="0.45" transform="translate(98.28 207.26) rotate(-29.96)"/><rect class="cls-4" x="-23.04" y="46.59" width="241.45" height="0.45" transform="translate(98.12 207.97) rotate(-29.96)"/><rect class="cls-4" x="-21.93" y="47.29" width="241.45" height="0.45" transform="translate(97.93 208.63) rotate(-29.97)"/><rect class="cls-4" x="-20.68" y="47.93" width="241.45" height="0.45" transform="translate(97.77 209.32) rotate(-29.96)"/><rect class="cls-4" x="-53.31" y="29.11" width="241.45" height="0.45" transform="translate(102.81 190.54) rotate(-29.98)"/><rect class="cls-4" x="-52.28" y="29.83" width="241.45" height="0.45" transform="translate(102.59 191.13) rotate(-29.97)"/><rect class="cls-4" x="-51.06" y="30.48" width="241.45" height="0.45" transform="translate(102.42 191.79) rotate(-29.94)"/><rect class="cls-4" x="-49.95" y="31.18" width="241.45" height="0.45" transform="translate(102.23 192.48) rotate(-29.97)"/><rect class="cls-4" x="-48.7" y="31.82" width="241.45" height="0.45" transform="translate(102.08 193.19) rotate(-29.97)"/><rect class="cls-4" x="-47.59" y="32.51" width="241.45" height="0.45" transform="translate(101.88 193.84) rotate(-29.97)"/><rect class="cls-4" x="-46.34" y="33.16" width="241.45" height="0.45" transform="translate(101.72 194.54) rotate(-29.97)"/><rect class="cls-4" x="-45.23" y="33.86" width="241.45" height="0.45" transform="translate(101.52 195.18) rotate(-29.96)"/><rect class="cls-4" x="-43.99" y="34.49" width="241.45" height="0.45" transform="translate(101.37 195.89) rotate(-29.96)"/><rect class="cls-4" x="-42.96" y="35.21" width="241.45" height="0.45" transform="translate(101.15 196.49) rotate(-29.96)"/><rect class="cls-4" x="-41.73" y="35.86" width="241.45" height="0.45" transform="translate(100.99 197.21) rotate(-29.97)"/><rect class="cls-4" x="-40.62" y="36.56" width="241.45" height="0.45" transform="translate(100.79 197.87) rotate(-29.98)"/><rect class="cls-4" x="-39.38" y="37.2" width="241.45" height="0.45" transform="translate(100.63 198.55) rotate(-29.96)"/><rect class="cls-4" x="-38.26" y="37.89" width="241.45" height="0.45" transform="translate(100.43 199.2) rotate(-29.96)"/><rect class="cls-4" x="171.39" y="-83.24" width="241.45" height="0.45" transform="translate(188.98 287.75) rotate(-29.97)"/><rect class="cls-4" x="172.62" y="-82.59" width="241.45" height="0.45" transform="translate(188.79 288.42) rotate(-29.96)"/><rect class="cls-4" x="173.73" y="-81.89" width="241.45" height="0.45" transform="translate(188.59 289.07) rotate(-29.96)"/><rect class="cls-4" x="174.98" y="-81.25" width="241.45" height="0.45" transform="translate(188.47 289.8) rotate(-29.97)"/><rect class="cls-4" x="176.01" y="-80.54" width="241.45" height="0.45" transform="translate(188.22 290.39) rotate(-29.96)"/><rect class="cls-4" x="177.23" y="-79.89" width="241.45" height="0.45" transform="translate(188.08 291.11) rotate(-29.97)"/><rect class="cls-4" x="178.34" y="-79.19" width="241.45" height="0.45" transform="translate(187.84 291.72) rotate(-29.96)"/><rect class="cls-4" x="179.59" y="-78.55" width="241.45" height="0.45" transform="translate(187.73 292.47) rotate(-29.97)"/><rect class="cls-4" x="180.7" y="-77.86" width="241.45" height="0.45" transform="translate(187.49 293.07) rotate(-29.96)"/><rect class="cls-4" x="181.94" y="-77.21" width="241.45" height="0.45" transform="translate(187.33 293.78) rotate(-29.96)"/><rect class="cls-4" x="183.05" y="-76.51" width="241.45" height="0.45" transform="translate(187.18 294.47) rotate(-29.97)"/><rect class="cls-4" x="184.3" y="-75.87" width="241.45" height="0.45" transform="translate(187.02 295.18) rotate(-29.97)"/><rect class="cls-4" x="185.33" y="-75.16" width="241.45" height="0.45" transform="translate(186.8 295.79) rotate(-29.97)"/><rect class="cls-4" x="186.55" y="-74.5" width="241.45" height="0.45" transform="translate(186.64 296.49) rotate(-29.97)"/><rect class="cls-4" x="187.66" y="-73.81" width="241.45" height="0.45" transform="translate(186.44 297.14) rotate(-29.97)"/><rect class="cls-4" x="188.91" y="-73.17" width="241.45" height="0.45" transform="translate(186.29 297.84) rotate(-29.97)"/><rect class="cls-4" x="190.02" y="-72.47" width="241.45" height="0.45" transform="translate(186.09 298.49) rotate(-29.97)"/><rect class="cls-4" x="155.04" y="-92.62" width="241.45" height="0.45" transform="translate(191.44 278.29) rotate(-29.96)"/><rect class="cls-4" x="156.28" y="-91.99" width="241.45" height="0.45" transform="translate(191.33 279.03) rotate(-29.97)"/><rect class="cls-4" x="157.31" y="-91.27" width="241.45" height="0.45" transform="translate(191.06 279.6) rotate(-29.96)"/><rect class="cls-4" x="158.54" y="-90.62" width="241.45" height="0.45" transform="translate(190.94 280.34) rotate(-29.97)"/><rect class="cls-4" x="159.65" y="-89.92" width="241.45" height="0.45" transform="translate(190.76 281) rotate(-29.97)"/><rect class="cls-4" x="160.9" y="-89.28" width="241.45" height="0.45" transform="translate(190.64 281.73) rotate(-29.98)"/><rect class="cls-4" x="162.01" y="-88.59" width="241.45" height="0.45" transform="translate(190.39 282.34) rotate(-29.97)"/><rect class="cls-4" x="163.25" y="-87.94" width="241.45" height="0.45" transform="translate(190.24 283.05) rotate(-29.97)"/><rect class="cls-4" x="164.36" y="-87.24" width="241.45" height="0.45" transform="translate(190.04 283.7) rotate(-29.97)"/><rect class="cls-4" x="165.61" y="-86.6" width="241.45" height="0.45" transform="translate(189.88 284.41) rotate(-29.97)"/><rect class="cls-4" x="166.64" y="-85.89" width="241.45" height="0.45" transform="translate(189.66 285.02) rotate(-29.97)"/><rect class="cls-4" x="167.86" y="-85.23" width="241.45" height="0.45" transform="translate(189.5 285.72) rotate(-29.97)"/><rect class="cls-4" x="168.97" y="-84.54" width="241.45" height="0.45" transform="translate(189.3 286.36) rotate(-29.97)"/><rect class="cls-4" x="170.22" y="-83.9" width="241.45" height="0.45" transform="translate(189.15 287.07) rotate(-29.97)"/><rect class="cls-4" x="171.33" y="-83.2" width="241.45" height="0.45" transform="translate(188.99 287.76) rotate(-29.98)"/><rect class="cls-4" x="206.35" y="-63.07" width="241.45" height="0.45" transform="translate(183.57 307.91) rotate(-29.97)"/><rect class="cls-4" x="207.57" y="-62.42" width="241.45" height="0.45" transform="translate(183.45 308.65) rotate(-29.98)"/><rect class="cls-4" x="208.68" y="-61.72" width="241.45" height="0.45" transform="translate(183.21 309.25) rotate(-29.97)"/><rect class="cls-4" x="209.93" y="-61.08" width="241.45" height="0.45" transform="translate(183.02 309.91) rotate(-29.96)"/><rect class="cls-4" x="210.96" y="-60.36" width="241.45" height="0.45" transform="translate(182.84 310.57) rotate(-29.97)"/><rect class="cls-4" x="212.18" y="-59.71" width="241.45" height="0.45" transform="translate(182.64 311.22) rotate(-29.96)"/><rect class="cls-4" x="213.29" y="-59.02" width="241.45" height="0.45" transform="translate(182.48 311.92) rotate(-29.97)"/><rect class="cls-4" x="214.54" y="-58.38" width="241.45" height="0.45" transform="translate(182.33 312.63) rotate(-29.97)"/><rect class="cls-4" x="215.65" y="-57.68" width="241.45" height="0.45" transform="translate(182.09 313.22) rotate(-29.96)"/><rect class="cls-4" x="216.89" y="-57.03" width="241.45" height="0.45" transform="translate(181.97 313.98) rotate(-29.97)"/><rect class="cls-4" x="218" y="-56.34" width="241.45" height="0.45" transform="translate(181.73 314.58) rotate(-29.96)"/><rect class="cls-4" x="219.25" y="-55.7" width="241.45" height="0.45" transform="translate(181.6 315.31) rotate(-29.96)"/><rect class="cls-4" x="220.28" y="-54.98" width="241.45" height="0.45" transform="translate(181.4 315.95) rotate(-29.97)"/><rect class="cls-4" x="221.5" y="-54.33" width="241.45" height="0.45" transform="translate(181.21 316.62) rotate(-29.96)"/><rect class="cls-4" x="222.62" y="-53.63" width="241.45" height="0.45" transform="translate(181.04 317.29) rotate(-29.97)"/><rect class="cls-4" x="223.86" y="-52.99" width="241.45" height="0.45" transform="translate(180.84 317.95) rotate(-29.96)"/><rect class="cls-4" x="224.97" y="-52.3" width="241.45" height="0.45" transform="translate(180.69 318.65) rotate(-29.97)"/><rect class="cls-4" x="191.24" y="-71.81" width="241.45" height="0.45" transform="translate(185.92 299.19) rotate(-29.97)"/><rect class="cls-4" x="192.27" y="-71.09" width="241.45" height="0.45" transform="translate(185.66 299.75) rotate(-29.96)"/><rect class="cls-4" x="193.49" y="-70.44" width="241.45" height="0.45" transform="translate(185.54 300.5) rotate(-29.97)"/><rect class="cls-4" x="194.6" y="-69.75" width="241.45" height="0.45" transform="translate(185.34 301.14) rotate(-29.97)"/><rect class="cls-4" x="195.85" y="-69.11" width="241.45" height="0.45" transform="translate(185.19 301.85) rotate(-29.97)"/><rect class="cls-4" x="196.96" y="-68.41" width="241.45" height="0.45" transform="translate(184.99 302.5) rotate(-29.97)"/><rect class="cls-4" x="198.2" y="-67.76" width="241.45" height="0.45" transform="translate(184.83 303.21) rotate(-29.97)"/><rect class="cls-4" x="199.31" y="-67.07" width="241.45" height="0.45" transform="matrix(0.87, -0.5, 0.5, 0.87, 184.67, 303.9)"/><rect class="cls-4" x="200.56" y="-66.43" width="241.45" height="0.45" transform="translate(184.52 304.61) rotate(-29.98)"/><rect class="cls-4" x="201.59" y="-65.71" width="241.45" height="0.45" transform="translate(184.26 305.18) rotate(-29.97)"/><rect class="cls-4" x="202.81" y="-65.06" width="241.45" height="0.45" transform="translate(184.12 305.89) rotate(-29.97)"/><rect class="cls-4" x="203.92" y="-64.36" width="241.45" height="0.45" transform="translate(183.9 306.52) rotate(-29.97)"/><rect class="cls-4" x="205.17" y="-63.73" width="241.45" height="0.45" transform="translate(183.7 307.18) rotate(-29.96)"/><rect class="cls-4" x="206.28" y="-63.03" width="241.45" height="0.45" transform="translate(183.55 307.88) rotate(-29.97)"/><rect class="cls-4" x="276.29" y="-22.86" width="241.45" height="0.45" transform="translate(172.77 348.12) rotate(-29.95)"/><rect class="cls-4" x="277.52" y="-22.21" width="241.45" height="0.45" transform="matrix(0.87, -0.5, 0.5, 0.87, 172.72, 348.99)"/><rect class="cls-4" x="278.63" y="-21.51" width="241.45" height="0.45" transform="translate(172.52 349.63) rotate(-29.98)"/><rect class="cls-4" x="279.87" y="-20.87" width="241.45" height="0.45" transform="translate(172.26 350.17) rotate(-29.95)"/><rect class="cls-4" x="280.9" y="-20.15" width="241.45" height="0.45" transform="translate(172.11 350.89) rotate(-29.97)"/><rect class="cls-4" x="282.13" y="-19.5" width="241.45" height="0.45" transform="translate(171.9 351.52) rotate(-29.96)"/><rect class="cls-4" x="283.24" y="-18.81" width="241.45" height="0.45" transform="translate(171.75 352.23) rotate(-29.97)"/><rect class="cls-4" x="284.48" y="-18.17" width="241.45" height="0.45" transform="translate(171.59 352.94) rotate(-29.97)"/><rect class="cls-4" x="285.59" y="-17.47" width="241.45" height="0.45" transform="translate(171.39 353.59) rotate(-29.97)"/><rect class="cls-4" x="286.84" y="-16.82" width="241.45" height="0.45" transform="translate(171.24 354.3) rotate(-29.97)"/><rect class="cls-4" x="287.95" y="-16.13" width="241.45" height="0.45" transform="translate(171 354.88) rotate(-29.96)"/><rect class="cls-4" x="289.2" y="-15.49" width="241.45" height="0.45" transform="translate(170.86 355.62) rotate(-29.96)"/><rect class="cls-4" x="290.23" y="-14.77" width="241.45" height="0.45" transform="translate(170.62 356.2) rotate(-29.96)"/><rect class="cls-4" x="291.45" y="-14.12" width="241.45" height="0.45" transform="translate(170.5 356.96) rotate(-29.97)"/><rect class="cls-4" x="292.56" y="-13.42" width="241.45" height="0.45" transform="translate(170.35 357.68) rotate(-29.98)"/><rect class="cls-4" x="293.81" y="-12.78" width="241.45" height="0.45" transform="translate(170.11 358.25) rotate(-29.96)"/><rect class="cls-4" x="294.92" y="-12.09" width="241.45" height="0.45" transform="translate(169.91 358.9) rotate(-29.96)"/><rect class="cls-4" x="259.93" y="-32.24" width="241.45" height="0.45" transform="translate(175.34 338.8) rotate(-29.97)"/><rect class="cls-4" x="261.18" y="-31.6" width="241.45" height="0.45" transform="translate(175.19 339.51) rotate(-29.97)"/><rect class="cls-4" x="262.21" y="-30.88" width="241.45" height="0.45" transform="translate(174.97 340.12) rotate(-29.97)"/><rect class="cls-4" x="263.43" y="-30.23" width="241.45" height="0.45" transform="translate(174.81 340.81) rotate(-29.97)"/><rect class="cls-4" x="264.55" y="-29.54" width="241.45" height="0.45" transform="translate(174.61 341.46) rotate(-29.97)"/><rect class="cls-4" x="265.79" y="-28.9" width="241.45" height="0.45" transform="translate(174.45 342.17) rotate(-29.97)"/><rect class="cls-4" x="266.9" y="-28.2" width="241.45" height="0.45" transform="translate(174.23 342.78) rotate(-29.96)"/><rect class="cls-4" x="268.15" y="-27.55" width="241.45" height="0.45" transform="translate(174.07 343.49) rotate(-29.96)"/><rect class="cls-4" x="269.26" y="-26.86" width="241.45" height="0.45" transform="translate(173.94 344.24) rotate(-29.98)"/><rect class="cls-4" x="270.51" y="-26.22" width="241.45" height="0.45" transform="translate(173.7 344.82) rotate(-29.96)"/><rect class="cls-4" x="271.53" y="-25.5" width="241.45" height="0.45" transform="translate(173.57 345.56) rotate(-29.98)"/><rect class="cls-4" x="272.76" y="-24.85" width="241.45" height="0.45" transform="translate(173.32 346.13) rotate(-29.96)"/><rect class="cls-4" x="273.87" y="-24.15" width="241.45" height="0.45" transform="translate(173.16 346.84) rotate(-29.97)"/><rect class="cls-4" x="275.12" y="-23.52" width="241.45" height="0.45" transform="translate(173.05 347.61) rotate(-29.98)"/><rect class="cls-4" x="276.23" y="-22.82" width="241.45" height="0.45" transform="translate(172.81 348.19) rotate(-29.97)"/><rect class="cls-4" x="311.24" y="-2.68" width="241.45" height="0.45" transform="translate(167.39 368.31) rotate(-29.96)"/><rect class="cls-4" x="312.47" y="-2.03" width="241.45" height="0.45" transform="translate(167.27 369.08) rotate(-29.97)"/><rect class="cls-4" x="313.58" y="-1.34" width="241.45" height="0.45" transform="translate(167.12 369.8) rotate(-29.98)"/><rect class="cls-4" x="314.83" y="-0.7" width="241.45" height="0.45" transform="translate(166.88 370.36) rotate(-29.96)"/><rect class="cls-4" x="315.86" y="0.02" width="241.45" height="0.45" transform="translate(166.74 371.12) rotate(-29.98)"/><rect class="cls-4" x="317.08" y="0.67" width="241.45" height="0.45" transform="translate(166.47 371.63) rotate(-29.95)"/><rect class="cls-4" x="318.19" y="1.37" width="241.45" height="0.45" transform="translate(166.34 372.39) rotate(-29.97)"/><rect class="cls-4" x="319.44" y="2.01" width="241.45" height="0.45" transform="translate(166.21 373.13) rotate(-29.97)"/><rect class="cls-4" x="320.55" y="2.7" width="241.45" height="0.45" transform="translate(165.97 373.7) rotate(-29.96)"/><rect class="cls-4" x="321.79" y="3.35" width="241.45" height="0.45" transform="translate(165.83 374.46) rotate(-29.97)"/><rect class="cls-4" x="322.9" y="4.05" width="241.45" height="0.45" transform="translate(165.63 375.1) rotate(-29.97)"/><rect class="cls-4" x="324.15" y="4.69" width="241.45" height="0.45" transform="translate(165.48 375.81) rotate(-29.97)"/><rect class="cls-4" x="325.18" y="5.4" width="241.45" height="0.45" transform="translate(165.26 376.42) rotate(-29.97)"/><rect class="cls-4" x="326.4" y="6.05" width="241.45" height="0.45" transform="translate(165.07 377.08) rotate(-29.96)"/><rect class="cls-4" x="327.51" y="6.75" width="241.45" height="0.45" transform="translate(164.88 377.72) rotate(-29.96)"/><rect class="cls-4" x="328.76" y="7.39" width="241.45" height="0.45" transform="translate(164.75 378.48) rotate(-29.97)"/><rect class="cls-4" x="329.87" y="8.08" width="241.45" height="0.45" transform="translate(164.51 379.05) rotate(-29.96)"/><rect class="cls-4" x="296.13" y="-11.43" width="241.45" height="0.45" transform="translate(169.72 359.55) rotate(-29.95)"/><rect class="cls-4" x="297.16" y="-10.71" width="241.45" height="0.45" transform="translate(169.56 360.27) rotate(-29.97)"/><rect class="cls-4" x="298.39" y="-10.06" width="241.45" height="0.45" transform="translate(169.38 360.93) rotate(-29.96)"/><rect class="cls-4" x="299.5" y="-9.36" width="241.45" height="0.45" transform="translate(169.2 361.62) rotate(-29.97)"/><rect class="cls-4" x="300.75" y="-8.72" width="241.45" height="0.45" transform="translate(169.05 362.33) rotate(-29.97)"/><rect class="cls-4" x="301.86" y="-8.03" width="241.45" height="0.45" transform="translate(168.85 362.98) rotate(-29.97)"/><rect class="cls-4" x="303.1" y="-7.38" width="241.45" height="0.45" transform="translate(168.69 363.68) rotate(-29.97)"/><rect class="cls-4" x="304.21" y="-6.68" width="241.45" height="0.45" transform="translate(168.49 364.33) rotate(-29.97)"/><rect class="cls-4" x="305.46" y="-6.04" width="241.45" height="0.45" transform="translate(168.28 364.93) rotate(-29.95)"/><rect class="cls-4" x="306.49" y="-5.33" width="241.45" height="0.45" transform="translate(168.14 365.68) rotate(-29.97)"/><rect class="cls-4" x="307.71" y="-4.68" width="241.45" height="0.45" transform="translate(167.96 366.35) rotate(-29.97)"/><rect class="cls-4" x="308.82" y="-3.98" width="241.45" height="0.45" transform="translate(167.69 366.88) rotate(-29.95)"/><rect class="cls-4" x="310.07" y="-3.34" width="241.45" height="0.45" transform="translate(167.65 367.78) rotate(-29.98)"/><rect class="cls-4" x="311.18" y="-2.65" width="241.45" height="0.45" transform="translate(167.41 368.35) rotate(-29.97)"/><rect class="cls-4" x="331.53" y="8.36" width="241.45" height="0.45" transform="translate(164.63 379.99) rotate(-29.97)"/><rect class="cls-4" x="348.71" y="18.61" width="241.45" height="0.45" transform="translate(161.78 389.89) rotate(-29.96)"/><rect class="cls-4" x="349.93" y="19.26" width="241.45" height="0.45" transform="translate(161.65 390.64) rotate(-29.97)"/><rect class="cls-4" x="351.04" y="19.96" width="241.45" height="0.45" transform="translate(161.45 391.29) rotate(-29.97)"/><rect class="cls-4" x="352.29" y="20.6" width="241.45" height="0.45" transform="translate(161.27 391.95) rotate(-29.96)"/><rect class="cls-4" x="353.32" y="21.31" width="241.45" height="0.45" transform="translate(161.03 392.52) rotate(-29.96)"/><rect class="cls-4" x="354.54" y="21.97" width="241.45" height="0.45" transform="translate(160.91 393.3) rotate(-29.97)"/><rect class="cls-4" x="355.65" y="22.66" width="241.45" height="0.45" transform="translate(160.76 394.03) rotate(-29.98)"/><rect class="cls-4" x="356.9" y="23.3" width="241.45" height="0.45" transform="translate(160.52 394.58) rotate(-29.96)"/><rect class="cls-4" x="358.01" y="24" width="241.45" height="0.45" transform="translate(160.32 395.23) rotate(-29.96)"/><rect class="cls-4" x="359.25" y="24.65" width="241.45" height="0.45" transform="translate(160.16 395.93) rotate(-29.96)"/><rect class="cls-4" x="360.36" y="25.34" width="241.45" height="0.45" transform="translate(160 396.66) rotate(-29.97)"/><rect class="cls-4" x="361.61" y="25.98" width="241.45" height="0.45" transform="translate(159.83 397.32) rotate(-29.96)"/><rect class="cls-4" x="362.64" y="26.7" width="241.45" height="0.45" transform="translate(159.63 397.98) rotate(-29.97)"/><rect class="cls-4" x="363.87" y="27.35" width="241.45" height="0.45" transform="translate(159.47 398.68) rotate(-29.97)"/><rect class="cls-4" x="364.98" y="28.04" width="241.45" height="0.45" transform="translate(159.27 399.33) rotate(-29.97)"/><rect class="cls-4" x="366.22" y="28.68" width="241.45" height="0.45" transform="translate(159.12 400.04) rotate(-29.97)"/><rect class="cls-4" x="367.33" y="29.38" width="241.45" height="0.45" transform="translate(158.92 400.69) rotate(-29.97)"/><rect class="cls-4" x="332.35" y="9.23" width="241.45" height="0.45" transform="translate(164.31 380.52) rotate(-29.97)"/><rect class="cls-4" x="333.6" y="9.87" width="241.45" height="0.45" transform="translate(164.11 381.15) rotate(-29.96)"/><rect class="cls-4" x="334.63" y="10.58" width="241.45" height="0.45" transform="translate(163.94 381.83) rotate(-29.97)"/><rect class="cls-4" x="335.85" y="11.24" width="241.45" height="0.45" transform="translate(163.73 382.46) rotate(-29.96)"/><rect class="cls-4" x="336.96" y="11.93" width="241.45" height="0.45" transform="translate(163.57 383.18) rotate(-29.97)"/><rect class="cls-4" x="338.21" y="12.57" width="241.45" height="0.45" transform="translate(163.42 383.89) rotate(-29.97)"/><rect class="cls-4" x="339.32" y="13.27" width="241.45" height="0.45" transform="translate(163.2 384.49) rotate(-29.96)"/><rect class="cls-4" x="340.56" y="13.92" width="241.45" height="0.45" transform="translate(163.02 385.17) rotate(-29.96)"/><rect class="cls-4" x="341.67" y="14.61" width="241.45" height="0.45" transform="translate(162.87 385.89) rotate(-29.97)"/><rect class="cls-4" x="342.92" y="15.25" width="241.45" height="0.45" transform="translate(162.71 386.6) rotate(-29.97)"/><rect class="cls-4" x="343.95" y="15.97" width="241.45" height="0.45" transform="translate(162.49 387.21) rotate(-29.97)"/><rect class="cls-4" x="345.17" y="16.62" width="241.45" height="0.45" transform="translate(162.33 387.91) rotate(-29.97)"/><rect class="cls-4" x="346.28" y="17.31" width="241.45" height="0.45" transform="translate(162.13 388.56) rotate(-29.97)"/><rect class="cls-4" x="347.53" y="17.95" width="241.45" height="0.45" transform="translate(161.98 389.27) rotate(-29.97)"/><rect class="cls-4" x="348.64" y="18.65" width="241.45" height="0.45" transform="translate(161.74 389.83) rotate(-29.96)"/><rect class="cls-4" x="383.66" y="38.79" width="241.45" height="0.45" transform="translate(156.4 410.1) rotate(-29.97)"/><rect class="cls-4" x="384.88" y="39.44" width="241.45" height="0.45" transform="translate(156.18 410.66) rotate(-29.95)"/><rect class="cls-4" x="385.99" y="40.13" width="241.45" height="0.45" transform="translate(156.02 411.39) rotate(-29.96)"/><rect class="cls-4" x="387.24" y="40.77" width="241.45" height="0.45" transform="translate(155.89 412.15) rotate(-29.97)"/><rect class="cls-4" x="388.27" y="41.49" width="241.45" height="0.45" transform="translate(155.67 412.76) rotate(-29.97)"/><rect class="cls-4" x="389.49" y="42.14" width="241.45" height="0.45" transform="translate(155.51 413.46) rotate(-29.97)"/><rect class="cls-4" x="390.6" y="42.84" width="241.45" height="0.45" transform="translate(155.31 414.11) rotate(-29.97)"/><rect class="cls-4" x="391.85" y="43.47" width="241.45" height="0.45" transform="translate(155.13 414.77) rotate(-29.96)"/><rect class="cls-4" x="392.96" y="44.17" width="241.45" height="0.45" transform="translate(154.89 415.32) rotate(-29.95)"/><rect class="cls-4" x="394.21" y="44.82" width="241.45" height="0.45" transform="translate(154.8 416.17) rotate(-29.97)"/><rect class="cls-4" x="395.32" y="45.52" width="241.45" height="0.45" transform="translate(154.64 416.91) rotate(-29.98)"/><rect class="cls-4" x="396.56" y="46.15" width="241.45" height="0.45" transform="translate(154.41 417.44) rotate(-29.96)"/><rect class="cls-4" x="397.59" y="46.87" width="241.45" height="0.45" transform="translate(154.23 418.14) rotate(-29.97)"/><rect class="cls-4" x="398.82" y="47.52" width="241.45" height="0.45" transform="translate(154 418.69) rotate(-29.95)"/><rect class="cls-4" x="399.93" y="48.22" width="241.45" height="0.45" transform="translate(153.82 419.39) rotate(-29.96)"/><rect class="cls-4" x="401.18" y="48.86" width="241.45" height="0.45" transform="translate(153.71 420.2) rotate(-29.97)"/><rect class="cls-4" x="402.29" y="49.55" width="241.45" height="0.45" transform="translate(153.52 420.84) rotate(-29.97)"/><rect class="cls-4" x="368.55" y="30.04" width="241.45" height="0.45" transform="translate(158.73 401.33) rotate(-29.96)"/><rect class="cls-4" x="369.58" y="30.76" width="241.45" height="0.45" transform="translate(158.53 401.99) rotate(-29.97)"/><rect class="cls-4" x="370.8" y="31.41" width="241.45" height="0.45" transform="translate(158.37 402.69) rotate(-29.97)"/><rect class="cls-4" x="371.91" y="32.11" width="241.45" height="0.45" transform="translate(158.17 403.34) rotate(-29.97)"/><rect class="cls-4" x="373.16" y="32.74" width="241.45" height="0.45" transform="translate(158.02 404.05) rotate(-29.97)"/><rect class="cls-4" x="374.27" y="33.44" width="241.45" height="0.45" transform="translate(157.78 404.61) rotate(-29.96)"/><rect class="cls-4" x="375.51" y="34.09" width="241.45" height="0.45" transform="translate(157.62 405.32) rotate(-29.96)"/><rect class="cls-4" x="376.63" y="34.79" width="241.45" height="0.45" transform="translate(157.46 406.05) rotate(-29.97)"/><rect class="cls-4" x="377.87" y="35.42" width="241.45" height="0.45" transform="translate(157.29 406.71) rotate(-29.96)"/><rect class="cls-4" x="378.9" y="36.14" width="241.45" height="0.45" transform="translate(157.06 407.32) rotate(-29.96)"/><rect class="cls-4" x="380.13" y="36.79" width="241.45" height="0.45" transform="translate(156.97 408.15) rotate(-29.98)"/><rect class="cls-4" x="381.24" y="37.49" width="241.45" height="0.45" transform="translate(156.73 408.71) rotate(-29.97)"/><rect class="cls-4" x="382.48" y="38.13" width="241.45" height="0.45" transform="translate(156.58 409.42) rotate(-29.97)"/><rect class="cls-4" x="383.59" y="38.82" width="241.45" height="0.45" transform="translate(156.38 410.07) rotate(-29.97)"/><rect class="cls-4" x="403.94" y="49.83" width="241.45" height="0.45" transform="translate(153.64 421.8) rotate(-29.98)"/><rect class="cls-4" x="421.59" y="59.76" width="241.45" height="0.45" transform="translate(151 431.85) rotate(-29.97)"/><rect class="cls-4" x="422.81" y="60.41" width="241.45" height="0.45" transform="translate(150.84 432.55) rotate(-29.97)"/><rect class="cls-4" x="423.92" y="61.11" width="241.45" height="0.45" transform="translate(150.64 433.2) rotate(-29.97)"/><rect class="cls-4" x="425.17" y="61.75" width="241.45" height="0.45" transform="translate(150.48 433.91) rotate(-29.97)"/><rect class="cls-4" x="426.2" y="62.46" width="241.45" height="0.45" transform="translate(150.22 434.42) rotate(-29.96)"/><rect class="cls-4" x="427.42" y="63.12" width="241.45" height="0.45" transform="translate(150.1 435.21) rotate(-29.97)"/><rect class="cls-4" x="428.53" y="63.81" width="241.45" height="0.45" transform="translate(149.94 435.96) rotate(-29.98)"/><rect class="cls-4" x="429.78" y="64.45" width="241.45" height="0.45" transform="translate(149.68 436.42) rotate(-29.95)"/><rect class="cls-4" x="430.89" y="65.15" width="241.45" height="0.45" transform="translate(149.51 437.12) rotate(-29.96)"/><rect class="cls-4" x="432.14" y="65.8" width="241.45" height="0.45" transform="translate(149.35 437.83) rotate(-29.96)"/><rect class="cls-4" x="433.25" y="66.49" width="241.45" height="0.45" transform="translate(149.19 438.57) rotate(-29.97)"/><rect class="cls-4" x="434.49" y="67.13" width="241.45" height="0.45" transform="translate(149.04 439.28) rotate(-29.97)"/><rect class="cls-4" x="435.52" y="67.85" width="241.45" height="0.45" transform="translate(148.82 439.89) rotate(-29.97)"/><rect class="cls-4" x="436.75" y="68.5" width="241.45" height="0.45" transform="translate(148.66 440.59) rotate(-29.97)"/><rect class="cls-4" x="437.86" y="69.19" width="241.45" height="0.45" transform="translate(148.46 441.24) rotate(-29.97)"/><rect class="cls-4" x="439.11" y="69.83" width="241.45" height="0.45" transform="translate(148.31 441.95) rotate(-29.97)"/><rect class="cls-4" x="440.22" y="70.53" width="241.45" height="0.45" transform="translate(148.08 442.54) rotate(-29.96)"/><rect class="cls-4" x="405.23" y="50.38" width="241.45" height="0.45" transform="translate(153.5 422.42) rotate(-29.97)"/><rect class="cls-4" x="406.48" y="51.02" width="241.45" height="0.45" transform="translate(153.3 423.04) rotate(-29.96)"/><rect class="cls-4" x="407.51" y="51.73" width="241.45" height="0.45" transform="translate(153.1 423.69) rotate(-29.96)"/><rect class="cls-4" x="408.73" y="52.39" width="241.45" height="0.45" transform="translate(152.92 424.35) rotate(-29.96)"/><rect class="cls-4" x="409.84" y="53.08" width="241.45" height="0.45" transform="translate(152.76 425.09) rotate(-29.97)"/><rect class="cls-4" x="411.09" y="53.72" width="241.45" height="0.45" transform="translate(152.65 425.89) rotate(-29.98)"/><rect class="cls-4" x="412.2" y="54.41" width="241.45" height="0.45" transform="translate(152.39 426.39) rotate(-29.96)"/><rect class="cls-4" x="413.44" y="55.07" width="241.45" height="0.45" transform="translate(152.21 427.06) rotate(-29.96)"/><rect class="cls-4" x="414.56" y="55.76" width="241.45" height="0.45" transform="translate(152.06 427.8) rotate(-29.97)"/><rect class="cls-4" x="415.8" y="56.4" width="241.45" height="0.45" transform="translate(151.9 428.51) rotate(-29.97)"/><rect class="cls-4" x="416.83" y="57.12" width="241.45" height="0.45" transform="translate(151.68 429.12) rotate(-29.97)"/><rect class="cls-4" x="418.06" y="57.77" width="241.45" height="0.45" transform="translate(151.5 429.76) rotate(-29.96)"/><rect class="cls-4" x="419.17" y="58.46" width="241.45" height="0.45" transform="translate(151.34 430.51) rotate(-29.97)"/><rect class="cls-4" x="420.41" y="59.1" width="241.45" height="0.45" transform="translate(151.17 431.18) rotate(-29.97)"/><rect class="cls-4" x="421.52" y="59.8" width="241.45" height="0.45" transform="translate(150.9 431.67) rotate(-29.95)"/><rect class="cls-4" x="456.54" y="79.93" width="241.45" height="0.45" transform="translate(145.59 452.01) rotate(-29.97)"/><rect class="cls-4" x="457.77" y="80.59" width="241.45" height="0.45" transform="translate(145.39 452.6) rotate(-29.96)"/><rect class="cls-4" x="458.88" y="81.28" width="241.45" height="0.45" transform="translate(145.21 453.29) rotate(-29.96)"/><rect class="cls-4" x="460.12" y="81.92" width="241.45" height="0.45" transform="translate(145.08 454.06) rotate(-29.97)"/><rect class="cls-4" x="461.15" y="82.64" width="241.45" height="0.45" transform="translate(144.86 454.67) rotate(-29.97)"/><rect class="cls-4" x="462.38" y="83.29" width="241.45" height="0.45" transform="translate(144.67 455.31) rotate(-29.96)"/><rect class="cls-4" x="463.49" y="83.99" width="241.45" height="0.45" transform="translate(144.5 456.02) rotate(-29.97)"/><rect class="cls-4" x="464.73" y="84.62" width="241.45" height="0.45" transform="translate(144.35 456.73) rotate(-29.97)"/><rect class="cls-4" x="465.85" y="85.32" width="241.45" height="0.45" transform="translate(144.1 457.27) rotate(-29.96)"/><rect class="cls-4" x="467.09" y="85.97" width="241.45" height="0.45" transform="translate(143.99 458.08) rotate(-29.97)"/><rect class="cls-4" x="468.2" y="86.67" width="241.45" height="0.45" transform="translate(143.83 458.84) rotate(-29.98)"/><rect class="cls-4" x="469.45" y="87.3" width="241.45" height="0.45" transform="translate(143.57 459.27) rotate(-29.95)"/><rect class="cls-4" x="470.48" y="88.02" width="241.45" height="0.45" transform="translate(143.42 460.05) rotate(-29.97)"/><rect class="cls-4" x="471.7" y="88.67" width="241.45" height="0.45" transform="translate(143.19 460.58) rotate(-29.95)"/><rect class="cls-4" x="472.81" y="89.37" width="241.45" height="0.45" transform="translate(142.99 461.23) rotate(-29.95)"/><rect class="cls-4" x="474.06" y="90.01" width="241.45" height="0.45" transform="translate(142.9 462.1) rotate(-29.97)"/><rect class="cls-4" x="475.17" y="90.7" width="241.45" height="0.45" transform="translate(142.7 462.75) rotate(-29.97)"/><rect class="cls-4" x="441.43" y="71.19" width="241.45" height="0.45" transform="translate(147.92 443.23) rotate(-29.96)"/><rect class="cls-4" x="442.46" y="71.91" width="241.45" height="0.45" transform="translate(147.72 443.9) rotate(-29.97)"/><rect class="cls-4" x="443.69" y="72.56" width="241.45" height="0.45" transform="translate(147.56 444.6) rotate(-29.97)"/><rect class="cls-4" x="444.8" y="73.26" width="241.45" height="0.45" transform="translate(147.36 445.25) rotate(-29.97)"/><rect class="cls-4" x="446.04" y="73.89" width="241.45" height="0.45" transform="translate(147.21 445.96) rotate(-29.97)"/><rect class="cls-4" x="447.15" y="74.59" width="241.45" height="0.45" transform="translate(146.97 446.5) rotate(-29.96)"/><rect class="cls-4" x="448.4" y="75.24" width="241.45" height="0.45" transform="translate(146.81 447.21) rotate(-29.96)"/><rect class="cls-4" x="449.51" y="75.93" width="241.45" height="0.45" transform="translate(146.65 447.96) rotate(-29.97)"/><rect class="cls-4" x="450.76" y="76.57" width="241.45" height="0.45" transform="translate(146.47 448.61) rotate(-29.96)"/><rect class="cls-4" x="451.79" y="77.29" width="241.45" height="0.45" transform="translate(146.28 449.28) rotate(-29.97)"/><rect class="cls-4" x="453.01" y="77.94" width="241.45" height="0.45" transform="translate(146.16 450.08) rotate(-29.98)"/><rect class="cls-4" x="454.12" y="78.64" width="241.45" height="0.45" transform="translate(145.92 450.62) rotate(-29.97)"/><rect class="cls-4" x="455.37" y="79.28" width="241.45" height="0.45" transform="translate(145.76 451.33) rotate(-29.97)"/><rect class="cls-4" x="456.48" y="79.97" width="241.45" height="0.45" transform="translate(145.57 451.98) rotate(-29.97)"/><rect class="cls-4" x="476.82" y="90.98" width="241.45" height="0.45" transform="translate(142.81 463.66) rotate(-29.97)"/><rect class="cls-4" x="241.33" y="-42.93" width="241.45" height="0.45" transform="translate(178.19 328.07) rotate(-29.97)"/><rect class="cls-4" x="242.55" y="-42.28" width="241.45" height="0.45" transform="translate(178.05 328.8) rotate(-29.97)"/><rect class="cls-4" x="243.66" y="-41.58" width="241.45" height="0.45" transform="translate(177.81 329.39) rotate(-29.96)"/><rect class="cls-4" x="244.91" y="-40.94" width="241.45" height="0.45" transform="translate(177.64 330.07) rotate(-29.96)"/><rect class="cls-4" x="245.94" y="-40.23" width="241.45" height="0.45" transform="translate(177.46 330.74) rotate(-29.97)"/><rect class="cls-4" x="247.17" y="-39.58" width="241.45" height="0.45" transform="translate(177.26 331.38) rotate(-29.96)"/><rect class="cls-4" x="248.28" y="-38.88" width="241.45" height="0.45" transform="translate(177.1 332.08) rotate(-29.97)"/><rect class="cls-4" x="249.52" y="-38.24" width="241.45" height="0.45" transform="translate(176.95 332.79) rotate(-29.97)"/><rect class="cls-4" x="250.63" y="-37.55" width="241.45" height="0.45" transform="translate(176.75 333.44) rotate(-29.97)"/><rect class="cls-4" x="251.88" y="-36.9" width="241.45" height="0.45" transform="translate(176.59 334.15) rotate(-29.97)"/><rect class="cls-4" x="252.99" y="-36.2" width="241.45" height="0.45" transform="translate(176.32 334.7) rotate(-29.95)"/><rect class="cls-4" x="254.24" y="-35.56" width="241.45" height="0.45" transform="translate(176.24 335.51) rotate(-29.97)"/><rect class="cls-4" x="255.27" y="-34.85" width="241.45" height="0.45" transform="translate(175.98 336.06) rotate(-29.96)"/><rect class="cls-4" x="256.49" y="-34.19" width="241.45" height="0.45" transform="matrix(0.87, -0.5, 0.5, 0.87, 175.9, 336.87)"/><rect class="cls-4" x="257.6" y="-33.5" width="241.45" height="0.45" transform="translate(175.7 337.52) rotate(-29.98)"/><rect class="cls-4" x="258.85" y="-32.86" width="241.45" height="0.45" transform="translate(175.44 338.08) rotate(-29.95)"/><rect class="cls-4" x="226.22" y="-51.67" width="241.45" height="0.45" transform="translate(180.52 319.33) rotate(-29.96)"/><rect class="cls-4" x="227.25" y="-50.96" width="241.45" height="0.45" transform="translate(180.32 319.97) rotate(-29.97)"/><rect class="cls-4" x="228.47" y="-50.31" width="241.45" height="0.45" transform="translate(180.03 320.5) rotate(-29.94)"/><rect class="cls-4" x="229.58" y="-49.61" width="241.45" height="0.45" transform="translate(179.94 321.28) rotate(-29.96)"/><rect class="cls-4" x="230.83" y="-48.97" width="241.45" height="0.45" transform="translate(179.81 322.02) rotate(-29.97)"/><rect class="cls-4" x="231.94" y="-48.28" width="241.45" height="0.45" transform="matrix(0.87, -0.5, 0.5, 0.87, 179.65, 322.72)"/><rect class="cls-4" x="233.19" y="-47.63" width="241.45" height="0.45" transform="translate(179.45 323.38) rotate(-29.97)"/><rect class="cls-4" x="234.3" y="-46.93" width="241.45" height="0.45" transform="translate(179.21 323.97) rotate(-29.96)"/><rect class="cls-4" x="235.54" y="-46.29" width="241.45" height="0.45" transform="translate(179.03 324.65) rotate(-29.95)"/><rect class="cls-4" x="236.57" y="-45.58" width="241.45" height="0.45" transform="translate(178.88 325.34) rotate(-29.97)"/><rect class="cls-4" x="237.8" y="-44.92" width="241.45" height="0.45" transform="translate(178.67 325.99) rotate(-29.96)"/><rect class="cls-4" x="238.91" y="-44.23" width="241.45" height="0.45" transform="translate(178.52 326.69) rotate(-29.97)"/><rect class="cls-4" x="240.16" y="-43.59" width="241.45" height="0.45" transform="translate(178.37 327.4) rotate(-29.97)"/><rect class="cls-4" x="241.27" y="-42.89" width="241.45" height="0.45" transform="translate(178.17 328.05) rotate(-29.97)"/></g></svg>