<svg id="Layer_1" data-name="Layer 1" xmlns="http://www.w3.org/2000/svg" viewBox="0 0 440 440"><defs><style>.cls-1{fill:#150035;}</style></defs><title>telegram</title><path class="cls-1" d="M232,19.88c-121.5,0-220,98.5-220,220s98.5,220,220,220,220-98.5,220-220S353.5,19.88,232,19.88ZM339.25,159.79c-1.26,20.21-38.72,171-38.72,171s-2.24,8.82-10.28,9.12c-2.93.11-6.49-.48-10.74-4.14-8.46-7.28-28.07-21.2-46.29-33.77-5.5,4.62-16.49,14.13-27.86,25.49-16.1,16.1-14,0-14,0l4.95-52.57.12.08a4.6,4.6,0,0,1,.59-1s94.88-84.34,97.4-93.19c.2-.68-.54-1-1.53-.73-6.31,2.32-115.54,71.3-127.6,78.92-.7.45-2.68.16-2.68.16l-53-17.27s-6.33-2.57-4.3-8.4c.42-1.2,1.27-2.22,3.8-4,11.74-8.19,217.35-82.09,217.35-82.09s5.81-2,9.24-.66c1.57.6,2.57,1.27,3.42,3.72a17,17,0,0,1,.45,4.68C339.54,156.55,339.37,157.81,339.25,159.79Z" transform="translate(-12 -19.88)"/></svg>